M48
; DRILL file {KiCad (6.0.5-0)} date Tuesday, July 26, 2022 at 11:21:24 PM
; FORMAT={-:-/ absolute / metric / decimal}
; #@! TF.CreationDate,2022-07-26T23:21:24+09:00
; #@! TF.GenerationSoftware,Kicad,Pcbnew,(6.0.5-0)
; #@! TF.FileFunction,Plated,1,2,PTH
FMAT,2
METRIC
; #@! TA.AperFunction,Plated,PTH,ViaDrill
T1C0.400
; #@! TA.AperFunction,Plated,PTH,ComponentDrill
T2C0.800
; #@! TA.AperFunction,Plated,PTH,ComponentDrill
T3C1.000
; #@! TA.AperFunction,Plated,PTH,ComponentDrill
T4C1.500
%
G90
G05
T1
X22.575Y-79.025
X23.475Y-115.625
X23.575Y-20.325
X23.575Y-39.525
X23.812Y-33.337
X23.812Y-52.387
X23.812Y-128.588
X27.275Y-93.725
X28.475Y-58.525
X28.575Y-71.438
X28.575Y-85.725
X28.975Y-93.625
X29.275Y-100.125
X30.575Y-102.025
X30.675Y-108.725
X30.875Y-77.525
X30.956Y-33.337
X33.275Y-116.125
X33.275Y-121.125
X33.337Y-45.244
X33.337Y-52.387
X34.275Y-121.125
X34.275Y-116.125
X35.075Y-96.625
X35.275Y-116.125
X35.275Y-121.125
X35.719Y-109.537
X35.975Y-95.825
X36.675Y-38.225
X36.675Y-40.525
X36.775Y-94.725
X37.675Y-26.725
X38.1Y-71.438
X38.775Y-38.225
X38.775Y-40.525
X39.175Y-25.125
X39.712Y-91.577
X40.275Y-25.125
X40.481Y-54.769
X41.125Y-82.675
X41.275Y-25.125
X41.42Y-87.28
X42.175Y-83.825
X42.375Y-87.925
X42.575Y-39.425
X42.862Y-126.206
X43.175Y-115.425
X44.075Y-86.625
X44.175Y-83.725
X45.075Y-57.525
X45.075Y-59.825
X45.075Y-76.325
X45.075Y-78.625
X45.175Y-83.725
X45.475Y-97.125
X46.275Y-89.725
X46.275Y-91.925
X46.775Y-102.325
X47.075Y-57.525
X47.075Y-59.825
X47.175Y-76.325
X47.175Y-78.625
X47.275Y-85.025
X47.375Y-90.825
X47.575Y-103.425
X47.9Y-35.5
X47.975Y-82.425
X48.475Y-89.725
X48.475Y-91.925
X48.675Y-104.625
X48.675Y-105.825
X48.955Y-99.145
X49.675Y-78.525
X49.775Y-93.125
X49.785Y-88.418
X49.975Y-105.825
X50.175Y-26.525
X50.175Y-97.325
X51.175Y-105.825
X51.275Y-23.325
X51.675Y-78.525
X52.275Y-23.325
X52.275Y-104.725
X52.275Y-105.825
X52.775Y-58.525
X52.775Y-86.125
X53.075Y-100.225
X53.275Y-23.325
X53.475Y-103.425
X53.475Y-104.725
X53.575Y-69.325
X54.275Y-100.225
X54.275Y-101.425
X54.275Y-102.625
X54.575Y-91.825
X55.3Y-88.825
X55.828Y-112.619
X56.275Y-111.725
X56.574Y-110.725
X56.775Y-72.125
X56.974Y-109.732
X57.15Y-52.387
X57.374Y-108.756
X57.5Y-79.9
X57.773Y-107.763
X59.175Y-75.425
X59.375Y-94.825
X59.531Y-33.337
X59.575Y-20.325
X60.575Y-90.525
X60.973Y-88.873
X61.912Y-126.206
X62.375Y-115.425
X62.575Y-39.425
X65.775Y-70.425
X66.675Y-88.106
X66.675Y-109.537
X66.875Y-96.625
X71.438Y-52.387
X71.775Y-58.525
X76.2Y-90.487
X76.575Y-77.525
X78.575Y-20.325
X78.581Y-33.337
X80.962Y-71.438
X81.575Y-39.425
X83.344Y-126.206
X84.075Y-115.425
X85.675Y-96.625
X85.725Y-109.537
X90.487Y-52.387
X90.675Y-58.525
X95.25Y-90.487
X95.575Y-77.525
X97.575Y-20.325
X97.631Y-33.337
X100.012Y-71.438
X100.575Y-39.425
X104.675Y-96.525
X104.775Y-109.537
X109.475Y-58.525
X109.537Y-52.387
X114.3Y-90.487
X114.675Y-77.525
X115.375Y-101.925
X116.575Y-20.325
X116.681Y-33.337
X119.062Y-71.438
X119.475Y-39.425
X123.675Y-96.525
X123.825Y-109.537
X128.575Y-58.525
X128.588Y-52.387
X133.35Y-90.487
X133.35Y-130.969
X133.575Y-77.525
X134.375Y-101.825
X138.112Y-71.438
X138.575Y-39.425
X142.675Y-96.625
X142.875Y-109.537
X147.575Y-58.425
X147.637Y-33.337
X147.637Y-52.387
X150.019Y-20.425
X152.4Y-90.487
X152.675Y-77.525
X155.375Y-115.625
X157.162Y-71.438
X157.575Y-39.425
X161.775Y-96.625
X166.675Y-58.525
X166.688Y-33.337
X166.688Y-52.387
X167.575Y-20.325
X171.45Y-90.487
X171.45Y-109.537
X171.575Y-77.525
X172.475Y-101.725
X176.213Y-71.438
X176.575Y-39.425
X180.775Y-96.625
X180.975Y-109.537
X185.575Y-58.525
X185.737Y-33.337
X185.737Y-52.387
X186.575Y-20.225
X188.119Y-130.969
X190.5Y-90.487
X190.675Y-77.525
X191.675Y-101.925
X195.262Y-71.438
X195.475Y-39.425
X200.025Y-109.537
X200.675Y-96.525
X204.675Y-58.525
X204.787Y-33.337
X204.787Y-52.387
X205.575Y-20.325
X209.55Y-90.487
X209.675Y-77.525
X210.675Y-101.825
X214.312Y-71.438
X214.675Y-39.425
X219.075Y-109.537
X219.675Y-96.625
X221.456Y-123.825
X223.837Y-52.387
X223.875Y-58.525
X226.675Y-115.625
X228.6Y-90.487
X228.675Y-77.625
X229.675Y-101.825
X233.362Y-33.337
X233.362Y-71.438
X233.575Y-20.325
X233.575Y-39.425
X238.675Y-96.625
X242.887Y-52.387
X243.675Y-58.525
X247.65Y-90.487
X247.65Y-109.537
X247.65Y-123.825
X247.675Y-77.525
X252.412Y-33.337
X252.412Y-71.438
X252.575Y-20.325
X252.575Y-39.425
X253.475Y-115.625
X261.938Y-52.387
X262.475Y-58.525
X266.7Y-123.825
X271.462Y-33.337
X271.462Y-71.438
X271.462Y-109.537
X271.575Y-20.325
X271.975Y-115.625
X272.175Y-96.725
X278.606Y-90.487
X278.875Y-77.525
X280.975Y-39.425
X285.875Y-58.525
X290.475Y-20.325
X290.512Y-33.337
X290.512Y-52.387
X290.575Y-115.625
X295.275Y-71.438
X300.037Y-128.588
T3
X22.575Y-81.37
X22.575Y-83.91
X22.575Y-86.45
T4
X24.765Y-26.035
X24.765Y-45.085
X24.765Y-121.285
X29.527Y-64.135
X31.115Y-23.495
X31.115Y-42.545
X31.115Y-118.745
X31.909Y-83.185
X35.877Y-61.595
X36.671Y-102.235
X38.259Y-80.645
X43.021Y-99.695
X43.815Y-45.085
X43.815Y-121.285
X50.165Y-42.545
X50.165Y-118.745
X53.34Y-64.135
X58.102Y-83.185
X59.69Y-61.595
X60.484Y-26.035
X62.865Y-45.085
X62.865Y-121.285
X64.453Y-80.645
X66.834Y-23.495
X67.627Y-102.235
X69.215Y-42.545
X69.215Y-118.745
X72.39Y-64.135
X73.977Y-99.695
X77.153Y-83.185
X78.74Y-61.595
X79.534Y-26.035
X81.915Y-45.085
X83.502Y-80.645
X84.296Y-121.285
X85.884Y-23.495
X86.677Y-102.235
X88.265Y-42.545
X90.646Y-118.745
X91.44Y-64.135
X93.027Y-99.695
X96.203Y-83.185
X97.79Y-61.595
X98.584Y-26.035
X100.965Y-45.085
X102.552Y-80.645
X104.934Y-23.495
X105.727Y-102.235
X107.315Y-42.545
X110.49Y-64.135
X112.078Y-99.695
X115.252Y-83.185
X116.84Y-61.595
X117.634Y-26.035
X120.015Y-45.085
X121.602Y-80.645
X123.984Y-23.495
X124.777Y-102.235
X126.365Y-42.545
X129.54Y-64.135
X131.127Y-99.695
X134.302Y-83.185
X135.89Y-61.595
X139.065Y-45.085
X140.653Y-80.645
X143.827Y-102.235
X145.415Y-42.545
X148.59Y-26.035
X148.59Y-64.135
X150.177Y-99.695
X153.352Y-83.185
X154.94Y-23.495
X154.94Y-61.595
X155.734Y-121.285
X158.115Y-45.085
X159.702Y-80.645
X162.084Y-118.745
X162.877Y-102.235
X164.465Y-42.545
X167.64Y-26.035
X167.64Y-64.135
X169.227Y-99.695
X172.403Y-83.185
X173.99Y-23.495
X173.99Y-61.595
X177.165Y-45.085
X178.752Y-80.645
X181.927Y-102.235
X183.515Y-42.545
X186.69Y-26.035
X186.69Y-64.135
X188.278Y-99.695
X191.452Y-83.185
X193.04Y-23.495
X193.04Y-61.595
X196.215Y-45.085
X197.802Y-80.645
X200.977Y-102.235
X202.565Y-42.545
X205.74Y-26.035
X205.74Y-64.135
X207.327Y-99.695
X210.502Y-83.185
X212.09Y-23.495
X212.09Y-61.595
X215.265Y-45.085
X216.852Y-80.645
X220.028Y-102.235
X221.615Y-42.545
X224.79Y-64.135
X226.377Y-99.695
X227.171Y-121.285
X229.552Y-83.185
X231.14Y-61.595
X233.521Y-118.745
X234.315Y-26.035
X234.315Y-45.085
X235.903Y-80.645
X239.077Y-102.235
X240.665Y-23.495
X240.665Y-42.545
X243.84Y-64.135
X245.427Y-99.695
X248.602Y-83.185
X250.19Y-61.595
X253.365Y-26.035
X253.365Y-45.085
X253.365Y-121.285
X254.952Y-80.645
X259.715Y-23.495
X259.715Y-42.545
X259.715Y-118.745
X262.89Y-64.135
X269.24Y-61.595
X272.415Y-26.035
X272.415Y-102.235
X272.415Y-121.285
X278.765Y-23.495
X278.765Y-99.695
X278.765Y-118.745
X279.559Y-83.185
X281.94Y-45.085
X285.909Y-80.645
X286.702Y-64.135
X288.29Y-42.545
X291.465Y-26.035
X291.465Y-121.285
X293.053Y-61.595
X297.815Y-23.495
X297.815Y-118.745
T2
X40.918Y-18.31G85X40.918Y-18.91
G05
X40.918Y-22.409G85X40.918Y-23.21
G05
X49.568Y-18.31G85X49.568Y-18.91
G05
X49.568Y-22.41G85X49.568Y-23.209
G05
T0
M30
