G04 #@! TF.GenerationSoftware,KiCad,Pcbnew,(6.0.5-0)*
G04 #@! TF.CreationDate,2022-07-26T23:18:35+09:00*
G04 #@! TF.ProjectId,key-ripper,6b65792d-7269-4707-9065-722e6b696361,rev?*
G04 #@! TF.SameCoordinates,Original*
G04 #@! TF.FileFunction,Soldermask,Top*
G04 #@! TF.FilePolarity,Negative*
%FSLAX46Y46*%
G04 Gerber Fmt 4.6, Leading zero omitted, Abs format (unit mm)*
G04 Created by KiCad (PCBNEW (6.0.5-0)) date 2022-07-26 23:18:35*
%MOMM*%
%LPD*%
G01*
G04 APERTURE LIST*
%ADD10C,1.750000*%
%ADD11C,4.000000*%
%ADD12C,1.550000*%
%ADD13C,2.200000*%
%ADD14C,3.048000*%
%ADD15C,3.987800*%
%ADD16R,1.700000X1.700000*%
%ADD17O,1.700000X1.700000*%
%ADD18C,0.750013*%
%ADD19O,1.200000X1.800000*%
%ADD20O,1.200000X2.000000*%
G04 APERTURE END LIST*
D10*
X290830000Y-47625000D03*
D11*
X285750000Y-47625000D03*
D12*
X281940000Y-45085000D03*
X288290000Y-42545000D03*
D10*
X280670000Y-47625000D03*
X93186250Y-123825000D03*
D12*
X90646250Y-118745000D03*
D10*
X83026250Y-123825000D03*
D12*
X84296250Y-121285000D03*
D11*
X88106250Y-123825000D03*
D10*
X236061250Y-123825000D03*
D12*
X233521250Y-118745000D03*
D10*
X225901250Y-123825000D03*
D12*
X227171250Y-121285000D03*
D11*
X230981250Y-123825000D03*
D12*
X162083750Y-118745000D03*
X155733750Y-121285000D03*
D10*
X164623750Y-123825000D03*
D11*
X159543750Y-123825000D03*
D10*
X154463750Y-123825000D03*
X278288750Y-85725000D03*
D12*
X279558750Y-83185000D03*
D10*
X288448750Y-85725000D03*
D11*
X283368750Y-85725000D03*
D12*
X285908750Y-80645000D03*
D10*
X35401250Y-104775000D03*
D12*
X36671250Y-102235000D03*
D10*
X45561250Y-104775000D03*
D11*
X40481250Y-104775000D03*
D12*
X43021250Y-99695000D03*
X143827500Y-102235000D03*
D11*
X147637500Y-104775000D03*
D10*
X142557500Y-104775000D03*
D12*
X150177500Y-99695000D03*
D10*
X152717500Y-104775000D03*
D12*
X77152500Y-83185000D03*
D11*
X80962500Y-85725000D03*
D10*
X75882500Y-85725000D03*
D12*
X83502500Y-80645000D03*
D10*
X86042500Y-85725000D03*
D12*
X96202500Y-83185000D03*
D11*
X100012500Y-85725000D03*
D10*
X94932500Y-85725000D03*
D12*
X102552500Y-80645000D03*
D10*
X105092500Y-85725000D03*
D12*
X224790000Y-64135000D03*
D11*
X228600000Y-66675000D03*
D10*
X223520000Y-66675000D03*
D12*
X231140000Y-61595000D03*
D10*
X233680000Y-66675000D03*
D12*
X81915000Y-45085000D03*
D11*
X85725000Y-47625000D03*
D10*
X80645000Y-47625000D03*
D12*
X88265000Y-42545000D03*
D10*
X90805000Y-47625000D03*
D12*
X248602500Y-83185000D03*
D11*
X252412500Y-85725000D03*
D10*
X247332500Y-85725000D03*
D12*
X254952500Y-80645000D03*
D10*
X257492500Y-85725000D03*
D12*
X272415000Y-102235000D03*
D11*
X276225000Y-104775000D03*
D10*
X271145000Y-104775000D03*
D12*
X278765000Y-99695000D03*
D10*
X281305000Y-104775000D03*
D12*
X196215000Y-45085000D03*
D11*
X200025000Y-47625000D03*
D10*
X194945000Y-47625000D03*
D12*
X202565000Y-42545000D03*
D10*
X205105000Y-47625000D03*
D12*
X181927500Y-102235000D03*
D11*
X185737500Y-104775000D03*
D10*
X180657500Y-104775000D03*
D12*
X188277500Y-99695000D03*
D10*
X190817500Y-104775000D03*
D12*
X139065000Y-45085000D03*
D11*
X142875000Y-47625000D03*
D10*
X137795000Y-47625000D03*
D12*
X145415000Y-42545000D03*
D10*
X147955000Y-47625000D03*
D12*
X186690000Y-64135000D03*
D11*
X190500000Y-66675000D03*
D10*
X185420000Y-66675000D03*
D12*
X193040000Y-61595000D03*
D10*
X195580000Y-66675000D03*
D12*
X234315000Y-26035000D03*
D11*
X238125000Y-28575000D03*
D10*
X233045000Y-28575000D03*
D12*
X240665000Y-23495000D03*
D10*
X243205000Y-28575000D03*
D12*
X153352500Y-83185000D03*
D11*
X157162500Y-85725000D03*
D10*
X152082500Y-85725000D03*
D12*
X159702500Y-80645000D03*
D10*
X162242500Y-85725000D03*
D12*
X129540000Y-64135000D03*
D11*
X133350000Y-66675000D03*
D10*
X128270000Y-66675000D03*
D12*
X135890000Y-61595000D03*
D10*
X138430000Y-66675000D03*
D12*
X158115000Y-45085000D03*
D11*
X161925000Y-47625000D03*
D10*
X156845000Y-47625000D03*
D12*
X164465000Y-42545000D03*
D10*
X167005000Y-47625000D03*
D12*
X167640000Y-26035000D03*
D11*
X171450000Y-28575000D03*
D10*
X166370000Y-28575000D03*
D12*
X173990000Y-23495000D03*
D10*
X176530000Y-28575000D03*
D12*
X115252500Y-83185000D03*
D11*
X119062500Y-85725000D03*
D10*
X113982500Y-85725000D03*
D12*
X121602500Y-80645000D03*
D10*
X124142500Y-85725000D03*
D12*
X191452500Y-83185000D03*
D11*
X195262500Y-85725000D03*
D10*
X190182500Y-85725000D03*
D12*
X197802500Y-80645000D03*
D10*
X200342500Y-85725000D03*
D12*
X205740000Y-64135000D03*
D11*
X209550000Y-66675000D03*
D10*
X204470000Y-66675000D03*
D12*
X212090000Y-61595000D03*
D10*
X214630000Y-66675000D03*
D12*
X58102500Y-83185000D03*
D11*
X61912500Y-85725000D03*
D10*
X56832500Y-85725000D03*
D12*
X64452500Y-80645000D03*
D10*
X66992500Y-85725000D03*
D12*
X124777500Y-102235000D03*
D11*
X128587500Y-104775000D03*
D10*
X123507500Y-104775000D03*
D12*
X131127500Y-99695000D03*
D10*
X133667500Y-104775000D03*
D12*
X167640000Y-64135000D03*
D11*
X171450000Y-66675000D03*
D10*
X166370000Y-66675000D03*
D12*
X173990000Y-61595000D03*
D10*
X176530000Y-66675000D03*
D12*
X72390000Y-64135000D03*
D11*
X76200000Y-66675000D03*
D10*
X71120000Y-66675000D03*
D12*
X78740000Y-61595000D03*
D10*
X81280000Y-66675000D03*
D12*
X177165000Y-45085000D03*
D11*
X180975000Y-47625000D03*
D10*
X175895000Y-47625000D03*
D12*
X183515000Y-42545000D03*
D10*
X186055000Y-47625000D03*
D12*
X253365000Y-45085000D03*
D11*
X257175000Y-47625000D03*
D10*
X252095000Y-47625000D03*
D12*
X259715000Y-42545000D03*
D10*
X262255000Y-47625000D03*
D12*
X291465000Y-121285000D03*
D11*
X295275000Y-123825000D03*
D10*
X290195000Y-123825000D03*
D12*
X297815000Y-118745000D03*
D10*
X300355000Y-123825000D03*
D12*
X67627500Y-102235000D03*
D11*
X71437500Y-104775000D03*
D10*
X66357500Y-104775000D03*
D12*
X73977500Y-99695000D03*
D10*
X76517500Y-104775000D03*
D12*
X210502500Y-83185000D03*
D11*
X214312500Y-85725000D03*
D10*
X209232500Y-85725000D03*
D12*
X216852500Y-80645000D03*
D10*
X219392500Y-85725000D03*
D12*
X134302500Y-83185000D03*
D11*
X138112500Y-85725000D03*
D10*
X133032500Y-85725000D03*
D12*
X140652500Y-80645000D03*
D10*
X143192500Y-85725000D03*
D12*
X205740000Y-26035000D03*
D11*
X209550000Y-28575000D03*
D10*
X204470000Y-28575000D03*
D12*
X212090000Y-23495000D03*
D10*
X214630000Y-28575000D03*
D12*
X62865000Y-121285000D03*
D11*
X66675000Y-123825000D03*
D10*
X61595000Y-123825000D03*
D12*
X69215000Y-118745000D03*
D10*
X71755000Y-123825000D03*
D12*
X24765000Y-26035000D03*
D11*
X28575000Y-28575000D03*
D10*
X23495000Y-28575000D03*
D12*
X31115000Y-23495000D03*
D10*
X33655000Y-28575000D03*
D12*
X215265000Y-45085000D03*
D11*
X219075000Y-47625000D03*
D10*
X213995000Y-47625000D03*
D12*
X221615000Y-42545000D03*
D10*
X224155000Y-47625000D03*
D12*
X117633750Y-26035000D03*
D11*
X121443750Y-28575000D03*
D10*
X116363750Y-28575000D03*
D12*
X123983750Y-23495000D03*
D10*
X126523750Y-28575000D03*
D12*
X186690000Y-26035000D03*
D11*
X190500000Y-28575000D03*
D10*
X185420000Y-28575000D03*
D12*
X193040000Y-23495000D03*
D10*
X195580000Y-28575000D03*
D12*
X86677500Y-102235000D03*
D11*
X90487500Y-104775000D03*
D10*
X85407500Y-104775000D03*
D12*
X93027500Y-99695000D03*
D10*
X95567500Y-104775000D03*
D12*
X24765000Y-121285000D03*
D11*
X28575000Y-123825000D03*
D10*
X23495000Y-123825000D03*
D12*
X31115000Y-118745000D03*
D10*
X33655000Y-123825000D03*
D12*
X272415000Y-26035000D03*
D11*
X276225000Y-28575000D03*
D10*
X271145000Y-28575000D03*
D12*
X278765000Y-23495000D03*
D10*
X281305000Y-28575000D03*
D12*
X43815000Y-45085000D03*
D11*
X47625000Y-47625000D03*
D10*
X42545000Y-47625000D03*
D12*
X50165000Y-42545000D03*
D10*
X52705000Y-47625000D03*
D12*
X172402500Y-83185000D03*
D11*
X176212500Y-85725000D03*
D10*
X171132500Y-85725000D03*
D12*
X178752500Y-80645000D03*
D10*
X181292500Y-85725000D03*
D12*
X291465000Y-26035000D03*
D11*
X295275000Y-28575000D03*
D10*
X290195000Y-28575000D03*
D12*
X297815000Y-23495000D03*
D10*
X300355000Y-28575000D03*
D12*
X79533750Y-26035000D03*
D11*
X83343750Y-28575000D03*
D10*
X78263750Y-28575000D03*
D12*
X85883750Y-23495000D03*
D10*
X88423750Y-28575000D03*
D12*
X234315000Y-45085000D03*
D11*
X238125000Y-47625000D03*
D10*
X233045000Y-47625000D03*
D12*
X240665000Y-42545000D03*
D10*
X243205000Y-47625000D03*
D12*
X53340000Y-64135000D03*
D11*
X57150000Y-66675000D03*
D10*
X52070000Y-66675000D03*
D12*
X59690000Y-61595000D03*
D10*
X62230000Y-66675000D03*
D12*
X243840000Y-64135000D03*
D11*
X247650000Y-66675000D03*
D10*
X242570000Y-66675000D03*
D12*
X250190000Y-61595000D03*
D10*
X252730000Y-66675000D03*
D12*
X229552500Y-83185000D03*
D11*
X233362500Y-85725000D03*
D10*
X228282500Y-85725000D03*
D12*
X235902500Y-80645000D03*
D10*
X238442500Y-85725000D03*
D12*
X60483750Y-26035000D03*
D11*
X64293750Y-28575000D03*
D10*
X59213750Y-28575000D03*
D12*
X66833750Y-23495000D03*
D10*
X69373750Y-28575000D03*
D12*
X200977500Y-102235000D03*
D11*
X204787500Y-104775000D03*
D10*
X199707500Y-104775000D03*
D12*
X207327500Y-99695000D03*
D10*
X209867500Y-104775000D03*
D12*
X253365000Y-26035000D03*
D11*
X257175000Y-28575000D03*
D10*
X252095000Y-28575000D03*
D12*
X259715000Y-23495000D03*
D10*
X262255000Y-28575000D03*
D12*
X105727500Y-102235000D03*
D11*
X109537500Y-104775000D03*
D10*
X104457500Y-104775000D03*
D12*
X112077500Y-99695000D03*
D10*
X114617500Y-104775000D03*
D12*
X24765000Y-45085000D03*
D11*
X28575000Y-47625000D03*
D10*
X23495000Y-47625000D03*
D12*
X31115000Y-42545000D03*
D10*
X33655000Y-47625000D03*
D12*
X262890000Y-64135000D03*
D11*
X266700000Y-66675000D03*
D10*
X261620000Y-66675000D03*
D12*
X269240000Y-61595000D03*
D10*
X271780000Y-66675000D03*
D12*
X148590000Y-64135000D03*
D11*
X152400000Y-66675000D03*
D10*
X147320000Y-66675000D03*
D12*
X154940000Y-61595000D03*
D10*
X157480000Y-66675000D03*
D12*
X91440000Y-64135000D03*
D11*
X95250000Y-66675000D03*
D10*
X90170000Y-66675000D03*
D12*
X97790000Y-61595000D03*
D10*
X100330000Y-66675000D03*
D12*
X239077500Y-102235000D03*
D11*
X242887500Y-104775000D03*
D10*
X237807500Y-104775000D03*
D12*
X245427500Y-99695000D03*
D10*
X247967500Y-104775000D03*
D12*
X110490000Y-64135000D03*
D11*
X114300000Y-66675000D03*
D10*
X109220000Y-66675000D03*
D12*
X116840000Y-61595000D03*
D10*
X119380000Y-66675000D03*
D12*
X220027500Y-102235000D03*
D11*
X223837500Y-104775000D03*
D10*
X218757500Y-104775000D03*
D12*
X226377500Y-99695000D03*
D10*
X228917500Y-104775000D03*
D12*
X148590000Y-26035000D03*
D11*
X152400000Y-28575000D03*
D10*
X147320000Y-28575000D03*
D12*
X154940000Y-23495000D03*
D10*
X157480000Y-28575000D03*
D12*
X272415000Y-121285000D03*
D11*
X276225000Y-123825000D03*
D10*
X271145000Y-123825000D03*
D12*
X278765000Y-118745000D03*
D10*
X281305000Y-123825000D03*
D12*
X62865000Y-45085000D03*
D11*
X66675000Y-47625000D03*
D10*
X61595000Y-47625000D03*
D12*
X69215000Y-42545000D03*
D10*
X71755000Y-47625000D03*
D12*
X98583750Y-26035000D03*
D11*
X102393750Y-28575000D03*
D10*
X97313750Y-28575000D03*
D12*
X104933750Y-23495000D03*
D10*
X107473750Y-28575000D03*
D12*
X253365000Y-121285000D03*
D11*
X257175000Y-123825000D03*
D10*
X252095000Y-123825000D03*
D12*
X259715000Y-118745000D03*
D10*
X262255000Y-123825000D03*
D12*
X162877500Y-102235000D03*
D11*
X166687500Y-104775000D03*
D10*
X161607500Y-104775000D03*
D12*
X169227500Y-99695000D03*
D10*
X171767500Y-104775000D03*
D12*
X120015000Y-45085000D03*
D11*
X123825000Y-47625000D03*
D10*
X118745000Y-47625000D03*
D12*
X126365000Y-42545000D03*
D10*
X128905000Y-47625000D03*
D12*
X43815000Y-121285000D03*
D11*
X47625000Y-123825000D03*
D10*
X42545000Y-123825000D03*
D12*
X50165000Y-118745000D03*
D10*
X52705000Y-123825000D03*
D12*
X100965000Y-45085000D03*
D11*
X104775000Y-47625000D03*
D10*
X99695000Y-47625000D03*
D12*
X107315000Y-42545000D03*
D10*
X109855000Y-47625000D03*
D11*
X35718750Y-85725000D03*
D12*
X38258750Y-80645000D03*
D10*
X40798750Y-85725000D03*
X30638750Y-85725000D03*
D12*
X31908750Y-83185000D03*
D10*
X285432500Y-66675000D03*
X295592500Y-66675000D03*
D12*
X293052500Y-61595000D03*
X286702500Y-64135000D03*
D11*
X290512500Y-66675000D03*
D10*
X28257500Y-66675000D03*
X38417500Y-66675000D03*
D12*
X35877500Y-61595000D03*
X29527500Y-64135000D03*
D11*
X33337500Y-66675000D03*
D13*
X45243750Y-33337500D03*
D14*
X52419250Y-97790000D03*
D15*
X28543250Y-113000000D03*
D14*
X28543250Y-97790000D03*
D15*
X52419250Y-113000000D03*
D14*
X271430750Y-78740000D03*
D15*
X271430750Y-93950000D03*
X295306750Y-93950000D03*
D14*
X295306750Y-78740000D03*
D13*
X21431250Y-66675000D03*
X38100000Y-123825000D03*
X219075000Y-71437500D03*
D15*
X209543750Y-115600000D03*
X109543750Y-115600000D03*
D14*
X109543750Y-130810000D03*
X209543750Y-130810000D03*
D13*
X135731250Y-123825000D03*
X223837500Y-28575000D03*
X104775000Y-71437500D03*
X135731250Y-28575000D03*
X285750000Y-126206250D03*
D15*
X273812000Y-55850000D03*
X297688000Y-55850000D03*
D14*
X273812000Y-40640000D03*
X297688000Y-40640000D03*
D13*
X183356250Y-123825000D03*
D16*
X22575000Y-86450000D03*
D17*
X22575000Y-83910000D03*
X22575000Y-81370000D03*
D13*
X300037500Y-71437500D03*
X285750000Y-30956250D03*
D18*
X42342810Y-22309384D03*
X48142658Y-22309384D03*
D19*
X49567855Y-18609612D03*
D20*
X49567855Y-22809511D03*
D19*
X40917613Y-18609612D03*
D20*
X40917613Y-22809511D03*
M02*
