G04 #@! TF.GenerationSoftware,KiCad,Pcbnew,(6.0.5-0)*
G04 #@! TF.CreationDate,2022-07-26T23:18:35+09:00*
G04 #@! TF.ProjectId,key-ripper,6b65792d-7269-4707-9065-722e6b696361,rev?*
G04 #@! TF.SameCoordinates,Original*
G04 #@! TF.FileFunction,Legend,Top*
G04 #@! TF.FilePolarity,Positive*
%FSLAX46Y46*%
G04 Gerber Fmt 4.6, Leading zero omitted, Abs format (unit mm)*
G04 Created by KiCad (PCBNEW (6.0.5-0)) date 2022-07-26 23:18:35*
%MOMM*%
%LPD*%
G01*
G04 APERTURE LIST*
%ADD10C,0.150000*%
%ADD11C,0.120000*%
%ADD12C,1.750000*%
%ADD13C,4.000000*%
%ADD14C,1.550000*%
%ADD15C,2.200000*%
%ADD16C,3.048000*%
%ADD17C,3.987800*%
%ADD18R,1.700000X1.700000*%
%ADD19O,1.700000X1.700000*%
%ADD20C,0.750013*%
%ADD21O,1.200000X1.800000*%
%ADD22O,1.200000X2.000000*%
G04 APERTURE END LIST*
D10*
X21713095Y-71825000D02*
X21617857Y-71777380D01*
X21475000Y-71777380D01*
X21332142Y-71825000D01*
X21236904Y-71920238D01*
X21189285Y-72015476D01*
X21141666Y-72205952D01*
X21141666Y-72348809D01*
X21189285Y-72539285D01*
X21236904Y-72634523D01*
X21332142Y-72729761D01*
X21475000Y-72777380D01*
X21570238Y-72777380D01*
X21713095Y-72729761D01*
X21760714Y-72682142D01*
X21760714Y-72348809D01*
X21570238Y-72348809D01*
X22189285Y-72777380D02*
X22189285Y-71777380D01*
X22760714Y-72777380D01*
X22760714Y-71777380D01*
X23236904Y-72777380D02*
X23236904Y-71777380D01*
X23475000Y-71777380D01*
X23617857Y-71825000D01*
X23713095Y-71920238D01*
X23760714Y-72015476D01*
X23808333Y-72205952D01*
X23808333Y-72348809D01*
X23760714Y-72539285D01*
X23713095Y-72634523D01*
X23617857Y-72729761D01*
X23475000Y-72777380D01*
X23236904Y-72777380D01*
X21117857Y-77829761D02*
X21260714Y-77877380D01*
X21498809Y-77877380D01*
X21594047Y-77829761D01*
X21641666Y-77782142D01*
X21689285Y-77686904D01*
X21689285Y-77591666D01*
X21641666Y-77496428D01*
X21594047Y-77448809D01*
X21498809Y-77401190D01*
X21308333Y-77353571D01*
X21213095Y-77305952D01*
X21165476Y-77258333D01*
X21117857Y-77163095D01*
X21117857Y-77067857D01*
X21165476Y-76972619D01*
X21213095Y-76925000D01*
X21308333Y-76877380D01*
X21546428Y-76877380D01*
X21689285Y-76925000D01*
X22022619Y-76877380D02*
X22260714Y-77877380D01*
X22451190Y-77163095D01*
X22641666Y-77877380D01*
X22879761Y-76877380D01*
X23260714Y-77877380D02*
X23260714Y-76877380D01*
X23498809Y-76877380D01*
X23641666Y-76925000D01*
X23736904Y-77020238D01*
X23784523Y-77115476D01*
X23832142Y-77305952D01*
X23832142Y-77448809D01*
X23784523Y-77639285D01*
X23736904Y-77734523D01*
X23641666Y-77829761D01*
X23498809Y-77877380D01*
X23260714Y-77877380D01*
X20413095Y-75129761D02*
X20555952Y-75177380D01*
X20794047Y-75177380D01*
X20889285Y-75129761D01*
X20936904Y-75082142D01*
X20984523Y-74986904D01*
X20984523Y-74891666D01*
X20936904Y-74796428D01*
X20889285Y-74748809D01*
X20794047Y-74701190D01*
X20603571Y-74653571D01*
X20508333Y-74605952D01*
X20460714Y-74558333D01*
X20413095Y-74463095D01*
X20413095Y-74367857D01*
X20460714Y-74272619D01*
X20508333Y-74225000D01*
X20603571Y-74177380D01*
X20841666Y-74177380D01*
X20984523Y-74225000D01*
X21317857Y-74177380D02*
X21555952Y-75177380D01*
X21746428Y-74463095D01*
X21936904Y-75177380D01*
X22175000Y-74177380D01*
X23127380Y-75082142D02*
X23079761Y-75129761D01*
X22936904Y-75177380D01*
X22841666Y-75177380D01*
X22698809Y-75129761D01*
X22603571Y-75034523D01*
X22555952Y-74939285D01*
X22508333Y-74748809D01*
X22508333Y-74605952D01*
X22555952Y-74415476D01*
X22603571Y-74320238D01*
X22698809Y-74225000D01*
X22841666Y-74177380D01*
X22936904Y-74177380D01*
X23079761Y-74225000D01*
X23127380Y-74272619D01*
X24032142Y-75177380D02*
X23555952Y-75177380D01*
X23555952Y-74177380D01*
X24365476Y-75177380D02*
X24365476Y-74177380D01*
X24936904Y-75177380D02*
X24508333Y-74605952D01*
X24936904Y-74177380D02*
X24365476Y-74748809D01*
X283965476Y-51704761D02*
X284108333Y-51752380D01*
X284346428Y-51752380D01*
X284441666Y-51704761D01*
X284489285Y-51657142D01*
X284536904Y-51561904D01*
X284536904Y-51466666D01*
X284489285Y-51371428D01*
X284441666Y-51323809D01*
X284346428Y-51276190D01*
X284155952Y-51228571D01*
X284060714Y-51180952D01*
X284013095Y-51133333D01*
X283965476Y-51038095D01*
X283965476Y-50942857D01*
X284013095Y-50847619D01*
X284060714Y-50800000D01*
X284155952Y-50752380D01*
X284394047Y-50752380D01*
X284536904Y-50800000D01*
X284870238Y-50752380D02*
X285108333Y-51752380D01*
X285298809Y-51038095D01*
X285489285Y-51752380D01*
X285727380Y-50752380D01*
X286060714Y-50847619D02*
X286108333Y-50800000D01*
X286203571Y-50752380D01*
X286441666Y-50752380D01*
X286536904Y-50800000D01*
X286584523Y-50847619D01*
X286632142Y-50942857D01*
X286632142Y-51038095D01*
X286584523Y-51180952D01*
X286013095Y-51752380D01*
X286632142Y-51752380D01*
X286965476Y-50752380D02*
X287632142Y-50752380D01*
X287203571Y-51752380D01*
X86321726Y-127854761D02*
X86464583Y-127902380D01*
X86702678Y-127902380D01*
X86797916Y-127854761D01*
X86845535Y-127807142D01*
X86893154Y-127711904D01*
X86893154Y-127616666D01*
X86845535Y-127521428D01*
X86797916Y-127473809D01*
X86702678Y-127426190D01*
X86512202Y-127378571D01*
X86416964Y-127330952D01*
X86369345Y-127283333D01*
X86321726Y-127188095D01*
X86321726Y-127092857D01*
X86369345Y-126997619D01*
X86416964Y-126950000D01*
X86512202Y-126902380D01*
X86750297Y-126902380D01*
X86893154Y-126950000D01*
X87226488Y-126902380D02*
X87464583Y-127902380D01*
X87655059Y-127188095D01*
X87845535Y-127902380D01*
X88083630Y-126902380D01*
X88369345Y-126902380D02*
X89036011Y-126902380D01*
X88607440Y-127902380D01*
X89607440Y-126902380D02*
X89702678Y-126902380D01*
X89797916Y-126950000D01*
X89845535Y-126997619D01*
X89893154Y-127092857D01*
X89940773Y-127283333D01*
X89940773Y-127521428D01*
X89893154Y-127711904D01*
X89845535Y-127807142D01*
X89797916Y-127854761D01*
X89702678Y-127902380D01*
X89607440Y-127902380D01*
X89512202Y-127854761D01*
X89464583Y-127807142D01*
X89416964Y-127711904D01*
X89369345Y-127521428D01*
X89369345Y-127283333D01*
X89416964Y-127092857D01*
X89464583Y-126997619D01*
X89512202Y-126950000D01*
X89607440Y-126902380D01*
X229196726Y-127854761D02*
X229339583Y-127902380D01*
X229577678Y-127902380D01*
X229672916Y-127854761D01*
X229720535Y-127807142D01*
X229768154Y-127711904D01*
X229768154Y-127616666D01*
X229720535Y-127521428D01*
X229672916Y-127473809D01*
X229577678Y-127426190D01*
X229387202Y-127378571D01*
X229291964Y-127330952D01*
X229244345Y-127283333D01*
X229196726Y-127188095D01*
X229196726Y-127092857D01*
X229244345Y-126997619D01*
X229291964Y-126950000D01*
X229387202Y-126902380D01*
X229625297Y-126902380D01*
X229768154Y-126950000D01*
X230101488Y-126902380D02*
X230339583Y-127902380D01*
X230530059Y-127188095D01*
X230720535Y-127902380D01*
X230958630Y-126902380D01*
X231244345Y-126902380D02*
X231911011Y-126902380D01*
X231482440Y-127902380D01*
X232244345Y-126997619D02*
X232291964Y-126950000D01*
X232387202Y-126902380D01*
X232625297Y-126902380D01*
X232720535Y-126950000D01*
X232768154Y-126997619D01*
X232815773Y-127092857D01*
X232815773Y-127188095D01*
X232768154Y-127330952D01*
X232196726Y-127902380D01*
X232815773Y-127902380D01*
X157734226Y-128304761D02*
X157877083Y-128352380D01*
X158115178Y-128352380D01*
X158210416Y-128304761D01*
X158258035Y-128257142D01*
X158305654Y-128161904D01*
X158305654Y-128066666D01*
X158258035Y-127971428D01*
X158210416Y-127923809D01*
X158115178Y-127876190D01*
X157924702Y-127828571D01*
X157829464Y-127780952D01*
X157781845Y-127733333D01*
X157734226Y-127638095D01*
X157734226Y-127542857D01*
X157781845Y-127447619D01*
X157829464Y-127400000D01*
X157924702Y-127352380D01*
X158162797Y-127352380D01*
X158305654Y-127400000D01*
X158638988Y-127352380D02*
X158877083Y-128352380D01*
X159067559Y-127638095D01*
X159258035Y-128352380D01*
X159496130Y-127352380D01*
X159781845Y-127352380D02*
X160448511Y-127352380D01*
X160019940Y-128352380D01*
X161353273Y-128352380D02*
X160781845Y-128352380D01*
X161067559Y-128352380D02*
X161067559Y-127352380D01*
X160972321Y-127495238D01*
X160877083Y-127590476D01*
X160781845Y-127638095D01*
X281559226Y-89604761D02*
X281702083Y-89652380D01*
X281940178Y-89652380D01*
X282035416Y-89604761D01*
X282083035Y-89557142D01*
X282130654Y-89461904D01*
X282130654Y-89366666D01*
X282083035Y-89271428D01*
X282035416Y-89223809D01*
X281940178Y-89176190D01*
X281749702Y-89128571D01*
X281654464Y-89080952D01*
X281606845Y-89033333D01*
X281559226Y-88938095D01*
X281559226Y-88842857D01*
X281606845Y-88747619D01*
X281654464Y-88700000D01*
X281749702Y-88652380D01*
X281987797Y-88652380D01*
X282130654Y-88700000D01*
X282463988Y-88652380D02*
X282702083Y-89652380D01*
X282892559Y-88938095D01*
X283083035Y-89652380D01*
X283321130Y-88652380D01*
X284178273Y-88652380D02*
X283702083Y-88652380D01*
X283654464Y-89128571D01*
X283702083Y-89080952D01*
X283797321Y-89033333D01*
X284035416Y-89033333D01*
X284130654Y-89080952D01*
X284178273Y-89128571D01*
X284225892Y-89223809D01*
X284225892Y-89461904D01*
X284178273Y-89557142D01*
X284130654Y-89604761D01*
X284035416Y-89652380D01*
X283797321Y-89652380D01*
X283702083Y-89604761D01*
X283654464Y-89557142D01*
X285083035Y-88985714D02*
X285083035Y-89652380D01*
X284844940Y-88604761D02*
X284606845Y-89319047D01*
X285225892Y-89319047D01*
X38671726Y-108654761D02*
X38814583Y-108702380D01*
X39052678Y-108702380D01*
X39147916Y-108654761D01*
X39195535Y-108607142D01*
X39243154Y-108511904D01*
X39243154Y-108416666D01*
X39195535Y-108321428D01*
X39147916Y-108273809D01*
X39052678Y-108226190D01*
X38862202Y-108178571D01*
X38766964Y-108130952D01*
X38719345Y-108083333D01*
X38671726Y-107988095D01*
X38671726Y-107892857D01*
X38719345Y-107797619D01*
X38766964Y-107750000D01*
X38862202Y-107702380D01*
X39100297Y-107702380D01*
X39243154Y-107750000D01*
X39576488Y-107702380D02*
X39814583Y-108702380D01*
X40005059Y-107988095D01*
X40195535Y-108702380D01*
X40433630Y-107702380D01*
X41290773Y-107702380D02*
X40814583Y-107702380D01*
X40766964Y-108178571D01*
X40814583Y-108130952D01*
X40909821Y-108083333D01*
X41147916Y-108083333D01*
X41243154Y-108130952D01*
X41290773Y-108178571D01*
X41338392Y-108273809D01*
X41338392Y-108511904D01*
X41290773Y-108607142D01*
X41243154Y-108654761D01*
X41147916Y-108702380D01*
X40909821Y-108702380D01*
X40814583Y-108654761D01*
X40766964Y-108607142D01*
X42243154Y-107702380D02*
X41766964Y-107702380D01*
X41719345Y-108178571D01*
X41766964Y-108130952D01*
X41862202Y-108083333D01*
X42100297Y-108083333D01*
X42195535Y-108130952D01*
X42243154Y-108178571D01*
X42290773Y-108273809D01*
X42290773Y-108511904D01*
X42243154Y-108607142D01*
X42195535Y-108654761D01*
X42100297Y-108702380D01*
X41862202Y-108702380D01*
X41766964Y-108654761D01*
X41719345Y-108607142D01*
X145827976Y-108429761D02*
X145970833Y-108477380D01*
X146208928Y-108477380D01*
X146304166Y-108429761D01*
X146351785Y-108382142D01*
X146399404Y-108286904D01*
X146399404Y-108191666D01*
X146351785Y-108096428D01*
X146304166Y-108048809D01*
X146208928Y-108001190D01*
X146018452Y-107953571D01*
X145923214Y-107905952D01*
X145875595Y-107858333D01*
X145827976Y-107763095D01*
X145827976Y-107667857D01*
X145875595Y-107572619D01*
X145923214Y-107525000D01*
X146018452Y-107477380D01*
X146256547Y-107477380D01*
X146399404Y-107525000D01*
X146732738Y-107477380D02*
X146970833Y-108477380D01*
X147161309Y-107763095D01*
X147351785Y-108477380D01*
X147589880Y-107477380D01*
X148399404Y-107477380D02*
X148208928Y-107477380D01*
X148113690Y-107525000D01*
X148066071Y-107572619D01*
X147970833Y-107715476D01*
X147923214Y-107905952D01*
X147923214Y-108286904D01*
X147970833Y-108382142D01*
X148018452Y-108429761D01*
X148113690Y-108477380D01*
X148304166Y-108477380D01*
X148399404Y-108429761D01*
X148447023Y-108382142D01*
X148494642Y-108286904D01*
X148494642Y-108048809D01*
X148447023Y-107953571D01*
X148399404Y-107905952D01*
X148304166Y-107858333D01*
X148113690Y-107858333D01*
X148018452Y-107905952D01*
X147970833Y-107953571D01*
X147923214Y-108048809D01*
X149113690Y-107477380D02*
X149208928Y-107477380D01*
X149304166Y-107525000D01*
X149351785Y-107572619D01*
X149399404Y-107667857D01*
X149447023Y-107858333D01*
X149447023Y-108096428D01*
X149399404Y-108286904D01*
X149351785Y-108382142D01*
X149304166Y-108429761D01*
X149208928Y-108477380D01*
X149113690Y-108477380D01*
X149018452Y-108429761D01*
X148970833Y-108382142D01*
X148923214Y-108286904D01*
X148875595Y-108096428D01*
X148875595Y-107858333D01*
X148923214Y-107667857D01*
X148970833Y-107572619D01*
X149018452Y-107525000D01*
X149113690Y-107477380D01*
X79152976Y-89379761D02*
X79295833Y-89427380D01*
X79533928Y-89427380D01*
X79629166Y-89379761D01*
X79676785Y-89332142D01*
X79724404Y-89236904D01*
X79724404Y-89141666D01*
X79676785Y-89046428D01*
X79629166Y-88998809D01*
X79533928Y-88951190D01*
X79343452Y-88903571D01*
X79248214Y-88855952D01*
X79200595Y-88808333D01*
X79152976Y-88713095D01*
X79152976Y-88617857D01*
X79200595Y-88522619D01*
X79248214Y-88475000D01*
X79343452Y-88427380D01*
X79581547Y-88427380D01*
X79724404Y-88475000D01*
X80057738Y-88427380D02*
X80295833Y-89427380D01*
X80486309Y-88713095D01*
X80676785Y-89427380D01*
X80914880Y-88427380D01*
X81724404Y-88760714D02*
X81724404Y-89427380D01*
X81486309Y-88379761D02*
X81248214Y-89094047D01*
X81867261Y-89094047D01*
X82676785Y-88760714D02*
X82676785Y-89427380D01*
X82438690Y-88379761D02*
X82200595Y-89094047D01*
X82819642Y-89094047D01*
X98202976Y-89379761D02*
X98345833Y-89427380D01*
X98583928Y-89427380D01*
X98679166Y-89379761D01*
X98726785Y-89332142D01*
X98774404Y-89236904D01*
X98774404Y-89141666D01*
X98726785Y-89046428D01*
X98679166Y-88998809D01*
X98583928Y-88951190D01*
X98393452Y-88903571D01*
X98298214Y-88855952D01*
X98250595Y-88808333D01*
X98202976Y-88713095D01*
X98202976Y-88617857D01*
X98250595Y-88522619D01*
X98298214Y-88475000D01*
X98393452Y-88427380D01*
X98631547Y-88427380D01*
X98774404Y-88475000D01*
X99107738Y-88427380D02*
X99345833Y-89427380D01*
X99536309Y-88713095D01*
X99726785Y-89427380D01*
X99964880Y-88427380D01*
X100774404Y-88760714D02*
X100774404Y-89427380D01*
X100536309Y-88379761D02*
X100298214Y-89094047D01*
X100917261Y-89094047D01*
X101774404Y-88427380D02*
X101298214Y-88427380D01*
X101250595Y-88903571D01*
X101298214Y-88855952D01*
X101393452Y-88808333D01*
X101631547Y-88808333D01*
X101726785Y-88855952D01*
X101774404Y-88903571D01*
X101822023Y-88998809D01*
X101822023Y-89236904D01*
X101774404Y-89332142D01*
X101726785Y-89379761D01*
X101631547Y-89427380D01*
X101393452Y-89427380D01*
X101298214Y-89379761D01*
X101250595Y-89332142D01*
X226790476Y-70329761D02*
X226933333Y-70377380D01*
X227171428Y-70377380D01*
X227266666Y-70329761D01*
X227314285Y-70282142D01*
X227361904Y-70186904D01*
X227361904Y-70091666D01*
X227314285Y-69996428D01*
X227266666Y-69948809D01*
X227171428Y-69901190D01*
X226980952Y-69853571D01*
X226885714Y-69805952D01*
X226838095Y-69758333D01*
X226790476Y-69663095D01*
X226790476Y-69567857D01*
X226838095Y-69472619D01*
X226885714Y-69425000D01*
X226980952Y-69377380D01*
X227219047Y-69377380D01*
X227361904Y-69425000D01*
X227695238Y-69377380D02*
X227933333Y-70377380D01*
X228123809Y-69663095D01*
X228314285Y-70377380D01*
X228552380Y-69377380D01*
X228838095Y-69377380D02*
X229457142Y-69377380D01*
X229123809Y-69758333D01*
X229266666Y-69758333D01*
X229361904Y-69805952D01*
X229409523Y-69853571D01*
X229457142Y-69948809D01*
X229457142Y-70186904D01*
X229409523Y-70282142D01*
X229361904Y-70329761D01*
X229266666Y-70377380D01*
X228980952Y-70377380D01*
X228885714Y-70329761D01*
X228838095Y-70282142D01*
X230028571Y-69805952D02*
X229933333Y-69758333D01*
X229885714Y-69710714D01*
X229838095Y-69615476D01*
X229838095Y-69567857D01*
X229885714Y-69472619D01*
X229933333Y-69425000D01*
X230028571Y-69377380D01*
X230219047Y-69377380D01*
X230314285Y-69425000D01*
X230361904Y-69472619D01*
X230409523Y-69567857D01*
X230409523Y-69615476D01*
X230361904Y-69710714D01*
X230314285Y-69758333D01*
X230219047Y-69805952D01*
X230028571Y-69805952D01*
X229933333Y-69853571D01*
X229885714Y-69901190D01*
X229838095Y-69996428D01*
X229838095Y-70186904D01*
X229885714Y-70282142D01*
X229933333Y-70329761D01*
X230028571Y-70377380D01*
X230219047Y-70377380D01*
X230314285Y-70329761D01*
X230361904Y-70282142D01*
X230409523Y-70186904D01*
X230409523Y-69996428D01*
X230361904Y-69901190D01*
X230314285Y-69853571D01*
X230219047Y-69805952D01*
X83915476Y-51279761D02*
X84058333Y-51327380D01*
X84296428Y-51327380D01*
X84391666Y-51279761D01*
X84439285Y-51232142D01*
X84486904Y-51136904D01*
X84486904Y-51041666D01*
X84439285Y-50946428D01*
X84391666Y-50898809D01*
X84296428Y-50851190D01*
X84105952Y-50803571D01*
X84010714Y-50755952D01*
X83963095Y-50708333D01*
X83915476Y-50613095D01*
X83915476Y-50517857D01*
X83963095Y-50422619D01*
X84010714Y-50375000D01*
X84105952Y-50327380D01*
X84344047Y-50327380D01*
X84486904Y-50375000D01*
X84820238Y-50327380D02*
X85058333Y-51327380D01*
X85248809Y-50613095D01*
X85439285Y-51327380D01*
X85677380Y-50327380D01*
X86582142Y-51327380D02*
X86010714Y-51327380D01*
X86296428Y-51327380D02*
X86296428Y-50327380D01*
X86201190Y-50470238D01*
X86105952Y-50565476D01*
X86010714Y-50613095D01*
X86915476Y-50327380D02*
X87582142Y-50327380D01*
X87153571Y-51327380D01*
X250602976Y-89379761D02*
X250745833Y-89427380D01*
X250983928Y-89427380D01*
X251079166Y-89379761D01*
X251126785Y-89332142D01*
X251174404Y-89236904D01*
X251174404Y-89141666D01*
X251126785Y-89046428D01*
X251079166Y-88998809D01*
X250983928Y-88951190D01*
X250793452Y-88903571D01*
X250698214Y-88855952D01*
X250650595Y-88808333D01*
X250602976Y-88713095D01*
X250602976Y-88617857D01*
X250650595Y-88522619D01*
X250698214Y-88475000D01*
X250793452Y-88427380D01*
X251031547Y-88427380D01*
X251174404Y-88475000D01*
X251507738Y-88427380D02*
X251745833Y-89427380D01*
X251936309Y-88713095D01*
X252126785Y-89427380D01*
X252364880Y-88427380D01*
X253222023Y-88427380D02*
X252745833Y-88427380D01*
X252698214Y-88903571D01*
X252745833Y-88855952D01*
X252841071Y-88808333D01*
X253079166Y-88808333D01*
X253174404Y-88855952D01*
X253222023Y-88903571D01*
X253269642Y-88998809D01*
X253269642Y-89236904D01*
X253222023Y-89332142D01*
X253174404Y-89379761D01*
X253079166Y-89427380D01*
X252841071Y-89427380D01*
X252745833Y-89379761D01*
X252698214Y-89332142D01*
X253602976Y-88427380D02*
X254222023Y-88427380D01*
X253888690Y-88808333D01*
X254031547Y-88808333D01*
X254126785Y-88855952D01*
X254174404Y-88903571D01*
X254222023Y-88998809D01*
X254222023Y-89236904D01*
X254174404Y-89332142D01*
X254126785Y-89379761D01*
X254031547Y-89427380D01*
X253745833Y-89427380D01*
X253650595Y-89379761D01*
X253602976Y-89332142D01*
X274415476Y-108429761D02*
X274558333Y-108477380D01*
X274796428Y-108477380D01*
X274891666Y-108429761D01*
X274939285Y-108382142D01*
X274986904Y-108286904D01*
X274986904Y-108191666D01*
X274939285Y-108096428D01*
X274891666Y-108048809D01*
X274796428Y-108001190D01*
X274605952Y-107953571D01*
X274510714Y-107905952D01*
X274463095Y-107858333D01*
X274415476Y-107763095D01*
X274415476Y-107667857D01*
X274463095Y-107572619D01*
X274510714Y-107525000D01*
X274605952Y-107477380D01*
X274844047Y-107477380D01*
X274986904Y-107525000D01*
X275320238Y-107477380D02*
X275558333Y-108477380D01*
X275748809Y-107763095D01*
X275939285Y-108477380D01*
X276177380Y-107477380D01*
X276986904Y-107477380D02*
X276796428Y-107477380D01*
X276701190Y-107525000D01*
X276653571Y-107572619D01*
X276558333Y-107715476D01*
X276510714Y-107905952D01*
X276510714Y-108286904D01*
X276558333Y-108382142D01*
X276605952Y-108429761D01*
X276701190Y-108477380D01*
X276891666Y-108477380D01*
X276986904Y-108429761D01*
X277034523Y-108382142D01*
X277082142Y-108286904D01*
X277082142Y-108048809D01*
X277034523Y-107953571D01*
X276986904Y-107905952D01*
X276891666Y-107858333D01*
X276701190Y-107858333D01*
X276605952Y-107905952D01*
X276558333Y-107953571D01*
X276510714Y-108048809D01*
X277939285Y-107477380D02*
X277748809Y-107477380D01*
X277653571Y-107525000D01*
X277605952Y-107572619D01*
X277510714Y-107715476D01*
X277463095Y-107905952D01*
X277463095Y-108286904D01*
X277510714Y-108382142D01*
X277558333Y-108429761D01*
X277653571Y-108477380D01*
X277844047Y-108477380D01*
X277939285Y-108429761D01*
X277986904Y-108382142D01*
X278034523Y-108286904D01*
X278034523Y-108048809D01*
X277986904Y-107953571D01*
X277939285Y-107905952D01*
X277844047Y-107858333D01*
X277653571Y-107858333D01*
X277558333Y-107905952D01*
X277510714Y-107953571D01*
X277463095Y-108048809D01*
X198215476Y-51279761D02*
X198358333Y-51327380D01*
X198596428Y-51327380D01*
X198691666Y-51279761D01*
X198739285Y-51232142D01*
X198786904Y-51136904D01*
X198786904Y-51041666D01*
X198739285Y-50946428D01*
X198691666Y-50898809D01*
X198596428Y-50851190D01*
X198405952Y-50803571D01*
X198310714Y-50755952D01*
X198263095Y-50708333D01*
X198215476Y-50613095D01*
X198215476Y-50517857D01*
X198263095Y-50422619D01*
X198310714Y-50375000D01*
X198405952Y-50327380D01*
X198644047Y-50327380D01*
X198786904Y-50375000D01*
X199120238Y-50327380D02*
X199358333Y-51327380D01*
X199548809Y-50613095D01*
X199739285Y-51327380D01*
X199977380Y-50327380D01*
X200310714Y-50422619D02*
X200358333Y-50375000D01*
X200453571Y-50327380D01*
X200691666Y-50327380D01*
X200786904Y-50375000D01*
X200834523Y-50422619D01*
X200882142Y-50517857D01*
X200882142Y-50613095D01*
X200834523Y-50755952D01*
X200263095Y-51327380D01*
X200882142Y-51327380D01*
X201215476Y-50327380D02*
X201834523Y-50327380D01*
X201501190Y-50708333D01*
X201644047Y-50708333D01*
X201739285Y-50755952D01*
X201786904Y-50803571D01*
X201834523Y-50898809D01*
X201834523Y-51136904D01*
X201786904Y-51232142D01*
X201739285Y-51279761D01*
X201644047Y-51327380D01*
X201358333Y-51327380D01*
X201263095Y-51279761D01*
X201215476Y-51232142D01*
X183927976Y-108429761D02*
X184070833Y-108477380D01*
X184308928Y-108477380D01*
X184404166Y-108429761D01*
X184451785Y-108382142D01*
X184499404Y-108286904D01*
X184499404Y-108191666D01*
X184451785Y-108096428D01*
X184404166Y-108048809D01*
X184308928Y-108001190D01*
X184118452Y-107953571D01*
X184023214Y-107905952D01*
X183975595Y-107858333D01*
X183927976Y-107763095D01*
X183927976Y-107667857D01*
X183975595Y-107572619D01*
X184023214Y-107525000D01*
X184118452Y-107477380D01*
X184356547Y-107477380D01*
X184499404Y-107525000D01*
X184832738Y-107477380D02*
X185070833Y-108477380D01*
X185261309Y-107763095D01*
X185451785Y-108477380D01*
X185689880Y-107477380D01*
X186499404Y-107477380D02*
X186308928Y-107477380D01*
X186213690Y-107525000D01*
X186166071Y-107572619D01*
X186070833Y-107715476D01*
X186023214Y-107905952D01*
X186023214Y-108286904D01*
X186070833Y-108382142D01*
X186118452Y-108429761D01*
X186213690Y-108477380D01*
X186404166Y-108477380D01*
X186499404Y-108429761D01*
X186547023Y-108382142D01*
X186594642Y-108286904D01*
X186594642Y-108048809D01*
X186547023Y-107953571D01*
X186499404Y-107905952D01*
X186404166Y-107858333D01*
X186213690Y-107858333D01*
X186118452Y-107905952D01*
X186070833Y-107953571D01*
X186023214Y-108048809D01*
X186975595Y-107572619D02*
X187023214Y-107525000D01*
X187118452Y-107477380D01*
X187356547Y-107477380D01*
X187451785Y-107525000D01*
X187499404Y-107572619D01*
X187547023Y-107667857D01*
X187547023Y-107763095D01*
X187499404Y-107905952D01*
X186927976Y-108477380D01*
X187547023Y-108477380D01*
X141065476Y-51279761D02*
X141208333Y-51327380D01*
X141446428Y-51327380D01*
X141541666Y-51279761D01*
X141589285Y-51232142D01*
X141636904Y-51136904D01*
X141636904Y-51041666D01*
X141589285Y-50946428D01*
X141541666Y-50898809D01*
X141446428Y-50851190D01*
X141255952Y-50803571D01*
X141160714Y-50755952D01*
X141113095Y-50708333D01*
X141065476Y-50613095D01*
X141065476Y-50517857D01*
X141113095Y-50422619D01*
X141160714Y-50375000D01*
X141255952Y-50327380D01*
X141494047Y-50327380D01*
X141636904Y-50375000D01*
X141970238Y-50327380D02*
X142208333Y-51327380D01*
X142398809Y-50613095D01*
X142589285Y-51327380D01*
X142827380Y-50327380D01*
X143160714Y-50422619D02*
X143208333Y-50375000D01*
X143303571Y-50327380D01*
X143541666Y-50327380D01*
X143636904Y-50375000D01*
X143684523Y-50422619D01*
X143732142Y-50517857D01*
X143732142Y-50613095D01*
X143684523Y-50755952D01*
X143113095Y-51327380D01*
X143732142Y-51327380D01*
X144351190Y-50327380D02*
X144446428Y-50327380D01*
X144541666Y-50375000D01*
X144589285Y-50422619D01*
X144636904Y-50517857D01*
X144684523Y-50708333D01*
X144684523Y-50946428D01*
X144636904Y-51136904D01*
X144589285Y-51232142D01*
X144541666Y-51279761D01*
X144446428Y-51327380D01*
X144351190Y-51327380D01*
X144255952Y-51279761D01*
X144208333Y-51232142D01*
X144160714Y-51136904D01*
X144113095Y-50946428D01*
X144113095Y-50708333D01*
X144160714Y-50517857D01*
X144208333Y-50422619D01*
X144255952Y-50375000D01*
X144351190Y-50327380D01*
X188690476Y-70329761D02*
X188833333Y-70377380D01*
X189071428Y-70377380D01*
X189166666Y-70329761D01*
X189214285Y-70282142D01*
X189261904Y-70186904D01*
X189261904Y-70091666D01*
X189214285Y-69996428D01*
X189166666Y-69948809D01*
X189071428Y-69901190D01*
X188880952Y-69853571D01*
X188785714Y-69805952D01*
X188738095Y-69758333D01*
X188690476Y-69663095D01*
X188690476Y-69567857D01*
X188738095Y-69472619D01*
X188785714Y-69425000D01*
X188880952Y-69377380D01*
X189119047Y-69377380D01*
X189261904Y-69425000D01*
X189595238Y-69377380D02*
X189833333Y-70377380D01*
X190023809Y-69663095D01*
X190214285Y-70377380D01*
X190452380Y-69377380D01*
X190738095Y-69377380D02*
X191357142Y-69377380D01*
X191023809Y-69758333D01*
X191166666Y-69758333D01*
X191261904Y-69805952D01*
X191309523Y-69853571D01*
X191357142Y-69948809D01*
X191357142Y-70186904D01*
X191309523Y-70282142D01*
X191261904Y-70329761D01*
X191166666Y-70377380D01*
X190880952Y-70377380D01*
X190785714Y-70329761D01*
X190738095Y-70282142D01*
X192214285Y-69377380D02*
X192023809Y-69377380D01*
X191928571Y-69425000D01*
X191880952Y-69472619D01*
X191785714Y-69615476D01*
X191738095Y-69805952D01*
X191738095Y-70186904D01*
X191785714Y-70282142D01*
X191833333Y-70329761D01*
X191928571Y-70377380D01*
X192119047Y-70377380D01*
X192214285Y-70329761D01*
X192261904Y-70282142D01*
X192309523Y-70186904D01*
X192309523Y-69948809D01*
X192261904Y-69853571D01*
X192214285Y-69805952D01*
X192119047Y-69758333D01*
X191928571Y-69758333D01*
X191833333Y-69805952D01*
X191785714Y-69853571D01*
X191738095Y-69948809D01*
X236315476Y-32229761D02*
X236458333Y-32277380D01*
X236696428Y-32277380D01*
X236791666Y-32229761D01*
X236839285Y-32182142D01*
X236886904Y-32086904D01*
X236886904Y-31991666D01*
X236839285Y-31896428D01*
X236791666Y-31848809D01*
X236696428Y-31801190D01*
X236505952Y-31753571D01*
X236410714Y-31705952D01*
X236363095Y-31658333D01*
X236315476Y-31563095D01*
X236315476Y-31467857D01*
X236363095Y-31372619D01*
X236410714Y-31325000D01*
X236505952Y-31277380D01*
X236744047Y-31277380D01*
X236886904Y-31325000D01*
X237220238Y-31277380D02*
X237458333Y-32277380D01*
X237648809Y-31563095D01*
X237839285Y-32277380D01*
X238077380Y-31277380D01*
X238982142Y-32277380D02*
X238410714Y-32277380D01*
X238696428Y-32277380D02*
X238696428Y-31277380D01*
X238601190Y-31420238D01*
X238505952Y-31515476D01*
X238410714Y-31563095D01*
X239601190Y-31277380D02*
X239696428Y-31277380D01*
X239791666Y-31325000D01*
X239839285Y-31372619D01*
X239886904Y-31467857D01*
X239934523Y-31658333D01*
X239934523Y-31896428D01*
X239886904Y-32086904D01*
X239839285Y-32182142D01*
X239791666Y-32229761D01*
X239696428Y-32277380D01*
X239601190Y-32277380D01*
X239505952Y-32229761D01*
X239458333Y-32182142D01*
X239410714Y-32086904D01*
X239363095Y-31896428D01*
X239363095Y-31658333D01*
X239410714Y-31467857D01*
X239458333Y-31372619D01*
X239505952Y-31325000D01*
X239601190Y-31277380D01*
X155352976Y-89379761D02*
X155495833Y-89427380D01*
X155733928Y-89427380D01*
X155829166Y-89379761D01*
X155876785Y-89332142D01*
X155924404Y-89236904D01*
X155924404Y-89141666D01*
X155876785Y-89046428D01*
X155829166Y-88998809D01*
X155733928Y-88951190D01*
X155543452Y-88903571D01*
X155448214Y-88855952D01*
X155400595Y-88808333D01*
X155352976Y-88713095D01*
X155352976Y-88617857D01*
X155400595Y-88522619D01*
X155448214Y-88475000D01*
X155543452Y-88427380D01*
X155781547Y-88427380D01*
X155924404Y-88475000D01*
X156257738Y-88427380D02*
X156495833Y-89427380D01*
X156686309Y-88713095D01*
X156876785Y-89427380D01*
X157114880Y-88427380D01*
X157924404Y-88760714D02*
X157924404Y-89427380D01*
X157686309Y-88379761D02*
X157448214Y-89094047D01*
X158067261Y-89094047D01*
X158591071Y-88855952D02*
X158495833Y-88808333D01*
X158448214Y-88760714D01*
X158400595Y-88665476D01*
X158400595Y-88617857D01*
X158448214Y-88522619D01*
X158495833Y-88475000D01*
X158591071Y-88427380D01*
X158781547Y-88427380D01*
X158876785Y-88475000D01*
X158924404Y-88522619D01*
X158972023Y-88617857D01*
X158972023Y-88665476D01*
X158924404Y-88760714D01*
X158876785Y-88808333D01*
X158781547Y-88855952D01*
X158591071Y-88855952D01*
X158495833Y-88903571D01*
X158448214Y-88951190D01*
X158400595Y-89046428D01*
X158400595Y-89236904D01*
X158448214Y-89332142D01*
X158495833Y-89379761D01*
X158591071Y-89427380D01*
X158781547Y-89427380D01*
X158876785Y-89379761D01*
X158924404Y-89332142D01*
X158972023Y-89236904D01*
X158972023Y-89046428D01*
X158924404Y-88951190D01*
X158876785Y-88903571D01*
X158781547Y-88855952D01*
X131540476Y-70329761D02*
X131683333Y-70377380D01*
X131921428Y-70377380D01*
X132016666Y-70329761D01*
X132064285Y-70282142D01*
X132111904Y-70186904D01*
X132111904Y-70091666D01*
X132064285Y-69996428D01*
X132016666Y-69948809D01*
X131921428Y-69901190D01*
X131730952Y-69853571D01*
X131635714Y-69805952D01*
X131588095Y-69758333D01*
X131540476Y-69663095D01*
X131540476Y-69567857D01*
X131588095Y-69472619D01*
X131635714Y-69425000D01*
X131730952Y-69377380D01*
X131969047Y-69377380D01*
X132111904Y-69425000D01*
X132445238Y-69377380D02*
X132683333Y-70377380D01*
X132873809Y-69663095D01*
X133064285Y-70377380D01*
X133302380Y-69377380D01*
X133588095Y-69377380D02*
X134207142Y-69377380D01*
X133873809Y-69758333D01*
X134016666Y-69758333D01*
X134111904Y-69805952D01*
X134159523Y-69853571D01*
X134207142Y-69948809D01*
X134207142Y-70186904D01*
X134159523Y-70282142D01*
X134111904Y-70329761D01*
X134016666Y-70377380D01*
X133730952Y-70377380D01*
X133635714Y-70329761D01*
X133588095Y-70282142D01*
X134540476Y-69377380D02*
X135159523Y-69377380D01*
X134826190Y-69758333D01*
X134969047Y-69758333D01*
X135064285Y-69805952D01*
X135111904Y-69853571D01*
X135159523Y-69948809D01*
X135159523Y-70186904D01*
X135111904Y-70282142D01*
X135064285Y-70329761D01*
X134969047Y-70377380D01*
X134683333Y-70377380D01*
X134588095Y-70329761D01*
X134540476Y-70282142D01*
X160115476Y-51279761D02*
X160258333Y-51327380D01*
X160496428Y-51327380D01*
X160591666Y-51279761D01*
X160639285Y-51232142D01*
X160686904Y-51136904D01*
X160686904Y-51041666D01*
X160639285Y-50946428D01*
X160591666Y-50898809D01*
X160496428Y-50851190D01*
X160305952Y-50803571D01*
X160210714Y-50755952D01*
X160163095Y-50708333D01*
X160115476Y-50613095D01*
X160115476Y-50517857D01*
X160163095Y-50422619D01*
X160210714Y-50375000D01*
X160305952Y-50327380D01*
X160544047Y-50327380D01*
X160686904Y-50375000D01*
X161020238Y-50327380D02*
X161258333Y-51327380D01*
X161448809Y-50613095D01*
X161639285Y-51327380D01*
X161877380Y-50327380D01*
X162210714Y-50422619D02*
X162258333Y-50375000D01*
X162353571Y-50327380D01*
X162591666Y-50327380D01*
X162686904Y-50375000D01*
X162734523Y-50422619D01*
X162782142Y-50517857D01*
X162782142Y-50613095D01*
X162734523Y-50755952D01*
X162163095Y-51327380D01*
X162782142Y-51327380D01*
X163734523Y-51327380D02*
X163163095Y-51327380D01*
X163448809Y-51327380D02*
X163448809Y-50327380D01*
X163353571Y-50470238D01*
X163258333Y-50565476D01*
X163163095Y-50613095D01*
X170116666Y-32229761D02*
X170259523Y-32277380D01*
X170497619Y-32277380D01*
X170592857Y-32229761D01*
X170640476Y-32182142D01*
X170688095Y-32086904D01*
X170688095Y-31991666D01*
X170640476Y-31896428D01*
X170592857Y-31848809D01*
X170497619Y-31801190D01*
X170307142Y-31753571D01*
X170211904Y-31705952D01*
X170164285Y-31658333D01*
X170116666Y-31563095D01*
X170116666Y-31467857D01*
X170164285Y-31372619D01*
X170211904Y-31325000D01*
X170307142Y-31277380D01*
X170545238Y-31277380D01*
X170688095Y-31325000D01*
X171021428Y-31277380D02*
X171259523Y-32277380D01*
X171450000Y-31563095D01*
X171640476Y-32277380D01*
X171878571Y-31277380D01*
X172164285Y-31277380D02*
X172830952Y-31277380D01*
X172402380Y-32277380D01*
X117252976Y-89379761D02*
X117395833Y-89427380D01*
X117633928Y-89427380D01*
X117729166Y-89379761D01*
X117776785Y-89332142D01*
X117824404Y-89236904D01*
X117824404Y-89141666D01*
X117776785Y-89046428D01*
X117729166Y-88998809D01*
X117633928Y-88951190D01*
X117443452Y-88903571D01*
X117348214Y-88855952D01*
X117300595Y-88808333D01*
X117252976Y-88713095D01*
X117252976Y-88617857D01*
X117300595Y-88522619D01*
X117348214Y-88475000D01*
X117443452Y-88427380D01*
X117681547Y-88427380D01*
X117824404Y-88475000D01*
X118157738Y-88427380D02*
X118395833Y-89427380D01*
X118586309Y-88713095D01*
X118776785Y-89427380D01*
X119014880Y-88427380D01*
X119824404Y-88760714D02*
X119824404Y-89427380D01*
X119586309Y-88379761D02*
X119348214Y-89094047D01*
X119967261Y-89094047D01*
X120776785Y-88427380D02*
X120586309Y-88427380D01*
X120491071Y-88475000D01*
X120443452Y-88522619D01*
X120348214Y-88665476D01*
X120300595Y-88855952D01*
X120300595Y-89236904D01*
X120348214Y-89332142D01*
X120395833Y-89379761D01*
X120491071Y-89427380D01*
X120681547Y-89427380D01*
X120776785Y-89379761D01*
X120824404Y-89332142D01*
X120872023Y-89236904D01*
X120872023Y-88998809D01*
X120824404Y-88903571D01*
X120776785Y-88855952D01*
X120681547Y-88808333D01*
X120491071Y-88808333D01*
X120395833Y-88855952D01*
X120348214Y-88903571D01*
X120300595Y-88998809D01*
X193452976Y-89379761D02*
X193595833Y-89427380D01*
X193833928Y-89427380D01*
X193929166Y-89379761D01*
X193976785Y-89332142D01*
X194024404Y-89236904D01*
X194024404Y-89141666D01*
X193976785Y-89046428D01*
X193929166Y-88998809D01*
X193833928Y-88951190D01*
X193643452Y-88903571D01*
X193548214Y-88855952D01*
X193500595Y-88808333D01*
X193452976Y-88713095D01*
X193452976Y-88617857D01*
X193500595Y-88522619D01*
X193548214Y-88475000D01*
X193643452Y-88427380D01*
X193881547Y-88427380D01*
X194024404Y-88475000D01*
X194357738Y-88427380D02*
X194595833Y-89427380D01*
X194786309Y-88713095D01*
X194976785Y-89427380D01*
X195214880Y-88427380D01*
X196072023Y-88427380D02*
X195595833Y-88427380D01*
X195548214Y-88903571D01*
X195595833Y-88855952D01*
X195691071Y-88808333D01*
X195929166Y-88808333D01*
X196024404Y-88855952D01*
X196072023Y-88903571D01*
X196119642Y-88998809D01*
X196119642Y-89236904D01*
X196072023Y-89332142D01*
X196024404Y-89379761D01*
X195929166Y-89427380D01*
X195691071Y-89427380D01*
X195595833Y-89379761D01*
X195548214Y-89332142D01*
X196738690Y-88427380D02*
X196833928Y-88427380D01*
X196929166Y-88475000D01*
X196976785Y-88522619D01*
X197024404Y-88617857D01*
X197072023Y-88808333D01*
X197072023Y-89046428D01*
X197024404Y-89236904D01*
X196976785Y-89332142D01*
X196929166Y-89379761D01*
X196833928Y-89427380D01*
X196738690Y-89427380D01*
X196643452Y-89379761D01*
X196595833Y-89332142D01*
X196548214Y-89236904D01*
X196500595Y-89046428D01*
X196500595Y-88808333D01*
X196548214Y-88617857D01*
X196595833Y-88522619D01*
X196643452Y-88475000D01*
X196738690Y-88427380D01*
X207740476Y-70329761D02*
X207883333Y-70377380D01*
X208121428Y-70377380D01*
X208216666Y-70329761D01*
X208264285Y-70282142D01*
X208311904Y-70186904D01*
X208311904Y-70091666D01*
X208264285Y-69996428D01*
X208216666Y-69948809D01*
X208121428Y-69901190D01*
X207930952Y-69853571D01*
X207835714Y-69805952D01*
X207788095Y-69758333D01*
X207740476Y-69663095D01*
X207740476Y-69567857D01*
X207788095Y-69472619D01*
X207835714Y-69425000D01*
X207930952Y-69377380D01*
X208169047Y-69377380D01*
X208311904Y-69425000D01*
X208645238Y-69377380D02*
X208883333Y-70377380D01*
X209073809Y-69663095D01*
X209264285Y-70377380D01*
X209502380Y-69377380D01*
X209788095Y-69377380D02*
X210407142Y-69377380D01*
X210073809Y-69758333D01*
X210216666Y-69758333D01*
X210311904Y-69805952D01*
X210359523Y-69853571D01*
X210407142Y-69948809D01*
X210407142Y-70186904D01*
X210359523Y-70282142D01*
X210311904Y-70329761D01*
X210216666Y-70377380D01*
X209930952Y-70377380D01*
X209835714Y-70329761D01*
X209788095Y-70282142D01*
X210740476Y-69377380D02*
X211407142Y-69377380D01*
X210978571Y-70377380D01*
X62090476Y-89704761D02*
X62233333Y-89752380D01*
X62471428Y-89752380D01*
X62566666Y-89704761D01*
X62614285Y-89657142D01*
X62661904Y-89561904D01*
X62661904Y-89466666D01*
X62614285Y-89371428D01*
X62566666Y-89323809D01*
X62471428Y-89276190D01*
X62280952Y-89228571D01*
X62185714Y-89180952D01*
X62138095Y-89133333D01*
X62090476Y-89038095D01*
X62090476Y-88942857D01*
X62138095Y-88847619D01*
X62185714Y-88800000D01*
X62280952Y-88752380D01*
X62519047Y-88752380D01*
X62661904Y-88800000D01*
X62995238Y-88752380D02*
X63233333Y-89752380D01*
X63423809Y-89038095D01*
X63614285Y-89752380D01*
X63852380Y-88752380D01*
X64661904Y-89085714D02*
X64661904Y-89752380D01*
X64423809Y-88704761D02*
X64185714Y-89419047D01*
X64804761Y-89419047D01*
X65090476Y-88752380D02*
X65709523Y-88752380D01*
X65376190Y-89133333D01*
X65519047Y-89133333D01*
X65614285Y-89180952D01*
X65661904Y-89228571D01*
X65709523Y-89323809D01*
X65709523Y-89561904D01*
X65661904Y-89657142D01*
X65614285Y-89704761D01*
X65519047Y-89752380D01*
X65233333Y-89752380D01*
X65138095Y-89704761D01*
X65090476Y-89657142D01*
X126777976Y-108429761D02*
X126920833Y-108477380D01*
X127158928Y-108477380D01*
X127254166Y-108429761D01*
X127301785Y-108382142D01*
X127349404Y-108286904D01*
X127349404Y-108191666D01*
X127301785Y-108096428D01*
X127254166Y-108048809D01*
X127158928Y-108001190D01*
X126968452Y-107953571D01*
X126873214Y-107905952D01*
X126825595Y-107858333D01*
X126777976Y-107763095D01*
X126777976Y-107667857D01*
X126825595Y-107572619D01*
X126873214Y-107525000D01*
X126968452Y-107477380D01*
X127206547Y-107477380D01*
X127349404Y-107525000D01*
X127682738Y-107477380D02*
X127920833Y-108477380D01*
X128111309Y-107763095D01*
X128301785Y-108477380D01*
X128539880Y-107477380D01*
X129397023Y-107477380D02*
X128920833Y-107477380D01*
X128873214Y-107953571D01*
X128920833Y-107905952D01*
X129016071Y-107858333D01*
X129254166Y-107858333D01*
X129349404Y-107905952D01*
X129397023Y-107953571D01*
X129444642Y-108048809D01*
X129444642Y-108286904D01*
X129397023Y-108382142D01*
X129349404Y-108429761D01*
X129254166Y-108477380D01*
X129016071Y-108477380D01*
X128920833Y-108429761D01*
X128873214Y-108382142D01*
X129920833Y-108477380D02*
X130111309Y-108477380D01*
X130206547Y-108429761D01*
X130254166Y-108382142D01*
X130349404Y-108239285D01*
X130397023Y-108048809D01*
X130397023Y-107667857D01*
X130349404Y-107572619D01*
X130301785Y-107525000D01*
X130206547Y-107477380D01*
X130016071Y-107477380D01*
X129920833Y-107525000D01*
X129873214Y-107572619D01*
X129825595Y-107667857D01*
X129825595Y-107905952D01*
X129873214Y-108001190D01*
X129920833Y-108048809D01*
X130016071Y-108096428D01*
X130206547Y-108096428D01*
X130301785Y-108048809D01*
X130349404Y-108001190D01*
X130397023Y-107905952D01*
X169640476Y-70329761D02*
X169783333Y-70377380D01*
X170021428Y-70377380D01*
X170116666Y-70329761D01*
X170164285Y-70282142D01*
X170211904Y-70186904D01*
X170211904Y-70091666D01*
X170164285Y-69996428D01*
X170116666Y-69948809D01*
X170021428Y-69901190D01*
X169830952Y-69853571D01*
X169735714Y-69805952D01*
X169688095Y-69758333D01*
X169640476Y-69663095D01*
X169640476Y-69567857D01*
X169688095Y-69472619D01*
X169735714Y-69425000D01*
X169830952Y-69377380D01*
X170069047Y-69377380D01*
X170211904Y-69425000D01*
X170545238Y-69377380D02*
X170783333Y-70377380D01*
X170973809Y-69663095D01*
X171164285Y-70377380D01*
X171402380Y-69377380D01*
X171688095Y-69377380D02*
X172307142Y-69377380D01*
X171973809Y-69758333D01*
X172116666Y-69758333D01*
X172211904Y-69805952D01*
X172259523Y-69853571D01*
X172307142Y-69948809D01*
X172307142Y-70186904D01*
X172259523Y-70282142D01*
X172211904Y-70329761D01*
X172116666Y-70377380D01*
X171830952Y-70377380D01*
X171735714Y-70329761D01*
X171688095Y-70282142D01*
X173211904Y-69377380D02*
X172735714Y-69377380D01*
X172688095Y-69853571D01*
X172735714Y-69805952D01*
X172830952Y-69758333D01*
X173069047Y-69758333D01*
X173164285Y-69805952D01*
X173211904Y-69853571D01*
X173259523Y-69948809D01*
X173259523Y-70186904D01*
X173211904Y-70282142D01*
X173164285Y-70329761D01*
X173069047Y-70377380D01*
X172830952Y-70377380D01*
X172735714Y-70329761D01*
X172688095Y-70282142D01*
X74390476Y-70329761D02*
X74533333Y-70377380D01*
X74771428Y-70377380D01*
X74866666Y-70329761D01*
X74914285Y-70282142D01*
X74961904Y-70186904D01*
X74961904Y-70091666D01*
X74914285Y-69996428D01*
X74866666Y-69948809D01*
X74771428Y-69901190D01*
X74580952Y-69853571D01*
X74485714Y-69805952D01*
X74438095Y-69758333D01*
X74390476Y-69663095D01*
X74390476Y-69567857D01*
X74438095Y-69472619D01*
X74485714Y-69425000D01*
X74580952Y-69377380D01*
X74819047Y-69377380D01*
X74961904Y-69425000D01*
X75295238Y-69377380D02*
X75533333Y-70377380D01*
X75723809Y-69663095D01*
X75914285Y-70377380D01*
X76152380Y-69377380D01*
X76438095Y-69377380D02*
X77057142Y-69377380D01*
X76723809Y-69758333D01*
X76866666Y-69758333D01*
X76961904Y-69805952D01*
X77009523Y-69853571D01*
X77057142Y-69948809D01*
X77057142Y-70186904D01*
X77009523Y-70282142D01*
X76961904Y-70329761D01*
X76866666Y-70377380D01*
X76580952Y-70377380D01*
X76485714Y-70329761D01*
X76438095Y-70282142D01*
X77676190Y-69377380D02*
X77771428Y-69377380D01*
X77866666Y-69425000D01*
X77914285Y-69472619D01*
X77961904Y-69567857D01*
X78009523Y-69758333D01*
X78009523Y-69996428D01*
X77961904Y-70186904D01*
X77914285Y-70282142D01*
X77866666Y-70329761D01*
X77771428Y-70377380D01*
X77676190Y-70377380D01*
X77580952Y-70329761D01*
X77533333Y-70282142D01*
X77485714Y-70186904D01*
X77438095Y-69996428D01*
X77438095Y-69758333D01*
X77485714Y-69567857D01*
X77533333Y-69472619D01*
X77580952Y-69425000D01*
X77676190Y-69377380D01*
X179165476Y-51279761D02*
X179308333Y-51327380D01*
X179546428Y-51327380D01*
X179641666Y-51279761D01*
X179689285Y-51232142D01*
X179736904Y-51136904D01*
X179736904Y-51041666D01*
X179689285Y-50946428D01*
X179641666Y-50898809D01*
X179546428Y-50851190D01*
X179355952Y-50803571D01*
X179260714Y-50755952D01*
X179213095Y-50708333D01*
X179165476Y-50613095D01*
X179165476Y-50517857D01*
X179213095Y-50422619D01*
X179260714Y-50375000D01*
X179355952Y-50327380D01*
X179594047Y-50327380D01*
X179736904Y-50375000D01*
X180070238Y-50327380D02*
X180308333Y-51327380D01*
X180498809Y-50613095D01*
X180689285Y-51327380D01*
X180927380Y-50327380D01*
X181260714Y-50422619D02*
X181308333Y-50375000D01*
X181403571Y-50327380D01*
X181641666Y-50327380D01*
X181736904Y-50375000D01*
X181784523Y-50422619D01*
X181832142Y-50517857D01*
X181832142Y-50613095D01*
X181784523Y-50755952D01*
X181213095Y-51327380D01*
X181832142Y-51327380D01*
X182213095Y-50422619D02*
X182260714Y-50375000D01*
X182355952Y-50327380D01*
X182594047Y-50327380D01*
X182689285Y-50375000D01*
X182736904Y-50422619D01*
X182784523Y-50517857D01*
X182784523Y-50613095D01*
X182736904Y-50755952D01*
X182165476Y-51327380D01*
X182784523Y-51327380D01*
X255365476Y-51279761D02*
X255508333Y-51327380D01*
X255746428Y-51327380D01*
X255841666Y-51279761D01*
X255889285Y-51232142D01*
X255936904Y-51136904D01*
X255936904Y-51041666D01*
X255889285Y-50946428D01*
X255841666Y-50898809D01*
X255746428Y-50851190D01*
X255555952Y-50803571D01*
X255460714Y-50755952D01*
X255413095Y-50708333D01*
X255365476Y-50613095D01*
X255365476Y-50517857D01*
X255413095Y-50422619D01*
X255460714Y-50375000D01*
X255555952Y-50327380D01*
X255794047Y-50327380D01*
X255936904Y-50375000D01*
X256270238Y-50327380D02*
X256508333Y-51327380D01*
X256698809Y-50613095D01*
X256889285Y-51327380D01*
X257127380Y-50327380D01*
X257460714Y-50422619D02*
X257508333Y-50375000D01*
X257603571Y-50327380D01*
X257841666Y-50327380D01*
X257936904Y-50375000D01*
X257984523Y-50422619D01*
X258032142Y-50517857D01*
X258032142Y-50613095D01*
X257984523Y-50755952D01*
X257413095Y-51327380D01*
X258032142Y-51327380D01*
X258889285Y-50327380D02*
X258698809Y-50327380D01*
X258603571Y-50375000D01*
X258555952Y-50422619D01*
X258460714Y-50565476D01*
X258413095Y-50755952D01*
X258413095Y-51136904D01*
X258460714Y-51232142D01*
X258508333Y-51279761D01*
X258603571Y-51327380D01*
X258794047Y-51327380D01*
X258889285Y-51279761D01*
X258936904Y-51232142D01*
X258984523Y-51136904D01*
X258984523Y-50898809D01*
X258936904Y-50803571D01*
X258889285Y-50755952D01*
X258794047Y-50708333D01*
X258603571Y-50708333D01*
X258508333Y-50755952D01*
X258460714Y-50803571D01*
X258413095Y-50898809D01*
X293465476Y-127479761D02*
X293608333Y-127527380D01*
X293846428Y-127527380D01*
X293941666Y-127479761D01*
X293989285Y-127432142D01*
X294036904Y-127336904D01*
X294036904Y-127241666D01*
X293989285Y-127146428D01*
X293941666Y-127098809D01*
X293846428Y-127051190D01*
X293655952Y-127003571D01*
X293560714Y-126955952D01*
X293513095Y-126908333D01*
X293465476Y-126813095D01*
X293465476Y-126717857D01*
X293513095Y-126622619D01*
X293560714Y-126575000D01*
X293655952Y-126527380D01*
X293894047Y-126527380D01*
X294036904Y-126575000D01*
X294370238Y-126527380D02*
X294608333Y-127527380D01*
X294798809Y-126813095D01*
X294989285Y-127527380D01*
X295227380Y-126527380D01*
X295513095Y-126527380D02*
X296179761Y-126527380D01*
X295751190Y-127527380D01*
X297036904Y-126527380D02*
X296560714Y-126527380D01*
X296513095Y-127003571D01*
X296560714Y-126955952D01*
X296655952Y-126908333D01*
X296894047Y-126908333D01*
X296989285Y-126955952D01*
X297036904Y-127003571D01*
X297084523Y-127098809D01*
X297084523Y-127336904D01*
X297036904Y-127432142D01*
X296989285Y-127479761D01*
X296894047Y-127527380D01*
X296655952Y-127527380D01*
X296560714Y-127479761D01*
X296513095Y-127432142D01*
X69627976Y-108429761D02*
X69770833Y-108477380D01*
X70008928Y-108477380D01*
X70104166Y-108429761D01*
X70151785Y-108382142D01*
X70199404Y-108286904D01*
X70199404Y-108191666D01*
X70151785Y-108096428D01*
X70104166Y-108048809D01*
X70008928Y-108001190D01*
X69818452Y-107953571D01*
X69723214Y-107905952D01*
X69675595Y-107858333D01*
X69627976Y-107763095D01*
X69627976Y-107667857D01*
X69675595Y-107572619D01*
X69723214Y-107525000D01*
X69818452Y-107477380D01*
X70056547Y-107477380D01*
X70199404Y-107525000D01*
X70532738Y-107477380D02*
X70770833Y-108477380D01*
X70961309Y-107763095D01*
X71151785Y-108477380D01*
X71389880Y-107477380D01*
X72247023Y-107477380D02*
X71770833Y-107477380D01*
X71723214Y-107953571D01*
X71770833Y-107905952D01*
X71866071Y-107858333D01*
X72104166Y-107858333D01*
X72199404Y-107905952D01*
X72247023Y-107953571D01*
X72294642Y-108048809D01*
X72294642Y-108286904D01*
X72247023Y-108382142D01*
X72199404Y-108429761D01*
X72104166Y-108477380D01*
X71866071Y-108477380D01*
X71770833Y-108429761D01*
X71723214Y-108382142D01*
X73151785Y-107477380D02*
X72961309Y-107477380D01*
X72866071Y-107525000D01*
X72818452Y-107572619D01*
X72723214Y-107715476D01*
X72675595Y-107905952D01*
X72675595Y-108286904D01*
X72723214Y-108382142D01*
X72770833Y-108429761D01*
X72866071Y-108477380D01*
X73056547Y-108477380D01*
X73151785Y-108429761D01*
X73199404Y-108382142D01*
X73247023Y-108286904D01*
X73247023Y-108048809D01*
X73199404Y-107953571D01*
X73151785Y-107905952D01*
X73056547Y-107858333D01*
X72866071Y-107858333D01*
X72770833Y-107905952D01*
X72723214Y-107953571D01*
X72675595Y-108048809D01*
X212502976Y-89379761D02*
X212645833Y-89427380D01*
X212883928Y-89427380D01*
X212979166Y-89379761D01*
X213026785Y-89332142D01*
X213074404Y-89236904D01*
X213074404Y-89141666D01*
X213026785Y-89046428D01*
X212979166Y-88998809D01*
X212883928Y-88951190D01*
X212693452Y-88903571D01*
X212598214Y-88855952D01*
X212550595Y-88808333D01*
X212502976Y-88713095D01*
X212502976Y-88617857D01*
X212550595Y-88522619D01*
X212598214Y-88475000D01*
X212693452Y-88427380D01*
X212931547Y-88427380D01*
X213074404Y-88475000D01*
X213407738Y-88427380D02*
X213645833Y-89427380D01*
X213836309Y-88713095D01*
X214026785Y-89427380D01*
X214264880Y-88427380D01*
X215122023Y-88427380D02*
X214645833Y-88427380D01*
X214598214Y-88903571D01*
X214645833Y-88855952D01*
X214741071Y-88808333D01*
X214979166Y-88808333D01*
X215074404Y-88855952D01*
X215122023Y-88903571D01*
X215169642Y-88998809D01*
X215169642Y-89236904D01*
X215122023Y-89332142D01*
X215074404Y-89379761D01*
X214979166Y-89427380D01*
X214741071Y-89427380D01*
X214645833Y-89379761D01*
X214598214Y-89332142D01*
X216122023Y-89427380D02*
X215550595Y-89427380D01*
X215836309Y-89427380D02*
X215836309Y-88427380D01*
X215741071Y-88570238D01*
X215645833Y-88665476D01*
X215550595Y-88713095D01*
X136302976Y-89379761D02*
X136445833Y-89427380D01*
X136683928Y-89427380D01*
X136779166Y-89379761D01*
X136826785Y-89332142D01*
X136874404Y-89236904D01*
X136874404Y-89141666D01*
X136826785Y-89046428D01*
X136779166Y-88998809D01*
X136683928Y-88951190D01*
X136493452Y-88903571D01*
X136398214Y-88855952D01*
X136350595Y-88808333D01*
X136302976Y-88713095D01*
X136302976Y-88617857D01*
X136350595Y-88522619D01*
X136398214Y-88475000D01*
X136493452Y-88427380D01*
X136731547Y-88427380D01*
X136874404Y-88475000D01*
X137207738Y-88427380D02*
X137445833Y-89427380D01*
X137636309Y-88713095D01*
X137826785Y-89427380D01*
X138064880Y-88427380D01*
X138874404Y-88760714D02*
X138874404Y-89427380D01*
X138636309Y-88379761D02*
X138398214Y-89094047D01*
X139017261Y-89094047D01*
X139302976Y-88427380D02*
X139969642Y-88427380D01*
X139541071Y-89427380D01*
X208216666Y-32229761D02*
X208359523Y-32277380D01*
X208597619Y-32277380D01*
X208692857Y-32229761D01*
X208740476Y-32182142D01*
X208788095Y-32086904D01*
X208788095Y-31991666D01*
X208740476Y-31896428D01*
X208692857Y-31848809D01*
X208597619Y-31801190D01*
X208407142Y-31753571D01*
X208311904Y-31705952D01*
X208264285Y-31658333D01*
X208216666Y-31563095D01*
X208216666Y-31467857D01*
X208264285Y-31372619D01*
X208311904Y-31325000D01*
X208407142Y-31277380D01*
X208645238Y-31277380D01*
X208788095Y-31325000D01*
X209121428Y-31277380D02*
X209359523Y-32277380D01*
X209550000Y-31563095D01*
X209740476Y-32277380D01*
X209978571Y-31277380D01*
X210407142Y-32277380D02*
X210597619Y-32277380D01*
X210692857Y-32229761D01*
X210740476Y-32182142D01*
X210835714Y-32039285D01*
X210883333Y-31848809D01*
X210883333Y-31467857D01*
X210835714Y-31372619D01*
X210788095Y-31325000D01*
X210692857Y-31277380D01*
X210502380Y-31277380D01*
X210407142Y-31325000D01*
X210359523Y-31372619D01*
X210311904Y-31467857D01*
X210311904Y-31705952D01*
X210359523Y-31801190D01*
X210407142Y-31848809D01*
X210502380Y-31896428D01*
X210692857Y-31896428D01*
X210788095Y-31848809D01*
X210835714Y-31801190D01*
X210883333Y-31705952D01*
X64865476Y-127479761D02*
X65008333Y-127527380D01*
X65246428Y-127527380D01*
X65341666Y-127479761D01*
X65389285Y-127432142D01*
X65436904Y-127336904D01*
X65436904Y-127241666D01*
X65389285Y-127146428D01*
X65341666Y-127098809D01*
X65246428Y-127051190D01*
X65055952Y-127003571D01*
X64960714Y-126955952D01*
X64913095Y-126908333D01*
X64865476Y-126813095D01*
X64865476Y-126717857D01*
X64913095Y-126622619D01*
X64960714Y-126575000D01*
X65055952Y-126527380D01*
X65294047Y-126527380D01*
X65436904Y-126575000D01*
X65770238Y-126527380D02*
X66008333Y-127527380D01*
X66198809Y-126813095D01*
X66389285Y-127527380D01*
X66627380Y-126527380D01*
X67436904Y-126527380D02*
X67246428Y-126527380D01*
X67151190Y-126575000D01*
X67103571Y-126622619D01*
X67008333Y-126765476D01*
X66960714Y-126955952D01*
X66960714Y-127336904D01*
X67008333Y-127432142D01*
X67055952Y-127479761D01*
X67151190Y-127527380D01*
X67341666Y-127527380D01*
X67436904Y-127479761D01*
X67484523Y-127432142D01*
X67532142Y-127336904D01*
X67532142Y-127098809D01*
X67484523Y-127003571D01*
X67436904Y-126955952D01*
X67341666Y-126908333D01*
X67151190Y-126908333D01*
X67055952Y-126955952D01*
X67008333Y-127003571D01*
X66960714Y-127098809D01*
X68008333Y-127527380D02*
X68198809Y-127527380D01*
X68294047Y-127479761D01*
X68341666Y-127432142D01*
X68436904Y-127289285D01*
X68484523Y-127098809D01*
X68484523Y-126717857D01*
X68436904Y-126622619D01*
X68389285Y-126575000D01*
X68294047Y-126527380D01*
X68103571Y-126527380D01*
X68008333Y-126575000D01*
X67960714Y-126622619D01*
X67913095Y-126717857D01*
X67913095Y-126955952D01*
X67960714Y-127051190D01*
X68008333Y-127098809D01*
X68103571Y-127146428D01*
X68294047Y-127146428D01*
X68389285Y-127098809D01*
X68436904Y-127051190D01*
X68484523Y-126955952D01*
X27241666Y-32229761D02*
X27384523Y-32277380D01*
X27622619Y-32277380D01*
X27717857Y-32229761D01*
X27765476Y-32182142D01*
X27813095Y-32086904D01*
X27813095Y-31991666D01*
X27765476Y-31896428D01*
X27717857Y-31848809D01*
X27622619Y-31801190D01*
X27432142Y-31753571D01*
X27336904Y-31705952D01*
X27289285Y-31658333D01*
X27241666Y-31563095D01*
X27241666Y-31467857D01*
X27289285Y-31372619D01*
X27336904Y-31325000D01*
X27432142Y-31277380D01*
X27670238Y-31277380D01*
X27813095Y-31325000D01*
X28146428Y-31277380D02*
X28384523Y-32277380D01*
X28575000Y-31563095D01*
X28765476Y-32277380D01*
X29003571Y-31277380D01*
X29908333Y-32277380D02*
X29336904Y-32277380D01*
X29622619Y-32277380D02*
X29622619Y-31277380D01*
X29527380Y-31420238D01*
X29432142Y-31515476D01*
X29336904Y-31563095D01*
X217265476Y-51279761D02*
X217408333Y-51327380D01*
X217646428Y-51327380D01*
X217741666Y-51279761D01*
X217789285Y-51232142D01*
X217836904Y-51136904D01*
X217836904Y-51041666D01*
X217789285Y-50946428D01*
X217741666Y-50898809D01*
X217646428Y-50851190D01*
X217455952Y-50803571D01*
X217360714Y-50755952D01*
X217313095Y-50708333D01*
X217265476Y-50613095D01*
X217265476Y-50517857D01*
X217313095Y-50422619D01*
X217360714Y-50375000D01*
X217455952Y-50327380D01*
X217694047Y-50327380D01*
X217836904Y-50375000D01*
X218170238Y-50327380D02*
X218408333Y-51327380D01*
X218598809Y-50613095D01*
X218789285Y-51327380D01*
X219027380Y-50327380D01*
X219360714Y-50422619D02*
X219408333Y-50375000D01*
X219503571Y-50327380D01*
X219741666Y-50327380D01*
X219836904Y-50375000D01*
X219884523Y-50422619D01*
X219932142Y-50517857D01*
X219932142Y-50613095D01*
X219884523Y-50755952D01*
X219313095Y-51327380D01*
X219932142Y-51327380D01*
X220789285Y-50660714D02*
X220789285Y-51327380D01*
X220551190Y-50279761D02*
X220313095Y-50994047D01*
X220932142Y-50994047D01*
X120110416Y-32229761D02*
X120253273Y-32277380D01*
X120491369Y-32277380D01*
X120586607Y-32229761D01*
X120634226Y-32182142D01*
X120681845Y-32086904D01*
X120681845Y-31991666D01*
X120634226Y-31896428D01*
X120586607Y-31848809D01*
X120491369Y-31801190D01*
X120300892Y-31753571D01*
X120205654Y-31705952D01*
X120158035Y-31658333D01*
X120110416Y-31563095D01*
X120110416Y-31467857D01*
X120158035Y-31372619D01*
X120205654Y-31325000D01*
X120300892Y-31277380D01*
X120538988Y-31277380D01*
X120681845Y-31325000D01*
X121015178Y-31277380D02*
X121253273Y-32277380D01*
X121443750Y-31563095D01*
X121634226Y-32277380D01*
X121872321Y-31277380D01*
X122729464Y-31277380D02*
X122253273Y-31277380D01*
X122205654Y-31753571D01*
X122253273Y-31705952D01*
X122348511Y-31658333D01*
X122586607Y-31658333D01*
X122681845Y-31705952D01*
X122729464Y-31753571D01*
X122777083Y-31848809D01*
X122777083Y-32086904D01*
X122729464Y-32182142D01*
X122681845Y-32229761D01*
X122586607Y-32277380D01*
X122348511Y-32277380D01*
X122253273Y-32229761D01*
X122205654Y-32182142D01*
X189166666Y-32229761D02*
X189309523Y-32277380D01*
X189547619Y-32277380D01*
X189642857Y-32229761D01*
X189690476Y-32182142D01*
X189738095Y-32086904D01*
X189738095Y-31991666D01*
X189690476Y-31896428D01*
X189642857Y-31848809D01*
X189547619Y-31801190D01*
X189357142Y-31753571D01*
X189261904Y-31705952D01*
X189214285Y-31658333D01*
X189166666Y-31563095D01*
X189166666Y-31467857D01*
X189214285Y-31372619D01*
X189261904Y-31325000D01*
X189357142Y-31277380D01*
X189595238Y-31277380D01*
X189738095Y-31325000D01*
X190071428Y-31277380D02*
X190309523Y-32277380D01*
X190500000Y-31563095D01*
X190690476Y-32277380D01*
X190928571Y-31277380D01*
X191452380Y-31705952D02*
X191357142Y-31658333D01*
X191309523Y-31610714D01*
X191261904Y-31515476D01*
X191261904Y-31467857D01*
X191309523Y-31372619D01*
X191357142Y-31325000D01*
X191452380Y-31277380D01*
X191642857Y-31277380D01*
X191738095Y-31325000D01*
X191785714Y-31372619D01*
X191833333Y-31467857D01*
X191833333Y-31515476D01*
X191785714Y-31610714D01*
X191738095Y-31658333D01*
X191642857Y-31705952D01*
X191452380Y-31705952D01*
X191357142Y-31753571D01*
X191309523Y-31801190D01*
X191261904Y-31896428D01*
X191261904Y-32086904D01*
X191309523Y-32182142D01*
X191357142Y-32229761D01*
X191452380Y-32277380D01*
X191642857Y-32277380D01*
X191738095Y-32229761D01*
X191785714Y-32182142D01*
X191833333Y-32086904D01*
X191833333Y-31896428D01*
X191785714Y-31801190D01*
X191738095Y-31753571D01*
X191642857Y-31705952D01*
X88677976Y-108429761D02*
X88820833Y-108477380D01*
X89058928Y-108477380D01*
X89154166Y-108429761D01*
X89201785Y-108382142D01*
X89249404Y-108286904D01*
X89249404Y-108191666D01*
X89201785Y-108096428D01*
X89154166Y-108048809D01*
X89058928Y-108001190D01*
X88868452Y-107953571D01*
X88773214Y-107905952D01*
X88725595Y-107858333D01*
X88677976Y-107763095D01*
X88677976Y-107667857D01*
X88725595Y-107572619D01*
X88773214Y-107525000D01*
X88868452Y-107477380D01*
X89106547Y-107477380D01*
X89249404Y-107525000D01*
X89582738Y-107477380D02*
X89820833Y-108477380D01*
X90011309Y-107763095D01*
X90201785Y-108477380D01*
X90439880Y-107477380D01*
X91297023Y-107477380D02*
X90820833Y-107477380D01*
X90773214Y-107953571D01*
X90820833Y-107905952D01*
X90916071Y-107858333D01*
X91154166Y-107858333D01*
X91249404Y-107905952D01*
X91297023Y-107953571D01*
X91344642Y-108048809D01*
X91344642Y-108286904D01*
X91297023Y-108382142D01*
X91249404Y-108429761D01*
X91154166Y-108477380D01*
X90916071Y-108477380D01*
X90820833Y-108429761D01*
X90773214Y-108382142D01*
X91677976Y-107477380D02*
X92344642Y-107477380D01*
X91916071Y-108477380D01*
X26765476Y-127479761D02*
X26908333Y-127527380D01*
X27146428Y-127527380D01*
X27241666Y-127479761D01*
X27289285Y-127432142D01*
X27336904Y-127336904D01*
X27336904Y-127241666D01*
X27289285Y-127146428D01*
X27241666Y-127098809D01*
X27146428Y-127051190D01*
X26955952Y-127003571D01*
X26860714Y-126955952D01*
X26813095Y-126908333D01*
X26765476Y-126813095D01*
X26765476Y-126717857D01*
X26813095Y-126622619D01*
X26860714Y-126575000D01*
X26955952Y-126527380D01*
X27194047Y-126527380D01*
X27336904Y-126575000D01*
X27670238Y-126527380D02*
X27908333Y-127527380D01*
X28098809Y-126813095D01*
X28289285Y-127527380D01*
X28527380Y-126527380D01*
X29336904Y-126527380D02*
X29146428Y-126527380D01*
X29051190Y-126575000D01*
X29003571Y-126622619D01*
X28908333Y-126765476D01*
X28860714Y-126955952D01*
X28860714Y-127336904D01*
X28908333Y-127432142D01*
X28955952Y-127479761D01*
X29051190Y-127527380D01*
X29241666Y-127527380D01*
X29336904Y-127479761D01*
X29384523Y-127432142D01*
X29432142Y-127336904D01*
X29432142Y-127098809D01*
X29384523Y-127003571D01*
X29336904Y-126955952D01*
X29241666Y-126908333D01*
X29051190Y-126908333D01*
X28955952Y-126955952D01*
X28908333Y-127003571D01*
X28860714Y-127098809D01*
X29765476Y-126527380D02*
X30432142Y-126527380D01*
X30003571Y-127527380D01*
X274415476Y-32229761D02*
X274558333Y-32277380D01*
X274796428Y-32277380D01*
X274891666Y-32229761D01*
X274939285Y-32182142D01*
X274986904Y-32086904D01*
X274986904Y-31991666D01*
X274939285Y-31896428D01*
X274891666Y-31848809D01*
X274796428Y-31801190D01*
X274605952Y-31753571D01*
X274510714Y-31705952D01*
X274463095Y-31658333D01*
X274415476Y-31563095D01*
X274415476Y-31467857D01*
X274463095Y-31372619D01*
X274510714Y-31325000D01*
X274605952Y-31277380D01*
X274844047Y-31277380D01*
X274986904Y-31325000D01*
X275320238Y-31277380D02*
X275558333Y-32277380D01*
X275748809Y-31563095D01*
X275939285Y-32277380D01*
X276177380Y-31277380D01*
X277082142Y-32277380D02*
X276510714Y-32277380D01*
X276796428Y-32277380D02*
X276796428Y-31277380D01*
X276701190Y-31420238D01*
X276605952Y-31515476D01*
X276510714Y-31563095D01*
X277463095Y-31372619D02*
X277510714Y-31325000D01*
X277605952Y-31277380D01*
X277844047Y-31277380D01*
X277939285Y-31325000D01*
X277986904Y-31372619D01*
X278034523Y-31467857D01*
X278034523Y-31563095D01*
X277986904Y-31705952D01*
X277415476Y-32277380D01*
X278034523Y-32277380D01*
X45815476Y-51279761D02*
X45958333Y-51327380D01*
X46196428Y-51327380D01*
X46291666Y-51279761D01*
X46339285Y-51232142D01*
X46386904Y-51136904D01*
X46386904Y-51041666D01*
X46339285Y-50946428D01*
X46291666Y-50898809D01*
X46196428Y-50851190D01*
X46005952Y-50803571D01*
X45910714Y-50755952D01*
X45863095Y-50708333D01*
X45815476Y-50613095D01*
X45815476Y-50517857D01*
X45863095Y-50422619D01*
X45910714Y-50375000D01*
X46005952Y-50327380D01*
X46244047Y-50327380D01*
X46386904Y-50375000D01*
X46720238Y-50327380D02*
X46958333Y-51327380D01*
X47148809Y-50613095D01*
X47339285Y-51327380D01*
X47577380Y-50327380D01*
X48482142Y-51327380D02*
X47910714Y-51327380D01*
X48196428Y-51327380D02*
X48196428Y-50327380D01*
X48101190Y-50470238D01*
X48005952Y-50565476D01*
X47910714Y-50613095D01*
X49386904Y-50327380D02*
X48910714Y-50327380D01*
X48863095Y-50803571D01*
X48910714Y-50755952D01*
X49005952Y-50708333D01*
X49244047Y-50708333D01*
X49339285Y-50755952D01*
X49386904Y-50803571D01*
X49434523Y-50898809D01*
X49434523Y-51136904D01*
X49386904Y-51232142D01*
X49339285Y-51279761D01*
X49244047Y-51327380D01*
X49005952Y-51327380D01*
X48910714Y-51279761D01*
X48863095Y-51232142D01*
X174402976Y-89379761D02*
X174545833Y-89427380D01*
X174783928Y-89427380D01*
X174879166Y-89379761D01*
X174926785Y-89332142D01*
X174974404Y-89236904D01*
X174974404Y-89141666D01*
X174926785Y-89046428D01*
X174879166Y-88998809D01*
X174783928Y-88951190D01*
X174593452Y-88903571D01*
X174498214Y-88855952D01*
X174450595Y-88808333D01*
X174402976Y-88713095D01*
X174402976Y-88617857D01*
X174450595Y-88522619D01*
X174498214Y-88475000D01*
X174593452Y-88427380D01*
X174831547Y-88427380D01*
X174974404Y-88475000D01*
X175307738Y-88427380D02*
X175545833Y-89427380D01*
X175736309Y-88713095D01*
X175926785Y-89427380D01*
X176164880Y-88427380D01*
X176974404Y-88760714D02*
X176974404Y-89427380D01*
X176736309Y-88379761D02*
X176498214Y-89094047D01*
X177117261Y-89094047D01*
X177545833Y-89427380D02*
X177736309Y-89427380D01*
X177831547Y-89379761D01*
X177879166Y-89332142D01*
X177974404Y-89189285D01*
X178022023Y-88998809D01*
X178022023Y-88617857D01*
X177974404Y-88522619D01*
X177926785Y-88475000D01*
X177831547Y-88427380D01*
X177641071Y-88427380D01*
X177545833Y-88475000D01*
X177498214Y-88522619D01*
X177450595Y-88617857D01*
X177450595Y-88855952D01*
X177498214Y-88951190D01*
X177545833Y-88998809D01*
X177641071Y-89046428D01*
X177831547Y-89046428D01*
X177926785Y-88998809D01*
X177974404Y-88951190D01*
X178022023Y-88855952D01*
X293465476Y-32229761D02*
X293608333Y-32277380D01*
X293846428Y-32277380D01*
X293941666Y-32229761D01*
X293989285Y-32182142D01*
X294036904Y-32086904D01*
X294036904Y-31991666D01*
X293989285Y-31896428D01*
X293941666Y-31848809D01*
X293846428Y-31801190D01*
X293655952Y-31753571D01*
X293560714Y-31705952D01*
X293513095Y-31658333D01*
X293465476Y-31563095D01*
X293465476Y-31467857D01*
X293513095Y-31372619D01*
X293560714Y-31325000D01*
X293655952Y-31277380D01*
X293894047Y-31277380D01*
X294036904Y-31325000D01*
X294370238Y-31277380D02*
X294608333Y-32277380D01*
X294798809Y-31563095D01*
X294989285Y-32277380D01*
X295227380Y-31277380D01*
X296132142Y-32277380D02*
X295560714Y-32277380D01*
X295846428Y-32277380D02*
X295846428Y-31277380D01*
X295751190Y-31420238D01*
X295655952Y-31515476D01*
X295560714Y-31563095D01*
X296465476Y-31277380D02*
X297084523Y-31277380D01*
X296751190Y-31658333D01*
X296894047Y-31658333D01*
X296989285Y-31705952D01*
X297036904Y-31753571D01*
X297084523Y-31848809D01*
X297084523Y-32086904D01*
X297036904Y-32182142D01*
X296989285Y-32229761D01*
X296894047Y-32277380D01*
X296608333Y-32277380D01*
X296513095Y-32229761D01*
X296465476Y-32182142D01*
X82010416Y-32229761D02*
X82153273Y-32277380D01*
X82391369Y-32277380D01*
X82486607Y-32229761D01*
X82534226Y-32182142D01*
X82581845Y-32086904D01*
X82581845Y-31991666D01*
X82534226Y-31896428D01*
X82486607Y-31848809D01*
X82391369Y-31801190D01*
X82200892Y-31753571D01*
X82105654Y-31705952D01*
X82058035Y-31658333D01*
X82010416Y-31563095D01*
X82010416Y-31467857D01*
X82058035Y-31372619D01*
X82105654Y-31325000D01*
X82200892Y-31277380D01*
X82438988Y-31277380D01*
X82581845Y-31325000D01*
X82915178Y-31277380D02*
X83153273Y-32277380D01*
X83343750Y-31563095D01*
X83534226Y-32277380D01*
X83772321Y-31277380D01*
X84058035Y-31277380D02*
X84677083Y-31277380D01*
X84343750Y-31658333D01*
X84486607Y-31658333D01*
X84581845Y-31705952D01*
X84629464Y-31753571D01*
X84677083Y-31848809D01*
X84677083Y-32086904D01*
X84629464Y-32182142D01*
X84581845Y-32229761D01*
X84486607Y-32277380D01*
X84200892Y-32277380D01*
X84105654Y-32229761D01*
X84058035Y-32182142D01*
X236315476Y-51279761D02*
X236458333Y-51327380D01*
X236696428Y-51327380D01*
X236791666Y-51279761D01*
X236839285Y-51232142D01*
X236886904Y-51136904D01*
X236886904Y-51041666D01*
X236839285Y-50946428D01*
X236791666Y-50898809D01*
X236696428Y-50851190D01*
X236505952Y-50803571D01*
X236410714Y-50755952D01*
X236363095Y-50708333D01*
X236315476Y-50613095D01*
X236315476Y-50517857D01*
X236363095Y-50422619D01*
X236410714Y-50375000D01*
X236505952Y-50327380D01*
X236744047Y-50327380D01*
X236886904Y-50375000D01*
X237220238Y-50327380D02*
X237458333Y-51327380D01*
X237648809Y-50613095D01*
X237839285Y-51327380D01*
X238077380Y-50327380D01*
X238410714Y-50422619D02*
X238458333Y-50375000D01*
X238553571Y-50327380D01*
X238791666Y-50327380D01*
X238886904Y-50375000D01*
X238934523Y-50422619D01*
X238982142Y-50517857D01*
X238982142Y-50613095D01*
X238934523Y-50755952D01*
X238363095Y-51327380D01*
X238982142Y-51327380D01*
X239886904Y-50327380D02*
X239410714Y-50327380D01*
X239363095Y-50803571D01*
X239410714Y-50755952D01*
X239505952Y-50708333D01*
X239744047Y-50708333D01*
X239839285Y-50755952D01*
X239886904Y-50803571D01*
X239934523Y-50898809D01*
X239934523Y-51136904D01*
X239886904Y-51232142D01*
X239839285Y-51279761D01*
X239744047Y-51327380D01*
X239505952Y-51327380D01*
X239410714Y-51279761D01*
X239363095Y-51232142D01*
X53090476Y-71304761D02*
X53233333Y-71352380D01*
X53471428Y-71352380D01*
X53566666Y-71304761D01*
X53614285Y-71257142D01*
X53661904Y-71161904D01*
X53661904Y-71066666D01*
X53614285Y-70971428D01*
X53566666Y-70923809D01*
X53471428Y-70876190D01*
X53280952Y-70828571D01*
X53185714Y-70780952D01*
X53138095Y-70733333D01*
X53090476Y-70638095D01*
X53090476Y-70542857D01*
X53138095Y-70447619D01*
X53185714Y-70400000D01*
X53280952Y-70352380D01*
X53519047Y-70352380D01*
X53661904Y-70400000D01*
X53995238Y-70352380D02*
X54233333Y-71352380D01*
X54423809Y-70638095D01*
X54614285Y-71352380D01*
X54852380Y-70352380D01*
X55185714Y-70447619D02*
X55233333Y-70400000D01*
X55328571Y-70352380D01*
X55566666Y-70352380D01*
X55661904Y-70400000D01*
X55709523Y-70447619D01*
X55757142Y-70542857D01*
X55757142Y-70638095D01*
X55709523Y-70780952D01*
X55138095Y-71352380D01*
X55757142Y-71352380D01*
X56233333Y-71352380D02*
X56423809Y-71352380D01*
X56519047Y-71304761D01*
X56566666Y-71257142D01*
X56661904Y-71114285D01*
X56709523Y-70923809D01*
X56709523Y-70542857D01*
X56661904Y-70447619D01*
X56614285Y-70400000D01*
X56519047Y-70352380D01*
X56328571Y-70352380D01*
X56233333Y-70400000D01*
X56185714Y-70447619D01*
X56138095Y-70542857D01*
X56138095Y-70780952D01*
X56185714Y-70876190D01*
X56233333Y-70923809D01*
X56328571Y-70971428D01*
X56519047Y-70971428D01*
X56614285Y-70923809D01*
X56661904Y-70876190D01*
X56709523Y-70780952D01*
X245840476Y-70329761D02*
X245983333Y-70377380D01*
X246221428Y-70377380D01*
X246316666Y-70329761D01*
X246364285Y-70282142D01*
X246411904Y-70186904D01*
X246411904Y-70091666D01*
X246364285Y-69996428D01*
X246316666Y-69948809D01*
X246221428Y-69901190D01*
X246030952Y-69853571D01*
X245935714Y-69805952D01*
X245888095Y-69758333D01*
X245840476Y-69663095D01*
X245840476Y-69567857D01*
X245888095Y-69472619D01*
X245935714Y-69425000D01*
X246030952Y-69377380D01*
X246269047Y-69377380D01*
X246411904Y-69425000D01*
X246745238Y-69377380D02*
X246983333Y-70377380D01*
X247173809Y-69663095D01*
X247364285Y-70377380D01*
X247602380Y-69377380D01*
X247888095Y-69377380D02*
X248507142Y-69377380D01*
X248173809Y-69758333D01*
X248316666Y-69758333D01*
X248411904Y-69805952D01*
X248459523Y-69853571D01*
X248507142Y-69948809D01*
X248507142Y-70186904D01*
X248459523Y-70282142D01*
X248411904Y-70329761D01*
X248316666Y-70377380D01*
X248030952Y-70377380D01*
X247935714Y-70329761D01*
X247888095Y-70282142D01*
X248983333Y-70377380D02*
X249173809Y-70377380D01*
X249269047Y-70329761D01*
X249316666Y-70282142D01*
X249411904Y-70139285D01*
X249459523Y-69948809D01*
X249459523Y-69567857D01*
X249411904Y-69472619D01*
X249364285Y-69425000D01*
X249269047Y-69377380D01*
X249078571Y-69377380D01*
X248983333Y-69425000D01*
X248935714Y-69472619D01*
X248888095Y-69567857D01*
X248888095Y-69805952D01*
X248935714Y-69901190D01*
X248983333Y-69948809D01*
X249078571Y-69996428D01*
X249269047Y-69996428D01*
X249364285Y-69948809D01*
X249411904Y-69901190D01*
X249459523Y-69805952D01*
X231552976Y-89379761D02*
X231695833Y-89427380D01*
X231933928Y-89427380D01*
X232029166Y-89379761D01*
X232076785Y-89332142D01*
X232124404Y-89236904D01*
X232124404Y-89141666D01*
X232076785Y-89046428D01*
X232029166Y-88998809D01*
X231933928Y-88951190D01*
X231743452Y-88903571D01*
X231648214Y-88855952D01*
X231600595Y-88808333D01*
X231552976Y-88713095D01*
X231552976Y-88617857D01*
X231600595Y-88522619D01*
X231648214Y-88475000D01*
X231743452Y-88427380D01*
X231981547Y-88427380D01*
X232124404Y-88475000D01*
X232457738Y-88427380D02*
X232695833Y-89427380D01*
X232886309Y-88713095D01*
X233076785Y-89427380D01*
X233314880Y-88427380D01*
X234172023Y-88427380D02*
X233695833Y-88427380D01*
X233648214Y-88903571D01*
X233695833Y-88855952D01*
X233791071Y-88808333D01*
X234029166Y-88808333D01*
X234124404Y-88855952D01*
X234172023Y-88903571D01*
X234219642Y-88998809D01*
X234219642Y-89236904D01*
X234172023Y-89332142D01*
X234124404Y-89379761D01*
X234029166Y-89427380D01*
X233791071Y-89427380D01*
X233695833Y-89379761D01*
X233648214Y-89332142D01*
X234600595Y-88522619D02*
X234648214Y-88475000D01*
X234743452Y-88427380D01*
X234981547Y-88427380D01*
X235076785Y-88475000D01*
X235124404Y-88522619D01*
X235172023Y-88617857D01*
X235172023Y-88713095D01*
X235124404Y-88855952D01*
X234552976Y-89427380D01*
X235172023Y-89427380D01*
X62960416Y-32229761D02*
X63103273Y-32277380D01*
X63341369Y-32277380D01*
X63436607Y-32229761D01*
X63484226Y-32182142D01*
X63531845Y-32086904D01*
X63531845Y-31991666D01*
X63484226Y-31896428D01*
X63436607Y-31848809D01*
X63341369Y-31801190D01*
X63150892Y-31753571D01*
X63055654Y-31705952D01*
X63008035Y-31658333D01*
X62960416Y-31563095D01*
X62960416Y-31467857D01*
X63008035Y-31372619D01*
X63055654Y-31325000D01*
X63150892Y-31277380D01*
X63388988Y-31277380D01*
X63531845Y-31325000D01*
X63865178Y-31277380D02*
X64103273Y-32277380D01*
X64293750Y-31563095D01*
X64484226Y-32277380D01*
X64722321Y-31277380D01*
X65055654Y-31372619D02*
X65103273Y-31325000D01*
X65198511Y-31277380D01*
X65436607Y-31277380D01*
X65531845Y-31325000D01*
X65579464Y-31372619D01*
X65627083Y-31467857D01*
X65627083Y-31563095D01*
X65579464Y-31705952D01*
X65008035Y-32277380D01*
X65627083Y-32277380D01*
X202977976Y-108429761D02*
X203120833Y-108477380D01*
X203358928Y-108477380D01*
X203454166Y-108429761D01*
X203501785Y-108382142D01*
X203549404Y-108286904D01*
X203549404Y-108191666D01*
X203501785Y-108096428D01*
X203454166Y-108048809D01*
X203358928Y-108001190D01*
X203168452Y-107953571D01*
X203073214Y-107905952D01*
X203025595Y-107858333D01*
X202977976Y-107763095D01*
X202977976Y-107667857D01*
X203025595Y-107572619D01*
X203073214Y-107525000D01*
X203168452Y-107477380D01*
X203406547Y-107477380D01*
X203549404Y-107525000D01*
X203882738Y-107477380D02*
X204120833Y-108477380D01*
X204311309Y-107763095D01*
X204501785Y-108477380D01*
X204739880Y-107477380D01*
X205549404Y-107477380D02*
X205358928Y-107477380D01*
X205263690Y-107525000D01*
X205216071Y-107572619D01*
X205120833Y-107715476D01*
X205073214Y-107905952D01*
X205073214Y-108286904D01*
X205120833Y-108382142D01*
X205168452Y-108429761D01*
X205263690Y-108477380D01*
X205454166Y-108477380D01*
X205549404Y-108429761D01*
X205597023Y-108382142D01*
X205644642Y-108286904D01*
X205644642Y-108048809D01*
X205597023Y-107953571D01*
X205549404Y-107905952D01*
X205454166Y-107858333D01*
X205263690Y-107858333D01*
X205168452Y-107905952D01*
X205120833Y-107953571D01*
X205073214Y-108048809D01*
X205977976Y-107477380D02*
X206597023Y-107477380D01*
X206263690Y-107858333D01*
X206406547Y-107858333D01*
X206501785Y-107905952D01*
X206549404Y-107953571D01*
X206597023Y-108048809D01*
X206597023Y-108286904D01*
X206549404Y-108382142D01*
X206501785Y-108429761D01*
X206406547Y-108477380D01*
X206120833Y-108477380D01*
X206025595Y-108429761D01*
X205977976Y-108382142D01*
X255365476Y-32229761D02*
X255508333Y-32277380D01*
X255746428Y-32277380D01*
X255841666Y-32229761D01*
X255889285Y-32182142D01*
X255936904Y-32086904D01*
X255936904Y-31991666D01*
X255889285Y-31896428D01*
X255841666Y-31848809D01*
X255746428Y-31801190D01*
X255555952Y-31753571D01*
X255460714Y-31705952D01*
X255413095Y-31658333D01*
X255365476Y-31563095D01*
X255365476Y-31467857D01*
X255413095Y-31372619D01*
X255460714Y-31325000D01*
X255555952Y-31277380D01*
X255794047Y-31277380D01*
X255936904Y-31325000D01*
X256270238Y-31277380D02*
X256508333Y-32277380D01*
X256698809Y-31563095D01*
X256889285Y-32277380D01*
X257127380Y-31277380D01*
X258032142Y-32277380D02*
X257460714Y-32277380D01*
X257746428Y-32277380D02*
X257746428Y-31277380D01*
X257651190Y-31420238D01*
X257555952Y-31515476D01*
X257460714Y-31563095D01*
X258984523Y-32277380D02*
X258413095Y-32277380D01*
X258698809Y-32277380D02*
X258698809Y-31277380D01*
X258603571Y-31420238D01*
X258508333Y-31515476D01*
X258413095Y-31563095D01*
X107727976Y-108429761D02*
X107870833Y-108477380D01*
X108108928Y-108477380D01*
X108204166Y-108429761D01*
X108251785Y-108382142D01*
X108299404Y-108286904D01*
X108299404Y-108191666D01*
X108251785Y-108096428D01*
X108204166Y-108048809D01*
X108108928Y-108001190D01*
X107918452Y-107953571D01*
X107823214Y-107905952D01*
X107775595Y-107858333D01*
X107727976Y-107763095D01*
X107727976Y-107667857D01*
X107775595Y-107572619D01*
X107823214Y-107525000D01*
X107918452Y-107477380D01*
X108156547Y-107477380D01*
X108299404Y-107525000D01*
X108632738Y-107477380D02*
X108870833Y-108477380D01*
X109061309Y-107763095D01*
X109251785Y-108477380D01*
X109489880Y-107477380D01*
X110347023Y-107477380D02*
X109870833Y-107477380D01*
X109823214Y-107953571D01*
X109870833Y-107905952D01*
X109966071Y-107858333D01*
X110204166Y-107858333D01*
X110299404Y-107905952D01*
X110347023Y-107953571D01*
X110394642Y-108048809D01*
X110394642Y-108286904D01*
X110347023Y-108382142D01*
X110299404Y-108429761D01*
X110204166Y-108477380D01*
X109966071Y-108477380D01*
X109870833Y-108429761D01*
X109823214Y-108382142D01*
X110966071Y-107905952D02*
X110870833Y-107858333D01*
X110823214Y-107810714D01*
X110775595Y-107715476D01*
X110775595Y-107667857D01*
X110823214Y-107572619D01*
X110870833Y-107525000D01*
X110966071Y-107477380D01*
X111156547Y-107477380D01*
X111251785Y-107525000D01*
X111299404Y-107572619D01*
X111347023Y-107667857D01*
X111347023Y-107715476D01*
X111299404Y-107810714D01*
X111251785Y-107858333D01*
X111156547Y-107905952D01*
X110966071Y-107905952D01*
X110870833Y-107953571D01*
X110823214Y-108001190D01*
X110775595Y-108096428D01*
X110775595Y-108286904D01*
X110823214Y-108382142D01*
X110870833Y-108429761D01*
X110966071Y-108477380D01*
X111156547Y-108477380D01*
X111251785Y-108429761D01*
X111299404Y-108382142D01*
X111347023Y-108286904D01*
X111347023Y-108096428D01*
X111299404Y-108001190D01*
X111251785Y-107953571D01*
X111156547Y-107905952D01*
X26765476Y-51279761D02*
X26908333Y-51327380D01*
X27146428Y-51327380D01*
X27241666Y-51279761D01*
X27289285Y-51232142D01*
X27336904Y-51136904D01*
X27336904Y-51041666D01*
X27289285Y-50946428D01*
X27241666Y-50898809D01*
X27146428Y-50851190D01*
X26955952Y-50803571D01*
X26860714Y-50755952D01*
X26813095Y-50708333D01*
X26765476Y-50613095D01*
X26765476Y-50517857D01*
X26813095Y-50422619D01*
X26860714Y-50375000D01*
X26955952Y-50327380D01*
X27194047Y-50327380D01*
X27336904Y-50375000D01*
X27670238Y-50327380D02*
X27908333Y-51327380D01*
X28098809Y-50613095D01*
X28289285Y-51327380D01*
X28527380Y-50327380D01*
X29432142Y-51327380D02*
X28860714Y-51327380D01*
X29146428Y-51327380D02*
X29146428Y-50327380D01*
X29051190Y-50470238D01*
X28955952Y-50565476D01*
X28860714Y-50613095D01*
X30289285Y-50660714D02*
X30289285Y-51327380D01*
X30051190Y-50279761D02*
X29813095Y-50994047D01*
X30432142Y-50994047D01*
X264890476Y-70329761D02*
X265033333Y-70377380D01*
X265271428Y-70377380D01*
X265366666Y-70329761D01*
X265414285Y-70282142D01*
X265461904Y-70186904D01*
X265461904Y-70091666D01*
X265414285Y-69996428D01*
X265366666Y-69948809D01*
X265271428Y-69901190D01*
X265080952Y-69853571D01*
X264985714Y-69805952D01*
X264938095Y-69758333D01*
X264890476Y-69663095D01*
X264890476Y-69567857D01*
X264938095Y-69472619D01*
X264985714Y-69425000D01*
X265080952Y-69377380D01*
X265319047Y-69377380D01*
X265461904Y-69425000D01*
X265795238Y-69377380D02*
X266033333Y-70377380D01*
X266223809Y-69663095D01*
X266414285Y-70377380D01*
X266652380Y-69377380D01*
X267461904Y-69710714D02*
X267461904Y-70377380D01*
X267223809Y-69329761D02*
X266985714Y-70044047D01*
X267604761Y-70044047D01*
X268176190Y-69377380D02*
X268271428Y-69377380D01*
X268366666Y-69425000D01*
X268414285Y-69472619D01*
X268461904Y-69567857D01*
X268509523Y-69758333D01*
X268509523Y-69996428D01*
X268461904Y-70186904D01*
X268414285Y-70282142D01*
X268366666Y-70329761D01*
X268271428Y-70377380D01*
X268176190Y-70377380D01*
X268080952Y-70329761D01*
X268033333Y-70282142D01*
X267985714Y-70186904D01*
X267938095Y-69996428D01*
X267938095Y-69758333D01*
X267985714Y-69567857D01*
X268033333Y-69472619D01*
X268080952Y-69425000D01*
X268176190Y-69377380D01*
X150590476Y-70329761D02*
X150733333Y-70377380D01*
X150971428Y-70377380D01*
X151066666Y-70329761D01*
X151114285Y-70282142D01*
X151161904Y-70186904D01*
X151161904Y-70091666D01*
X151114285Y-69996428D01*
X151066666Y-69948809D01*
X150971428Y-69901190D01*
X150780952Y-69853571D01*
X150685714Y-69805952D01*
X150638095Y-69758333D01*
X150590476Y-69663095D01*
X150590476Y-69567857D01*
X150638095Y-69472619D01*
X150685714Y-69425000D01*
X150780952Y-69377380D01*
X151019047Y-69377380D01*
X151161904Y-69425000D01*
X151495238Y-69377380D02*
X151733333Y-70377380D01*
X151923809Y-69663095D01*
X152114285Y-70377380D01*
X152352380Y-69377380D01*
X152638095Y-69377380D02*
X153257142Y-69377380D01*
X152923809Y-69758333D01*
X153066666Y-69758333D01*
X153161904Y-69805952D01*
X153209523Y-69853571D01*
X153257142Y-69948809D01*
X153257142Y-70186904D01*
X153209523Y-70282142D01*
X153161904Y-70329761D01*
X153066666Y-70377380D01*
X152780952Y-70377380D01*
X152685714Y-70329761D01*
X152638095Y-70282142D01*
X154114285Y-69710714D02*
X154114285Y-70377380D01*
X153876190Y-69329761D02*
X153638095Y-70044047D01*
X154257142Y-70044047D01*
X93440476Y-70329761D02*
X93583333Y-70377380D01*
X93821428Y-70377380D01*
X93916666Y-70329761D01*
X93964285Y-70282142D01*
X94011904Y-70186904D01*
X94011904Y-70091666D01*
X93964285Y-69996428D01*
X93916666Y-69948809D01*
X93821428Y-69901190D01*
X93630952Y-69853571D01*
X93535714Y-69805952D01*
X93488095Y-69758333D01*
X93440476Y-69663095D01*
X93440476Y-69567857D01*
X93488095Y-69472619D01*
X93535714Y-69425000D01*
X93630952Y-69377380D01*
X93869047Y-69377380D01*
X94011904Y-69425000D01*
X94345238Y-69377380D02*
X94583333Y-70377380D01*
X94773809Y-69663095D01*
X94964285Y-70377380D01*
X95202380Y-69377380D01*
X95488095Y-69377380D02*
X96107142Y-69377380D01*
X95773809Y-69758333D01*
X95916666Y-69758333D01*
X96011904Y-69805952D01*
X96059523Y-69853571D01*
X96107142Y-69948809D01*
X96107142Y-70186904D01*
X96059523Y-70282142D01*
X96011904Y-70329761D01*
X95916666Y-70377380D01*
X95630952Y-70377380D01*
X95535714Y-70329761D01*
X95488095Y-70282142D01*
X97059523Y-70377380D02*
X96488095Y-70377380D01*
X96773809Y-70377380D02*
X96773809Y-69377380D01*
X96678571Y-69520238D01*
X96583333Y-69615476D01*
X96488095Y-69663095D01*
X241077976Y-108429761D02*
X241220833Y-108477380D01*
X241458928Y-108477380D01*
X241554166Y-108429761D01*
X241601785Y-108382142D01*
X241649404Y-108286904D01*
X241649404Y-108191666D01*
X241601785Y-108096428D01*
X241554166Y-108048809D01*
X241458928Y-108001190D01*
X241268452Y-107953571D01*
X241173214Y-107905952D01*
X241125595Y-107858333D01*
X241077976Y-107763095D01*
X241077976Y-107667857D01*
X241125595Y-107572619D01*
X241173214Y-107525000D01*
X241268452Y-107477380D01*
X241506547Y-107477380D01*
X241649404Y-107525000D01*
X241982738Y-107477380D02*
X242220833Y-108477380D01*
X242411309Y-107763095D01*
X242601785Y-108477380D01*
X242839880Y-107477380D01*
X243649404Y-107477380D02*
X243458928Y-107477380D01*
X243363690Y-107525000D01*
X243316071Y-107572619D01*
X243220833Y-107715476D01*
X243173214Y-107905952D01*
X243173214Y-108286904D01*
X243220833Y-108382142D01*
X243268452Y-108429761D01*
X243363690Y-108477380D01*
X243554166Y-108477380D01*
X243649404Y-108429761D01*
X243697023Y-108382142D01*
X243744642Y-108286904D01*
X243744642Y-108048809D01*
X243697023Y-107953571D01*
X243649404Y-107905952D01*
X243554166Y-107858333D01*
X243363690Y-107858333D01*
X243268452Y-107905952D01*
X243220833Y-107953571D01*
X243173214Y-108048809D01*
X244649404Y-107477380D02*
X244173214Y-107477380D01*
X244125595Y-107953571D01*
X244173214Y-107905952D01*
X244268452Y-107858333D01*
X244506547Y-107858333D01*
X244601785Y-107905952D01*
X244649404Y-107953571D01*
X244697023Y-108048809D01*
X244697023Y-108286904D01*
X244649404Y-108382142D01*
X244601785Y-108429761D01*
X244506547Y-108477380D01*
X244268452Y-108477380D01*
X244173214Y-108429761D01*
X244125595Y-108382142D01*
X112490476Y-70329761D02*
X112633333Y-70377380D01*
X112871428Y-70377380D01*
X112966666Y-70329761D01*
X113014285Y-70282142D01*
X113061904Y-70186904D01*
X113061904Y-70091666D01*
X113014285Y-69996428D01*
X112966666Y-69948809D01*
X112871428Y-69901190D01*
X112680952Y-69853571D01*
X112585714Y-69805952D01*
X112538095Y-69758333D01*
X112490476Y-69663095D01*
X112490476Y-69567857D01*
X112538095Y-69472619D01*
X112585714Y-69425000D01*
X112680952Y-69377380D01*
X112919047Y-69377380D01*
X113061904Y-69425000D01*
X113395238Y-69377380D02*
X113633333Y-70377380D01*
X113823809Y-69663095D01*
X114014285Y-70377380D01*
X114252380Y-69377380D01*
X114538095Y-69377380D02*
X115157142Y-69377380D01*
X114823809Y-69758333D01*
X114966666Y-69758333D01*
X115061904Y-69805952D01*
X115109523Y-69853571D01*
X115157142Y-69948809D01*
X115157142Y-70186904D01*
X115109523Y-70282142D01*
X115061904Y-70329761D01*
X114966666Y-70377380D01*
X114680952Y-70377380D01*
X114585714Y-70329761D01*
X114538095Y-70282142D01*
X115538095Y-69472619D02*
X115585714Y-69425000D01*
X115680952Y-69377380D01*
X115919047Y-69377380D01*
X116014285Y-69425000D01*
X116061904Y-69472619D01*
X116109523Y-69567857D01*
X116109523Y-69663095D01*
X116061904Y-69805952D01*
X115490476Y-70377380D01*
X116109523Y-70377380D01*
X222027976Y-108429761D02*
X222170833Y-108477380D01*
X222408928Y-108477380D01*
X222504166Y-108429761D01*
X222551785Y-108382142D01*
X222599404Y-108286904D01*
X222599404Y-108191666D01*
X222551785Y-108096428D01*
X222504166Y-108048809D01*
X222408928Y-108001190D01*
X222218452Y-107953571D01*
X222123214Y-107905952D01*
X222075595Y-107858333D01*
X222027976Y-107763095D01*
X222027976Y-107667857D01*
X222075595Y-107572619D01*
X222123214Y-107525000D01*
X222218452Y-107477380D01*
X222456547Y-107477380D01*
X222599404Y-107525000D01*
X222932738Y-107477380D02*
X223170833Y-108477380D01*
X223361309Y-107763095D01*
X223551785Y-108477380D01*
X223789880Y-107477380D01*
X224599404Y-107477380D02*
X224408928Y-107477380D01*
X224313690Y-107525000D01*
X224266071Y-107572619D01*
X224170833Y-107715476D01*
X224123214Y-107905952D01*
X224123214Y-108286904D01*
X224170833Y-108382142D01*
X224218452Y-108429761D01*
X224313690Y-108477380D01*
X224504166Y-108477380D01*
X224599404Y-108429761D01*
X224647023Y-108382142D01*
X224694642Y-108286904D01*
X224694642Y-108048809D01*
X224647023Y-107953571D01*
X224599404Y-107905952D01*
X224504166Y-107858333D01*
X224313690Y-107858333D01*
X224218452Y-107905952D01*
X224170833Y-107953571D01*
X224123214Y-108048809D01*
X225551785Y-107810714D02*
X225551785Y-108477380D01*
X225313690Y-107429761D02*
X225075595Y-108144047D01*
X225694642Y-108144047D01*
X151066666Y-32229761D02*
X151209523Y-32277380D01*
X151447619Y-32277380D01*
X151542857Y-32229761D01*
X151590476Y-32182142D01*
X151638095Y-32086904D01*
X151638095Y-31991666D01*
X151590476Y-31896428D01*
X151542857Y-31848809D01*
X151447619Y-31801190D01*
X151257142Y-31753571D01*
X151161904Y-31705952D01*
X151114285Y-31658333D01*
X151066666Y-31563095D01*
X151066666Y-31467857D01*
X151114285Y-31372619D01*
X151161904Y-31325000D01*
X151257142Y-31277380D01*
X151495238Y-31277380D01*
X151638095Y-31325000D01*
X151971428Y-31277380D02*
X152209523Y-32277380D01*
X152400000Y-31563095D01*
X152590476Y-32277380D01*
X152828571Y-31277380D01*
X153638095Y-31277380D02*
X153447619Y-31277380D01*
X153352380Y-31325000D01*
X153304761Y-31372619D01*
X153209523Y-31515476D01*
X153161904Y-31705952D01*
X153161904Y-32086904D01*
X153209523Y-32182142D01*
X153257142Y-32229761D01*
X153352380Y-32277380D01*
X153542857Y-32277380D01*
X153638095Y-32229761D01*
X153685714Y-32182142D01*
X153733333Y-32086904D01*
X153733333Y-31848809D01*
X153685714Y-31753571D01*
X153638095Y-31705952D01*
X153542857Y-31658333D01*
X153352380Y-31658333D01*
X153257142Y-31705952D01*
X153209523Y-31753571D01*
X153161904Y-31848809D01*
X274415476Y-127479761D02*
X274558333Y-127527380D01*
X274796428Y-127527380D01*
X274891666Y-127479761D01*
X274939285Y-127432142D01*
X274986904Y-127336904D01*
X274986904Y-127241666D01*
X274939285Y-127146428D01*
X274891666Y-127098809D01*
X274796428Y-127051190D01*
X274605952Y-127003571D01*
X274510714Y-126955952D01*
X274463095Y-126908333D01*
X274415476Y-126813095D01*
X274415476Y-126717857D01*
X274463095Y-126622619D01*
X274510714Y-126575000D01*
X274605952Y-126527380D01*
X274844047Y-126527380D01*
X274986904Y-126575000D01*
X275320238Y-126527380D02*
X275558333Y-127527380D01*
X275748809Y-126813095D01*
X275939285Y-127527380D01*
X276177380Y-126527380D01*
X276463095Y-126527380D02*
X277129761Y-126527380D01*
X276701190Y-127527380D01*
X277939285Y-126860714D02*
X277939285Y-127527380D01*
X277701190Y-126479761D02*
X277463095Y-127194047D01*
X278082142Y-127194047D01*
X64865476Y-51279761D02*
X65008333Y-51327380D01*
X65246428Y-51327380D01*
X65341666Y-51279761D01*
X65389285Y-51232142D01*
X65436904Y-51136904D01*
X65436904Y-51041666D01*
X65389285Y-50946428D01*
X65341666Y-50898809D01*
X65246428Y-50851190D01*
X65055952Y-50803571D01*
X64960714Y-50755952D01*
X64913095Y-50708333D01*
X64865476Y-50613095D01*
X64865476Y-50517857D01*
X64913095Y-50422619D01*
X64960714Y-50375000D01*
X65055952Y-50327380D01*
X65294047Y-50327380D01*
X65436904Y-50375000D01*
X65770238Y-50327380D02*
X66008333Y-51327380D01*
X66198809Y-50613095D01*
X66389285Y-51327380D01*
X66627380Y-50327380D01*
X67532142Y-51327380D02*
X66960714Y-51327380D01*
X67246428Y-51327380D02*
X67246428Y-50327380D01*
X67151190Y-50470238D01*
X67055952Y-50565476D01*
X66960714Y-50613095D01*
X68389285Y-50327380D02*
X68198809Y-50327380D01*
X68103571Y-50375000D01*
X68055952Y-50422619D01*
X67960714Y-50565476D01*
X67913095Y-50755952D01*
X67913095Y-51136904D01*
X67960714Y-51232142D01*
X68008333Y-51279761D01*
X68103571Y-51327380D01*
X68294047Y-51327380D01*
X68389285Y-51279761D01*
X68436904Y-51232142D01*
X68484523Y-51136904D01*
X68484523Y-50898809D01*
X68436904Y-50803571D01*
X68389285Y-50755952D01*
X68294047Y-50708333D01*
X68103571Y-50708333D01*
X68008333Y-50755952D01*
X67960714Y-50803571D01*
X67913095Y-50898809D01*
X101060416Y-32229761D02*
X101203273Y-32277380D01*
X101441369Y-32277380D01*
X101536607Y-32229761D01*
X101584226Y-32182142D01*
X101631845Y-32086904D01*
X101631845Y-31991666D01*
X101584226Y-31896428D01*
X101536607Y-31848809D01*
X101441369Y-31801190D01*
X101250892Y-31753571D01*
X101155654Y-31705952D01*
X101108035Y-31658333D01*
X101060416Y-31563095D01*
X101060416Y-31467857D01*
X101108035Y-31372619D01*
X101155654Y-31325000D01*
X101250892Y-31277380D01*
X101488988Y-31277380D01*
X101631845Y-31325000D01*
X101965178Y-31277380D02*
X102203273Y-32277380D01*
X102393750Y-31563095D01*
X102584226Y-32277380D01*
X102822321Y-31277380D01*
X103631845Y-31610714D02*
X103631845Y-32277380D01*
X103393750Y-31229761D02*
X103155654Y-31944047D01*
X103774702Y-31944047D01*
X255365476Y-127479761D02*
X255508333Y-127527380D01*
X255746428Y-127527380D01*
X255841666Y-127479761D01*
X255889285Y-127432142D01*
X255936904Y-127336904D01*
X255936904Y-127241666D01*
X255889285Y-127146428D01*
X255841666Y-127098809D01*
X255746428Y-127051190D01*
X255555952Y-127003571D01*
X255460714Y-126955952D01*
X255413095Y-126908333D01*
X255365476Y-126813095D01*
X255365476Y-126717857D01*
X255413095Y-126622619D01*
X255460714Y-126575000D01*
X255555952Y-126527380D01*
X255794047Y-126527380D01*
X255936904Y-126575000D01*
X256270238Y-126527380D02*
X256508333Y-127527380D01*
X256698809Y-126813095D01*
X256889285Y-127527380D01*
X257127380Y-126527380D01*
X257413095Y-126527380D02*
X258079761Y-126527380D01*
X257651190Y-127527380D01*
X258365476Y-126527380D02*
X258984523Y-126527380D01*
X258651190Y-126908333D01*
X258794047Y-126908333D01*
X258889285Y-126955952D01*
X258936904Y-127003571D01*
X258984523Y-127098809D01*
X258984523Y-127336904D01*
X258936904Y-127432142D01*
X258889285Y-127479761D01*
X258794047Y-127527380D01*
X258508333Y-127527380D01*
X258413095Y-127479761D01*
X258365476Y-127432142D01*
X164877976Y-108429761D02*
X165020833Y-108477380D01*
X165258928Y-108477380D01*
X165354166Y-108429761D01*
X165401785Y-108382142D01*
X165449404Y-108286904D01*
X165449404Y-108191666D01*
X165401785Y-108096428D01*
X165354166Y-108048809D01*
X165258928Y-108001190D01*
X165068452Y-107953571D01*
X164973214Y-107905952D01*
X164925595Y-107858333D01*
X164877976Y-107763095D01*
X164877976Y-107667857D01*
X164925595Y-107572619D01*
X164973214Y-107525000D01*
X165068452Y-107477380D01*
X165306547Y-107477380D01*
X165449404Y-107525000D01*
X165782738Y-107477380D02*
X166020833Y-108477380D01*
X166211309Y-107763095D01*
X166401785Y-108477380D01*
X166639880Y-107477380D01*
X167449404Y-107477380D02*
X167258928Y-107477380D01*
X167163690Y-107525000D01*
X167116071Y-107572619D01*
X167020833Y-107715476D01*
X166973214Y-107905952D01*
X166973214Y-108286904D01*
X167020833Y-108382142D01*
X167068452Y-108429761D01*
X167163690Y-108477380D01*
X167354166Y-108477380D01*
X167449404Y-108429761D01*
X167497023Y-108382142D01*
X167544642Y-108286904D01*
X167544642Y-108048809D01*
X167497023Y-107953571D01*
X167449404Y-107905952D01*
X167354166Y-107858333D01*
X167163690Y-107858333D01*
X167068452Y-107905952D01*
X167020833Y-107953571D01*
X166973214Y-108048809D01*
X168497023Y-108477380D02*
X167925595Y-108477380D01*
X168211309Y-108477380D02*
X168211309Y-107477380D01*
X168116071Y-107620238D01*
X168020833Y-107715476D01*
X167925595Y-107763095D01*
X122015476Y-51279761D02*
X122158333Y-51327380D01*
X122396428Y-51327380D01*
X122491666Y-51279761D01*
X122539285Y-51232142D01*
X122586904Y-51136904D01*
X122586904Y-51041666D01*
X122539285Y-50946428D01*
X122491666Y-50898809D01*
X122396428Y-50851190D01*
X122205952Y-50803571D01*
X122110714Y-50755952D01*
X122063095Y-50708333D01*
X122015476Y-50613095D01*
X122015476Y-50517857D01*
X122063095Y-50422619D01*
X122110714Y-50375000D01*
X122205952Y-50327380D01*
X122444047Y-50327380D01*
X122586904Y-50375000D01*
X122920238Y-50327380D02*
X123158333Y-51327380D01*
X123348809Y-50613095D01*
X123539285Y-51327380D01*
X123777380Y-50327380D01*
X124682142Y-51327380D02*
X124110714Y-51327380D01*
X124396428Y-51327380D02*
X124396428Y-50327380D01*
X124301190Y-50470238D01*
X124205952Y-50565476D01*
X124110714Y-50613095D01*
X125158333Y-51327380D02*
X125348809Y-51327380D01*
X125444047Y-51279761D01*
X125491666Y-51232142D01*
X125586904Y-51089285D01*
X125634523Y-50898809D01*
X125634523Y-50517857D01*
X125586904Y-50422619D01*
X125539285Y-50375000D01*
X125444047Y-50327380D01*
X125253571Y-50327380D01*
X125158333Y-50375000D01*
X125110714Y-50422619D01*
X125063095Y-50517857D01*
X125063095Y-50755952D01*
X125110714Y-50851190D01*
X125158333Y-50898809D01*
X125253571Y-50946428D01*
X125444047Y-50946428D01*
X125539285Y-50898809D01*
X125586904Y-50851190D01*
X125634523Y-50755952D01*
X45815476Y-127479761D02*
X45958333Y-127527380D01*
X46196428Y-127527380D01*
X46291666Y-127479761D01*
X46339285Y-127432142D01*
X46386904Y-127336904D01*
X46386904Y-127241666D01*
X46339285Y-127146428D01*
X46291666Y-127098809D01*
X46196428Y-127051190D01*
X46005952Y-127003571D01*
X45910714Y-126955952D01*
X45863095Y-126908333D01*
X45815476Y-126813095D01*
X45815476Y-126717857D01*
X45863095Y-126622619D01*
X45910714Y-126575000D01*
X46005952Y-126527380D01*
X46244047Y-126527380D01*
X46386904Y-126575000D01*
X46720238Y-126527380D02*
X46958333Y-127527380D01*
X47148809Y-126813095D01*
X47339285Y-127527380D01*
X47577380Y-126527380D01*
X48386904Y-126527380D02*
X48196428Y-126527380D01*
X48101190Y-126575000D01*
X48053571Y-126622619D01*
X47958333Y-126765476D01*
X47910714Y-126955952D01*
X47910714Y-127336904D01*
X47958333Y-127432142D01*
X48005952Y-127479761D01*
X48101190Y-127527380D01*
X48291666Y-127527380D01*
X48386904Y-127479761D01*
X48434523Y-127432142D01*
X48482142Y-127336904D01*
X48482142Y-127098809D01*
X48434523Y-127003571D01*
X48386904Y-126955952D01*
X48291666Y-126908333D01*
X48101190Y-126908333D01*
X48005952Y-126955952D01*
X47958333Y-127003571D01*
X47910714Y-127098809D01*
X49053571Y-126955952D02*
X48958333Y-126908333D01*
X48910714Y-126860714D01*
X48863095Y-126765476D01*
X48863095Y-126717857D01*
X48910714Y-126622619D01*
X48958333Y-126575000D01*
X49053571Y-126527380D01*
X49244047Y-126527380D01*
X49339285Y-126575000D01*
X49386904Y-126622619D01*
X49434523Y-126717857D01*
X49434523Y-126765476D01*
X49386904Y-126860714D01*
X49339285Y-126908333D01*
X49244047Y-126955952D01*
X49053571Y-126955952D01*
X48958333Y-127003571D01*
X48910714Y-127051190D01*
X48863095Y-127146428D01*
X48863095Y-127336904D01*
X48910714Y-127432142D01*
X48958333Y-127479761D01*
X49053571Y-127527380D01*
X49244047Y-127527380D01*
X49339285Y-127479761D01*
X49386904Y-127432142D01*
X49434523Y-127336904D01*
X49434523Y-127146428D01*
X49386904Y-127051190D01*
X49339285Y-127003571D01*
X49244047Y-126955952D01*
X102965476Y-51279761D02*
X103108333Y-51327380D01*
X103346428Y-51327380D01*
X103441666Y-51279761D01*
X103489285Y-51232142D01*
X103536904Y-51136904D01*
X103536904Y-51041666D01*
X103489285Y-50946428D01*
X103441666Y-50898809D01*
X103346428Y-50851190D01*
X103155952Y-50803571D01*
X103060714Y-50755952D01*
X103013095Y-50708333D01*
X102965476Y-50613095D01*
X102965476Y-50517857D01*
X103013095Y-50422619D01*
X103060714Y-50375000D01*
X103155952Y-50327380D01*
X103394047Y-50327380D01*
X103536904Y-50375000D01*
X103870238Y-50327380D02*
X104108333Y-51327380D01*
X104298809Y-50613095D01*
X104489285Y-51327380D01*
X104727380Y-50327380D01*
X105632142Y-51327380D02*
X105060714Y-51327380D01*
X105346428Y-51327380D02*
X105346428Y-50327380D01*
X105251190Y-50470238D01*
X105155952Y-50565476D01*
X105060714Y-50613095D01*
X106203571Y-50755952D02*
X106108333Y-50708333D01*
X106060714Y-50660714D01*
X106013095Y-50565476D01*
X106013095Y-50517857D01*
X106060714Y-50422619D01*
X106108333Y-50375000D01*
X106203571Y-50327380D01*
X106394047Y-50327380D01*
X106489285Y-50375000D01*
X106536904Y-50422619D01*
X106584523Y-50517857D01*
X106584523Y-50565476D01*
X106536904Y-50660714D01*
X106489285Y-50708333D01*
X106394047Y-50755952D01*
X106203571Y-50755952D01*
X106108333Y-50803571D01*
X106060714Y-50851190D01*
X106013095Y-50946428D01*
X106013095Y-51136904D01*
X106060714Y-51232142D01*
X106108333Y-51279761D01*
X106203571Y-51327380D01*
X106394047Y-51327380D01*
X106489285Y-51279761D01*
X106536904Y-51232142D01*
X106584523Y-51136904D01*
X106584523Y-50946428D01*
X106536904Y-50851190D01*
X106489285Y-50803571D01*
X106394047Y-50755952D01*
X33090476Y-89529761D02*
X33233333Y-89577380D01*
X33471428Y-89577380D01*
X33566666Y-89529761D01*
X33614285Y-89482142D01*
X33661904Y-89386904D01*
X33661904Y-89291666D01*
X33614285Y-89196428D01*
X33566666Y-89148809D01*
X33471428Y-89101190D01*
X33280952Y-89053571D01*
X33185714Y-89005952D01*
X33138095Y-88958333D01*
X33090476Y-88863095D01*
X33090476Y-88767857D01*
X33138095Y-88672619D01*
X33185714Y-88625000D01*
X33280952Y-88577380D01*
X33519047Y-88577380D01*
X33661904Y-88625000D01*
X33995238Y-88577380D02*
X34233333Y-89577380D01*
X34423809Y-88863095D01*
X34614285Y-89577380D01*
X34852380Y-88577380D01*
X35661904Y-88910714D02*
X35661904Y-89577380D01*
X35423809Y-88529761D02*
X35185714Y-89244047D01*
X35804761Y-89244047D01*
X36138095Y-88672619D02*
X36185714Y-88625000D01*
X36280952Y-88577380D01*
X36519047Y-88577380D01*
X36614285Y-88625000D01*
X36661904Y-88672619D01*
X36709523Y-88767857D01*
X36709523Y-88863095D01*
X36661904Y-89005952D01*
X36090476Y-89577380D01*
X36709523Y-89577380D01*
X288702976Y-70454761D02*
X288845833Y-70502380D01*
X289083928Y-70502380D01*
X289179166Y-70454761D01*
X289226785Y-70407142D01*
X289274404Y-70311904D01*
X289274404Y-70216666D01*
X289226785Y-70121428D01*
X289179166Y-70073809D01*
X289083928Y-70026190D01*
X288893452Y-69978571D01*
X288798214Y-69930952D01*
X288750595Y-69883333D01*
X288702976Y-69788095D01*
X288702976Y-69692857D01*
X288750595Y-69597619D01*
X288798214Y-69550000D01*
X288893452Y-69502380D01*
X289131547Y-69502380D01*
X289274404Y-69550000D01*
X289607738Y-69502380D02*
X289845833Y-70502380D01*
X290036309Y-69788095D01*
X290226785Y-70502380D01*
X290464880Y-69502380D01*
X291274404Y-69835714D02*
X291274404Y-70502380D01*
X291036309Y-69454761D02*
X290798214Y-70169047D01*
X291417261Y-70169047D01*
X292322023Y-70502380D02*
X291750595Y-70502380D01*
X292036309Y-70502380D02*
X292036309Y-69502380D01*
X291941071Y-69645238D01*
X291845833Y-69740476D01*
X291750595Y-69788095D01*
X31527976Y-70454761D02*
X31670833Y-70502380D01*
X31908928Y-70502380D01*
X32004166Y-70454761D01*
X32051785Y-70407142D01*
X32099404Y-70311904D01*
X32099404Y-70216666D01*
X32051785Y-70121428D01*
X32004166Y-70073809D01*
X31908928Y-70026190D01*
X31718452Y-69978571D01*
X31623214Y-69930952D01*
X31575595Y-69883333D01*
X31527976Y-69788095D01*
X31527976Y-69692857D01*
X31575595Y-69597619D01*
X31623214Y-69550000D01*
X31718452Y-69502380D01*
X31956547Y-69502380D01*
X32099404Y-69550000D01*
X32432738Y-69502380D02*
X32670833Y-70502380D01*
X32861309Y-69788095D01*
X33051785Y-70502380D01*
X33289880Y-69502380D01*
X33623214Y-69597619D02*
X33670833Y-69550000D01*
X33766071Y-69502380D01*
X34004166Y-69502380D01*
X34099404Y-69550000D01*
X34147023Y-69597619D01*
X34194642Y-69692857D01*
X34194642Y-69788095D01*
X34147023Y-69930952D01*
X33575595Y-70502380D01*
X34194642Y-70502380D01*
X34766071Y-69930952D02*
X34670833Y-69883333D01*
X34623214Y-69835714D01*
X34575595Y-69740476D01*
X34575595Y-69692857D01*
X34623214Y-69597619D01*
X34670833Y-69550000D01*
X34766071Y-69502380D01*
X34956547Y-69502380D01*
X35051785Y-69550000D01*
X35099404Y-69597619D01*
X35147023Y-69692857D01*
X35147023Y-69740476D01*
X35099404Y-69835714D01*
X35051785Y-69883333D01*
X34956547Y-69930952D01*
X34766071Y-69930952D01*
X34670833Y-69978571D01*
X34623214Y-70026190D01*
X34575595Y-70121428D01*
X34575595Y-70311904D01*
X34623214Y-70407142D01*
X34670833Y-70454761D01*
X34766071Y-70502380D01*
X34956547Y-70502380D01*
X35051785Y-70454761D01*
X35099404Y-70407142D01*
X35147023Y-70311904D01*
X35147023Y-70121428D01*
X35099404Y-70026190D01*
X35051785Y-69978571D01*
X34956547Y-69930952D01*
X44481845Y-30589880D02*
X44481845Y-29589880D01*
X44481845Y-30066071D02*
X45053273Y-30066071D01*
X45053273Y-30589880D02*
X45053273Y-29589880D01*
X46005654Y-29589880D02*
X45529464Y-29589880D01*
X45481845Y-30066071D01*
X45529464Y-30018452D01*
X45624702Y-29970833D01*
X45862797Y-29970833D01*
X45958035Y-30018452D01*
X46005654Y-30066071D01*
X46053273Y-30161309D01*
X46053273Y-30399404D01*
X46005654Y-30494642D01*
X45958035Y-30542261D01*
X45862797Y-30589880D01*
X45624702Y-30589880D01*
X45529464Y-30542261D01*
X45481845Y-30494642D01*
X26813095Y-109677380D02*
X26813095Y-108677380D01*
X26813095Y-109153571D02*
X27384523Y-109153571D01*
X27384523Y-109677380D02*
X27384523Y-108677380D01*
X28384523Y-109677380D02*
X27813095Y-109677380D01*
X28098809Y-109677380D02*
X28098809Y-108677380D01*
X28003571Y-108820238D01*
X27908333Y-108915476D01*
X27813095Y-108963095D01*
X270713095Y-90377380D02*
X270713095Y-89377380D01*
X270713095Y-89853571D02*
X271284523Y-89853571D01*
X271284523Y-90377380D02*
X271284523Y-89377380D01*
X271665476Y-89377380D02*
X272284523Y-89377380D01*
X271951190Y-89758333D01*
X272094047Y-89758333D01*
X272189285Y-89805952D01*
X272236904Y-89853571D01*
X272284523Y-89948809D01*
X272284523Y-90186904D01*
X272236904Y-90282142D01*
X272189285Y-90329761D01*
X272094047Y-90377380D01*
X271808333Y-90377380D01*
X271713095Y-90329761D01*
X271665476Y-90282142D01*
X20193154Y-63927380D02*
X20193154Y-62927380D01*
X20193154Y-63403571D02*
X20764583Y-63403571D01*
X20764583Y-63927380D02*
X20764583Y-62927380D01*
X21764583Y-63927380D02*
X21193154Y-63927380D01*
X21478869Y-63927380D02*
X21478869Y-62927380D01*
X21383630Y-63070238D01*
X21288392Y-63165476D01*
X21193154Y-63213095D01*
X22669345Y-62927380D02*
X22193154Y-62927380D01*
X22145535Y-63403571D01*
X22193154Y-63355952D01*
X22288392Y-63308333D01*
X22526488Y-63308333D01*
X22621726Y-63355952D01*
X22669345Y-63403571D01*
X22716964Y-63498809D01*
X22716964Y-63736904D01*
X22669345Y-63832142D01*
X22621726Y-63879761D01*
X22526488Y-63927380D01*
X22288392Y-63927380D01*
X22193154Y-63879761D01*
X22145535Y-63832142D01*
X37338095Y-121077380D02*
X37338095Y-120077380D01*
X37338095Y-120553571D02*
X37909523Y-120553571D01*
X37909523Y-121077380D02*
X37909523Y-120077380D01*
X38290476Y-120077380D02*
X38957142Y-120077380D01*
X38528571Y-121077380D01*
X217836904Y-68689880D02*
X217836904Y-67689880D01*
X217836904Y-68166071D02*
X218408333Y-68166071D01*
X218408333Y-68689880D02*
X218408333Y-67689880D01*
X219408333Y-68689880D02*
X218836904Y-68689880D01*
X219122619Y-68689880D02*
X219122619Y-67689880D01*
X219027380Y-67832738D01*
X218932142Y-67927976D01*
X218836904Y-67975595D01*
X220360714Y-68689880D02*
X219789285Y-68689880D01*
X220075000Y-68689880D02*
X220075000Y-67689880D01*
X219979761Y-67832738D01*
X219884523Y-67927976D01*
X219789285Y-67975595D01*
X108913095Y-126777380D02*
X108913095Y-125777380D01*
X108913095Y-126253571D02*
X109484523Y-126253571D01*
X109484523Y-126777380D02*
X109484523Y-125777380D01*
X109913095Y-125872619D02*
X109960714Y-125825000D01*
X110055952Y-125777380D01*
X110294047Y-125777380D01*
X110389285Y-125825000D01*
X110436904Y-125872619D01*
X110484523Y-125967857D01*
X110484523Y-126063095D01*
X110436904Y-126205952D01*
X109865476Y-126777380D01*
X110484523Y-126777380D01*
X134969345Y-121077380D02*
X134969345Y-120077380D01*
X134969345Y-120553571D02*
X135540773Y-120553571D01*
X135540773Y-121077380D02*
X135540773Y-120077380D01*
X136445535Y-120077380D02*
X136255059Y-120077380D01*
X136159821Y-120125000D01*
X136112202Y-120172619D01*
X136016964Y-120315476D01*
X135969345Y-120505952D01*
X135969345Y-120886904D01*
X136016964Y-120982142D01*
X136064583Y-121029761D01*
X136159821Y-121077380D01*
X136350297Y-121077380D01*
X136445535Y-121029761D01*
X136493154Y-120982142D01*
X136540773Y-120886904D01*
X136540773Y-120648809D01*
X136493154Y-120553571D01*
X136445535Y-120505952D01*
X136350297Y-120458333D01*
X136159821Y-120458333D01*
X136064583Y-120505952D01*
X136016964Y-120553571D01*
X135969345Y-120648809D01*
X222599404Y-25827380D02*
X222599404Y-24827380D01*
X222599404Y-25303571D02*
X223170833Y-25303571D01*
X223170833Y-25827380D02*
X223170833Y-24827380D01*
X224170833Y-25827380D02*
X223599404Y-25827380D01*
X223885119Y-25827380D02*
X223885119Y-24827380D01*
X223789880Y-24970238D01*
X223694642Y-25065476D01*
X223599404Y-25113095D01*
X225027976Y-25160714D02*
X225027976Y-25827380D01*
X224789880Y-24779761D02*
X224551785Y-25494047D01*
X225170833Y-25494047D01*
X103536904Y-68689880D02*
X103536904Y-67689880D01*
X103536904Y-68166071D02*
X104108333Y-68166071D01*
X104108333Y-68689880D02*
X104108333Y-67689880D01*
X105108333Y-68689880D02*
X104536904Y-68689880D01*
X104822619Y-68689880D02*
X104822619Y-67689880D01*
X104727380Y-67832738D01*
X104632142Y-67927976D01*
X104536904Y-67975595D01*
X105489285Y-67785119D02*
X105536904Y-67737500D01*
X105632142Y-67689880D01*
X105870238Y-67689880D01*
X105965476Y-67737500D01*
X106013095Y-67785119D01*
X106060714Y-67880357D01*
X106060714Y-67975595D01*
X106013095Y-68118452D01*
X105441666Y-68689880D01*
X106060714Y-68689880D01*
X134969345Y-25827380D02*
X134969345Y-24827380D01*
X134969345Y-25303571D02*
X135540773Y-25303571D01*
X135540773Y-25827380D02*
X135540773Y-24827380D01*
X136159821Y-25255952D02*
X136064583Y-25208333D01*
X136016964Y-25160714D01*
X135969345Y-25065476D01*
X135969345Y-25017857D01*
X136016964Y-24922619D01*
X136064583Y-24875000D01*
X136159821Y-24827380D01*
X136350297Y-24827380D01*
X136445535Y-24875000D01*
X136493154Y-24922619D01*
X136540773Y-25017857D01*
X136540773Y-25065476D01*
X136493154Y-25160714D01*
X136445535Y-25208333D01*
X136350297Y-25255952D01*
X136159821Y-25255952D01*
X136064583Y-25303571D01*
X136016964Y-25351190D01*
X135969345Y-25446428D01*
X135969345Y-25636904D01*
X136016964Y-25732142D01*
X136064583Y-25779761D01*
X136159821Y-25827380D01*
X136350297Y-25827380D01*
X136445535Y-25779761D01*
X136493154Y-25732142D01*
X136540773Y-25636904D01*
X136540773Y-25446428D01*
X136493154Y-25351190D01*
X136445535Y-25303571D01*
X136350297Y-25255952D01*
X284988095Y-123458630D02*
X284988095Y-122458630D01*
X284988095Y-122934821D02*
X285559523Y-122934821D01*
X285559523Y-123458630D02*
X285559523Y-122458630D01*
X286083333Y-123458630D02*
X286273809Y-123458630D01*
X286369047Y-123411011D01*
X286416666Y-123363392D01*
X286511904Y-123220535D01*
X286559523Y-123030059D01*
X286559523Y-122649107D01*
X286511904Y-122553869D01*
X286464285Y-122506250D01*
X286369047Y-122458630D01*
X286178571Y-122458630D01*
X286083333Y-122506250D01*
X286035714Y-122553869D01*
X285988095Y-122649107D01*
X285988095Y-122887202D01*
X286035714Y-122982440D01*
X286083333Y-123030059D01*
X286178571Y-123077678D01*
X286369047Y-123077678D01*
X286464285Y-123030059D01*
X286511904Y-122982440D01*
X286559523Y-122887202D01*
X273113095Y-52577380D02*
X273113095Y-51577380D01*
X273113095Y-52053571D02*
X273684523Y-52053571D01*
X273684523Y-52577380D02*
X273684523Y-51577380D01*
X274589285Y-51910714D02*
X274589285Y-52577380D01*
X274351190Y-51529761D02*
X274113095Y-52244047D01*
X274732142Y-52244047D01*
X182118154Y-121077380D02*
X182118154Y-120077380D01*
X182118154Y-120553571D02*
X182689583Y-120553571D01*
X182689583Y-121077380D02*
X182689583Y-120077380D01*
X183689583Y-121077380D02*
X183118154Y-121077380D01*
X183403869Y-121077380D02*
X183403869Y-120077380D01*
X183308630Y-120220238D01*
X183213392Y-120315476D01*
X183118154Y-120363095D01*
X184022916Y-120077380D02*
X184641964Y-120077380D01*
X184308630Y-120458333D01*
X184451488Y-120458333D01*
X184546726Y-120505952D01*
X184594345Y-120553571D01*
X184641964Y-120648809D01*
X184641964Y-120886904D01*
X184594345Y-120982142D01*
X184546726Y-121029761D01*
X184451488Y-121077380D01*
X184165773Y-121077380D01*
X184070535Y-121029761D01*
X184022916Y-120982142D01*
X22241666Y-88232380D02*
X22241666Y-88946666D01*
X22194047Y-89089523D01*
X22098809Y-89184761D01*
X21955952Y-89232380D01*
X21860714Y-89232380D01*
X23241666Y-89232380D02*
X22670238Y-89232380D01*
X22955952Y-89232380D02*
X22955952Y-88232380D01*
X22860714Y-88375238D01*
X22765476Y-88470476D01*
X22670238Y-88518095D01*
X298799404Y-68689880D02*
X298799404Y-67689880D01*
X298799404Y-68166071D02*
X299370833Y-68166071D01*
X299370833Y-68689880D02*
X299370833Y-67689880D01*
X300370833Y-68689880D02*
X299799404Y-68689880D01*
X300085119Y-68689880D02*
X300085119Y-67689880D01*
X299989880Y-67832738D01*
X299894642Y-67927976D01*
X299799404Y-67975595D01*
X301227976Y-67689880D02*
X301037500Y-67689880D01*
X300942261Y-67737500D01*
X300894642Y-67785119D01*
X300799404Y-67927976D01*
X300751785Y-68118452D01*
X300751785Y-68499404D01*
X300799404Y-68594642D01*
X300847023Y-68642261D01*
X300942261Y-68689880D01*
X301132738Y-68689880D01*
X301227976Y-68642261D01*
X301275595Y-68594642D01*
X301323214Y-68499404D01*
X301323214Y-68261309D01*
X301275595Y-68166071D01*
X301227976Y-68118452D01*
X301132738Y-68070833D01*
X300942261Y-68070833D01*
X300847023Y-68118452D01*
X300799404Y-68166071D01*
X300751785Y-68261309D01*
X284511904Y-36171130D02*
X284511904Y-35171130D01*
X284511904Y-35647321D02*
X285083333Y-35647321D01*
X285083333Y-36171130D02*
X285083333Y-35171130D01*
X286083333Y-36171130D02*
X285511904Y-36171130D01*
X285797619Y-36171130D02*
X285797619Y-35171130D01*
X285702380Y-35313988D01*
X285607142Y-35409226D01*
X285511904Y-35456845D01*
X286702380Y-35171130D02*
X286797619Y-35171130D01*
X286892857Y-35218750D01*
X286940476Y-35266369D01*
X286988095Y-35361607D01*
X287035714Y-35552083D01*
X287035714Y-35790178D01*
X286988095Y-35980654D01*
X286940476Y-36075892D01*
X286892857Y-36123511D01*
X286797619Y-36171130D01*
X286702380Y-36171130D01*
X286607142Y-36123511D01*
X286559523Y-36075892D01*
X286511904Y-35980654D01*
X286464285Y-35790178D01*
X286464285Y-35552083D01*
X286511904Y-35361607D01*
X286559523Y-35266369D01*
X286607142Y-35218750D01*
X286702380Y-35171130D01*
D11*
X23905000Y-86450000D02*
X23905000Y-87780000D01*
X23905000Y-87780000D02*
X22575000Y-87780000D01*
X23905000Y-80040000D02*
X21245000Y-80040000D01*
X23905000Y-85180000D02*
X23905000Y-80040000D01*
X23905000Y-85180000D02*
X21245000Y-85180000D01*
X21245000Y-85180000D02*
X21245000Y-80040000D01*
%LPC*%
D12*
X290830000Y-47625000D03*
D13*
X285750000Y-47625000D03*
D14*
X281940000Y-45085000D03*
X288290000Y-42545000D03*
D12*
X280670000Y-47625000D03*
X93186250Y-123825000D03*
D14*
X90646250Y-118745000D03*
D12*
X83026250Y-123825000D03*
D14*
X84296250Y-121285000D03*
D13*
X88106250Y-123825000D03*
D12*
X236061250Y-123825000D03*
D14*
X233521250Y-118745000D03*
D12*
X225901250Y-123825000D03*
D14*
X227171250Y-121285000D03*
D13*
X230981250Y-123825000D03*
D14*
X162083750Y-118745000D03*
X155733750Y-121285000D03*
D12*
X164623750Y-123825000D03*
D13*
X159543750Y-123825000D03*
D12*
X154463750Y-123825000D03*
X278288750Y-85725000D03*
D14*
X279558750Y-83185000D03*
D12*
X288448750Y-85725000D03*
D13*
X283368750Y-85725000D03*
D14*
X285908750Y-80645000D03*
D12*
X35401250Y-104775000D03*
D14*
X36671250Y-102235000D03*
D12*
X45561250Y-104775000D03*
D13*
X40481250Y-104775000D03*
D14*
X43021250Y-99695000D03*
X143827500Y-102235000D03*
D13*
X147637500Y-104775000D03*
D12*
X142557500Y-104775000D03*
D14*
X150177500Y-99695000D03*
D12*
X152717500Y-104775000D03*
D14*
X77152500Y-83185000D03*
D13*
X80962500Y-85725000D03*
D12*
X75882500Y-85725000D03*
D14*
X83502500Y-80645000D03*
D12*
X86042500Y-85725000D03*
D14*
X96202500Y-83185000D03*
D13*
X100012500Y-85725000D03*
D12*
X94932500Y-85725000D03*
D14*
X102552500Y-80645000D03*
D12*
X105092500Y-85725000D03*
D14*
X224790000Y-64135000D03*
D13*
X228600000Y-66675000D03*
D12*
X223520000Y-66675000D03*
D14*
X231140000Y-61595000D03*
D12*
X233680000Y-66675000D03*
D14*
X81915000Y-45085000D03*
D13*
X85725000Y-47625000D03*
D12*
X80645000Y-47625000D03*
D14*
X88265000Y-42545000D03*
D12*
X90805000Y-47625000D03*
D14*
X248602500Y-83185000D03*
D13*
X252412500Y-85725000D03*
D12*
X247332500Y-85725000D03*
D14*
X254952500Y-80645000D03*
D12*
X257492500Y-85725000D03*
D14*
X272415000Y-102235000D03*
D13*
X276225000Y-104775000D03*
D12*
X271145000Y-104775000D03*
D14*
X278765000Y-99695000D03*
D12*
X281305000Y-104775000D03*
D14*
X196215000Y-45085000D03*
D13*
X200025000Y-47625000D03*
D12*
X194945000Y-47625000D03*
D14*
X202565000Y-42545000D03*
D12*
X205105000Y-47625000D03*
D14*
X181927500Y-102235000D03*
D13*
X185737500Y-104775000D03*
D12*
X180657500Y-104775000D03*
D14*
X188277500Y-99695000D03*
D12*
X190817500Y-104775000D03*
D14*
X139065000Y-45085000D03*
D13*
X142875000Y-47625000D03*
D12*
X137795000Y-47625000D03*
D14*
X145415000Y-42545000D03*
D12*
X147955000Y-47625000D03*
D14*
X186690000Y-64135000D03*
D13*
X190500000Y-66675000D03*
D12*
X185420000Y-66675000D03*
D14*
X193040000Y-61595000D03*
D12*
X195580000Y-66675000D03*
D14*
X234315000Y-26035000D03*
D13*
X238125000Y-28575000D03*
D12*
X233045000Y-28575000D03*
D14*
X240665000Y-23495000D03*
D12*
X243205000Y-28575000D03*
D14*
X153352500Y-83185000D03*
D13*
X157162500Y-85725000D03*
D12*
X152082500Y-85725000D03*
D14*
X159702500Y-80645000D03*
D12*
X162242500Y-85725000D03*
D14*
X129540000Y-64135000D03*
D13*
X133350000Y-66675000D03*
D12*
X128270000Y-66675000D03*
D14*
X135890000Y-61595000D03*
D12*
X138430000Y-66675000D03*
D14*
X158115000Y-45085000D03*
D13*
X161925000Y-47625000D03*
D12*
X156845000Y-47625000D03*
D14*
X164465000Y-42545000D03*
D12*
X167005000Y-47625000D03*
D14*
X167640000Y-26035000D03*
D13*
X171450000Y-28575000D03*
D12*
X166370000Y-28575000D03*
D14*
X173990000Y-23495000D03*
D12*
X176530000Y-28575000D03*
D14*
X115252500Y-83185000D03*
D13*
X119062500Y-85725000D03*
D12*
X113982500Y-85725000D03*
D14*
X121602500Y-80645000D03*
D12*
X124142500Y-85725000D03*
D14*
X191452500Y-83185000D03*
D13*
X195262500Y-85725000D03*
D12*
X190182500Y-85725000D03*
D14*
X197802500Y-80645000D03*
D12*
X200342500Y-85725000D03*
D14*
X205740000Y-64135000D03*
D13*
X209550000Y-66675000D03*
D12*
X204470000Y-66675000D03*
D14*
X212090000Y-61595000D03*
D12*
X214630000Y-66675000D03*
D14*
X58102500Y-83185000D03*
D13*
X61912500Y-85725000D03*
D12*
X56832500Y-85725000D03*
D14*
X64452500Y-80645000D03*
D12*
X66992500Y-85725000D03*
D14*
X124777500Y-102235000D03*
D13*
X128587500Y-104775000D03*
D12*
X123507500Y-104775000D03*
D14*
X131127500Y-99695000D03*
D12*
X133667500Y-104775000D03*
D14*
X167640000Y-64135000D03*
D13*
X171450000Y-66675000D03*
D12*
X166370000Y-66675000D03*
D14*
X173990000Y-61595000D03*
D12*
X176530000Y-66675000D03*
D14*
X72390000Y-64135000D03*
D13*
X76200000Y-66675000D03*
D12*
X71120000Y-66675000D03*
D14*
X78740000Y-61595000D03*
D12*
X81280000Y-66675000D03*
D14*
X177165000Y-45085000D03*
D13*
X180975000Y-47625000D03*
D12*
X175895000Y-47625000D03*
D14*
X183515000Y-42545000D03*
D12*
X186055000Y-47625000D03*
D14*
X253365000Y-45085000D03*
D13*
X257175000Y-47625000D03*
D12*
X252095000Y-47625000D03*
D14*
X259715000Y-42545000D03*
D12*
X262255000Y-47625000D03*
D14*
X291465000Y-121285000D03*
D13*
X295275000Y-123825000D03*
D12*
X290195000Y-123825000D03*
D14*
X297815000Y-118745000D03*
D12*
X300355000Y-123825000D03*
D14*
X67627500Y-102235000D03*
D13*
X71437500Y-104775000D03*
D12*
X66357500Y-104775000D03*
D14*
X73977500Y-99695000D03*
D12*
X76517500Y-104775000D03*
D14*
X210502500Y-83185000D03*
D13*
X214312500Y-85725000D03*
D12*
X209232500Y-85725000D03*
D14*
X216852500Y-80645000D03*
D12*
X219392500Y-85725000D03*
D14*
X134302500Y-83185000D03*
D13*
X138112500Y-85725000D03*
D12*
X133032500Y-85725000D03*
D14*
X140652500Y-80645000D03*
D12*
X143192500Y-85725000D03*
D14*
X205740000Y-26035000D03*
D13*
X209550000Y-28575000D03*
D12*
X204470000Y-28575000D03*
D14*
X212090000Y-23495000D03*
D12*
X214630000Y-28575000D03*
D14*
X62865000Y-121285000D03*
D13*
X66675000Y-123825000D03*
D12*
X61595000Y-123825000D03*
D14*
X69215000Y-118745000D03*
D12*
X71755000Y-123825000D03*
D14*
X24765000Y-26035000D03*
D13*
X28575000Y-28575000D03*
D12*
X23495000Y-28575000D03*
D14*
X31115000Y-23495000D03*
D12*
X33655000Y-28575000D03*
D14*
X215265000Y-45085000D03*
D13*
X219075000Y-47625000D03*
D12*
X213995000Y-47625000D03*
D14*
X221615000Y-42545000D03*
D12*
X224155000Y-47625000D03*
D14*
X117633750Y-26035000D03*
D13*
X121443750Y-28575000D03*
D12*
X116363750Y-28575000D03*
D14*
X123983750Y-23495000D03*
D12*
X126523750Y-28575000D03*
D14*
X186690000Y-26035000D03*
D13*
X190500000Y-28575000D03*
D12*
X185420000Y-28575000D03*
D14*
X193040000Y-23495000D03*
D12*
X195580000Y-28575000D03*
D14*
X86677500Y-102235000D03*
D13*
X90487500Y-104775000D03*
D12*
X85407500Y-104775000D03*
D14*
X93027500Y-99695000D03*
D12*
X95567500Y-104775000D03*
D14*
X24765000Y-121285000D03*
D13*
X28575000Y-123825000D03*
D12*
X23495000Y-123825000D03*
D14*
X31115000Y-118745000D03*
D12*
X33655000Y-123825000D03*
D14*
X272415000Y-26035000D03*
D13*
X276225000Y-28575000D03*
D12*
X271145000Y-28575000D03*
D14*
X278765000Y-23495000D03*
D12*
X281305000Y-28575000D03*
D14*
X43815000Y-45085000D03*
D13*
X47625000Y-47625000D03*
D12*
X42545000Y-47625000D03*
D14*
X50165000Y-42545000D03*
D12*
X52705000Y-47625000D03*
D14*
X172402500Y-83185000D03*
D13*
X176212500Y-85725000D03*
D12*
X171132500Y-85725000D03*
D14*
X178752500Y-80645000D03*
D12*
X181292500Y-85725000D03*
D14*
X291465000Y-26035000D03*
D13*
X295275000Y-28575000D03*
D12*
X290195000Y-28575000D03*
D14*
X297815000Y-23495000D03*
D12*
X300355000Y-28575000D03*
D14*
X79533750Y-26035000D03*
D13*
X83343750Y-28575000D03*
D12*
X78263750Y-28575000D03*
D14*
X85883750Y-23495000D03*
D12*
X88423750Y-28575000D03*
D14*
X234315000Y-45085000D03*
D13*
X238125000Y-47625000D03*
D12*
X233045000Y-47625000D03*
D14*
X240665000Y-42545000D03*
D12*
X243205000Y-47625000D03*
D14*
X53340000Y-64135000D03*
D13*
X57150000Y-66675000D03*
D12*
X52070000Y-66675000D03*
D14*
X59690000Y-61595000D03*
D12*
X62230000Y-66675000D03*
D14*
X243840000Y-64135000D03*
D13*
X247650000Y-66675000D03*
D12*
X242570000Y-66675000D03*
D14*
X250190000Y-61595000D03*
D12*
X252730000Y-66675000D03*
D14*
X229552500Y-83185000D03*
D13*
X233362500Y-85725000D03*
D12*
X228282500Y-85725000D03*
D14*
X235902500Y-80645000D03*
D12*
X238442500Y-85725000D03*
D14*
X60483750Y-26035000D03*
D13*
X64293750Y-28575000D03*
D12*
X59213750Y-28575000D03*
D14*
X66833750Y-23495000D03*
D12*
X69373750Y-28575000D03*
D14*
X200977500Y-102235000D03*
D13*
X204787500Y-104775000D03*
D12*
X199707500Y-104775000D03*
D14*
X207327500Y-99695000D03*
D12*
X209867500Y-104775000D03*
D14*
X253365000Y-26035000D03*
D13*
X257175000Y-28575000D03*
D12*
X252095000Y-28575000D03*
D14*
X259715000Y-23495000D03*
D12*
X262255000Y-28575000D03*
D14*
X105727500Y-102235000D03*
D13*
X109537500Y-104775000D03*
D12*
X104457500Y-104775000D03*
D14*
X112077500Y-99695000D03*
D12*
X114617500Y-104775000D03*
D14*
X24765000Y-45085000D03*
D13*
X28575000Y-47625000D03*
D12*
X23495000Y-47625000D03*
D14*
X31115000Y-42545000D03*
D12*
X33655000Y-47625000D03*
D14*
X262890000Y-64135000D03*
D13*
X266700000Y-66675000D03*
D12*
X261620000Y-66675000D03*
D14*
X269240000Y-61595000D03*
D12*
X271780000Y-66675000D03*
D14*
X148590000Y-64135000D03*
D13*
X152400000Y-66675000D03*
D12*
X147320000Y-66675000D03*
D14*
X154940000Y-61595000D03*
D12*
X157480000Y-66675000D03*
D14*
X91440000Y-64135000D03*
D13*
X95250000Y-66675000D03*
D12*
X90170000Y-66675000D03*
D14*
X97790000Y-61595000D03*
D12*
X100330000Y-66675000D03*
D14*
X239077500Y-102235000D03*
D13*
X242887500Y-104775000D03*
D12*
X237807500Y-104775000D03*
D14*
X245427500Y-99695000D03*
D12*
X247967500Y-104775000D03*
D14*
X110490000Y-64135000D03*
D13*
X114300000Y-66675000D03*
D12*
X109220000Y-66675000D03*
D14*
X116840000Y-61595000D03*
D12*
X119380000Y-66675000D03*
D14*
X220027500Y-102235000D03*
D13*
X223837500Y-104775000D03*
D12*
X218757500Y-104775000D03*
D14*
X226377500Y-99695000D03*
D12*
X228917500Y-104775000D03*
D14*
X148590000Y-26035000D03*
D13*
X152400000Y-28575000D03*
D12*
X147320000Y-28575000D03*
D14*
X154940000Y-23495000D03*
D12*
X157480000Y-28575000D03*
D14*
X272415000Y-121285000D03*
D13*
X276225000Y-123825000D03*
D12*
X271145000Y-123825000D03*
D14*
X278765000Y-118745000D03*
D12*
X281305000Y-123825000D03*
D14*
X62865000Y-45085000D03*
D13*
X66675000Y-47625000D03*
D12*
X61595000Y-47625000D03*
D14*
X69215000Y-42545000D03*
D12*
X71755000Y-47625000D03*
D14*
X98583750Y-26035000D03*
D13*
X102393750Y-28575000D03*
D12*
X97313750Y-28575000D03*
D14*
X104933750Y-23495000D03*
D12*
X107473750Y-28575000D03*
D14*
X253365000Y-121285000D03*
D13*
X257175000Y-123825000D03*
D12*
X252095000Y-123825000D03*
D14*
X259715000Y-118745000D03*
D12*
X262255000Y-123825000D03*
D14*
X162877500Y-102235000D03*
D13*
X166687500Y-104775000D03*
D12*
X161607500Y-104775000D03*
D14*
X169227500Y-99695000D03*
D12*
X171767500Y-104775000D03*
D14*
X120015000Y-45085000D03*
D13*
X123825000Y-47625000D03*
D12*
X118745000Y-47625000D03*
D14*
X126365000Y-42545000D03*
D12*
X128905000Y-47625000D03*
D14*
X43815000Y-121285000D03*
D13*
X47625000Y-123825000D03*
D12*
X42545000Y-123825000D03*
D14*
X50165000Y-118745000D03*
D12*
X52705000Y-123825000D03*
D14*
X100965000Y-45085000D03*
D13*
X104775000Y-47625000D03*
D12*
X99695000Y-47625000D03*
D14*
X107315000Y-42545000D03*
D12*
X109855000Y-47625000D03*
D13*
X35718750Y-85725000D03*
D14*
X38258750Y-80645000D03*
D12*
X40798750Y-85725000D03*
X30638750Y-85725000D03*
D14*
X31908750Y-83185000D03*
D12*
X285432500Y-66675000D03*
X295592500Y-66675000D03*
D14*
X293052500Y-61595000D03*
X286702500Y-64135000D03*
D13*
X290512500Y-66675000D03*
D12*
X28257500Y-66675000D03*
X38417500Y-66675000D03*
D14*
X35877500Y-61595000D03*
X29527500Y-64135000D03*
D13*
X33337500Y-66675000D03*
D15*
X45243750Y-33337500D03*
D16*
X52419250Y-97790000D03*
D17*
X28543250Y-113000000D03*
D16*
X28543250Y-97790000D03*
D17*
X52419250Y-113000000D03*
D16*
X271430750Y-78740000D03*
D17*
X271430750Y-93950000D03*
X295306750Y-93950000D03*
D16*
X295306750Y-78740000D03*
D15*
X21431250Y-66675000D03*
X38100000Y-123825000D03*
X219075000Y-71437500D03*
D17*
X209543750Y-115600000D03*
X109543750Y-115600000D03*
D16*
X109543750Y-130810000D03*
X209543750Y-130810000D03*
D15*
X135731250Y-123825000D03*
X223837500Y-28575000D03*
X104775000Y-71437500D03*
X135731250Y-28575000D03*
X285750000Y-126206250D03*
D17*
X273812000Y-55850000D03*
X297688000Y-55850000D03*
D16*
X273812000Y-40640000D03*
X297688000Y-40640000D03*
D15*
X183356250Y-123825000D03*
D18*
X22575000Y-86450000D03*
D19*
X22575000Y-83910000D03*
X22575000Y-81370000D03*
D15*
X300037500Y-71437500D03*
X285750000Y-30956250D03*
D20*
X42342810Y-22309384D03*
X48142658Y-22309384D03*
D21*
X49567855Y-18609612D03*
D22*
X49567855Y-22809511D03*
D21*
X40917613Y-18609612D03*
D22*
X40917613Y-22809511D03*
M02*
