M48
; DRILL file {KiCad (6.0.1-0)} date Wednesday, June 29, 2022 at 12:55:44 PM
; FORMAT={-:-/ absolute / metric / decimal}
; #@! TF.CreationDate,2022-06-29T12:55:44+09:00
; #@! TF.GenerationSoftware,Kicad,Pcbnew,(6.0.1-0)
; #@! TF.FileFunction,Plated,1,2,PTH
FMAT,2
METRIC
; #@! TA.AperFunction,Plated,PTH,ViaDrill
T1C0.400
; #@! TA.AperFunction,Plated,PTH,ComponentDrill
T2C0.800
; #@! TA.AperFunction,Plated,PTH,ComponentDrill
T3C1.000
%
G90
G05
T1
X22.575Y-79.025
X23.475Y-115.625
X23.575Y-20.325
X23.575Y-39.525
X27.275Y-93.725
X28.475Y-58.525
X28.975Y-93.625
X29.275Y-100.125
X30.575Y-102.025
X30.675Y-108.725
X30.875Y-77.525
X33.275Y-116.125
X33.275Y-121.125
X34.275Y-121.125
X34.275Y-116.125
X35.075Y-96.625
X35.275Y-116.125
X35.275Y-121.125
X35.975Y-95.825
X36.675Y-38.225
X36.675Y-40.525
X36.775Y-94.725
X37.675Y-26.725
X38.775Y-38.225
X38.775Y-40.525
X39.175Y-25.125
X39.712Y-91.577
X40.275Y-25.125
X41.125Y-82.675
X41.275Y-25.125
X41.42Y-87.28
X42.175Y-83.825
X42.375Y-87.925
X42.575Y-39.425
X43.175Y-115.425
X44.075Y-86.625
X44.175Y-83.725
X45.075Y-57.525
X45.075Y-59.825
X45.075Y-76.325
X45.075Y-78.625
X45.175Y-83.725
X45.475Y-97.125
X46.275Y-89.725
X46.275Y-91.925
X46.775Y-102.325
X47.075Y-57.525
X47.075Y-59.825
X47.175Y-76.325
X47.175Y-78.625
X47.275Y-85.025
X47.375Y-90.825
X47.575Y-103.425
X47.975Y-82.425
X48.475Y-89.725
X48.475Y-91.925
X48.675Y-104.625
X48.675Y-105.825
X48.955Y-99.145
X49.675Y-78.525
X49.775Y-93.125
X49.785Y-88.418
X49.975Y-105.825
X50.175Y-26.525
X50.175Y-97.325
X51.175Y-105.825
X51.275Y-23.325
X51.675Y-78.525
X52.275Y-23.325
X52.275Y-104.725
X52.275Y-105.825
X52.775Y-58.525
X52.775Y-86.125
X53.075Y-100.225
X53.275Y-23.325
X53.475Y-103.425
X53.475Y-104.725
X53.575Y-69.325
X54.275Y-100.225
X54.275Y-101.425
X54.275Y-102.625
X54.575Y-91.825
X55.828Y-112.619
X56.275Y-111.725
X56.574Y-110.725
X56.775Y-72.125
X56.974Y-109.732
X57.374Y-108.756
X57.773Y-107.763
X59.175Y-75.425
X59.375Y-94.825
X59.575Y-20.325
X60.575Y-90.525
X61.175Y-88.425
X62.375Y-115.425
X62.575Y-39.425
X65.775Y-70.425
X66.875Y-96.625
X71.775Y-58.525
X76.575Y-77.525
X78.575Y-20.325
X81.575Y-39.425
X84.075Y-115.425
X85.675Y-96.625
X90.675Y-58.525
X95.575Y-77.525
X97.575Y-20.325
X100.575Y-39.425
X104.675Y-96.525
X109.475Y-58.525
X114.675Y-77.525
X115.375Y-101.925
X116.575Y-20.325
X119.475Y-39.425
X123.675Y-96.525
X128.575Y-58.525
X133.575Y-77.525
X134.375Y-101.825
X138.575Y-39.425
X142.675Y-96.625
X145.575Y-20.425
X147.575Y-58.425
X152.675Y-77.525
X155.375Y-115.625
X157.575Y-39.425
X161.775Y-96.625
X166.675Y-58.525
X167.575Y-20.325
X171.575Y-77.525
X172.475Y-101.725
X176.575Y-39.425
X180.775Y-96.625
X185.575Y-58.525
X186.575Y-20.225
X190.675Y-77.525
X191.675Y-101.925
X195.475Y-39.425
X200.675Y-96.525
X204.675Y-58.525
X205.575Y-20.325
X209.675Y-77.525
X210.675Y-101.825
X214.675Y-39.425
X219.675Y-96.625
X223.875Y-58.525
X226.675Y-115.625
X228.675Y-77.625
X229.675Y-101.825
X233.575Y-20.325
X233.575Y-39.425
X238.675Y-96.625
X243.675Y-58.525
X247.675Y-77.525
X252.575Y-20.325
X252.575Y-39.425
X253.475Y-115.625
X262.475Y-58.525
X271.575Y-20.325
X271.975Y-115.625
X272.175Y-96.725
X278.875Y-77.525
X280.975Y-39.425
X285.875Y-58.525
X290.475Y-20.325
X290.575Y-115.625
T3
X22.575Y-81.37
X22.575Y-83.91
X22.575Y-86.45
T2
X40.918Y-18.31G85X40.918Y-18.91
G05
X40.918Y-22.409G85X40.918Y-23.21
G05
X49.568Y-18.31G85X49.568Y-18.91
G05
X49.568Y-22.41G85X49.568Y-23.209
G05
T0
M30
