%TF.GenerationSoftware,KiCad,Pcbnew,(6.0.5-0)*%
%TF.CreationDate,2022-06-28T22:26:50+09:00*%
%TF.ProjectId,key-ripper,6b65792d-7269-4707-9065-722e6b696361,rev?*%
%TF.SameCoordinates,Original*%
%TF.FileFunction,Copper,L2,Bot*%
%TF.FilePolarity,Positive*%
%FSLAX46Y46*%
G04 Gerber Fmt 4.6, Leading zero omitted, Abs format (unit mm)*
G04 Created by KiCad (PCBNEW (6.0.5-0)) date 2022-06-28 22:26:50*
%MOMM*%
%LPD*%
G01*
G04 APERTURE LIST*
G04 Aperture macros list*
%AMRoundRect*
0 Rectangle with rounded corners*
0 $1 Rounding radius*
0 $2 $3 $4 $5 $6 $7 $8 $9 X,Y pos of 4 corners*
0 Add a 4 corners polygon primitive as box body*
4,1,4,$2,$3,$4,$5,$6,$7,$8,$9,$2,$3,0*
0 Add four circle primitives for the rounded corners*
1,1,$1+$1,$2,$3*
1,1,$1+$1,$4,$5*
1,1,$1+$1,$6,$7*
1,1,$1+$1,$8,$9*
0 Add four rect primitives between the rounded corners*
20,1,$1+$1,$2,$3,$4,$5,0*
20,1,$1+$1,$4,$5,$6,$7,0*
20,1,$1+$1,$6,$7,$8,$9,0*
20,1,$1+$1,$8,$9,$2,$3,0*%
G04 Aperture macros list end*
%TA.AperFunction,SMDPad,CuDef*%
%ADD10RoundRect,0.250000X-1.025000X-1.000000X1.025000X-1.000000X1.025000X1.000000X-1.025000X1.000000X0*%
%TD*%
%TA.AperFunction,ComponentPad*%
%ADD11R,1.700000X1.700000*%
%TD*%
%TA.AperFunction,ComponentPad*%
%ADD12O,1.700000X1.700000*%
%TD*%
%TA.AperFunction,SMDPad,CuDef*%
%ADD13R,1.200000X0.900000*%
%TD*%
%TA.AperFunction,SMDPad,CuDef*%
%ADD14RoundRect,0.140000X0.140000X0.170000X-0.140000X0.170000X-0.140000X-0.170000X0.140000X-0.170000X0*%
%TD*%
%TA.AperFunction,SMDPad,CuDef*%
%ADD15RoundRect,0.140000X0.170000X-0.140000X0.170000X0.140000X-0.170000X0.140000X-0.170000X-0.140000X0*%
%TD*%
%TA.AperFunction,SMDPad,CuDef*%
%ADD16RoundRect,0.140000X-0.140000X-0.170000X0.140000X-0.170000X0.140000X0.170000X-0.140000X0.170000X0*%
%TD*%
%TA.AperFunction,SMDPad,CuDef*%
%ADD17RoundRect,0.150000X-0.587500X-0.150000X0.587500X-0.150000X0.587500X0.150000X-0.587500X0.150000X0*%
%TD*%
%TA.AperFunction,SMDPad,CuDef*%
%ADD18RoundRect,0.218750X-0.381250X0.218750X-0.381250X-0.218750X0.381250X-0.218750X0.381250X0.218750X0*%
%TD*%
%TA.AperFunction,SMDPad,CuDef*%
%ADD19RoundRect,0.200000X0.275000X-0.200000X0.275000X0.200000X-0.275000X0.200000X-0.275000X-0.200000X0*%
%TD*%
%TA.AperFunction,SMDPad,CuDef*%
%ADD20RoundRect,0.135000X0.185000X-0.135000X0.185000X0.135000X-0.185000X0.135000X-0.185000X-0.135000X0*%
%TD*%
%TA.AperFunction,ComponentPad*%
%ADD21O,1.200000X1.800000*%
%TD*%
%TA.AperFunction,ComponentPad*%
%ADD22O,1.200000X2.000000*%
%TD*%
%TA.AperFunction,SMDPad,CuDef*%
%ADD23R,0.300000X1.300000*%
%TD*%
%TA.AperFunction,SMDPad,CuDef*%
%ADD24R,0.900000X1.200000*%
%TD*%
%TA.AperFunction,SMDPad,CuDef*%
%ADD25RoundRect,0.243750X0.243750X0.456250X-0.243750X0.456250X-0.243750X-0.456250X0.243750X-0.456250X0*%
%TD*%
%TA.AperFunction,SMDPad,CuDef*%
%ADD26R,1.000000X1.700000*%
%TD*%
%TA.AperFunction,SMDPad,CuDef*%
%ADD27RoundRect,0.140000X-0.170000X0.140000X-0.170000X-0.140000X0.170000X-0.140000X0.170000X0.140000X0*%
%TD*%
%TA.AperFunction,SMDPad,CuDef*%
%ADD28RoundRect,0.135000X-0.185000X0.135000X-0.185000X-0.135000X0.185000X-0.135000X0.185000X0.135000X0*%
%TD*%
%TA.AperFunction,SMDPad,CuDef*%
%ADD29RoundRect,0.135000X-0.135000X-0.185000X0.135000X-0.185000X0.135000X0.185000X-0.135000X0.185000X0*%
%TD*%
%TA.AperFunction,SMDPad,CuDef*%
%ADD30RoundRect,0.135000X0.135000X0.185000X-0.135000X0.185000X-0.135000X-0.185000X0.135000X-0.185000X0*%
%TD*%
%TA.AperFunction,SMDPad,CuDef*%
%ADD31RoundRect,0.243750X-0.456250X0.243750X-0.456250X-0.243750X0.456250X-0.243750X0.456250X0.243750X0*%
%TD*%
%TA.AperFunction,SMDPad,CuDef*%
%ADD32R,1.200000X1.400000*%
%TD*%
%TA.AperFunction,SMDPad,CuDef*%
%ADD33R,1.100000X0.200000*%
%TD*%
%TA.AperFunction,SMDPad,CuDef*%
%ADD34R,0.200000X1.100000*%
%TD*%
%TA.AperFunction,SMDPad,CuDef*%
%ADD35R,3.100000X3.100000*%
%TD*%
%TA.AperFunction,SMDPad,CuDef*%
%ADD36R,1.700000X1.000000*%
%TD*%
%TA.AperFunction,SMDPad,CuDef*%
%ADD37RoundRect,0.150000X0.150000X-0.650000X0.150000X0.650000X-0.150000X0.650000X-0.150000X-0.650000X0*%
%TD*%
%TA.AperFunction,ViaPad*%
%ADD38C,0.800000*%
%TD*%
%TA.AperFunction,Conductor*%
%ADD39C,0.200000*%
%TD*%
%TA.AperFunction,Conductor*%
%ADD40C,0.500000*%
%TD*%
%TA.AperFunction,Conductor*%
%ADD41C,0.400000*%
%TD*%
%TA.AperFunction,Conductor*%
%ADD42C,0.300000*%
%TD*%
%TA.AperFunction,Conductor*%
%ADD43C,1.000000*%
%TD*%
G04 APERTURE END LIST*
D10*
%TO.P,SW68,1,1*%
%TO.N,Net-(D68-Pad2)*%
X11965000Y-73660000D03*
%TO.P,SW68,2,2*%
%TO.N,CLM1*%
X24892000Y-71120000D03*
%TD*%
%TO.P,SW71,1,1*%
%TO.N,Net-(D71-Pad2)*%
X123883750Y-73660000D03*
%TO.P,SW71,2,2*%
%TO.N,CLM6*%
X136810750Y-71120000D03*
%TD*%
%TO.P,SW19,1,1*%
%TO.N,Net-(D19-Pad2)*%
X88165000Y2540000D03*
%TO.P,SW19,2,2*%
%TO.N,CLM5*%
X101092000Y5080000D03*
%TD*%
%TO.P,SW61,1,1*%
%TO.N,Net-(D61-Pad2)*%
X131027500Y-54610000D03*
%TO.P,SW61,2,2*%
%TO.N,CLM7*%
X143954500Y-52070000D03*
%TD*%
%TO.P,SW73,1,1*%
%TO.N,Net-(D73-Pad2)*%
X221515000Y-73660000D03*
%TO.P,SW73,2,2*%
%TO.N,CLM11*%
X234442000Y-71120000D03*
%TD*%
%TO.P,SW4,1,1*%
%TO.N,Net-(D4-Pad2)*%
X66733750Y21590000D03*
%TO.P,SW4,2,2*%
%TO.N,CLM3*%
X79660750Y24130000D03*
%TD*%
%TO.P,SW16,1,1*%
%TO.N,Net-(D16-Pad2)*%
X31015000Y2540000D03*
%TO.P,SW16,2,2*%
%TO.N,CLM2*%
X43942000Y5080000D03*
%TD*%
%TO.P,SW74,1,1*%
%TO.N,Net-(D74-Pad2)*%
X240565000Y-73660000D03*
%TO.P,SW74,2,2*%
%TO.N,CLM12*%
X253492000Y-71120000D03*
%TD*%
%TO.P,SW6,1,1*%
%TO.N,Net-(D6-Pad2)*%
X114358750Y21590000D03*
%TO.P,SW6,2,2*%
%TO.N,CLM5*%
X127285750Y24130000D03*
%TD*%
%TO.P,SW64,1,1*%
%TO.N,Net-(D64-Pad2)*%
X188177500Y-54610000D03*
%TO.P,SW64,2,2*%
%TO.N,CLM10*%
X201104500Y-52070000D03*
%TD*%
%TO.P,SW32,1,1*%
%TO.N,Net-(D32-Pad2)*%
X78640000Y-16510000D03*
%TO.P,SW32,2,2*%
%TO.N,CLM4*%
X91567000Y-13970000D03*
%TD*%
%TO.P,SW65,1,1*%
%TO.N,Net-(D65-Pad2)*%
X207227500Y-54610000D03*
%TO.P,SW65,2,2*%
%TO.N,CLM11*%
X220154500Y-52070000D03*
%TD*%
%TO.P,SW31,1,1*%
%TO.N,Net-(D31-Pad2)*%
X59590000Y-16510000D03*
%TO.P,SW31,2,2*%
%TO.N,CLM3*%
X72517000Y-13970000D03*
%TD*%
%TO.P,SW42,1,1*%
%TO.N,Net-(D42-Pad2)*%
X58750Y-35560000D03*
%TO.P,SW42,2,2*%
%TO.N,CLM0*%
X12985750Y-33020000D03*
%TD*%
%TO.P,SW27,1,1*%
%TO.N,Net-(D27-Pad2)*%
X250090000Y2540000D03*
%TO.P,SW27,2,2*%
%TO.N,CLM13*%
X263017000Y5080000D03*
%TD*%
%TO.P,SW34,1,1*%
%TO.N,Net-(D34-Pad2)*%
X116740000Y-16510000D03*
%TO.P,SW34,2,2*%
%TO.N,CLM6*%
X129667000Y-13970000D03*
%TD*%
%TO.P,SW40,1,1*%
%TO.N,Net-(D40-Pad2)*%
X231040000Y-16510000D03*
%TO.P,SW40,2,2*%
%TO.N,CLM12*%
X243967000Y-13970000D03*
%TD*%
%TO.P,SW18,1,1*%
%TO.N,Net-(D18-Pad2)*%
X69115000Y2540000D03*
%TO.P,SW18,2,2*%
%TO.N,CLM4*%
X82042000Y5080000D03*
%TD*%
%TO.P,SW14,1,1*%
%TO.N,Net-(D14-Pad2)*%
X-7085000Y2540000D03*
%TO.P,SW14,2,2*%
%TO.N,CLM0*%
X5842000Y5080000D03*
%TD*%
%TO.P,SW58,1,1*%
%TO.N,Net-(D58-Pad2)*%
X73877500Y-54610000D03*
%TO.P,SW58,2,2*%
%TO.N,CLM4*%
X86804500Y-52070000D03*
%TD*%
%TO.P,SW11,1,1*%
%TO.N,Net-(D11-Pad2)*%
X221515000Y21590000D03*
%TO.P,SW11,2,2*%
%TO.N,CLM11*%
X234442000Y24130000D03*
%TD*%
%TO.P,SW28,1,1*%
%TO.N,Net-(D28-Pad2)*%
X-2322500Y-16510000D03*
%TO.P,SW28,2,2*%
%TO.N,CLM0*%
X10604500Y-13970000D03*
%TD*%
%TO.P,SW63,1,1*%
%TO.N,Net-(D63-Pad2)*%
X169127500Y-54610000D03*
%TO.P,SW63,2,2*%
%TO.N,CLM9*%
X182054500Y-52070000D03*
%TD*%
%TO.P,SW72,1,1*%
%TO.N,Net-(D72-Pad2)*%
X195321250Y-73660000D03*
%TO.P,SW72,2,2*%
%TO.N,CLM10*%
X208248250Y-71120000D03*
%TD*%
%TO.P,SW2,1,1*%
%TO.N,Net-(D2-Pad2)*%
X28633750Y21590000D03*
%TO.P,SW2,2,2*%
%TO.N,CLM1*%
X41560750Y24130000D03*
%TD*%
%TO.P,SW52,1,1*%
%TO.N,Net-(D52-Pad2)*%
X197702500Y-35560000D03*
%TO.P,SW52,2,2*%
%TO.N,CLM10*%
X210629500Y-33020000D03*
%TD*%
%TO.P,SW39,1,1*%
%TO.N,Net-(D39-Pad2)*%
X211990000Y-16510000D03*
%TO.P,SW39,2,2*%
%TO.N,CLM11*%
X224917000Y-13970000D03*
%TD*%
%TO.P,SW29,1,1*%
%TO.N,Net-(D29-Pad2)*%
X21490000Y-16510000D03*
%TO.P,SW29,2,2*%
%TO.N,CLM1*%
X34417000Y-13970000D03*
%TD*%
%TO.P,SW25,1,1*%
%TO.N,Net-(D25-Pad2)*%
X202465000Y2540000D03*
%TO.P,SW25,2,2*%
%TO.N,CLM11*%
X215392000Y5080000D03*
%TD*%
%TO.P,SW3,1,1*%
%TO.N,Net-(D3-Pad2)*%
X47683750Y21590000D03*
%TO.P,SW3,2,2*%
%TO.N,CLM2*%
X60610750Y24130000D03*
%TD*%
%TO.P,SW13,1,1*%
%TO.N,Net-(D13-Pad2)*%
X259615000Y21590000D03*
%TO.P,SW13,2,2*%
%TO.N,CLM13*%
X272542000Y24130000D03*
%TD*%
%TO.P,SW49,1,1*%
%TO.N,Net-(D49-Pad2)*%
X140552500Y-35560000D03*
%TO.P,SW49,2,2*%
%TO.N,CLM7*%
X153479500Y-33020000D03*
%TD*%
%TO.P,SW15,1,1*%
%TO.N,Net-(D15-Pad2)*%
X11965000Y2540000D03*
%TO.P,SW15,2,2*%
%TO.N,CLM1*%
X24892000Y5080000D03*
%TD*%
%TO.P,SW12,1,1*%
%TO.N,Net-(D12-Pad2)*%
X240565000Y21590000D03*
%TO.P,SW12,2,2*%
%TO.N,CLM12*%
X253492000Y24130000D03*
%TD*%
%TO.P,SW67,1,1*%
%TO.N,Net-(D67-Pad2)*%
X-7085000Y-73660000D03*
%TO.P,SW67,2,2*%
%TO.N,CLM0*%
X5842000Y-71120000D03*
%TD*%
%TO.P,SW57,1,1*%
%TO.N,Net-(D57-Pad2)*%
X54827500Y-54610000D03*
%TO.P,SW57,2,2*%
%TO.N,CLM3*%
X67754500Y-52070000D03*
%TD*%
%TO.P,SW8,1,1*%
%TO.N,Net-(D8-Pad2)*%
X154840000Y21590000D03*
%TO.P,SW8,2,2*%
%TO.N,CLM8*%
X167767000Y24130000D03*
%TD*%
%TO.P,SW5,1,1*%
%TO.N,Net-(D5-Pad2)*%
X85783750Y21590000D03*
%TO.P,SW5,2,2*%
%TO.N,CLM4*%
X98710750Y24130000D03*
%TD*%
%TO.P,SW41,1,1*%
%TO.N,Net-(D41-Pad2)*%
X254852500Y-16510000D03*
%TO.P,SW41,2,2*%
%TO.N,CLM13*%
X267779500Y-13970000D03*
%TD*%
%TO.P,SW24,1,1*%
%TO.N,Net-(D24-Pad2)*%
X183415000Y2540000D03*
%TO.P,SW24,2,2*%
%TO.N,CLM10*%
X196342000Y5080000D03*
%TD*%
%TO.P,SW1,1,1*%
%TO.N,Net-(D1-Pad2)*%
X-7085000Y21590000D03*
%TO.P,SW1,2,2*%
%TO.N,CLM0*%
X5842000Y24130000D03*
%TD*%
%TO.P,SW69,1,1*%
%TO.N,Net-(D69-Pad2)*%
X31015000Y-73660000D03*
%TO.P,SW69,2,2*%
%TO.N,CLM2*%
X43942000Y-71120000D03*
%TD*%
%TO.P,SW9,1,1*%
%TO.N,Net-(D9-Pad2)*%
X173890000Y21590000D03*
%TO.P,SW9,2,2*%
%TO.N,CLM9*%
X186817000Y24130000D03*
%TD*%
%TO.P,SW54,1,1*%
%TO.N,Net-(D54-Pad2)*%
X247708750Y-35560000D03*
%TO.P,SW54,2,2*%
%TO.N,CLM12*%
X260635750Y-33020000D03*
%TD*%
%TO.P,SW47,1,1*%
%TO.N,Net-(D47-Pad2)*%
X102452500Y-35560000D03*
%TO.P,SW47,2,2*%
%TO.N,CLM5*%
X115379500Y-33020000D03*
%TD*%
%TO.P,SW51,1,1*%
%TO.N,Net-(D51-Pad2)*%
X178652500Y-35560000D03*
%TO.P,SW51,2,2*%
%TO.N,CLM9*%
X191579500Y-33020000D03*
%TD*%
%TO.P,SW56,1,1*%
%TO.N,Net-(D56-Pad2)*%
X35777500Y-54610000D03*
%TO.P,SW56,2,2*%
%TO.N,CLM2*%
X48704500Y-52070000D03*
%TD*%
%TO.P,SW75,1,1*%
%TO.N,Net-(D75-Pad2)*%
X259615000Y-73660000D03*
%TO.P,SW75,2,2*%
%TO.N,CLM13*%
X272542000Y-71120000D03*
%TD*%
%TO.P,SW26,1,1*%
%TO.N,Net-(D26-Pad2)*%
X221515000Y2540000D03*
%TO.P,SW26,2,2*%
%TO.N,CLM12*%
X234442000Y5080000D03*
%TD*%
%TO.P,SW22,1,1*%
%TO.N,Net-(D22-Pad2)*%
X145315000Y2540000D03*
%TO.P,SW22,2,2*%
%TO.N,CLM8*%
X158242000Y5080000D03*
%TD*%
%TO.P,SW30,1,1*%
%TO.N,Net-(D30-Pad2)*%
X40540000Y-16510000D03*
%TO.P,SW30,2,2*%
%TO.N,CLM2*%
X53467000Y-13970000D03*
%TD*%
%TO.P,SW35,1,1*%
%TO.N,Net-(D35-Pad2)*%
X135790000Y-16510000D03*
%TO.P,SW35,2,2*%
%TO.N,CLM7*%
X148717000Y-13970000D03*
%TD*%
%TO.P,SW59,1,1*%
%TO.N,Net-(D59-Pad2)*%
X92927500Y-54610000D03*
%TO.P,SW59,2,2*%
%TO.N,CLM5*%
X105854500Y-52070000D03*
%TD*%
%TO.P,SW43,1,1*%
%TO.N,Net-(D43-Pad2)*%
X26252500Y-35560000D03*
%TO.P,SW43,2,2*%
%TO.N,CLM1*%
X39179500Y-33020000D03*
%TD*%
%TO.P,SW37,1,1*%
%TO.N,Net-(D37-Pad2)*%
X173890000Y-16510000D03*
%TO.P,SW37,2,2*%
%TO.N,CLM9*%
X186817000Y-13970000D03*
%TD*%
%TO.P,SW50,1,1*%
%TO.N,Net-(D50-Pad2)*%
X159602500Y-35560000D03*
%TO.P,SW50,2,2*%
%TO.N,CLM8*%
X172529500Y-33020000D03*
%TD*%
%TO.P,SW46,1,1*%
%TO.N,Net-(D46-Pad2)*%
X83402500Y-35560000D03*
%TO.P,SW46,2,2*%
%TO.N,CLM4*%
X96329500Y-33020000D03*
%TD*%
D11*
%TO.P,J1,1,Pin_1*%
%TO.N,SWD*%
X-6000000Y-38825000D03*
D12*
%TO.P,J1,2,Pin_2*%
%TO.N,SWCLK*%
X-6000000Y-36285000D03*
%TO.P,J1,3,Pin_3*%
%TO.N,GND*%
X-6000000Y-33745000D03*
%TD*%
D10*
%TO.P,SW7,1,1*%
%TO.N,Net-(D7-Pad2)*%
X135790000Y21590000D03*
%TO.P,SW7,2,2*%
%TO.N,CLM7*%
X148717000Y24130000D03*
%TD*%
%TO.P,SW21,1,1*%
%TO.N,Net-(D21-Pad2)*%
X126265000Y2540000D03*
%TO.P,SW21,2,2*%
%TO.N,CLM7*%
X139192000Y5080000D03*
%TD*%
%TO.P,SW33,1,1*%
%TO.N,Net-(D33-Pad2)*%
X97690000Y-16510000D03*
%TO.P,SW33,2,2*%
%TO.N,CLM5*%
X110617000Y-13970000D03*
%TD*%
%TO.P,SW70,1,1*%
%TO.N,Net-(D70-Pad2)*%
X52446250Y-73660000D03*
%TO.P,SW70,2,2*%
%TO.N,CLM3*%
X65373250Y-71120000D03*
%TD*%
%TO.P,SW48,1,1*%
%TO.N,Net-(D48-Pad2)*%
X121502500Y-35560000D03*
%TO.P,SW48,2,2*%
%TO.N,CLM6*%
X134429500Y-33020000D03*
%TD*%
%TO.P,SW10,1,1*%
%TO.N,Net-(D10-Pad2)*%
X202465000Y21590000D03*
%TO.P,SW10,2,2*%
%TO.N,CLM10*%
X215392000Y24130000D03*
%TD*%
%TO.P,SW36,1,1*%
%TO.N,Net-(D36-Pad2)*%
X154840000Y-16510000D03*
%TO.P,SW36,2,2*%
%TO.N,CLM8*%
X167767000Y-13970000D03*
%TD*%
%TO.P,SW20,1,1*%
%TO.N,Net-(D20-Pad2)*%
X107215000Y2540000D03*
%TO.P,SW20,2,2*%
%TO.N,CLM6*%
X120142000Y5080000D03*
%TD*%
%TO.P,SW62,1,1*%
%TO.N,Net-(D62-Pad2)*%
X150077500Y-54610000D03*
%TO.P,SW62,2,2*%
%TO.N,CLM8*%
X163004500Y-52070000D03*
%TD*%
%TO.P,SW23,1,1*%
%TO.N,Net-(D23-Pad2)*%
X164365000Y2540000D03*
%TO.P,SW23,2,2*%
%TO.N,CLM9*%
X177292000Y5080000D03*
%TD*%
%TO.P,SW66,1,1*%
%TO.N,Net-(D66-Pad2)*%
X240565000Y-54610000D03*
%TO.P,SW66,2,2*%
%TO.N,CLM12*%
X253492000Y-52070000D03*
%TD*%
%TO.P,SW53,1,1*%
%TO.N,Net-(D53-Pad2)*%
X216752500Y-35560000D03*
%TO.P,SW53,2,2*%
%TO.N,CLM11*%
X229679500Y-33020000D03*
%TD*%
%TO.P,SW55,1,1*%
%TO.N,Net-(D55-Pad2)*%
X4821250Y-54610000D03*
%TO.P,SW55,2,2*%
%TO.N,CLM0*%
X17748250Y-52070000D03*
%TD*%
%TO.P,SW17,1,1*%
%TO.N,Net-(D17-Pad2)*%
X50065000Y2540000D03*
%TO.P,SW17,2,2*%
%TO.N,CLM3*%
X62992000Y5080000D03*
%TD*%
%TO.P,SW38,1,1*%
%TO.N,Net-(D38-Pad2)*%
X192940000Y-16510000D03*
%TO.P,SW38,2,2*%
%TO.N,CLM10*%
X205867000Y-13970000D03*
%TD*%
%TO.P,SW45,1,1*%
%TO.N,Net-(D45-Pad2)*%
X64352500Y-35560000D03*
%TO.P,SW45,2,2*%
%TO.N,CLM3*%
X77279500Y-33020000D03*
%TD*%
%TO.P,SW44,1,1*%
%TO.N,Net-(D44-Pad2)*%
X45302500Y-35560000D03*
%TO.P,SW44,2,2*%
%TO.N,CLM2*%
X58229500Y-33020000D03*
%TD*%
%TO.P,SW60,1,1*%
%TO.N,Net-(D60-Pad2)*%
X111977500Y-54610000D03*
%TO.P,SW60,2,2*%
%TO.N,CLM6*%
X124904500Y-52070000D03*
%TD*%
D13*
%TO.P,D52,1,K*%
%TO.N,ROW3*%
X197287500Y-29900000D03*
%TO.P,D52,2,A*%
%TO.N,Net-(D52-Pad2)*%
X197287500Y-33200000D03*
%TD*%
%TO.P,D37,1,K*%
%TO.N,ROW2*%
X173475000Y-10850000D03*
%TO.P,D37,2,A*%
%TO.N,Net-(D37-Pad2)*%
X173475000Y-14150000D03*
%TD*%
D14*
%TO.P,C9,1*%
%TO.N,+3V3*%
X14680000Y-38300000D03*
%TO.P,C9,2*%
%TO.N,GND*%
X13720000Y-38300000D03*
%TD*%
D13*
%TO.P,D47,1,K*%
%TO.N,ROW3*%
X102037500Y-29900000D03*
%TO.P,D47,2,A*%
%TO.N,Net-(D47-Pad2)*%
X102037500Y-33200000D03*
%TD*%
D15*
%TO.P,C2,1*%
%TO.N,+1V1*%
X16650000Y-38000000D03*
%TO.P,C2,2*%
%TO.N,GND*%
X16650000Y-37040000D03*
%TD*%
D13*
%TO.P,D10,1,K*%
%TO.N,ROW0*%
X202050000Y27250000D03*
%TO.P,D10,2,A*%
%TO.N,Net-(D10-Pad2)*%
X202050000Y23950000D03*
%TD*%
%TO.P,D7,1,K*%
%TO.N,ROW0*%
X135375000Y27250000D03*
%TO.P,D7,2,A*%
%TO.N,Net-(D7-Pad2)*%
X135375000Y23950000D03*
%TD*%
%TO.P,D1,1,K*%
%TO.N,ROW0*%
X-7500000Y27250000D03*
%TO.P,D1,2,A*%
%TO.N,Net-(D1-Pad2)*%
X-7500000Y23950000D03*
%TD*%
%TO.P,D30,1,K*%
%TO.N,ROW2*%
X40125000Y-10850000D03*
%TO.P,D30,2,A*%
%TO.N,Net-(D30-Pad2)*%
X40125000Y-14150000D03*
%TD*%
D14*
%TO.P,C1,1*%
%TO.N,+3V3*%
X14660000Y-37300000D03*
%TO.P,C1,2*%
%TO.N,GND*%
X13700000Y-37300000D03*
%TD*%
D13*
%TO.P,D46,1,K*%
%TO.N,ROW3*%
X82987500Y-29900000D03*
%TO.P,D46,2,A*%
%TO.N,Net-(D46-Pad2)*%
X82987500Y-33200000D03*
%TD*%
%TO.P,D31,1,K*%
%TO.N,ROW2*%
X59175000Y-10850000D03*
%TO.P,D31,2,A*%
%TO.N,Net-(D31-Pad2)*%
X59175000Y-14150000D03*
%TD*%
%TO.P,D12,1,K*%
%TO.N,ROW0*%
X240150000Y27250000D03*
%TO.P,D12,2,A*%
%TO.N,Net-(D12-Pad2)*%
X240150000Y23950000D03*
%TD*%
D16*
%TO.P,C18,1*%
%TO.N,RUN*%
X-1380000Y-52500000D03*
%TO.P,C18,2*%
%TO.N,GND*%
X-420000Y-52500000D03*
%TD*%
D13*
%TO.P,D32,1,K*%
%TO.N,ROW2*%
X78225000Y-10850000D03*
%TO.P,D32,2,A*%
%TO.N,Net-(D32-Pad2)*%
X78225000Y-14150000D03*
%TD*%
%TO.P,D11,1,K*%
%TO.N,ROW0*%
X221100000Y27250000D03*
%TO.P,D11,2,A*%
%TO.N,Net-(D11-Pad2)*%
X221100000Y23950000D03*
%TD*%
%TO.P,D20,1,K*%
%TO.N,ROW1*%
X106800000Y8200000D03*
%TO.P,D20,2,A*%
%TO.N,Net-(D20-Pad2)*%
X106800000Y4900000D03*
%TD*%
D17*
%TO.P,U3,1,GND*%
%TO.N,GND*%
X29262500Y-47050000D03*
%TO.P,U3,2,VO*%
%TO.N,+3V3*%
X29262500Y-45150000D03*
%TO.P,U3,3,VI*%
%TO.N,+5V*%
X31137500Y-46100000D03*
%TD*%
D18*
%TO.P,FB1,1*%
%TO.N,Net-(F1-Pad2)*%
X33137500Y-44037500D03*
%TO.P,FB1,2*%
%TO.N,+5V*%
X33137500Y-46162500D03*
%TD*%
D13*
%TO.P,D9,1,K*%
%TO.N,ROW0*%
X173475000Y27250000D03*
%TO.P,D9,2,A*%
%TO.N,Net-(D9-Pad2)*%
X173475000Y23950000D03*
%TD*%
%TO.P,D49,1,K*%
%TO.N,ROW3*%
X140137500Y-29900000D03*
%TO.P,D49,2,A*%
%TO.N,Net-(D49-Pad2)*%
X140137500Y-33200000D03*
%TD*%
%TO.P,D48,1,K*%
%TO.N,ROW3*%
X121087500Y-29900000D03*
%TO.P,D48,2,A*%
%TO.N,Net-(D48-Pad2)*%
X121087500Y-33200000D03*
%TD*%
%TO.P,D76,1,K*%
%TO.N,Net-(D76-Pad1)*%
X23100000Y19300000D03*
%TO.P,D76,2,A*%
%TO.N,VBUS*%
X23100000Y22600000D03*
%TD*%
%TO.P,D4,1,K*%
%TO.N,ROW0*%
X66318750Y27250000D03*
%TO.P,D4,2,A*%
%TO.N,Net-(D4-Pad2)*%
X66318750Y23950000D03*
%TD*%
%TO.P,D66,1,K*%
%TO.N,ROW4*%
X240150000Y-48950000D03*
%TO.P,D66,2,A*%
%TO.N,Net-(D66-Pad2)*%
X240150000Y-52250000D03*
%TD*%
D19*
%TO.P,R1,1*%
%TO.N,USB_MCU+*%
X18200000Y-34250000D03*
%TO.P,R1,2*%
%TO.N,USB+*%
X18200000Y-32600000D03*
%TD*%
D20*
%TO.P,R8,1*%
%TO.N,RUN*%
X-2500000Y-49310000D03*
%TO.P,R8,2*%
%TO.N,+3V3*%
X-2500000Y-48290000D03*
%TD*%
D13*
%TO.P,D5,1,K*%
%TO.N,ROW0*%
X85368750Y27250000D03*
%TO.P,D5,2,A*%
%TO.N,Net-(D5-Pad2)*%
X85368750Y23950000D03*
%TD*%
D20*
%TO.P,R9,1*%
%TO.N,+3V3*%
X29050000Y-43860000D03*
%TO.P,R9,2*%
%TO.N,Net-(D77-Pad2)*%
X29050000Y-42840000D03*
%TD*%
D21*
%TO.P,U2,0,0*%
%TO.N,unconnected-(U2-Pad0)*%
X20992855Y29015388D03*
D22*
X20992855Y24815489D03*
D21*
X12342613Y29015388D03*
D22*
X12342613Y24815489D03*
D23*
%TO.P,U2,A1,GND*%
%TO.N,GND*%
X13317721Y24047163D03*
%TO.P,U2,A4,VBUS*%
%TO.N,VBUS*%
X14117823Y24047163D03*
%TO.P,U2,A5,CC1*%
%TO.N,CC1*%
X15417797Y24047163D03*
%TO.P,U2,A6,DP1*%
%TO.N,USB+*%
X16417797Y24047163D03*
%TO.P,U2,A7,DN1*%
%TO.N,USB-*%
X16917670Y24047163D03*
%TO.P,U2,A8,SBU1*%
%TO.N,unconnected-(U2-PadA8)*%
X17917416Y24047163D03*
%TO.P,U2,A9,VBUS*%
%TO.N,VBUS*%
X19217899Y24047163D03*
%TO.P,U2,A12,GND*%
%TO.N,GND*%
X20017747Y24047163D03*
%TO.P,U2,B1,GND*%
X19717772Y24047163D03*
%TO.P,U2,B4,VBUS*%
%TO.N,VBUS*%
X18917670Y24047163D03*
%TO.P,U2,B5,CC2*%
%TO.N,CC2*%
X18417797Y24047163D03*
%TO.P,U2,B6,DP2*%
%TO.N,USB+*%
X17417797Y24047163D03*
%TO.P,U2,B7,DN2*%
%TO.N,USB-*%
X15917670Y24047163D03*
%TO.P,U2,B8,SBU2*%
%TO.N,unconnected-(U2-PadB8)*%
X14917670Y24047163D03*
%TO.P,U2,B9,VBUS*%
%TO.N,VBUS*%
X14417797Y24047163D03*
%TO.P,U2,B12,GND*%
%TO.N,GND*%
X13617696Y24047163D03*
%TD*%
D24*
%TO.P,D43,1,K*%
%TO.N,ROW3*%
X30050000Y-29600000D03*
%TO.P,D43,2,A*%
%TO.N,Net-(D43-Pad2)*%
X26750000Y-29600000D03*
%TD*%
D13*
%TO.P,D22,1,K*%
%TO.N,ROW1*%
X144900000Y8200000D03*
%TO.P,D22,2,A*%
%TO.N,Net-(D22-Pad2)*%
X144900000Y4900000D03*
%TD*%
D25*
%TO.P,D77,1,K*%
%TO.N,GND*%
X30912500Y-41350000D03*
%TO.P,D77,2,A*%
%TO.N,Net-(D77-Pad2)*%
X29037500Y-41350000D03*
%TD*%
D13*
%TO.P,D3,1,K*%
%TO.N,ROW0*%
X47268750Y27250000D03*
%TO.P,D3,2,A*%
%TO.N,Net-(D3-Pad2)*%
X47268750Y23950000D03*
%TD*%
%TO.P,D8,1,K*%
%TO.N,ROW0*%
X154425000Y27250000D03*
%TO.P,D8,2,A*%
%TO.N,Net-(D8-Pad2)*%
X154425000Y23950000D03*
%TD*%
%TO.P,D13,1,K*%
%TO.N,ROW0*%
X259200000Y27250000D03*
%TO.P,D13,2,A*%
%TO.N,Net-(D13-Pad2)*%
X259200000Y23950000D03*
%TD*%
D26*
%TO.P,U6,1,A*%
%TO.N,GND*%
X749124Y-60799975D03*
%TO.P,U6,2,B*%
X750394Y-54200025D03*
%TO.P,U6,3,C*%
%TO.N,RUN*%
X-2950394Y-60799975D03*
%TO.P,U6,4,D*%
X-2950394Y-54200025D03*
%TD*%
D13*
%TO.P,D29,1,K*%
%TO.N,ROW2*%
X21075000Y-10850000D03*
%TO.P,D29,2,A*%
%TO.N,Net-(D29-Pad2)*%
X21075000Y-14150000D03*
%TD*%
%TO.P,D45,1,K*%
%TO.N,ROW3*%
X63937500Y-29900000D03*
%TO.P,D45,2,A*%
%TO.N,Net-(D45-Pad2)*%
X63937500Y-33200000D03*
%TD*%
%TO.P,D54,1,K*%
%TO.N,ROW3*%
X247293750Y-29900000D03*
%TO.P,D54,2,A*%
%TO.N,Net-(D54-Pad2)*%
X247293750Y-33200000D03*
%TD*%
%TO.P,D74,1,K*%
%TO.N,ROW5*%
X240150000Y-68000000D03*
%TO.P,D74,2,A*%
%TO.N,Net-(D74-Pad2)*%
X240150000Y-71300000D03*
%TD*%
%TO.P,D51,1,K*%
%TO.N,ROW3*%
X178237500Y-29900000D03*
%TO.P,D51,2,A*%
%TO.N,Net-(D51-Pad2)*%
X178237500Y-33200000D03*
%TD*%
%TO.P,D63,1,K*%
%TO.N,ROW4*%
X168712500Y-48950000D03*
%TO.P,D63,2,A*%
%TO.N,Net-(D63-Pad2)*%
X168712500Y-52250000D03*
%TD*%
%TO.P,D57,1,K*%
%TO.N,ROW4*%
X54412500Y-48950000D03*
%TO.P,D57,2,A*%
%TO.N,Net-(D57-Pad2)*%
X54412500Y-52250000D03*
%TD*%
D16*
%TO.P,C12,1*%
%TO.N,+3V3*%
X24040000Y-44180000D03*
%TO.P,C12,2*%
%TO.N,GND*%
X25000000Y-44180000D03*
%TD*%
D20*
%TO.P,R3,1*%
%TO.N,OSC_IN*%
X19600000Y-54820000D03*
%TO.P,R3,2*%
%TO.N,XOUT_MCU*%
X19600000Y-53800000D03*
%TD*%
D13*
%TO.P,D56,1,K*%
%TO.N,ROW4*%
X35362500Y-48950000D03*
%TO.P,D56,2,A*%
%TO.N,Net-(D56-Pad2)*%
X35362500Y-52250000D03*
%TD*%
%TO.P,D25,1,K*%
%TO.N,ROW1*%
X202050000Y8200000D03*
%TO.P,D25,2,A*%
%TO.N,Net-(D25-Pad2)*%
X202050000Y4900000D03*
%TD*%
D27*
%TO.P,C11,1*%
%TO.N,+3V3*%
X18800000Y-49200000D03*
%TO.P,C11,2*%
%TO.N,GND*%
X18800000Y-50160000D03*
%TD*%
D13*
%TO.P,D14,1,K*%
%TO.N,ROW1*%
X-7500000Y8200000D03*
%TO.P,D14,2,A*%
%TO.N,Net-(D14-Pad2)*%
X-7500000Y4900000D03*
%TD*%
%TO.P,D35,1,K*%
%TO.N,ROW2*%
X135375000Y-10850000D03*
%TO.P,D35,2,A*%
%TO.N,Net-(D35-Pad2)*%
X135375000Y-14150000D03*
%TD*%
%TO.P,D72,1,K*%
%TO.N,ROW5*%
X194906250Y-68000000D03*
%TO.P,D72,2,A*%
%TO.N,Net-(D72-Pad2)*%
X194906250Y-71300000D03*
%TD*%
D28*
%TO.P,R4,1*%
%TO.N,+3V3*%
X26500000Y-25380000D03*
%TO.P,R4,2*%
%TO.N,QSPI_SS*%
X26500000Y-26400000D03*
%TD*%
D13*
%TO.P,D15,1,K*%
%TO.N,ROW1*%
X11550000Y8200000D03*
%TO.P,D15,2,A*%
%TO.N,Net-(D15-Pad2)*%
X11550000Y4900000D03*
%TD*%
D29*
%TO.P,R5,1*%
%TO.N,QSPI_SS*%
X26490000Y-27800000D03*
%TO.P,R5,2*%
%TO.N,Net-(R5-Pad2)*%
X27510000Y-27800000D03*
%TD*%
D13*
%TO.P,D68,1,K*%
%TO.N,ROW5*%
X11550000Y-68000000D03*
%TO.P,D68,2,A*%
%TO.N,Net-(D68-Pad2)*%
X11550000Y-71300000D03*
%TD*%
D29*
%TO.P,R6,1*%
%TO.N,CC2*%
X18990000Y21100000D03*
%TO.P,R6,2*%
%TO.N,GND*%
X20010000Y21100000D03*
%TD*%
D13*
%TO.P,D62,1,K*%
%TO.N,ROW4*%
X149662500Y-48950000D03*
%TO.P,D62,2,A*%
%TO.N,Net-(D62-Pad2)*%
X149662500Y-52250000D03*
%TD*%
%TO.P,D60,1,K*%
%TO.N,ROW4*%
X111562500Y-48950000D03*
%TO.P,D60,2,A*%
%TO.N,Net-(D60-Pad2)*%
X111562500Y-52250000D03*
%TD*%
%TO.P,D39,1,K*%
%TO.N,ROW2*%
X211575000Y-10850000D03*
%TO.P,D39,2,A*%
%TO.N,Net-(D39-Pad2)*%
X211575000Y-14150000D03*
%TD*%
D15*
%TO.P,C8,1*%
%TO.N,+3V3*%
X15600000Y-38000000D03*
%TO.P,C8,2*%
%TO.N,GND*%
X15600000Y-37040000D03*
%TD*%
D13*
%TO.P,D64,1,K*%
%TO.N,ROW4*%
X187762500Y-48950000D03*
%TO.P,D64,2,A*%
%TO.N,Net-(D64-Pad2)*%
X187762500Y-52250000D03*
%TD*%
%TO.P,D19,1,K*%
%TO.N,ROW1*%
X87750000Y8200000D03*
%TO.P,D19,2,A*%
%TO.N,Net-(D19-Pad2)*%
X87750000Y4900000D03*
%TD*%
%TO.P,D16,1,K*%
%TO.N,ROW1*%
X30600000Y8200000D03*
%TO.P,D16,2,A*%
%TO.N,Net-(D16-Pad2)*%
X30600000Y4900000D03*
%TD*%
%TO.P,D24,1,K*%
%TO.N,ROW1*%
X183000000Y8200000D03*
%TO.P,D24,2,A*%
%TO.N,Net-(D24-Pad2)*%
X183000000Y4900000D03*
%TD*%
D30*
%TO.P,R7,1*%
%TO.N,CC1*%
X11610000Y20900000D03*
%TO.P,R7,2*%
%TO.N,GND*%
X10590000Y20900000D03*
%TD*%
D15*
%TO.P,C4,1*%
%TO.N,+5V*%
X31125000Y-43905000D03*
%TO.P,C4,2*%
%TO.N,GND*%
X31125000Y-42945000D03*
%TD*%
D13*
%TO.P,D65,1,K*%
%TO.N,ROW4*%
X206812500Y-48950000D03*
%TO.P,D65,2,A*%
%TO.N,Net-(D65-Pad2)*%
X206812500Y-52250000D03*
%TD*%
%TO.P,D41,1,K*%
%TO.N,ROW2*%
X254437500Y-10850000D03*
%TO.P,D41,2,A*%
%TO.N,Net-(D41-Pad2)*%
X254437500Y-14150000D03*
%TD*%
D15*
%TO.P,C3,1*%
%TO.N,+3V3*%
X25000000Y-23780000D03*
%TO.P,C3,2*%
%TO.N,GND*%
X25000000Y-22820000D03*
%TD*%
D13*
%TO.P,D21,1,K*%
%TO.N,ROW1*%
X125850000Y8200000D03*
%TO.P,D21,2,A*%
%TO.N,Net-(D21-Pad2)*%
X125850000Y4900000D03*
%TD*%
D15*
%TO.P,C5,1*%
%TO.N,+3V3*%
X30125000Y-43855000D03*
%TO.P,C5,2*%
%TO.N,GND*%
X30125000Y-42895000D03*
%TD*%
D13*
%TO.P,D44,1,K*%
%TO.N,ROW3*%
X44887500Y-29900000D03*
%TO.P,D44,2,A*%
%TO.N,Net-(D44-Pad2)*%
X44887500Y-33200000D03*
%TD*%
%TO.P,D34,1,K*%
%TO.N,ROW2*%
X116325000Y-10850000D03*
%TO.P,D34,2,A*%
%TO.N,Net-(D34-Pad2)*%
X116325000Y-14150000D03*
%TD*%
%TO.P,D27,1,K*%
%TO.N,ROW1*%
X249675000Y8200000D03*
%TO.P,D27,2,A*%
%TO.N,Net-(D27-Pad2)*%
X249675000Y4900000D03*
%TD*%
%TO.P,D23,1,K*%
%TO.N,ROW1*%
X163950000Y8200000D03*
%TO.P,D23,2,A*%
%TO.N,Net-(D23-Pad2)*%
X163950000Y4900000D03*
%TD*%
D15*
%TO.P,C16,1*%
%TO.N,+1V1*%
X19400000Y-36680000D03*
%TO.P,C16,2*%
%TO.N,GND*%
X19400000Y-35720000D03*
%TD*%
D16*
%TO.P,C7,1*%
%TO.N,OSC_IN*%
X21380000Y-56870000D03*
%TO.P,C7,2*%
%TO.N,GND*%
X22340000Y-56870000D03*
%TD*%
D14*
%TO.P,C15,1*%
%TO.N,+3V3*%
X14680000Y-39300000D03*
%TO.P,C15,2*%
%TO.N,GND*%
X13720000Y-39300000D03*
%TD*%
%TO.P,C10,1*%
%TO.N,+3V3*%
X13430000Y-44430000D03*
%TO.P,C10,2*%
%TO.N,GND*%
X12470000Y-44430000D03*
%TD*%
D27*
%TO.P,C17,1*%
%TO.N,+1V1*%
X17800000Y-49200000D03*
%TO.P,C17,2*%
%TO.N,GND*%
X17800000Y-50160000D03*
%TD*%
D13*
%TO.P,D28,1,K*%
%TO.N,ROW2*%
X-2737500Y-10850000D03*
%TO.P,D28,2,A*%
%TO.N,Net-(D28-Pad2)*%
X-2737500Y-14150000D03*
%TD*%
%TO.P,D2,1,K*%
%TO.N,ROW0*%
X28218750Y27250000D03*
%TO.P,D2,2,A*%
%TO.N,Net-(D2-Pad2)*%
X28218750Y23950000D03*
%TD*%
%TO.P,D42,1,K*%
%TO.N,ROW3*%
X-356250Y-29900000D03*
%TO.P,D42,2,A*%
%TO.N,Net-(D42-Pad2)*%
X-356250Y-33200000D03*
%TD*%
D15*
%TO.P,C13,1*%
%TO.N,+3V3*%
X24000000Y-40400000D03*
%TO.P,C13,2*%
%TO.N,GND*%
X24000000Y-39440000D03*
%TD*%
D13*
%TO.P,D73,1,K*%
%TO.N,ROW5*%
X221100000Y-68000000D03*
%TO.P,D73,2,A*%
%TO.N,Net-(D73-Pad2)*%
X221100000Y-71300000D03*
%TD*%
%TO.P,D6,1,K*%
%TO.N,ROW0*%
X113943750Y27250000D03*
%TO.P,D6,2,A*%
%TO.N,Net-(D6-Pad2)*%
X113943750Y23950000D03*
%TD*%
%TO.P,D53,1,K*%
%TO.N,ROW3*%
X216337500Y-29900000D03*
%TO.P,D53,2,A*%
%TO.N,Net-(D53-Pad2)*%
X216337500Y-33200000D03*
%TD*%
%TO.P,D40,1,K*%
%TO.N,ROW2*%
X230625000Y-10850000D03*
%TO.P,D40,2,A*%
%TO.N,Net-(D40-Pad2)*%
X230625000Y-14150000D03*
%TD*%
D31*
%TO.P,F1,1*%
%TO.N,Net-(D76-Pad1)*%
X23150000Y17687500D03*
%TO.P,F1,2*%
%TO.N,Net-(F1-Pad2)*%
X23150000Y15812500D03*
%TD*%
D15*
%TO.P,C14,1*%
%TO.N,+3V3*%
X18470000Y-36380000D03*
%TO.P,C14,2*%
%TO.N,GND*%
X18470000Y-35420000D03*
%TD*%
D13*
%TO.P,D26,1,K*%
%TO.N,ROW1*%
X221100000Y8200000D03*
%TO.P,D26,2,A*%
%TO.N,Net-(D26-Pad2)*%
X221100000Y4900000D03*
%TD*%
%TO.P,D67,1,K*%
%TO.N,ROW5*%
X-7500000Y-68000000D03*
%TO.P,D67,2,A*%
%TO.N,Net-(D67-Pad2)*%
X-7500000Y-71300000D03*
%TD*%
%TO.P,D33,1,K*%
%TO.N,ROW2*%
X97275000Y-10850000D03*
%TO.P,D33,2,A*%
%TO.N,Net-(D33-Pad2)*%
X97275000Y-14150000D03*
%TD*%
D32*
%TO.P,Y1,1,1*%
%TO.N,OSC_OUT*%
X22750000Y-53100000D03*
%TO.P,Y1,2,2*%
%TO.N,GND*%
X22750000Y-55300000D03*
%TO.P,Y1,3,3*%
%TO.N,OSC_IN*%
X21050000Y-55300000D03*
%TO.P,Y1,4,4*%
%TO.N,GND*%
X21050000Y-53100000D03*
%TD*%
D13*
%TO.P,D61,1,K*%
%TO.N,ROW4*%
X130612500Y-48950000D03*
%TO.P,D61,2,A*%
%TO.N,Net-(D61-Pad2)*%
X130612500Y-52250000D03*
%TD*%
%TO.P,D58,1,K*%
%TO.N,ROW4*%
X73462500Y-48950000D03*
%TO.P,D58,2,A*%
%TO.N,Net-(D58-Pad2)*%
X73462500Y-52250000D03*
%TD*%
%TO.P,D36,1,K*%
%TO.N,ROW2*%
X154425000Y-10850000D03*
%TO.P,D36,2,A*%
%TO.N,Net-(D36-Pad2)*%
X154425000Y-14150000D03*
%TD*%
%TO.P,D70,1,K*%
%TO.N,ROW5*%
X52031250Y-68000000D03*
%TO.P,D70,2,A*%
%TO.N,Net-(D70-Pad2)*%
X52031250Y-71300000D03*
%TD*%
D33*
%TO.P,U1,1,IOVDD*%
%TO.N,+3V3*%
X22350165Y-40599924D03*
%TO.P,U1,2,GPIO0*%
%TO.N,unconnected-(U1-Pad2)*%
X22350165Y-40999975D03*
%TO.P,U1,3,GPIO1*%
%TO.N,unconnected-(U1-Pad3)*%
X22350165Y-41400025D03*
%TO.P,U1,4,GPIO2*%
%TO.N,unconnected-(U1-Pad4)*%
X22350165Y-41800076D03*
%TO.P,U1,5,GPIO3*%
%TO.N,unconnected-(U1-Pad5)*%
X22350165Y-42199873D03*
%TO.P,U1,6,GPIO4*%
%TO.N,unconnected-(U1-Pad6)*%
X22350165Y-42599924D03*
%TO.P,U1,7,GPIO5*%
%TO.N,unconnected-(U1-Pad7)*%
X22350165Y-42999975D03*
%TO.P,U1,8,GPIO6*%
%TO.N,unconnected-(U1-Pad8)*%
X22350165Y-43400025D03*
%TO.P,U1,9,GPIO7*%
%TO.N,unconnected-(U1-Pad9)*%
X22350165Y-43800076D03*
%TO.P,U1,10,IOVDD*%
%TO.N,+3V3*%
X22350165Y-44199873D03*
%TO.P,U1,11,GPIO8*%
%TO.N,unconnected-(U1-Pad11)*%
X22350165Y-44599924D03*
%TO.P,U1,12,GPIO9*%
%TO.N,CLM4*%
X22350165Y-44999975D03*
%TO.P,U1,13,GPIO10*%
%TO.N,CLM5*%
X22350165Y-45400025D03*
%TO.P,U1,14,GPIO11*%
%TO.N,CLM7*%
X22350165Y-45800076D03*
D34*
%TO.P,U1,15,GPIO12*%
%TO.N,CLM8*%
X21399949Y-46750038D03*
%TO.P,U1,16,GPIO13*%
%TO.N,CLM9*%
X21000152Y-46750038D03*
%TO.P,U1,17,GPIO14*%
%TO.N,CLM10*%
X20600102Y-46750038D03*
%TO.P,U1,18,GPIO15*%
%TO.N,ROW4*%
X20200051Y-46750038D03*
%TO.P,U1,19,TESTEN*%
%TO.N,GND*%
X19800000Y-46750038D03*
%TO.P,U1,20,XIN*%
%TO.N,OSC_OUT*%
X19399949Y-46750038D03*
%TO.P,U1,21,XOUT*%
%TO.N,XOUT_MCU*%
X19000152Y-46750038D03*
%TO.P,U1,22,IOVDD*%
%TO.N,+3V3*%
X18600102Y-46750038D03*
%TO.P,U1,23,DVDD*%
%TO.N,+1V1*%
X18200051Y-46750038D03*
%TO.P,U1,24,SWCLK*%
%TO.N,SWCLK*%
X17800000Y-46750038D03*
%TO.P,U1,25,SWD*%
%TO.N,SWD*%
X17399949Y-46750038D03*
%TO.P,U1,26,RUN*%
%TO.N,RUN*%
X17000152Y-46750038D03*
%TO.P,U1,27,GPIO16*%
%TO.N,CLM1*%
X16600102Y-46750038D03*
%TO.P,U1,28,GPIO17*%
%TO.N,CLM2*%
X16200051Y-46750038D03*
D33*
%TO.P,U1,29,GPIO18*%
%TO.N,CLM3*%
X15249835Y-45800076D03*
%TO.P,U1,30,GPIO19*%
%TO.N,CLM6*%
X15249835Y-45400025D03*
%TO.P,U1,31,GPIO20*%
%TO.N,CLM11*%
X15249835Y-44999975D03*
%TO.P,U1,32,GPIO21*%
%TO.N,unconnected-(U1-Pad32)*%
X15249835Y-44599924D03*
%TO.P,U1,33,IOVDD*%
%TO.N,+3V3*%
X15249835Y-44199873D03*
%TO.P,U1,34,GPIO22*%
%TO.N,CLM12*%
X15249835Y-43800076D03*
%TO.P,U1,35,GPIO23*%
%TO.N,CLM13*%
X15249835Y-43400025D03*
%TO.P,U1,36,GPIO24*%
%TO.N,ROW5*%
X15249835Y-42999975D03*
%TO.P,U1,37,GPIO25*%
%TO.N,ROW1*%
X15249835Y-42599924D03*
%TO.P,U1,38,GPIO26_ADC0*%
%TO.N,ROW0*%
X15249835Y-42199873D03*
%TO.P,U1,39,GPIO27_ADC1*%
%TO.N,ROW2*%
X15249835Y-41800076D03*
%TO.P,U1,40,GPIO28_ADC2*%
%TO.N,ROW3*%
X15249835Y-41400025D03*
%TO.P,U1,41,GPIO29_ADC3*%
%TO.N,CLM0*%
X15249835Y-40999975D03*
%TO.P,U1,42,IOVDD*%
%TO.N,+3V3*%
X15249835Y-40599924D03*
D34*
%TO.P,U1,43,ADC_AVDD*%
X16200051Y-39649962D03*
%TO.P,U1,44,VREG_IN*%
X16600102Y-39649962D03*
%TO.P,U1,45,VREG_VOUT*%
%TO.N,+1V1*%
X17000152Y-39649962D03*
%TO.P,U1,46,USB_DM*%
%TO.N,USB_MCU-*%
X17399949Y-39649962D03*
%TO.P,U1,47,USB_DP*%
%TO.N,USB_MCU+*%
X17800000Y-39649962D03*
%TO.P,U1,48,USB_VDD*%
%TO.N,+3V3*%
X18200051Y-39649962D03*
%TO.P,U1,49,IOVDD*%
X18600102Y-39649962D03*
%TO.P,U1,50,DVDD*%
%TO.N,+1V1*%
X19000152Y-39649962D03*
%TO.P,U1,51,QSPI_SD3*%
%TO.N,QSPI_SD3*%
X19399949Y-39649962D03*
%TO.P,U1,52,QSPI_SCLK*%
%TO.N,QSPI_SCLK*%
X19800000Y-39649962D03*
%TO.P,U1,53,QSPI_SD0*%
%TO.N,QSPI_SD0*%
X20200051Y-39649962D03*
%TO.P,U1,54,QSPI_SD2*%
%TO.N,QSPI_SD2*%
X20600102Y-39649962D03*
%TO.P,U1,55,QSPI_SD1*%
%TO.N,QSPI_SD1*%
X21000152Y-39649962D03*
%TO.P,U1,56,QSPI_SS*%
%TO.N,QSPI_SS*%
X21399949Y-39649962D03*
D35*
%TO.P,U1,57,GND*%
%TO.N,GND*%
X18800000Y-43199873D03*
%TD*%
D13*
%TO.P,D71,1,K*%
%TO.N,ROW5*%
X123468750Y-68000000D03*
%TO.P,D71,2,A*%
%TO.N,Net-(D71-Pad2)*%
X123468750Y-71300000D03*
%TD*%
%TO.P,D59,1,K*%
%TO.N,ROW4*%
X92512500Y-48950000D03*
%TO.P,D59,2,A*%
%TO.N,Net-(D59-Pad2)*%
X92512500Y-52250000D03*
%TD*%
D36*
%TO.P,U5,1,A*%
%TO.N,GND*%
X35099950Y-22801270D03*
%TO.P,U5,2,B*%
X28500000Y-22800000D03*
%TO.P,U5,3,C*%
%TO.N,Net-(R5-Pad2)*%
X35099950Y-26500788D03*
%TO.P,U5,4,D*%
X28500000Y-26500788D03*
%TD*%
D13*
%TO.P,D69,1,K*%
%TO.N,ROW5*%
X30600000Y-68000000D03*
%TO.P,D69,2,A*%
%TO.N,Net-(D69-Pad2)*%
X30600000Y-71300000D03*
%TD*%
D27*
%TO.P,C6,1*%
%TO.N,OSC_OUT*%
X24100000Y-53620000D03*
%TO.P,C6,2*%
%TO.N,GND*%
X24100000Y-54580000D03*
%TD*%
D13*
%TO.P,D17,1,K*%
%TO.N,ROW1*%
X49650000Y8200000D03*
%TO.P,D17,2,A*%
%TO.N,Net-(D17-Pad2)*%
X49650000Y4900000D03*
%TD*%
%TO.P,D18,1,K*%
%TO.N,ROW1*%
X68700000Y8200000D03*
%TO.P,D18,2,A*%
%TO.N,Net-(D18-Pad2)*%
X68700000Y4900000D03*
%TD*%
%TO.P,D38,1,K*%
%TO.N,ROW2*%
X192525000Y-10850000D03*
%TO.P,D38,2,A*%
%TO.N,Net-(D38-Pad2)*%
X192525000Y-14150000D03*
%TD*%
%TO.P,D75,1,K*%
%TO.N,ROW5*%
X259200000Y-68000000D03*
%TO.P,D75,2,A*%
%TO.N,Net-(D75-Pad2)*%
X259200000Y-71300000D03*
%TD*%
%TO.P,D55,1,K*%
%TO.N,ROW4*%
X4406250Y-48950000D03*
%TO.P,D55,2,A*%
%TO.N,Net-(D55-Pad2)*%
X4406250Y-52250000D03*
%TD*%
D37*
%TO.P,U4,1,~{CS}*%
%TO.N,QSPI_SS*%
X25005000Y-32900000D03*
%TO.P,U4,2,DO(IO1)*%
%TO.N,QSPI_SD1*%
X23735000Y-32900000D03*
%TO.P,U4,3,IO2*%
%TO.N,QSPI_SD2*%
X22465000Y-32900000D03*
%TO.P,U4,4,GND*%
%TO.N,GND*%
X21195000Y-32900000D03*
%TO.P,U4,5,DI(IO0)*%
%TO.N,QSPI_SD0*%
X21195000Y-25700000D03*
%TO.P,U4,6,CLK*%
%TO.N,QSPI_SCLK*%
X22465000Y-25700000D03*
%TO.P,U4,7,IO3*%
%TO.N,QSPI_SD3*%
X23735000Y-25700000D03*
%TO.P,U4,8,VCC*%
%TO.N,+3V3*%
X25005000Y-25700000D03*
%TD*%
D13*
%TO.P,D50,1,K*%
%TO.N,ROW3*%
X159187500Y-29900000D03*
%TO.P,D50,2,A*%
%TO.N,Net-(D50-Pad2)*%
X159187500Y-33200000D03*
%TD*%
D19*
%TO.P,R2,1*%
%TO.N,USB_MCU-*%
X16600000Y-34250000D03*
%TO.P,R2,2*%
%TO.N,USB-*%
X16600000Y-32600000D03*
%TD*%
D38*
%TO.N,+3V3*%
X8200000Y-47100000D03*
X23100000Y-30900000D03*
X18700000Y-37400000D03*
X13800000Y-40300000D03*
X15500000Y-39000000D03*
X21210335Y-40792728D03*
%TO.N,GND*%
X19400000Y-34800000D03*
X21100000Y-30900000D03*
X24700000Y24300000D03*
X22700000Y24300000D03*
X18600000Y-31000000D03*
X25700000Y-55000000D03*
X12844622Y-39655378D03*
X15600000Y-36100000D03*
X16500000Y-31000000D03*
X20100000Y-58200000D03*
X20379889Y-51520111D03*
X21200000Y-45500000D03*
X25700000Y-53800000D03*
X21400000Y-58200000D03*
X24500000Y-52600000D03*
X17700000Y-42100000D03*
X18500000Y-9900000D03*
X32000000Y-42900000D03*
X19900000Y-42100000D03*
X10200000Y9400000D03*
X17700000Y-44300000D03*
X23700000Y-57100000D03*
X20100000Y-57000000D03*
X25000000Y-21700000D03*
X37200000Y-22800000D03*
X16500000Y-28700000D03*
X13600000Y-36200000D03*
X23700000Y-58200000D03*
X16600000Y-36100000D03*
X28200000Y-24500000D03*
X8100000Y7100000D03*
X-6000000Y-31400000D03*
X12700000Y22500000D03*
X24900000Y-55800000D03*
X26000000Y-44200000D03*
X16500000Y-9900000D03*
X18800000Y-43200000D03*
X2000000Y-54400000D03*
X8100000Y9400000D03*
X32600000Y-40800000D03*
X10200000Y7100000D03*
X11137485Y-43951759D03*
X22600000Y-58200000D03*
X30800000Y-47200000D03*
X9100000Y20900000D03*
X25700000Y-52600000D03*
X18600000Y-28700000D03*
X18200000Y-54700000D03*
X16900000Y-49500000D03*
X2100000Y-61100000D03*
X10600000Y22500000D03*
X21600000Y21100000D03*
X11700000Y22500000D03*
X700000Y-52500000D03*
X24200000Y-38500000D03*
X18500000Y-12200000D03*
X16500000Y-12200000D03*
X23700000Y24300000D03*
X19000000Y-55800000D03*
X19900000Y-44300000D03*
X24900000Y-57100000D03*
%TO.N,ROW0*%
X69000000Y27300000D03*
X31000000Y27300000D03*
X205000000Y27300000D03*
X158000000Y27400000D03*
X177000000Y27300000D03*
X243000000Y27300000D03*
X88000000Y27300000D03*
X-5000000Y27300000D03*
X261900000Y27300000D03*
X50000000Y27300000D03*
X117000000Y27200000D03*
X139000000Y27300000D03*
X224000000Y27300000D03*
%TO.N,ROW1*%
X224000000Y8200000D03*
X110000000Y8200000D03*
X14000000Y8200000D03*
X129000000Y8200000D03*
X205000000Y8200000D03*
X-5000000Y8100000D03*
X34000000Y8200000D03*
X72000000Y8200000D03*
X252400000Y8200000D03*
X186100000Y8200000D03*
X148000000Y8200000D03*
X166900000Y8200000D03*
X53000000Y8200000D03*
X90900000Y8200000D03*
%TO.N,ROW2*%
X100000000Y-10900000D03*
X215100000Y-10900000D03*
X176100000Y-10900000D03*
X195300000Y-10900000D03*
X119000000Y-10800000D03*
X80900000Y-10900000D03*
X62100000Y-10900000D03*
X43200000Y-10900000D03*
X233900000Y-10900000D03*
X24200000Y-10900000D03*
X138100000Y-10900000D03*
X257300000Y-10900000D03*
X-100000Y-10900000D03*
X157000000Y-10900000D03*
%TO.N,ROW3*%
X181100000Y-29900000D03*
X124100000Y-29900000D03*
X86100000Y-29900000D03*
X200100000Y-30000000D03*
X219100000Y-29900000D03*
X162100000Y-29900000D03*
X48000000Y-29900000D03*
X67000000Y-29900000D03*
X30600000Y-27800000D03*
X2300000Y-29900000D03*
X143000000Y-29900000D03*
X105000000Y-29900000D03*
X250300000Y-29900000D03*
%TO.N,ROW4*%
X172100000Y-48900000D03*
X95100000Y-48900000D03*
X6500000Y-49000000D03*
X133200000Y-49000000D03*
X152200000Y-49000000D03*
X191100000Y-49000000D03*
X210100000Y-49000000D03*
X243600000Y-49100000D03*
X21600000Y-49700000D03*
X38300000Y-49000000D03*
X114100000Y-49000000D03*
X76100000Y-48900000D03*
X57100000Y-49000000D03*
%TO.N,ROW5*%
X14599501Y-67800499D03*
X224900000Y-68000000D03*
X198100000Y-68000000D03*
X243400000Y-68000000D03*
X262000000Y-68000000D03*
X126800000Y-68000000D03*
X33800499Y-67800499D03*
X-5100000Y-68000000D03*
X55500499Y-67800499D03*
%TO.N,SWCLK*%
X400000Y-46000000D03*
%TO.N,SWD*%
X-1300000Y-46100000D03*
%TO.N,CLM0*%
X7400000Y-48200500D03*
X12550000Y-35050000D03*
%TO.N,CLM1*%
X6700000Y-73500000D03*
X6700000Y-68500000D03*
%TO.N,CLM2*%
X5699503Y-73500000D03*
X5700497Y-68500000D03*
%TO.N,CLM3*%
X4700000Y-73500000D03*
X4700000Y-68500000D03*
%TO.N,CLM4*%
X86800000Y-54300000D03*
X29198060Y-60138395D03*
%TO.N,CLM5*%
X105800000Y-54200000D03*
X28798540Y-61130800D03*
%TO.N,CLM7*%
X28399020Y-62106613D03*
X143900000Y-54100000D03*
%TO.N,CLM8*%
X27999020Y-63100000D03*
X163100000Y-54300000D03*
%TO.N,CLM9*%
X182100000Y-54200000D03*
X27700000Y-64100000D03*
%TO.N,CLM10*%
X27253009Y-64993982D03*
X201100000Y-54200000D03*
%TD*%
D39*
%TO.N,+3V3*%
X14099924Y-40599924D02*
X13800000Y-40300000D01*
X22350165Y-44199873D02*
X24020127Y-44199873D01*
X18600102Y-46750038D02*
X18600102Y-48200102D01*
X18470000Y-37170000D02*
X18470000Y-36380000D01*
D40*
X14660000Y-39280000D02*
X14680000Y-39300000D01*
D39*
X18600102Y-38500102D02*
X18600102Y-39649962D01*
X16500000Y-38600000D02*
X16600102Y-38700102D01*
X25325000Y-25380000D02*
X25005000Y-25700000D01*
X18200051Y-39649962D02*
X18200051Y-38499949D01*
X16200051Y-38600051D02*
X16200000Y-38600000D01*
X16098806Y-40599924D02*
X16300000Y-40801118D01*
D41*
X23100000Y-29400000D02*
X25005000Y-27495000D01*
D39*
X18400000Y-38300000D02*
X18600102Y-38500102D01*
X15500000Y-38100000D02*
X15600000Y-38000000D01*
X20650616Y-45049384D02*
X21500127Y-44199873D01*
X22350165Y-40599924D02*
X21403139Y-40599924D01*
D40*
X14660000Y-37300000D02*
X14660000Y-39280000D01*
D41*
X25005000Y-27495000D02*
X25005000Y-25700000D01*
D39*
X19350616Y-45049384D02*
X20650616Y-45049384D01*
X25005000Y-25700000D02*
X25005000Y-23785000D01*
X16300000Y-40801118D02*
X16300000Y-44100000D01*
X21403139Y-40599924D02*
X21210335Y-40792728D01*
X23800076Y-40599924D02*
X24000000Y-40400000D01*
D41*
X24950000Y-42850000D02*
X27750000Y-42850000D01*
D39*
X15249835Y-39869835D02*
X14680000Y-39300000D01*
X15249835Y-40599924D02*
X16098806Y-40599924D01*
X25005000Y-23785000D02*
X25000000Y-23780000D01*
X-2500000Y-47600000D02*
X-2500000Y-48290000D01*
D40*
X29050000Y-43860000D02*
X29050000Y-44937500D01*
D39*
X26500000Y-25380000D02*
X25325000Y-25380000D01*
D40*
X14980000Y-38000000D02*
X14680000Y-38300000D01*
D39*
X8200000Y-47100000D02*
X-2000000Y-47100000D01*
D40*
X15600000Y-38000000D02*
X14980000Y-38000000D01*
D39*
X16200051Y-39649962D02*
X16200051Y-38600051D01*
D41*
X29262500Y-45150000D02*
X27750000Y-45150000D01*
D39*
X14400324Y-44300000D02*
X14500451Y-44199873D01*
D41*
X24040000Y-44180000D02*
X24040000Y-43760000D01*
D39*
X18600102Y-46750038D02*
X18600102Y-45799898D01*
X14500451Y-44199873D02*
X15249835Y-44199873D01*
X16300000Y-44100000D02*
X16200127Y-44199873D01*
X18700000Y-37400000D02*
X18470000Y-37170000D01*
X22350165Y-40599924D02*
X23800076Y-40599924D01*
X18600102Y-48200102D02*
X18800000Y-48400000D01*
D41*
X23100000Y-30900000D02*
X23100000Y-29400000D01*
D39*
X13430000Y-44430000D02*
X13560000Y-44300000D01*
X18800000Y-48400000D02*
X18800000Y-49200000D01*
X16600102Y-38700102D02*
X16600102Y-39649962D01*
D41*
X27100000Y-40400000D02*
X24000000Y-40400000D01*
D39*
X15500000Y-39000000D02*
X15500000Y-38100000D01*
X16200000Y-38600000D02*
X16500000Y-38600000D01*
X13560000Y-44300000D02*
X14400324Y-44300000D01*
X-2000000Y-47100000D02*
X-2500000Y-47600000D01*
D41*
X24040000Y-43760000D02*
X24950000Y-42850000D01*
X27750000Y-41050000D02*
X27100000Y-40400000D01*
D39*
X18400000Y-37700000D02*
X18700000Y-37400000D01*
D41*
X27750000Y-45150000D02*
X27750000Y-42850000D01*
D39*
X18400000Y-38300000D02*
X18400000Y-37700000D01*
X18200051Y-38499949D02*
X18400000Y-38300000D01*
D40*
X29050000Y-44937500D02*
X29262500Y-45150000D01*
X30125000Y-43855000D02*
X29055000Y-43855000D01*
D39*
X21500127Y-44199873D02*
X22350165Y-44199873D01*
X15249835Y-40599924D02*
X14099924Y-40599924D01*
X16200127Y-44199873D02*
X15249835Y-44199873D01*
X18600102Y-45799898D02*
X19350616Y-45049384D01*
X15600000Y-38000000D02*
X16200000Y-38600000D01*
X15249835Y-40599924D02*
X15249835Y-39869835D01*
D41*
X27750000Y-42850000D02*
X27750000Y-41050000D01*
D40*
X29055000Y-43855000D02*
X29050000Y-43860000D01*
D41*
%TO.N,GND*%
X19000000Y-55800000D02*
X18200000Y-55000000D01*
D39*
X13700000Y-37300000D02*
X13700000Y-36300000D01*
X24000000Y-39440000D02*
X24000000Y-38700000D01*
X22750000Y-55300000D02*
X22200000Y-54750000D01*
X25020000Y-22800000D02*
X28500000Y-22800000D01*
X18600000Y-28700000D02*
X18600000Y-31000000D01*
X25Y-54200025D02*
X750394Y-54200025D01*
D41*
X30125000Y-42895000D02*
X31075000Y-42895000D01*
D39*
X22200000Y-54400000D02*
X21050000Y-53250000D01*
X17060000Y-50160000D02*
X16900000Y-50000000D01*
D41*
X24900000Y-55800000D02*
X24400000Y-55300000D01*
D39*
X21195000Y-30995000D02*
X21100000Y-30900000D01*
X31125000Y-42945000D02*
X31955000Y-42945000D01*
X25000000Y-22820000D02*
X25000000Y-21700000D01*
X32050000Y-41350000D02*
X32600000Y-40800000D01*
X13700000Y-36300000D02*
X13600000Y-36200000D01*
X21195000Y-32900000D02*
X21195000Y-30995000D01*
X-420000Y-52500000D02*
X700000Y-52500000D01*
X11615726Y-44430000D02*
X11137485Y-43951759D01*
X20010000Y21100000D02*
X21600000Y21100000D01*
D41*
X24100000Y-55200000D02*
X24000000Y-55300000D01*
X20100000Y-56900000D02*
X19000000Y-55800000D01*
D39*
X23700000Y24300000D02*
X22700000Y24300000D01*
X-420000Y-53780000D02*
X25Y-54200025D01*
D41*
X31075000Y-42895000D02*
X31125000Y-42945000D01*
D42*
X30650000Y-47050000D02*
X30800000Y-47200000D01*
D39*
X19400000Y-35720000D02*
X19400000Y-34800000D01*
X13200000Y-39300000D02*
X12844622Y-39655378D01*
X16650000Y-37040000D02*
X16650000Y-36150000D01*
X12700000Y22500000D02*
X11700000Y22500000D01*
X16650000Y-36150000D02*
X16600000Y-36100000D01*
D41*
X22340000Y-57940000D02*
X22600000Y-58200000D01*
X31125000Y-41562500D02*
X30912500Y-41350000D01*
X23700000Y-57100000D02*
X23700000Y-58200000D01*
D39*
X35099950Y-22801270D02*
X37198730Y-22801270D01*
X10590000Y20900000D02*
X9100000Y20900000D01*
X13720000Y-39300000D02*
X13200000Y-39300000D01*
X16500000Y-12200000D02*
X16500000Y-9900000D01*
X24000000Y-38700000D02*
X24200000Y-38500000D01*
D41*
X24000000Y-55300000D02*
X22750000Y-55300000D01*
X25700000Y-53800000D02*
X25700000Y-55000000D01*
D39*
X21200000Y-45500000D02*
X20201067Y-45500000D01*
X21050000Y-53100000D02*
X21050000Y-52190222D01*
D41*
X24900000Y-57100000D02*
X23700000Y-57100000D01*
D39*
X11700000Y22500000D02*
X10600000Y22500000D01*
D41*
X24100000Y-54580000D02*
X24100000Y-55200000D01*
D39*
X20300000Y23300000D02*
X20017747Y23582253D01*
D41*
X25700000Y-55000000D02*
X24900000Y-55800000D01*
D39*
X-420000Y-52500000D02*
X-420000Y-53780000D01*
X18770000Y-35720000D02*
X19400000Y-35720000D01*
X13720000Y-39300000D02*
X13720000Y-37320000D01*
X28500000Y-24200000D02*
X28200000Y-24500000D01*
D41*
X20100000Y-58200000D02*
X20100000Y-57000000D01*
D39*
X23700000Y24300000D02*
X24700000Y24300000D01*
X20201067Y-45500000D02*
X19800000Y-45901067D01*
X25000000Y-22820000D02*
X25020000Y-22800000D01*
X22200000Y-54750000D02*
X22200000Y-54400000D01*
D41*
X22600000Y-58200000D02*
X21400000Y-58200000D01*
D39*
X-6000000Y-33745000D02*
X-6000000Y-31400000D01*
D41*
X22340000Y-56870000D02*
X22340000Y-57940000D01*
D39*
X21050000Y-53250000D02*
X21050000Y-53100000D01*
D41*
X21400000Y-58200000D02*
X20100000Y-58200000D01*
D39*
X30912500Y-41350000D02*
X32050000Y-41350000D01*
X1800025Y-54200025D02*
X2000000Y-54400000D01*
D41*
X24900000Y-55800000D02*
X24900000Y-57100000D01*
X18200000Y-55000000D02*
X18200000Y-54700000D01*
D39*
X25980000Y-44180000D02*
X26000000Y-44200000D01*
X13720000Y-37320000D02*
X13700000Y-37300000D01*
X750394Y-54200025D02*
X1800025Y-54200025D01*
X18500000Y-12200000D02*
X18500000Y-9900000D01*
X19800000Y-45901067D02*
X19800000Y-46750038D01*
X31955000Y-42945000D02*
X32000000Y-42900000D01*
X8100000Y7100000D02*
X8100000Y9400000D01*
X37198730Y-22801270D02*
X37200000Y-22800000D01*
X15600000Y-37040000D02*
X15600000Y-36100000D01*
D41*
X13317721Y23117721D02*
X12700000Y22500000D01*
D39*
X10200000Y7100000D02*
X10200000Y9400000D01*
X1799975Y-60799975D02*
X2100000Y-61100000D01*
D41*
X24400000Y-55300000D02*
X24000000Y-55300000D01*
D39*
X25000000Y-44180000D02*
X25980000Y-44180000D01*
X22700000Y24300000D02*
X21700000Y23300000D01*
X18470000Y-35420000D02*
X18770000Y-35720000D01*
D42*
X29262500Y-47050000D02*
X30650000Y-47050000D01*
D39*
X17800000Y-50160000D02*
X17060000Y-50160000D01*
X20017747Y23582253D02*
X20017747Y24047163D01*
X18800000Y-50160000D02*
X17800000Y-50160000D01*
D41*
X23700000Y-58200000D02*
X22600000Y-58200000D01*
X24500000Y-52600000D02*
X25700000Y-52600000D01*
D39*
X16500000Y-31000000D02*
X16500000Y-28700000D01*
D41*
X31125000Y-42945000D02*
X31125000Y-41562500D01*
D39*
X16900000Y-50000000D02*
X16900000Y-49500000D01*
D41*
X25700000Y-52600000D02*
X25700000Y-53800000D01*
X13317721Y24047163D02*
X13317721Y23117721D01*
D39*
X21700000Y23300000D02*
X20300000Y23300000D01*
D41*
X20100000Y-57000000D02*
X20100000Y-56900000D01*
D39*
X21050000Y-52190222D02*
X20379889Y-51520111D01*
X12470000Y-44430000D02*
X11615726Y-44430000D01*
X28500000Y-22800000D02*
X28500000Y-24200000D01*
X749124Y-60799975D02*
X1799975Y-60799975D01*
D40*
%TO.N,+5V*%
X31137500Y-46100000D02*
X33075000Y-46100000D01*
X31125000Y-43905000D02*
X31125000Y-46087500D01*
X31125000Y-46087500D02*
X31137500Y-46100000D01*
X33075000Y-46100000D02*
X33137500Y-46162500D01*
D39*
%TO.N,OSC_OUT*%
X23270000Y-53620000D02*
X22750000Y-53100000D01*
X19399949Y-47599009D02*
X19399949Y-46750038D01*
X22750000Y-52900978D02*
X19999519Y-50150497D01*
X24100000Y-53620000D02*
X23270000Y-53620000D01*
X19999519Y-50150497D02*
X19999519Y-48198579D01*
X22750000Y-53100000D02*
X22750000Y-52900978D01*
X19999519Y-48198579D02*
X19399949Y-47599009D01*
%TO.N,OSC_IN*%
X21380000Y-55630000D02*
X21050000Y-55300000D01*
X21380000Y-56870000D02*
X21380000Y-55630000D01*
X19600000Y-54820000D02*
X20570000Y-54820000D01*
X20570000Y-54820000D02*
X21050000Y-55300000D01*
%TO.N,RUN*%
X14833551Y-47098557D02*
X10573527Y-47098557D01*
X-4303840Y-49296160D02*
X-4303840Y-51096160D01*
X10372579Y-47097549D02*
X7985716Y-44710686D01*
X-4290000Y-49310000D02*
X-4303840Y-49296160D01*
X10573527Y-47098557D02*
X10572519Y-47097549D01*
X-2500000Y-49310000D02*
X-4290000Y-49310000D01*
X15734513Y-47999519D02*
X14833551Y-47098557D01*
X16433624Y-47999519D02*
X15734513Y-47999519D01*
X-3490638Y-44710686D02*
X-4303840Y-45523888D01*
X7985716Y-44710686D02*
X-3490638Y-44710686D01*
X-4303840Y-51096160D02*
X-2950394Y-52449606D01*
X-1380000Y-52500000D02*
X-1380000Y-53880000D01*
X17000152Y-46750038D02*
X17000152Y-47763965D01*
X10572519Y-47097549D02*
X10372579Y-47097549D01*
X-1700025Y-54200025D02*
X-2950394Y-54200025D01*
X16764597Y-47999520D02*
X16433624Y-47999519D01*
X17000152Y-47763965D02*
X16764597Y-47999520D01*
X-2950394Y-52449606D02*
X-2950394Y-54200025D01*
X-1380000Y-53880000D02*
X-1700025Y-54200025D01*
X-4303840Y-45523888D02*
X-4303840Y-49296160D01*
%TO.N,ROW0*%
X-1200000Y5399988D02*
X1399988Y2800000D01*
X-4499520Y-30065486D02*
X-2565487Y-31999519D01*
X3100000Y-1400000D02*
X-4499520Y-8999520D01*
X8749994Y-35650007D02*
X9701468Y-36601481D01*
X135375000Y27250000D02*
X138950000Y27250000D01*
X12704892Y-42199873D02*
X15249835Y-42199873D01*
X202050000Y27250000D02*
X204950000Y27250000D01*
X204950000Y27250000D02*
X205000000Y27300000D01*
X3299508Y-31999520D02*
X6949995Y-35650007D01*
X113943750Y27250000D02*
X116950000Y27250000D01*
X-1200000Y13200000D02*
X-1200000Y5399988D01*
X28218750Y27250000D02*
X30950000Y27250000D01*
X221100000Y27250000D02*
X223950000Y27250000D01*
X242950000Y27250000D02*
X243000000Y27300000D01*
X154425000Y27250000D02*
X157850000Y27250000D01*
X173475000Y27250000D02*
X176950000Y27250000D01*
X261900000Y27300000D02*
X259250000Y27300000D01*
X9800481Y-39295462D02*
X12704892Y-42199873D01*
X223950000Y27250000D02*
X224000000Y27300000D01*
X68950000Y27250000D02*
X69000000Y27300000D01*
X6949995Y-35650007D02*
X8749994Y-35650007D01*
X-2565487Y-31999519D02*
X3299508Y-31999520D01*
X1400000Y2800000D02*
X3100000Y1100000D01*
X-4499520Y-8999520D02*
X-4499520Y-30065486D01*
X49950000Y27250000D02*
X50000000Y27300000D01*
X157850000Y27250000D02*
X158000000Y27400000D01*
X3000000Y20300000D02*
X3000000Y17400000D01*
X-600000Y22200000D02*
X1100000Y22200000D01*
X9701468Y-36601481D02*
X9701468Y-39196448D01*
X176950000Y27250000D02*
X177000000Y27300000D01*
X-5050000Y27250000D02*
X-7500000Y27250000D01*
X240150000Y27250000D02*
X242950000Y27250000D01*
X85368750Y27250000D02*
X87950000Y27250000D01*
X1399988Y2800000D02*
X1400000Y2800000D01*
X87950000Y27250000D02*
X88000000Y27300000D01*
X66318750Y27250000D02*
X68950000Y27250000D01*
X3000000Y17400000D02*
X-1200000Y13200000D01*
X-5000000Y27300000D02*
X-5000000Y26600000D01*
X47268750Y27250000D02*
X49950000Y27250000D01*
X1100000Y22200000D02*
X3000000Y20300000D01*
X9701468Y-39196448D02*
X9800481Y-39295462D01*
X138950000Y27250000D02*
X139000000Y27300000D01*
X116950000Y27250000D02*
X117000000Y27200000D01*
X3100000Y1100000D02*
X3100000Y-1400000D01*
X-5000000Y27300000D02*
X-5050000Y27250000D01*
X-5000000Y26600000D02*
X-600000Y22200000D01*
X30950000Y27250000D02*
X31000000Y27300000D01*
X259250000Y27300000D02*
X259200000Y27250000D01*
%TO.N,Net-(D1-Pad2)*%
X-7500000Y23950000D02*
X-7500000Y22005000D01*
X-7500000Y22005000D02*
X-7085000Y21590000D01*
%TO.N,Net-(D2-Pad2)*%
X28218750Y23950000D02*
X28218750Y22005000D01*
X28218750Y22005000D02*
X28633750Y21590000D01*
%TO.N,Net-(D3-Pad2)*%
X47268750Y22005000D02*
X47683750Y21590000D01*
X47268750Y23950000D02*
X47268750Y22005000D01*
%TO.N,Net-(D4-Pad2)*%
X66318750Y22005000D02*
X66733750Y21590000D01*
X66318750Y23950000D02*
X66318750Y22005000D01*
%TO.N,Net-(D5-Pad2)*%
X85368750Y23950000D02*
X85368750Y22005000D01*
X85368750Y22005000D02*
X85783750Y21590000D01*
%TO.N,Net-(D6-Pad2)*%
X113943750Y22005000D02*
X114358750Y21590000D01*
X113943750Y23950000D02*
X113943750Y22005000D01*
%TO.N,Net-(D7-Pad2)*%
X135375000Y23950000D02*
X135375000Y22005000D01*
X135375000Y22005000D02*
X135790000Y21590000D01*
%TO.N,Net-(D8-Pad2)*%
X154425000Y22005000D02*
X154840000Y21590000D01*
X154425000Y23950000D02*
X154425000Y22005000D01*
%TO.N,Net-(D9-Pad2)*%
X173475000Y22005000D02*
X173890000Y21590000D01*
X173475000Y23950000D02*
X173475000Y22005000D01*
%TO.N,Net-(D10-Pad2)*%
X202050000Y22005000D02*
X202465000Y21590000D01*
X202050000Y23950000D02*
X202050000Y22005000D01*
%TO.N,Net-(D11-Pad2)*%
X221100000Y22005000D02*
X221515000Y21590000D01*
X221100000Y23950000D02*
X221100000Y22005000D01*
%TO.N,Net-(D12-Pad2)*%
X240150000Y22005000D02*
X240565000Y21590000D01*
X240150000Y23950000D02*
X240150000Y22005000D01*
%TO.N,Net-(D13-Pad2)*%
X259200000Y23950000D02*
X259200000Y22005000D01*
X259200000Y22005000D02*
X259615000Y21590000D01*
%TO.N,ROW1*%
X202050000Y8200000D02*
X205000000Y8200000D01*
X2700480Y-1234514D02*
X-4899040Y-8834034D01*
X-2400000Y-40300000D02*
X-1584994Y-41115006D01*
X-1599519Y5234513D02*
X2700480Y934514D01*
X49650000Y8200000D02*
X53000000Y8200000D01*
X-1584994Y-41115006D02*
X10984994Y-41115006D01*
X183000000Y8200000D02*
X186100000Y8200000D01*
X68700000Y8200000D02*
X72000000Y8200000D01*
X12469912Y-42599924D02*
X15249835Y-42599924D01*
X90900000Y8200000D02*
X87750000Y8200000D01*
X125850000Y8200000D02*
X129000000Y8200000D01*
X-5100000Y8200000D02*
X-5000000Y8100000D01*
X224000000Y8200000D02*
X221100000Y8200000D01*
X-1599519Y6699519D02*
X-1599519Y5234513D01*
X-7500000Y8200000D02*
X-5100000Y8200000D01*
X252400000Y8200000D02*
X249675000Y8200000D01*
X34000000Y8200000D02*
X30600000Y8200000D01*
X144900000Y8200000D02*
X148000000Y8200000D01*
X-4100000Y7200000D02*
X-2100000Y7200000D01*
X-2100000Y7200000D02*
X-1599519Y6699519D01*
X14000000Y8200000D02*
X11550000Y8200000D01*
X-4899040Y-8834034D02*
X-4899040Y-30230972D01*
X-2400000Y-32730012D02*
X-2400000Y-40300000D01*
X106800000Y8200000D02*
X110000000Y8200000D01*
X10984994Y-41115006D02*
X12469912Y-42599924D01*
X-4899040Y-30230972D02*
X-2400000Y-32730012D01*
X-5000000Y8100000D02*
X-4100000Y7200000D01*
X163950000Y8200000D02*
X166900000Y8200000D01*
X2700480Y934514D02*
X2700480Y-1234514D01*
%TO.N,Net-(D16-Pad2)*%
X30600000Y2955000D02*
X31015000Y2540000D01*
X30600000Y4900000D02*
X30600000Y2955000D01*
%TO.N,Net-(D17-Pad2)*%
X49650000Y2955000D02*
X50065000Y2540000D01*
X49650000Y4900000D02*
X49650000Y2955000D01*
%TO.N,Net-(D18-Pad2)*%
X68700000Y2955000D02*
X69115000Y2540000D01*
X68700000Y4900000D02*
X68700000Y2955000D01*
%TO.N,Net-(D19-Pad2)*%
X87750000Y2955000D02*
X88165000Y2540000D01*
X87750000Y4900000D02*
X87750000Y2955000D01*
%TO.N,Net-(D20-Pad2)*%
X106800000Y4900000D02*
X106800000Y2955000D01*
X106800000Y2955000D02*
X107215000Y2540000D01*
%TO.N,Net-(D21-Pad2)*%
X125850000Y2955000D02*
X126265000Y2540000D01*
X125850000Y4900000D02*
X125850000Y2955000D01*
%TO.N,Net-(D22-Pad2)*%
X144900000Y2955000D02*
X145315000Y2540000D01*
X144900000Y4900000D02*
X144900000Y2955000D01*
%TO.N,Net-(D23-Pad2)*%
X163950000Y4900000D02*
X163950000Y2955000D01*
X163950000Y2955000D02*
X164365000Y2540000D01*
%TO.N,Net-(D24-Pad2)*%
X183000000Y4900000D02*
X183000000Y2955000D01*
X183000000Y2955000D02*
X183415000Y2540000D01*
%TO.N,Net-(D25-Pad2)*%
X202050000Y2955000D02*
X202465000Y2540000D01*
X202050000Y4900000D02*
X202050000Y2955000D01*
%TO.N,Net-(D26-Pad2)*%
X221100000Y4900000D02*
X221100000Y2955000D01*
X221100000Y2955000D02*
X221515000Y2540000D01*
%TO.N,Net-(D27-Pad2)*%
X249675000Y2955000D02*
X250090000Y2540000D01*
X249675000Y4900000D02*
X249675000Y2955000D01*
%TO.N,Net-(D28-Pad2)*%
X-2737500Y-14150000D02*
X-2737500Y-16095000D01*
X-2737500Y-16095000D02*
X-2322500Y-16510000D01*
%TO.N,Net-(D29-Pad2)*%
X21075000Y-16095000D02*
X21490000Y-16510000D01*
X21075000Y-14150000D02*
X21075000Y-16095000D01*
%TO.N,Net-(D14-Pad2)*%
X-7500000Y4900000D02*
X-7500000Y2955000D01*
X-7500000Y2955000D02*
X-7085000Y2540000D01*
%TO.N,ROW2*%
X-100000Y-10900000D02*
X-150000Y-10850000D01*
X80850000Y-10850000D02*
X80900000Y-10900000D01*
X254487500Y-10900000D02*
X254437500Y-10850000D01*
X40125000Y-10850000D02*
X43150000Y-10850000D01*
X10100979Y-39030966D02*
X10100979Y-36435986D01*
X-150000Y-10850000D02*
X-2737500Y-10850000D01*
X215050000Y-10850000D02*
X215100000Y-10900000D01*
X154425000Y-10850000D02*
X156950000Y-10850000D01*
X233850000Y-10850000D02*
X233900000Y-10900000D01*
X78225000Y-10850000D02*
X80850000Y-10850000D01*
X-2400000Y-31600000D02*
X-4100000Y-29900000D01*
X10100979Y-36435986D02*
X8865482Y-35200489D01*
X257300000Y-10900000D02*
X254487500Y-10900000D01*
X62050000Y-10850000D02*
X62100000Y-10900000D01*
X176050000Y-10850000D02*
X176100000Y-10900000D01*
X230625000Y-10850000D02*
X233850000Y-10850000D01*
X24150000Y-10850000D02*
X24200000Y-10900000D01*
X118950000Y-10850000D02*
X119000000Y-10800000D01*
X135375000Y-10850000D02*
X138050000Y-10850000D01*
X99950000Y-10850000D02*
X100000000Y-10900000D01*
X7065483Y-35200489D02*
X3464994Y-31600000D01*
X8865482Y-35200489D02*
X7065483Y-35200489D01*
X173475000Y-10850000D02*
X176050000Y-10850000D01*
X-4100000Y-12062500D02*
X-2887500Y-10850000D01*
X-2887500Y-10850000D02*
X-2737500Y-10850000D01*
X59175000Y-10850000D02*
X62050000Y-10850000D01*
X12870088Y-41800076D02*
X10100979Y-39030966D01*
X192525000Y-10850000D02*
X195250000Y-10850000D01*
X3464994Y-31600000D02*
X-2400000Y-31600000D01*
X97275000Y-10850000D02*
X99950000Y-10850000D01*
X156950000Y-10850000D02*
X157000000Y-10900000D01*
X195250000Y-10850000D02*
X195300000Y-10900000D01*
X-4100000Y-29900000D02*
X-4100000Y-12062500D01*
X211575000Y-10850000D02*
X215050000Y-10850000D01*
X116325000Y-10850000D02*
X118950000Y-10850000D01*
X21075000Y-10850000D02*
X24150000Y-10850000D01*
X43150000Y-10850000D02*
X43200000Y-10900000D01*
X15249835Y-41800076D02*
X12870088Y-41800076D01*
X138050000Y-10850000D02*
X138100000Y-10900000D01*
%TO.N,Net-(D31-Pad2)*%
X59175000Y-16095000D02*
X59590000Y-16510000D01*
X59175000Y-14150000D02*
X59175000Y-16095000D01*
%TO.N,Net-(D32-Pad2)*%
X78225000Y-14150000D02*
X78225000Y-16095000D01*
X78225000Y-16095000D02*
X78640000Y-16510000D01*
%TO.N,Net-(D33-Pad2)*%
X97275000Y-14150000D02*
X97275000Y-16095000D01*
X97275000Y-16095000D02*
X97690000Y-16510000D01*
%TO.N,Net-(D34-Pad2)*%
X116325000Y-14150000D02*
X116325000Y-16095000D01*
X116325000Y-16095000D02*
X116740000Y-16510000D01*
%TO.N,Net-(D35-Pad2)*%
X135375000Y-16095000D02*
X135790000Y-16510000D01*
X135375000Y-14150000D02*
X135375000Y-16095000D01*
%TO.N,Net-(D36-Pad2)*%
X154425000Y-14150000D02*
X154425000Y-16095000D01*
X154425000Y-16095000D02*
X154840000Y-16510000D01*
%TO.N,Net-(D37-Pad2)*%
X173475000Y-14150000D02*
X173475000Y-16095000D01*
X173475000Y-16095000D02*
X173890000Y-16510000D01*
%TO.N,Net-(D38-Pad2)*%
X192525000Y-14150000D02*
X192525000Y-16095000D01*
X192525000Y-16095000D02*
X192940000Y-16510000D01*
%TO.N,Net-(D39-Pad2)*%
X211575000Y-16095000D02*
X211990000Y-16510000D01*
X211575000Y-14150000D02*
X211575000Y-16095000D01*
%TO.N,Net-(D40-Pad2)*%
X230625000Y-14150000D02*
X230625000Y-16095000D01*
X230625000Y-16095000D02*
X231040000Y-16510000D01*
%TO.N,Net-(D41-Pad2)*%
X254437500Y-16095000D02*
X254852500Y-16510000D01*
X254437500Y-14150000D02*
X254437500Y-16095000D01*
%TO.N,Net-(D42-Pad2)*%
X-356250Y-35145000D02*
X58750Y-35560000D01*
X-356250Y-33200000D02*
X-356250Y-35145000D01*
%TO.N,Net-(D43-Pad2)*%
X26750000Y-35062500D02*
X26252500Y-35560000D01*
X26750000Y-29600000D02*
X26750000Y-35062500D01*
%TO.N,Net-(D44-Pad2)*%
X44887500Y-33200000D02*
X44887500Y-35145000D01*
X44887500Y-35145000D02*
X45302500Y-35560000D01*
%TO.N,Net-(D15-Pad2)*%
X11550000Y4900000D02*
X11550000Y2955000D01*
X11550000Y2955000D02*
X11965000Y2540000D01*
%TO.N,ROW3*%
X2300000Y-29900000D02*
X2329988Y-29900000D01*
X250300000Y-29900000D02*
X247293750Y-29900000D01*
X159187500Y-29900000D02*
X162100000Y-29900000D01*
X197287500Y-29900000D02*
X200000000Y-29900000D01*
X-356250Y-29900000D02*
X2300000Y-29900000D01*
X63937500Y-29900000D02*
X67000000Y-29900000D01*
X200000000Y-29900000D02*
X200100000Y-30000000D01*
X10500490Y-38865484D02*
X13035031Y-41400025D01*
X121087500Y-29900000D02*
X124100000Y-29900000D01*
X140137500Y-29900000D02*
X143000000Y-29900000D01*
X216337500Y-29900000D02*
X219100000Y-29900000D01*
X7230967Y-34800979D02*
X9030966Y-34800979D01*
X2329988Y-29900000D02*
X7230967Y-34800979D01*
X102037500Y-29900000D02*
X105000000Y-29900000D01*
X178237500Y-29900000D02*
X181100000Y-29900000D01*
X30050000Y-29600000D02*
X30050000Y-28350000D01*
X82987500Y-29900000D02*
X86100000Y-29900000D01*
X30050000Y-28350000D02*
X30600000Y-27800000D01*
X44887500Y-29900000D02*
X48000000Y-29900000D01*
X13035031Y-41400025D02*
X15249835Y-41400025D01*
X9030966Y-34800979D02*
X10500489Y-36270502D01*
X10500489Y-36270502D02*
X10500490Y-38865484D01*
%TO.N,Net-(D46-Pad2)*%
X82987500Y-35145000D02*
X83402500Y-35560000D01*
X82987500Y-33200000D02*
X82987500Y-35145000D01*
%TO.N,Net-(D47-Pad2)*%
X102037500Y-35145000D02*
X102452500Y-35560000D01*
X102037500Y-33200000D02*
X102037500Y-35145000D01*
%TO.N,Net-(D48-Pad2)*%
X121087500Y-33200000D02*
X121087500Y-35145000D01*
X121087500Y-35145000D02*
X121502500Y-35560000D01*
%TO.N,Net-(D49-Pad2)*%
X140137500Y-35145000D02*
X140552500Y-35560000D01*
X140137500Y-33200000D02*
X140137500Y-35145000D01*
%TO.N,Net-(D50-Pad2)*%
X159187500Y-35145000D02*
X159602500Y-35560000D01*
X159187500Y-33200000D02*
X159187500Y-35145000D01*
%TO.N,Net-(D51-Pad2)*%
X178237500Y-33200000D02*
X178237500Y-35145000D01*
X178237500Y-35145000D02*
X178652500Y-35560000D01*
%TO.N,Net-(D52-Pad2)*%
X197287500Y-35145000D02*
X197702500Y-35560000D01*
X197287500Y-33200000D02*
X197287500Y-35145000D01*
%TO.N,Net-(D53-Pad2)*%
X216337500Y-33200000D02*
X216337500Y-35145000D01*
X216337500Y-35145000D02*
X216752500Y-35560000D01*
%TO.N,Net-(D54-Pad2)*%
X247293750Y-35145000D02*
X247708750Y-35560000D01*
X247293750Y-33200000D02*
X247293750Y-35145000D01*
%TO.N,Net-(D55-Pad2)*%
X4406250Y-54195000D02*
X4821250Y-54610000D01*
X4406250Y-52250000D02*
X4406250Y-54195000D01*
%TO.N,Net-(D56-Pad2)*%
X35362500Y-54195000D02*
X35777500Y-54610000D01*
X35362500Y-52250000D02*
X35362500Y-54195000D01*
%TO.N,Net-(D57-Pad2)*%
X54412500Y-52250000D02*
X54412500Y-54195000D01*
X54412500Y-54195000D02*
X54827500Y-54610000D01*
%TO.N,Net-(D58-Pad2)*%
X73462500Y-52250000D02*
X73462500Y-54195000D01*
X73462500Y-54195000D02*
X73877500Y-54610000D01*
%TO.N,ROW4*%
X57050000Y-48950000D02*
X57100000Y-49000000D01*
X92512500Y-48950000D02*
X95050000Y-48950000D01*
X20200051Y-47800051D02*
X20300000Y-47900000D01*
X130612500Y-48950000D02*
X133150000Y-48950000D01*
X172050000Y-48950000D02*
X172100000Y-48900000D01*
X111562500Y-48950000D02*
X114050000Y-48950000D01*
X168712500Y-48950000D02*
X172050000Y-48950000D01*
X20200051Y-46750038D02*
X20200051Y-47800051D01*
X243600000Y-49100000D02*
X243450000Y-48950000D01*
X35362500Y-48950000D02*
X38250000Y-48950000D01*
X206812500Y-48950000D02*
X210050000Y-48950000D01*
X54412500Y-48950000D02*
X57050000Y-48950000D01*
X149662500Y-48950000D02*
X152150000Y-48950000D01*
X6450000Y-48950000D02*
X4406250Y-48950000D01*
X38250000Y-48950000D02*
X38300000Y-49000000D01*
X187762500Y-48950000D02*
X191050000Y-48950000D01*
X95050000Y-48950000D02*
X95100000Y-48900000D01*
X20600000Y-48200000D02*
X20600000Y-48700000D01*
X243450000Y-48950000D02*
X240150000Y-48950000D01*
X73462500Y-48950000D02*
X76050000Y-48950000D01*
X6500000Y-49000000D02*
X6450000Y-48950000D01*
X114050000Y-48950000D02*
X114100000Y-49000000D01*
X76050000Y-48950000D02*
X76100000Y-48900000D01*
X210050000Y-48950000D02*
X210100000Y-49000000D01*
X20300000Y-47900000D02*
X20600000Y-48200000D01*
X133150000Y-48950000D02*
X133200000Y-49000000D01*
X191050000Y-48950000D02*
X191100000Y-49000000D01*
X152150000Y-48950000D02*
X152200000Y-49000000D01*
X20600000Y-48700000D02*
X21600000Y-49700000D01*
%TO.N,Net-(D59-Pad2)*%
X92512500Y-52250000D02*
X92512500Y-54195000D01*
X92512500Y-54195000D02*
X92927500Y-54610000D01*
%TO.N,Net-(D60-Pad2)*%
X111562500Y-54195000D02*
X111977500Y-54610000D01*
X111562500Y-52250000D02*
X111562500Y-54195000D01*
%TO.N,Net-(D61-Pad2)*%
X130612500Y-52250000D02*
X130612500Y-54195000D01*
X130612500Y-54195000D02*
X131027500Y-54610000D01*
%TO.N,Net-(D62-Pad2)*%
X149662500Y-54195000D02*
X150077500Y-54610000D01*
X149662500Y-52250000D02*
X149662500Y-54195000D01*
%TO.N,Net-(D63-Pad2)*%
X168712500Y-52250000D02*
X168712500Y-54195000D01*
X168712500Y-54195000D02*
X169127500Y-54610000D01*
%TO.N,Net-(D64-Pad2)*%
X187762500Y-52250000D02*
X187762500Y-54195000D01*
X187762500Y-54195000D02*
X188177500Y-54610000D01*
%TO.N,Net-(D65-Pad2)*%
X206812500Y-52250000D02*
X206812500Y-54195000D01*
X206812500Y-54195000D02*
X207227500Y-54610000D01*
%TO.N,Net-(D66-Pad2)*%
X240150000Y-52250000D02*
X240150000Y-54195000D01*
X240150000Y-54195000D02*
X240565000Y-54610000D01*
%TO.N,Net-(D67-Pad2)*%
X-7500000Y-71300000D02*
X-7500000Y-73245000D01*
X-7500000Y-73245000D02*
X-7085000Y-73660000D01*
%TO.N,Net-(D68-Pad2)*%
X11550000Y-73245000D02*
X11965000Y-73660000D01*
X11550000Y-71300000D02*
X11550000Y-73245000D01*
%TO.N,Net-(D69-Pad2)*%
X30600000Y-71300000D02*
X30600000Y-73245000D01*
X30600000Y-73245000D02*
X31015000Y-73660000D01*
%TO.N,Net-(D30-Pad2)*%
X40125000Y-16095000D02*
X40540000Y-16510000D01*
X40125000Y-14150000D02*
X40125000Y-16095000D01*
%TO.N,Net-(D71-Pad2)*%
X123468750Y-71300000D02*
X123468750Y-73245000D01*
X123468750Y-73245000D02*
X123883750Y-73660000D01*
%TO.N,ROW5*%
X123468750Y-68000000D02*
X126800000Y-68000000D01*
X30600000Y-68000000D02*
X33600998Y-68000000D01*
X-7500000Y-68000000D02*
X-5100000Y-68000000D01*
X-7534508Y-64265526D02*
X-7534514Y-64265533D01*
X52031250Y-68000000D02*
X55300998Y-68000000D01*
X-4814526Y-41514526D02*
X-7500000Y-44200000D01*
X11550000Y-68000000D02*
X14400000Y-68000000D01*
X-7534514Y-64265533D02*
X-7522744Y-64418463D01*
X55300998Y-68000000D02*
X55500499Y-67800499D01*
X15249835Y-42999975D02*
X12304957Y-42999975D01*
X-7534509Y-64265518D02*
X-7534508Y-64265526D01*
X-7500000Y-64714139D02*
X-7500000Y-68000000D01*
X33600998Y-68000000D02*
X33800499Y-67800499D01*
X-7500000Y-44200000D02*
X-7500000Y-64225258D01*
X262000000Y-68000000D02*
X259200000Y-68000000D01*
X194906250Y-68000000D02*
X198100000Y-68000000D01*
X221100000Y-68000000D02*
X224900000Y-68000000D01*
X240150000Y-68000000D02*
X243400000Y-68000000D01*
X-7522744Y-64418463D02*
X-7500000Y-64714139D01*
X-7500000Y-64225258D02*
X-7534509Y-64265518D01*
X14400000Y-68000000D02*
X14599501Y-67800499D01*
X12304957Y-42999975D02*
X10819508Y-41514526D01*
X10819508Y-41514526D02*
X-4814526Y-41514526D01*
%TO.N,Net-(D72-Pad2)*%
X194906250Y-71300000D02*
X194906250Y-73245000D01*
X194906250Y-73245000D02*
X195321250Y-73660000D01*
%TO.N,Net-(D73-Pad2)*%
X221100000Y-71300000D02*
X221100000Y-73245000D01*
X221100000Y-73245000D02*
X221515000Y-73660000D01*
%TO.N,Net-(D74-Pad2)*%
X240150000Y-73245000D02*
X240565000Y-73660000D01*
X240150000Y-71300000D02*
X240150000Y-73245000D01*
%TO.N,Net-(D75-Pad2)*%
X259200000Y-73245000D02*
X259615000Y-73660000D01*
X259200000Y-71300000D02*
X259200000Y-73245000D01*
%TO.N,Net-(D45-Pad2)*%
X63937500Y-35145000D02*
X64352500Y-35560000D01*
X63937500Y-33200000D02*
X63937500Y-35145000D01*
%TO.N,Net-(D77-Pad2)*%
X29050000Y-42840000D02*
X29050000Y-41362500D01*
X29050000Y-41362500D02*
X29037500Y-41350000D01*
%TO.N,Net-(D70-Pad2)*%
X52031250Y-71300000D02*
X52031250Y-73245000D01*
X52031250Y-73245000D02*
X52446250Y-73660000D01*
D41*
%TO.N,Net-(D76-Pad1)*%
X23100000Y17737500D02*
X23150000Y17687500D01*
X23100000Y19300000D02*
X23100000Y17737500D01*
D39*
%TO.N,Net-(R5-Pad2)*%
X28500000Y-27600000D02*
X28500000Y-26500788D01*
X27510000Y-27800000D02*
X28300000Y-27800000D01*
X28300000Y-27800000D02*
X28500000Y-27600000D01*
%TO.N,USB_MCU+*%
X17800540Y-34999460D02*
X18200000Y-34600000D01*
X17800540Y-39700540D02*
X17800540Y-34999460D01*
X18200000Y-34600000D02*
X18200000Y-34250000D01*
%TO.N,USB_MCU-*%
X17399949Y-35049949D02*
X16600000Y-34250000D01*
X17399949Y-39649962D02*
X17399949Y-35049949D01*
D42*
%TO.N,VBUS*%
X14117823Y24047163D02*
X14117823Y24547163D01*
D40*
X23100000Y22600000D02*
X19465913Y22600000D01*
X19118261Y22947652D02*
X19118261Y24047163D01*
D42*
X15364410Y25793750D02*
X17987500Y25793750D01*
X17987500Y25793750D02*
X18917670Y24863580D01*
D40*
X19465913Y22600000D02*
X19118261Y22947652D01*
D42*
X14117823Y24547163D02*
X15364410Y25793750D01*
X18917670Y24863580D02*
X18917670Y24047163D01*
D39*
%TO.N,+1V1*%
X19399501Y-37200499D02*
X19399501Y-37689744D01*
X18200051Y-46750038D02*
X18200051Y-48299949D01*
X17998984Y-45700000D02*
X18200051Y-45901067D01*
X17800000Y-48700000D02*
X17800000Y-49200000D01*
X17300000Y-40700000D02*
X18799086Y-40700000D01*
X17200000Y-40600000D02*
X16800000Y-41000000D01*
X19000152Y-40498934D02*
X19000152Y-39649962D01*
X16800000Y-41000000D02*
X16800000Y-44900000D01*
X17200000Y-40600000D02*
X17300000Y-40700000D01*
X19399501Y-37689744D02*
X19000152Y-38089093D01*
X18799086Y-40700000D02*
X19000152Y-40498934D01*
X19400000Y-36680000D02*
X19400000Y-37200000D01*
X19000152Y-38089093D02*
X19000152Y-39649962D01*
X17000152Y-40400152D02*
X17200000Y-40600000D01*
X18200051Y-48299949D02*
X17800000Y-48700000D01*
X19400000Y-37200000D02*
X19399501Y-37200499D01*
X18200051Y-45901067D02*
X18200051Y-46750038D01*
X17600000Y-45700000D02*
X17998984Y-45700000D01*
X17000152Y-39649962D02*
X17000152Y-38350152D01*
X17000152Y-38350152D02*
X16650000Y-38000000D01*
X16800000Y-44900000D02*
X17600000Y-45700000D01*
X17000152Y-39649962D02*
X17000152Y-40400152D01*
D43*
%TO.N,Net-(F1-Pad2)*%
X34100000Y-41100000D02*
X33137500Y-42062500D01*
X33137500Y-42062500D02*
X33137500Y-44037500D01*
X36400000Y-37000000D02*
X36400000Y-40400000D01*
X18900000Y4200000D02*
X22200000Y900000D01*
X23150000Y11650000D02*
X18900000Y7400000D01*
X31700000Y-18000000D02*
X31700000Y-32300000D01*
X22200000Y-3500000D02*
X27800000Y-9100000D01*
X35700000Y-41100000D02*
X34100000Y-41100000D01*
X18900000Y7400000D02*
X18900000Y4200000D01*
X27800000Y-14100000D02*
X31700000Y-18000000D01*
X22200000Y900000D02*
X22200000Y-3500000D01*
X31700000Y-32300000D02*
X36400000Y-37000000D01*
X27800000Y-9100000D02*
X27800000Y-14100000D01*
X36400000Y-40400000D02*
X35700000Y-41100000D01*
X23150000Y15812500D02*
X23150000Y11650000D01*
D39*
%TO.N,SWCLK*%
X15200000Y-48600000D02*
X15400000Y-48800000D01*
X15400000Y-48800000D02*
X17094128Y-48800000D01*
X17094128Y-48800000D02*
X17800000Y-48094128D01*
X643038Y-45756962D02*
X7902006Y-45756962D01*
X400000Y-46000000D02*
X643038Y-45756962D01*
X14502581Y-47897599D02*
X15200000Y-48595018D01*
X17800000Y-48094128D02*
X17800000Y-46750038D01*
X15200000Y-48595018D02*
X15200000Y-48600000D01*
X7902006Y-45756962D02*
X10042643Y-47897599D01*
X10042643Y-47897599D02*
X14502581Y-47897599D01*
%TO.N,SWD*%
X16930082Y-48399040D02*
X15569026Y-48399038D01*
X17399949Y-47929173D02*
X16930082Y-48399040D01*
X17399949Y-46750038D02*
X17399949Y-47929173D01*
X15569026Y-48399038D02*
X14668067Y-47498079D01*
X10407022Y-47497058D02*
X10207094Y-47497058D01*
X14668067Y-47498079D02*
X10408043Y-47498079D01*
X-310206Y-45110206D02*
X-1300000Y-46100000D01*
X7820242Y-45110206D02*
X-310206Y-45110206D01*
X10207094Y-47497058D02*
X7820242Y-45110206D01*
X10408043Y-47498079D02*
X10407022Y-47497058D01*
%TO.N,XOUT_MCU*%
X19000430Y-47764496D02*
X19000429Y-46900000D01*
X19600000Y-53800000D02*
X19600000Y-48364066D01*
X19600000Y-48364066D02*
X19000430Y-47764496D01*
%TO.N,USB+*%
X16900000Y22931250D02*
X16968750Y22931250D01*
X17417797Y23148268D02*
X17200779Y22931250D01*
X9325000Y1193200D02*
X17725001Y-7206801D01*
X17725001Y-7206801D02*
X17725001Y-32125001D01*
X17035009Y20916809D02*
X9325000Y13206800D01*
X17200779Y22931250D02*
X16900000Y22931250D01*
X16417797Y23148014D02*
X16417797Y24047163D01*
X17725001Y-32125001D02*
X18200000Y-32600000D01*
X16900000Y22931250D02*
X16634561Y22931250D01*
X17035009Y22864991D02*
X17035009Y20916809D01*
X16634561Y22931250D02*
X16417797Y23148014D01*
X17417797Y24047163D02*
X17417797Y23148268D01*
X9325000Y13206800D02*
X9325000Y1193200D01*
X16968750Y22931250D02*
X17035009Y22864991D01*
%TO.N,USB-*%
X16687500Y25193750D02*
X16917670Y24963580D01*
X16165362Y25193750D02*
X16687500Y25193750D01*
X16585009Y22314991D02*
X16585009Y21103209D01*
X15917670Y22982330D02*
X16585009Y22314991D01*
X16917670Y24963580D02*
X16917670Y24047163D01*
X17274999Y-31925001D02*
X16600000Y-32600000D01*
X15917670Y24047163D02*
X15917670Y22982330D01*
X17274999Y-7393199D02*
X17274999Y-31925001D01*
X15917670Y24946058D02*
X16165362Y25193750D01*
X8875000Y1006800D02*
X17274999Y-7393199D01*
X8875000Y13393200D02*
X8875000Y1006800D01*
X15917670Y24047163D02*
X15917670Y24946058D01*
X16585009Y21103209D02*
X8875000Y13393200D01*
%TO.N,QSPI_SS*%
X25005000Y-28795000D02*
X25005000Y-32900000D01*
X25005000Y-33495000D02*
X25005000Y-32900000D01*
X23000000Y-38390000D02*
X24300000Y-37090000D01*
X21399949Y-39649962D02*
X21740038Y-39649962D01*
X21740038Y-39649962D02*
X23000000Y-38390000D01*
X24300000Y-34200000D02*
X25005000Y-33495000D01*
X26490000Y-27800000D02*
X26000000Y-27800000D01*
X26490000Y-26410000D02*
X26500000Y-26400000D01*
X26000000Y-27800000D02*
X25005000Y-28795000D01*
X24300000Y-37090000D02*
X24300000Y-34200000D01*
X26490000Y-27800000D02*
X26490000Y-26410000D01*
%TO.N,CC2*%
X18417797Y23148522D02*
X18000000Y22730725D01*
X18000000Y21550000D02*
X18450000Y21100000D01*
X18000000Y22730725D02*
X18000000Y21550000D01*
X18417797Y24047163D02*
X18417797Y23148522D01*
X18450000Y21100000D02*
X18990000Y21100000D01*
%TO.N,CC1*%
X15417797Y23017797D02*
X13300000Y20900000D01*
X13300000Y20900000D02*
X11610000Y20900000D01*
X15417797Y24047163D02*
X15417797Y23017797D01*
%TO.N,CLM0*%
X5842000Y5080000D02*
X5900000Y5138000D01*
X5842000Y-71120000D02*
X5854413Y-71120000D01*
X13199975Y-40999975D02*
X10900000Y-38700000D01*
X5854413Y-71120000D02*
X15100000Y-61874413D01*
X7300000Y1000000D02*
X5842000Y2458000D01*
X10900000Y-36700000D02*
X12550000Y-35050000D01*
X5700000Y23988000D02*
X5842000Y24130000D01*
X8800000Y-49600000D02*
X15278250Y-49600000D01*
X5900000Y5138000D02*
X5900000Y16200000D01*
X7100000Y17400000D02*
X7100000Y20300000D01*
X7400500Y-48200500D02*
X8800000Y-49600000D01*
X10604500Y-8604500D02*
X7300000Y-5300000D01*
X5842000Y2458000D02*
X5842000Y5080000D01*
X5700000Y21700000D02*
X5700000Y23988000D01*
X15249835Y-40999975D02*
X13199975Y-40999975D01*
X15278250Y-49600000D02*
X17748250Y-52070000D01*
X12985750Y-33020000D02*
X12985750Y-19285750D01*
X10604500Y-13970000D02*
X10604500Y-8604500D01*
X15100000Y-61874413D02*
X15100000Y-54718250D01*
X5900000Y16200000D02*
X7100000Y17400000D01*
X10900000Y-38700000D02*
X10900000Y-36700000D01*
X15100000Y-54718250D02*
X17748250Y-52070000D01*
X7400000Y-48200500D02*
X7400500Y-48200500D01*
X12550000Y-35050000D02*
X12550000Y-33455750D01*
X12985750Y-19285750D02*
X10604500Y-16904500D01*
X10604500Y-16904500D02*
X10604500Y-13970000D01*
X12550000Y-33455750D02*
X12985750Y-33020000D01*
X7300000Y-5300000D02*
X7300000Y1000000D01*
X7100000Y20300000D02*
X5700000Y21700000D01*
%TO.N,CLM1*%
X39179500Y-21179500D02*
X39179500Y-33020000D01*
X42800000Y15000000D02*
X40200000Y12400000D01*
X-4703360Y-45358402D02*
X-4703360Y-61596640D01*
X24892000Y-69608000D02*
X24892000Y-71120000D01*
X6700000Y-73500000D02*
X6700000Y-74369988D01*
X7107559Y-74777547D02*
X7107559Y-78835011D01*
X8151190Y-44311166D02*
X-3656124Y-44311166D01*
X-3800000Y-62500000D02*
X700000Y-62500000D01*
X33500000Y-61000000D02*
X24892000Y-69608000D01*
X14999039Y-46699039D02*
X10739014Y-46699038D01*
X40400000Y-34240500D02*
X40400000Y-41300000D01*
X15900000Y-47600000D02*
X14999039Y-46699039D01*
X10738016Y-46698040D02*
X10538064Y-46698040D01*
X22400000Y-73612000D02*
X24892000Y-71120000D01*
X8775482Y-80502934D02*
X21197066Y-80502934D01*
X24892000Y7992000D02*
X24892000Y5080000D01*
X29300000Y12400000D02*
X24892000Y7992000D01*
X22400000Y-79300000D02*
X22400000Y-73612000D01*
X24892000Y5080000D02*
X24892000Y2508000D01*
X34417000Y-13970000D02*
X34417000Y-16417000D01*
X40400000Y-41300000D02*
X33500000Y-48200000D01*
X700000Y-62500000D02*
X6700000Y-68500000D01*
X24892000Y2508000D02*
X34417000Y-7017000D01*
X16600102Y-46750038D02*
X16600102Y-47599009D01*
X39179500Y-33020000D02*
X40400000Y-34240500D01*
X16600102Y-47599009D02*
X16599111Y-47600000D01*
X7107559Y-78835011D02*
X8775482Y-80502934D01*
X6700000Y-74369988D02*
X7107559Y-74777547D01*
X-3656124Y-44311166D02*
X-4703360Y-45358402D01*
X10739014Y-46699038D02*
X10738016Y-46698040D01*
X10538064Y-46698040D02*
X8151190Y-44311166D01*
X33500000Y-48200000D02*
X33500000Y-61000000D01*
X34417000Y-7017000D02*
X34417000Y-13970000D01*
X41560750Y24130000D02*
X42800000Y22890750D01*
X-4703360Y-61596640D02*
X-3800000Y-62500000D01*
X16599111Y-47600000D02*
X15900000Y-47600000D01*
X34417000Y-16417000D02*
X39179500Y-21179500D01*
X40200000Y12400000D02*
X29300000Y12400000D01*
X21197066Y-80502934D02*
X22400000Y-79300000D01*
X42800000Y22890750D02*
X42800000Y15000000D01*
%TO.N,CLM2*%
X49567021Y-52932521D02*
X49567021Y-60632979D01*
X6708040Y-74943034D02*
X6708040Y-79000486D01*
X6708040Y-79000486D02*
X8609999Y-80902445D01*
X-3821610Y-43911646D02*
X-5102880Y-45192916D01*
X58400000Y-40800000D02*
X55200000Y-40800000D01*
X53467000Y-6867000D02*
X53467000Y-13970000D01*
X58229500Y-33020000D02*
X58200000Y-33049500D01*
X48000000Y12300000D02*
X43942000Y8242000D01*
X43942000Y8242000D02*
X43942000Y5080000D01*
X-5102880Y-64172088D02*
X-1474469Y-67800499D01*
X48704500Y-52070000D02*
X49567021Y-52932521D01*
X8316664Y-43911646D02*
X-3821610Y-43911646D01*
X58200000Y-33049500D02*
X58200000Y-35600000D01*
X-1474469Y-67800499D02*
X5000996Y-67800499D01*
X43942000Y5080000D02*
X43942000Y2658000D01*
X5699503Y-73500000D02*
X5699503Y-73934497D01*
X10904501Y-46299519D02*
X10903513Y-46298531D01*
X15749532Y-46299519D02*
X10904501Y-46299519D01*
X43942000Y2658000D02*
X53467000Y-6867000D01*
X10235492Y-45830471D02*
X8316664Y-43911646D01*
X59400000Y-36800000D02*
X59400000Y-39800000D01*
X5000996Y-67800499D02*
X5700497Y-68500000D01*
X39397555Y-80902445D02*
X41300000Y-79000000D01*
X-5102880Y-45192916D02*
X-5102880Y-64172088D01*
X10703545Y-46298529D02*
X10235492Y-45830471D01*
X5699503Y-73934497D02*
X6708040Y-74943034D01*
X49567021Y-60632979D02*
X43942000Y-66258000D01*
X61800000Y22940750D02*
X61800000Y15300000D01*
X61800000Y15300000D02*
X58800000Y12300000D01*
X53467000Y-16267000D02*
X58229500Y-21029500D01*
X60610750Y24130000D02*
X61800000Y22940750D01*
X16200051Y-46750038D02*
X15749532Y-46299519D01*
X8609999Y-80902445D02*
X39397555Y-80902445D01*
X41300000Y-73762000D02*
X43942000Y-71120000D01*
X48704500Y-47295500D02*
X48704500Y-52070000D01*
X58200000Y-35600000D02*
X59400000Y-36800000D01*
X10903513Y-46298531D02*
X10703545Y-46298529D01*
X58229500Y-21029500D02*
X58229500Y-33020000D01*
X41300000Y-79000000D02*
X41300000Y-73762000D01*
X43942000Y-66258000D02*
X43942000Y-71120000D01*
X53467000Y-13970000D02*
X53467000Y-16267000D01*
X59400000Y-39800000D02*
X58400000Y-40800000D01*
X58800000Y12300000D02*
X48000000Y12300000D01*
X55200000Y-40800000D02*
X48704500Y-47295500D01*
%TO.N,CLM3*%
X65373250Y-71120000D02*
X65373250Y-65426750D01*
X67754500Y-52070000D02*
X67754500Y-47945500D01*
X81100000Y15000000D02*
X81100000Y22690750D01*
X-1339974Y-68500000D02*
X4700000Y-68500000D01*
X79700000Y-30599500D02*
X79700000Y-22800000D01*
X14730774Y-45800076D02*
X14631811Y-45899039D01*
X10635004Y-45664990D02*
X8482138Y-43512126D01*
X62992000Y2408000D02*
X62992000Y5080000D01*
X78600000Y-39800000D02*
X78600000Y-36400000D01*
X11069009Y-45899021D02*
X10869031Y-45899020D01*
X15249835Y-45800076D02*
X14730774Y-45800076D01*
X10869031Y-45899020D02*
X10635004Y-45664990D01*
X68700000Y-53015500D02*
X67754500Y-52070000D01*
X60599964Y-81301956D02*
X62500000Y-79401920D01*
X67754500Y-47945500D02*
X74900000Y-40800000D01*
X14300352Y-45899511D02*
X14199528Y-45899510D01*
X14199038Y-45900000D02*
X11069988Y-45900000D01*
X72517000Y-15617000D02*
X72517000Y-13970000D01*
X78600000Y-36400000D02*
X77300000Y-35100000D01*
X6300000Y-76717392D02*
X6300000Y-79157440D01*
X74900000Y-40800000D02*
X77600000Y-40800000D01*
X65373250Y-65426750D02*
X68700000Y-62100000D01*
X-4203778Y-65636196D02*
X-1339974Y-68500000D01*
X62500000Y-73993250D02*
X65373250Y-71120000D01*
X77600000Y-40800000D02*
X78600000Y-39800000D01*
X62992000Y5080000D02*
X62992000Y9392000D01*
X6308520Y-76708872D02*
X6300000Y-76717392D01*
X-4203828Y-65636196D02*
X-4203778Y-65636196D01*
X6308520Y-75108520D02*
X6308520Y-76708872D01*
X65800000Y12200000D02*
X78300000Y12200000D01*
X77300000Y-33040500D02*
X77279500Y-33020000D01*
X8482138Y-43512126D02*
X-3987096Y-43512126D01*
X14631811Y-45899039D02*
X14300826Y-45899038D01*
X14199528Y-45899510D02*
X14199038Y-45900000D01*
X6300000Y-79157440D02*
X8444516Y-81301956D01*
X-3987096Y-43512126D02*
X-5502400Y-45027430D01*
X77300000Y-35100000D02*
X77300000Y-33040500D01*
X79700000Y-22800000D02*
X72517000Y-15617000D01*
X8444516Y-81301956D02*
X60599964Y-81301956D01*
X77279500Y-33020000D02*
X79700000Y-30599500D01*
X4700000Y-73500000D02*
X6308520Y-75108520D01*
X72517000Y-13970000D02*
X72517000Y-7117000D01*
X11069988Y-45900000D02*
X11069009Y-45899021D01*
X-5502400Y-64337624D02*
X-4203828Y-65636196D01*
X72517000Y-7117000D02*
X62992000Y2408000D01*
X62500000Y-79401920D02*
X62500000Y-73993250D01*
X81100000Y22690750D02*
X79660750Y24130000D01*
X-5502400Y-45027430D02*
X-5502400Y-64337624D01*
X68700000Y-62100000D02*
X68700000Y-53015500D01*
X62992000Y9392000D02*
X65800000Y12200000D01*
X14300826Y-45899038D02*
X14300352Y-45899511D01*
X78300000Y12200000D02*
X81100000Y15000000D01*
%TO.N,CLM4*%
X96329500Y-21329500D02*
X96329500Y-33020000D01*
X82042000Y9742000D02*
X82042000Y5080000D01*
X99573271Y23267479D02*
X99573271Y14973271D01*
X82042000Y2558000D02*
X91567000Y-6967000D01*
X86800000Y-54300000D02*
X86800000Y-52074500D01*
X96400000Y-33090500D02*
X96400000Y-34900000D01*
X28897560Y-49672530D02*
X28898079Y-49673049D01*
X86800000Y-52074500D02*
X86804500Y-52070000D01*
X91567000Y-13970000D02*
X91567000Y-16567000D01*
X84500000Y12200000D02*
X82042000Y9742000D01*
X96329500Y-33020000D02*
X96400000Y-33090500D01*
X28897558Y-49472604D02*
X28897562Y-49472608D01*
X97700000Y-36200000D02*
X97700000Y-39000000D01*
X96800000Y12200000D02*
X84500000Y12200000D01*
X24624937Y-44999975D02*
X28897558Y-49272596D01*
X28900000Y-50001921D02*
X28900000Y-59840335D01*
X91567000Y-6967000D02*
X91567000Y-13970000D01*
X22350165Y-44999975D02*
X24624937Y-44999975D01*
X86804500Y-47195500D02*
X86804500Y-52070000D01*
X99573271Y14973271D02*
X96800000Y12200000D01*
X82042000Y5080000D02*
X82042000Y2558000D01*
X95700000Y-41000000D02*
X93000000Y-41000000D01*
X96400000Y-34900000D02*
X97700000Y-36200000D01*
X91567000Y-16567000D02*
X96329500Y-21329500D01*
X93000000Y-41000000D02*
X86804500Y-47195500D01*
X98710750Y24130000D02*
X99573271Y23267479D01*
X28900000Y-59840335D02*
X29198060Y-60138395D01*
X28897558Y-49272596D02*
X28897558Y-49472604D01*
X28898079Y-49673049D02*
X28898079Y-50000000D01*
X28897562Y-49472608D02*
X28897560Y-49672530D01*
X97700000Y-39000000D02*
X95700000Y-41000000D01*
X28898079Y-50000000D02*
X28900000Y-50001921D01*
%TO.N,CLM5*%
X28498043Y-49638077D02*
X28498048Y-49638082D01*
X28498048Y-49638082D02*
X28498046Y-49738078D01*
X110617000Y-13970000D02*
X110617000Y-6817000D01*
X28498560Y-49838536D02*
X28498560Y-60830820D01*
X125900000Y11900000D02*
X128148271Y14148271D01*
X115379500Y-35379500D02*
X115379500Y-33020000D01*
X113000000Y-40400000D02*
X115400000Y-40400000D01*
X115379500Y-20879500D02*
X110617000Y-16117000D01*
X116900000Y-38900000D02*
X116900000Y-36900000D01*
X115379500Y-33020000D02*
X115379500Y-20879500D01*
X28498048Y-49738080D02*
X28498047Y-49838023D01*
X110617000Y-6817000D02*
X101092000Y2708000D01*
X105800000Y-54200000D02*
X105800000Y-52124500D01*
X28498047Y-49838023D02*
X28498560Y-49838536D01*
X105854500Y-47545500D02*
X113000000Y-40400000D01*
X28498044Y-49438074D02*
X28498043Y-49638077D01*
X101092000Y2708000D02*
X101092000Y5080000D01*
X128148271Y23267479D02*
X127285750Y24130000D01*
X128148271Y14148271D02*
X128148271Y23267479D01*
X116900000Y-36900000D02*
X115379500Y-35379500D01*
X115400000Y-40400000D02*
X116900000Y-38900000D01*
X101092000Y5080000D02*
X101092000Y7992000D01*
X24459995Y-45400025D02*
X28498044Y-49438074D01*
X28498046Y-49738078D02*
X28498048Y-49738080D01*
X105800000Y-52124500D02*
X105854500Y-52070000D01*
X110617000Y-16117000D02*
X110617000Y-13970000D01*
X105854500Y-52070000D02*
X105854500Y-47545500D01*
X101092000Y7992000D02*
X105000000Y11900000D01*
X105000000Y11900000D02*
X125900000Y11900000D01*
X28498560Y-60830820D02*
X28798540Y-61130800D01*
X22350165Y-45400025D02*
X24459995Y-45400025D01*
%TO.N,CLM6*%
X134429500Y-33020000D02*
X134500000Y-33090500D01*
X136810750Y-66110750D02*
X136810750Y-71120000D01*
X5800960Y-79223393D02*
X8279033Y-81701467D01*
X14466325Y-45499519D02*
X11234525Y-45499519D01*
X15249835Y-45400025D02*
X14565819Y-45400025D01*
X129667000Y-13970000D02*
X129667000Y-16267000D01*
X1821884Y-72998525D02*
X2046017Y-72998525D01*
X124904500Y-52070000D02*
X124904500Y-54204500D01*
X134200000Y-78700000D02*
X134200000Y-73730750D01*
X129667000Y-16267000D02*
X134429500Y-21029500D01*
X77705017Y-79300000D02*
X133600000Y-79300000D01*
X1821876Y-72998517D02*
X1821884Y-72998525D01*
X1801041Y-72998517D02*
X1821876Y-72998517D01*
X75303550Y-81701467D02*
X77705017Y-79300000D01*
X132000000Y-40300000D02*
X124904500Y-47395500D01*
X124904500Y-47395500D02*
X124904500Y-52070000D01*
X134600000Y-40300000D02*
X132000000Y-40300000D01*
X11234525Y-45499519D02*
X11234517Y-45499511D01*
X8647613Y-43112607D02*
X-4152583Y-43112607D01*
X-301467Y-71498532D02*
X847952Y-72647947D01*
X-4152583Y-43112607D02*
X-5901919Y-44861943D01*
X5800960Y-79223358D02*
X5800960Y-79223393D01*
X3799022Y-74751532D02*
X3799022Y-77221420D01*
X1751589Y-72988220D02*
X1785035Y-72985179D01*
X133600000Y-79300000D02*
X134200000Y-78700000D01*
X136100000Y-37100000D02*
X136100000Y-38800000D01*
X-301467Y-70103514D02*
X-301467Y-71498532D01*
X2046017Y-72998525D02*
X3799022Y-74751532D01*
X120142000Y2658000D02*
X129667000Y-6867000D01*
X11234517Y-45499511D02*
X11034516Y-45499510D01*
X134429500Y-21029500D02*
X134429500Y-33020000D01*
X11034516Y-45499510D02*
X10800489Y-45265482D01*
X-4369303Y-66035715D02*
X-4369266Y-66035715D01*
X847952Y-72647947D02*
X1000123Y-72647948D01*
X-4369266Y-66035715D02*
X-301467Y-70103514D01*
X1785035Y-72985179D02*
X1801041Y-72998517D01*
X134500000Y-33090500D02*
X134500000Y-35500000D01*
X-5901920Y-64503098D02*
X-4369303Y-66035715D01*
X136100000Y-38800000D02*
X134600000Y-40300000D01*
X1000123Y-72647948D02*
X1411318Y-72647949D01*
X10800489Y-45265482D02*
X8647613Y-43112607D01*
X129667000Y-6867000D02*
X129667000Y-13970000D01*
X124904500Y-54204500D02*
X136810750Y-66110750D01*
X134200000Y-73730750D02*
X136810750Y-71120000D01*
X3799022Y-77221420D02*
X5800960Y-79223358D01*
X8279033Y-81701467D02*
X75303550Y-81701467D01*
X1411318Y-72647949D02*
X1751589Y-72988220D01*
X134500000Y-35500000D02*
X136100000Y-37100000D01*
X14565819Y-45400025D02*
X14466325Y-45499519D01*
X120142000Y5080000D02*
X120142000Y2658000D01*
X-5901919Y-44861943D02*
X-5901920Y-64503098D01*
%TO.N,CLM7*%
X22350165Y-45800076D02*
X24295054Y-45800076D01*
X153500000Y-33040500D02*
X153479500Y-33020000D01*
X28098535Y-49903558D02*
X28098534Y-50003516D01*
X148717000Y-16717000D02*
X148717000Y-13970000D01*
X150950000Y-40750000D02*
X153650000Y-40750000D01*
X143900000Y-52124500D02*
X143954500Y-52070000D01*
X143954500Y-52070000D02*
X143954500Y-47745500D01*
X139192000Y2308000D02*
X139192000Y5080000D01*
X149579521Y23267479D02*
X148717000Y24130000D01*
X149579521Y14579521D02*
X149579521Y23267479D01*
X143900000Y-54100000D02*
X143900000Y-52124500D01*
X155200000Y-39200000D02*
X155200000Y-36900000D01*
X147000000Y12000000D02*
X149579521Y14579521D01*
X28098533Y-49603555D02*
X28098532Y-49903555D01*
X28099040Y-50004022D02*
X28099040Y-61806633D01*
X139192000Y5080000D02*
X139192000Y9392000D01*
X139192000Y9392000D02*
X141800000Y12000000D01*
X155200000Y-36900000D02*
X153500000Y-35200000D01*
X148717000Y-13970000D02*
X148717000Y-7217000D01*
X28098534Y-50003516D02*
X28099040Y-50004022D01*
X143954500Y-47745500D02*
X150950000Y-40750000D01*
X148717000Y-7217000D02*
X139192000Y2308000D01*
X153479500Y-33020000D02*
X153479500Y-21479500D01*
X153479500Y-21479500D02*
X148717000Y-16717000D01*
X24295054Y-45800076D02*
X28098533Y-49603555D01*
X153500000Y-35200000D02*
X153500000Y-33040500D01*
X28098532Y-49903555D02*
X28098535Y-49903558D01*
X141800000Y12000000D02*
X147000000Y12000000D01*
X28099040Y-61806633D02*
X28399020Y-62106613D01*
X153650000Y-40750000D02*
X155200000Y-39200000D01*
%TO.N,CLM8*%
X158242000Y10042000D02*
X158242000Y5080000D01*
X24680024Y-46750038D02*
X27699022Y-49769036D01*
X174400000Y-39400000D02*
X173100000Y-40700000D01*
X167767000Y24130000D02*
X168629521Y23267479D01*
X21399949Y-46750038D02*
X24680024Y-46750038D01*
X27699021Y-50169009D02*
X27699039Y-50169027D01*
X168629521Y14829521D02*
X165900000Y12100000D01*
X158242000Y2258000D02*
X167767000Y-7267000D01*
X27699022Y-49769036D02*
X27699021Y-50169009D01*
X174400000Y-37500000D02*
X174400000Y-39400000D01*
X167767000Y-7267000D02*
X167767000Y-13970000D01*
X158242000Y5080000D02*
X158242000Y2258000D01*
X172529500Y-21429500D02*
X172529500Y-33020000D01*
X168629521Y23267479D02*
X168629521Y14829521D01*
X163004500Y-47495500D02*
X163004500Y-52070000D01*
X165900000Y12100000D02*
X160300000Y12100000D01*
X163100000Y-54300000D02*
X163100000Y-52165500D01*
X27699039Y-50169027D02*
X27699039Y-50300000D01*
X167767000Y-13970000D02*
X167767000Y-16667000D01*
X27699039Y-50300000D02*
X27699520Y-50300481D01*
X160300000Y12100000D02*
X158242000Y10042000D01*
X172529500Y-35629500D02*
X174400000Y-37500000D01*
X172529500Y-33020000D02*
X172529500Y-35629500D01*
X169800000Y-40700000D02*
X163004500Y-47495500D01*
X27699520Y-62800500D02*
X27999020Y-63100000D01*
X173100000Y-40700000D02*
X169800000Y-40700000D01*
X167767000Y-16667000D02*
X172529500Y-21429500D01*
X163100000Y-52165500D02*
X163004500Y-52070000D01*
X27699520Y-50300481D02*
X27699520Y-62800500D01*
%TO.N,CLM9*%
X186817000Y-13970000D02*
X186817000Y-6417000D01*
X191579500Y-35479500D02*
X191579500Y-33020000D01*
X177292000Y5080000D02*
X177292000Y8192000D01*
X187800000Y23147000D02*
X186817000Y24130000D01*
X191579500Y-33020000D02*
X194100000Y-30499500D01*
X21000152Y-47434054D02*
X21266587Y-47700489D01*
X27299520Y-50334514D02*
X27299520Y-63699520D01*
X185100000Y11900000D02*
X187800000Y14600000D01*
X27299511Y-50334505D02*
X27299520Y-50334514D01*
X177292000Y3108000D02*
X177292000Y5080000D01*
X27299511Y-49934518D02*
X27299511Y-50334505D01*
X182054500Y-52070000D02*
X182054500Y-47045500D01*
X193700000Y-39700000D02*
X193700000Y-37600000D01*
X21266587Y-47700489D02*
X25065482Y-47700489D01*
X182100000Y-52115500D02*
X182054500Y-52070000D01*
X21000152Y-46750038D02*
X21000152Y-47434054D01*
X186817000Y-6417000D02*
X177292000Y3108000D01*
X27299520Y-63699520D02*
X27700000Y-64100000D01*
X25065482Y-47700489D02*
X27299511Y-49934518D01*
X193700000Y-37600000D02*
X191579500Y-35479500D01*
X194100000Y-22900000D02*
X186817000Y-15617000D01*
X186817000Y-15617000D02*
X186817000Y-13970000D01*
X188200000Y-40900000D02*
X192500000Y-40900000D01*
X182054500Y-47045500D02*
X188200000Y-40900000D01*
X187800000Y14600000D02*
X187800000Y23147000D01*
X181000000Y11900000D02*
X185100000Y11900000D01*
X177292000Y8192000D02*
X181000000Y11900000D01*
X192500000Y-40900000D02*
X193700000Y-39700000D01*
X182100000Y-54200000D02*
X182100000Y-52115500D01*
X194100000Y-30499500D02*
X194100000Y-22900000D01*
%TO.N,CLM10*%
X201104500Y-47795500D02*
X201104500Y-52070000D01*
X216254521Y14754521D02*
X213400000Y11900000D01*
X201104500Y-54204500D02*
X208248250Y-61348250D01*
X205867000Y-13970000D02*
X205867000Y-16667000D01*
X207900000Y-41000000D02*
X201104500Y-47795500D01*
X210629500Y-33020000D02*
X210629500Y-35529500D01*
X208248250Y-61348250D02*
X208248250Y-71120000D01*
X216254521Y23267479D02*
X216254521Y14754521D01*
X211600000Y-41000000D02*
X207900000Y-41000000D01*
X20600102Y-47599010D02*
X20600102Y-46750038D01*
X205867000Y-6967000D02*
X205867000Y-13970000D01*
X213400000Y11900000D02*
X200900000Y11900000D01*
X212600000Y-37500000D02*
X212600000Y-40000000D01*
X212600000Y-40000000D02*
X211600000Y-41000000D01*
X205867000Y-16667000D02*
X210629500Y-21429500D01*
X215392000Y24130000D02*
X216254521Y23267479D01*
X26900000Y-64640973D02*
X26900000Y-50100000D01*
X21101092Y-48100000D02*
X20600102Y-47599010D01*
X200900000Y11900000D02*
X196342000Y7342000D01*
X24900000Y-48100000D02*
X21101092Y-48100000D01*
X210629500Y-21429500D02*
X210629500Y-33020000D01*
X201104500Y-52070000D02*
X201104500Y-54204500D01*
X210629500Y-35529500D02*
X212600000Y-37500000D01*
X196342000Y2558000D02*
X205867000Y-6967000D01*
X26900000Y-50100000D02*
X24900000Y-48100000D01*
X27253009Y-64993982D02*
X26900000Y-64640973D01*
X196342000Y5080000D02*
X196342000Y2558000D01*
X196342000Y7342000D02*
X196342000Y5080000D01*
%TO.N,CLM11*%
X215392000Y9292000D02*
X218100000Y12000000D01*
X234442000Y-69342000D02*
X220154500Y-55054500D01*
X-700978Y-70269035D02*
X-700977Y-71664016D01*
X220154500Y-47645500D02*
X226800000Y-41000000D01*
X220154500Y-52070000D02*
X220154500Y-47645500D01*
X230100000Y-41000000D02*
X231500000Y-39600000D01*
X231500000Y-39600000D02*
X231500000Y-36900000D01*
X-4318056Y-42713086D02*
X-6301430Y-44696460D01*
X1596412Y-73398037D02*
X1880535Y-73398037D01*
X-700977Y-71664016D02*
X682469Y-73047458D01*
X229679500Y-21379500D02*
X224917000Y-16617000D01*
X1880535Y-73398037D02*
X3399511Y-74917014D01*
X14400863Y-44999975D02*
X14300838Y-45100000D01*
X11200000Y-45100000D02*
X8813086Y-42713086D01*
X230500000Y-79700000D02*
X231500000Y-78700000D01*
X226800000Y-41000000D02*
X230100000Y-41000000D01*
X235400000Y23172000D02*
X234442000Y24130000D01*
X229679500Y-33020000D02*
X229679500Y-21379500D01*
X15249835Y-44999975D02*
X14400863Y-44999975D01*
X84529034Y-79700978D02*
X84530012Y-79700000D01*
X224917000Y-6217000D02*
X215392000Y3308000D01*
X3399511Y-74917014D02*
X3399511Y-77386938D01*
X1245834Y-73047459D02*
X1596412Y-73398037D01*
X75469034Y-82100977D02*
X77869036Y-79700978D01*
X215392000Y5080000D02*
X215392000Y9292000D01*
X231500000Y-74062000D02*
X234442000Y-71120000D01*
X229679500Y-35079500D02*
X229679500Y-33020000D01*
X231500000Y-78700000D02*
X231500000Y-74062000D01*
X218100000Y12000000D02*
X232000000Y12000000D01*
X234442000Y-71120000D02*
X234442000Y-69342000D01*
X14300838Y-45100000D02*
X11200000Y-45100000D01*
X224917000Y-13970000D02*
X224917000Y-6217000D01*
X224917000Y-16617000D02*
X224917000Y-13970000D01*
X682469Y-73047458D02*
X1245834Y-73047459D01*
X8113551Y-82100978D02*
X75469034Y-82100977D01*
X84530012Y-79700000D02*
X230500000Y-79700000D01*
X220154500Y-55054500D02*
X220154500Y-52070000D01*
X215392000Y3308000D02*
X215392000Y5080000D01*
X231500000Y-36900000D02*
X229679500Y-35079500D01*
X235400000Y15400000D02*
X235400000Y23172000D01*
X-6301430Y-64668583D02*
X-700978Y-70269035D01*
X232000000Y12000000D02*
X235400000Y15400000D01*
X8813086Y-42713086D02*
X-4318056Y-42713086D01*
X77869036Y-79700978D02*
X84529034Y-79700978D01*
X-6301430Y-44696460D02*
X-6301430Y-64668583D01*
X3399511Y-77386938D02*
X8113551Y-82100978D01*
%TO.N,CLM12*%
X-6700960Y-44530972D02*
X-6700960Y-64520814D01*
X1527788Y-73810895D02*
X1543784Y-73824224D01*
X243967000Y-12367000D02*
X243967000Y-13970000D01*
X-6700941Y-64834065D02*
X-6700941Y-64834078D01*
X7948069Y-82500489D02*
X75634517Y-82500489D01*
X75634517Y-82500489D02*
X78034518Y-80100489D01*
X10488536Y-42313566D02*
X-4483554Y-42313566D01*
X260635750Y-33020000D02*
X260635750Y-35335750D01*
X-6216706Y-65318311D02*
X-6214430Y-65341069D01*
X236400000Y-4800000D02*
X243967000Y-12367000D01*
X1053975Y-73446969D02*
X1212225Y-73578844D01*
X78034518Y-80100489D02*
X84694529Y-80100489D01*
X256100000Y-61500000D02*
X253600000Y-64000000D01*
X-6687072Y-64864230D02*
X-6573086Y-64961932D01*
X-6214430Y-65341069D02*
X-6101777Y-65433240D01*
X234442000Y5080000D02*
X234500000Y5022000D01*
X237100000Y12100000D02*
X234442000Y9442000D01*
X-5998851Y-65536165D02*
X-5998841Y-65536165D01*
X253600000Y-71012000D02*
X253492000Y-71120000D01*
X234442000Y9442000D02*
X234442000Y5080000D01*
X234500000Y2800000D02*
X236400000Y900000D01*
X1212225Y-73578844D02*
X1430928Y-73797547D01*
X256100000Y-57800000D02*
X256100000Y-61500000D01*
X253492000Y24130000D02*
X254900000Y22722000D01*
X11975046Y-43800076D02*
X10488536Y-42313566D01*
X262800000Y-39800000D02*
X261600000Y-41000000D01*
X243967000Y-13970000D02*
X244270000Y-13970000D01*
X251100000Y12100000D02*
X237100000Y12100000D01*
X1474657Y-73797547D02*
X1494295Y-73813915D01*
X1494295Y-73813915D02*
X1494331Y-73813912D01*
X3000000Y-75082496D02*
X3000000Y-77552410D01*
X84694529Y-80100489D02*
X84695498Y-80099520D01*
X-6712457Y-64534227D02*
X-6700960Y-64683687D01*
X1494361Y-73813937D02*
X1527788Y-73810895D01*
X5001920Y-79554342D02*
X7948069Y-82500489D01*
X249700480Y-80099520D02*
X250900000Y-78900000D01*
X254900000Y22722000D02*
X254900000Y15900000D01*
X1543784Y-73824224D02*
X1725230Y-73807726D01*
X-5998841Y-65536165D02*
X-1100489Y-70434517D01*
X253492000Y-52070000D02*
X253600000Y-52178000D01*
X-1100487Y-71829500D02*
X516986Y-73446969D01*
X-6688429Y-64846590D02*
X-6687072Y-64864230D01*
X-6700960Y-64683687D02*
X-6700960Y-64834046D01*
X244270000Y-13970000D02*
X260635750Y-30335750D01*
X-6700941Y-64834078D02*
X-6688429Y-64846590D01*
X253600000Y-52178000D02*
X253600000Y-55300000D01*
X1430928Y-73797547D02*
X1474657Y-73797547D01*
X254900000Y15900000D02*
X251100000Y12100000D01*
X261600000Y-41000000D02*
X260200000Y-41000000D01*
X5001920Y-79554330D02*
X5001920Y-79554342D01*
X-6101777Y-65433240D02*
X-5998851Y-65536165D01*
X-1100489Y-70434517D02*
X-1100487Y-71829500D01*
X516986Y-73446969D02*
X1053975Y-73446969D01*
X236400000Y900000D02*
X236400000Y-4800000D01*
X-6573086Y-64961932D02*
X-6216706Y-65318311D01*
X-6700960Y-64834046D02*
X-6700941Y-64834065D01*
X234500000Y5022000D02*
X234500000Y2800000D01*
X1725230Y-73807726D02*
X3000000Y-75082496D01*
X-6700960Y-64520814D02*
X-6712457Y-64534227D01*
X253600000Y-64000000D02*
X253600000Y-71012000D01*
X253492000Y-47708000D02*
X253492000Y-52070000D01*
X253600000Y-55300000D02*
X256100000Y-57800000D01*
X84695498Y-80099520D02*
X249700480Y-80099520D01*
X250900000Y-78900000D02*
X250900000Y-73712000D01*
X15249835Y-43800076D02*
X11975046Y-43800076D01*
X260635750Y-30335750D02*
X260635750Y-33020000D01*
X250900000Y-73712000D02*
X253492000Y-71120000D01*
X3000000Y-77552410D02*
X5001920Y-79554330D01*
X1494331Y-73813912D02*
X1494361Y-73813937D01*
X262800000Y-37500000D02*
X262800000Y-39800000D01*
X260635750Y-35335750D02*
X262800000Y-37500000D01*
X260200000Y-41000000D02*
X253492000Y-47708000D01*
X-4483554Y-42313566D02*
X-6700960Y-44530972D01*
%TO.N,CLM13*%
X267779500Y-11720500D02*
X266400000Y-10341000D01*
X2600000Y-75300000D02*
X2600000Y-77717416D01*
X78200000Y-80500000D02*
X268500000Y-80500000D01*
X1399177Y-74223761D02*
X1415158Y-74237079D01*
X1415164Y-74237078D02*
X1415166Y-74237080D01*
X267779500Y-13970000D02*
X267779500Y-11720500D01*
X267870000Y-13970000D02*
X267779500Y-13970000D01*
X1362563Y-74225789D02*
X1364292Y-74225645D01*
X-7100479Y-64999533D02*
X-7075427Y-65024585D01*
X270155479Y14355479D02*
X270155479Y19655479D01*
X1526917Y-74226917D02*
X2600000Y-75300000D01*
X269900000Y-73762000D02*
X272542000Y-71120000D01*
X-6595492Y-65545483D02*
X-6595490Y-65545486D01*
X15249835Y-43400025D02*
X12140001Y-43400025D01*
X270155479Y19655479D02*
X272542000Y22042000D01*
X1365727Y-74226789D02*
X1365750Y-74226787D01*
X-6844731Y-65255281D02*
X-6600042Y-65499970D01*
X-7072713Y-65059868D02*
X-6844731Y-65255281D01*
X266400000Y-10341000D02*
X266400000Y-300000D01*
X-7100480Y-44365486D02*
X-7100479Y-64373033D01*
X272542000Y-71120000D02*
X274400000Y-69262000D01*
X269900000Y-79100000D02*
X269900000Y-73762000D01*
X1265446Y-74197058D02*
X1328608Y-74197058D01*
X272542000Y22042000D02*
X272542000Y24130000D01*
X274400000Y-69262000D02*
X274400000Y-20500000D01*
X-1499998Y-71994984D02*
X351504Y-73846480D01*
X-4649040Y-41914046D02*
X-7100480Y-44365486D01*
X268500000Y-80500000D02*
X269900000Y-79100000D01*
X-6600042Y-65499970D02*
X-6595492Y-65545483D01*
X266400000Y-300000D02*
X263017000Y3083000D01*
X-6370191Y-65729821D02*
X-1500009Y-70600003D01*
X1365624Y-74226755D02*
X1365680Y-74226750D01*
X263017000Y5080000D02*
X263017000Y7217000D01*
X274400000Y-20500000D02*
X267870000Y-13970000D01*
X12140001Y-43400025D02*
X10654022Y-41914046D01*
X1415166Y-74237080D02*
X1526917Y-74226917D01*
X-7100479Y-64698932D02*
X-7100479Y-64999533D01*
X1328608Y-74197058D02*
X1362563Y-74225789D01*
X-1500009Y-71994972D02*
X-1499998Y-71994984D01*
X-6595490Y-65545486D02*
X-6370191Y-65729821D01*
X909330Y-73846479D02*
X942553Y-73874164D01*
X10654022Y-41914046D02*
X-4649040Y-41914046D01*
X-7123483Y-64399873D02*
X-7100479Y-64698932D01*
X1365680Y-74226750D02*
X1365727Y-74226789D01*
X-7100479Y-64373033D02*
X-7123483Y-64399873D01*
X1365768Y-74226802D02*
X1399177Y-74223761D01*
X942553Y-73874164D02*
X1265446Y-74197058D01*
X75800001Y-82899999D02*
X78200000Y-80500000D01*
X7782584Y-82900000D02*
X75800001Y-82899999D01*
X1364292Y-74225645D02*
X1365624Y-74226755D01*
X-7075427Y-65024585D02*
X-7072713Y-65059868D01*
X2600000Y-77717416D02*
X7782584Y-82900000D01*
X1365750Y-74226787D02*
X1365768Y-74226802D01*
X351504Y-73846480D02*
X909330Y-73846479D01*
X1415158Y-74237079D02*
X1415164Y-74237078D01*
X263017000Y7217000D02*
X270155479Y14355479D01*
X-1500009Y-70600003D02*
X-1500009Y-71994972D01*
X263017000Y3083000D02*
X263017000Y5080000D01*
%TO.N,QSPI_SD3*%
X20384994Y-34684994D02*
X19600000Y-33900000D01*
X20800000Y-23400000D02*
X22800000Y-23400000D01*
X19399949Y-38254290D02*
X19799012Y-37855226D01*
X19399949Y-39649962D02*
X19399949Y-38254290D01*
X22800000Y-23400000D02*
X23735000Y-24335000D01*
X19799012Y-37855226D02*
X19799012Y-37435982D01*
X19600000Y-33900000D02*
X19600000Y-24600000D01*
X19600000Y-24600000D02*
X20800000Y-23400000D01*
X19799012Y-37435982D02*
X20384994Y-36850000D01*
X23735000Y-24335000D02*
X23735000Y-25700000D01*
X20384994Y-36850000D02*
X20384994Y-34684994D01*
%TO.N,QSPI_SCLK*%
X19800000Y-38419233D02*
X20198523Y-38020708D01*
X19800000Y-39649962D02*
X19800000Y-38419233D01*
X21000000Y-34140717D02*
X20300499Y-33441216D01*
X20300499Y-33441216D02*
X20300499Y-25099501D01*
X20198523Y-38020708D02*
X20198523Y-37618974D01*
X20300499Y-25099501D02*
X21200000Y-24200000D01*
X21200000Y-24200000D02*
X22000000Y-24200000D01*
X22465000Y-24665000D02*
X22465000Y-25700000D01*
X22000000Y-24200000D02*
X22465000Y-24665000D01*
X20198523Y-37618974D02*
X21000000Y-36817497D01*
X21000000Y-36817497D02*
X21000000Y-34140717D01*
%TO.N,QSPI_SD0*%
X20200051Y-38584176D02*
X21794520Y-36989707D01*
X21799501Y-26304501D02*
X21195000Y-25700000D01*
X21794520Y-36989707D02*
X21794520Y-31194725D01*
X21799501Y-31189744D02*
X21799501Y-26304501D01*
X20200051Y-39649962D02*
X20200051Y-38584176D01*
X21794520Y-31194725D02*
X21799501Y-31189744D01*
%TO.N,QSPI_SD2*%
X20600102Y-38749118D02*
X22465000Y-36884220D01*
X22465000Y-36884220D02*
X22465000Y-32900000D01*
X20600102Y-39649962D02*
X20600102Y-38749118D01*
%TO.N,QSPI_SD1*%
X21000152Y-38914061D02*
X23735000Y-36179213D01*
X23735000Y-36179213D02*
X23735000Y-32900000D01*
X21000152Y-39649962D02*
X21000152Y-38914061D01*
%TD*%
M02*
