%TF.GenerationSoftware,KiCad,Pcbnew,(6.0.5-0)*%
%TF.CreationDate,2022-06-28T22:26:51+09:00*%
%TF.ProjectId,key-ripper,6b65792d-7269-4707-9065-722e6b696361,rev?*%
%TF.SameCoordinates,Original*%
%TF.FileFunction,Legend,Bot*%
%TF.FilePolarity,Positive*%
%FSLAX46Y46*%
G04 Gerber Fmt 4.6, Leading zero omitted, Abs format (unit mm)*
G04 Created by KiCad (PCBNEW (6.0.5-0)) date 2022-06-28 22:26:51*
%MOMM*%
%LPD*%
G01*
G04 APERTURE LIST*
%ADD10C,0.150000*%
%ADD11C,0.130000*%
%ADD12C,0.120000*%
%ADD13C,0.254001*%
%ADD14C,0.059995*%
G04 APERTURE END LIST*
D10*
X24282843Y-52300000D02*
G75*
G03*
X24282843Y-52300000I-282843J0D01*
G01*
X26382843Y-33000000D02*
G75*
G03*
X26382843Y-33000000I-282843J0D01*
G01*
X27619047Y-40071428D02*
X28380952Y-40071428D01*
X28000000Y-40452380D02*
X28000000Y-39690476D01*
X-4480952Y-14871428D02*
X-3719047Y-14871428D01*
X-4100000Y-15252380D02*
X-4100000Y-14490476D01*
D11*
X20395238Y27738095D02*
X20395238Y27166666D01*
X20433333Y27052380D01*
X20509523Y26976190D01*
X20623809Y26938095D01*
X20700000Y26938095D01*
X19633333Y26938095D02*
X20014285Y26938095D01*
X20014285Y27738095D01*
X18909523Y27014285D02*
X18947619Y26976190D01*
X19061904Y26938095D01*
X19138095Y26938095D01*
X19252380Y26976190D01*
X19328571Y27052380D01*
X19366666Y27128571D01*
X19404761Y27280952D01*
X19404761Y27395238D01*
X19366666Y27547619D01*
X19328571Y27623809D01*
X19252380Y27700000D01*
X19138095Y27738095D01*
X19061904Y27738095D01*
X18947619Y27700000D01*
X18909523Y27661904D01*
X18338095Y27738095D02*
X18338095Y27166666D01*
X18376190Y27052380D01*
X18452380Y26976190D01*
X18566666Y26938095D01*
X18642857Y26938095D01*
X17576190Y26938095D02*
X17957142Y26938095D01*
X17957142Y27738095D01*
X16852380Y27014285D02*
X16890476Y26976190D01*
X17004761Y26938095D01*
X17080952Y26938095D01*
X17195238Y26976190D01*
X17271428Y27052380D01*
X17309523Y27128571D01*
X17347619Y27280952D01*
X17347619Y27395238D01*
X17309523Y27547619D01*
X17271428Y27623809D01*
X17195238Y27700000D01*
X17080952Y27738095D01*
X17004761Y27738095D01*
X16890476Y27700000D01*
X16852380Y27661904D01*
X16280952Y27738095D02*
X16280952Y27166666D01*
X16319047Y27052380D01*
X16395238Y26976190D01*
X16509523Y26938095D01*
X16585714Y26938095D01*
X15519047Y26938095D02*
X15900000Y26938095D01*
X15900000Y27738095D01*
X14795238Y27014285D02*
X14833333Y26976190D01*
X14947619Y26938095D01*
X15023809Y26938095D01*
X15138095Y26976190D01*
X15214285Y27052380D01*
X15252380Y27128571D01*
X15290476Y27280952D01*
X15290476Y27395238D01*
X15252380Y27547619D01*
X15214285Y27623809D01*
X15138095Y27700000D01*
X15023809Y27738095D01*
X14947619Y27738095D01*
X14833333Y27700000D01*
X14795238Y27661904D01*
X14223809Y27738095D02*
X14223809Y27166666D01*
X14261904Y27052380D01*
X14338095Y26976190D01*
X14452380Y26938095D01*
X14528571Y26938095D01*
X13461904Y26938095D02*
X13842857Y26938095D01*
X13842857Y27738095D01*
X12738095Y27014285D02*
X12776190Y26976190D01*
X12890476Y26938095D01*
X12966666Y26938095D01*
X13080952Y26976190D01*
X13157142Y27052380D01*
X13195238Y27128571D01*
X13233333Y27280952D01*
X13233333Y27395238D01*
X13195238Y27547619D01*
X13157142Y27623809D01*
X13080952Y27700000D01*
X12966666Y27738095D01*
X12890476Y27738095D01*
X12776190Y27700000D01*
X12738095Y27661904D01*
D10*
X-9080952Y-72071428D02*
X-8319047Y-72071428D01*
X-8700000Y-72452380D02*
X-8700000Y-71690476D01*
X26119047Y-31171428D02*
X26880952Y-31171428D01*
X26500000Y-31552380D02*
X26500000Y-30790476D01*
X-8980952Y23228571D02*
X-8219047Y23228571D01*
X-8600000Y22847619D02*
X-8600000Y23609523D01*
X-9080952Y4128571D02*
X-8319047Y4128571D01*
X-8700000Y3747619D02*
X-8700000Y4509523D01*
X419047Y-33671428D02*
X1180952Y-33671428D01*
X800000Y-34052380D02*
X800000Y-33290476D01*
X270485714Y-56097379D02*
X270485714Y-55097379D01*
X270390476Y-55716427D02*
X270104761Y-56097379D01*
X270104761Y-55430713D02*
X270485714Y-55811665D01*
X269295238Y-56049760D02*
X269390476Y-56097379D01*
X269580952Y-56097379D01*
X269676190Y-56049760D01*
X269723809Y-55954522D01*
X269723809Y-55573570D01*
X269676190Y-55478332D01*
X269580952Y-55430713D01*
X269390476Y-55430713D01*
X269295238Y-55478332D01*
X269247619Y-55573570D01*
X269247619Y-55668808D01*
X269723809Y-55764046D01*
X268914285Y-55430713D02*
X268676190Y-56097379D01*
X268438095Y-55430713D02*
X268676190Y-56097379D01*
X268771428Y-56335475D01*
X268819047Y-56383094D01*
X268914285Y-56430713D01*
X268057142Y-55716427D02*
X267295238Y-55716427D01*
X266819047Y-56097379D02*
X266819047Y-55430713D01*
X266819047Y-55621189D02*
X266771428Y-55525951D01*
X266723809Y-55478332D01*
X266628571Y-55430713D01*
X266533333Y-55430713D01*
X266200000Y-56097379D02*
X266200000Y-55430713D01*
X266200000Y-55097379D02*
X266247619Y-55144999D01*
X266200000Y-55192618D01*
X266152380Y-55144999D01*
X266200000Y-55097379D01*
X266200000Y-55192618D01*
X265723809Y-55430713D02*
X265723809Y-56430713D01*
X265723809Y-55478332D02*
X265628571Y-55430713D01*
X265438095Y-55430713D01*
X265342857Y-55478332D01*
X265295238Y-55525951D01*
X265247619Y-55621189D01*
X265247619Y-55906903D01*
X265295238Y-56002141D01*
X265342857Y-56049760D01*
X265438095Y-56097379D01*
X265628571Y-56097379D01*
X265723809Y-56049760D01*
X264819047Y-55430713D02*
X264819047Y-56430713D01*
X264819047Y-55478332D02*
X264723809Y-55430713D01*
X264533333Y-55430713D01*
X264438095Y-55478332D01*
X264390476Y-55525951D01*
X264342857Y-55621189D01*
X264342857Y-55906903D01*
X264390476Y-56002141D01*
X264438095Y-56049760D01*
X264533333Y-56097379D01*
X264723809Y-56097379D01*
X264819047Y-56049760D01*
X263533333Y-56049760D02*
X263628571Y-56097379D01*
X263819047Y-56097379D01*
X263914285Y-56049760D01*
X263961904Y-55954522D01*
X263961904Y-55573570D01*
X263914285Y-55478332D01*
X263819047Y-55430713D01*
X263628571Y-55430713D01*
X263533333Y-55478332D01*
X263485714Y-55573570D01*
X263485714Y-55668808D01*
X263961904Y-55764046D01*
X263057142Y-56097379D02*
X263057142Y-55430713D01*
X263057142Y-55621189D02*
X263009523Y-55525951D01*
X262961904Y-55478332D01*
X262866666Y-55430713D01*
X262771428Y-55430713D01*
X268128571Y-57040713D02*
X267890476Y-57707379D01*
X267652380Y-57040713D01*
X267080952Y-56707379D02*
X266985714Y-56707379D01*
X266890476Y-56754999D01*
X266842857Y-56802618D01*
X266795238Y-56897856D01*
X266747619Y-57088332D01*
X266747619Y-57326427D01*
X266795238Y-57516903D01*
X266842857Y-57612141D01*
X266890476Y-57659760D01*
X266985714Y-57707379D01*
X267080952Y-57707379D01*
X267176190Y-57659760D01*
X267223809Y-57612141D01*
X267271428Y-57516903D01*
X267319047Y-57326427D01*
X267319047Y-57088332D01*
X267271428Y-56897856D01*
X267223809Y-56802618D01*
X267176190Y-56754999D01*
X267080952Y-56707379D01*
X266319047Y-57612141D02*
X266271428Y-57659760D01*
X266319047Y-57707379D01*
X266366666Y-57659760D01*
X266319047Y-57612141D01*
X266319047Y-57707379D01*
X265319047Y-57707379D02*
X265890476Y-57707379D01*
X265604761Y-57707379D02*
X265604761Y-56707379D01*
X265700000Y-56850237D01*
X265795238Y-56945475D01*
X265890476Y-56993094D01*
X24419047Y23028571D02*
X25180952Y23028571D01*
X24800000Y22647619D02*
X24800000Y23409523D01*
X5219047Y-52771428D02*
X5980952Y-52771428D01*
X5600000Y-53152380D02*
X5600000Y-52390476D01*
%TO.C,D52*%
X195739880Y-30335714D02*
X194739880Y-30335714D01*
X194739880Y-30573809D01*
X194787500Y-30716666D01*
X194882738Y-30811904D01*
X194977976Y-30859523D01*
X195168452Y-30907142D01*
X195311309Y-30907142D01*
X195501785Y-30859523D01*
X195597023Y-30811904D01*
X195692261Y-30716666D01*
X195739880Y-30573809D01*
X195739880Y-30335714D01*
X194739880Y-31811904D02*
X194739880Y-31335714D01*
X195216071Y-31288095D01*
X195168452Y-31335714D01*
X195120833Y-31430952D01*
X195120833Y-31669047D01*
X195168452Y-31764285D01*
X195216071Y-31811904D01*
X195311309Y-31859523D01*
X195549404Y-31859523D01*
X195644642Y-31811904D01*
X195692261Y-31764285D01*
X195739880Y-31669047D01*
X195739880Y-31430952D01*
X195692261Y-31335714D01*
X195644642Y-31288095D01*
X194835119Y-32240476D02*
X194787500Y-32288095D01*
X194739880Y-32383333D01*
X194739880Y-32621428D01*
X194787500Y-32716666D01*
X194835119Y-32764285D01*
X194930357Y-32811904D01*
X195025595Y-32811904D01*
X195168452Y-32764285D01*
X195739880Y-32192857D01*
X195739880Y-32811904D01*
%TO.C,D37*%
X171927380Y-11285714D02*
X170927380Y-11285714D01*
X170927380Y-11523809D01*
X170975000Y-11666666D01*
X171070238Y-11761904D01*
X171165476Y-11809523D01*
X171355952Y-11857142D01*
X171498809Y-11857142D01*
X171689285Y-11809523D01*
X171784523Y-11761904D01*
X171879761Y-11666666D01*
X171927380Y-11523809D01*
X171927380Y-11285714D01*
X170927380Y-12190476D02*
X170927380Y-12809523D01*
X171308333Y-12476190D01*
X171308333Y-12619047D01*
X171355952Y-12714285D01*
X171403571Y-12761904D01*
X171498809Y-12809523D01*
X171736904Y-12809523D01*
X171832142Y-12761904D01*
X171879761Y-12714285D01*
X171927380Y-12619047D01*
X171927380Y-12333333D01*
X171879761Y-12238095D01*
X171832142Y-12190476D01*
X170927380Y-13142857D02*
X170927380Y-13809523D01*
X171927380Y-13380952D01*
%TO.C,C9*%
X10466666Y-39857142D02*
X10514285Y-39904761D01*
X10657142Y-39952380D01*
X10752380Y-39952380D01*
X10895238Y-39904761D01*
X10990476Y-39809523D01*
X11038095Y-39714285D01*
X11085714Y-39523809D01*
X11085714Y-39380952D01*
X11038095Y-39190476D01*
X10990476Y-39095238D01*
X10895238Y-39000000D01*
X10752380Y-38952380D01*
X10657142Y-38952380D01*
X10514285Y-39000000D01*
X10466666Y-39047619D01*
X9990476Y-39952380D02*
X9800000Y-39952380D01*
X9704761Y-39904761D01*
X9657142Y-39857142D01*
X9561904Y-39714285D01*
X9514285Y-39523809D01*
X9514285Y-39142857D01*
X9561904Y-39047619D01*
X9609523Y-39000000D01*
X9704761Y-38952380D01*
X9895238Y-38952380D01*
X9990476Y-39000000D01*
X10038095Y-39047619D01*
X10085714Y-39142857D01*
X10085714Y-39380952D01*
X10038095Y-39476190D01*
X9990476Y-39523809D01*
X9895238Y-39571428D01*
X9704761Y-39571428D01*
X9609523Y-39523809D01*
X9561904Y-39476190D01*
X9514285Y-39380952D01*
%TO.C,D47*%
X100489880Y-30335714D02*
X99489880Y-30335714D01*
X99489880Y-30573809D01*
X99537500Y-30716666D01*
X99632738Y-30811904D01*
X99727976Y-30859523D01*
X99918452Y-30907142D01*
X100061309Y-30907142D01*
X100251785Y-30859523D01*
X100347023Y-30811904D01*
X100442261Y-30716666D01*
X100489880Y-30573809D01*
X100489880Y-30335714D01*
X99823214Y-31764285D02*
X100489880Y-31764285D01*
X99442261Y-31526190D02*
X100156547Y-31288095D01*
X100156547Y-31907142D01*
X99489880Y-32192857D02*
X99489880Y-32859523D01*
X100489880Y-32430952D01*
%TO.C,C2*%
X16227142Y-35443333D02*
X16274761Y-35395714D01*
X16322380Y-35252857D01*
X16322380Y-35157619D01*
X16274761Y-35014761D01*
X16179523Y-34919523D01*
X16084285Y-34871904D01*
X15893809Y-34824285D01*
X15750952Y-34824285D01*
X15560476Y-34871904D01*
X15465238Y-34919523D01*
X15370000Y-35014761D01*
X15322380Y-35157619D01*
X15322380Y-35252857D01*
X15370000Y-35395714D01*
X15417619Y-35443333D01*
X15417619Y-35824285D02*
X15370000Y-35871904D01*
X15322380Y-35967142D01*
X15322380Y-36205238D01*
X15370000Y-36300476D01*
X15417619Y-36348095D01*
X15512857Y-36395714D01*
X15608095Y-36395714D01*
X15750952Y-36348095D01*
X16322380Y-35776666D01*
X16322380Y-36395714D01*
%TO.C,D10*%
X200502380Y26814285D02*
X199502380Y26814285D01*
X199502380Y26576190D01*
X199550000Y26433333D01*
X199645238Y26338095D01*
X199740476Y26290476D01*
X199930952Y26242857D01*
X200073809Y26242857D01*
X200264285Y26290476D01*
X200359523Y26338095D01*
X200454761Y26433333D01*
X200502380Y26576190D01*
X200502380Y26814285D01*
X200502380Y25290476D02*
X200502380Y25861904D01*
X200502380Y25576190D02*
X199502380Y25576190D01*
X199645238Y25671428D01*
X199740476Y25766666D01*
X199788095Y25861904D01*
X199502380Y24671428D02*
X199502380Y24576190D01*
X199550000Y24480952D01*
X199597619Y24433333D01*
X199692857Y24385714D01*
X199883333Y24338095D01*
X200121428Y24338095D01*
X200311904Y24385714D01*
X200407142Y24433333D01*
X200454761Y24480952D01*
X200502380Y24576190D01*
X200502380Y24671428D01*
X200454761Y24766666D01*
X200407142Y24814285D01*
X200311904Y24861904D01*
X200121428Y24909523D01*
X199883333Y24909523D01*
X199692857Y24861904D01*
X199597619Y24814285D01*
X199550000Y24766666D01*
X199502380Y24671428D01*
%TO.C,D7*%
X133827380Y26338095D02*
X132827380Y26338095D01*
X132827380Y26100000D01*
X132875000Y25957142D01*
X132970238Y25861904D01*
X133065476Y25814285D01*
X133255952Y25766666D01*
X133398809Y25766666D01*
X133589285Y25814285D01*
X133684523Y25861904D01*
X133779761Y25957142D01*
X133827380Y26100000D01*
X133827380Y26338095D01*
X132827380Y25433333D02*
X132827380Y24766666D01*
X133827380Y25195238D01*
%TO.C,D1*%
X-4247619Y25188095D02*
X-5247619Y25188095D01*
X-5247619Y24950000D01*
X-5200000Y24807142D01*
X-5104761Y24711904D01*
X-5009523Y24664285D01*
X-4819047Y24616666D01*
X-4676190Y24616666D01*
X-4485714Y24664285D01*
X-4390476Y24711904D01*
X-4295238Y24807142D01*
X-4247619Y24950000D01*
X-4247619Y25188095D01*
X-4247619Y23664285D02*
X-4247619Y24235714D01*
X-4247619Y23950000D02*
X-5247619Y23950000D01*
X-5104761Y24045238D01*
X-5009523Y24140476D01*
X-4961904Y24235714D01*
%TO.C,D30*%
X38577380Y-11285714D02*
X37577380Y-11285714D01*
X37577380Y-11523809D01*
X37625000Y-11666666D01*
X37720238Y-11761904D01*
X37815476Y-11809523D01*
X38005952Y-11857142D01*
X38148809Y-11857142D01*
X38339285Y-11809523D01*
X38434523Y-11761904D01*
X38529761Y-11666666D01*
X38577380Y-11523809D01*
X38577380Y-11285714D01*
X37577380Y-12190476D02*
X37577380Y-12809523D01*
X37958333Y-12476190D01*
X37958333Y-12619047D01*
X38005952Y-12714285D01*
X38053571Y-12761904D01*
X38148809Y-12809523D01*
X38386904Y-12809523D01*
X38482142Y-12761904D01*
X38529761Y-12714285D01*
X38577380Y-12619047D01*
X38577380Y-12333333D01*
X38529761Y-12238095D01*
X38482142Y-12190476D01*
X37577380Y-13428571D02*
X37577380Y-13523809D01*
X37625000Y-13619047D01*
X37672619Y-13666666D01*
X37767857Y-13714285D01*
X37958333Y-13761904D01*
X38196428Y-13761904D01*
X38386904Y-13714285D01*
X38482142Y-13666666D01*
X38529761Y-13619047D01*
X38577380Y-13523809D01*
X38577380Y-13428571D01*
X38529761Y-13333333D01*
X38482142Y-13285714D01*
X38386904Y-13238095D01*
X38196428Y-13190476D01*
X37958333Y-13190476D01*
X37767857Y-13238095D01*
X37672619Y-13285714D01*
X37625000Y-13333333D01*
X37577380Y-13428571D01*
%TO.C,C1*%
X10466666Y-38257142D02*
X10514285Y-38304761D01*
X10657142Y-38352380D01*
X10752380Y-38352380D01*
X10895238Y-38304761D01*
X10990476Y-38209523D01*
X11038095Y-38114285D01*
X11085714Y-37923809D01*
X11085714Y-37780952D01*
X11038095Y-37590476D01*
X10990476Y-37495238D01*
X10895238Y-37400000D01*
X10752380Y-37352380D01*
X10657142Y-37352380D01*
X10514285Y-37400000D01*
X10466666Y-37447619D01*
X9514285Y-38352380D02*
X10085714Y-38352380D01*
X9800000Y-38352380D02*
X9800000Y-37352380D01*
X9895238Y-37495238D01*
X9990476Y-37590476D01*
X10085714Y-37638095D01*
%TO.C,D46*%
X81439880Y-30335714D02*
X80439880Y-30335714D01*
X80439880Y-30573809D01*
X80487500Y-30716666D01*
X80582738Y-30811904D01*
X80677976Y-30859523D01*
X80868452Y-30907142D01*
X81011309Y-30907142D01*
X81201785Y-30859523D01*
X81297023Y-30811904D01*
X81392261Y-30716666D01*
X81439880Y-30573809D01*
X81439880Y-30335714D01*
X80773214Y-31764285D02*
X81439880Y-31764285D01*
X80392261Y-31526190D02*
X81106547Y-31288095D01*
X81106547Y-31907142D01*
X80439880Y-32716666D02*
X80439880Y-32526190D01*
X80487500Y-32430952D01*
X80535119Y-32383333D01*
X80677976Y-32288095D01*
X80868452Y-32240476D01*
X81249404Y-32240476D01*
X81344642Y-32288095D01*
X81392261Y-32335714D01*
X81439880Y-32430952D01*
X81439880Y-32621428D01*
X81392261Y-32716666D01*
X81344642Y-32764285D01*
X81249404Y-32811904D01*
X81011309Y-32811904D01*
X80916071Y-32764285D01*
X80868452Y-32716666D01*
X80820833Y-32621428D01*
X80820833Y-32430952D01*
X80868452Y-32335714D01*
X80916071Y-32288095D01*
X81011309Y-32240476D01*
%TO.C,D31*%
X57627380Y-11285714D02*
X56627380Y-11285714D01*
X56627380Y-11523809D01*
X56675000Y-11666666D01*
X56770238Y-11761904D01*
X56865476Y-11809523D01*
X57055952Y-11857142D01*
X57198809Y-11857142D01*
X57389285Y-11809523D01*
X57484523Y-11761904D01*
X57579761Y-11666666D01*
X57627380Y-11523809D01*
X57627380Y-11285714D01*
X56627380Y-12190476D02*
X56627380Y-12809523D01*
X57008333Y-12476190D01*
X57008333Y-12619047D01*
X57055952Y-12714285D01*
X57103571Y-12761904D01*
X57198809Y-12809523D01*
X57436904Y-12809523D01*
X57532142Y-12761904D01*
X57579761Y-12714285D01*
X57627380Y-12619047D01*
X57627380Y-12333333D01*
X57579761Y-12238095D01*
X57532142Y-12190476D01*
X57627380Y-13761904D02*
X57627380Y-13190476D01*
X57627380Y-13476190D02*
X56627380Y-13476190D01*
X56770238Y-13380952D01*
X56865476Y-13285714D01*
X56913095Y-13190476D01*
%TO.C,D12*%
X238602380Y26814285D02*
X237602380Y26814285D01*
X237602380Y26576190D01*
X237650000Y26433333D01*
X237745238Y26338095D01*
X237840476Y26290476D01*
X238030952Y26242857D01*
X238173809Y26242857D01*
X238364285Y26290476D01*
X238459523Y26338095D01*
X238554761Y26433333D01*
X238602380Y26576190D01*
X238602380Y26814285D01*
X238602380Y25290476D02*
X238602380Y25861904D01*
X238602380Y25576190D02*
X237602380Y25576190D01*
X237745238Y25671428D01*
X237840476Y25766666D01*
X237888095Y25861904D01*
X237697619Y24909523D02*
X237650000Y24861904D01*
X237602380Y24766666D01*
X237602380Y24528571D01*
X237650000Y24433333D01*
X237697619Y24385714D01*
X237792857Y24338095D01*
X237888095Y24338095D01*
X238030952Y24385714D01*
X238602380Y24957142D01*
X238602380Y24338095D01*
%TO.C,C18*%
X-2757142Y-52857142D02*
X-2709523Y-52904761D01*
X-2566666Y-52952380D01*
X-2471428Y-52952380D01*
X-2328571Y-52904761D01*
X-2233333Y-52809523D01*
X-2185714Y-52714285D01*
X-2138095Y-52523809D01*
X-2138095Y-52380952D01*
X-2185714Y-52190476D01*
X-2233333Y-52095238D01*
X-2328571Y-52000000D01*
X-2471428Y-51952380D01*
X-2566666Y-51952380D01*
X-2709523Y-52000000D01*
X-2757142Y-52047619D01*
X-3709523Y-52952380D02*
X-3138095Y-52952380D01*
X-3423809Y-52952380D02*
X-3423809Y-51952380D01*
X-3328571Y-52095238D01*
X-3233333Y-52190476D01*
X-3138095Y-52238095D01*
X-4280952Y-52380952D02*
X-4185714Y-52333333D01*
X-4138095Y-52285714D01*
X-4090476Y-52190476D01*
X-4090476Y-52142857D01*
X-4138095Y-52047619D01*
X-4185714Y-52000000D01*
X-4280952Y-51952380D01*
X-4471428Y-51952380D01*
X-4566666Y-52000000D01*
X-4614285Y-52047619D01*
X-4661904Y-52142857D01*
X-4661904Y-52190476D01*
X-4614285Y-52285714D01*
X-4566666Y-52333333D01*
X-4471428Y-52380952D01*
X-4280952Y-52380952D01*
X-4185714Y-52428571D01*
X-4138095Y-52476190D01*
X-4090476Y-52571428D01*
X-4090476Y-52761904D01*
X-4138095Y-52857142D01*
X-4185714Y-52904761D01*
X-4280952Y-52952380D01*
X-4471428Y-52952380D01*
X-4566666Y-52904761D01*
X-4614285Y-52857142D01*
X-4661904Y-52761904D01*
X-4661904Y-52571428D01*
X-4614285Y-52476190D01*
X-4566666Y-52428571D01*
X-4471428Y-52380952D01*
%TO.C,D32*%
X76677380Y-11285714D02*
X75677380Y-11285714D01*
X75677380Y-11523809D01*
X75725000Y-11666666D01*
X75820238Y-11761904D01*
X75915476Y-11809523D01*
X76105952Y-11857142D01*
X76248809Y-11857142D01*
X76439285Y-11809523D01*
X76534523Y-11761904D01*
X76629761Y-11666666D01*
X76677380Y-11523809D01*
X76677380Y-11285714D01*
X75677380Y-12190476D02*
X75677380Y-12809523D01*
X76058333Y-12476190D01*
X76058333Y-12619047D01*
X76105952Y-12714285D01*
X76153571Y-12761904D01*
X76248809Y-12809523D01*
X76486904Y-12809523D01*
X76582142Y-12761904D01*
X76629761Y-12714285D01*
X76677380Y-12619047D01*
X76677380Y-12333333D01*
X76629761Y-12238095D01*
X76582142Y-12190476D01*
X75772619Y-13190476D02*
X75725000Y-13238095D01*
X75677380Y-13333333D01*
X75677380Y-13571428D01*
X75725000Y-13666666D01*
X75772619Y-13714285D01*
X75867857Y-13761904D01*
X75963095Y-13761904D01*
X76105952Y-13714285D01*
X76677380Y-13142857D01*
X76677380Y-13761904D01*
%TO.C,D11*%
X219552380Y26814285D02*
X218552380Y26814285D01*
X218552380Y26576190D01*
X218600000Y26433333D01*
X218695238Y26338095D01*
X218790476Y26290476D01*
X218980952Y26242857D01*
X219123809Y26242857D01*
X219314285Y26290476D01*
X219409523Y26338095D01*
X219504761Y26433333D01*
X219552380Y26576190D01*
X219552380Y26814285D01*
X219552380Y25290476D02*
X219552380Y25861904D01*
X219552380Y25576190D02*
X218552380Y25576190D01*
X218695238Y25671428D01*
X218790476Y25766666D01*
X218838095Y25861904D01*
X219552380Y24338095D02*
X219552380Y24909523D01*
X219552380Y24623809D02*
X218552380Y24623809D01*
X218695238Y24719047D01*
X218790476Y24814285D01*
X218838095Y24909523D01*
%TO.C,D20*%
X105252380Y7764285D02*
X104252380Y7764285D01*
X104252380Y7526190D01*
X104300000Y7383333D01*
X104395238Y7288095D01*
X104490476Y7240476D01*
X104680952Y7192857D01*
X104823809Y7192857D01*
X105014285Y7240476D01*
X105109523Y7288095D01*
X105204761Y7383333D01*
X105252380Y7526190D01*
X105252380Y7764285D01*
X104347619Y6811904D02*
X104300000Y6764285D01*
X104252380Y6669047D01*
X104252380Y6430952D01*
X104300000Y6335714D01*
X104347619Y6288095D01*
X104442857Y6240476D01*
X104538095Y6240476D01*
X104680952Y6288095D01*
X105252380Y6859523D01*
X105252380Y6240476D01*
X104252380Y5621428D02*
X104252380Y5526190D01*
X104300000Y5430952D01*
X104347619Y5383333D01*
X104442857Y5335714D01*
X104633333Y5288095D01*
X104871428Y5288095D01*
X105061904Y5335714D01*
X105157142Y5383333D01*
X105204761Y5430952D01*
X105252380Y5526190D01*
X105252380Y5621428D01*
X105204761Y5716666D01*
X105157142Y5764285D01*
X105061904Y5811904D01*
X104871428Y5859523D01*
X104633333Y5859523D01*
X104442857Y5811904D01*
X104347619Y5764285D01*
X104300000Y5716666D01*
X104252380Y5621428D01*
%TO.C,U3*%
X26927380Y-45363095D02*
X27736904Y-45363095D01*
X27832142Y-45410714D01*
X27879761Y-45458333D01*
X27927380Y-45553571D01*
X27927380Y-45744047D01*
X27879761Y-45839285D01*
X27832142Y-45886904D01*
X27736904Y-45934523D01*
X26927380Y-45934523D01*
X26927380Y-46315476D02*
X26927380Y-46934523D01*
X27308333Y-46601190D01*
X27308333Y-46744047D01*
X27355952Y-46839285D01*
X27403571Y-46886904D01*
X27498809Y-46934523D01*
X27736904Y-46934523D01*
X27832142Y-46886904D01*
X27879761Y-46839285D01*
X27927380Y-46744047D01*
X27927380Y-46458333D01*
X27879761Y-46363095D01*
X27832142Y-46315476D01*
%TO.C,FB1*%
X34828571Y-44266666D02*
X34828571Y-43933333D01*
X35352380Y-43933333D02*
X34352380Y-43933333D01*
X34352380Y-44409523D01*
X34828571Y-45123809D02*
X34876190Y-45266666D01*
X34923809Y-45314285D01*
X35019047Y-45361904D01*
X35161904Y-45361904D01*
X35257142Y-45314285D01*
X35304761Y-45266666D01*
X35352380Y-45171428D01*
X35352380Y-44790476D01*
X34352380Y-44790476D01*
X34352380Y-45123809D01*
X34400000Y-45219047D01*
X34447619Y-45266666D01*
X34542857Y-45314285D01*
X34638095Y-45314285D01*
X34733333Y-45266666D01*
X34780952Y-45219047D01*
X34828571Y-45123809D01*
X34828571Y-44790476D01*
X35352380Y-46314285D02*
X35352380Y-45742857D01*
X35352380Y-46028571D02*
X34352380Y-46028571D01*
X34495238Y-45933333D01*
X34590476Y-45838095D01*
X34638095Y-45742857D01*
%TO.C,D9*%
X171927380Y26338095D02*
X170927380Y26338095D01*
X170927380Y26100000D01*
X170975000Y25957142D01*
X171070238Y25861904D01*
X171165476Y25814285D01*
X171355952Y25766666D01*
X171498809Y25766666D01*
X171689285Y25814285D01*
X171784523Y25861904D01*
X171879761Y25957142D01*
X171927380Y26100000D01*
X171927380Y26338095D01*
X171927380Y25290476D02*
X171927380Y25100000D01*
X171879761Y25004761D01*
X171832142Y24957142D01*
X171689285Y24861904D01*
X171498809Y24814285D01*
X171117857Y24814285D01*
X171022619Y24861904D01*
X170975000Y24909523D01*
X170927380Y25004761D01*
X170927380Y25195238D01*
X170975000Y25290476D01*
X171022619Y25338095D01*
X171117857Y25385714D01*
X171355952Y25385714D01*
X171451190Y25338095D01*
X171498809Y25290476D01*
X171546428Y25195238D01*
X171546428Y25004761D01*
X171498809Y24909523D01*
X171451190Y24861904D01*
X171355952Y24814285D01*
%TO.C,D49*%
X138589880Y-30335714D02*
X137589880Y-30335714D01*
X137589880Y-30573809D01*
X137637500Y-30716666D01*
X137732738Y-30811904D01*
X137827976Y-30859523D01*
X138018452Y-30907142D01*
X138161309Y-30907142D01*
X138351785Y-30859523D01*
X138447023Y-30811904D01*
X138542261Y-30716666D01*
X138589880Y-30573809D01*
X138589880Y-30335714D01*
X137923214Y-31764285D02*
X138589880Y-31764285D01*
X137542261Y-31526190D02*
X138256547Y-31288095D01*
X138256547Y-31907142D01*
X138589880Y-32335714D02*
X138589880Y-32526190D01*
X138542261Y-32621428D01*
X138494642Y-32669047D01*
X138351785Y-32764285D01*
X138161309Y-32811904D01*
X137780357Y-32811904D01*
X137685119Y-32764285D01*
X137637500Y-32716666D01*
X137589880Y-32621428D01*
X137589880Y-32430952D01*
X137637500Y-32335714D01*
X137685119Y-32288095D01*
X137780357Y-32240476D01*
X138018452Y-32240476D01*
X138113690Y-32288095D01*
X138161309Y-32335714D01*
X138208928Y-32430952D01*
X138208928Y-32621428D01*
X138161309Y-32716666D01*
X138113690Y-32764285D01*
X138018452Y-32811904D01*
%TO.C,D48*%
X119539880Y-30335714D02*
X118539880Y-30335714D01*
X118539880Y-30573809D01*
X118587500Y-30716666D01*
X118682738Y-30811904D01*
X118777976Y-30859523D01*
X118968452Y-30907142D01*
X119111309Y-30907142D01*
X119301785Y-30859523D01*
X119397023Y-30811904D01*
X119492261Y-30716666D01*
X119539880Y-30573809D01*
X119539880Y-30335714D01*
X118873214Y-31764285D02*
X119539880Y-31764285D01*
X118492261Y-31526190D02*
X119206547Y-31288095D01*
X119206547Y-31907142D01*
X118968452Y-32430952D02*
X118920833Y-32335714D01*
X118873214Y-32288095D01*
X118777976Y-32240476D01*
X118730357Y-32240476D01*
X118635119Y-32288095D01*
X118587500Y-32335714D01*
X118539880Y-32430952D01*
X118539880Y-32621428D01*
X118587500Y-32716666D01*
X118635119Y-32764285D01*
X118730357Y-32811904D01*
X118777976Y-32811904D01*
X118873214Y-32764285D01*
X118920833Y-32716666D01*
X118968452Y-32621428D01*
X118968452Y-32430952D01*
X119016071Y-32335714D01*
X119063690Y-32288095D01*
X119158928Y-32240476D01*
X119349404Y-32240476D01*
X119444642Y-32288095D01*
X119492261Y-32335714D01*
X119539880Y-32430952D01*
X119539880Y-32621428D01*
X119492261Y-32716666D01*
X119444642Y-32764285D01*
X119349404Y-32811904D01*
X119158928Y-32811904D01*
X119063690Y-32764285D01*
X119016071Y-32716666D01*
X118968452Y-32621428D01*
%TO.C,D76*%
X25752380Y22164285D02*
X24752380Y22164285D01*
X24752380Y21926190D01*
X24800000Y21783333D01*
X24895238Y21688095D01*
X24990476Y21640476D01*
X25180952Y21592857D01*
X25323809Y21592857D01*
X25514285Y21640476D01*
X25609523Y21688095D01*
X25704761Y21783333D01*
X25752380Y21926190D01*
X25752380Y22164285D01*
X24752380Y21259523D02*
X24752380Y20592857D01*
X25752380Y21021428D01*
X24752380Y19783333D02*
X24752380Y19973809D01*
X24800000Y20069047D01*
X24847619Y20116666D01*
X24990476Y20211904D01*
X25180952Y20259523D01*
X25561904Y20259523D01*
X25657142Y20211904D01*
X25704761Y20164285D01*
X25752380Y20069047D01*
X25752380Y19878571D01*
X25704761Y19783333D01*
X25657142Y19735714D01*
X25561904Y19688095D01*
X25323809Y19688095D01*
X25228571Y19735714D01*
X25180952Y19783333D01*
X25133333Y19878571D01*
X25133333Y20069047D01*
X25180952Y20164285D01*
X25228571Y20211904D01*
X25323809Y20259523D01*
%TO.C,D4*%
X64771130Y26338095D02*
X63771130Y26338095D01*
X63771130Y26100000D01*
X63818750Y25957142D01*
X63913988Y25861904D01*
X64009226Y25814285D01*
X64199702Y25766666D01*
X64342559Y25766666D01*
X64533035Y25814285D01*
X64628273Y25861904D01*
X64723511Y25957142D01*
X64771130Y26100000D01*
X64771130Y26338095D01*
X64104464Y24909523D02*
X64771130Y24909523D01*
X63723511Y25147619D02*
X64437797Y25385714D01*
X64437797Y24766666D01*
%TO.C,D66*%
X238602380Y-49385714D02*
X237602380Y-49385714D01*
X237602380Y-49623809D01*
X237650000Y-49766666D01*
X237745238Y-49861904D01*
X237840476Y-49909523D01*
X238030952Y-49957142D01*
X238173809Y-49957142D01*
X238364285Y-49909523D01*
X238459523Y-49861904D01*
X238554761Y-49766666D01*
X238602380Y-49623809D01*
X238602380Y-49385714D01*
X237602380Y-50814285D02*
X237602380Y-50623809D01*
X237650000Y-50528571D01*
X237697619Y-50480952D01*
X237840476Y-50385714D01*
X238030952Y-50338095D01*
X238411904Y-50338095D01*
X238507142Y-50385714D01*
X238554761Y-50433333D01*
X238602380Y-50528571D01*
X238602380Y-50719047D01*
X238554761Y-50814285D01*
X238507142Y-50861904D01*
X238411904Y-50909523D01*
X238173809Y-50909523D01*
X238078571Y-50861904D01*
X238030952Y-50814285D01*
X237983333Y-50719047D01*
X237983333Y-50528571D01*
X238030952Y-50433333D01*
X238078571Y-50385714D01*
X238173809Y-50338095D01*
X237602380Y-51766666D02*
X237602380Y-51576190D01*
X237650000Y-51480952D01*
X237697619Y-51433333D01*
X237840476Y-51338095D01*
X238030952Y-51290476D01*
X238411904Y-51290476D01*
X238507142Y-51338095D01*
X238554761Y-51385714D01*
X238602380Y-51480952D01*
X238602380Y-51671428D01*
X238554761Y-51766666D01*
X238507142Y-51814285D01*
X238411904Y-51861904D01*
X238173809Y-51861904D01*
X238078571Y-51814285D01*
X238030952Y-51766666D01*
X237983333Y-51671428D01*
X237983333Y-51480952D01*
X238030952Y-51385714D01*
X238078571Y-51338095D01*
X238173809Y-51290476D01*
%TO.C,R1*%
X20052380Y-32933333D02*
X19576190Y-32600000D01*
X20052380Y-32361904D02*
X19052380Y-32361904D01*
X19052380Y-32742857D01*
X19100000Y-32838095D01*
X19147619Y-32885714D01*
X19242857Y-32933333D01*
X19385714Y-32933333D01*
X19480952Y-32885714D01*
X19528571Y-32838095D01*
X19576190Y-32742857D01*
X19576190Y-32361904D01*
X20052380Y-33885714D02*
X20052380Y-33314285D01*
X20052380Y-33600000D02*
X19052380Y-33600000D01*
X19195238Y-33504761D01*
X19290476Y-33409523D01*
X19338095Y-33314285D01*
%TO.C,R8*%
X-3247619Y-48633333D02*
X-3723809Y-48300000D01*
X-3247619Y-48061904D02*
X-4247619Y-48061904D01*
X-4247619Y-48442857D01*
X-4200000Y-48538095D01*
X-4152380Y-48585714D01*
X-4057142Y-48633333D01*
X-3914285Y-48633333D01*
X-3819047Y-48585714D01*
X-3771428Y-48538095D01*
X-3723809Y-48442857D01*
X-3723809Y-48061904D01*
X-3819047Y-49204761D02*
X-3866666Y-49109523D01*
X-3914285Y-49061904D01*
X-4009523Y-49014285D01*
X-4057142Y-49014285D01*
X-4152380Y-49061904D01*
X-4200000Y-49109523D01*
X-4247619Y-49204761D01*
X-4247619Y-49395238D01*
X-4200000Y-49490476D01*
X-4152380Y-49538095D01*
X-4057142Y-49585714D01*
X-4009523Y-49585714D01*
X-3914285Y-49538095D01*
X-3866666Y-49490476D01*
X-3819047Y-49395238D01*
X-3819047Y-49204761D01*
X-3771428Y-49109523D01*
X-3723809Y-49061904D01*
X-3628571Y-49014285D01*
X-3438095Y-49014285D01*
X-3342857Y-49061904D01*
X-3295238Y-49109523D01*
X-3247619Y-49204761D01*
X-3247619Y-49395238D01*
X-3295238Y-49490476D01*
X-3342857Y-49538095D01*
X-3438095Y-49585714D01*
X-3628571Y-49585714D01*
X-3723809Y-49538095D01*
X-3771428Y-49490476D01*
X-3819047Y-49395238D01*
%TO.C,D5*%
X83821130Y26338095D02*
X82821130Y26338095D01*
X82821130Y26100000D01*
X82868750Y25957142D01*
X82963988Y25861904D01*
X83059226Y25814285D01*
X83249702Y25766666D01*
X83392559Y25766666D01*
X83583035Y25814285D01*
X83678273Y25861904D01*
X83773511Y25957142D01*
X83821130Y26100000D01*
X83821130Y26338095D01*
X82821130Y24861904D02*
X82821130Y25338095D01*
X83297321Y25385714D01*
X83249702Y25338095D01*
X83202083Y25242857D01*
X83202083Y25004761D01*
X83249702Y24909523D01*
X83297321Y24861904D01*
X83392559Y24814285D01*
X83630654Y24814285D01*
X83725892Y24861904D01*
X83773511Y24909523D01*
X83821130Y25004761D01*
X83821130Y25242857D01*
X83773511Y25338095D01*
X83725892Y25385714D01*
%TO.C,R9*%
X25477380Y-42533333D02*
X25001190Y-42200000D01*
X25477380Y-41961904D02*
X24477380Y-41961904D01*
X24477380Y-42342857D01*
X24525000Y-42438095D01*
X24572619Y-42485714D01*
X24667857Y-42533333D01*
X24810714Y-42533333D01*
X24905952Y-42485714D01*
X24953571Y-42438095D01*
X25001190Y-42342857D01*
X25001190Y-41961904D01*
X25477380Y-43009523D02*
X25477380Y-43200000D01*
X25429761Y-43295238D01*
X25382142Y-43342857D01*
X25239285Y-43438095D01*
X25048809Y-43485714D01*
X24667857Y-43485714D01*
X24572619Y-43438095D01*
X24525000Y-43390476D01*
X24477380Y-43295238D01*
X24477380Y-43104761D01*
X24525000Y-43009523D01*
X24572619Y-42961904D01*
X24667857Y-42914285D01*
X24905952Y-42914285D01*
X25001190Y-42961904D01*
X25048809Y-43009523D01*
X25096428Y-43104761D01*
X25096428Y-43295238D01*
X25048809Y-43390476D01*
X25001190Y-43438095D01*
X24905952Y-43485714D01*
%TO.C,U2*%
X17461904Y26147619D02*
X17461904Y25338095D01*
X17414285Y25242857D01*
X17366666Y25195238D01*
X17271428Y25147619D01*
X17080952Y25147619D01*
X16985714Y25195238D01*
X16938095Y25242857D01*
X16890476Y25338095D01*
X16890476Y26147619D01*
X16461904Y26052380D02*
X16414285Y26100000D01*
X16319047Y26147619D01*
X16080952Y26147619D01*
X15985714Y26100000D01*
X15938095Y26052380D01*
X15890476Y25957142D01*
X15890476Y25861904D01*
X15938095Y25719047D01*
X16509523Y25147619D01*
X15890476Y25147619D01*
%TO.C,D43*%
X33414285Y-29352380D02*
X33414285Y-28352380D01*
X33176190Y-28352380D01*
X33033333Y-28400000D01*
X32938095Y-28495238D01*
X32890476Y-28590476D01*
X32842857Y-28780952D01*
X32842857Y-28923809D01*
X32890476Y-29114285D01*
X32938095Y-29209523D01*
X33033333Y-29304761D01*
X33176190Y-29352380D01*
X33414285Y-29352380D01*
X31985714Y-28685714D02*
X31985714Y-29352380D01*
X32223809Y-28304761D02*
X32461904Y-29019047D01*
X31842857Y-29019047D01*
X31557142Y-28352380D02*
X30938095Y-28352380D01*
X31271428Y-28733333D01*
X31128571Y-28733333D01*
X31033333Y-28780952D01*
X30985714Y-28828571D01*
X30938095Y-28923809D01*
X30938095Y-29161904D01*
X30985714Y-29257142D01*
X31033333Y-29304761D01*
X31128571Y-29352380D01*
X31414285Y-29352380D01*
X31509523Y-29304761D01*
X31557142Y-29257142D01*
%TO.C,D22*%
X143352380Y7764285D02*
X142352380Y7764285D01*
X142352380Y7526190D01*
X142400000Y7383333D01*
X142495238Y7288095D01*
X142590476Y7240476D01*
X142780952Y7192857D01*
X142923809Y7192857D01*
X143114285Y7240476D01*
X143209523Y7288095D01*
X143304761Y7383333D01*
X143352380Y7526190D01*
X143352380Y7764285D01*
X142447619Y6811904D02*
X142400000Y6764285D01*
X142352380Y6669047D01*
X142352380Y6430952D01*
X142400000Y6335714D01*
X142447619Y6288095D01*
X142542857Y6240476D01*
X142638095Y6240476D01*
X142780952Y6288095D01*
X143352380Y6859523D01*
X143352380Y6240476D01*
X142447619Y5859523D02*
X142400000Y5811904D01*
X142352380Y5716666D01*
X142352380Y5478571D01*
X142400000Y5383333D01*
X142447619Y5335714D01*
X142542857Y5288095D01*
X142638095Y5288095D01*
X142780952Y5335714D01*
X143352380Y5907142D01*
X143352380Y5288095D01*
%TO.C,D77*%
X31189285Y-40077380D02*
X31189285Y-39077380D01*
X30951190Y-39077380D01*
X30808333Y-39125000D01*
X30713095Y-39220238D01*
X30665476Y-39315476D01*
X30617857Y-39505952D01*
X30617857Y-39648809D01*
X30665476Y-39839285D01*
X30713095Y-39934523D01*
X30808333Y-40029761D01*
X30951190Y-40077380D01*
X31189285Y-40077380D01*
X30284523Y-39077380D02*
X29617857Y-39077380D01*
X30046428Y-40077380D01*
X29332142Y-39077380D02*
X28665476Y-39077380D01*
X29094047Y-40077380D01*
%TO.C,D3*%
X45721130Y26338095D02*
X44721130Y26338095D01*
X44721130Y26100000D01*
X44768750Y25957142D01*
X44863988Y25861904D01*
X44959226Y25814285D01*
X45149702Y25766666D01*
X45292559Y25766666D01*
X45483035Y25814285D01*
X45578273Y25861904D01*
X45673511Y25957142D01*
X45721130Y26100000D01*
X45721130Y26338095D01*
X44721130Y25433333D02*
X44721130Y24814285D01*
X45102083Y25147619D01*
X45102083Y25004761D01*
X45149702Y24909523D01*
X45197321Y24861904D01*
X45292559Y24814285D01*
X45530654Y24814285D01*
X45625892Y24861904D01*
X45673511Y24909523D01*
X45721130Y25004761D01*
X45721130Y25290476D01*
X45673511Y25385714D01*
X45625892Y25433333D01*
%TO.C,D8*%
X152877380Y26338095D02*
X151877380Y26338095D01*
X151877380Y26100000D01*
X151925000Y25957142D01*
X152020238Y25861904D01*
X152115476Y25814285D01*
X152305952Y25766666D01*
X152448809Y25766666D01*
X152639285Y25814285D01*
X152734523Y25861904D01*
X152829761Y25957142D01*
X152877380Y26100000D01*
X152877380Y26338095D01*
X152305952Y25195238D02*
X152258333Y25290476D01*
X152210714Y25338095D01*
X152115476Y25385714D01*
X152067857Y25385714D01*
X151972619Y25338095D01*
X151925000Y25290476D01*
X151877380Y25195238D01*
X151877380Y25004761D01*
X151925000Y24909523D01*
X151972619Y24861904D01*
X152067857Y24814285D01*
X152115476Y24814285D01*
X152210714Y24861904D01*
X152258333Y24909523D01*
X152305952Y25004761D01*
X152305952Y25195238D01*
X152353571Y25290476D01*
X152401190Y25338095D01*
X152496428Y25385714D01*
X152686904Y25385714D01*
X152782142Y25338095D01*
X152829761Y25290476D01*
X152877380Y25195238D01*
X152877380Y25004761D01*
X152829761Y24909523D01*
X152782142Y24861904D01*
X152686904Y24814285D01*
X152496428Y24814285D01*
X152401190Y24861904D01*
X152353571Y24909523D01*
X152305952Y25004761D01*
%TO.C,D13*%
X257652380Y26814285D02*
X256652380Y26814285D01*
X256652380Y26576190D01*
X256700000Y26433333D01*
X256795238Y26338095D01*
X256890476Y26290476D01*
X257080952Y26242857D01*
X257223809Y26242857D01*
X257414285Y26290476D01*
X257509523Y26338095D01*
X257604761Y26433333D01*
X257652380Y26576190D01*
X257652380Y26814285D01*
X257652380Y25290476D02*
X257652380Y25861904D01*
X257652380Y25576190D02*
X256652380Y25576190D01*
X256795238Y25671428D01*
X256890476Y25766666D01*
X256938095Y25861904D01*
X256652380Y24957142D02*
X256652380Y24338095D01*
X257033333Y24671428D01*
X257033333Y24528571D01*
X257080952Y24433333D01*
X257128571Y24385714D01*
X257223809Y24338095D01*
X257461904Y24338095D01*
X257557142Y24385714D01*
X257604761Y24433333D01*
X257652380Y24528571D01*
X257652380Y24814285D01*
X257604761Y24909523D01*
X257557142Y24957142D01*
%TO.C,U6*%
X2902545Y-56738095D02*
X3712069Y-56738095D01*
X3807307Y-56785714D01*
X3854926Y-56833333D01*
X3902545Y-56928571D01*
X3902545Y-57119047D01*
X3854926Y-57214285D01*
X3807307Y-57261904D01*
X3712069Y-57309523D01*
X2902545Y-57309523D01*
X2902545Y-58214285D02*
X2902545Y-58023809D01*
X2950165Y-57928571D01*
X2997784Y-57880952D01*
X3140641Y-57785714D01*
X3331117Y-57738095D01*
X3712069Y-57738095D01*
X3807307Y-57785714D01*
X3854926Y-57833333D01*
X3902545Y-57928571D01*
X3902545Y-58119047D01*
X3854926Y-58214285D01*
X3807307Y-58261904D01*
X3712069Y-58309523D01*
X3473974Y-58309523D01*
X3378736Y-58261904D01*
X3331117Y-58214285D01*
X3283498Y-58119047D01*
X3283498Y-57928571D01*
X3331117Y-57833333D01*
X3378736Y-57785714D01*
X3473974Y-57738095D01*
X-4861904Y-57952380D02*
X-4528571Y-57476190D01*
X-4290476Y-57952380D02*
X-4290476Y-56952380D01*
X-4671428Y-56952380D01*
X-4766666Y-57000000D01*
X-4814285Y-57047619D01*
X-4861904Y-57142857D01*
X-4861904Y-57285714D01*
X-4814285Y-57380952D01*
X-4766666Y-57428571D01*
X-4671428Y-57476190D01*
X-4290476Y-57476190D01*
X-5671428Y-57904761D02*
X-5576190Y-57952380D01*
X-5385714Y-57952380D01*
X-5290476Y-57904761D01*
X-5242857Y-57809523D01*
X-5242857Y-57428571D01*
X-5290476Y-57333333D01*
X-5385714Y-57285714D01*
X-5576190Y-57285714D01*
X-5671428Y-57333333D01*
X-5719047Y-57428571D01*
X-5719047Y-57523809D01*
X-5242857Y-57619047D01*
X-6100000Y-57904761D02*
X-6195238Y-57952380D01*
X-6385714Y-57952380D01*
X-6480952Y-57904761D01*
X-6528571Y-57809523D01*
X-6528571Y-57761904D01*
X-6480952Y-57666666D01*
X-6385714Y-57619047D01*
X-6242857Y-57619047D01*
X-6147619Y-57571428D01*
X-6100000Y-57476190D01*
X-6100000Y-57428571D01*
X-6147619Y-57333333D01*
X-6242857Y-57285714D01*
X-6385714Y-57285714D01*
X-6480952Y-57333333D01*
X-7338095Y-57904761D02*
X-7242857Y-57952380D01*
X-7052380Y-57952380D01*
X-6957142Y-57904761D01*
X-6909523Y-57809523D01*
X-6909523Y-57428571D01*
X-6957142Y-57333333D01*
X-7052380Y-57285714D01*
X-7242857Y-57285714D01*
X-7338095Y-57333333D01*
X-7385714Y-57428571D01*
X-7385714Y-57523809D01*
X-6909523Y-57619047D01*
X-7671428Y-57285714D02*
X-8052380Y-57285714D01*
X-7814285Y-56952380D02*
X-7814285Y-57809523D01*
X-7861904Y-57904761D01*
X-7957142Y-57952380D01*
X-8052380Y-57952380D01*
%TO.C,D29*%
X19527380Y-11285714D02*
X18527380Y-11285714D01*
X18527380Y-11523809D01*
X18575000Y-11666666D01*
X18670238Y-11761904D01*
X18765476Y-11809523D01*
X18955952Y-11857142D01*
X19098809Y-11857142D01*
X19289285Y-11809523D01*
X19384523Y-11761904D01*
X19479761Y-11666666D01*
X19527380Y-11523809D01*
X19527380Y-11285714D01*
X18622619Y-12238095D02*
X18575000Y-12285714D01*
X18527380Y-12380952D01*
X18527380Y-12619047D01*
X18575000Y-12714285D01*
X18622619Y-12761904D01*
X18717857Y-12809523D01*
X18813095Y-12809523D01*
X18955952Y-12761904D01*
X19527380Y-12190476D01*
X19527380Y-12809523D01*
X19527380Y-13285714D02*
X19527380Y-13476190D01*
X19479761Y-13571428D01*
X19432142Y-13619047D01*
X19289285Y-13714285D01*
X19098809Y-13761904D01*
X18717857Y-13761904D01*
X18622619Y-13714285D01*
X18575000Y-13666666D01*
X18527380Y-13571428D01*
X18527380Y-13380952D01*
X18575000Y-13285714D01*
X18622619Y-13238095D01*
X18717857Y-13190476D01*
X18955952Y-13190476D01*
X19051190Y-13238095D01*
X19098809Y-13285714D01*
X19146428Y-13380952D01*
X19146428Y-13571428D01*
X19098809Y-13666666D01*
X19051190Y-13714285D01*
X18955952Y-13761904D01*
%TO.C,D45*%
X62389880Y-30335714D02*
X61389880Y-30335714D01*
X61389880Y-30573809D01*
X61437500Y-30716666D01*
X61532738Y-30811904D01*
X61627976Y-30859523D01*
X61818452Y-30907142D01*
X61961309Y-30907142D01*
X62151785Y-30859523D01*
X62247023Y-30811904D01*
X62342261Y-30716666D01*
X62389880Y-30573809D01*
X62389880Y-30335714D01*
X61723214Y-31764285D02*
X62389880Y-31764285D01*
X61342261Y-31526190D02*
X62056547Y-31288095D01*
X62056547Y-31907142D01*
X61389880Y-32764285D02*
X61389880Y-32288095D01*
X61866071Y-32240476D01*
X61818452Y-32288095D01*
X61770833Y-32383333D01*
X61770833Y-32621428D01*
X61818452Y-32716666D01*
X61866071Y-32764285D01*
X61961309Y-32811904D01*
X62199404Y-32811904D01*
X62294642Y-32764285D01*
X62342261Y-32716666D01*
X62389880Y-32621428D01*
X62389880Y-32383333D01*
X62342261Y-32288095D01*
X62294642Y-32240476D01*
%TO.C,D54*%
X245746130Y-30335714D02*
X244746130Y-30335714D01*
X244746130Y-30573809D01*
X244793750Y-30716666D01*
X244888988Y-30811904D01*
X244984226Y-30859523D01*
X245174702Y-30907142D01*
X245317559Y-30907142D01*
X245508035Y-30859523D01*
X245603273Y-30811904D01*
X245698511Y-30716666D01*
X245746130Y-30573809D01*
X245746130Y-30335714D01*
X244746130Y-31811904D02*
X244746130Y-31335714D01*
X245222321Y-31288095D01*
X245174702Y-31335714D01*
X245127083Y-31430952D01*
X245127083Y-31669047D01*
X245174702Y-31764285D01*
X245222321Y-31811904D01*
X245317559Y-31859523D01*
X245555654Y-31859523D01*
X245650892Y-31811904D01*
X245698511Y-31764285D01*
X245746130Y-31669047D01*
X245746130Y-31430952D01*
X245698511Y-31335714D01*
X245650892Y-31288095D01*
X245079464Y-32716666D02*
X245746130Y-32716666D01*
X244698511Y-32478571D02*
X245412797Y-32240476D01*
X245412797Y-32859523D01*
%TO.C,D74*%
X238602380Y-68435714D02*
X237602380Y-68435714D01*
X237602380Y-68673809D01*
X237650000Y-68816666D01*
X237745238Y-68911904D01*
X237840476Y-68959523D01*
X238030952Y-69007142D01*
X238173809Y-69007142D01*
X238364285Y-68959523D01*
X238459523Y-68911904D01*
X238554761Y-68816666D01*
X238602380Y-68673809D01*
X238602380Y-68435714D01*
X237602380Y-69340476D02*
X237602380Y-70007142D01*
X238602380Y-69578571D01*
X237935714Y-70816666D02*
X238602380Y-70816666D01*
X237554761Y-70578571D02*
X238269047Y-70340476D01*
X238269047Y-70959523D01*
%TO.C,D51*%
X176689880Y-30335714D02*
X175689880Y-30335714D01*
X175689880Y-30573809D01*
X175737500Y-30716666D01*
X175832738Y-30811904D01*
X175927976Y-30859523D01*
X176118452Y-30907142D01*
X176261309Y-30907142D01*
X176451785Y-30859523D01*
X176547023Y-30811904D01*
X176642261Y-30716666D01*
X176689880Y-30573809D01*
X176689880Y-30335714D01*
X175689880Y-31811904D02*
X175689880Y-31335714D01*
X176166071Y-31288095D01*
X176118452Y-31335714D01*
X176070833Y-31430952D01*
X176070833Y-31669047D01*
X176118452Y-31764285D01*
X176166071Y-31811904D01*
X176261309Y-31859523D01*
X176499404Y-31859523D01*
X176594642Y-31811904D01*
X176642261Y-31764285D01*
X176689880Y-31669047D01*
X176689880Y-31430952D01*
X176642261Y-31335714D01*
X176594642Y-31288095D01*
X176689880Y-32811904D02*
X176689880Y-32240476D01*
X176689880Y-32526190D02*
X175689880Y-32526190D01*
X175832738Y-32430952D01*
X175927976Y-32335714D01*
X175975595Y-32240476D01*
%TO.C,D63*%
X167164880Y-49385714D02*
X166164880Y-49385714D01*
X166164880Y-49623809D01*
X166212500Y-49766666D01*
X166307738Y-49861904D01*
X166402976Y-49909523D01*
X166593452Y-49957142D01*
X166736309Y-49957142D01*
X166926785Y-49909523D01*
X167022023Y-49861904D01*
X167117261Y-49766666D01*
X167164880Y-49623809D01*
X167164880Y-49385714D01*
X166164880Y-50814285D02*
X166164880Y-50623809D01*
X166212500Y-50528571D01*
X166260119Y-50480952D01*
X166402976Y-50385714D01*
X166593452Y-50338095D01*
X166974404Y-50338095D01*
X167069642Y-50385714D01*
X167117261Y-50433333D01*
X167164880Y-50528571D01*
X167164880Y-50719047D01*
X167117261Y-50814285D01*
X167069642Y-50861904D01*
X166974404Y-50909523D01*
X166736309Y-50909523D01*
X166641071Y-50861904D01*
X166593452Y-50814285D01*
X166545833Y-50719047D01*
X166545833Y-50528571D01*
X166593452Y-50433333D01*
X166641071Y-50385714D01*
X166736309Y-50338095D01*
X166164880Y-51242857D02*
X166164880Y-51861904D01*
X166545833Y-51528571D01*
X166545833Y-51671428D01*
X166593452Y-51766666D01*
X166641071Y-51814285D01*
X166736309Y-51861904D01*
X166974404Y-51861904D01*
X167069642Y-51814285D01*
X167117261Y-51766666D01*
X167164880Y-51671428D01*
X167164880Y-51385714D01*
X167117261Y-51290476D01*
X167069642Y-51242857D01*
%TO.C,D57*%
X52864880Y-49385714D02*
X51864880Y-49385714D01*
X51864880Y-49623809D01*
X51912500Y-49766666D01*
X52007738Y-49861904D01*
X52102976Y-49909523D01*
X52293452Y-49957142D01*
X52436309Y-49957142D01*
X52626785Y-49909523D01*
X52722023Y-49861904D01*
X52817261Y-49766666D01*
X52864880Y-49623809D01*
X52864880Y-49385714D01*
X51864880Y-50861904D02*
X51864880Y-50385714D01*
X52341071Y-50338095D01*
X52293452Y-50385714D01*
X52245833Y-50480952D01*
X52245833Y-50719047D01*
X52293452Y-50814285D01*
X52341071Y-50861904D01*
X52436309Y-50909523D01*
X52674404Y-50909523D01*
X52769642Y-50861904D01*
X52817261Y-50814285D01*
X52864880Y-50719047D01*
X52864880Y-50480952D01*
X52817261Y-50385714D01*
X52769642Y-50338095D01*
X51864880Y-51242857D02*
X51864880Y-51909523D01*
X52864880Y-51480952D01*
%TO.C,C12*%
X25162857Y-45937142D02*
X25210476Y-45984761D01*
X25353333Y-46032380D01*
X25448571Y-46032380D01*
X25591428Y-45984761D01*
X25686666Y-45889523D01*
X25734285Y-45794285D01*
X25781904Y-45603809D01*
X25781904Y-45460952D01*
X25734285Y-45270476D01*
X25686666Y-45175238D01*
X25591428Y-45080000D01*
X25448571Y-45032380D01*
X25353333Y-45032380D01*
X25210476Y-45080000D01*
X25162857Y-45127619D01*
X24210476Y-46032380D02*
X24781904Y-46032380D01*
X24496190Y-46032380D02*
X24496190Y-45032380D01*
X24591428Y-45175238D01*
X24686666Y-45270476D01*
X24781904Y-45318095D01*
X23829523Y-45127619D02*
X23781904Y-45080000D01*
X23686666Y-45032380D01*
X23448571Y-45032380D01*
X23353333Y-45080000D01*
X23305714Y-45127619D01*
X23258095Y-45222857D01*
X23258095Y-45318095D01*
X23305714Y-45460952D01*
X23877142Y-46032380D01*
X23258095Y-46032380D01*
%TO.C,R3*%
X18852380Y-54143333D02*
X18376190Y-53810000D01*
X18852380Y-53571904D02*
X17852380Y-53571904D01*
X17852380Y-53952857D01*
X17900000Y-54048095D01*
X17947619Y-54095714D01*
X18042857Y-54143333D01*
X18185714Y-54143333D01*
X18280952Y-54095714D01*
X18328571Y-54048095D01*
X18376190Y-53952857D01*
X18376190Y-53571904D01*
X17852380Y-54476666D02*
X17852380Y-55095714D01*
X18233333Y-54762380D01*
X18233333Y-54905238D01*
X18280952Y-55000476D01*
X18328571Y-55048095D01*
X18423809Y-55095714D01*
X18661904Y-55095714D01*
X18757142Y-55048095D01*
X18804761Y-55000476D01*
X18852380Y-54905238D01*
X18852380Y-54619523D01*
X18804761Y-54524285D01*
X18757142Y-54476666D01*
%TO.C,D56*%
X33814880Y-49385714D02*
X32814880Y-49385714D01*
X32814880Y-49623809D01*
X32862500Y-49766666D01*
X32957738Y-49861904D01*
X33052976Y-49909523D01*
X33243452Y-49957142D01*
X33386309Y-49957142D01*
X33576785Y-49909523D01*
X33672023Y-49861904D01*
X33767261Y-49766666D01*
X33814880Y-49623809D01*
X33814880Y-49385714D01*
X32814880Y-50861904D02*
X32814880Y-50385714D01*
X33291071Y-50338095D01*
X33243452Y-50385714D01*
X33195833Y-50480952D01*
X33195833Y-50719047D01*
X33243452Y-50814285D01*
X33291071Y-50861904D01*
X33386309Y-50909523D01*
X33624404Y-50909523D01*
X33719642Y-50861904D01*
X33767261Y-50814285D01*
X33814880Y-50719047D01*
X33814880Y-50480952D01*
X33767261Y-50385714D01*
X33719642Y-50338095D01*
X32814880Y-51766666D02*
X32814880Y-51576190D01*
X32862500Y-51480952D01*
X32910119Y-51433333D01*
X33052976Y-51338095D01*
X33243452Y-51290476D01*
X33624404Y-51290476D01*
X33719642Y-51338095D01*
X33767261Y-51385714D01*
X33814880Y-51480952D01*
X33814880Y-51671428D01*
X33767261Y-51766666D01*
X33719642Y-51814285D01*
X33624404Y-51861904D01*
X33386309Y-51861904D01*
X33291071Y-51814285D01*
X33243452Y-51766666D01*
X33195833Y-51671428D01*
X33195833Y-51480952D01*
X33243452Y-51385714D01*
X33291071Y-51338095D01*
X33386309Y-51290476D01*
%TO.C,D25*%
X200502380Y7764285D02*
X199502380Y7764285D01*
X199502380Y7526190D01*
X199550000Y7383333D01*
X199645238Y7288095D01*
X199740476Y7240476D01*
X199930952Y7192857D01*
X200073809Y7192857D01*
X200264285Y7240476D01*
X200359523Y7288095D01*
X200454761Y7383333D01*
X200502380Y7526190D01*
X200502380Y7764285D01*
X199597619Y6811904D02*
X199550000Y6764285D01*
X199502380Y6669047D01*
X199502380Y6430952D01*
X199550000Y6335714D01*
X199597619Y6288095D01*
X199692857Y6240476D01*
X199788095Y6240476D01*
X199930952Y6288095D01*
X200502380Y6859523D01*
X200502380Y6240476D01*
X199502380Y5335714D02*
X199502380Y5811904D01*
X199978571Y5859523D01*
X199930952Y5811904D01*
X199883333Y5716666D01*
X199883333Y5478571D01*
X199930952Y5383333D01*
X199978571Y5335714D01*
X200073809Y5288095D01*
X200311904Y5288095D01*
X200407142Y5335714D01*
X200454761Y5383333D01*
X200502380Y5478571D01*
X200502380Y5716666D01*
X200454761Y5811904D01*
X200407142Y5859523D01*
%TO.C,C11*%
X20457142Y-49037142D02*
X20504761Y-48989523D01*
X20552380Y-48846666D01*
X20552380Y-48751428D01*
X20504761Y-48608571D01*
X20409523Y-48513333D01*
X20314285Y-48465714D01*
X20123809Y-48418095D01*
X19980952Y-48418095D01*
X19790476Y-48465714D01*
X19695238Y-48513333D01*
X19600000Y-48608571D01*
X19552380Y-48751428D01*
X19552380Y-48846666D01*
X19600000Y-48989523D01*
X19647619Y-49037142D01*
X20552380Y-49989523D02*
X20552380Y-49418095D01*
X20552380Y-49703809D02*
X19552380Y-49703809D01*
X19695238Y-49608571D01*
X19790476Y-49513333D01*
X19838095Y-49418095D01*
X20552380Y-50941904D02*
X20552380Y-50370476D01*
X20552380Y-50656190D02*
X19552380Y-50656190D01*
X19695238Y-50560952D01*
X19790476Y-50465714D01*
X19838095Y-50370476D01*
%TO.C,D14*%
X-7197619Y11714285D02*
X-8197619Y11714285D01*
X-8197619Y11476190D01*
X-8150000Y11333333D01*
X-8054761Y11238095D01*
X-7959523Y11190476D01*
X-7769047Y11142857D01*
X-7626190Y11142857D01*
X-7435714Y11190476D01*
X-7340476Y11238095D01*
X-7245238Y11333333D01*
X-7197619Y11476190D01*
X-7197619Y11714285D01*
X-7197619Y10190476D02*
X-7197619Y10761904D01*
X-7197619Y10476190D02*
X-8197619Y10476190D01*
X-8054761Y10571428D01*
X-7959523Y10666666D01*
X-7911904Y10761904D01*
X-7864285Y9333333D02*
X-7197619Y9333333D01*
X-8245238Y9571428D02*
X-7530952Y9809523D01*
X-7530952Y9190476D01*
%TO.C,D35*%
X133827380Y-11285714D02*
X132827380Y-11285714D01*
X132827380Y-11523809D01*
X132875000Y-11666666D01*
X132970238Y-11761904D01*
X133065476Y-11809523D01*
X133255952Y-11857142D01*
X133398809Y-11857142D01*
X133589285Y-11809523D01*
X133684523Y-11761904D01*
X133779761Y-11666666D01*
X133827380Y-11523809D01*
X133827380Y-11285714D01*
X132827380Y-12190476D02*
X132827380Y-12809523D01*
X133208333Y-12476190D01*
X133208333Y-12619047D01*
X133255952Y-12714285D01*
X133303571Y-12761904D01*
X133398809Y-12809523D01*
X133636904Y-12809523D01*
X133732142Y-12761904D01*
X133779761Y-12714285D01*
X133827380Y-12619047D01*
X133827380Y-12333333D01*
X133779761Y-12238095D01*
X133732142Y-12190476D01*
X132827380Y-13714285D02*
X132827380Y-13238095D01*
X133303571Y-13190476D01*
X133255952Y-13238095D01*
X133208333Y-13333333D01*
X133208333Y-13571428D01*
X133255952Y-13666666D01*
X133303571Y-13714285D01*
X133398809Y-13761904D01*
X133636904Y-13761904D01*
X133732142Y-13714285D01*
X133779761Y-13666666D01*
X133827380Y-13571428D01*
X133827380Y-13333333D01*
X133779761Y-13238095D01*
X133732142Y-13190476D01*
%TO.C,D72*%
X193358630Y-68435714D02*
X192358630Y-68435714D01*
X192358630Y-68673809D01*
X192406250Y-68816666D01*
X192501488Y-68911904D01*
X192596726Y-68959523D01*
X192787202Y-69007142D01*
X192930059Y-69007142D01*
X193120535Y-68959523D01*
X193215773Y-68911904D01*
X193311011Y-68816666D01*
X193358630Y-68673809D01*
X193358630Y-68435714D01*
X192358630Y-69340476D02*
X192358630Y-70007142D01*
X193358630Y-69578571D01*
X192453869Y-70340476D02*
X192406250Y-70388095D01*
X192358630Y-70483333D01*
X192358630Y-70721428D01*
X192406250Y-70816666D01*
X192453869Y-70864285D01*
X192549107Y-70911904D01*
X192644345Y-70911904D01*
X192787202Y-70864285D01*
X193358630Y-70292857D01*
X193358630Y-70911904D01*
%TO.C,R4*%
X26952380Y-23583333D02*
X26476190Y-23250000D01*
X26952380Y-23011904D02*
X25952380Y-23011904D01*
X25952380Y-23392857D01*
X26000000Y-23488095D01*
X26047619Y-23535714D01*
X26142857Y-23583333D01*
X26285714Y-23583333D01*
X26380952Y-23535714D01*
X26428571Y-23488095D01*
X26476190Y-23392857D01*
X26476190Y-23011904D01*
X26285714Y-24440476D02*
X26952380Y-24440476D01*
X25904761Y-24202380D02*
X26619047Y-23964285D01*
X26619047Y-24583333D01*
%TO.C,D15*%
X10002380Y7764285D02*
X9002380Y7764285D01*
X9002380Y7526190D01*
X9050000Y7383333D01*
X9145238Y7288095D01*
X9240476Y7240476D01*
X9430952Y7192857D01*
X9573809Y7192857D01*
X9764285Y7240476D01*
X9859523Y7288095D01*
X9954761Y7383333D01*
X10002380Y7526190D01*
X10002380Y7764285D01*
X10002380Y6240476D02*
X10002380Y6811904D01*
X10002380Y6526190D02*
X9002380Y6526190D01*
X9145238Y6621428D01*
X9240476Y6716666D01*
X9288095Y6811904D01*
X9002380Y5335714D02*
X9002380Y5811904D01*
X9478571Y5859523D01*
X9430952Y5811904D01*
X9383333Y5716666D01*
X9383333Y5478571D01*
X9430952Y5383333D01*
X9478571Y5335714D01*
X9573809Y5288095D01*
X9811904Y5288095D01*
X9907142Y5335714D01*
X9954761Y5383333D01*
X10002380Y5478571D01*
X10002380Y5716666D01*
X9954761Y5811904D01*
X9907142Y5859523D01*
%TO.C,R5*%
X29066666Y-28202380D02*
X29400000Y-27726190D01*
X29638095Y-28202380D02*
X29638095Y-27202380D01*
X29257142Y-27202380D01*
X29161904Y-27250000D01*
X29114285Y-27297619D01*
X29066666Y-27392857D01*
X29066666Y-27535714D01*
X29114285Y-27630952D01*
X29161904Y-27678571D01*
X29257142Y-27726190D01*
X29638095Y-27726190D01*
X28161904Y-27202380D02*
X28638095Y-27202380D01*
X28685714Y-27678571D01*
X28638095Y-27630952D01*
X28542857Y-27583333D01*
X28304761Y-27583333D01*
X28209523Y-27630952D01*
X28161904Y-27678571D01*
X28114285Y-27773809D01*
X28114285Y-28011904D01*
X28161904Y-28107142D01*
X28209523Y-28154761D01*
X28304761Y-28202380D01*
X28542857Y-28202380D01*
X28638095Y-28154761D01*
X28685714Y-28107142D01*
%TO.C,D68*%
X10002380Y-68435714D02*
X9002380Y-68435714D01*
X9002380Y-68673809D01*
X9050000Y-68816666D01*
X9145238Y-68911904D01*
X9240476Y-68959523D01*
X9430952Y-69007142D01*
X9573809Y-69007142D01*
X9764285Y-68959523D01*
X9859523Y-68911904D01*
X9954761Y-68816666D01*
X10002380Y-68673809D01*
X10002380Y-68435714D01*
X9002380Y-69864285D02*
X9002380Y-69673809D01*
X9050000Y-69578571D01*
X9097619Y-69530952D01*
X9240476Y-69435714D01*
X9430952Y-69388095D01*
X9811904Y-69388095D01*
X9907142Y-69435714D01*
X9954761Y-69483333D01*
X10002380Y-69578571D01*
X10002380Y-69769047D01*
X9954761Y-69864285D01*
X9907142Y-69911904D01*
X9811904Y-69959523D01*
X9573809Y-69959523D01*
X9478571Y-69911904D01*
X9430952Y-69864285D01*
X9383333Y-69769047D01*
X9383333Y-69578571D01*
X9430952Y-69483333D01*
X9478571Y-69435714D01*
X9573809Y-69388095D01*
X9430952Y-70530952D02*
X9383333Y-70435714D01*
X9335714Y-70388095D01*
X9240476Y-70340476D01*
X9192857Y-70340476D01*
X9097619Y-70388095D01*
X9050000Y-70435714D01*
X9002380Y-70530952D01*
X9002380Y-70721428D01*
X9050000Y-70816666D01*
X9097619Y-70864285D01*
X9192857Y-70911904D01*
X9240476Y-70911904D01*
X9335714Y-70864285D01*
X9383333Y-70816666D01*
X9430952Y-70721428D01*
X9430952Y-70530952D01*
X9478571Y-70435714D01*
X9526190Y-70388095D01*
X9621428Y-70340476D01*
X9811904Y-70340476D01*
X9907142Y-70388095D01*
X9954761Y-70435714D01*
X10002380Y-70530952D01*
X10002380Y-70721428D01*
X9954761Y-70816666D01*
X9907142Y-70864285D01*
X9811904Y-70911904D01*
X9621428Y-70911904D01*
X9526190Y-70864285D01*
X9478571Y-70816666D01*
X9430952Y-70721428D01*
%TO.C,R6*%
X19666666Y19247619D02*
X20000000Y19723809D01*
X20238095Y19247619D02*
X20238095Y20247619D01*
X19857142Y20247619D01*
X19761904Y20200000D01*
X19714285Y20152380D01*
X19666666Y20057142D01*
X19666666Y19914285D01*
X19714285Y19819047D01*
X19761904Y19771428D01*
X19857142Y19723809D01*
X20238095Y19723809D01*
X18809523Y20247619D02*
X19000000Y20247619D01*
X19095238Y20200000D01*
X19142857Y20152380D01*
X19238095Y20009523D01*
X19285714Y19819047D01*
X19285714Y19438095D01*
X19238095Y19342857D01*
X19190476Y19295238D01*
X19095238Y19247619D01*
X18904761Y19247619D01*
X18809523Y19295238D01*
X18761904Y19342857D01*
X18714285Y19438095D01*
X18714285Y19676190D01*
X18761904Y19771428D01*
X18809523Y19819047D01*
X18904761Y19866666D01*
X19095238Y19866666D01*
X19190476Y19819047D01*
X19238095Y19771428D01*
X19285714Y19676190D01*
%TO.C,D62*%
X148114880Y-49385714D02*
X147114880Y-49385714D01*
X147114880Y-49623809D01*
X147162500Y-49766666D01*
X147257738Y-49861904D01*
X147352976Y-49909523D01*
X147543452Y-49957142D01*
X147686309Y-49957142D01*
X147876785Y-49909523D01*
X147972023Y-49861904D01*
X148067261Y-49766666D01*
X148114880Y-49623809D01*
X148114880Y-49385714D01*
X147114880Y-50814285D02*
X147114880Y-50623809D01*
X147162500Y-50528571D01*
X147210119Y-50480952D01*
X147352976Y-50385714D01*
X147543452Y-50338095D01*
X147924404Y-50338095D01*
X148019642Y-50385714D01*
X148067261Y-50433333D01*
X148114880Y-50528571D01*
X148114880Y-50719047D01*
X148067261Y-50814285D01*
X148019642Y-50861904D01*
X147924404Y-50909523D01*
X147686309Y-50909523D01*
X147591071Y-50861904D01*
X147543452Y-50814285D01*
X147495833Y-50719047D01*
X147495833Y-50528571D01*
X147543452Y-50433333D01*
X147591071Y-50385714D01*
X147686309Y-50338095D01*
X147210119Y-51290476D02*
X147162500Y-51338095D01*
X147114880Y-51433333D01*
X147114880Y-51671428D01*
X147162500Y-51766666D01*
X147210119Y-51814285D01*
X147305357Y-51861904D01*
X147400595Y-51861904D01*
X147543452Y-51814285D01*
X148114880Y-51242857D01*
X148114880Y-51861904D01*
%TO.C,D60*%
X110014880Y-49385714D02*
X109014880Y-49385714D01*
X109014880Y-49623809D01*
X109062500Y-49766666D01*
X109157738Y-49861904D01*
X109252976Y-49909523D01*
X109443452Y-49957142D01*
X109586309Y-49957142D01*
X109776785Y-49909523D01*
X109872023Y-49861904D01*
X109967261Y-49766666D01*
X110014880Y-49623809D01*
X110014880Y-49385714D01*
X109014880Y-50814285D02*
X109014880Y-50623809D01*
X109062500Y-50528571D01*
X109110119Y-50480952D01*
X109252976Y-50385714D01*
X109443452Y-50338095D01*
X109824404Y-50338095D01*
X109919642Y-50385714D01*
X109967261Y-50433333D01*
X110014880Y-50528571D01*
X110014880Y-50719047D01*
X109967261Y-50814285D01*
X109919642Y-50861904D01*
X109824404Y-50909523D01*
X109586309Y-50909523D01*
X109491071Y-50861904D01*
X109443452Y-50814285D01*
X109395833Y-50719047D01*
X109395833Y-50528571D01*
X109443452Y-50433333D01*
X109491071Y-50385714D01*
X109586309Y-50338095D01*
X109014880Y-51528571D02*
X109014880Y-51623809D01*
X109062500Y-51719047D01*
X109110119Y-51766666D01*
X109205357Y-51814285D01*
X109395833Y-51861904D01*
X109633928Y-51861904D01*
X109824404Y-51814285D01*
X109919642Y-51766666D01*
X109967261Y-51719047D01*
X110014880Y-51623809D01*
X110014880Y-51528571D01*
X109967261Y-51433333D01*
X109919642Y-51385714D01*
X109824404Y-51338095D01*
X109633928Y-51290476D01*
X109395833Y-51290476D01*
X109205357Y-51338095D01*
X109110119Y-51385714D01*
X109062500Y-51433333D01*
X109014880Y-51528571D01*
%TO.C,D39*%
X210027380Y-11285714D02*
X209027380Y-11285714D01*
X209027380Y-11523809D01*
X209075000Y-11666666D01*
X209170238Y-11761904D01*
X209265476Y-11809523D01*
X209455952Y-11857142D01*
X209598809Y-11857142D01*
X209789285Y-11809523D01*
X209884523Y-11761904D01*
X209979761Y-11666666D01*
X210027380Y-11523809D01*
X210027380Y-11285714D01*
X209027380Y-12190476D02*
X209027380Y-12809523D01*
X209408333Y-12476190D01*
X209408333Y-12619047D01*
X209455952Y-12714285D01*
X209503571Y-12761904D01*
X209598809Y-12809523D01*
X209836904Y-12809523D01*
X209932142Y-12761904D01*
X209979761Y-12714285D01*
X210027380Y-12619047D01*
X210027380Y-12333333D01*
X209979761Y-12238095D01*
X209932142Y-12190476D01*
X210027380Y-13285714D02*
X210027380Y-13476190D01*
X209979761Y-13571428D01*
X209932142Y-13619047D01*
X209789285Y-13714285D01*
X209598809Y-13761904D01*
X209217857Y-13761904D01*
X209122619Y-13714285D01*
X209075000Y-13666666D01*
X209027380Y-13571428D01*
X209027380Y-13380952D01*
X209075000Y-13285714D01*
X209122619Y-13238095D01*
X209217857Y-13190476D01*
X209455952Y-13190476D01*
X209551190Y-13238095D01*
X209598809Y-13285714D01*
X209646428Y-13380952D01*
X209646428Y-13571428D01*
X209598809Y-13666666D01*
X209551190Y-13714285D01*
X209455952Y-13761904D01*
%TO.C,C8*%
X14827142Y-35443333D02*
X14874761Y-35395714D01*
X14922380Y-35252857D01*
X14922380Y-35157619D01*
X14874761Y-35014761D01*
X14779523Y-34919523D01*
X14684285Y-34871904D01*
X14493809Y-34824285D01*
X14350952Y-34824285D01*
X14160476Y-34871904D01*
X14065238Y-34919523D01*
X13970000Y-35014761D01*
X13922380Y-35157619D01*
X13922380Y-35252857D01*
X13970000Y-35395714D01*
X14017619Y-35443333D01*
X14350952Y-36014761D02*
X14303333Y-35919523D01*
X14255714Y-35871904D01*
X14160476Y-35824285D01*
X14112857Y-35824285D01*
X14017619Y-35871904D01*
X13970000Y-35919523D01*
X13922380Y-36014761D01*
X13922380Y-36205238D01*
X13970000Y-36300476D01*
X14017619Y-36348095D01*
X14112857Y-36395714D01*
X14160476Y-36395714D01*
X14255714Y-36348095D01*
X14303333Y-36300476D01*
X14350952Y-36205238D01*
X14350952Y-36014761D01*
X14398571Y-35919523D01*
X14446190Y-35871904D01*
X14541428Y-35824285D01*
X14731904Y-35824285D01*
X14827142Y-35871904D01*
X14874761Y-35919523D01*
X14922380Y-36014761D01*
X14922380Y-36205238D01*
X14874761Y-36300476D01*
X14827142Y-36348095D01*
X14731904Y-36395714D01*
X14541428Y-36395714D01*
X14446190Y-36348095D01*
X14398571Y-36300476D01*
X14350952Y-36205238D01*
%TO.C,D64*%
X186214880Y-49385714D02*
X185214880Y-49385714D01*
X185214880Y-49623809D01*
X185262500Y-49766666D01*
X185357738Y-49861904D01*
X185452976Y-49909523D01*
X185643452Y-49957142D01*
X185786309Y-49957142D01*
X185976785Y-49909523D01*
X186072023Y-49861904D01*
X186167261Y-49766666D01*
X186214880Y-49623809D01*
X186214880Y-49385714D01*
X185214880Y-50814285D02*
X185214880Y-50623809D01*
X185262500Y-50528571D01*
X185310119Y-50480952D01*
X185452976Y-50385714D01*
X185643452Y-50338095D01*
X186024404Y-50338095D01*
X186119642Y-50385714D01*
X186167261Y-50433333D01*
X186214880Y-50528571D01*
X186214880Y-50719047D01*
X186167261Y-50814285D01*
X186119642Y-50861904D01*
X186024404Y-50909523D01*
X185786309Y-50909523D01*
X185691071Y-50861904D01*
X185643452Y-50814285D01*
X185595833Y-50719047D01*
X185595833Y-50528571D01*
X185643452Y-50433333D01*
X185691071Y-50385714D01*
X185786309Y-50338095D01*
X185548214Y-51766666D02*
X186214880Y-51766666D01*
X185167261Y-51528571D02*
X185881547Y-51290476D01*
X185881547Y-51909523D01*
%TO.C,D19*%
X86202380Y7764285D02*
X85202380Y7764285D01*
X85202380Y7526190D01*
X85250000Y7383333D01*
X85345238Y7288095D01*
X85440476Y7240476D01*
X85630952Y7192857D01*
X85773809Y7192857D01*
X85964285Y7240476D01*
X86059523Y7288095D01*
X86154761Y7383333D01*
X86202380Y7526190D01*
X86202380Y7764285D01*
X86202380Y6240476D02*
X86202380Y6811904D01*
X86202380Y6526190D02*
X85202380Y6526190D01*
X85345238Y6621428D01*
X85440476Y6716666D01*
X85488095Y6811904D01*
X86202380Y5764285D02*
X86202380Y5573809D01*
X86154761Y5478571D01*
X86107142Y5430952D01*
X85964285Y5335714D01*
X85773809Y5288095D01*
X85392857Y5288095D01*
X85297619Y5335714D01*
X85250000Y5383333D01*
X85202380Y5478571D01*
X85202380Y5669047D01*
X85250000Y5764285D01*
X85297619Y5811904D01*
X85392857Y5859523D01*
X85630952Y5859523D01*
X85726190Y5811904D01*
X85773809Y5764285D01*
X85821428Y5669047D01*
X85821428Y5478571D01*
X85773809Y5383333D01*
X85726190Y5335714D01*
X85630952Y5288095D01*
%TO.C,D16*%
X29052380Y7764285D02*
X28052380Y7764285D01*
X28052380Y7526190D01*
X28100000Y7383333D01*
X28195238Y7288095D01*
X28290476Y7240476D01*
X28480952Y7192857D01*
X28623809Y7192857D01*
X28814285Y7240476D01*
X28909523Y7288095D01*
X29004761Y7383333D01*
X29052380Y7526190D01*
X29052380Y7764285D01*
X29052380Y6240476D02*
X29052380Y6811904D01*
X29052380Y6526190D02*
X28052380Y6526190D01*
X28195238Y6621428D01*
X28290476Y6716666D01*
X28338095Y6811904D01*
X28052380Y5383333D02*
X28052380Y5573809D01*
X28100000Y5669047D01*
X28147619Y5716666D01*
X28290476Y5811904D01*
X28480952Y5859523D01*
X28861904Y5859523D01*
X28957142Y5811904D01*
X29004761Y5764285D01*
X29052380Y5669047D01*
X29052380Y5478571D01*
X29004761Y5383333D01*
X28957142Y5335714D01*
X28861904Y5288095D01*
X28623809Y5288095D01*
X28528571Y5335714D01*
X28480952Y5383333D01*
X28433333Y5478571D01*
X28433333Y5669047D01*
X28480952Y5764285D01*
X28528571Y5811904D01*
X28623809Y5859523D01*
%TO.C,D24*%
X181452380Y7764285D02*
X180452380Y7764285D01*
X180452380Y7526190D01*
X180500000Y7383333D01*
X180595238Y7288095D01*
X180690476Y7240476D01*
X180880952Y7192857D01*
X181023809Y7192857D01*
X181214285Y7240476D01*
X181309523Y7288095D01*
X181404761Y7383333D01*
X181452380Y7526190D01*
X181452380Y7764285D01*
X180547619Y6811904D02*
X180500000Y6764285D01*
X180452380Y6669047D01*
X180452380Y6430952D01*
X180500000Y6335714D01*
X180547619Y6288095D01*
X180642857Y6240476D01*
X180738095Y6240476D01*
X180880952Y6288095D01*
X181452380Y6859523D01*
X181452380Y6240476D01*
X180785714Y5383333D02*
X181452380Y5383333D01*
X180404761Y5621428D02*
X181119047Y5859523D01*
X181119047Y5240476D01*
%TO.C,R7*%
X11266666Y19047619D02*
X11600000Y19523809D01*
X11838095Y19047619D02*
X11838095Y20047619D01*
X11457142Y20047619D01*
X11361904Y20000000D01*
X11314285Y19952380D01*
X11266666Y19857142D01*
X11266666Y19714285D01*
X11314285Y19619047D01*
X11361904Y19571428D01*
X11457142Y19523809D01*
X11838095Y19523809D01*
X10933333Y20047619D02*
X10266666Y20047619D01*
X10695238Y19047619D01*
%TO.C,C4*%
X28082142Y-42533333D02*
X28129761Y-42485714D01*
X28177380Y-42342857D01*
X28177380Y-42247619D01*
X28129761Y-42104761D01*
X28034523Y-42009523D01*
X27939285Y-41961904D01*
X27748809Y-41914285D01*
X27605952Y-41914285D01*
X27415476Y-41961904D01*
X27320238Y-42009523D01*
X27225000Y-42104761D01*
X27177380Y-42247619D01*
X27177380Y-42342857D01*
X27225000Y-42485714D01*
X27272619Y-42533333D01*
X27510714Y-43390476D02*
X28177380Y-43390476D01*
X27129761Y-43152380D02*
X27844047Y-42914285D01*
X27844047Y-43533333D01*
%TO.C,D65*%
X205264880Y-49385714D02*
X204264880Y-49385714D01*
X204264880Y-49623809D01*
X204312500Y-49766666D01*
X204407738Y-49861904D01*
X204502976Y-49909523D01*
X204693452Y-49957142D01*
X204836309Y-49957142D01*
X205026785Y-49909523D01*
X205122023Y-49861904D01*
X205217261Y-49766666D01*
X205264880Y-49623809D01*
X205264880Y-49385714D01*
X204264880Y-50814285D02*
X204264880Y-50623809D01*
X204312500Y-50528571D01*
X204360119Y-50480952D01*
X204502976Y-50385714D01*
X204693452Y-50338095D01*
X205074404Y-50338095D01*
X205169642Y-50385714D01*
X205217261Y-50433333D01*
X205264880Y-50528571D01*
X205264880Y-50719047D01*
X205217261Y-50814285D01*
X205169642Y-50861904D01*
X205074404Y-50909523D01*
X204836309Y-50909523D01*
X204741071Y-50861904D01*
X204693452Y-50814285D01*
X204645833Y-50719047D01*
X204645833Y-50528571D01*
X204693452Y-50433333D01*
X204741071Y-50385714D01*
X204836309Y-50338095D01*
X204264880Y-51814285D02*
X204264880Y-51338095D01*
X204741071Y-51290476D01*
X204693452Y-51338095D01*
X204645833Y-51433333D01*
X204645833Y-51671428D01*
X204693452Y-51766666D01*
X204741071Y-51814285D01*
X204836309Y-51861904D01*
X205074404Y-51861904D01*
X205169642Y-51814285D01*
X205217261Y-51766666D01*
X205264880Y-51671428D01*
X205264880Y-51433333D01*
X205217261Y-51338095D01*
X205169642Y-51290476D01*
%TO.C,D41*%
X252889880Y-11285714D02*
X251889880Y-11285714D01*
X251889880Y-11523809D01*
X251937500Y-11666666D01*
X252032738Y-11761904D01*
X252127976Y-11809523D01*
X252318452Y-11857142D01*
X252461309Y-11857142D01*
X252651785Y-11809523D01*
X252747023Y-11761904D01*
X252842261Y-11666666D01*
X252889880Y-11523809D01*
X252889880Y-11285714D01*
X252223214Y-12714285D02*
X252889880Y-12714285D01*
X251842261Y-12476190D02*
X252556547Y-12238095D01*
X252556547Y-12857142D01*
X252889880Y-13761904D02*
X252889880Y-13190476D01*
X252889880Y-13476190D02*
X251889880Y-13476190D01*
X252032738Y-13380952D01*
X252127976Y-13285714D01*
X252175595Y-13190476D01*
%TO.C,C3*%
X24107142Y-23133333D02*
X24154761Y-23085714D01*
X24202380Y-22942857D01*
X24202380Y-22847619D01*
X24154761Y-22704761D01*
X24059523Y-22609523D01*
X23964285Y-22561904D01*
X23773809Y-22514285D01*
X23630952Y-22514285D01*
X23440476Y-22561904D01*
X23345238Y-22609523D01*
X23250000Y-22704761D01*
X23202380Y-22847619D01*
X23202380Y-22942857D01*
X23250000Y-23085714D01*
X23297619Y-23133333D01*
X23202380Y-23466666D02*
X23202380Y-24085714D01*
X23583333Y-23752380D01*
X23583333Y-23895238D01*
X23630952Y-23990476D01*
X23678571Y-24038095D01*
X23773809Y-24085714D01*
X24011904Y-24085714D01*
X24107142Y-24038095D01*
X24154761Y-23990476D01*
X24202380Y-23895238D01*
X24202380Y-23609523D01*
X24154761Y-23514285D01*
X24107142Y-23466666D01*
%TO.C,D21*%
X124302380Y7764285D02*
X123302380Y7764285D01*
X123302380Y7526190D01*
X123350000Y7383333D01*
X123445238Y7288095D01*
X123540476Y7240476D01*
X123730952Y7192857D01*
X123873809Y7192857D01*
X124064285Y7240476D01*
X124159523Y7288095D01*
X124254761Y7383333D01*
X124302380Y7526190D01*
X124302380Y7764285D01*
X123397619Y6811904D02*
X123350000Y6764285D01*
X123302380Y6669047D01*
X123302380Y6430952D01*
X123350000Y6335714D01*
X123397619Y6288095D01*
X123492857Y6240476D01*
X123588095Y6240476D01*
X123730952Y6288095D01*
X124302380Y6859523D01*
X124302380Y6240476D01*
X124302380Y5288095D02*
X124302380Y5859523D01*
X124302380Y5573809D02*
X123302380Y5573809D01*
X123445238Y5669047D01*
X123540476Y5764285D01*
X123588095Y5859523D01*
%TO.C,C5*%
X26782142Y-42533333D02*
X26829761Y-42485714D01*
X26877380Y-42342857D01*
X26877380Y-42247619D01*
X26829761Y-42104761D01*
X26734523Y-42009523D01*
X26639285Y-41961904D01*
X26448809Y-41914285D01*
X26305952Y-41914285D01*
X26115476Y-41961904D01*
X26020238Y-42009523D01*
X25925000Y-42104761D01*
X25877380Y-42247619D01*
X25877380Y-42342857D01*
X25925000Y-42485714D01*
X25972619Y-42533333D01*
X25877380Y-43438095D02*
X25877380Y-42961904D01*
X26353571Y-42914285D01*
X26305952Y-42961904D01*
X26258333Y-43057142D01*
X26258333Y-43295238D01*
X26305952Y-43390476D01*
X26353571Y-43438095D01*
X26448809Y-43485714D01*
X26686904Y-43485714D01*
X26782142Y-43438095D01*
X26829761Y-43390476D01*
X26877380Y-43295238D01*
X26877380Y-43057142D01*
X26829761Y-42961904D01*
X26782142Y-42914285D01*
%TO.C,D44*%
X43339880Y-30335714D02*
X42339880Y-30335714D01*
X42339880Y-30573809D01*
X42387500Y-30716666D01*
X42482738Y-30811904D01*
X42577976Y-30859523D01*
X42768452Y-30907142D01*
X42911309Y-30907142D01*
X43101785Y-30859523D01*
X43197023Y-30811904D01*
X43292261Y-30716666D01*
X43339880Y-30573809D01*
X43339880Y-30335714D01*
X42673214Y-31764285D02*
X43339880Y-31764285D01*
X42292261Y-31526190D02*
X43006547Y-31288095D01*
X43006547Y-31907142D01*
X42673214Y-32716666D02*
X43339880Y-32716666D01*
X42292261Y-32478571D02*
X43006547Y-32240476D01*
X43006547Y-32859523D01*
%TO.C,D34*%
X114777380Y-11285714D02*
X113777380Y-11285714D01*
X113777380Y-11523809D01*
X113825000Y-11666666D01*
X113920238Y-11761904D01*
X114015476Y-11809523D01*
X114205952Y-11857142D01*
X114348809Y-11857142D01*
X114539285Y-11809523D01*
X114634523Y-11761904D01*
X114729761Y-11666666D01*
X114777380Y-11523809D01*
X114777380Y-11285714D01*
X113777380Y-12190476D02*
X113777380Y-12809523D01*
X114158333Y-12476190D01*
X114158333Y-12619047D01*
X114205952Y-12714285D01*
X114253571Y-12761904D01*
X114348809Y-12809523D01*
X114586904Y-12809523D01*
X114682142Y-12761904D01*
X114729761Y-12714285D01*
X114777380Y-12619047D01*
X114777380Y-12333333D01*
X114729761Y-12238095D01*
X114682142Y-12190476D01*
X114110714Y-13666666D02*
X114777380Y-13666666D01*
X113729761Y-13428571D02*
X114444047Y-13190476D01*
X114444047Y-13809523D01*
%TO.C,D27*%
X248127380Y7764285D02*
X247127380Y7764285D01*
X247127380Y7526190D01*
X247175000Y7383333D01*
X247270238Y7288095D01*
X247365476Y7240476D01*
X247555952Y7192857D01*
X247698809Y7192857D01*
X247889285Y7240476D01*
X247984523Y7288095D01*
X248079761Y7383333D01*
X248127380Y7526190D01*
X248127380Y7764285D01*
X247222619Y6811904D02*
X247175000Y6764285D01*
X247127380Y6669047D01*
X247127380Y6430952D01*
X247175000Y6335714D01*
X247222619Y6288095D01*
X247317857Y6240476D01*
X247413095Y6240476D01*
X247555952Y6288095D01*
X248127380Y6859523D01*
X248127380Y6240476D01*
X247127380Y5907142D02*
X247127380Y5240476D01*
X248127380Y5669047D01*
%TO.C,D23*%
X162402380Y7764285D02*
X161402380Y7764285D01*
X161402380Y7526190D01*
X161450000Y7383333D01*
X161545238Y7288095D01*
X161640476Y7240476D01*
X161830952Y7192857D01*
X161973809Y7192857D01*
X162164285Y7240476D01*
X162259523Y7288095D01*
X162354761Y7383333D01*
X162402380Y7526190D01*
X162402380Y7764285D01*
X161497619Y6811904D02*
X161450000Y6764285D01*
X161402380Y6669047D01*
X161402380Y6430952D01*
X161450000Y6335714D01*
X161497619Y6288095D01*
X161592857Y6240476D01*
X161688095Y6240476D01*
X161830952Y6288095D01*
X162402380Y6859523D01*
X162402380Y6240476D01*
X161402380Y5907142D02*
X161402380Y5288095D01*
X161783333Y5621428D01*
X161783333Y5478571D01*
X161830952Y5383333D01*
X161878571Y5335714D01*
X161973809Y5288095D01*
X162211904Y5288095D01*
X162307142Y5335714D01*
X162354761Y5383333D01*
X162402380Y5478571D01*
X162402380Y5764285D01*
X162354761Y5859523D01*
X162307142Y5907142D01*
%TO.C,C16*%
X21157142Y-35557142D02*
X21204761Y-35509523D01*
X21252380Y-35366666D01*
X21252380Y-35271428D01*
X21204761Y-35128571D01*
X21109523Y-35033333D01*
X21014285Y-34985714D01*
X20823809Y-34938095D01*
X20680952Y-34938095D01*
X20490476Y-34985714D01*
X20395238Y-35033333D01*
X20300000Y-35128571D01*
X20252380Y-35271428D01*
X20252380Y-35366666D01*
X20300000Y-35509523D01*
X20347619Y-35557142D01*
X21252380Y-36509523D02*
X21252380Y-35938095D01*
X21252380Y-36223809D02*
X20252380Y-36223809D01*
X20395238Y-36128571D01*
X20490476Y-36033333D01*
X20538095Y-35938095D01*
X20252380Y-37366666D02*
X20252380Y-37176190D01*
X20300000Y-37080952D01*
X20347619Y-37033333D01*
X20490476Y-36938095D01*
X20680952Y-36890476D01*
X21061904Y-36890476D01*
X21157142Y-36938095D01*
X21204761Y-36985714D01*
X21252380Y-37080952D01*
X21252380Y-37271428D01*
X21204761Y-37366666D01*
X21157142Y-37414285D01*
X21061904Y-37461904D01*
X20823809Y-37461904D01*
X20728571Y-37414285D01*
X20680952Y-37366666D01*
X20633333Y-37271428D01*
X20633333Y-37080952D01*
X20680952Y-36985714D01*
X20728571Y-36938095D01*
X20823809Y-36890476D01*
%TO.C,C7*%
X22166666Y-59757142D02*
X22214285Y-59804761D01*
X22357142Y-59852380D01*
X22452380Y-59852380D01*
X22595238Y-59804761D01*
X22690476Y-59709523D01*
X22738095Y-59614285D01*
X22785714Y-59423809D01*
X22785714Y-59280952D01*
X22738095Y-59090476D01*
X22690476Y-58995238D01*
X22595238Y-58900000D01*
X22452380Y-58852380D01*
X22357142Y-58852380D01*
X22214285Y-58900000D01*
X22166666Y-58947619D01*
X21833333Y-58852380D02*
X21166666Y-58852380D01*
X21595238Y-59852380D01*
%TO.C,C15*%
X10542857Y-41357142D02*
X10590476Y-41404761D01*
X10733333Y-41452380D01*
X10828571Y-41452380D01*
X10971428Y-41404761D01*
X11066666Y-41309523D01*
X11114285Y-41214285D01*
X11161904Y-41023809D01*
X11161904Y-40880952D01*
X11114285Y-40690476D01*
X11066666Y-40595238D01*
X10971428Y-40500000D01*
X10828571Y-40452380D01*
X10733333Y-40452380D01*
X10590476Y-40500000D01*
X10542857Y-40547619D01*
X9590476Y-41452380D02*
X10161904Y-41452380D01*
X9876190Y-41452380D02*
X9876190Y-40452380D01*
X9971428Y-40595238D01*
X10066666Y-40690476D01*
X10161904Y-40738095D01*
X8685714Y-40452380D02*
X9161904Y-40452380D01*
X9209523Y-40928571D01*
X9161904Y-40880952D01*
X9066666Y-40833333D01*
X8828571Y-40833333D01*
X8733333Y-40880952D01*
X8685714Y-40928571D01*
X8638095Y-41023809D01*
X8638095Y-41261904D01*
X8685714Y-41357142D01*
X8733333Y-41404761D01*
X8828571Y-41452380D01*
X9066666Y-41452380D01*
X9161904Y-41404761D01*
X9209523Y-41357142D01*
%TO.C,C10*%
X13592857Y-43627142D02*
X13640476Y-43674761D01*
X13783333Y-43722380D01*
X13878571Y-43722380D01*
X14021428Y-43674761D01*
X14116666Y-43579523D01*
X14164285Y-43484285D01*
X14211904Y-43293809D01*
X14211904Y-43150952D01*
X14164285Y-42960476D01*
X14116666Y-42865238D01*
X14021428Y-42770000D01*
X13878571Y-42722380D01*
X13783333Y-42722380D01*
X13640476Y-42770000D01*
X13592857Y-42817619D01*
X12640476Y-43722380D02*
X13211904Y-43722380D01*
X12926190Y-43722380D02*
X12926190Y-42722380D01*
X13021428Y-42865238D01*
X13116666Y-42960476D01*
X13211904Y-43008095D01*
X12021428Y-42722380D02*
X11926190Y-42722380D01*
X11830952Y-42770000D01*
X11783333Y-42817619D01*
X11735714Y-42912857D01*
X11688095Y-43103333D01*
X11688095Y-43341428D01*
X11735714Y-43531904D01*
X11783333Y-43627142D01*
X11830952Y-43674761D01*
X11926190Y-43722380D01*
X12021428Y-43722380D01*
X12116666Y-43674761D01*
X12164285Y-43627142D01*
X12211904Y-43531904D01*
X12259523Y-43341428D01*
X12259523Y-43103333D01*
X12211904Y-42912857D01*
X12164285Y-42817619D01*
X12116666Y-42770000D01*
X12021428Y-42722380D01*
%TO.C,C17*%
X16257142Y-48457142D02*
X16304761Y-48409523D01*
X16352380Y-48266666D01*
X16352380Y-48171428D01*
X16304761Y-48028571D01*
X16209523Y-47933333D01*
X16114285Y-47885714D01*
X15923809Y-47838095D01*
X15780952Y-47838095D01*
X15590476Y-47885714D01*
X15495238Y-47933333D01*
X15400000Y-48028571D01*
X15352380Y-48171428D01*
X15352380Y-48266666D01*
X15400000Y-48409523D01*
X15447619Y-48457142D01*
X16352380Y-49409523D02*
X16352380Y-48838095D01*
X16352380Y-49123809D02*
X15352380Y-49123809D01*
X15495238Y-49028571D01*
X15590476Y-48933333D01*
X15638095Y-48838095D01*
X15352380Y-49742857D02*
X15352380Y-50409523D01*
X16352380Y-49980952D01*
%TO.C,D28*%
X-4285119Y-11285714D02*
X-5285119Y-11285714D01*
X-5285119Y-11523809D01*
X-5237500Y-11666666D01*
X-5142261Y-11761904D01*
X-5047023Y-11809523D01*
X-4856547Y-11857142D01*
X-4713690Y-11857142D01*
X-4523214Y-11809523D01*
X-4427976Y-11761904D01*
X-4332738Y-11666666D01*
X-4285119Y-11523809D01*
X-4285119Y-11285714D01*
X-5189880Y-12238095D02*
X-5237500Y-12285714D01*
X-5285119Y-12380952D01*
X-5285119Y-12619047D01*
X-5237500Y-12714285D01*
X-5189880Y-12761904D01*
X-5094642Y-12809523D01*
X-4999404Y-12809523D01*
X-4856547Y-12761904D01*
X-4285119Y-12190476D01*
X-4285119Y-12809523D01*
X-4856547Y-13380952D02*
X-4904166Y-13285714D01*
X-4951785Y-13238095D01*
X-5047023Y-13190476D01*
X-5094642Y-13190476D01*
X-5189880Y-13238095D01*
X-5237500Y-13285714D01*
X-5285119Y-13380952D01*
X-5285119Y-13571428D01*
X-5237500Y-13666666D01*
X-5189880Y-13714285D01*
X-5094642Y-13761904D01*
X-5047023Y-13761904D01*
X-4951785Y-13714285D01*
X-4904166Y-13666666D01*
X-4856547Y-13571428D01*
X-4856547Y-13380952D01*
X-4808928Y-13285714D01*
X-4761309Y-13238095D01*
X-4666071Y-13190476D01*
X-4475595Y-13190476D01*
X-4380357Y-13238095D01*
X-4332738Y-13285714D01*
X-4285119Y-13380952D01*
X-4285119Y-13571428D01*
X-4332738Y-13666666D01*
X-4380357Y-13714285D01*
X-4475595Y-13761904D01*
X-4666071Y-13761904D01*
X-4761309Y-13714285D01*
X-4808928Y-13666666D01*
X-4856547Y-13571428D01*
%TO.C,D2*%
X26671130Y26338095D02*
X25671130Y26338095D01*
X25671130Y26100000D01*
X25718750Y25957142D01*
X25813988Y25861904D01*
X25909226Y25814285D01*
X26099702Y25766666D01*
X26242559Y25766666D01*
X26433035Y25814285D01*
X26528273Y25861904D01*
X26623511Y25957142D01*
X26671130Y26100000D01*
X26671130Y26338095D01*
X25766369Y25385714D02*
X25718750Y25338095D01*
X25671130Y25242857D01*
X25671130Y25004761D01*
X25718750Y24909523D01*
X25766369Y24861904D01*
X25861607Y24814285D01*
X25956845Y24814285D01*
X26099702Y24861904D01*
X26671130Y25433333D01*
X26671130Y24814285D01*
%TO.C,D42*%
X-1903869Y-30335714D02*
X-2903869Y-30335714D01*
X-2903869Y-30573809D01*
X-2856250Y-30716666D01*
X-2761011Y-30811904D01*
X-2665773Y-30859523D01*
X-2475297Y-30907142D01*
X-2332440Y-30907142D01*
X-2141964Y-30859523D01*
X-2046726Y-30811904D01*
X-1951488Y-30716666D01*
X-1903869Y-30573809D01*
X-1903869Y-30335714D01*
X-2570535Y-31764285D02*
X-1903869Y-31764285D01*
X-2951488Y-31526190D02*
X-2237202Y-31288095D01*
X-2237202Y-31907142D01*
X-2808630Y-32240476D02*
X-2856250Y-32288095D01*
X-2903869Y-32383333D01*
X-2903869Y-32621428D01*
X-2856250Y-32716666D01*
X-2808630Y-32764285D01*
X-2713392Y-32811904D01*
X-2618154Y-32811904D01*
X-2475297Y-32764285D01*
X-1903869Y-32192857D01*
X-1903869Y-32811904D01*
%TO.C,C13*%
X25517142Y-39277142D02*
X25564761Y-39229523D01*
X25612380Y-39086666D01*
X25612380Y-38991428D01*
X25564761Y-38848571D01*
X25469523Y-38753333D01*
X25374285Y-38705714D01*
X25183809Y-38658095D01*
X25040952Y-38658095D01*
X24850476Y-38705714D01*
X24755238Y-38753333D01*
X24660000Y-38848571D01*
X24612380Y-38991428D01*
X24612380Y-39086666D01*
X24660000Y-39229523D01*
X24707619Y-39277142D01*
X25612380Y-40229523D02*
X25612380Y-39658095D01*
X25612380Y-39943809D02*
X24612380Y-39943809D01*
X24755238Y-39848571D01*
X24850476Y-39753333D01*
X24898095Y-39658095D01*
X24612380Y-40562857D02*
X24612380Y-41181904D01*
X24993333Y-40848571D01*
X24993333Y-40991428D01*
X25040952Y-41086666D01*
X25088571Y-41134285D01*
X25183809Y-41181904D01*
X25421904Y-41181904D01*
X25517142Y-41134285D01*
X25564761Y-41086666D01*
X25612380Y-40991428D01*
X25612380Y-40705714D01*
X25564761Y-40610476D01*
X25517142Y-40562857D01*
%TO.C,D73*%
X219552380Y-68435714D02*
X218552380Y-68435714D01*
X218552380Y-68673809D01*
X218600000Y-68816666D01*
X218695238Y-68911904D01*
X218790476Y-68959523D01*
X218980952Y-69007142D01*
X219123809Y-69007142D01*
X219314285Y-68959523D01*
X219409523Y-68911904D01*
X219504761Y-68816666D01*
X219552380Y-68673809D01*
X219552380Y-68435714D01*
X218552380Y-69340476D02*
X218552380Y-70007142D01*
X219552380Y-69578571D01*
X218552380Y-70292857D02*
X218552380Y-70911904D01*
X218933333Y-70578571D01*
X218933333Y-70721428D01*
X218980952Y-70816666D01*
X219028571Y-70864285D01*
X219123809Y-70911904D01*
X219361904Y-70911904D01*
X219457142Y-70864285D01*
X219504761Y-70816666D01*
X219552380Y-70721428D01*
X219552380Y-70435714D01*
X219504761Y-70340476D01*
X219457142Y-70292857D01*
%TO.C,D6*%
X112396130Y26338095D02*
X111396130Y26338095D01*
X111396130Y26100000D01*
X111443750Y25957142D01*
X111538988Y25861904D01*
X111634226Y25814285D01*
X111824702Y25766666D01*
X111967559Y25766666D01*
X112158035Y25814285D01*
X112253273Y25861904D01*
X112348511Y25957142D01*
X112396130Y26100000D01*
X112396130Y26338095D01*
X111396130Y24909523D02*
X111396130Y25100000D01*
X111443750Y25195238D01*
X111491369Y25242857D01*
X111634226Y25338095D01*
X111824702Y25385714D01*
X112205654Y25385714D01*
X112300892Y25338095D01*
X112348511Y25290476D01*
X112396130Y25195238D01*
X112396130Y25004761D01*
X112348511Y24909523D01*
X112300892Y24861904D01*
X112205654Y24814285D01*
X111967559Y24814285D01*
X111872321Y24861904D01*
X111824702Y24909523D01*
X111777083Y25004761D01*
X111777083Y25195238D01*
X111824702Y25290476D01*
X111872321Y25338095D01*
X111967559Y25385714D01*
%TO.C,D53*%
X214789880Y-30335714D02*
X213789880Y-30335714D01*
X213789880Y-30573809D01*
X213837500Y-30716666D01*
X213932738Y-30811904D01*
X214027976Y-30859523D01*
X214218452Y-30907142D01*
X214361309Y-30907142D01*
X214551785Y-30859523D01*
X214647023Y-30811904D01*
X214742261Y-30716666D01*
X214789880Y-30573809D01*
X214789880Y-30335714D01*
X213789880Y-31811904D02*
X213789880Y-31335714D01*
X214266071Y-31288095D01*
X214218452Y-31335714D01*
X214170833Y-31430952D01*
X214170833Y-31669047D01*
X214218452Y-31764285D01*
X214266071Y-31811904D01*
X214361309Y-31859523D01*
X214599404Y-31859523D01*
X214694642Y-31811904D01*
X214742261Y-31764285D01*
X214789880Y-31669047D01*
X214789880Y-31430952D01*
X214742261Y-31335714D01*
X214694642Y-31288095D01*
X213789880Y-32192857D02*
X213789880Y-32811904D01*
X214170833Y-32478571D01*
X214170833Y-32621428D01*
X214218452Y-32716666D01*
X214266071Y-32764285D01*
X214361309Y-32811904D01*
X214599404Y-32811904D01*
X214694642Y-32764285D01*
X214742261Y-32716666D01*
X214789880Y-32621428D01*
X214789880Y-32335714D01*
X214742261Y-32240476D01*
X214694642Y-32192857D01*
%TO.C,D40*%
X229077380Y-11285714D02*
X228077380Y-11285714D01*
X228077380Y-11523809D01*
X228125000Y-11666666D01*
X228220238Y-11761904D01*
X228315476Y-11809523D01*
X228505952Y-11857142D01*
X228648809Y-11857142D01*
X228839285Y-11809523D01*
X228934523Y-11761904D01*
X229029761Y-11666666D01*
X229077380Y-11523809D01*
X229077380Y-11285714D01*
X228410714Y-12714285D02*
X229077380Y-12714285D01*
X228029761Y-12476190D02*
X228744047Y-12238095D01*
X228744047Y-12857142D01*
X228077380Y-13428571D02*
X228077380Y-13523809D01*
X228125000Y-13619047D01*
X228172619Y-13666666D01*
X228267857Y-13714285D01*
X228458333Y-13761904D01*
X228696428Y-13761904D01*
X228886904Y-13714285D01*
X228982142Y-13666666D01*
X229029761Y-13619047D01*
X229077380Y-13523809D01*
X229077380Y-13428571D01*
X229029761Y-13333333D01*
X228982142Y-13285714D01*
X228886904Y-13238095D01*
X228696428Y-13190476D01*
X228458333Y-13190476D01*
X228267857Y-13238095D01*
X228172619Y-13285714D01*
X228125000Y-13333333D01*
X228077380Y-13428571D01*
%TO.C,F1*%
X25028571Y17033333D02*
X25028571Y17366666D01*
X25552380Y17366666D02*
X24552380Y17366666D01*
X24552380Y16890476D01*
X25552380Y15985714D02*
X25552380Y16557142D01*
X25552380Y16271428D02*
X24552380Y16271428D01*
X24695238Y16366666D01*
X24790476Y16461904D01*
X24838095Y16557142D01*
D11*
%TO.C,C14*%
X17785714Y-35385714D02*
X17823809Y-35347619D01*
X17861904Y-35233333D01*
X17861904Y-35157142D01*
X17823809Y-35042857D01*
X17747619Y-34966666D01*
X17671428Y-34928571D01*
X17519047Y-34890476D01*
X17404761Y-34890476D01*
X17252380Y-34928571D01*
X17176190Y-34966666D01*
X17100000Y-35042857D01*
X17061904Y-35157142D01*
X17061904Y-35233333D01*
X17100000Y-35347619D01*
X17138095Y-35385714D01*
X17861904Y-36147619D02*
X17861904Y-35690476D01*
X17861904Y-35919047D02*
X17061904Y-35919047D01*
X17176190Y-35842857D01*
X17252380Y-35766666D01*
X17290476Y-35690476D01*
X17328571Y-36833333D02*
X17861904Y-36833333D01*
X17023809Y-36642857D02*
X17595238Y-36452380D01*
X17595238Y-36947619D01*
D10*
%TO.C,D26*%
X219552380Y7764285D02*
X218552380Y7764285D01*
X218552380Y7526190D01*
X218600000Y7383333D01*
X218695238Y7288095D01*
X218790476Y7240476D01*
X218980952Y7192857D01*
X219123809Y7192857D01*
X219314285Y7240476D01*
X219409523Y7288095D01*
X219504761Y7383333D01*
X219552380Y7526190D01*
X219552380Y7764285D01*
X218647619Y6811904D02*
X218600000Y6764285D01*
X218552380Y6669047D01*
X218552380Y6430952D01*
X218600000Y6335714D01*
X218647619Y6288095D01*
X218742857Y6240476D01*
X218838095Y6240476D01*
X218980952Y6288095D01*
X219552380Y6859523D01*
X219552380Y6240476D01*
X218552380Y5383333D02*
X218552380Y5573809D01*
X218600000Y5669047D01*
X218647619Y5716666D01*
X218790476Y5811904D01*
X218980952Y5859523D01*
X219361904Y5859523D01*
X219457142Y5811904D01*
X219504761Y5764285D01*
X219552380Y5669047D01*
X219552380Y5478571D01*
X219504761Y5383333D01*
X219457142Y5335714D01*
X219361904Y5288095D01*
X219123809Y5288095D01*
X219028571Y5335714D01*
X218980952Y5383333D01*
X218933333Y5478571D01*
X218933333Y5669047D01*
X218980952Y5764285D01*
X219028571Y5811904D01*
X219123809Y5859523D01*
%TO.C,D67*%
X-3847619Y-69685714D02*
X-4847619Y-69685714D01*
X-4847619Y-69923809D01*
X-4800000Y-70066666D01*
X-4704761Y-70161904D01*
X-4609523Y-70209523D01*
X-4419047Y-70257142D01*
X-4276190Y-70257142D01*
X-4085714Y-70209523D01*
X-3990476Y-70161904D01*
X-3895238Y-70066666D01*
X-3847619Y-69923809D01*
X-3847619Y-69685714D01*
X-4847619Y-71114285D02*
X-4847619Y-70923809D01*
X-4800000Y-70828571D01*
X-4752380Y-70780952D01*
X-4609523Y-70685714D01*
X-4419047Y-70638095D01*
X-4038095Y-70638095D01*
X-3942857Y-70685714D01*
X-3895238Y-70733333D01*
X-3847619Y-70828571D01*
X-3847619Y-71019047D01*
X-3895238Y-71114285D01*
X-3942857Y-71161904D01*
X-4038095Y-71209523D01*
X-4276190Y-71209523D01*
X-4371428Y-71161904D01*
X-4419047Y-71114285D01*
X-4466666Y-71019047D01*
X-4466666Y-70828571D01*
X-4419047Y-70733333D01*
X-4371428Y-70685714D01*
X-4276190Y-70638095D01*
X-4847619Y-71542857D02*
X-4847619Y-72209523D01*
X-3847619Y-71780952D01*
%TO.C,D33*%
X95727380Y-11285714D02*
X94727380Y-11285714D01*
X94727380Y-11523809D01*
X94775000Y-11666666D01*
X94870238Y-11761904D01*
X94965476Y-11809523D01*
X95155952Y-11857142D01*
X95298809Y-11857142D01*
X95489285Y-11809523D01*
X95584523Y-11761904D01*
X95679761Y-11666666D01*
X95727380Y-11523809D01*
X95727380Y-11285714D01*
X94727380Y-12190476D02*
X94727380Y-12809523D01*
X95108333Y-12476190D01*
X95108333Y-12619047D01*
X95155952Y-12714285D01*
X95203571Y-12761904D01*
X95298809Y-12809523D01*
X95536904Y-12809523D01*
X95632142Y-12761904D01*
X95679761Y-12714285D01*
X95727380Y-12619047D01*
X95727380Y-12333333D01*
X95679761Y-12238095D01*
X95632142Y-12190476D01*
X94727380Y-13142857D02*
X94727380Y-13761904D01*
X95108333Y-13428571D01*
X95108333Y-13571428D01*
X95155952Y-13666666D01*
X95203571Y-13714285D01*
X95298809Y-13761904D01*
X95536904Y-13761904D01*
X95632142Y-13714285D01*
X95679761Y-13666666D01*
X95727380Y-13571428D01*
X95727380Y-13285714D01*
X95679761Y-13190476D01*
X95632142Y-13142857D01*
%TO.C,Y1*%
X21576190Y-50723809D02*
X22052380Y-50723809D01*
X21052380Y-50390476D02*
X21576190Y-50723809D01*
X21052380Y-51057142D01*
X22052380Y-51914285D02*
X22052380Y-51342857D01*
X22052380Y-51628571D02*
X21052380Y-51628571D01*
X21195238Y-51533333D01*
X21290476Y-51438095D01*
X21338095Y-51342857D01*
%TO.C,D61*%
X129064880Y-49385714D02*
X128064880Y-49385714D01*
X128064880Y-49623809D01*
X128112500Y-49766666D01*
X128207738Y-49861904D01*
X128302976Y-49909523D01*
X128493452Y-49957142D01*
X128636309Y-49957142D01*
X128826785Y-49909523D01*
X128922023Y-49861904D01*
X129017261Y-49766666D01*
X129064880Y-49623809D01*
X129064880Y-49385714D01*
X128064880Y-50814285D02*
X128064880Y-50623809D01*
X128112500Y-50528571D01*
X128160119Y-50480952D01*
X128302976Y-50385714D01*
X128493452Y-50338095D01*
X128874404Y-50338095D01*
X128969642Y-50385714D01*
X129017261Y-50433333D01*
X129064880Y-50528571D01*
X129064880Y-50719047D01*
X129017261Y-50814285D01*
X128969642Y-50861904D01*
X128874404Y-50909523D01*
X128636309Y-50909523D01*
X128541071Y-50861904D01*
X128493452Y-50814285D01*
X128445833Y-50719047D01*
X128445833Y-50528571D01*
X128493452Y-50433333D01*
X128541071Y-50385714D01*
X128636309Y-50338095D01*
X129064880Y-51861904D02*
X129064880Y-51290476D01*
X129064880Y-51576190D02*
X128064880Y-51576190D01*
X128207738Y-51480952D01*
X128302976Y-51385714D01*
X128350595Y-51290476D01*
%TO.C,D58*%
X71914880Y-49385714D02*
X70914880Y-49385714D01*
X70914880Y-49623809D01*
X70962500Y-49766666D01*
X71057738Y-49861904D01*
X71152976Y-49909523D01*
X71343452Y-49957142D01*
X71486309Y-49957142D01*
X71676785Y-49909523D01*
X71772023Y-49861904D01*
X71867261Y-49766666D01*
X71914880Y-49623809D01*
X71914880Y-49385714D01*
X70914880Y-50861904D02*
X70914880Y-50385714D01*
X71391071Y-50338095D01*
X71343452Y-50385714D01*
X71295833Y-50480952D01*
X71295833Y-50719047D01*
X71343452Y-50814285D01*
X71391071Y-50861904D01*
X71486309Y-50909523D01*
X71724404Y-50909523D01*
X71819642Y-50861904D01*
X71867261Y-50814285D01*
X71914880Y-50719047D01*
X71914880Y-50480952D01*
X71867261Y-50385714D01*
X71819642Y-50338095D01*
X71343452Y-51480952D02*
X71295833Y-51385714D01*
X71248214Y-51338095D01*
X71152976Y-51290476D01*
X71105357Y-51290476D01*
X71010119Y-51338095D01*
X70962500Y-51385714D01*
X70914880Y-51480952D01*
X70914880Y-51671428D01*
X70962500Y-51766666D01*
X71010119Y-51814285D01*
X71105357Y-51861904D01*
X71152976Y-51861904D01*
X71248214Y-51814285D01*
X71295833Y-51766666D01*
X71343452Y-51671428D01*
X71343452Y-51480952D01*
X71391071Y-51385714D01*
X71438690Y-51338095D01*
X71533928Y-51290476D01*
X71724404Y-51290476D01*
X71819642Y-51338095D01*
X71867261Y-51385714D01*
X71914880Y-51480952D01*
X71914880Y-51671428D01*
X71867261Y-51766666D01*
X71819642Y-51814285D01*
X71724404Y-51861904D01*
X71533928Y-51861904D01*
X71438690Y-51814285D01*
X71391071Y-51766666D01*
X71343452Y-51671428D01*
%TO.C,D36*%
X152877380Y-11285714D02*
X151877380Y-11285714D01*
X151877380Y-11523809D01*
X151925000Y-11666666D01*
X152020238Y-11761904D01*
X152115476Y-11809523D01*
X152305952Y-11857142D01*
X152448809Y-11857142D01*
X152639285Y-11809523D01*
X152734523Y-11761904D01*
X152829761Y-11666666D01*
X152877380Y-11523809D01*
X152877380Y-11285714D01*
X151877380Y-12190476D02*
X151877380Y-12809523D01*
X152258333Y-12476190D01*
X152258333Y-12619047D01*
X152305952Y-12714285D01*
X152353571Y-12761904D01*
X152448809Y-12809523D01*
X152686904Y-12809523D01*
X152782142Y-12761904D01*
X152829761Y-12714285D01*
X152877380Y-12619047D01*
X152877380Y-12333333D01*
X152829761Y-12238095D01*
X152782142Y-12190476D01*
X151877380Y-13666666D02*
X151877380Y-13476190D01*
X151925000Y-13380952D01*
X151972619Y-13333333D01*
X152115476Y-13238095D01*
X152305952Y-13190476D01*
X152686904Y-13190476D01*
X152782142Y-13238095D01*
X152829761Y-13285714D01*
X152877380Y-13380952D01*
X152877380Y-13571428D01*
X152829761Y-13666666D01*
X152782142Y-13714285D01*
X152686904Y-13761904D01*
X152448809Y-13761904D01*
X152353571Y-13714285D01*
X152305952Y-13666666D01*
X152258333Y-13571428D01*
X152258333Y-13380952D01*
X152305952Y-13285714D01*
X152353571Y-13238095D01*
X152448809Y-13190476D01*
%TO.C,D70*%
X50483630Y-68435714D02*
X49483630Y-68435714D01*
X49483630Y-68673809D01*
X49531250Y-68816666D01*
X49626488Y-68911904D01*
X49721726Y-68959523D01*
X49912202Y-69007142D01*
X50055059Y-69007142D01*
X50245535Y-68959523D01*
X50340773Y-68911904D01*
X50436011Y-68816666D01*
X50483630Y-68673809D01*
X50483630Y-68435714D01*
X49483630Y-69340476D02*
X49483630Y-70007142D01*
X50483630Y-69578571D01*
X49483630Y-70578571D02*
X49483630Y-70673809D01*
X49531250Y-70769047D01*
X49578869Y-70816666D01*
X49674107Y-70864285D01*
X49864583Y-70911904D01*
X50102678Y-70911904D01*
X50293154Y-70864285D01*
X50388392Y-70816666D01*
X50436011Y-70769047D01*
X50483630Y-70673809D01*
X50483630Y-70578571D01*
X50436011Y-70483333D01*
X50388392Y-70435714D01*
X50293154Y-70388095D01*
X50102678Y-70340476D01*
X49864583Y-70340476D01*
X49674107Y-70388095D01*
X49578869Y-70435714D01*
X49531250Y-70483333D01*
X49483630Y-70578571D01*
%TO.C,U1*%
X20452380Y-42338095D02*
X21261904Y-42338095D01*
X21357142Y-42385714D01*
X21404761Y-42433333D01*
X21452380Y-42528571D01*
X21452380Y-42719047D01*
X21404761Y-42814285D01*
X21357142Y-42861904D01*
X21261904Y-42909523D01*
X20452380Y-42909523D01*
X21452380Y-43909523D02*
X21452380Y-43338095D01*
X21452380Y-43623809D02*
X20452380Y-43623809D01*
X20595238Y-43528571D01*
X20690476Y-43433333D01*
X20738095Y-43338095D01*
%TO.C,D71*%
X121921130Y-68435714D02*
X120921130Y-68435714D01*
X120921130Y-68673809D01*
X120968750Y-68816666D01*
X121063988Y-68911904D01*
X121159226Y-68959523D01*
X121349702Y-69007142D01*
X121492559Y-69007142D01*
X121683035Y-68959523D01*
X121778273Y-68911904D01*
X121873511Y-68816666D01*
X121921130Y-68673809D01*
X121921130Y-68435714D01*
X120921130Y-69340476D02*
X120921130Y-70007142D01*
X121921130Y-69578571D01*
X121921130Y-70911904D02*
X121921130Y-70340476D01*
X121921130Y-70626190D02*
X120921130Y-70626190D01*
X121063988Y-70530952D01*
X121159226Y-70435714D01*
X121206845Y-70340476D01*
%TO.C,D59*%
X90964880Y-49385714D02*
X89964880Y-49385714D01*
X89964880Y-49623809D01*
X90012500Y-49766666D01*
X90107738Y-49861904D01*
X90202976Y-49909523D01*
X90393452Y-49957142D01*
X90536309Y-49957142D01*
X90726785Y-49909523D01*
X90822023Y-49861904D01*
X90917261Y-49766666D01*
X90964880Y-49623809D01*
X90964880Y-49385714D01*
X89964880Y-50861904D02*
X89964880Y-50385714D01*
X90441071Y-50338095D01*
X90393452Y-50385714D01*
X90345833Y-50480952D01*
X90345833Y-50719047D01*
X90393452Y-50814285D01*
X90441071Y-50861904D01*
X90536309Y-50909523D01*
X90774404Y-50909523D01*
X90869642Y-50861904D01*
X90917261Y-50814285D01*
X90964880Y-50719047D01*
X90964880Y-50480952D01*
X90917261Y-50385714D01*
X90869642Y-50338095D01*
X90964880Y-51385714D02*
X90964880Y-51576190D01*
X90917261Y-51671428D01*
X90869642Y-51719047D01*
X90726785Y-51814285D01*
X90536309Y-51861904D01*
X90155357Y-51861904D01*
X90060119Y-51814285D01*
X90012500Y-51766666D01*
X89964880Y-51671428D01*
X89964880Y-51480952D01*
X90012500Y-51385714D01*
X90060119Y-51338095D01*
X90155357Y-51290476D01*
X90393452Y-51290476D01*
X90488690Y-51338095D01*
X90536309Y-51385714D01*
X90583928Y-51480952D01*
X90583928Y-51671428D01*
X90536309Y-51766666D01*
X90488690Y-51814285D01*
X90393452Y-51861904D01*
%TO.C,U5*%
X32561879Y-19552609D02*
X32561879Y-20362133D01*
X32514260Y-20457371D01*
X32466641Y-20504990D01*
X32371403Y-20552609D01*
X32180927Y-20552609D01*
X32085689Y-20504990D01*
X32038070Y-20457371D01*
X31990451Y-20362133D01*
X31990451Y-19552609D01*
X31038070Y-19552609D02*
X31514260Y-19552609D01*
X31561879Y-20028800D01*
X31514260Y-19981181D01*
X31419022Y-19933562D01*
X31180927Y-19933562D01*
X31085689Y-19981181D01*
X31038070Y-20028800D01*
X30990451Y-20124038D01*
X30990451Y-20362133D01*
X31038070Y-20457371D01*
X31085689Y-20504990D01*
X31180927Y-20552609D01*
X31419022Y-20552609D01*
X31514260Y-20504990D01*
X31561879Y-20457371D01*
X43233333Y-24052380D02*
X43233333Y-24861904D01*
X43185714Y-24957142D01*
X43138095Y-25004761D01*
X43042857Y-25052380D01*
X42852380Y-25052380D01*
X42757142Y-25004761D01*
X42709523Y-24957142D01*
X42661904Y-24861904D01*
X42661904Y-24052380D01*
X42233333Y-25004761D02*
X42090476Y-25052380D01*
X41852380Y-25052380D01*
X41757142Y-25004761D01*
X41709523Y-24957142D01*
X41661904Y-24861904D01*
X41661904Y-24766666D01*
X41709523Y-24671428D01*
X41757142Y-24623809D01*
X41852380Y-24576190D01*
X42042857Y-24528571D01*
X42138095Y-24480952D01*
X42185714Y-24433333D01*
X42233333Y-24338095D01*
X42233333Y-24242857D01*
X42185714Y-24147619D01*
X42138095Y-24100000D01*
X42042857Y-24052380D01*
X41804761Y-24052380D01*
X41661904Y-24100000D01*
X40900000Y-24528571D02*
X40757142Y-24576190D01*
X40709523Y-24623809D01*
X40661904Y-24719047D01*
X40661904Y-24861904D01*
X40709523Y-24957142D01*
X40757142Y-25004761D01*
X40852380Y-25052380D01*
X41233333Y-25052380D01*
X41233333Y-24052380D01*
X40900000Y-24052380D01*
X40804761Y-24100000D01*
X40757142Y-24147619D01*
X40709523Y-24242857D01*
X40709523Y-24338095D01*
X40757142Y-24433333D01*
X40804761Y-24480952D01*
X40900000Y-24528571D01*
X41233333Y-24528571D01*
X39138095Y-24528571D02*
X38995238Y-24576190D01*
X38947619Y-24623809D01*
X38900000Y-24719047D01*
X38900000Y-24861904D01*
X38947619Y-24957142D01*
X38995238Y-25004761D01*
X39090476Y-25052380D01*
X39471428Y-25052380D01*
X39471428Y-24052380D01*
X39138095Y-24052380D01*
X39042857Y-24100000D01*
X38995238Y-24147619D01*
X38947619Y-24242857D01*
X38947619Y-24338095D01*
X38995238Y-24433333D01*
X39042857Y-24480952D01*
X39138095Y-24528571D01*
X39471428Y-24528571D01*
X38328571Y-25052380D02*
X38423809Y-25004761D01*
X38471428Y-24957142D01*
X38519047Y-24861904D01*
X38519047Y-24576190D01*
X38471428Y-24480952D01*
X38423809Y-24433333D01*
X38328571Y-24385714D01*
X38185714Y-24385714D01*
X38090476Y-24433333D01*
X38042857Y-24480952D01*
X37995238Y-24576190D01*
X37995238Y-24861904D01*
X38042857Y-24957142D01*
X38090476Y-25004761D01*
X38185714Y-25052380D01*
X38328571Y-25052380D01*
X37423809Y-25052380D02*
X37519047Y-25004761D01*
X37566666Y-24957142D01*
X37614285Y-24861904D01*
X37614285Y-24576190D01*
X37566666Y-24480952D01*
X37519047Y-24433333D01*
X37423809Y-24385714D01*
X37280952Y-24385714D01*
X37185714Y-24433333D01*
X37138095Y-24480952D01*
X37090476Y-24576190D01*
X37090476Y-24861904D01*
X37138095Y-24957142D01*
X37185714Y-25004761D01*
X37280952Y-25052380D01*
X37423809Y-25052380D01*
X36804761Y-24385714D02*
X36423809Y-24385714D01*
X36661904Y-24052380D02*
X36661904Y-24909523D01*
X36614285Y-25004761D01*
X36519047Y-25052380D01*
X36423809Y-25052380D01*
%TO.C,D69*%
X29052380Y-68435714D02*
X28052380Y-68435714D01*
X28052380Y-68673809D01*
X28100000Y-68816666D01*
X28195238Y-68911904D01*
X28290476Y-68959523D01*
X28480952Y-69007142D01*
X28623809Y-69007142D01*
X28814285Y-68959523D01*
X28909523Y-68911904D01*
X29004761Y-68816666D01*
X29052380Y-68673809D01*
X29052380Y-68435714D01*
X28052380Y-69864285D02*
X28052380Y-69673809D01*
X28100000Y-69578571D01*
X28147619Y-69530952D01*
X28290476Y-69435714D01*
X28480952Y-69388095D01*
X28861904Y-69388095D01*
X28957142Y-69435714D01*
X29004761Y-69483333D01*
X29052380Y-69578571D01*
X29052380Y-69769047D01*
X29004761Y-69864285D01*
X28957142Y-69911904D01*
X28861904Y-69959523D01*
X28623809Y-69959523D01*
X28528571Y-69911904D01*
X28480952Y-69864285D01*
X28433333Y-69769047D01*
X28433333Y-69578571D01*
X28480952Y-69483333D01*
X28528571Y-69435714D01*
X28623809Y-69388095D01*
X29052380Y-70435714D02*
X29052380Y-70626190D01*
X29004761Y-70721428D01*
X28957142Y-70769047D01*
X28814285Y-70864285D01*
X28623809Y-70911904D01*
X28242857Y-70911904D01*
X28147619Y-70864285D01*
X28100000Y-70816666D01*
X28052380Y-70721428D01*
X28052380Y-70530952D01*
X28100000Y-70435714D01*
X28147619Y-70388095D01*
X28242857Y-70340476D01*
X28480952Y-70340476D01*
X28576190Y-70388095D01*
X28623809Y-70435714D01*
X28671428Y-70530952D01*
X28671428Y-70721428D01*
X28623809Y-70816666D01*
X28576190Y-70864285D01*
X28480952Y-70911904D01*
%TO.C,C6*%
X26957142Y-53933333D02*
X27004761Y-53885714D01*
X27052380Y-53742857D01*
X27052380Y-53647619D01*
X27004761Y-53504761D01*
X26909523Y-53409523D01*
X26814285Y-53361904D01*
X26623809Y-53314285D01*
X26480952Y-53314285D01*
X26290476Y-53361904D01*
X26195238Y-53409523D01*
X26100000Y-53504761D01*
X26052380Y-53647619D01*
X26052380Y-53742857D01*
X26100000Y-53885714D01*
X26147619Y-53933333D01*
X26052380Y-54790476D02*
X26052380Y-54600000D01*
X26100000Y-54504761D01*
X26147619Y-54457142D01*
X26290476Y-54361904D01*
X26480952Y-54314285D01*
X26861904Y-54314285D01*
X26957142Y-54361904D01*
X27004761Y-54409523D01*
X27052380Y-54504761D01*
X27052380Y-54695238D01*
X27004761Y-54790476D01*
X26957142Y-54838095D01*
X26861904Y-54885714D01*
X26623809Y-54885714D01*
X26528571Y-54838095D01*
X26480952Y-54790476D01*
X26433333Y-54695238D01*
X26433333Y-54504761D01*
X26480952Y-54409523D01*
X26528571Y-54361904D01*
X26623809Y-54314285D01*
%TO.C,D17*%
X48102380Y7764285D02*
X47102380Y7764285D01*
X47102380Y7526190D01*
X47150000Y7383333D01*
X47245238Y7288095D01*
X47340476Y7240476D01*
X47530952Y7192857D01*
X47673809Y7192857D01*
X47864285Y7240476D01*
X47959523Y7288095D01*
X48054761Y7383333D01*
X48102380Y7526190D01*
X48102380Y7764285D01*
X48102380Y6240476D02*
X48102380Y6811904D01*
X48102380Y6526190D02*
X47102380Y6526190D01*
X47245238Y6621428D01*
X47340476Y6716666D01*
X47388095Y6811904D01*
X47102380Y5907142D02*
X47102380Y5240476D01*
X48102380Y5669047D01*
%TO.C,D18*%
X67152380Y7764285D02*
X66152380Y7764285D01*
X66152380Y7526190D01*
X66200000Y7383333D01*
X66295238Y7288095D01*
X66390476Y7240476D01*
X66580952Y7192857D01*
X66723809Y7192857D01*
X66914285Y7240476D01*
X67009523Y7288095D01*
X67104761Y7383333D01*
X67152380Y7526190D01*
X67152380Y7764285D01*
X67152380Y6240476D02*
X67152380Y6811904D01*
X67152380Y6526190D02*
X66152380Y6526190D01*
X66295238Y6621428D01*
X66390476Y6716666D01*
X66438095Y6811904D01*
X66580952Y5669047D02*
X66533333Y5764285D01*
X66485714Y5811904D01*
X66390476Y5859523D01*
X66342857Y5859523D01*
X66247619Y5811904D01*
X66200000Y5764285D01*
X66152380Y5669047D01*
X66152380Y5478571D01*
X66200000Y5383333D01*
X66247619Y5335714D01*
X66342857Y5288095D01*
X66390476Y5288095D01*
X66485714Y5335714D01*
X66533333Y5383333D01*
X66580952Y5478571D01*
X66580952Y5669047D01*
X66628571Y5764285D01*
X66676190Y5811904D01*
X66771428Y5859523D01*
X66961904Y5859523D01*
X67057142Y5811904D01*
X67104761Y5764285D01*
X67152380Y5669047D01*
X67152380Y5478571D01*
X67104761Y5383333D01*
X67057142Y5335714D01*
X66961904Y5288095D01*
X66771428Y5288095D01*
X66676190Y5335714D01*
X66628571Y5383333D01*
X66580952Y5478571D01*
%TO.C,D38*%
X190977380Y-11285714D02*
X189977380Y-11285714D01*
X189977380Y-11523809D01*
X190025000Y-11666666D01*
X190120238Y-11761904D01*
X190215476Y-11809523D01*
X190405952Y-11857142D01*
X190548809Y-11857142D01*
X190739285Y-11809523D01*
X190834523Y-11761904D01*
X190929761Y-11666666D01*
X190977380Y-11523809D01*
X190977380Y-11285714D01*
X189977380Y-12190476D02*
X189977380Y-12809523D01*
X190358333Y-12476190D01*
X190358333Y-12619047D01*
X190405952Y-12714285D01*
X190453571Y-12761904D01*
X190548809Y-12809523D01*
X190786904Y-12809523D01*
X190882142Y-12761904D01*
X190929761Y-12714285D01*
X190977380Y-12619047D01*
X190977380Y-12333333D01*
X190929761Y-12238095D01*
X190882142Y-12190476D01*
X190405952Y-13380952D02*
X190358333Y-13285714D01*
X190310714Y-13238095D01*
X190215476Y-13190476D01*
X190167857Y-13190476D01*
X190072619Y-13238095D01*
X190025000Y-13285714D01*
X189977380Y-13380952D01*
X189977380Y-13571428D01*
X190025000Y-13666666D01*
X190072619Y-13714285D01*
X190167857Y-13761904D01*
X190215476Y-13761904D01*
X190310714Y-13714285D01*
X190358333Y-13666666D01*
X190405952Y-13571428D01*
X190405952Y-13380952D01*
X190453571Y-13285714D01*
X190501190Y-13238095D01*
X190596428Y-13190476D01*
X190786904Y-13190476D01*
X190882142Y-13238095D01*
X190929761Y-13285714D01*
X190977380Y-13380952D01*
X190977380Y-13571428D01*
X190929761Y-13666666D01*
X190882142Y-13714285D01*
X190786904Y-13761904D01*
X190596428Y-13761904D01*
X190501190Y-13714285D01*
X190453571Y-13666666D01*
X190405952Y-13571428D01*
%TO.C,D75*%
X257652380Y-68435714D02*
X256652380Y-68435714D01*
X256652380Y-68673809D01*
X256700000Y-68816666D01*
X256795238Y-68911904D01*
X256890476Y-68959523D01*
X257080952Y-69007142D01*
X257223809Y-69007142D01*
X257414285Y-68959523D01*
X257509523Y-68911904D01*
X257604761Y-68816666D01*
X257652380Y-68673809D01*
X257652380Y-68435714D01*
X256652380Y-69340476D02*
X256652380Y-70007142D01*
X257652380Y-69578571D01*
X256652380Y-70864285D02*
X256652380Y-70388095D01*
X257128571Y-70340476D01*
X257080952Y-70388095D01*
X257033333Y-70483333D01*
X257033333Y-70721428D01*
X257080952Y-70816666D01*
X257128571Y-70864285D01*
X257223809Y-70911904D01*
X257461904Y-70911904D01*
X257557142Y-70864285D01*
X257604761Y-70816666D01*
X257652380Y-70721428D01*
X257652380Y-70483333D01*
X257604761Y-70388095D01*
X257557142Y-70340476D01*
%TO.C,D55*%
X2858630Y-48685714D02*
X1858630Y-48685714D01*
X1858630Y-48923809D01*
X1906250Y-49066666D01*
X2001488Y-49161904D01*
X2096726Y-49209523D01*
X2287202Y-49257142D01*
X2430059Y-49257142D01*
X2620535Y-49209523D01*
X2715773Y-49161904D01*
X2811011Y-49066666D01*
X2858630Y-48923809D01*
X2858630Y-48685714D01*
X1858630Y-50161904D02*
X1858630Y-49685714D01*
X2334821Y-49638095D01*
X2287202Y-49685714D01*
X2239583Y-49780952D01*
X2239583Y-50019047D01*
X2287202Y-50114285D01*
X2334821Y-50161904D01*
X2430059Y-50209523D01*
X2668154Y-50209523D01*
X2763392Y-50161904D01*
X2811011Y-50114285D01*
X2858630Y-50019047D01*
X2858630Y-49780952D01*
X2811011Y-49685714D01*
X2763392Y-49638095D01*
X1858630Y-51114285D02*
X1858630Y-50638095D01*
X2334821Y-50590476D01*
X2287202Y-50638095D01*
X2239583Y-50733333D01*
X2239583Y-50971428D01*
X2287202Y-51066666D01*
X2334821Y-51114285D01*
X2430059Y-51161904D01*
X2668154Y-51161904D01*
X2763392Y-51114285D01*
X2811011Y-51066666D01*
X2858630Y-50971428D01*
X2858630Y-50733333D01*
X2811011Y-50638095D01*
X2763392Y-50590476D01*
%TO.C,U4*%
X19052380Y-26338095D02*
X19861904Y-26338095D01*
X19957142Y-26385714D01*
X20004761Y-26433333D01*
X20052380Y-26528571D01*
X20052380Y-26719047D01*
X20004761Y-26814285D01*
X19957142Y-26861904D01*
X19861904Y-26909523D01*
X19052380Y-26909523D01*
X19385714Y-27814285D02*
X20052380Y-27814285D01*
X19004761Y-27576190D02*
X19719047Y-27338095D01*
X19719047Y-27957142D01*
%TO.C,D50*%
X157639880Y-30335714D02*
X156639880Y-30335714D01*
X156639880Y-30573809D01*
X156687500Y-30716666D01*
X156782738Y-30811904D01*
X156877976Y-30859523D01*
X157068452Y-30907142D01*
X157211309Y-30907142D01*
X157401785Y-30859523D01*
X157497023Y-30811904D01*
X157592261Y-30716666D01*
X157639880Y-30573809D01*
X157639880Y-30335714D01*
X156639880Y-31811904D02*
X156639880Y-31335714D01*
X157116071Y-31288095D01*
X157068452Y-31335714D01*
X157020833Y-31430952D01*
X157020833Y-31669047D01*
X157068452Y-31764285D01*
X157116071Y-31811904D01*
X157211309Y-31859523D01*
X157449404Y-31859523D01*
X157544642Y-31811904D01*
X157592261Y-31764285D01*
X157639880Y-31669047D01*
X157639880Y-31430952D01*
X157592261Y-31335714D01*
X157544642Y-31288095D01*
X156639880Y-32478571D02*
X156639880Y-32573809D01*
X156687500Y-32669047D01*
X156735119Y-32716666D01*
X156830357Y-32764285D01*
X157020833Y-32811904D01*
X157258928Y-32811904D01*
X157449404Y-32764285D01*
X157544642Y-32716666D01*
X157592261Y-32669047D01*
X157639880Y-32573809D01*
X157639880Y-32478571D01*
X157592261Y-32383333D01*
X157544642Y-32335714D01*
X157449404Y-32288095D01*
X157258928Y-32240476D01*
X157020833Y-32240476D01*
X156830357Y-32288095D01*
X156735119Y-32335714D01*
X156687500Y-32383333D01*
X156639880Y-32478571D01*
%TO.C,R2*%
X15752380Y-32933333D02*
X15276190Y-32600000D01*
X15752380Y-32361904D02*
X14752380Y-32361904D01*
X14752380Y-32742857D01*
X14800000Y-32838095D01*
X14847619Y-32885714D01*
X14942857Y-32933333D01*
X15085714Y-32933333D01*
X15180952Y-32885714D01*
X15228571Y-32838095D01*
X15276190Y-32742857D01*
X15276190Y-32361904D01*
X14847619Y-33314285D02*
X14800000Y-33361904D01*
X14752380Y-33457142D01*
X14752380Y-33695238D01*
X14800000Y-33790476D01*
X14847619Y-33838095D01*
X14942857Y-33885714D01*
X15038095Y-33885714D01*
X15180952Y-33838095D01*
X15752380Y-33266666D01*
X15752380Y-33885714D01*
D12*
%TO.C,SW68*%
X18850000Y-73500000D02*
X23950000Y-73500000D01*
X14950000Y-69300000D02*
X20050000Y-69300000D01*
X14950000Y-69300000D02*
G75*
G03*
X12950000Y-71300000I-1J-1999999D01*
G01*
X18850000Y-73500000D02*
G75*
G03*
X16850000Y-75500000I-1J-1999999D01*
G01*
%TO.C,SW71*%
X130768750Y-73500000D02*
X135868750Y-73500000D01*
X126868750Y-69300000D02*
X131968750Y-69300000D01*
X126868750Y-69300000D02*
G75*
G03*
X124868750Y-71300000I-1J-1999999D01*
G01*
X130768750Y-73500000D02*
G75*
G03*
X128768750Y-75500000I-1J-1999999D01*
G01*
%TO.C,SW19*%
X95050000Y2700000D02*
X100150000Y2700000D01*
X91150000Y6900000D02*
X96250000Y6900000D01*
X91150000Y6900000D02*
G75*
G03*
X89150000Y4900000I-1J-1999999D01*
G01*
X95050000Y2700000D02*
G75*
G03*
X93050000Y700000I-1J-1999999D01*
G01*
%TO.C,SW61*%
X134012500Y-50250000D02*
X139112500Y-50250000D01*
X137912500Y-54450000D02*
X143012500Y-54450000D01*
X134012500Y-50250000D02*
G75*
G03*
X132012500Y-52250000I-1J-1999999D01*
G01*
X137912500Y-54450000D02*
G75*
G03*
X135912500Y-56450000I-1J-1999999D01*
G01*
%TO.C,SW73*%
X228400000Y-73500000D02*
X233500000Y-73500000D01*
X224500000Y-69300000D02*
X229600000Y-69300000D01*
X224500000Y-69300000D02*
G75*
G03*
X222500000Y-71300000I-1J-1999999D01*
G01*
X228400000Y-73500000D02*
G75*
G03*
X226400000Y-75500000I-1J-1999999D01*
G01*
%TO.C,SW4*%
X69718750Y25950000D02*
X74818750Y25950000D01*
X73618750Y21750000D02*
X78718750Y21750000D01*
X73618750Y21750000D02*
G75*
G03*
X71618750Y19750000I-1J-1999999D01*
G01*
X69718750Y25950000D02*
G75*
G03*
X67718750Y23950000I-1J-1999999D01*
G01*
%TO.C,SW16*%
X37900000Y2700000D02*
X43000000Y2700000D01*
X34000000Y6900000D02*
X39100000Y6900000D01*
X37900000Y2700000D02*
G75*
G03*
X35900000Y700000I-1J-1999999D01*
G01*
X34000000Y6900000D02*
G75*
G03*
X32000000Y4900000I-1J-1999999D01*
G01*
%TO.C,SW74*%
X243550000Y-69300000D02*
X248650000Y-69300000D01*
X247450000Y-73500000D02*
X252550000Y-73500000D01*
X247450000Y-73500000D02*
G75*
G03*
X245450000Y-75500000I-1J-1999999D01*
G01*
X243550000Y-69300000D02*
G75*
G03*
X241550000Y-71300000I-1J-1999999D01*
G01*
%TO.C,SW6*%
X117343750Y25950000D02*
X122443750Y25950000D01*
X121243750Y21750000D02*
X126343750Y21750000D01*
X117343750Y25950000D02*
G75*
G03*
X115343750Y23950000I-1J-1999999D01*
G01*
X121243750Y21750000D02*
G75*
G03*
X119243750Y19750000I-1J-1999999D01*
G01*
%TO.C,SW64*%
X191162500Y-50250000D02*
X196262500Y-50250000D01*
X195062500Y-54450000D02*
X200162500Y-54450000D01*
X195062500Y-54450000D02*
G75*
G03*
X193062500Y-56450000I-1J-1999999D01*
G01*
X191162500Y-50250000D02*
G75*
G03*
X189162500Y-52250000I-1J-1999999D01*
G01*
%TO.C,SW32*%
X85525000Y-16350000D02*
X90625000Y-16350000D01*
X81625000Y-12150000D02*
X86725000Y-12150000D01*
X85525000Y-16350000D02*
G75*
G03*
X83525000Y-18350000I-1J-1999999D01*
G01*
X81625000Y-12150000D02*
G75*
G03*
X79625000Y-14150000I-1J-1999999D01*
G01*
%TO.C,SW65*%
X214112500Y-54450000D02*
X219212500Y-54450000D01*
X210212500Y-50250000D02*
X215312500Y-50250000D01*
X210212500Y-50250000D02*
G75*
G03*
X208212500Y-52250000I-1J-1999999D01*
G01*
X214112500Y-54450000D02*
G75*
G03*
X212112500Y-56450000I-1J-1999999D01*
G01*
%TO.C,SW31*%
X62575000Y-12150000D02*
X67675000Y-12150000D01*
X66475000Y-16350000D02*
X71575000Y-16350000D01*
X66475000Y-16350000D02*
G75*
G03*
X64475000Y-18350000I-1J-1999999D01*
G01*
X62575000Y-12150000D02*
G75*
G03*
X60575000Y-14150000I-1J-1999999D01*
G01*
%TO.C,SW42*%
X6943750Y-35400000D02*
X12043750Y-35400000D01*
X3043750Y-31200000D02*
X8143750Y-31200000D01*
X6943750Y-35400000D02*
G75*
G03*
X4943750Y-37400000I-1J-1999999D01*
G01*
X3043750Y-31200000D02*
G75*
G03*
X1043750Y-33200000I-1J-1999999D01*
G01*
%TO.C,SW27*%
X256975000Y2700000D02*
X262075000Y2700000D01*
X253075000Y6900000D02*
X258175000Y6900000D01*
X253075000Y6900000D02*
G75*
G03*
X251075000Y4900000I-1J-1999999D01*
G01*
X256975000Y2700000D02*
G75*
G03*
X254975000Y700000I-1J-1999999D01*
G01*
%TO.C,SW34*%
X119725000Y-12150000D02*
X124825000Y-12150000D01*
X123625000Y-16350000D02*
X128725000Y-16350000D01*
X123625000Y-16350000D02*
G75*
G03*
X121625000Y-18350000I-1J-1999999D01*
G01*
X119725000Y-12150000D02*
G75*
G03*
X117725000Y-14150000I-1J-1999999D01*
G01*
%TO.C,SW40*%
X237925000Y-16350000D02*
X243025000Y-16350000D01*
X234025000Y-12150000D02*
X239125000Y-12150000D01*
X234025000Y-12150000D02*
G75*
G03*
X232025000Y-14150000I-1J-1999999D01*
G01*
X237925000Y-16350000D02*
G75*
G03*
X235925000Y-18350000I-1J-1999999D01*
G01*
%TO.C,SW18*%
X76000000Y2700000D02*
X81100000Y2700000D01*
X72100000Y6900000D02*
X77200000Y6900000D01*
X72100000Y6900000D02*
G75*
G03*
X70100000Y4900000I-1J-1999999D01*
G01*
X76000000Y2700000D02*
G75*
G03*
X74000000Y700000I-1J-1999999D01*
G01*
%TO.C,SW14*%
X-200000Y2700000D02*
X4900000Y2700000D01*
X-4100000Y6900000D02*
X1000000Y6900000D01*
X-4100000Y6900000D02*
G75*
G03*
X-6100000Y4900000I-1J-1999999D01*
G01*
X-200000Y2700000D02*
G75*
G03*
X-2200000Y700000I-1J-1999999D01*
G01*
%TO.C,SW58*%
X76862500Y-50250000D02*
X81962500Y-50250000D01*
X80762500Y-54450000D02*
X85862500Y-54450000D01*
X76862500Y-50250000D02*
G75*
G03*
X74862500Y-52250000I-1J-1999999D01*
G01*
X80762500Y-54450000D02*
G75*
G03*
X78762500Y-56450000I-1J-1999999D01*
G01*
%TO.C,SW11*%
X224500000Y25950000D02*
X229600000Y25950000D01*
X228400000Y21750000D02*
X233500000Y21750000D01*
X224500000Y25950000D02*
G75*
G03*
X222500000Y23950000I-1J-1999999D01*
G01*
X228400000Y21750000D02*
G75*
G03*
X226400000Y19750000I-1J-1999999D01*
G01*
%TO.C,SW28*%
X4562500Y-16350000D02*
X9662500Y-16350000D01*
X662500Y-12150000D02*
X5762500Y-12150000D01*
X662500Y-12150000D02*
G75*
G03*
X-1337500Y-14150000I-1J-1999999D01*
G01*
X4562500Y-16350000D02*
G75*
G03*
X2562500Y-18350000I-1J-1999999D01*
G01*
%TO.C,SW63*%
X172112500Y-50250000D02*
X177212500Y-50250000D01*
X176012500Y-54450000D02*
X181112500Y-54450000D01*
X176012500Y-54450000D02*
G75*
G03*
X174012500Y-56450000I-1J-1999999D01*
G01*
X172112500Y-50250000D02*
G75*
G03*
X170112500Y-52250000I-1J-1999999D01*
G01*
%TO.C,SW72*%
X198306250Y-69300000D02*
X203406250Y-69300000D01*
X202206250Y-73500000D02*
X207306250Y-73500000D01*
X198306250Y-69300000D02*
G75*
G03*
X196306250Y-71300000I-1J-1999999D01*
G01*
X202206250Y-73500000D02*
G75*
G03*
X200206250Y-75500000I-1J-1999999D01*
G01*
%TO.C,SW2*%
X35518750Y21750000D02*
X40618750Y21750000D01*
X31618750Y25950000D02*
X36718750Y25950000D01*
X35518750Y21750000D02*
G75*
G03*
X33518750Y19750000I-1J-1999999D01*
G01*
X31618750Y25950000D02*
G75*
G03*
X29618750Y23950000I-1J-1999999D01*
G01*
%TO.C,SW52*%
X200687500Y-31200000D02*
X205787500Y-31200000D01*
X204587500Y-35400000D02*
X209687500Y-35400000D01*
X200687500Y-31200000D02*
G75*
G03*
X198687500Y-33200000I-1J-1999999D01*
G01*
X204587500Y-35400000D02*
G75*
G03*
X202587500Y-37400000I-1J-1999999D01*
G01*
%TO.C,SW39*%
X214975000Y-12150000D02*
X220075000Y-12150000D01*
X218875000Y-16350000D02*
X223975000Y-16350000D01*
X214975000Y-12150000D02*
G75*
G03*
X212975000Y-14150000I-1J-1999999D01*
G01*
X218875000Y-16350000D02*
G75*
G03*
X216875000Y-18350000I-1J-1999999D01*
G01*
%TO.C,SW29*%
X24475000Y-12150000D02*
X29575000Y-12150000D01*
X28375000Y-16350000D02*
X33475000Y-16350000D01*
X28375000Y-16350000D02*
G75*
G03*
X26375000Y-18350000I-1J-1999999D01*
G01*
X24475000Y-12150000D02*
G75*
G03*
X22475000Y-14150000I-1J-1999999D01*
G01*
%TO.C,SW25*%
X209350000Y2700000D02*
X214450000Y2700000D01*
X205450000Y6900000D02*
X210550000Y6900000D01*
X209350000Y2700000D02*
G75*
G03*
X207350000Y700000I-1J-1999999D01*
G01*
X205450000Y6900000D02*
G75*
G03*
X203450000Y4900000I-1J-1999999D01*
G01*
%TO.C,SW3*%
X54568750Y21750000D02*
X59668750Y21750000D01*
X50668750Y25950000D02*
X55768750Y25950000D01*
X50668750Y25950000D02*
G75*
G03*
X48668750Y23950000I-1J-1999999D01*
G01*
X54568750Y21750000D02*
G75*
G03*
X52568750Y19750000I-1J-1999999D01*
G01*
%TO.C,SW13*%
X262600000Y25950000D02*
X267700000Y25950000D01*
X266500000Y21750000D02*
X271600000Y21750000D01*
X262600000Y25950000D02*
G75*
G03*
X260600000Y23950000I-1J-1999999D01*
G01*
X266500000Y21750000D02*
G75*
G03*
X264500000Y19750000I-1J-1999999D01*
G01*
%TO.C,SW49*%
X143537500Y-31200000D02*
X148637500Y-31200000D01*
X147437500Y-35400000D02*
X152537500Y-35400000D01*
X147437500Y-35400000D02*
G75*
G03*
X145437500Y-37400000I-1J-1999999D01*
G01*
X143537500Y-31200000D02*
G75*
G03*
X141537500Y-33200000I-1J-1999999D01*
G01*
%TO.C,SW15*%
X14950000Y6900000D02*
X20050000Y6900000D01*
X18850000Y2700000D02*
X23950000Y2700000D01*
X18850000Y2700000D02*
G75*
G03*
X16850000Y700000I-1J-1999999D01*
G01*
X14950000Y6900000D02*
G75*
G03*
X12950000Y4900000I-1J-1999999D01*
G01*
%TO.C,SW12*%
X243550000Y25950000D02*
X248650000Y25950000D01*
X247450000Y21750000D02*
X252550000Y21750000D01*
X247450000Y21750000D02*
G75*
G03*
X245450000Y19750000I-1J-1999999D01*
G01*
X243550000Y25950000D02*
G75*
G03*
X241550000Y23950000I-1J-1999999D01*
G01*
%TO.C,SW67*%
X-200000Y-73500000D02*
X4900000Y-73500000D01*
X-4100000Y-69300000D02*
X1000000Y-69300000D01*
X-200000Y-73500000D02*
G75*
G03*
X-2200000Y-75500000I-1J-1999999D01*
G01*
X-4100000Y-69300000D02*
G75*
G03*
X-6100000Y-71300000I-1J-1999999D01*
G01*
%TO.C,SW57*%
X57812500Y-50250000D02*
X62912500Y-50250000D01*
X61712500Y-54450000D02*
X66812500Y-54450000D01*
X61712500Y-54450000D02*
G75*
G03*
X59712500Y-56450000I-1J-1999999D01*
G01*
X57812500Y-50250000D02*
G75*
G03*
X55812500Y-52250000I-1J-1999999D01*
G01*
%TO.C,SW8*%
X157825000Y25950000D02*
X162925000Y25950000D01*
X161725000Y21750000D02*
X166825000Y21750000D01*
X161725000Y21750000D02*
G75*
G03*
X159725000Y19750000I-1J-1999999D01*
G01*
X157825000Y25950000D02*
G75*
G03*
X155825000Y23950000I-1J-1999999D01*
G01*
%TO.C,SW5*%
X88768750Y25950000D02*
X93868750Y25950000D01*
X92668750Y21750000D02*
X97768750Y21750000D01*
X88768750Y25950000D02*
G75*
G03*
X86768750Y23950000I-1J-1999999D01*
G01*
X92668750Y21750000D02*
G75*
G03*
X90668750Y19750000I-1J-1999999D01*
G01*
%TO.C,SW41*%
X257837500Y-12150000D02*
X262937500Y-12150000D01*
X261737500Y-16350000D02*
X266837500Y-16350000D01*
X257837500Y-12150000D02*
G75*
G03*
X255837500Y-14150000I-1J-1999999D01*
G01*
X261737500Y-16350000D02*
G75*
G03*
X259737500Y-18350000I-1J-1999999D01*
G01*
%TO.C,SW24*%
X190300000Y2700000D02*
X195400000Y2700000D01*
X186400000Y6900000D02*
X191500000Y6900000D01*
X186400000Y6900000D02*
G75*
G03*
X184400000Y4900000I-1J-1999999D01*
G01*
X190300000Y2700000D02*
G75*
G03*
X188300000Y700000I-1J-1999999D01*
G01*
%TO.C,SW1*%
X-200000Y21750000D02*
X4900000Y21750000D01*
X-4100000Y25950000D02*
X1000000Y25950000D01*
X-4100000Y25950000D02*
G75*
G03*
X-6100000Y23950000I-1J-1999999D01*
G01*
X-200000Y21750000D02*
G75*
G03*
X-2200000Y19750000I-1J-1999999D01*
G01*
%TO.C,SW69*%
X34000000Y-69300000D02*
X39100000Y-69300000D01*
X37900000Y-73500000D02*
X43000000Y-73500000D01*
X37900000Y-73500000D02*
G75*
G03*
X35900000Y-75500000I-1J-1999999D01*
G01*
X34000000Y-69300000D02*
G75*
G03*
X32000000Y-71300000I-1J-1999999D01*
G01*
%TO.C,SW9*%
X176875000Y25950000D02*
X181975000Y25950000D01*
X180775000Y21750000D02*
X185875000Y21750000D01*
X176875000Y25950000D02*
G75*
G03*
X174875000Y23950000I-1J-1999999D01*
G01*
X180775000Y21750000D02*
G75*
G03*
X178775000Y19750000I-1J-1999999D01*
G01*
%TO.C,SW54*%
X254593750Y-35400000D02*
X259693750Y-35400000D01*
X250693750Y-31200000D02*
X255793750Y-31200000D01*
X250693750Y-31200000D02*
G75*
G03*
X248693750Y-33200000I-1J-1999999D01*
G01*
X254593750Y-35400000D02*
G75*
G03*
X252593750Y-37400000I-1J-1999999D01*
G01*
%TO.C,SW47*%
X109337500Y-35400000D02*
X114437500Y-35400000D01*
X105437500Y-31200000D02*
X110537500Y-31200000D01*
X109337500Y-35400000D02*
G75*
G03*
X107337500Y-37400000I-1J-1999999D01*
G01*
X105437500Y-31200000D02*
G75*
G03*
X103437500Y-33200000I-1J-1999999D01*
G01*
%TO.C,SW51*%
X185537500Y-35400000D02*
X190637500Y-35400000D01*
X181637500Y-31200000D02*
X186737500Y-31200000D01*
X185537500Y-35400000D02*
G75*
G03*
X183537500Y-37400000I-1J-1999999D01*
G01*
X181637500Y-31200000D02*
G75*
G03*
X179637500Y-33200000I-1J-1999999D01*
G01*
%TO.C,SW56*%
X38762500Y-50250000D02*
X43862500Y-50250000D01*
X42662500Y-54450000D02*
X47762500Y-54450000D01*
X42662500Y-54450000D02*
G75*
G03*
X40662500Y-56450000I-1J-1999999D01*
G01*
X38762500Y-50250000D02*
G75*
G03*
X36762500Y-52250000I-1J-1999999D01*
G01*
%TO.C,SW75*%
X262600000Y-69300000D02*
X267700000Y-69300000D01*
X266500000Y-73500000D02*
X271600000Y-73500000D01*
X262600000Y-69300000D02*
G75*
G03*
X260600000Y-71300000I-1J-1999999D01*
G01*
X266500000Y-73500000D02*
G75*
G03*
X264500000Y-75500000I-1J-1999999D01*
G01*
%TO.C,SW26*%
X224500000Y6900000D02*
X229600000Y6900000D01*
X228400000Y2700000D02*
X233500000Y2700000D01*
X228400000Y2700000D02*
G75*
G03*
X226400000Y700000I-1J-1999999D01*
G01*
X224500000Y6900000D02*
G75*
G03*
X222500000Y4900000I-1J-1999999D01*
G01*
%TO.C,SW22*%
X152200000Y2700000D02*
X157300000Y2700000D01*
X148300000Y6900000D02*
X153400000Y6900000D01*
X148300000Y6900000D02*
G75*
G03*
X146300000Y4900000I-1J-1999999D01*
G01*
X152200000Y2700000D02*
G75*
G03*
X150200000Y700000I-1J-1999999D01*
G01*
%TO.C,SW30*%
X43525000Y-12150000D02*
X48625000Y-12150000D01*
X47425000Y-16350000D02*
X52525000Y-16350000D01*
X47425000Y-16350000D02*
G75*
G03*
X45425000Y-18350000I-1J-1999999D01*
G01*
X43525000Y-12150000D02*
G75*
G03*
X41525000Y-14150000I-1J-1999999D01*
G01*
%TO.C,SW35*%
X142675000Y-16350000D02*
X147775000Y-16350000D01*
X138775000Y-12150000D02*
X143875000Y-12150000D01*
X142675000Y-16350000D02*
G75*
G03*
X140675000Y-18350000I-1J-1999999D01*
G01*
X138775000Y-12150000D02*
G75*
G03*
X136775000Y-14150000I-1J-1999999D01*
G01*
%TO.C,SW59*%
X99812500Y-54450000D02*
X104912500Y-54450000D01*
X95912500Y-50250000D02*
X101012500Y-50250000D01*
X99812500Y-54450000D02*
G75*
G03*
X97812500Y-56450000I-1J-1999999D01*
G01*
X95912500Y-50250000D02*
G75*
G03*
X93912500Y-52250000I-1J-1999999D01*
G01*
%TO.C,SW43*%
X33137500Y-35400000D02*
X38237500Y-35400000D01*
X29237500Y-31200000D02*
X34337500Y-31200000D01*
X33137500Y-35400000D02*
G75*
G03*
X31137500Y-37400000I-1J-1999999D01*
G01*
X29237500Y-31200000D02*
G75*
G03*
X27237500Y-33200000I-1J-1999999D01*
G01*
%TO.C,SW37*%
X180775000Y-16350000D02*
X185875000Y-16350000D01*
X176875000Y-12150000D02*
X181975000Y-12150000D01*
X176875000Y-12150000D02*
G75*
G03*
X174875000Y-14150000I-1J-1999999D01*
G01*
X180775000Y-16350000D02*
G75*
G03*
X178775000Y-18350000I-1J-1999999D01*
G01*
%TO.C,SW50*%
X162587500Y-31200000D02*
X167687500Y-31200000D01*
X166487500Y-35400000D02*
X171587500Y-35400000D01*
X166487500Y-35400000D02*
G75*
G03*
X164487500Y-37400000I-1J-1999999D01*
G01*
X162587500Y-31200000D02*
G75*
G03*
X160587500Y-33200000I-1J-1999999D01*
G01*
%TO.C,SW46*%
X86387500Y-31200000D02*
X91487500Y-31200000D01*
X90287500Y-35400000D02*
X95387500Y-35400000D01*
X90287500Y-35400000D02*
G75*
G03*
X88287500Y-37400000I-1J-1999999D01*
G01*
X86387500Y-31200000D02*
G75*
G03*
X84387500Y-33200000I-1J-1999999D01*
G01*
%TO.C,SW7*%
X138775000Y25950000D02*
X143875000Y25950000D01*
X142675000Y21750000D02*
X147775000Y21750000D01*
X138775000Y25950000D02*
G75*
G03*
X136775000Y23950000I-1J-1999999D01*
G01*
X142675000Y21750000D02*
G75*
G03*
X140675000Y19750000I-1J-1999999D01*
G01*
%TO.C,SW21*%
X129250000Y6900000D02*
X134350000Y6900000D01*
X133150000Y2700000D02*
X138250000Y2700000D01*
X129250000Y6900000D02*
G75*
G03*
X127250000Y4900000I-1J-1999999D01*
G01*
X133150000Y2700000D02*
G75*
G03*
X131150000Y700000I-1J-1999999D01*
G01*
%TO.C,SW33*%
X100675000Y-12150000D02*
X105775000Y-12150000D01*
X104575000Y-16350000D02*
X109675000Y-16350000D01*
X104575000Y-16350000D02*
G75*
G03*
X102575000Y-18350000I-1J-1999999D01*
G01*
X100675000Y-12150000D02*
G75*
G03*
X98675000Y-14150000I-1J-1999999D01*
G01*
%TO.C,SW70*%
X55431250Y-69300000D02*
X60531250Y-69300000D01*
X59331250Y-73500000D02*
X64431250Y-73500000D01*
X59331250Y-73500000D02*
G75*
G03*
X57331250Y-75500000I-1J-1999999D01*
G01*
X55431250Y-69300000D02*
G75*
G03*
X53431250Y-71300000I-1J-1999999D01*
G01*
%TO.C,SW48*%
X128387500Y-35400000D02*
X133487500Y-35400000D01*
X124487500Y-31200000D02*
X129587500Y-31200000D01*
X128387500Y-35400000D02*
G75*
G03*
X126387500Y-37400000I-1J-1999999D01*
G01*
X124487500Y-31200000D02*
G75*
G03*
X122487500Y-33200000I-1J-1999999D01*
G01*
%TO.C,SW10*%
X205450000Y25950000D02*
X210550000Y25950000D01*
X209350000Y21750000D02*
X214450000Y21750000D01*
X209350000Y21750000D02*
G75*
G03*
X207350000Y19750000I-1J-1999999D01*
G01*
X205450000Y25950000D02*
G75*
G03*
X203450000Y23950000I-1J-1999999D01*
G01*
%TO.C,SW36*%
X161725000Y-16350000D02*
X166825000Y-16350000D01*
X157825000Y-12150000D02*
X162925000Y-12150000D01*
X161725000Y-16350000D02*
G75*
G03*
X159725000Y-18350000I-1J-1999999D01*
G01*
X157825000Y-12150000D02*
G75*
G03*
X155825000Y-14150000I-1J-1999999D01*
G01*
%TO.C,SW20*%
X114100000Y2700000D02*
X119200000Y2700000D01*
X110200000Y6900000D02*
X115300000Y6900000D01*
X110200000Y6900000D02*
G75*
G03*
X108200000Y4900000I-1J-1999999D01*
G01*
X114100000Y2700000D02*
G75*
G03*
X112100000Y700000I-1J-1999999D01*
G01*
%TO.C,SW62*%
X153062500Y-50250000D02*
X158162500Y-50250000D01*
X156962500Y-54450000D02*
X162062500Y-54450000D01*
X156962500Y-54450000D02*
G75*
G03*
X154962500Y-56450000I-1J-1999999D01*
G01*
X153062500Y-50250000D02*
G75*
G03*
X151062500Y-52250000I-1J-1999999D01*
G01*
%TO.C,SW23*%
X167350000Y6900000D02*
X172450000Y6900000D01*
X171250000Y2700000D02*
X176350000Y2700000D01*
X171250000Y2700000D02*
G75*
G03*
X169250000Y700000I-1J-1999999D01*
G01*
X167350000Y6900000D02*
G75*
G03*
X165350000Y4900000I-1J-1999999D01*
G01*
%TO.C,SW66*%
X247450000Y-54450000D02*
X252550000Y-54450000D01*
X243550000Y-50250000D02*
X248650000Y-50250000D01*
X247450000Y-54450000D02*
G75*
G03*
X245450000Y-56450000I-1J-1999999D01*
G01*
X243550000Y-50250000D02*
G75*
G03*
X241550000Y-52250000I-1J-1999999D01*
G01*
%TO.C,SW53*%
X219737500Y-31200000D02*
X224837500Y-31200000D01*
X223637500Y-35400000D02*
X228737500Y-35400000D01*
X219737500Y-31200000D02*
G75*
G03*
X217737500Y-33200000I-1J-1999999D01*
G01*
X223637500Y-35400000D02*
G75*
G03*
X221637500Y-37400000I-1J-1999999D01*
G01*
%TO.C,SW55*%
X11706250Y-54450000D02*
X16806250Y-54450000D01*
X7806250Y-50250000D02*
X12906250Y-50250000D01*
X7806250Y-50250000D02*
G75*
G03*
X5806250Y-52250000I-1J-1999999D01*
G01*
X11706250Y-54450000D02*
G75*
G03*
X9706250Y-56450000I-1J-1999999D01*
G01*
%TO.C,SW17*%
X56950000Y2700000D02*
X62050000Y2700000D01*
X53050000Y6900000D02*
X58150000Y6900000D01*
X53050000Y6900000D02*
G75*
G03*
X51050000Y4900000I-1J-1999999D01*
G01*
X56950000Y2700000D02*
G75*
G03*
X54950000Y700000I-1J-1999999D01*
G01*
%TO.C,SW38*%
X199825000Y-16350000D02*
X204925000Y-16350000D01*
X195925000Y-12150000D02*
X201025000Y-12150000D01*
X195925000Y-12150000D02*
G75*
G03*
X193925000Y-14150000I-1J-1999999D01*
G01*
X199825000Y-16350000D02*
G75*
G03*
X197825000Y-18350000I-1J-1999999D01*
G01*
%TO.C,SW45*%
X71237500Y-35400000D02*
X76337500Y-35400000D01*
X67337500Y-31200000D02*
X72437500Y-31200000D01*
X67337500Y-31200000D02*
G75*
G03*
X65337500Y-33200000I-1J-1999999D01*
G01*
X71237500Y-35400000D02*
G75*
G03*
X69237500Y-37400000I-1J-1999999D01*
G01*
%TO.C,SW44*%
X52187500Y-35400000D02*
X57287500Y-35400000D01*
X48287500Y-31200000D02*
X53387500Y-31200000D01*
X52187500Y-35400000D02*
G75*
G03*
X50187500Y-37400000I-1J-1999999D01*
G01*
X48287500Y-31200000D02*
G75*
G03*
X46287500Y-33200000I-1J-1999999D01*
G01*
%TO.C,SW60*%
X118862500Y-54450000D02*
X123962500Y-54450000D01*
X114962500Y-50250000D02*
X120062500Y-50250000D01*
X114962500Y-50250000D02*
G75*
G03*
X112962500Y-52250000I-1J-1999999D01*
G01*
X118862500Y-54450000D02*
G75*
G03*
X116862500Y-56450000I-1J-1999999D01*
G01*
%TO.C,D52*%
X196287500Y-29300000D02*
X196287500Y-33200000D01*
X198287500Y-29300000D02*
X198287500Y-33200000D01*
X196287500Y-29300000D02*
X198287500Y-29300000D01*
%TO.C,D37*%
X174475000Y-10250000D02*
X174475000Y-14150000D01*
X172475000Y-10250000D02*
X174475000Y-10250000D01*
X172475000Y-10250000D02*
X172475000Y-14150000D01*
%TO.C,C9*%
X14307836Y-38660000D02*
X14092164Y-38660000D01*
X14307836Y-37940000D02*
X14092164Y-37940000D01*
%TO.C,D47*%
X103037500Y-29300000D02*
X103037500Y-33200000D01*
X101037500Y-29300000D02*
X103037500Y-29300000D01*
X101037500Y-29300000D02*
X101037500Y-33200000D01*
%TO.C,C2*%
X17010000Y-37627836D02*
X17010000Y-37412164D01*
X16290000Y-37627836D02*
X16290000Y-37412164D01*
%TO.C,D10*%
X201050000Y27850000D02*
X203050000Y27850000D01*
X201050000Y27850000D02*
X201050000Y23950000D01*
X203050000Y27850000D02*
X203050000Y23950000D01*
%TO.C,D7*%
X134375000Y27850000D02*
X134375000Y23950000D01*
X136375000Y27850000D02*
X136375000Y23950000D01*
X134375000Y27850000D02*
X136375000Y27850000D01*
%TO.C,D1*%
X-8500000Y27850000D02*
X-6500000Y27850000D01*
X-8500000Y27850000D02*
X-8500000Y23950000D01*
X-6500000Y27850000D02*
X-6500000Y23950000D01*
%TO.C,D30*%
X39125000Y-10250000D02*
X39125000Y-14150000D01*
X39125000Y-10250000D02*
X41125000Y-10250000D01*
X41125000Y-10250000D02*
X41125000Y-14150000D01*
%TO.C,C1*%
X14287836Y-36940000D02*
X14072164Y-36940000D01*
X14287836Y-37660000D02*
X14072164Y-37660000D01*
%TO.C,D46*%
X83987500Y-29300000D02*
X83987500Y-33200000D01*
X81987500Y-29300000D02*
X83987500Y-29300000D01*
X81987500Y-29300000D02*
X81987500Y-33200000D01*
%TO.C,D31*%
X60175000Y-10250000D02*
X60175000Y-14150000D01*
X58175000Y-10250000D02*
X58175000Y-14150000D01*
X58175000Y-10250000D02*
X60175000Y-10250000D01*
%TO.C,D12*%
X241150000Y27850000D02*
X241150000Y23950000D01*
X239150000Y27850000D02*
X241150000Y27850000D01*
X239150000Y27850000D02*
X239150000Y23950000D01*
%TO.C,C18*%
X-1007836Y-52140000D02*
X-792164Y-52140000D01*
X-1007836Y-52860000D02*
X-792164Y-52860000D01*
%TO.C,D32*%
X77225000Y-10250000D02*
X79225000Y-10250000D01*
X77225000Y-10250000D02*
X77225000Y-14150000D01*
X79225000Y-10250000D02*
X79225000Y-14150000D01*
%TO.C,D11*%
X220100000Y27850000D02*
X220100000Y23950000D01*
X220100000Y27850000D02*
X222100000Y27850000D01*
X222100000Y27850000D02*
X222100000Y23950000D01*
%TO.C,D20*%
X105800000Y8800000D02*
X107800000Y8800000D01*
X105800000Y8800000D02*
X105800000Y4900000D01*
X107800000Y8800000D02*
X107800000Y4900000D01*
%TO.C,U3*%
X30200000Y-44540000D02*
X29550000Y-44540000D01*
X30200000Y-44540000D02*
X30850000Y-44540000D01*
X30200000Y-47660000D02*
X30850000Y-47660000D01*
X30200000Y-47660000D02*
X28525000Y-47660000D01*
%TO.C,FB1*%
X32577500Y-44700378D02*
X32577500Y-45499622D01*
X33697500Y-44700378D02*
X33697500Y-45499622D01*
%TO.C,D9*%
X172475000Y27850000D02*
X172475000Y23950000D01*
X172475000Y27850000D02*
X174475000Y27850000D01*
X174475000Y27850000D02*
X174475000Y23950000D01*
%TO.C,D49*%
X141137500Y-29300000D02*
X141137500Y-33200000D01*
X139137500Y-29300000D02*
X139137500Y-33200000D01*
X139137500Y-29300000D02*
X141137500Y-29300000D01*
%TO.C,D48*%
X120087500Y-29300000D02*
X122087500Y-29300000D01*
X120087500Y-29300000D02*
X120087500Y-33200000D01*
X122087500Y-29300000D02*
X122087500Y-33200000D01*
%TO.C,D76*%
X24100000Y18700000D02*
X24100000Y22600000D01*
X22100000Y18700000D02*
X22100000Y22600000D01*
X24100000Y18700000D02*
X22100000Y18700000D01*
%TO.C,D4*%
X67318750Y27850000D02*
X67318750Y23950000D01*
X65318750Y27850000D02*
X67318750Y27850000D01*
X65318750Y27850000D02*
X65318750Y23950000D01*
%TO.C,D66*%
X239150000Y-48350000D02*
X241150000Y-48350000D01*
X239150000Y-48350000D02*
X239150000Y-52250000D01*
X241150000Y-48350000D02*
X241150000Y-52250000D01*
%TO.C,R1*%
X17677500Y-33662258D02*
X17677500Y-33187742D01*
X18722500Y-33662258D02*
X18722500Y-33187742D01*
%TO.C,R8*%
X-2120000Y-48953641D02*
X-2120000Y-48646359D01*
X-2880000Y-48953641D02*
X-2880000Y-48646359D01*
%TO.C,D5*%
X86368750Y27850000D02*
X86368750Y23950000D01*
X84368750Y27850000D02*
X84368750Y23950000D01*
X84368750Y27850000D02*
X86368750Y27850000D01*
%TO.C,R9*%
X28670000Y-43503641D02*
X28670000Y-43196359D01*
X29430000Y-43503641D02*
X29430000Y-43196359D01*
D13*
%TO.C,U2*%
X12198747Y27896947D02*
X12198747Y26034031D01*
X12198747Y31615337D02*
X12198747Y30134031D01*
X21138753Y31615337D02*
X12198747Y31615337D01*
X21138753Y27897303D02*
X21138753Y26033676D01*
X21138753Y31615337D02*
X21138753Y30133676D01*
D14*
X12222700Y23765121D02*
G75*
G03*
X12222700Y23765121I-29998J0D01*
G01*
D12*
%TO.C,D43*%
X30650000Y-28600000D02*
X26750000Y-28600000D01*
X30650000Y-28600000D02*
X30650000Y-30600000D01*
X30650000Y-30600000D02*
X26750000Y-30600000D01*
%TO.C,D22*%
X143900000Y8800000D02*
X145900000Y8800000D01*
X143900000Y8800000D02*
X143900000Y4900000D01*
X145900000Y8800000D02*
X145900000Y4900000D01*
%TO.C,D77*%
X28975000Y-40390000D02*
X31660000Y-40390000D01*
X31660000Y-40390000D02*
X31660000Y-42310000D01*
X31660000Y-42310000D02*
X28975000Y-42310000D01*
%TO.C,D3*%
X46268750Y27850000D02*
X48268750Y27850000D01*
X46268750Y27850000D02*
X46268750Y23950000D01*
X48268750Y27850000D02*
X48268750Y23950000D01*
%TO.C,D8*%
X153425000Y27850000D02*
X153425000Y23950000D01*
X155425000Y27850000D02*
X155425000Y23950000D01*
X153425000Y27850000D02*
X155425000Y27850000D01*
%TO.C,D13*%
X258200000Y27850000D02*
X260200000Y27850000D01*
X260200000Y27850000D02*
X260200000Y23950000D01*
X258200000Y27850000D02*
X258200000Y23950000D01*
D13*
%TO.C,U6*%
X700864Y-58500762D02*
X700864Y-56600838D01*
X1450165Y-56224917D02*
X555093Y-55329845D01*
X-3650165Y-58775083D02*
X-3650165Y-56224917D01*
X-2755093Y-59670155D02*
X-3650165Y-58775083D01*
X-2999924Y-58399162D02*
X-2098222Y-59300864D01*
X-2999924Y-56699898D02*
X-2999924Y-58399162D01*
X-2098222Y-59300864D02*
X-99238Y-59300864D01*
X1450165Y-58775083D02*
X555093Y-59670155D01*
X-99238Y-59300864D02*
X700864Y-58500762D01*
X68402Y-54949835D02*
X-2268402Y-54949835D01*
X-2755093Y-55329845D02*
X-3650165Y-56224917D01*
X-1999162Y-55699136D02*
X-2999924Y-56699898D01*
X-200838Y-55699136D02*
X-1999162Y-55699136D01*
X700864Y-56600838D02*
X-200838Y-55699136D01*
X1450165Y-58775083D02*
X1450165Y-56224917D01*
X68402Y-60050165D02*
X-2268402Y-60050165D01*
D14*
X1479985Y-60750013D02*
G75*
G03*
X1479985Y-60750013I-29998J0D01*
G01*
D13*
X175083Y-57500000D02*
G75*
G03*
X175083Y-57500000I-1275083J0D01*
G01*
D12*
%TO.C,D29*%
X22075000Y-10250000D02*
X22075000Y-14150000D01*
X20075000Y-10250000D02*
X20075000Y-14150000D01*
X20075000Y-10250000D02*
X22075000Y-10250000D01*
%TO.C,D45*%
X64937500Y-29300000D02*
X64937500Y-33200000D01*
X62937500Y-29300000D02*
X62937500Y-33200000D01*
X62937500Y-29300000D02*
X64937500Y-29300000D01*
%TO.C,D54*%
X246293750Y-29300000D02*
X246293750Y-33200000D01*
X246293750Y-29300000D02*
X248293750Y-29300000D01*
X248293750Y-29300000D02*
X248293750Y-33200000D01*
%TO.C,D74*%
X241150000Y-67400000D02*
X241150000Y-71300000D01*
X239150000Y-67400000D02*
X241150000Y-67400000D01*
X239150000Y-67400000D02*
X239150000Y-71300000D01*
%TO.C,D51*%
X179237500Y-29300000D02*
X179237500Y-33200000D01*
X177237500Y-29300000D02*
X179237500Y-29300000D01*
X177237500Y-29300000D02*
X177237500Y-33200000D01*
%TO.C,D63*%
X169712500Y-48350000D02*
X169712500Y-52250000D01*
X167712500Y-48350000D02*
X169712500Y-48350000D01*
X167712500Y-48350000D02*
X167712500Y-52250000D01*
%TO.C,D57*%
X53412500Y-48350000D02*
X55412500Y-48350000D01*
X53412500Y-48350000D02*
X53412500Y-52250000D01*
X55412500Y-48350000D02*
X55412500Y-52250000D01*
%TO.C,C12*%
X24412164Y-43820000D02*
X24627836Y-43820000D01*
X24412164Y-44540000D02*
X24627836Y-44540000D01*
%TO.C,R3*%
X19980000Y-54463641D02*
X19980000Y-54156359D01*
X19220000Y-54463641D02*
X19220000Y-54156359D01*
%TO.C,D56*%
X34362500Y-48350000D02*
X34362500Y-52250000D01*
X34362500Y-48350000D02*
X36362500Y-48350000D01*
X36362500Y-48350000D02*
X36362500Y-52250000D01*
%TO.C,D25*%
X203050000Y8800000D02*
X203050000Y4900000D01*
X201050000Y8800000D02*
X203050000Y8800000D01*
X201050000Y8800000D02*
X201050000Y4900000D01*
%TO.C,C11*%
X19160000Y-49572164D02*
X19160000Y-49787836D01*
X18440000Y-49572164D02*
X18440000Y-49787836D01*
%TO.C,D14*%
X-8500000Y8800000D02*
X-8500000Y4900000D01*
X-6500000Y8800000D02*
X-6500000Y4900000D01*
X-8500000Y8800000D02*
X-6500000Y8800000D01*
%TO.C,D35*%
X136375000Y-10250000D02*
X136375000Y-14150000D01*
X134375000Y-10250000D02*
X136375000Y-10250000D01*
X134375000Y-10250000D02*
X134375000Y-14150000D01*
%TO.C,D72*%
X195906250Y-67400000D02*
X195906250Y-71300000D01*
X193906250Y-67400000D02*
X195906250Y-67400000D01*
X193906250Y-67400000D02*
X193906250Y-71300000D01*
%TO.C,R4*%
X26880000Y-25736359D02*
X26880000Y-26043641D01*
X26120000Y-25736359D02*
X26120000Y-26043641D01*
%TO.C,D15*%
X12550000Y8800000D02*
X12550000Y4900000D01*
X10550000Y8800000D02*
X12550000Y8800000D01*
X10550000Y8800000D02*
X10550000Y4900000D01*
%TO.C,R5*%
X26846359Y-28180000D02*
X27153641Y-28180000D01*
X26846359Y-27420000D02*
X27153641Y-27420000D01*
%TO.C,D68*%
X10550000Y-67400000D02*
X10550000Y-71300000D01*
X12550000Y-67400000D02*
X12550000Y-71300000D01*
X10550000Y-67400000D02*
X12550000Y-67400000D01*
%TO.C,R6*%
X19346359Y20720000D02*
X19653641Y20720000D01*
X19346359Y21480000D02*
X19653641Y21480000D01*
%TO.C,D62*%
X148662500Y-48350000D02*
X148662500Y-52250000D01*
X148662500Y-48350000D02*
X150662500Y-48350000D01*
X150662500Y-48350000D02*
X150662500Y-52250000D01*
%TO.C,D60*%
X112562500Y-48350000D02*
X112562500Y-52250000D01*
X110562500Y-48350000D02*
X112562500Y-48350000D01*
X110562500Y-48350000D02*
X110562500Y-52250000D01*
%TO.C,D39*%
X210575000Y-10250000D02*
X210575000Y-14150000D01*
X210575000Y-10250000D02*
X212575000Y-10250000D01*
X212575000Y-10250000D02*
X212575000Y-14150000D01*
%TO.C,C8*%
X15240000Y-37627836D02*
X15240000Y-37412164D01*
X15960000Y-37627836D02*
X15960000Y-37412164D01*
%TO.C,D64*%
X186762500Y-48350000D02*
X188762500Y-48350000D01*
X186762500Y-48350000D02*
X186762500Y-52250000D01*
X188762500Y-48350000D02*
X188762500Y-52250000D01*
%TO.C,D19*%
X86750000Y8800000D02*
X86750000Y4900000D01*
X88750000Y8800000D02*
X88750000Y4900000D01*
X86750000Y8800000D02*
X88750000Y8800000D01*
%TO.C,D16*%
X29600000Y8800000D02*
X29600000Y4900000D01*
X29600000Y8800000D02*
X31600000Y8800000D01*
X31600000Y8800000D02*
X31600000Y4900000D01*
%TO.C,D24*%
X182000000Y8800000D02*
X184000000Y8800000D01*
X184000000Y8800000D02*
X184000000Y4900000D01*
X182000000Y8800000D02*
X182000000Y4900000D01*
%TO.C,R7*%
X11253641Y21280000D02*
X10946359Y21280000D01*
X11253641Y20520000D02*
X10946359Y20520000D01*
%TO.C,C4*%
X30765000Y-43532836D02*
X30765000Y-43317164D01*
X31485000Y-43532836D02*
X31485000Y-43317164D01*
%TO.C,D65*%
X205812500Y-48350000D02*
X207812500Y-48350000D01*
X207812500Y-48350000D02*
X207812500Y-52250000D01*
X205812500Y-48350000D02*
X205812500Y-52250000D01*
%TO.C,D41*%
X255437500Y-10250000D02*
X255437500Y-14150000D01*
X253437500Y-10250000D02*
X253437500Y-14150000D01*
X253437500Y-10250000D02*
X255437500Y-10250000D01*
%TO.C,C3*%
X25360000Y-23407836D02*
X25360000Y-23192164D01*
X24640000Y-23407836D02*
X24640000Y-23192164D01*
%TO.C,D21*%
X124850000Y8800000D02*
X124850000Y4900000D01*
X126850000Y8800000D02*
X126850000Y4900000D01*
X124850000Y8800000D02*
X126850000Y8800000D01*
%TO.C,C5*%
X29765000Y-43482836D02*
X29765000Y-43267164D01*
X30485000Y-43482836D02*
X30485000Y-43267164D01*
%TO.C,D44*%
X43887500Y-29300000D02*
X43887500Y-33200000D01*
X45887500Y-29300000D02*
X45887500Y-33200000D01*
X43887500Y-29300000D02*
X45887500Y-29300000D01*
%TO.C,D34*%
X117325000Y-10250000D02*
X117325000Y-14150000D01*
X115325000Y-10250000D02*
X117325000Y-10250000D01*
X115325000Y-10250000D02*
X115325000Y-14150000D01*
%TO.C,D27*%
X250675000Y8800000D02*
X250675000Y4900000D01*
X248675000Y8800000D02*
X250675000Y8800000D01*
X248675000Y8800000D02*
X248675000Y4900000D01*
%TO.C,D23*%
X162950000Y8800000D02*
X162950000Y4900000D01*
X164950000Y8800000D02*
X164950000Y4900000D01*
X162950000Y8800000D02*
X164950000Y8800000D01*
%TO.C,C16*%
X19760000Y-36307836D02*
X19760000Y-36092164D01*
X19040000Y-36307836D02*
X19040000Y-36092164D01*
%TO.C,C7*%
X21752164Y-57230000D02*
X21967836Y-57230000D01*
X21752164Y-56510000D02*
X21967836Y-56510000D01*
%TO.C,C15*%
X14307836Y-38940000D02*
X14092164Y-38940000D01*
X14307836Y-39660000D02*
X14092164Y-39660000D01*
%TO.C,C10*%
X13057836Y-44790000D02*
X12842164Y-44790000D01*
X13057836Y-44070000D02*
X12842164Y-44070000D01*
%TO.C,C17*%
X18160000Y-49572164D02*
X18160000Y-49787836D01*
X17440000Y-49572164D02*
X17440000Y-49787836D01*
%TO.C,D28*%
X-3737500Y-10250000D02*
X-1737500Y-10250000D01*
X-1737500Y-10250000D02*
X-1737500Y-14150000D01*
X-3737500Y-10250000D02*
X-3737500Y-14150000D01*
%TO.C,D2*%
X27218750Y27850000D02*
X29218750Y27850000D01*
X29218750Y27850000D02*
X29218750Y23950000D01*
X27218750Y27850000D02*
X27218750Y23950000D01*
%TO.C,D42*%
X-1356250Y-29300000D02*
X-1356250Y-33200000D01*
X-1356250Y-29300000D02*
X643750Y-29300000D01*
X643750Y-29300000D02*
X643750Y-33200000D01*
%TO.C,C13*%
X24360000Y-40027836D02*
X24360000Y-39812164D01*
X23640000Y-40027836D02*
X23640000Y-39812164D01*
%TO.C,D73*%
X220100000Y-67400000D02*
X220100000Y-71300000D01*
X222100000Y-67400000D02*
X222100000Y-71300000D01*
X220100000Y-67400000D02*
X222100000Y-67400000D01*
%TO.C,D6*%
X114943750Y27850000D02*
X114943750Y23950000D01*
X112943750Y27850000D02*
X114943750Y27850000D01*
X112943750Y27850000D02*
X112943750Y23950000D01*
%TO.C,D53*%
X215337500Y-29300000D02*
X217337500Y-29300000D01*
X217337500Y-29300000D02*
X217337500Y-33200000D01*
X215337500Y-29300000D02*
X215337500Y-33200000D01*
%TO.C,D40*%
X229625000Y-10250000D02*
X229625000Y-14150000D01*
X229625000Y-10250000D02*
X231625000Y-10250000D01*
X231625000Y-10250000D02*
X231625000Y-14150000D01*
%TO.C,F1*%
X22440000Y17008578D02*
X22440000Y16491422D01*
X23860000Y17008578D02*
X23860000Y16491422D01*
%TO.C,C14*%
X18830000Y-36007836D02*
X18830000Y-35792164D01*
X18110000Y-36007836D02*
X18110000Y-35792164D01*
%TO.C,D26*%
X220100000Y8800000D02*
X220100000Y4900000D01*
X222100000Y8800000D02*
X222100000Y4900000D01*
X220100000Y8800000D02*
X222100000Y8800000D01*
%TO.C,D67*%
X-8500000Y-67400000D02*
X-8500000Y-71300000D01*
X-8500000Y-67400000D02*
X-6500000Y-67400000D01*
X-6500000Y-67400000D02*
X-6500000Y-71300000D01*
%TO.C,D33*%
X96275000Y-10250000D02*
X96275000Y-14150000D01*
X96275000Y-10250000D02*
X98275000Y-10250000D01*
X98275000Y-10250000D02*
X98275000Y-14150000D01*
%TO.C,Y1*%
X20250000Y-52200000D02*
X23550000Y-52200000D01*
X23550000Y-52200000D02*
X23550000Y-56200000D01*
%TO.C,D61*%
X129612500Y-48350000D02*
X131612500Y-48350000D01*
X129612500Y-48350000D02*
X129612500Y-52250000D01*
X131612500Y-48350000D02*
X131612500Y-52250000D01*
%TO.C,D58*%
X72462500Y-48350000D02*
X72462500Y-52250000D01*
X74462500Y-48350000D02*
X74462500Y-52250000D01*
X72462500Y-48350000D02*
X74462500Y-48350000D01*
%TO.C,D36*%
X153425000Y-10250000D02*
X155425000Y-10250000D01*
X153425000Y-10250000D02*
X153425000Y-14150000D01*
X155425000Y-10250000D02*
X155425000Y-14150000D01*
%TO.C,D70*%
X51031250Y-67400000D02*
X53031250Y-67400000D01*
X53031250Y-67400000D02*
X53031250Y-71300000D01*
X51031250Y-67400000D02*
X51031250Y-71300000D01*
D13*
%TO.C,U1*%
X15868910Y-39699975D02*
X15300076Y-39699975D01*
X22300076Y-40268809D02*
X22300076Y-39699975D01*
X22200051Y-46699924D02*
X22300076Y-46699924D01*
X22300076Y-46699924D02*
X22300076Y-46131090D01*
X22040996Y-39699975D02*
X22040996Y-39796825D01*
X15300076Y-46131090D02*
X15300076Y-46699924D01*
X15300076Y-46699924D02*
X15868910Y-46699924D01*
X22040996Y-39796825D02*
X22300076Y-40055906D01*
X22300076Y-40268809D02*
X21731191Y-39699975D01*
X21731191Y-46699924D02*
X22200051Y-46699924D01*
X22300076Y-39699975D02*
X21731191Y-39699975D01*
X15300076Y-39699975D02*
X15300076Y-40268809D01*
D14*
X22330099Y-39700000D02*
G75*
G03*
X22330099Y-39700000I-29972J0D01*
G01*
D13*
X22927000Y-39499848D02*
G75*
G03*
X22927000Y-39499848I-127000J0D01*
G01*
D12*
%TO.C,D71*%
X124468750Y-67400000D02*
X124468750Y-71300000D01*
X122468750Y-67400000D02*
X124468750Y-67400000D01*
X122468750Y-67400000D02*
X122468750Y-71300000D01*
%TO.C,D59*%
X91512500Y-48350000D02*
X93512500Y-48350000D01*
X93512500Y-48350000D02*
X93512500Y-52250000D01*
X91512500Y-48350000D02*
X91512500Y-52250000D01*
D13*
%TO.C,U5*%
X32699137Y-26550318D02*
X33600839Y-25648616D01*
X33600839Y-25648616D02*
X33600839Y-23649632D01*
X30999873Y-26550318D02*
X32699137Y-26550318D01*
X34350140Y-23481992D02*
X34350140Y-25818796D01*
X30900813Y-22849530D02*
X29999111Y-23751232D01*
X33075058Y-22100229D02*
X33970130Y-22995301D01*
X33075058Y-27200559D02*
X30524892Y-27200559D01*
X29999111Y-25549556D02*
X30999873Y-26550318D01*
X33075058Y-22100229D02*
X30524892Y-22100229D01*
X29629820Y-26305487D02*
X30524892Y-27200559D01*
X29999111Y-23751232D02*
X29999111Y-25549556D01*
X30524892Y-22100229D02*
X29629820Y-22995301D01*
X33600839Y-23649632D02*
X32800737Y-22849530D01*
X33970130Y-26305487D02*
X33075058Y-27200559D01*
X29249810Y-23481992D02*
X29249810Y-25818796D01*
X32800737Y-22849530D02*
X30900813Y-22849530D01*
X33075058Y-24650394D02*
G75*
G03*
X33075058Y-24650394I-1275083J0D01*
G01*
D14*
X35079986Y-22100407D02*
G75*
G03*
X35079986Y-22100407I-29998J0D01*
G01*
D12*
%TO.C,D69*%
X31600000Y-67400000D02*
X31600000Y-71300000D01*
X29600000Y-67400000D02*
X29600000Y-71300000D01*
X29600000Y-67400000D02*
X31600000Y-67400000D01*
%TO.C,C6*%
X23740000Y-53992164D02*
X23740000Y-54207836D01*
X24460000Y-53992164D02*
X24460000Y-54207836D01*
%TO.C,D17*%
X48650000Y8800000D02*
X48650000Y4900000D01*
X50650000Y8800000D02*
X50650000Y4900000D01*
X48650000Y8800000D02*
X50650000Y8800000D01*
%TO.C,D18*%
X67700000Y8800000D02*
X69700000Y8800000D01*
X69700000Y8800000D02*
X69700000Y4900000D01*
X67700000Y8800000D02*
X67700000Y4900000D01*
%TO.C,D38*%
X191525000Y-10250000D02*
X193525000Y-10250000D01*
X193525000Y-10250000D02*
X193525000Y-14150000D01*
X191525000Y-10250000D02*
X191525000Y-14150000D01*
%TO.C,D75*%
X258200000Y-67400000D02*
X258200000Y-71300000D01*
X260200000Y-67400000D02*
X260200000Y-71300000D01*
X258200000Y-67400000D02*
X260200000Y-67400000D01*
%TO.C,D55*%
X5406250Y-48350000D02*
X5406250Y-52250000D01*
X3406250Y-48350000D02*
X3406250Y-52250000D01*
X3406250Y-48350000D02*
X5406250Y-48350000D01*
%TO.C,U4*%
X25825000Y-29300000D02*
X25825000Y-32025000D01*
X20375000Y-32025000D02*
X20635000Y-32025000D01*
X25825000Y-26575000D02*
X25565000Y-26575000D01*
X20375000Y-26575000D02*
X20635000Y-26575000D01*
X25825000Y-29300000D02*
X25825000Y-26575000D01*
X20375000Y-29300000D02*
X20375000Y-32025000D01*
X25565000Y-32025000D02*
X25565000Y-33700000D01*
X20375000Y-29300000D02*
X20375000Y-26575000D01*
X25825000Y-32025000D02*
X25565000Y-32025000D01*
%TO.C,D50*%
X158187500Y-29300000D02*
X158187500Y-33200000D01*
X160187500Y-29300000D02*
X160187500Y-33200000D01*
X158187500Y-29300000D02*
X160187500Y-29300000D01*
%TO.C,R2*%
X17122500Y-33662258D02*
X17122500Y-33187742D01*
X16077500Y-33662258D02*
X16077500Y-33187742D01*
%TD*%
M02*
