M48
; DRILL file {KiCad (6.0.1-0)} date Wednesday, June 29, 2022 at 12:55:44 PM
; FORMAT={-:-/ absolute / metric / decimal}
; #@! TF.CreationDate,2022-06-29T12:55:44+09:00
; #@! TF.GenerationSoftware,Kicad,Pcbnew,(6.0.1-0)
; #@! TF.FileFunction,NonPlated,1,2,NPTH
FMAT,2
METRIC
; #@! TA.AperFunction,NonPlated,NPTH,ComponentDrill
T1C0.750
; #@! TA.AperFunction,NonPlated,NPTH,ComponentDrill
T2C1.750
; #@! TA.AperFunction,NonPlated,NPTH,ComponentDrill
T3C2.200
; #@! TA.AperFunction,NonPlated,NPTH,ComponentDrill
T4C3.048
; #@! TA.AperFunction,NonPlated,NPTH,ComponentDrill
T5C3.050
; #@! TA.AperFunction,NonPlated,NPTH,ComponentDrill
T6C3.988
; #@! TA.AperFunction,NonPlated,NPTH,ComponentDrill
T7C4.000
%
G90
G05
T1
X42.343Y-22.309
X48.143Y-22.309
T2
X23.495Y-28.575
X23.495Y-47.625
X23.495Y-123.825
X28.258Y-66.675
X30.639Y-85.725
X33.655Y-28.575
X33.655Y-47.625
X33.655Y-123.825
X35.401Y-104.775
X38.417Y-66.675
X40.799Y-85.725
X42.545Y-47.625
X42.545Y-123.825
X45.561Y-104.775
X52.07Y-66.675
X52.705Y-47.625
X52.705Y-123.825
X56.832Y-85.725
X59.214Y-28.575
X61.595Y-47.625
X61.595Y-123.825
X62.23Y-66.675
X66.358Y-104.775
X66.992Y-85.725
X69.374Y-28.575
X71.12Y-66.675
X71.755Y-47.625
X71.755Y-123.825
X75.882Y-85.725
X76.517Y-104.775
X78.264Y-28.575
X80.645Y-47.625
X81.28Y-66.675
X83.026Y-123.825
X85.407Y-104.775
X86.042Y-85.725
X88.424Y-28.575
X90.17Y-66.675
X90.805Y-47.625
X93.186Y-123.825
X94.932Y-85.725
X95.567Y-104.775
X97.314Y-28.575
X99.695Y-47.625
X100.33Y-66.675
X104.457Y-104.775
X105.093Y-85.725
X107.474Y-28.575
X109.22Y-66.675
X109.855Y-47.625
X113.983Y-85.725
X114.617Y-104.775
X116.364Y-28.575
X118.745Y-47.625
X119.38Y-66.675
X123.507Y-104.775
X124.142Y-85.725
X126.524Y-28.575
X128.27Y-66.675
X128.905Y-47.625
X133.032Y-85.725
X133.667Y-104.775
X137.795Y-47.625
X138.43Y-66.675
X142.558Y-104.775
X143.192Y-85.725
X144.939Y-28.575
X147.32Y-66.675
X147.955Y-47.625
X152.082Y-85.725
X152.718Y-104.775
X154.464Y-123.825
X155.099Y-28.575
X156.845Y-47.625
X157.48Y-66.675
X161.607Y-104.775
X162.243Y-85.725
X164.624Y-123.825
X166.37Y-28.575
X166.37Y-66.675
X167.005Y-47.625
X171.132Y-85.725
X171.767Y-104.775
X175.895Y-47.625
X176.53Y-28.575
X176.53Y-66.675
X180.657Y-104.775
X181.292Y-85.725
X185.42Y-28.575
X185.42Y-66.675
X186.055Y-47.625
X190.183Y-85.725
X190.817Y-104.775
X194.945Y-47.625
X195.58Y-28.575
X195.58Y-66.675
X199.707Y-104.775
X200.343Y-85.725
X204.47Y-28.575
X204.47Y-66.675
X205.105Y-47.625
X209.232Y-85.725
X209.867Y-104.775
X213.995Y-47.625
X214.63Y-28.575
X214.63Y-66.675
X218.757Y-104.775
X219.392Y-85.725
X223.52Y-66.675
X224.155Y-47.625
X225.901Y-123.825
X228.282Y-85.725
X228.917Y-104.775
X233.045Y-28.575
X233.045Y-47.625
X233.68Y-66.675
X236.061Y-123.825
X237.807Y-104.775
X238.442Y-85.725
X242.57Y-66.675
X243.205Y-28.575
X243.205Y-47.625
X247.332Y-85.725
X247.968Y-104.775
X252.095Y-28.575
X252.095Y-47.625
X252.095Y-123.825
X252.73Y-66.675
X257.493Y-85.725
X261.62Y-66.675
X262.255Y-28.575
X262.255Y-47.625
X262.255Y-123.825
X271.145Y-28.575
X271.145Y-104.775
X271.145Y-123.825
X271.78Y-66.675
X278.289Y-85.725
X280.67Y-47.625
X281.305Y-28.575
X281.305Y-104.775
X281.305Y-123.825
X285.433Y-66.675
X288.449Y-85.725
X290.195Y-28.575
X290.195Y-123.825
X290.83Y-47.625
X295.592Y-66.675
X300.355Y-28.575
X300.355Y-123.825
T3
X21.431Y-66.675
X38.1Y-123.825
X45.244Y-33.337
X104.775Y-71.438
X135.731Y-28.575
X135.731Y-123.825
X183.356Y-123.825
X219.075Y-71.438
X223.837Y-28.575
X285.75Y-30.956
X285.75Y-126.206
X300.037Y-71.438
T4
X28.543Y-97.79
X52.419Y-97.79
X109.544Y-130.81
X209.544Y-130.81
X271.431Y-78.74
X273.812Y-40.64
X295.307Y-78.74
X297.688Y-40.64
T5
X24.765Y-26.035
X24.765Y-45.085
X24.765Y-121.285
X29.527Y-64.135
X31.115Y-23.495
X31.115Y-42.545
X31.115Y-118.745
X31.909Y-83.185
X35.877Y-61.595
X36.671Y-102.235
X38.259Y-80.645
X43.021Y-99.695
X43.815Y-45.085
X43.815Y-121.285
X50.165Y-42.545
X50.165Y-118.745
X53.34Y-64.135
X58.102Y-83.185
X59.69Y-61.595
X60.484Y-26.035
X62.865Y-45.085
X62.865Y-121.285
X64.453Y-80.645
X66.834Y-23.495
X67.627Y-102.235
X69.215Y-42.545
X69.215Y-118.745
X72.39Y-64.135
X73.977Y-99.695
X77.153Y-83.185
X78.74Y-61.595
X79.534Y-26.035
X81.915Y-45.085
X83.502Y-80.645
X84.296Y-121.285
X85.884Y-23.495
X86.677Y-102.235
X88.265Y-42.545
X90.646Y-118.745
X91.44Y-64.135
X93.027Y-99.695
X96.203Y-83.185
X97.79Y-61.595
X98.584Y-26.035
X100.965Y-45.085
X102.552Y-80.645
X104.934Y-23.495
X105.727Y-102.235
X107.315Y-42.545
X110.49Y-64.135
X112.078Y-99.695
X115.252Y-83.185
X116.84Y-61.595
X117.634Y-26.035
X120.015Y-45.085
X121.602Y-80.645
X123.984Y-23.495
X124.777Y-102.235
X126.365Y-42.545
X129.54Y-64.135
X131.127Y-99.695
X134.302Y-83.185
X135.89Y-61.595
X139.065Y-45.085
X140.653Y-80.645
X143.827Y-102.235
X145.415Y-42.545
X146.209Y-26.035
X148.59Y-64.135
X150.177Y-99.695
X152.559Y-23.495
X153.352Y-83.185
X154.94Y-61.595
X155.734Y-121.285
X158.115Y-45.085
X159.702Y-80.645
X162.084Y-118.745
X162.877Y-102.235
X164.465Y-42.545
X167.64Y-26.035
X167.64Y-64.135
X169.227Y-99.695
X172.403Y-83.185
X173.99Y-23.495
X173.99Y-61.595
X177.165Y-45.085
X178.752Y-80.645
X181.927Y-102.235
X183.515Y-42.545
X186.69Y-26.035
X186.69Y-64.135
X188.278Y-99.695
X191.452Y-83.185
X193.04Y-23.495
X193.04Y-61.595
X196.215Y-45.085
X197.802Y-80.645
X200.977Y-102.235
X202.565Y-42.545
X205.74Y-26.035
X205.74Y-64.135
X207.327Y-99.695
X210.502Y-83.185
X212.09Y-23.495
X212.09Y-61.595
X215.265Y-45.085
X216.852Y-80.645
X220.028Y-102.235
X221.615Y-42.545
X224.79Y-64.135
X226.377Y-99.695
X227.171Y-121.285
X229.552Y-83.185
X231.14Y-61.595
X233.521Y-118.745
X234.315Y-26.035
X234.315Y-45.085
X235.903Y-80.645
X239.077Y-102.235
X240.665Y-23.495
X240.665Y-42.545
X243.84Y-64.135
X245.427Y-99.695
X248.602Y-83.185
X250.19Y-61.595
X253.365Y-26.035
X253.365Y-45.085
X253.365Y-121.285
X254.952Y-80.645
X259.715Y-23.495
X259.715Y-42.545
X259.715Y-118.745
X262.89Y-64.135
X269.24Y-61.595
X272.415Y-26.035
X272.415Y-102.235
X272.415Y-121.285
X278.765Y-23.495
X278.765Y-99.695
X278.765Y-118.745
X279.559Y-83.185
X281.94Y-45.085
X285.909Y-80.645
X286.702Y-64.135
X288.29Y-42.545
X291.465Y-26.035
X291.465Y-121.285
X293.053Y-61.595
X297.815Y-23.495
X297.815Y-118.745
T6
X28.543Y-113.0
X52.419Y-113.0
X109.544Y-115.6
X209.544Y-115.6
X271.431Y-93.95
X273.812Y-55.85
X295.307Y-93.95
X297.688Y-55.85
T7
X28.575Y-28.575
X28.575Y-47.625
X28.575Y-123.825
X33.337Y-66.675
X35.719Y-85.725
X40.481Y-104.775
X47.625Y-47.625
X47.625Y-123.825
X57.15Y-66.675
X61.912Y-85.725
X64.294Y-28.575
X66.675Y-47.625
X66.675Y-123.825
X71.438Y-104.775
X76.2Y-66.675
X80.962Y-85.725
X83.344Y-28.575
X85.725Y-47.625
X88.106Y-123.825
X90.487Y-104.775
X95.25Y-66.675
X100.012Y-85.725
X102.394Y-28.575
X104.775Y-47.625
X109.537Y-104.775
X114.3Y-66.675
X119.062Y-85.725
X121.444Y-28.575
X123.825Y-47.625
X128.588Y-104.775
X133.35Y-66.675
X138.112Y-85.725
X142.875Y-47.625
X147.637Y-104.775
X150.019Y-28.575
X152.4Y-66.675
X157.162Y-85.725
X159.544Y-123.825
X161.925Y-47.625
X166.688Y-104.775
X171.45Y-28.575
X171.45Y-66.675
X176.213Y-85.725
X180.975Y-47.625
X185.737Y-104.775
X190.5Y-28.575
X190.5Y-66.675
X195.262Y-85.725
X200.025Y-47.625
X204.787Y-104.775
X209.55Y-28.575
X209.55Y-66.675
X214.312Y-85.725
X219.075Y-47.625
X223.837Y-104.775
X228.6Y-66.675
X230.981Y-123.825
X233.362Y-85.725
X238.125Y-28.575
X238.125Y-47.625
X242.887Y-104.775
X247.65Y-66.675
X252.412Y-85.725
X257.175Y-28.575
X257.175Y-47.625
X257.175Y-123.825
X266.7Y-66.675
X276.225Y-28.575
X276.225Y-104.775
X276.225Y-123.825
X283.369Y-85.725
X285.75Y-47.625
X290.512Y-66.675
X295.275Y-28.575
X295.275Y-123.825
T0
M30
