G04 #@! TF.GenerationSoftware,KiCad,Pcbnew,(6.0.1-0)*
G04 #@! TF.CreationDate,2022-06-29T12:55:11+09:00*
G04 #@! TF.ProjectId,key-ripper,6b65792d-7269-4707-9065-722e6b696361,rev?*
G04 #@! TF.SameCoordinates,Original*
G04 #@! TF.FileFunction,Copper,L2,Bot*
G04 #@! TF.FilePolarity,Positive*
%FSLAX46Y46*%
G04 Gerber Fmt 4.6, Leading zero omitted, Abs format (unit mm)*
G04 Created by KiCad (PCBNEW (6.0.1-0)) date 2022-06-29 12:55:11*
%MOMM*%
%LPD*%
G01*
G04 APERTURE LIST*
G04 Aperture macros list*
%AMRoundRect*
0 Rectangle with rounded corners*
0 $1 Rounding radius*
0 $2 $3 $4 $5 $6 $7 $8 $9 X,Y pos of 4 corners*
0 Add a 4 corners polygon primitive as box body*
4,1,4,$2,$3,$4,$5,$6,$7,$8,$9,$2,$3,0*
0 Add four circle primitives for the rounded corners*
1,1,$1+$1,$2,$3*
1,1,$1+$1,$4,$5*
1,1,$1+$1,$6,$7*
1,1,$1+$1,$8,$9*
0 Add four rect primitives between the rounded corners*
20,1,$1+$1,$2,$3,$4,$5,0*
20,1,$1+$1,$4,$5,$6,$7,0*
20,1,$1+$1,$6,$7,$8,$9,0*
20,1,$1+$1,$8,$9,$2,$3,0*%
G04 Aperture macros list end*
G04 #@! TA.AperFunction,SMDPad,CuDef*
%ADD10RoundRect,0.250000X-1.025000X-1.000000X1.025000X-1.000000X1.025000X1.000000X-1.025000X1.000000X0*%
G04 #@! TD*
G04 #@! TA.AperFunction,ComponentPad*
%ADD11R,1.700000X1.700000*%
G04 #@! TD*
G04 #@! TA.AperFunction,ComponentPad*
%ADD12O,1.700000X1.700000*%
G04 #@! TD*
G04 #@! TA.AperFunction,SMDPad,CuDef*
%ADD13R,1.200000X0.900000*%
G04 #@! TD*
G04 #@! TA.AperFunction,SMDPad,CuDef*
%ADD14RoundRect,0.140000X0.140000X0.170000X-0.140000X0.170000X-0.140000X-0.170000X0.140000X-0.170000X0*%
G04 #@! TD*
G04 #@! TA.AperFunction,SMDPad,CuDef*
%ADD15RoundRect,0.140000X0.170000X-0.140000X0.170000X0.140000X-0.170000X0.140000X-0.170000X-0.140000X0*%
G04 #@! TD*
G04 #@! TA.AperFunction,SMDPad,CuDef*
%ADD16RoundRect,0.140000X-0.140000X-0.170000X0.140000X-0.170000X0.140000X0.170000X-0.140000X0.170000X0*%
G04 #@! TD*
G04 #@! TA.AperFunction,SMDPad,CuDef*
%ADD17RoundRect,0.150000X-0.587500X-0.150000X0.587500X-0.150000X0.587500X0.150000X-0.587500X0.150000X0*%
G04 #@! TD*
G04 #@! TA.AperFunction,SMDPad,CuDef*
%ADD18RoundRect,0.218750X-0.381250X0.218750X-0.381250X-0.218750X0.381250X-0.218750X0.381250X0.218750X0*%
G04 #@! TD*
G04 #@! TA.AperFunction,SMDPad,CuDef*
%ADD19RoundRect,0.200000X0.275000X-0.200000X0.275000X0.200000X-0.275000X0.200000X-0.275000X-0.200000X0*%
G04 #@! TD*
G04 #@! TA.AperFunction,SMDPad,CuDef*
%ADD20RoundRect,0.135000X0.185000X-0.135000X0.185000X0.135000X-0.185000X0.135000X-0.185000X-0.135000X0*%
G04 #@! TD*
G04 #@! TA.AperFunction,ComponentPad*
%ADD21O,1.200000X1.800000*%
G04 #@! TD*
G04 #@! TA.AperFunction,ComponentPad*
%ADD22O,1.200000X2.000000*%
G04 #@! TD*
G04 #@! TA.AperFunction,SMDPad,CuDef*
%ADD23R,0.300000X1.300000*%
G04 #@! TD*
G04 #@! TA.AperFunction,SMDPad,CuDef*
%ADD24R,0.900000X1.200000*%
G04 #@! TD*
G04 #@! TA.AperFunction,SMDPad,CuDef*
%ADD25RoundRect,0.243750X0.243750X0.456250X-0.243750X0.456250X-0.243750X-0.456250X0.243750X-0.456250X0*%
G04 #@! TD*
G04 #@! TA.AperFunction,SMDPad,CuDef*
%ADD26R,1.000000X1.700000*%
G04 #@! TD*
G04 #@! TA.AperFunction,SMDPad,CuDef*
%ADD27RoundRect,0.140000X-0.170000X0.140000X-0.170000X-0.140000X0.170000X-0.140000X0.170000X0.140000X0*%
G04 #@! TD*
G04 #@! TA.AperFunction,SMDPad,CuDef*
%ADD28RoundRect,0.135000X-0.185000X0.135000X-0.185000X-0.135000X0.185000X-0.135000X0.185000X0.135000X0*%
G04 #@! TD*
G04 #@! TA.AperFunction,SMDPad,CuDef*
%ADD29RoundRect,0.135000X-0.135000X-0.185000X0.135000X-0.185000X0.135000X0.185000X-0.135000X0.185000X0*%
G04 #@! TD*
G04 #@! TA.AperFunction,SMDPad,CuDef*
%ADD30RoundRect,0.135000X0.135000X0.185000X-0.135000X0.185000X-0.135000X-0.185000X0.135000X-0.185000X0*%
G04 #@! TD*
G04 #@! TA.AperFunction,SMDPad,CuDef*
%ADD31RoundRect,0.243750X-0.456250X0.243750X-0.456250X-0.243750X0.456250X-0.243750X0.456250X0.243750X0*%
G04 #@! TD*
G04 #@! TA.AperFunction,SMDPad,CuDef*
%ADD32R,1.200000X1.400000*%
G04 #@! TD*
G04 #@! TA.AperFunction,SMDPad,CuDef*
%ADD33R,1.100000X0.200000*%
G04 #@! TD*
G04 #@! TA.AperFunction,SMDPad,CuDef*
%ADD34R,0.200000X1.100000*%
G04 #@! TD*
G04 #@! TA.AperFunction,SMDPad,CuDef*
%ADD35R,3.100000X3.100000*%
G04 #@! TD*
G04 #@! TA.AperFunction,SMDPad,CuDef*
%ADD36R,1.700000X1.000000*%
G04 #@! TD*
G04 #@! TA.AperFunction,SMDPad,CuDef*
%ADD37RoundRect,0.150000X0.150000X-0.650000X0.150000X0.650000X-0.150000X0.650000X-0.150000X-0.650000X0*%
G04 #@! TD*
G04 #@! TA.AperFunction,ViaPad*
%ADD38C,0.800000*%
G04 #@! TD*
G04 #@! TA.AperFunction,Conductor*
%ADD39C,0.200000*%
G04 #@! TD*
G04 #@! TA.AperFunction,Conductor*
%ADD40C,0.500000*%
G04 #@! TD*
G04 #@! TA.AperFunction,Conductor*
%ADD41C,0.400000*%
G04 #@! TD*
G04 #@! TA.AperFunction,Conductor*
%ADD42C,0.300000*%
G04 #@! TD*
G04 #@! TA.AperFunction,Conductor*
%ADD43C,1.000000*%
G04 #@! TD*
G04 APERTURE END LIST*
D10*
X40540000Y-121285000D03*
X53467000Y-118745000D03*
X152458750Y-121285000D03*
X165385750Y-118745000D03*
X116740000Y-45085000D03*
X129667000Y-42545000D03*
X159602500Y-102235000D03*
X172529500Y-99695000D03*
X250090000Y-121285000D03*
X263017000Y-118745000D03*
X95308750Y-26035000D03*
X108235750Y-23495000D03*
X59590000Y-45085000D03*
X72517000Y-42545000D03*
X269140000Y-121285000D03*
X282067000Y-118745000D03*
X142933750Y-26035000D03*
X155860750Y-23495000D03*
X216752500Y-102235000D03*
X229679500Y-99695000D03*
X107215000Y-64135000D03*
X120142000Y-61595000D03*
X235802500Y-102235000D03*
X248729500Y-99695000D03*
X88165000Y-64135000D03*
X101092000Y-61595000D03*
X28633750Y-83185000D03*
X41560750Y-80645000D03*
X278665000Y-45085000D03*
X291592000Y-42545000D03*
X145315000Y-64135000D03*
X158242000Y-61595000D03*
X259615000Y-64135000D03*
X272542000Y-61595000D03*
X97690000Y-45085000D03*
X110617000Y-42545000D03*
X21490000Y-45085000D03*
X34417000Y-42545000D03*
X102452500Y-102235000D03*
X115379500Y-99695000D03*
X250090000Y-26035000D03*
X263017000Y-23495000D03*
X26252500Y-64135000D03*
X39179500Y-61595000D03*
X197702500Y-102235000D03*
X210629500Y-99695000D03*
X223896250Y-121285000D03*
X236823250Y-118745000D03*
X57208750Y-26035000D03*
X70135750Y-23495000D03*
X226277500Y-83185000D03*
X239204500Y-80645000D03*
X240565000Y-64135000D03*
X253492000Y-61595000D03*
X50065000Y-64135000D03*
X62992000Y-61595000D03*
X231040000Y-45085000D03*
X243967000Y-42545000D03*
X76258750Y-26035000D03*
X89185750Y-23495000D03*
X288190000Y-26035000D03*
X301117000Y-23495000D03*
X169127500Y-83185000D03*
X182054500Y-80645000D03*
X40540000Y-45085000D03*
X53467000Y-42545000D03*
X269140000Y-26035000D03*
X282067000Y-23495000D03*
X21490000Y-121285000D03*
X34417000Y-118745000D03*
X83402500Y-102235000D03*
X96329500Y-99695000D03*
X183415000Y-26035000D03*
X196342000Y-23495000D03*
X114358750Y-26035000D03*
X127285750Y-23495000D03*
X283427500Y-64135000D03*
X296354500Y-61595000D03*
X211990000Y-45085000D03*
X224917000Y-42545000D03*
X21490000Y-26035000D03*
X34417000Y-23495000D03*
X59590000Y-121285000D03*
X72517000Y-118745000D03*
X202465000Y-26035000D03*
X215392000Y-23495000D03*
X276283750Y-83185000D03*
X289210750Y-80645000D03*
X131027500Y-83185000D03*
X143954500Y-80645000D03*
X207227500Y-83185000D03*
X220154500Y-80645000D03*
X64352500Y-102235000D03*
X77279500Y-99695000D03*
X288190000Y-121285000D03*
X301117000Y-118745000D03*
X250090000Y-45085000D03*
X263017000Y-42545000D03*
X173890000Y-45085000D03*
X186817000Y-42545000D03*
X69115000Y-64135000D03*
X82042000Y-61595000D03*
X164365000Y-64135000D03*
X177292000Y-61595000D03*
X121502500Y-102235000D03*
X134429500Y-99695000D03*
X54827500Y-83185000D03*
X67754500Y-80645000D03*
X202465000Y-64135000D03*
X215392000Y-61595000D03*
X188177500Y-83185000D03*
X201104500Y-80645000D03*
X111977500Y-83185000D03*
X124904500Y-80645000D03*
D11*
X22575000Y-86450000D03*
D12*
X22575000Y-83910000D03*
X22575000Y-81370000D03*
D10*
X164365000Y-26035000D03*
X177292000Y-23495000D03*
X154840000Y-45085000D03*
X167767000Y-42545000D03*
X126265000Y-64135000D03*
X139192000Y-61595000D03*
X81021250Y-121285000D03*
X93948250Y-118745000D03*
X150077500Y-83185000D03*
X163004500Y-80645000D03*
X231040000Y-26035000D03*
X243967000Y-23495000D03*
X183415000Y-64135000D03*
X196342000Y-61595000D03*
X135790000Y-45085000D03*
X148717000Y-42545000D03*
X178652500Y-102235000D03*
X191579500Y-99695000D03*
X192940000Y-45085000D03*
X205867000Y-42545000D03*
X269140000Y-102235000D03*
X282067000Y-99695000D03*
X245327500Y-83185000D03*
X258254500Y-80645000D03*
X33396250Y-102235000D03*
X46323250Y-99695000D03*
X78640000Y-45085000D03*
X91567000Y-42545000D03*
X221515000Y-64135000D03*
X234442000Y-61595000D03*
X92927500Y-83185000D03*
X105854500Y-80645000D03*
X73877500Y-83185000D03*
X86804500Y-80645000D03*
X140552500Y-102235000D03*
X153479500Y-99695000D03*
D13*
X225862500Y-77525000D03*
X225862500Y-80825000D03*
X202050000Y-58475000D03*
X202050000Y-61775000D03*
D14*
X43255000Y-85925000D03*
X42295000Y-85925000D03*
D13*
X130612500Y-77525000D03*
X130612500Y-80825000D03*
D15*
X45225000Y-85625000D03*
X45225000Y-84665000D03*
D13*
X230625000Y-20375000D03*
X230625000Y-23675000D03*
X163950000Y-20375000D03*
X163950000Y-23675000D03*
X21075000Y-20375000D03*
X21075000Y-23675000D03*
X68700000Y-58475000D03*
X68700000Y-61775000D03*
D14*
X43235000Y-84925000D03*
X42275000Y-84925000D03*
D13*
X111562500Y-77525000D03*
X111562500Y-80825000D03*
X87750000Y-58475000D03*
X87750000Y-61775000D03*
X268725000Y-20375000D03*
X268725000Y-23675000D03*
D16*
X27195000Y-100125000D03*
X28155000Y-100125000D03*
D13*
X106800000Y-58475000D03*
X106800000Y-61775000D03*
X249675000Y-20375000D03*
X249675000Y-23675000D03*
X135375000Y-39425000D03*
X135375000Y-42725000D03*
D17*
X57837500Y-94675000D03*
X57837500Y-92775000D03*
X59712500Y-93725000D03*
D18*
X61712500Y-91662500D03*
X61712500Y-93787500D03*
D13*
X202050000Y-20375000D03*
X202050000Y-23675000D03*
X168712500Y-77525000D03*
X168712500Y-80825000D03*
X149662500Y-77525000D03*
X149662500Y-80825000D03*
X51675000Y-28325000D03*
X51675000Y-25025000D03*
X94893750Y-20375000D03*
X94893750Y-23675000D03*
X268725000Y-96575000D03*
X268725000Y-99875000D03*
D19*
X46775000Y-81875000D03*
X46775000Y-80225000D03*
D20*
X26075000Y-96935000D03*
X26075000Y-95915000D03*
D13*
X113943750Y-20375000D03*
X113943750Y-23675000D03*
D20*
X57625000Y-91485000D03*
X57625000Y-90465000D03*
D21*
X49567855Y-18609612D03*
D22*
X49567855Y-22809511D03*
D21*
X40917613Y-18609612D03*
D22*
X40917613Y-22809511D03*
D23*
X41892721Y-23577837D03*
X42692823Y-23577837D03*
X43992797Y-23577837D03*
X44992797Y-23577837D03*
X45492670Y-23577837D03*
X46492416Y-23577837D03*
X47792899Y-23577837D03*
X48592747Y-23577837D03*
X48292772Y-23577837D03*
X47492670Y-23577837D03*
X46992797Y-23577837D03*
X45992797Y-23577837D03*
X44492670Y-23577837D03*
X43492670Y-23577837D03*
X42992797Y-23577837D03*
X42192696Y-23577837D03*
D24*
X58625000Y-77225000D03*
X55325000Y-77225000D03*
D13*
X173475000Y-39425000D03*
X173475000Y-42725000D03*
D25*
X59487500Y-88975000D03*
X57612500Y-88975000D03*
D13*
X75843750Y-20375000D03*
X75843750Y-23675000D03*
X183000000Y-20375000D03*
X183000000Y-23675000D03*
X287775000Y-20375000D03*
X287775000Y-23675000D03*
D26*
X29324124Y-108424975D03*
X29325394Y-101825025D03*
X25624606Y-108424975D03*
X25624606Y-101825025D03*
D13*
X49650000Y-58475000D03*
X49650000Y-61775000D03*
X92512500Y-77525000D03*
X92512500Y-80825000D03*
X275868750Y-77525000D03*
X275868750Y-80825000D03*
X268725000Y-115625000D03*
X268725000Y-118925000D03*
X206812500Y-77525000D03*
X206812500Y-80825000D03*
X197287500Y-96575000D03*
X197287500Y-99875000D03*
X82987500Y-96575000D03*
X82987500Y-99875000D03*
D16*
X52615000Y-91805000D03*
X53575000Y-91805000D03*
D20*
X48175000Y-102445000D03*
X48175000Y-101425000D03*
D13*
X63937500Y-96575000D03*
X63937500Y-99875000D03*
X230625000Y-39425000D03*
X230625000Y-42725000D03*
D27*
X47375000Y-96825000D03*
X47375000Y-97785000D03*
D13*
X21075000Y-39425000D03*
X21075000Y-42725000D03*
X163950000Y-58475000D03*
X163950000Y-61775000D03*
X223481250Y-115625000D03*
X223481250Y-118925000D03*
D28*
X55075000Y-73005000D03*
X55075000Y-74025000D03*
D13*
X40125000Y-39425000D03*
X40125000Y-42725000D03*
D29*
X55065000Y-75425000D03*
X56085000Y-75425000D03*
D13*
X40125000Y-115625000D03*
X40125000Y-118925000D03*
D29*
X47565000Y-26525000D03*
X48585000Y-26525000D03*
D13*
X178237500Y-96575000D03*
X178237500Y-99875000D03*
X140137500Y-96575000D03*
X140137500Y-99875000D03*
X240150000Y-58475000D03*
X240150000Y-61775000D03*
D15*
X44175000Y-85625000D03*
X44175000Y-84665000D03*
D13*
X216337500Y-96575000D03*
X216337500Y-99875000D03*
X116325000Y-39425000D03*
X116325000Y-42725000D03*
X59175000Y-39425000D03*
X59175000Y-42725000D03*
X211575000Y-39425000D03*
X211575000Y-42725000D03*
D30*
X40185000Y-26725000D03*
X39165000Y-26725000D03*
D15*
X59700000Y-91530000D03*
X59700000Y-90570000D03*
D13*
X235387500Y-96575000D03*
X235387500Y-99875000D03*
X283012500Y-58475000D03*
X283012500Y-61775000D03*
D15*
X53575000Y-71405000D03*
X53575000Y-70445000D03*
D13*
X154425000Y-39425000D03*
X154425000Y-42725000D03*
D15*
X58700000Y-91480000D03*
X58700000Y-90520000D03*
D13*
X73462500Y-77525000D03*
X73462500Y-80825000D03*
X144900000Y-58475000D03*
X144900000Y-61775000D03*
X278250000Y-39425000D03*
X278250000Y-42725000D03*
X192525000Y-39425000D03*
X192525000Y-42725000D03*
D15*
X47975000Y-84305000D03*
X47975000Y-83345000D03*
D16*
X49955000Y-104495000D03*
X50915000Y-104495000D03*
D14*
X43255000Y-86925000D03*
X42295000Y-86925000D03*
X42005000Y-92055000D03*
X41045000Y-92055000D03*
D27*
X46375000Y-96825000D03*
X46375000Y-97785000D03*
D13*
X25837500Y-58475000D03*
X25837500Y-61775000D03*
X56793750Y-20375000D03*
X56793750Y-23675000D03*
X28218750Y-77525000D03*
X28218750Y-80825000D03*
D15*
X52575000Y-88025000D03*
X52575000Y-87065000D03*
D13*
X249675000Y-115625000D03*
X249675000Y-118925000D03*
X142518750Y-20375000D03*
X142518750Y-23675000D03*
X244912500Y-77525000D03*
X244912500Y-80825000D03*
X259200000Y-58475000D03*
X259200000Y-61775000D03*
D31*
X51725000Y-29937500D03*
X51725000Y-31812500D03*
D15*
X47045000Y-84005000D03*
X47045000Y-83045000D03*
D13*
X249675000Y-39425000D03*
X249675000Y-42725000D03*
X21075000Y-115625000D03*
X21075000Y-118925000D03*
X125850000Y-58475000D03*
X125850000Y-61775000D03*
D32*
X51325000Y-100725000D03*
X51325000Y-102925000D03*
X49625000Y-102925000D03*
X49625000Y-100725000D03*
D13*
X159187500Y-96575000D03*
X159187500Y-99875000D03*
X102037500Y-96575000D03*
X102037500Y-99875000D03*
X183000000Y-58475000D03*
X183000000Y-61775000D03*
X80606250Y-115625000D03*
X80606250Y-118925000D03*
D33*
X50925165Y-88224924D03*
X50925165Y-88624975D03*
X50925165Y-89025025D03*
X50925165Y-89425076D03*
X50925165Y-89824873D03*
X50925165Y-90224924D03*
X50925165Y-90624975D03*
X50925165Y-91025025D03*
X50925165Y-91425076D03*
X50925165Y-91824873D03*
X50925165Y-92224924D03*
X50925165Y-92624975D03*
X50925165Y-93025025D03*
X50925165Y-93425076D03*
D34*
X49974949Y-94375038D03*
X49575152Y-94375038D03*
X49175102Y-94375038D03*
X48775051Y-94375038D03*
X48375000Y-94375038D03*
X47974949Y-94375038D03*
X47575152Y-94375038D03*
X47175102Y-94375038D03*
X46775051Y-94375038D03*
X46375000Y-94375038D03*
X45974949Y-94375038D03*
X45575152Y-94375038D03*
X45175102Y-94375038D03*
X44775051Y-94375038D03*
D33*
X43824835Y-93425076D03*
X43824835Y-93025025D03*
X43824835Y-92624975D03*
X43824835Y-92224924D03*
X43824835Y-91824873D03*
X43824835Y-91425076D03*
X43824835Y-91025025D03*
X43824835Y-90624975D03*
X43824835Y-90224924D03*
X43824835Y-89824873D03*
X43824835Y-89425076D03*
X43824835Y-89025025D03*
X43824835Y-88624975D03*
X43824835Y-88224924D03*
D34*
X44775051Y-87274962D03*
X45175102Y-87274962D03*
X45575152Y-87274962D03*
X45974949Y-87274962D03*
X46375000Y-87274962D03*
X46775051Y-87274962D03*
X47175102Y-87274962D03*
X47575152Y-87274962D03*
X47974949Y-87274962D03*
X48375000Y-87274962D03*
X48775051Y-87274962D03*
X49175102Y-87274962D03*
X49575152Y-87274962D03*
X49974949Y-87274962D03*
D35*
X47375000Y-90824873D03*
D13*
X152043750Y-115625000D03*
X152043750Y-118925000D03*
X121087500Y-96575000D03*
X121087500Y-99875000D03*
D36*
X63674950Y-70426270D03*
X57075000Y-70425000D03*
X63674950Y-74125788D03*
X57075000Y-74125788D03*
D13*
X59175000Y-115625000D03*
X59175000Y-118925000D03*
D27*
X52675000Y-101245000D03*
X52675000Y-102205000D03*
D13*
X78225000Y-39425000D03*
X78225000Y-42725000D03*
X97275000Y-39425000D03*
X97275000Y-42725000D03*
X221100000Y-58475000D03*
X221100000Y-61775000D03*
X287775000Y-115625000D03*
X287775000Y-118925000D03*
X32981250Y-96575000D03*
X32981250Y-99875000D03*
D37*
X53580000Y-80525000D03*
X52310000Y-80525000D03*
X51040000Y-80525000D03*
X49770000Y-80525000D03*
X49770000Y-73325000D03*
X51040000Y-73325000D03*
X52310000Y-73325000D03*
X53580000Y-73325000D03*
D13*
X187762500Y-77525000D03*
X187762500Y-80825000D03*
D19*
X45175000Y-81875000D03*
X45175000Y-80225000D03*
D38*
X36775000Y-94725000D03*
X51675000Y-78525000D03*
X47275000Y-85025000D03*
X42375000Y-87925000D03*
X44075000Y-86625000D03*
X49785335Y-88417728D03*
X47975000Y-82425000D03*
X49675000Y-78525000D03*
X53275000Y-23325000D03*
X51275000Y-23325000D03*
X47175000Y-78625000D03*
X54275000Y-102625000D03*
X41419622Y-87280378D03*
X44175000Y-83725000D03*
X45075000Y-78625000D03*
X48675000Y-105825000D03*
X48954889Y-99145111D03*
X49775000Y-93125000D03*
X54275000Y-101425000D03*
X49975000Y-105825000D03*
X53075000Y-100225000D03*
X46275000Y-89725000D03*
X47075000Y-57525000D03*
X60575000Y-90525000D03*
X48475000Y-89725000D03*
X38775000Y-38225000D03*
X46275000Y-91925000D03*
X52275000Y-104725000D03*
X48675000Y-104625000D03*
X53575000Y-69325000D03*
X65775000Y-70425000D03*
X45075000Y-76325000D03*
X42175000Y-83825000D03*
X52275000Y-105825000D03*
X45175000Y-83725000D03*
X56775000Y-72125000D03*
X36675000Y-40525000D03*
X22575000Y-79025000D03*
X41275000Y-25125000D03*
X53475000Y-103425000D03*
X54575000Y-91825000D03*
X45075000Y-57525000D03*
X47375000Y-90825000D03*
X30575000Y-102025000D03*
X36675000Y-38225000D03*
X61175000Y-88425000D03*
X38775000Y-40525000D03*
X39712485Y-91576759D03*
X51175000Y-105825000D03*
X59375000Y-94825000D03*
X37675000Y-26725000D03*
X54275000Y-100225000D03*
X47175000Y-76325000D03*
X46775000Y-102325000D03*
X45475000Y-97125000D03*
X30675000Y-108725000D03*
X39175000Y-25125000D03*
X50175000Y-26525000D03*
X40275000Y-25125000D03*
X29275000Y-100125000D03*
X52775000Y-86125000D03*
X47075000Y-59825000D03*
X45075000Y-59825000D03*
X52275000Y-23325000D03*
X47575000Y-103425000D03*
X48475000Y-91925000D03*
X53475000Y-104725000D03*
X97575000Y-20325000D03*
X59575000Y-20325000D03*
X233575000Y-20325000D03*
X186575000Y-20225000D03*
X205575000Y-20325000D03*
X271575000Y-20325000D03*
X116575000Y-20325000D03*
X23575000Y-20325000D03*
X290475000Y-20325000D03*
X78575000Y-20325000D03*
X145575000Y-20425000D03*
X167575000Y-20325000D03*
X252575000Y-20325000D03*
X252575000Y-39425000D03*
X138575000Y-39425000D03*
X42575000Y-39425000D03*
X157575000Y-39425000D03*
X233575000Y-39425000D03*
X23575000Y-39525000D03*
X62575000Y-39425000D03*
X100575000Y-39425000D03*
X280975000Y-39425000D03*
X214675000Y-39425000D03*
X176575000Y-39425000D03*
X195475000Y-39425000D03*
X81575000Y-39425000D03*
X119475000Y-39425000D03*
X128575000Y-58525000D03*
X243675000Y-58525000D03*
X204675000Y-58525000D03*
X223875000Y-58525000D03*
X147575000Y-58425000D03*
X109475000Y-58525000D03*
X90675000Y-58525000D03*
X71775000Y-58525000D03*
X262475000Y-58525000D03*
X52775000Y-58525000D03*
X166675000Y-58525000D03*
X285875000Y-58525000D03*
X28475000Y-58525000D03*
X185575000Y-58525000D03*
X209675000Y-77525000D03*
X152675000Y-77525000D03*
X114675000Y-77525000D03*
X228675000Y-77625000D03*
X247675000Y-77525000D03*
X190675000Y-77525000D03*
X76575000Y-77525000D03*
X95575000Y-77525000D03*
X59175000Y-75425000D03*
X30875000Y-77525000D03*
X171575000Y-77525000D03*
X133575000Y-77525000D03*
X278875000Y-77525000D03*
X200675000Y-96525000D03*
X123675000Y-96525000D03*
X35075000Y-96625000D03*
X161775000Y-96625000D03*
X180775000Y-96625000D03*
X219675000Y-96625000D03*
X238675000Y-96625000D03*
X272175000Y-96725000D03*
X50175000Y-97325000D03*
X66875000Y-96625000D03*
X142675000Y-96625000D03*
X104675000Y-96525000D03*
X85675000Y-96625000D03*
X43174501Y-115425499D03*
X253475000Y-115625000D03*
X226675000Y-115625000D03*
X271975000Y-115625000D03*
X290575000Y-115625000D03*
X155375000Y-115625000D03*
X62375499Y-115425499D03*
X23475000Y-115625000D03*
X84075499Y-115425499D03*
X28975000Y-93625000D03*
X27275000Y-93725000D03*
X35975000Y-95825500D03*
X41125000Y-82675000D03*
X35275000Y-121125000D03*
X35275000Y-116125000D03*
X34274503Y-121125000D03*
X34275497Y-116125000D03*
X33275000Y-121125000D03*
X33275000Y-116125000D03*
X115375000Y-101925000D03*
X57773060Y-107763395D03*
X134375000Y-101825000D03*
X57373540Y-108755800D03*
X56974020Y-109731613D03*
X172475000Y-101725000D03*
X56574020Y-110725000D03*
X191675000Y-101925000D03*
X210675000Y-101825000D03*
X56275000Y-111725000D03*
X55828009Y-112618982D03*
X229675000Y-101825000D03*
D39*
X42674924Y-88224924D02*
X42375000Y-87925000D01*
X50925165Y-91824873D02*
X52595127Y-91824873D01*
X47175102Y-94375038D02*
X47175102Y-95825102D01*
X47045000Y-84795000D02*
X47045000Y-84005000D01*
D40*
X43235000Y-86905000D02*
X43255000Y-86925000D01*
D39*
X47175102Y-86125102D02*
X47175102Y-87274962D01*
X45075000Y-86225000D02*
X45175102Y-86325102D01*
X53900000Y-73005000D02*
X53580000Y-73325000D01*
X46775051Y-87274962D02*
X46775051Y-86124949D01*
X44775051Y-86225051D02*
X44775000Y-86225000D01*
X44673806Y-88224924D02*
X44875000Y-88426118D01*
D41*
X51675000Y-77025000D02*
X53580000Y-75120000D01*
D39*
X46975000Y-85925000D02*
X47175102Y-86125102D01*
X44075000Y-85725000D02*
X44175000Y-85625000D01*
X49225616Y-92674384D02*
X50075127Y-91824873D01*
X50925165Y-88224924D02*
X49978139Y-88224924D01*
D40*
X43235000Y-84925000D02*
X43235000Y-86905000D01*
D41*
X53580000Y-75120000D02*
X53580000Y-73325000D01*
D39*
X47925616Y-92674384D02*
X49225616Y-92674384D01*
X53580000Y-73325000D02*
X53580000Y-71410000D01*
X44875000Y-88426118D02*
X44875000Y-91725000D01*
X49978139Y-88224924D02*
X49785335Y-88417728D01*
X52375076Y-88224924D02*
X52575000Y-88025000D01*
D41*
X53525000Y-90475000D02*
X56325000Y-90475000D01*
D39*
X43824835Y-87494835D02*
X43255000Y-86925000D01*
X43824835Y-88224924D02*
X44673806Y-88224924D01*
X53580000Y-71410000D02*
X53575000Y-71405000D01*
X26075000Y-95225000D02*
X26075000Y-95915000D01*
D40*
X57625000Y-91485000D02*
X57625000Y-92562500D01*
D39*
X55075000Y-73005000D02*
X53900000Y-73005000D01*
D40*
X43555000Y-85625000D02*
X43255000Y-85925000D01*
D39*
X36775000Y-94725000D02*
X26575000Y-94725000D01*
D40*
X44175000Y-85625000D02*
X43555000Y-85625000D01*
D39*
X44775051Y-87274962D02*
X44775051Y-86225051D01*
D41*
X57837500Y-92775000D02*
X56325000Y-92775000D01*
D39*
X42975324Y-91925000D02*
X43075451Y-91824873D01*
D41*
X52615000Y-91805000D02*
X52615000Y-91385000D01*
D39*
X47175102Y-94375038D02*
X47175102Y-93424898D01*
X43075451Y-91824873D02*
X43824835Y-91824873D01*
X44875000Y-91725000D02*
X44775127Y-91824873D01*
X47275000Y-85025000D02*
X47045000Y-84795000D01*
X50925165Y-88224924D02*
X52375076Y-88224924D01*
X47175102Y-95825102D02*
X47375000Y-96025000D01*
D41*
X51675000Y-78525000D02*
X51675000Y-77025000D01*
D39*
X42005000Y-92055000D02*
X42135000Y-91925000D01*
X47375000Y-96025000D02*
X47375000Y-96825000D01*
X45175102Y-86325102D02*
X45175102Y-87274962D01*
D41*
X55675000Y-88025000D02*
X52575000Y-88025000D01*
D39*
X44075000Y-86625000D02*
X44075000Y-85725000D01*
X44775000Y-86225000D02*
X45075000Y-86225000D01*
X42135000Y-91925000D02*
X42975324Y-91925000D01*
X26575000Y-94725000D02*
X26075000Y-95225000D01*
D41*
X52615000Y-91385000D02*
X53525000Y-90475000D01*
X56325000Y-88675000D02*
X55675000Y-88025000D01*
D39*
X46975000Y-85325000D02*
X47275000Y-85025000D01*
D41*
X56325000Y-92775000D02*
X56325000Y-90475000D01*
D39*
X46975000Y-85925000D02*
X46975000Y-85325000D01*
X46775051Y-86124949D02*
X46975000Y-85925000D01*
D40*
X57625000Y-92562500D02*
X57837500Y-92775000D01*
X58700000Y-91480000D02*
X57630000Y-91480000D01*
D39*
X50075127Y-91824873D02*
X50925165Y-91824873D01*
X43824835Y-88224924D02*
X42674924Y-88224924D01*
X44775127Y-91824873D02*
X43824835Y-91824873D01*
X47175102Y-93424898D02*
X47925616Y-92674384D01*
X44175000Y-85625000D02*
X44775000Y-86225000D01*
X43824835Y-88224924D02*
X43824835Y-87494835D01*
D41*
X56325000Y-90475000D02*
X56325000Y-88675000D01*
D40*
X57630000Y-91480000D02*
X57625000Y-91485000D01*
D41*
X47575000Y-103425000D02*
X46775000Y-102625000D01*
D39*
X42275000Y-84925000D02*
X42275000Y-83925000D01*
X52575000Y-87065000D02*
X52575000Y-86325000D01*
X51325000Y-102925000D02*
X50775000Y-102375000D01*
X53595000Y-70425000D02*
X57075000Y-70425000D01*
X47175000Y-76325000D02*
X47175000Y-78625000D01*
X28575025Y-101825025D02*
X29325394Y-101825025D01*
D41*
X58700000Y-90520000D02*
X59650000Y-90520000D01*
D39*
X50775000Y-102025000D02*
X49625000Y-100875000D01*
X45635000Y-97785000D02*
X45475000Y-97625000D01*
D41*
X53475000Y-103425000D02*
X52975000Y-102925000D01*
D39*
X49770000Y-78620000D02*
X49675000Y-78525000D01*
X59700000Y-90570000D02*
X60530000Y-90570000D01*
X53575000Y-70445000D02*
X53575000Y-69325000D01*
X60625000Y-88975000D02*
X61175000Y-88425000D01*
X42275000Y-83925000D02*
X42175000Y-83825000D01*
X49770000Y-80525000D02*
X49770000Y-78620000D01*
X28155000Y-100125000D02*
X29275000Y-100125000D01*
X40190726Y-92055000D02*
X39712485Y-91576759D01*
X48585000Y-26525000D02*
X50175000Y-26525000D01*
D41*
X52675000Y-102825000D02*
X52575000Y-102925000D01*
X48675000Y-104525000D02*
X47575000Y-103425000D01*
D39*
X52275000Y-23325000D02*
X51275000Y-23325000D01*
X28155000Y-101405000D02*
X28575025Y-101825025D01*
D41*
X59650000Y-90520000D02*
X59700000Y-90570000D01*
D42*
X59225000Y-94675000D02*
X59375000Y-94825000D01*
D39*
X47975000Y-83345000D02*
X47975000Y-82425000D01*
X41775000Y-86925000D02*
X41419622Y-87280378D01*
X45225000Y-84665000D02*
X45225000Y-83775000D01*
X41275000Y-25125000D02*
X40275000Y-25125000D01*
X45225000Y-83775000D02*
X45175000Y-83725000D01*
D41*
X50915000Y-105565000D02*
X51175000Y-105825000D01*
X59700000Y-89187500D02*
X59487500Y-88975000D01*
X52275000Y-104725000D02*
X52275000Y-105825000D01*
D39*
X63674950Y-70426270D02*
X65773730Y-70426270D01*
X39165000Y-26725000D02*
X37675000Y-26725000D01*
X42295000Y-86925000D02*
X41775000Y-86925000D01*
X45075000Y-59825000D02*
X45075000Y-57525000D01*
X52575000Y-86325000D02*
X52775000Y-86125000D01*
D41*
X52575000Y-102925000D02*
X51325000Y-102925000D01*
X54275000Y-101425000D02*
X54275000Y-102625000D01*
D39*
X49775000Y-93125000D02*
X48776067Y-93125000D01*
X49625000Y-100725000D02*
X49625000Y-99815222D01*
D41*
X53475000Y-104725000D02*
X52275000Y-104725000D01*
D39*
X40275000Y-25125000D02*
X39175000Y-25125000D01*
D41*
X52675000Y-102205000D02*
X52675000Y-102825000D01*
D39*
X48875000Y-24325000D02*
X48592747Y-24042747D01*
D41*
X54275000Y-102625000D02*
X53475000Y-103425000D01*
D39*
X28155000Y-100125000D02*
X28155000Y-101405000D01*
X47345000Y-83345000D02*
X47975000Y-83345000D01*
X42295000Y-86925000D02*
X42295000Y-84945000D01*
X57075000Y-71825000D02*
X56775000Y-72125000D01*
D41*
X48675000Y-105825000D02*
X48675000Y-104625000D01*
D39*
X52275000Y-23325000D02*
X53275000Y-23325000D01*
X48776067Y-93125000D02*
X48375000Y-93526067D01*
X53575000Y-70445000D02*
X53595000Y-70425000D01*
X50775000Y-102375000D02*
X50775000Y-102025000D01*
D41*
X51175000Y-105825000D02*
X49975000Y-105825000D01*
D39*
X22575000Y-81370000D02*
X22575000Y-79025000D01*
D41*
X50915000Y-104495000D02*
X50915000Y-105565000D01*
D39*
X49625000Y-100875000D02*
X49625000Y-100725000D01*
D41*
X49975000Y-105825000D02*
X48675000Y-105825000D01*
D39*
X59487500Y-88975000D02*
X60625000Y-88975000D01*
X30375025Y-101825025D02*
X30575000Y-102025000D01*
D41*
X53475000Y-103425000D02*
X53475000Y-104725000D01*
X46775000Y-102625000D02*
X46775000Y-102325000D01*
D39*
X54555000Y-91805000D02*
X54575000Y-91825000D01*
X42295000Y-84945000D02*
X42275000Y-84925000D01*
X29325394Y-101825025D02*
X30375025Y-101825025D01*
X47075000Y-59825000D02*
X47075000Y-57525000D01*
X48375000Y-93526067D02*
X48375000Y-94375038D01*
X60530000Y-90570000D02*
X60575000Y-90525000D01*
X36675000Y-40525000D02*
X36675000Y-38225000D01*
X65773730Y-70426270D02*
X65775000Y-70425000D01*
X44175000Y-84665000D02*
X44175000Y-83725000D01*
D41*
X41892721Y-24507279D02*
X41275000Y-25125000D01*
D39*
X38775000Y-40525000D02*
X38775000Y-38225000D01*
X30374975Y-108424975D02*
X30675000Y-108725000D01*
D41*
X52975000Y-102925000D02*
X52575000Y-102925000D01*
D39*
X53575000Y-91805000D02*
X54555000Y-91805000D01*
X51275000Y-23325000D02*
X50275000Y-24325000D01*
X47045000Y-83045000D02*
X47345000Y-83345000D01*
D42*
X57837500Y-94675000D02*
X59225000Y-94675000D01*
D39*
X46375000Y-97785000D02*
X45635000Y-97785000D01*
X48592747Y-24042747D02*
X48592747Y-23577837D01*
X47375000Y-97785000D02*
X46375000Y-97785000D01*
D41*
X52275000Y-105825000D02*
X51175000Y-105825000D01*
X53075000Y-100225000D02*
X54275000Y-100225000D01*
D39*
X45075000Y-78625000D02*
X45075000Y-76325000D01*
D41*
X59700000Y-90570000D02*
X59700000Y-89187500D01*
D39*
X45475000Y-97625000D02*
X45475000Y-97125000D01*
D41*
X54275000Y-100225000D02*
X54275000Y-101425000D01*
X41892721Y-23577837D02*
X41892721Y-24507279D01*
D39*
X50275000Y-24325000D02*
X48875000Y-24325000D01*
D41*
X48675000Y-104625000D02*
X48675000Y-104525000D01*
D39*
X49625000Y-99815222D02*
X48954889Y-99145111D01*
X41045000Y-92055000D02*
X40190726Y-92055000D01*
X57075000Y-70425000D02*
X57075000Y-71825000D01*
X29324124Y-108424975D02*
X30374975Y-108424975D01*
D40*
X59712500Y-93725000D02*
X61650000Y-93725000D01*
X59700000Y-91530000D02*
X59700000Y-93712500D01*
X59700000Y-93712500D02*
X59712500Y-93725000D01*
X61650000Y-93725000D02*
X61712500Y-93787500D01*
D39*
X51845000Y-101245000D02*
X51325000Y-100725000D01*
X47974949Y-95224009D02*
X47974949Y-94375038D01*
X51325000Y-100525978D02*
X48574519Y-97775497D01*
X52675000Y-101245000D02*
X51845000Y-101245000D01*
X48574519Y-97775497D02*
X48574519Y-95823579D01*
X51325000Y-100725000D02*
X51325000Y-100525978D01*
X48574519Y-95823579D02*
X47974949Y-95224009D01*
X49955000Y-103255000D02*
X49625000Y-102925000D01*
X49955000Y-104495000D02*
X49955000Y-103255000D01*
X48175000Y-102445000D02*
X49145000Y-102445000D01*
X49145000Y-102445000D02*
X49625000Y-102925000D01*
X43408551Y-94723557D02*
X39148527Y-94723557D01*
X24271160Y-96921160D02*
X24271160Y-98721160D01*
X38947579Y-94722549D02*
X36560716Y-92335686D01*
X24285000Y-96935000D02*
X24271160Y-96921160D01*
X39148527Y-94723557D02*
X39147519Y-94722549D01*
X26075000Y-96935000D02*
X24285000Y-96935000D01*
X44309513Y-95624519D02*
X43408551Y-94723557D01*
X45008624Y-95624519D02*
X44309513Y-95624519D01*
X25084362Y-92335686D02*
X24271160Y-93148888D01*
X36560716Y-92335686D02*
X25084362Y-92335686D01*
X24271160Y-98721160D02*
X25624606Y-100074606D01*
X27195000Y-100125000D02*
X27195000Y-101505000D01*
X45575152Y-94375038D02*
X45575152Y-95388965D01*
X39147519Y-94722549D02*
X38947579Y-94722549D01*
X26874975Y-101825025D02*
X25624606Y-101825025D01*
X45339597Y-95624520D02*
X45008624Y-95624519D01*
X45575152Y-95388965D02*
X45339597Y-95624520D01*
X25624606Y-100074606D02*
X25624606Y-101825025D01*
X27195000Y-101505000D02*
X26874975Y-101825025D01*
X24271160Y-93148888D02*
X24271160Y-96921160D01*
X27375000Y-42225012D02*
X29974988Y-44825000D01*
X24075480Y-77690486D02*
X26009513Y-79624519D01*
X31675000Y-49025000D02*
X24075480Y-56624520D01*
X37324994Y-83275007D02*
X38276468Y-84226481D01*
X163950000Y-20375000D02*
X167525000Y-20375000D01*
X41279892Y-89824873D02*
X43824835Y-89824873D01*
X230625000Y-20375000D02*
X233525000Y-20375000D01*
X233525000Y-20375000D02*
X233575000Y-20325000D01*
X31874508Y-79624520D02*
X35524995Y-83275007D01*
X142518750Y-20375000D02*
X145525000Y-20375000D01*
X27375000Y-34425000D02*
X27375000Y-42225012D01*
X56793750Y-20375000D02*
X59525000Y-20375000D01*
X249675000Y-20375000D02*
X252525000Y-20375000D01*
X271525000Y-20375000D02*
X271575000Y-20325000D01*
X183000000Y-20375000D02*
X186425000Y-20375000D01*
X202050000Y-20375000D02*
X205525000Y-20375000D01*
X290475000Y-20325000D02*
X287825000Y-20325000D01*
X38375481Y-86920462D02*
X41279892Y-89824873D01*
X252525000Y-20375000D02*
X252575000Y-20325000D01*
X97525000Y-20375000D02*
X97575000Y-20325000D01*
X35524995Y-83275007D02*
X37324994Y-83275007D01*
X26009513Y-79624519D02*
X31874508Y-79624520D01*
X29975000Y-44825000D02*
X31675000Y-46525000D01*
X24075480Y-56624520D02*
X24075480Y-77690486D01*
X78525000Y-20375000D02*
X78575000Y-20325000D01*
X186425000Y-20375000D02*
X186575000Y-20225000D01*
X31575000Y-27325000D02*
X31575000Y-30225000D01*
X27975000Y-25425000D02*
X29675000Y-25425000D01*
X38276468Y-84226481D02*
X38276468Y-86821448D01*
X205525000Y-20375000D02*
X205575000Y-20325000D01*
X23525000Y-20375000D02*
X21075000Y-20375000D01*
X268725000Y-20375000D02*
X271525000Y-20375000D01*
X113943750Y-20375000D02*
X116525000Y-20375000D01*
X29974988Y-44825000D02*
X29975000Y-44825000D01*
X116525000Y-20375000D02*
X116575000Y-20325000D01*
X94893750Y-20375000D02*
X97525000Y-20375000D01*
X31575000Y-30225000D02*
X27375000Y-34425000D01*
X23575000Y-20325000D02*
X23575000Y-21025000D01*
X75843750Y-20375000D02*
X78525000Y-20375000D01*
X29675000Y-25425000D02*
X31575000Y-27325000D01*
X38276468Y-86821448D02*
X38375481Y-86920462D01*
X167525000Y-20375000D02*
X167575000Y-20325000D01*
X145525000Y-20375000D02*
X145575000Y-20425000D01*
X31675000Y-46525000D02*
X31675000Y-49025000D01*
X23575000Y-20325000D02*
X23525000Y-20375000D01*
X23575000Y-21025000D02*
X27975000Y-25425000D01*
X59525000Y-20375000D02*
X59575000Y-20325000D01*
X287825000Y-20325000D02*
X287775000Y-20375000D01*
X21075000Y-23675000D02*
X21075000Y-25620000D01*
X21075000Y-25620000D02*
X21490000Y-26035000D01*
X56793750Y-23675000D02*
X56793750Y-25620000D01*
X56793750Y-25620000D02*
X57208750Y-26035000D01*
X75843750Y-25620000D02*
X76258750Y-26035000D01*
X75843750Y-23675000D02*
X75843750Y-25620000D01*
X94893750Y-25620000D02*
X95308750Y-26035000D01*
X94893750Y-23675000D02*
X94893750Y-25620000D01*
X113943750Y-23675000D02*
X113943750Y-25620000D01*
X113943750Y-25620000D02*
X114358750Y-26035000D01*
X142518750Y-25620000D02*
X142933750Y-26035000D01*
X142518750Y-23675000D02*
X142518750Y-25620000D01*
X163950000Y-23675000D02*
X163950000Y-25620000D01*
X163950000Y-25620000D02*
X164365000Y-26035000D01*
X183000000Y-25620000D02*
X183415000Y-26035000D01*
X183000000Y-23675000D02*
X183000000Y-25620000D01*
X202050000Y-25620000D02*
X202465000Y-26035000D01*
X202050000Y-23675000D02*
X202050000Y-25620000D01*
X230625000Y-25620000D02*
X231040000Y-26035000D01*
X230625000Y-23675000D02*
X230625000Y-25620000D01*
X249675000Y-25620000D02*
X250090000Y-26035000D01*
X249675000Y-23675000D02*
X249675000Y-25620000D01*
X268725000Y-25620000D02*
X269140000Y-26035000D01*
X268725000Y-23675000D02*
X268725000Y-25620000D01*
X287775000Y-23675000D02*
X287775000Y-25620000D01*
X287775000Y-25620000D02*
X288190000Y-26035000D01*
X230625000Y-39425000D02*
X233575000Y-39425000D01*
X31275480Y-48859514D02*
X23675960Y-56459034D01*
X26175000Y-87925000D02*
X26990006Y-88740006D01*
X26975481Y-42390487D02*
X31275480Y-46690486D01*
X78225000Y-39425000D02*
X81575000Y-39425000D01*
X26990006Y-88740006D02*
X39559994Y-88740006D01*
X211575000Y-39425000D02*
X214675000Y-39425000D01*
X97275000Y-39425000D02*
X100575000Y-39425000D01*
X41044912Y-90224924D02*
X43824835Y-90224924D01*
X119475000Y-39425000D02*
X116325000Y-39425000D01*
X154425000Y-39425000D02*
X157575000Y-39425000D01*
X23475000Y-39425000D02*
X23575000Y-39525000D01*
X252575000Y-39425000D02*
X249675000Y-39425000D01*
X26975481Y-40925481D02*
X26975481Y-42390487D01*
X21075000Y-39425000D02*
X23475000Y-39425000D01*
X280975000Y-39425000D02*
X278250000Y-39425000D01*
X62575000Y-39425000D02*
X59175000Y-39425000D01*
X173475000Y-39425000D02*
X176575000Y-39425000D01*
X24475000Y-40425000D02*
X26475000Y-40425000D01*
X26475000Y-40425000D02*
X26975481Y-40925481D01*
X42575000Y-39425000D02*
X40125000Y-39425000D01*
X23675960Y-56459034D02*
X23675960Y-77855972D01*
X26175000Y-80355012D02*
X26175000Y-87925000D01*
X135375000Y-39425000D02*
X138575000Y-39425000D01*
X39559994Y-88740006D02*
X41044912Y-90224924D01*
X23675960Y-77855972D02*
X26175000Y-80355012D01*
X23575000Y-39525000D02*
X24475000Y-40425000D01*
X192525000Y-39425000D02*
X195475000Y-39425000D01*
X31275480Y-46690486D02*
X31275480Y-48859514D01*
X59175000Y-44670000D02*
X59590000Y-45085000D01*
X59175000Y-42725000D02*
X59175000Y-44670000D01*
X78225000Y-44670000D02*
X78640000Y-45085000D01*
X78225000Y-42725000D02*
X78225000Y-44670000D01*
X97275000Y-44670000D02*
X97690000Y-45085000D01*
X97275000Y-42725000D02*
X97275000Y-44670000D01*
X116325000Y-44670000D02*
X116740000Y-45085000D01*
X116325000Y-42725000D02*
X116325000Y-44670000D01*
X135375000Y-42725000D02*
X135375000Y-44670000D01*
X135375000Y-44670000D02*
X135790000Y-45085000D01*
X154425000Y-44670000D02*
X154840000Y-45085000D01*
X154425000Y-42725000D02*
X154425000Y-44670000D01*
X173475000Y-44670000D02*
X173890000Y-45085000D01*
X173475000Y-42725000D02*
X173475000Y-44670000D01*
X192525000Y-42725000D02*
X192525000Y-44670000D01*
X192525000Y-44670000D02*
X192940000Y-45085000D01*
X211575000Y-42725000D02*
X211575000Y-44670000D01*
X211575000Y-44670000D02*
X211990000Y-45085000D01*
X230625000Y-44670000D02*
X231040000Y-45085000D01*
X230625000Y-42725000D02*
X230625000Y-44670000D01*
X249675000Y-42725000D02*
X249675000Y-44670000D01*
X249675000Y-44670000D02*
X250090000Y-45085000D01*
X278250000Y-44670000D02*
X278665000Y-45085000D01*
X278250000Y-42725000D02*
X278250000Y-44670000D01*
X25837500Y-61775000D02*
X25837500Y-63720000D01*
X25837500Y-63720000D02*
X26252500Y-64135000D01*
X49650000Y-63720000D02*
X50065000Y-64135000D01*
X49650000Y-61775000D02*
X49650000Y-63720000D01*
X21075000Y-42725000D02*
X21075000Y-44670000D01*
X21075000Y-44670000D02*
X21490000Y-45085000D01*
X28475000Y-58525000D02*
X28425000Y-58475000D01*
X109425000Y-58475000D02*
X109475000Y-58525000D01*
X283062500Y-58525000D02*
X283012500Y-58475000D01*
X68700000Y-58475000D02*
X71725000Y-58475000D01*
X38675979Y-86655966D02*
X38675979Y-84060986D01*
X28425000Y-58475000D02*
X25837500Y-58475000D01*
X243625000Y-58475000D02*
X243675000Y-58525000D01*
X183000000Y-58475000D02*
X185525000Y-58475000D01*
X262425000Y-58475000D02*
X262475000Y-58525000D01*
X106800000Y-58475000D02*
X109425000Y-58475000D01*
X26175000Y-79225000D02*
X24475000Y-77525000D01*
X38675979Y-84060986D02*
X37440482Y-82825489D01*
X285875000Y-58525000D02*
X283062500Y-58525000D01*
X90625000Y-58475000D02*
X90675000Y-58525000D01*
X204625000Y-58475000D02*
X204675000Y-58525000D01*
X259200000Y-58475000D02*
X262425000Y-58475000D01*
X52725000Y-58475000D02*
X52775000Y-58525000D01*
X147525000Y-58475000D02*
X147575000Y-58425000D01*
X163950000Y-58475000D02*
X166625000Y-58475000D01*
X128525000Y-58475000D02*
X128575000Y-58525000D01*
X35640483Y-82825489D02*
X32039994Y-79225000D01*
X37440482Y-82825489D02*
X35640483Y-82825489D01*
X202050000Y-58475000D02*
X204625000Y-58475000D01*
X24475000Y-59687500D02*
X25687500Y-58475000D01*
X25687500Y-58475000D02*
X25837500Y-58475000D01*
X87750000Y-58475000D02*
X90625000Y-58475000D01*
X41445088Y-89425076D02*
X38675979Y-86655966D01*
X221100000Y-58475000D02*
X223825000Y-58475000D01*
X32039994Y-79225000D02*
X26175000Y-79225000D01*
X125850000Y-58475000D02*
X128525000Y-58475000D01*
X185525000Y-58475000D02*
X185575000Y-58525000D01*
X223825000Y-58475000D02*
X223875000Y-58525000D01*
X24475000Y-77525000D02*
X24475000Y-59687500D01*
X240150000Y-58475000D02*
X243625000Y-58475000D01*
X144900000Y-58475000D02*
X147525000Y-58475000D01*
X49650000Y-58475000D02*
X52725000Y-58475000D01*
X71725000Y-58475000D02*
X71775000Y-58525000D01*
X43824835Y-89425076D02*
X41445088Y-89425076D01*
X166625000Y-58475000D02*
X166675000Y-58525000D01*
X87750000Y-63720000D02*
X88165000Y-64135000D01*
X87750000Y-61775000D02*
X87750000Y-63720000D01*
X106800000Y-61775000D02*
X106800000Y-63720000D01*
X106800000Y-63720000D02*
X107215000Y-64135000D01*
X125850000Y-61775000D02*
X125850000Y-63720000D01*
X125850000Y-63720000D02*
X126265000Y-64135000D01*
X144900000Y-61775000D02*
X144900000Y-63720000D01*
X144900000Y-63720000D02*
X145315000Y-64135000D01*
X163950000Y-63720000D02*
X164365000Y-64135000D01*
X163950000Y-61775000D02*
X163950000Y-63720000D01*
X183000000Y-61775000D02*
X183000000Y-63720000D01*
X183000000Y-63720000D02*
X183415000Y-64135000D01*
X202050000Y-61775000D02*
X202050000Y-63720000D01*
X202050000Y-63720000D02*
X202465000Y-64135000D01*
X221100000Y-61775000D02*
X221100000Y-63720000D01*
X221100000Y-63720000D02*
X221515000Y-64135000D01*
X240150000Y-63720000D02*
X240565000Y-64135000D01*
X240150000Y-61775000D02*
X240150000Y-63720000D01*
X259200000Y-61775000D02*
X259200000Y-63720000D01*
X259200000Y-63720000D02*
X259615000Y-64135000D01*
X283012500Y-63720000D02*
X283427500Y-64135000D01*
X283012500Y-61775000D02*
X283012500Y-63720000D01*
X28218750Y-82770000D02*
X28633750Y-83185000D01*
X28218750Y-80825000D02*
X28218750Y-82770000D01*
X55325000Y-82687500D02*
X54827500Y-83185000D01*
X55325000Y-77225000D02*
X55325000Y-82687500D01*
X73462500Y-80825000D02*
X73462500Y-82770000D01*
X73462500Y-82770000D02*
X73877500Y-83185000D01*
X40125000Y-42725000D02*
X40125000Y-44670000D01*
X40125000Y-44670000D02*
X40540000Y-45085000D01*
X30875000Y-77525000D02*
X30904988Y-77525000D01*
X278875000Y-77525000D02*
X275868750Y-77525000D01*
X187762500Y-77525000D02*
X190675000Y-77525000D01*
X225862500Y-77525000D02*
X228575000Y-77525000D01*
X28218750Y-77525000D02*
X30875000Y-77525000D01*
X92512500Y-77525000D02*
X95575000Y-77525000D01*
X228575000Y-77525000D02*
X228675000Y-77625000D01*
X39075490Y-86490484D02*
X41610031Y-89025025D01*
X149662500Y-77525000D02*
X152675000Y-77525000D01*
X168712500Y-77525000D02*
X171575000Y-77525000D01*
X244912500Y-77525000D02*
X247675000Y-77525000D01*
X35805967Y-82425979D02*
X37605966Y-82425979D01*
X30904988Y-77525000D02*
X35805967Y-82425979D01*
X130612500Y-77525000D02*
X133575000Y-77525000D01*
X206812500Y-77525000D02*
X209675000Y-77525000D01*
X58625000Y-77225000D02*
X58625000Y-75975000D01*
X111562500Y-77525000D02*
X114675000Y-77525000D01*
X58625000Y-75975000D02*
X59175000Y-75425000D01*
X73462500Y-77525000D02*
X76575000Y-77525000D01*
X41610031Y-89025025D02*
X43824835Y-89025025D01*
X37605966Y-82425979D02*
X39075489Y-83895502D01*
X39075489Y-83895502D02*
X39075490Y-86490484D01*
X111562500Y-82770000D02*
X111977500Y-83185000D01*
X111562500Y-80825000D02*
X111562500Y-82770000D01*
X130612500Y-82770000D02*
X131027500Y-83185000D01*
X130612500Y-80825000D02*
X130612500Y-82770000D01*
X149662500Y-80825000D02*
X149662500Y-82770000D01*
X149662500Y-82770000D02*
X150077500Y-83185000D01*
X168712500Y-82770000D02*
X169127500Y-83185000D01*
X168712500Y-80825000D02*
X168712500Y-82770000D01*
X187762500Y-82770000D02*
X188177500Y-83185000D01*
X187762500Y-80825000D02*
X187762500Y-82770000D01*
X206812500Y-80825000D02*
X206812500Y-82770000D01*
X206812500Y-82770000D02*
X207227500Y-83185000D01*
X225862500Y-82770000D02*
X226277500Y-83185000D01*
X225862500Y-80825000D02*
X225862500Y-82770000D01*
X244912500Y-80825000D02*
X244912500Y-82770000D01*
X244912500Y-82770000D02*
X245327500Y-83185000D01*
X275868750Y-82770000D02*
X276283750Y-83185000D01*
X275868750Y-80825000D02*
X275868750Y-82770000D01*
X32981250Y-101820000D02*
X33396250Y-102235000D01*
X32981250Y-99875000D02*
X32981250Y-101820000D01*
X63937500Y-101820000D02*
X64352500Y-102235000D01*
X63937500Y-99875000D02*
X63937500Y-101820000D01*
X82987500Y-99875000D02*
X82987500Y-101820000D01*
X82987500Y-101820000D02*
X83402500Y-102235000D01*
X102037500Y-99875000D02*
X102037500Y-101820000D01*
X102037500Y-101820000D02*
X102452500Y-102235000D01*
X85625000Y-96575000D02*
X85675000Y-96625000D01*
X121087500Y-96575000D02*
X123625000Y-96575000D01*
X48775051Y-95425051D02*
X48875000Y-95525000D01*
X159187500Y-96575000D02*
X161725000Y-96575000D01*
X200625000Y-96575000D02*
X200675000Y-96525000D01*
X140137500Y-96575000D02*
X142625000Y-96575000D01*
X197287500Y-96575000D02*
X200625000Y-96575000D01*
X48775051Y-94375038D02*
X48775051Y-95425051D01*
X272175000Y-96725000D02*
X272025000Y-96575000D01*
X63937500Y-96575000D02*
X66825000Y-96575000D01*
X235387500Y-96575000D02*
X238625000Y-96575000D01*
X82987500Y-96575000D02*
X85625000Y-96575000D01*
X178237500Y-96575000D02*
X180725000Y-96575000D01*
X35025000Y-96575000D02*
X32981250Y-96575000D01*
X66825000Y-96575000D02*
X66875000Y-96625000D01*
X216337500Y-96575000D02*
X219625000Y-96575000D01*
X123625000Y-96575000D02*
X123675000Y-96525000D01*
X49175000Y-95825000D02*
X49175000Y-96325000D01*
X272025000Y-96575000D02*
X268725000Y-96575000D01*
X102037500Y-96575000D02*
X104625000Y-96575000D01*
X35075000Y-96625000D02*
X35025000Y-96575000D01*
X142625000Y-96575000D02*
X142675000Y-96625000D01*
X104625000Y-96575000D02*
X104675000Y-96525000D01*
X238625000Y-96575000D02*
X238675000Y-96625000D01*
X48875000Y-95525000D02*
X49175000Y-95825000D01*
X161725000Y-96575000D02*
X161775000Y-96625000D01*
X219625000Y-96575000D02*
X219675000Y-96625000D01*
X180725000Y-96575000D02*
X180775000Y-96625000D01*
X49175000Y-96325000D02*
X50175000Y-97325000D01*
X121087500Y-99875000D02*
X121087500Y-101820000D01*
X121087500Y-101820000D02*
X121502500Y-102235000D01*
X140137500Y-101820000D02*
X140552500Y-102235000D01*
X140137500Y-99875000D02*
X140137500Y-101820000D01*
X159187500Y-99875000D02*
X159187500Y-101820000D01*
X159187500Y-101820000D02*
X159602500Y-102235000D01*
X178237500Y-101820000D02*
X178652500Y-102235000D01*
X178237500Y-99875000D02*
X178237500Y-101820000D01*
X197287500Y-99875000D02*
X197287500Y-101820000D01*
X197287500Y-101820000D02*
X197702500Y-102235000D01*
X216337500Y-99875000D02*
X216337500Y-101820000D01*
X216337500Y-101820000D02*
X216752500Y-102235000D01*
X235387500Y-99875000D02*
X235387500Y-101820000D01*
X235387500Y-101820000D02*
X235802500Y-102235000D01*
X268725000Y-99875000D02*
X268725000Y-101820000D01*
X268725000Y-101820000D02*
X269140000Y-102235000D01*
X21075000Y-118925000D02*
X21075000Y-120870000D01*
X21075000Y-120870000D02*
X21490000Y-121285000D01*
X40125000Y-120870000D02*
X40540000Y-121285000D01*
X40125000Y-118925000D02*
X40125000Y-120870000D01*
X59175000Y-118925000D02*
X59175000Y-120870000D01*
X59175000Y-120870000D02*
X59590000Y-121285000D01*
X68700000Y-63720000D02*
X69115000Y-64135000D01*
X68700000Y-61775000D02*
X68700000Y-63720000D01*
X152043750Y-118925000D02*
X152043750Y-120870000D01*
X152043750Y-120870000D02*
X152458750Y-121285000D01*
X152043750Y-115625000D02*
X155375000Y-115625000D01*
X59175000Y-115625000D02*
X62175998Y-115625000D01*
X21075000Y-115625000D02*
X23475000Y-115625000D01*
X21040492Y-111890526D02*
X21040486Y-111890533D01*
X80606250Y-115625000D02*
X83875998Y-115625000D01*
X23760474Y-89139526D02*
X21075000Y-91825000D01*
X40125000Y-115625000D02*
X42975000Y-115625000D01*
X21040486Y-111890533D02*
X21052256Y-112043463D01*
X83875998Y-115625000D02*
X84075499Y-115425499D01*
X43824835Y-90624975D02*
X40879957Y-90624975D01*
X21040491Y-111890518D02*
X21040492Y-111890526D01*
X21075000Y-112339139D02*
X21075000Y-115625000D01*
X62175998Y-115625000D02*
X62375499Y-115425499D01*
X21075000Y-91825000D02*
X21075000Y-111850258D01*
X290575000Y-115625000D02*
X287775000Y-115625000D01*
X223481250Y-115625000D02*
X226675000Y-115625000D01*
X249675000Y-115625000D02*
X253475000Y-115625000D01*
X268725000Y-115625000D02*
X271975000Y-115625000D01*
X21052256Y-112043463D02*
X21075000Y-112339139D01*
X21075000Y-111850258D02*
X21040491Y-111890518D01*
X42975000Y-115625000D02*
X43174501Y-115425499D01*
X40879957Y-90624975D02*
X39394508Y-89139526D01*
X39394508Y-89139526D02*
X23760474Y-89139526D01*
X223481250Y-118925000D02*
X223481250Y-120870000D01*
X223481250Y-120870000D02*
X223896250Y-121285000D01*
X249675000Y-118925000D02*
X249675000Y-120870000D01*
X249675000Y-120870000D02*
X250090000Y-121285000D01*
X268725000Y-120870000D02*
X269140000Y-121285000D01*
X268725000Y-118925000D02*
X268725000Y-120870000D01*
X287775000Y-120870000D02*
X288190000Y-121285000D01*
X287775000Y-118925000D02*
X287775000Y-120870000D01*
X92512500Y-82770000D02*
X92927500Y-83185000D01*
X92512500Y-80825000D02*
X92512500Y-82770000D01*
X57625000Y-90465000D02*
X57625000Y-88987500D01*
X57625000Y-88987500D02*
X57612500Y-88975000D01*
X80606250Y-118925000D02*
X80606250Y-120870000D01*
X80606250Y-120870000D02*
X81021250Y-121285000D01*
D41*
X51675000Y-29887500D02*
X51725000Y-29937500D01*
X51675000Y-28325000D02*
X51675000Y-29887500D01*
D39*
X57075000Y-75225000D02*
X57075000Y-74125788D01*
X56085000Y-75425000D02*
X56875000Y-75425000D01*
X56875000Y-75425000D02*
X57075000Y-75225000D01*
X46375540Y-82624460D02*
X46775000Y-82225000D01*
X46375540Y-87325540D02*
X46375540Y-82624460D01*
X46775000Y-82225000D02*
X46775000Y-81875000D01*
X45974949Y-82674949D02*
X45175000Y-81875000D01*
X45974949Y-87274962D02*
X45974949Y-82674949D01*
D42*
X42692823Y-23577837D02*
X42692823Y-23077837D01*
D40*
X51675000Y-25025000D02*
X48040913Y-25025000D01*
X47693261Y-24677348D02*
X47693261Y-23577837D01*
D42*
X43939410Y-21831250D02*
X46562500Y-21831250D01*
X46562500Y-21831250D02*
X47492670Y-22761420D01*
D40*
X48040913Y-25025000D02*
X47693261Y-24677348D01*
D42*
X42692823Y-23077837D02*
X43939410Y-21831250D01*
X47492670Y-22761420D02*
X47492670Y-23577837D01*
D39*
X47974501Y-84825499D02*
X47974501Y-85314744D01*
X46775051Y-94375038D02*
X46775051Y-95924949D01*
X46573984Y-93325000D02*
X46775051Y-93526067D01*
X46375000Y-96325000D02*
X46375000Y-96825000D01*
X45875000Y-88325000D02*
X47374086Y-88325000D01*
X45775000Y-88225000D02*
X45375000Y-88625000D01*
X47575152Y-88123934D02*
X47575152Y-87274962D01*
X45375000Y-88625000D02*
X45375000Y-92525000D01*
X45775000Y-88225000D02*
X45875000Y-88325000D01*
X47974501Y-85314744D02*
X47575152Y-85714093D01*
X47374086Y-88325000D02*
X47575152Y-88123934D01*
X47975000Y-84305000D02*
X47975000Y-84825000D01*
X47575152Y-85714093D02*
X47575152Y-87274962D01*
X45575152Y-88025152D02*
X45775000Y-88225000D01*
X46775051Y-95924949D02*
X46375000Y-96325000D01*
X47975000Y-84825000D02*
X47974501Y-84825499D01*
X46775051Y-93526067D02*
X46775051Y-94375038D01*
X46175000Y-93325000D02*
X46573984Y-93325000D01*
X45575152Y-87274962D02*
X45575152Y-85975152D01*
X45575152Y-85975152D02*
X45225000Y-85625000D01*
X45375000Y-92525000D02*
X46175000Y-93325000D01*
X45575152Y-87274962D02*
X45575152Y-88025152D01*
D43*
X62675000Y-88725000D02*
X61712500Y-89687500D01*
X61712500Y-89687500D02*
X61712500Y-91662500D01*
X64975000Y-84625000D02*
X64975000Y-88025000D01*
X47475000Y-43425000D02*
X50775000Y-46725000D01*
X51725000Y-35975000D02*
X47475000Y-40225000D01*
X60275000Y-65625000D02*
X60275000Y-79925000D01*
X50775000Y-51125000D02*
X56375000Y-56725000D01*
X64275000Y-88725000D02*
X62675000Y-88725000D01*
X47475000Y-40225000D02*
X47475000Y-43425000D01*
X56375000Y-61725000D02*
X60275000Y-65625000D01*
X50775000Y-46725000D02*
X50775000Y-51125000D01*
X60275000Y-79925000D02*
X64975000Y-84625000D01*
X56375000Y-56725000D02*
X56375000Y-61725000D01*
X64975000Y-88025000D02*
X64275000Y-88725000D01*
X51725000Y-31812500D02*
X51725000Y-35975000D01*
D39*
X43775000Y-96225000D02*
X43975000Y-96425000D01*
X43975000Y-96425000D02*
X45669128Y-96425000D01*
X45669128Y-96425000D02*
X46375000Y-95719128D01*
X29218038Y-93381962D02*
X36477006Y-93381962D01*
X28975000Y-93625000D02*
X29218038Y-93381962D01*
X43077581Y-95522599D02*
X43775000Y-96220018D01*
X46375000Y-95719128D02*
X46375000Y-94375038D01*
X43775000Y-96220018D02*
X43775000Y-96225000D01*
X36477006Y-93381962D02*
X38617643Y-95522599D01*
X38617643Y-95522599D02*
X43077581Y-95522599D01*
X45505082Y-96024040D02*
X44144026Y-96024038D01*
X45974949Y-95554173D02*
X45505082Y-96024040D01*
X45974949Y-94375038D02*
X45974949Y-95554173D01*
X44144026Y-96024038D02*
X43243067Y-95123079D01*
X38982022Y-95122058D02*
X38782094Y-95122058D01*
X43243067Y-95123079D02*
X38983043Y-95123079D01*
X28264794Y-92735206D02*
X27275000Y-93725000D01*
X36395242Y-92735206D02*
X28264794Y-92735206D01*
X38782094Y-95122058D02*
X36395242Y-92735206D01*
X38983043Y-95123079D02*
X38982022Y-95122058D01*
X47575430Y-95389496D02*
X47575429Y-94525000D01*
X48175000Y-101425000D02*
X48175000Y-95989066D01*
X48175000Y-95989066D02*
X47575430Y-95389496D01*
X45475000Y-24693750D02*
X45543750Y-24693750D01*
X45992797Y-24476732D02*
X45775779Y-24693750D01*
X37900000Y-46431800D02*
X46300001Y-54831801D01*
X46300001Y-54831801D02*
X46300001Y-79750001D01*
X45610009Y-26708191D02*
X37900000Y-34418200D01*
X45775779Y-24693750D02*
X45475000Y-24693750D01*
X44992797Y-24476986D02*
X44992797Y-23577837D01*
X46300001Y-79750001D02*
X46775000Y-80225000D01*
X45475000Y-24693750D02*
X45209561Y-24693750D01*
X45610009Y-24760009D02*
X45610009Y-26708191D01*
X45209561Y-24693750D02*
X44992797Y-24476986D01*
X45992797Y-23577837D02*
X45992797Y-24476732D01*
X37900000Y-34418200D02*
X37900000Y-46431800D01*
X45543750Y-24693750D02*
X45610009Y-24760009D01*
X45262500Y-22431250D02*
X45492670Y-22661420D01*
X44740362Y-22431250D02*
X45262500Y-22431250D01*
X45160009Y-25310009D02*
X45160009Y-26521791D01*
X44492670Y-24642670D02*
X45160009Y-25310009D01*
X45492670Y-22661420D02*
X45492670Y-23577837D01*
X45849999Y-79550001D02*
X45175000Y-80225000D01*
X44492670Y-23577837D02*
X44492670Y-24642670D01*
X45849999Y-55018199D02*
X45849999Y-79550001D01*
X44492670Y-22678942D02*
X44740362Y-22431250D01*
X37450000Y-46618200D02*
X45849999Y-55018199D01*
X37450000Y-34231800D02*
X37450000Y-46618200D01*
X44492670Y-23577837D02*
X44492670Y-22678942D01*
X45160009Y-26521791D02*
X37450000Y-34231800D01*
X53580000Y-76420000D02*
X53580000Y-80525000D01*
X53580000Y-81120000D02*
X53580000Y-80525000D01*
X51575000Y-86015000D02*
X52875000Y-84715000D01*
X49974949Y-87274962D02*
X50315038Y-87274962D01*
X50315038Y-87274962D02*
X51575000Y-86015000D01*
X52875000Y-81825000D02*
X53580000Y-81120000D01*
X55065000Y-75425000D02*
X54575000Y-75425000D01*
X55065000Y-74035000D02*
X55075000Y-74025000D01*
X54575000Y-75425000D02*
X53580000Y-76420000D01*
X52875000Y-84715000D02*
X52875000Y-81825000D01*
X55065000Y-75425000D02*
X55065000Y-74035000D01*
X46992797Y-24476478D02*
X46575000Y-24894275D01*
X46575000Y-26075000D02*
X47025000Y-26525000D01*
X46575000Y-24894275D02*
X46575000Y-26075000D01*
X46992797Y-23577837D02*
X46992797Y-24476478D01*
X47025000Y-26525000D02*
X47565000Y-26525000D01*
X43992797Y-24607203D02*
X41875000Y-26725000D01*
X41875000Y-26725000D02*
X40185000Y-26725000D01*
X43992797Y-23577837D02*
X43992797Y-24607203D01*
X34417000Y-42545000D02*
X34475000Y-42487000D01*
X34417000Y-118745000D02*
X34429413Y-118745000D01*
X41774975Y-88624975D02*
X39475000Y-86325000D01*
X34429413Y-118745000D02*
X43675000Y-109499413D01*
X35875000Y-46625000D02*
X34417000Y-45167000D01*
X39475000Y-84325000D02*
X41125000Y-82675000D01*
X34275000Y-23637000D02*
X34417000Y-23495000D01*
X37375000Y-97225000D02*
X43853250Y-97225000D01*
X34475000Y-42487000D02*
X34475000Y-31425000D01*
X35675000Y-30225000D02*
X35675000Y-27325000D01*
X35975500Y-95825500D02*
X37375000Y-97225000D01*
X39179500Y-56229500D02*
X35875000Y-52925000D01*
X34417000Y-45167000D02*
X34417000Y-42545000D01*
X34275000Y-25925000D02*
X34275000Y-23637000D01*
X43824835Y-88624975D02*
X41774975Y-88624975D01*
X43853250Y-97225000D02*
X46323250Y-99695000D01*
X41560750Y-80645000D02*
X41560750Y-66910750D01*
X39179500Y-61595000D02*
X39179500Y-56229500D01*
X43675000Y-109499413D02*
X43675000Y-102343250D01*
X34475000Y-31425000D02*
X35675000Y-30225000D01*
X39475000Y-86325000D02*
X39475000Y-84325000D01*
X43675000Y-102343250D02*
X46323250Y-99695000D01*
X35975000Y-95825500D02*
X35975500Y-95825500D01*
X41125000Y-82675000D02*
X41125000Y-81080750D01*
X41560750Y-66910750D02*
X39179500Y-64529500D01*
X39179500Y-64529500D02*
X39179500Y-61595000D01*
X41125000Y-81080750D02*
X41560750Y-80645000D01*
X35875000Y-52925000D02*
X35875000Y-46625000D01*
X35675000Y-27325000D02*
X34275000Y-25925000D01*
X67754500Y-68804500D02*
X67754500Y-80645000D01*
X71375000Y-32625000D02*
X68775000Y-35225000D01*
X23871640Y-92983402D02*
X23871640Y-109221640D01*
X53467000Y-117233000D02*
X53467000Y-118745000D01*
X35275000Y-121125000D02*
X35275000Y-121994988D01*
X35682559Y-122402547D02*
X35682559Y-126460011D01*
X36726190Y-91936166D02*
X24918876Y-91936166D01*
X24775000Y-110125000D02*
X29275000Y-110125000D01*
X62075000Y-108625000D02*
X53467000Y-117233000D01*
X43574039Y-94324039D02*
X39314014Y-94324038D01*
X68975000Y-81865500D02*
X68975000Y-88925000D01*
X44475000Y-95225000D02*
X43574039Y-94324039D01*
X39313016Y-94323040D02*
X39113064Y-94323040D01*
X50975000Y-121237000D02*
X53467000Y-118745000D01*
X37350482Y-128127934D02*
X49772066Y-128127934D01*
X53467000Y-39633000D02*
X53467000Y-42545000D01*
X57875000Y-35225000D02*
X53467000Y-39633000D01*
X50975000Y-126925000D02*
X50975000Y-121237000D01*
X53467000Y-42545000D02*
X53467000Y-45117000D01*
X62992000Y-61595000D02*
X62992000Y-64042000D01*
X68975000Y-88925000D02*
X62075000Y-95825000D01*
X29275000Y-110125000D02*
X35275000Y-116125000D01*
X53467000Y-45117000D02*
X62992000Y-54642000D01*
X45175102Y-94375038D02*
X45175102Y-95224009D01*
X67754500Y-80645000D02*
X68975000Y-81865500D01*
X45175102Y-95224009D02*
X45174111Y-95225000D01*
X35682559Y-126460011D02*
X37350482Y-128127934D01*
X35275000Y-121994988D02*
X35682559Y-122402547D01*
X24918876Y-91936166D02*
X23871640Y-92983402D01*
X39314014Y-94324038D02*
X39313016Y-94323040D01*
X39113064Y-94323040D02*
X36726190Y-91936166D01*
X62075000Y-95825000D02*
X62075000Y-108625000D01*
X62992000Y-54642000D02*
X62992000Y-61595000D01*
X70135750Y-23495000D02*
X71375000Y-24734250D01*
X23871640Y-109221640D02*
X24775000Y-110125000D01*
X45174111Y-95225000D02*
X44475000Y-95225000D01*
X62992000Y-64042000D02*
X67754500Y-68804500D01*
X68775000Y-35225000D02*
X57875000Y-35225000D01*
X49772066Y-128127934D02*
X50975000Y-126925000D01*
X71375000Y-24734250D02*
X71375000Y-32625000D01*
X78142021Y-100557521D02*
X78142021Y-108257979D01*
X35283040Y-122568034D02*
X35283040Y-126625486D01*
X35283040Y-126625486D02*
X37184999Y-128527445D01*
X24753390Y-91536646D02*
X23472120Y-92817916D01*
X86975000Y-88425000D02*
X83775000Y-88425000D01*
X82042000Y-54492000D02*
X82042000Y-61595000D01*
X86804500Y-80645000D02*
X86775000Y-80674500D01*
X76575000Y-35325000D02*
X72517000Y-39383000D01*
X72517000Y-39383000D02*
X72517000Y-42545000D01*
X23472120Y-111797088D02*
X27100531Y-115425499D01*
X77279500Y-99695000D02*
X78142021Y-100557521D01*
X36891664Y-91536646D02*
X24753390Y-91536646D01*
X86775000Y-80674500D02*
X86775000Y-83225000D01*
X27100531Y-115425499D02*
X33575996Y-115425499D01*
X72517000Y-42545000D02*
X72517000Y-44967000D01*
X34274503Y-121125000D02*
X34274503Y-121559497D01*
X39479501Y-93924519D02*
X39478513Y-93923531D01*
X44324532Y-93924519D02*
X39479501Y-93924519D01*
X72517000Y-44967000D02*
X82042000Y-54492000D01*
X38810492Y-93455471D02*
X36891664Y-91536646D01*
X87975000Y-84425000D02*
X87975000Y-87425000D01*
X33575996Y-115425499D02*
X34275497Y-116125000D01*
X67972555Y-128527445D02*
X69875000Y-126625000D01*
X23472120Y-92817916D02*
X23472120Y-111797088D01*
X39278545Y-93923529D02*
X38810492Y-93455471D01*
X34274503Y-121559497D02*
X35283040Y-122568034D01*
X78142021Y-108257979D02*
X72517000Y-113883000D01*
X90375000Y-24684250D02*
X90375000Y-32325000D01*
X90375000Y-32325000D02*
X87375000Y-35325000D01*
X82042000Y-63892000D02*
X86804500Y-68654500D01*
X89185750Y-23495000D02*
X90375000Y-24684250D01*
X44775051Y-94375038D02*
X44324532Y-93924519D01*
X37184999Y-128527445D02*
X67972555Y-128527445D01*
X69875000Y-121387000D02*
X72517000Y-118745000D01*
X77279500Y-94920500D02*
X77279500Y-99695000D01*
X86775000Y-83225000D02*
X87975000Y-84425000D01*
X39478513Y-93923531D02*
X39278545Y-93923529D01*
X86804500Y-68654500D02*
X86804500Y-80645000D01*
X69875000Y-126625000D02*
X69875000Y-121387000D01*
X72517000Y-113883000D02*
X72517000Y-118745000D01*
X82042000Y-61595000D02*
X82042000Y-63892000D01*
X87975000Y-87425000D02*
X86975000Y-88425000D01*
X87375000Y-35325000D02*
X76575000Y-35325000D01*
X83775000Y-88425000D02*
X77279500Y-94920500D01*
X93948250Y-118745000D02*
X93948250Y-113051750D01*
X96329500Y-99695000D02*
X96329500Y-95570500D01*
X109675000Y-32625000D02*
X109675000Y-24934250D01*
X27235026Y-116125000D02*
X33275000Y-116125000D01*
X108275000Y-78224500D02*
X108275000Y-70425000D01*
X43305774Y-93425076D02*
X43206811Y-93524039D01*
X39210004Y-93289990D02*
X37057138Y-91137126D01*
X91567000Y-45217000D02*
X91567000Y-42545000D01*
X107175000Y-87425000D02*
X107175000Y-84025000D01*
X39644009Y-93524021D02*
X39444031Y-93524020D01*
X43824835Y-93425076D02*
X43305774Y-93425076D01*
X39444031Y-93524020D02*
X39210004Y-93289990D01*
X97275000Y-100640500D02*
X96329500Y-99695000D01*
X89174964Y-128926956D02*
X91075000Y-127026920D01*
X96329500Y-95570500D02*
X103475000Y-88425000D01*
X42875352Y-93524511D02*
X42774528Y-93524510D01*
X42774038Y-93525000D02*
X39644988Y-93525000D01*
X101092000Y-63242000D02*
X101092000Y-61595000D01*
X107175000Y-84025000D02*
X105875000Y-82725000D01*
X34875000Y-124342392D02*
X34875000Y-126782440D01*
X103475000Y-88425000D02*
X106175000Y-88425000D01*
X93948250Y-113051750D02*
X97275000Y-109725000D01*
X24371222Y-113261196D02*
X27235026Y-116125000D01*
X91075000Y-121618250D02*
X93948250Y-118745000D01*
X106175000Y-88425000D02*
X107175000Y-87425000D01*
X91567000Y-42545000D02*
X91567000Y-38233000D01*
X34883520Y-124333872D02*
X34875000Y-124342392D01*
X24371172Y-113261196D02*
X24371222Y-113261196D01*
X34883520Y-122733520D02*
X34883520Y-124333872D01*
X94375000Y-35425000D02*
X106875000Y-35425000D01*
X105875000Y-80665500D02*
X105854500Y-80645000D01*
X37057138Y-91137126D02*
X24587904Y-91137126D01*
X43206811Y-93524039D02*
X42875826Y-93524038D01*
X42774528Y-93524510D02*
X42774038Y-93525000D01*
X34875000Y-126782440D02*
X37019516Y-128926956D01*
X24587904Y-91137126D02*
X23072600Y-92652430D01*
X105875000Y-82725000D02*
X105875000Y-80665500D01*
X108275000Y-70425000D02*
X101092000Y-63242000D01*
X37019516Y-128926956D02*
X89174964Y-128926956D01*
X105854500Y-80645000D02*
X108275000Y-78224500D01*
X33275000Y-121125000D02*
X34883520Y-122733520D01*
X101092000Y-61595000D02*
X101092000Y-54742000D01*
X39644988Y-93525000D02*
X39644009Y-93524021D01*
X23072600Y-111962624D02*
X24371172Y-113261196D01*
X101092000Y-54742000D02*
X91567000Y-45217000D01*
X91075000Y-127026920D02*
X91075000Y-121618250D01*
X109675000Y-24934250D02*
X108235750Y-23495000D01*
X23072600Y-92652430D02*
X23072600Y-111962624D01*
X97275000Y-109725000D02*
X97275000Y-100640500D01*
X91567000Y-38233000D02*
X94375000Y-35425000D01*
X42875826Y-93524038D02*
X42875352Y-93524511D01*
X106875000Y-35425000D02*
X109675000Y-32625000D01*
X124904500Y-68954500D02*
X124904500Y-80645000D01*
X110617000Y-37883000D02*
X110617000Y-42545000D01*
X128148271Y-24357521D02*
X128148271Y-32651729D01*
X110617000Y-45067000D02*
X120142000Y-54592000D01*
X115375000Y-101925000D02*
X115375000Y-99699500D01*
X124975000Y-80715500D02*
X124975000Y-82525000D01*
X57472560Y-97297530D02*
X57473079Y-97298049D01*
X115375000Y-99699500D02*
X115379500Y-99695000D01*
X120142000Y-61595000D02*
X120142000Y-64192000D01*
X113075000Y-35425000D02*
X110617000Y-37883000D01*
X124904500Y-80645000D02*
X124975000Y-80715500D01*
X57472558Y-97097604D02*
X57472562Y-97097608D01*
X126275000Y-83825000D02*
X126275000Y-86625000D01*
X125375000Y-35425000D02*
X113075000Y-35425000D01*
X53199937Y-92624975D02*
X57472558Y-96897596D01*
X57475000Y-97626921D02*
X57475000Y-107465335D01*
X120142000Y-54592000D02*
X120142000Y-61595000D01*
X50925165Y-92624975D02*
X53199937Y-92624975D01*
X115379500Y-94820500D02*
X115379500Y-99695000D01*
X128148271Y-32651729D02*
X125375000Y-35425000D01*
X110617000Y-42545000D02*
X110617000Y-45067000D01*
X124275000Y-88625000D02*
X121575000Y-88625000D01*
X124975000Y-82525000D02*
X126275000Y-83825000D01*
X120142000Y-64192000D02*
X124904500Y-68954500D01*
X121575000Y-88625000D02*
X115379500Y-94820500D01*
X127285750Y-23495000D02*
X128148271Y-24357521D01*
X57475000Y-107465335D02*
X57773060Y-107763395D01*
X57472558Y-96897596D02*
X57472558Y-97097604D01*
X57473079Y-97298049D02*
X57473079Y-97625000D01*
X57472562Y-97097608D02*
X57472560Y-97297530D01*
X126275000Y-86625000D02*
X124275000Y-88625000D01*
X57473079Y-97625000D02*
X57475000Y-97626921D01*
X57073043Y-97263077D02*
X57073048Y-97263082D01*
X57073048Y-97263082D02*
X57073046Y-97363078D01*
X139192000Y-61595000D02*
X139192000Y-54442000D01*
X57073560Y-97463536D02*
X57073560Y-108455820D01*
X154475000Y-35725000D02*
X156723271Y-33476729D01*
X143954500Y-83004500D02*
X143954500Y-80645000D01*
X141575000Y-88025000D02*
X143975000Y-88025000D01*
X143954500Y-68504500D02*
X139192000Y-63742000D01*
X145475000Y-86525000D02*
X145475000Y-84525000D01*
X143954500Y-80645000D02*
X143954500Y-68504500D01*
X57073048Y-97363080D02*
X57073047Y-97463023D01*
X139192000Y-54442000D02*
X129667000Y-44917000D01*
X134375000Y-101825000D02*
X134375000Y-99749500D01*
X57073047Y-97463023D02*
X57073560Y-97463536D01*
X134429500Y-95170500D02*
X141575000Y-88025000D01*
X57073044Y-97063074D02*
X57073043Y-97263077D01*
X129667000Y-44917000D02*
X129667000Y-42545000D01*
X156723271Y-24357521D02*
X155860750Y-23495000D01*
X156723271Y-33476729D02*
X156723271Y-24357521D01*
X145475000Y-84525000D02*
X143954500Y-83004500D01*
X143975000Y-88025000D02*
X145475000Y-86525000D01*
X129667000Y-42545000D02*
X129667000Y-39633000D01*
X53034995Y-93025025D02*
X57073044Y-97063074D01*
X57073046Y-97363078D02*
X57073048Y-97363080D01*
X134375000Y-99749500D02*
X134429500Y-99695000D01*
X139192000Y-63742000D02*
X139192000Y-61595000D01*
X134429500Y-99695000D02*
X134429500Y-95170500D01*
X129667000Y-39633000D02*
X133575000Y-35725000D01*
X133575000Y-35725000D02*
X154475000Y-35725000D01*
X57073560Y-108455820D02*
X57373540Y-108755800D01*
X50925165Y-93025025D02*
X53034995Y-93025025D01*
X163004500Y-80645000D02*
X163075000Y-80715500D01*
X165385750Y-113735750D02*
X165385750Y-118745000D01*
X34375960Y-126848393D02*
X36854033Y-129326467D01*
X43041325Y-93124519D02*
X39809525Y-93124519D01*
X43824835Y-93025025D02*
X43140819Y-93025025D01*
X158242000Y-61595000D02*
X158242000Y-63892000D01*
X30396884Y-120623525D02*
X30621017Y-120623525D01*
X153479500Y-99695000D02*
X153479500Y-101829500D01*
X162775000Y-126325000D02*
X162775000Y-121355750D01*
X158242000Y-63892000D02*
X163004500Y-68654500D01*
X106280017Y-126925000D02*
X162175000Y-126925000D01*
X30396876Y-120623517D02*
X30396884Y-120623525D01*
X30376041Y-120623517D02*
X30396876Y-120623517D01*
X103878550Y-129326467D02*
X106280017Y-126925000D01*
X160575000Y-87925000D02*
X153479500Y-95020500D01*
X153479500Y-95020500D02*
X153479500Y-99695000D01*
X163175000Y-87925000D02*
X160575000Y-87925000D01*
X39809525Y-93124519D02*
X39809517Y-93124511D01*
X37222613Y-90737607D02*
X24422417Y-90737607D01*
X28273533Y-119123532D02*
X29422952Y-120272947D01*
X24422417Y-90737607D02*
X22673081Y-92486943D01*
X34375960Y-126848358D02*
X34375960Y-126848393D01*
X32374022Y-122376532D02*
X32374022Y-124846420D01*
X30326589Y-120613220D02*
X30360035Y-120610179D01*
X162175000Y-126925000D02*
X162775000Y-126325000D01*
X164675000Y-84725000D02*
X164675000Y-86425000D01*
X28273533Y-117728514D02*
X28273533Y-119123532D01*
X30621017Y-120623525D02*
X32374022Y-122376532D01*
X148717000Y-44967000D02*
X158242000Y-54492000D01*
X39809517Y-93124511D02*
X39609516Y-93124510D01*
X163004500Y-68654500D02*
X163004500Y-80645000D01*
X39609516Y-93124510D02*
X39375489Y-92890482D01*
X24205697Y-113660715D02*
X24205734Y-113660715D01*
X29422952Y-120272947D02*
X29575123Y-120272948D01*
X24205734Y-113660715D02*
X28273533Y-117728514D01*
X30360035Y-120610179D02*
X30376041Y-120623517D01*
X163075000Y-80715500D02*
X163075000Y-83125000D01*
X22673080Y-112128098D02*
X24205697Y-113660715D01*
X164675000Y-86425000D02*
X163175000Y-87925000D01*
X29575123Y-120272948D02*
X29986318Y-120272949D01*
X39375489Y-92890482D02*
X37222613Y-90737607D01*
X158242000Y-54492000D02*
X158242000Y-61595000D01*
X153479500Y-101829500D02*
X165385750Y-113735750D01*
X162775000Y-121355750D02*
X165385750Y-118745000D01*
X32374022Y-124846420D02*
X34375960Y-126848358D01*
X36854033Y-129326467D02*
X103878550Y-129326467D01*
X29986318Y-120272949D02*
X30326589Y-120613220D01*
X163075000Y-83125000D02*
X164675000Y-84725000D01*
X43140819Y-93025025D02*
X43041325Y-93124519D01*
X148717000Y-42545000D02*
X148717000Y-44967000D01*
X22673081Y-92486943D02*
X22673080Y-112128098D01*
X50925165Y-93425076D02*
X52870054Y-93425076D01*
X182075000Y-80665500D02*
X182054500Y-80645000D01*
X56673535Y-97528558D02*
X56673534Y-97628516D01*
X177292000Y-64342000D02*
X177292000Y-61595000D01*
X179525000Y-88375000D02*
X182225000Y-88375000D01*
X172475000Y-99749500D02*
X172529500Y-99695000D01*
X172529500Y-99695000D02*
X172529500Y-95370500D01*
X167767000Y-45317000D02*
X167767000Y-42545000D01*
X178154521Y-24357521D02*
X177292000Y-23495000D01*
X178154521Y-33045479D02*
X178154521Y-24357521D01*
X172475000Y-101725000D02*
X172475000Y-99749500D01*
X183775000Y-86825000D02*
X183775000Y-84525000D01*
X175575000Y-35625000D02*
X178154521Y-33045479D01*
X56673533Y-97228555D02*
X56673532Y-97528555D01*
X56674040Y-97629022D02*
X56674040Y-109431633D01*
X167767000Y-42545000D02*
X167767000Y-38233000D01*
X167767000Y-38233000D02*
X170375000Y-35625000D01*
X183775000Y-84525000D02*
X182075000Y-82825000D01*
X177292000Y-61595000D02*
X177292000Y-54842000D01*
X56673534Y-97628516D02*
X56674040Y-97629022D01*
X172529500Y-95370500D02*
X179525000Y-88375000D01*
X177292000Y-54842000D02*
X167767000Y-45317000D01*
X182054500Y-80645000D02*
X182054500Y-69104500D01*
X182054500Y-69104500D02*
X177292000Y-64342000D01*
X52870054Y-93425076D02*
X56673533Y-97228555D01*
X182075000Y-82825000D02*
X182075000Y-80665500D01*
X56673532Y-97528555D02*
X56673535Y-97528558D01*
X170375000Y-35625000D02*
X175575000Y-35625000D01*
X56674040Y-109431633D02*
X56974020Y-109731613D01*
X182225000Y-88375000D02*
X183775000Y-86825000D01*
X186817000Y-37583000D02*
X186817000Y-42545000D01*
X53255024Y-94375038D02*
X56274022Y-97394036D01*
X202975000Y-87025000D02*
X201675000Y-88325000D01*
X196342000Y-23495000D02*
X197204521Y-24357521D01*
X49974949Y-94375038D02*
X53255024Y-94375038D01*
X56274021Y-97794009D02*
X56274039Y-97794027D01*
X197204521Y-32795479D02*
X194475000Y-35525000D01*
X186817000Y-45367000D02*
X196342000Y-54892000D01*
X56274022Y-97394036D02*
X56274021Y-97794009D01*
X202975000Y-85125000D02*
X202975000Y-87025000D01*
X196342000Y-54892000D02*
X196342000Y-61595000D01*
X186817000Y-42545000D02*
X186817000Y-45367000D01*
X201104500Y-69054500D02*
X201104500Y-80645000D01*
X197204521Y-24357521D02*
X197204521Y-32795479D01*
X191579500Y-95120500D02*
X191579500Y-99695000D01*
X194475000Y-35525000D02*
X188875000Y-35525000D01*
X191675000Y-101925000D02*
X191675000Y-99790500D01*
X56274039Y-97794027D02*
X56274039Y-97925000D01*
X196342000Y-61595000D02*
X196342000Y-64292000D01*
X56274039Y-97925000D02*
X56274520Y-97925481D01*
X188875000Y-35525000D02*
X186817000Y-37583000D01*
X201104500Y-83254500D02*
X202975000Y-85125000D01*
X201104500Y-80645000D02*
X201104500Y-83254500D01*
X198375000Y-88325000D02*
X191579500Y-95120500D01*
X56274520Y-110425500D02*
X56574020Y-110725000D01*
X201675000Y-88325000D02*
X198375000Y-88325000D01*
X196342000Y-64292000D02*
X201104500Y-69054500D01*
X191675000Y-99790500D02*
X191579500Y-99695000D01*
X56274520Y-97925481D02*
X56274520Y-110425500D01*
X215392000Y-61595000D02*
X215392000Y-54042000D01*
X220154500Y-83104500D02*
X220154500Y-80645000D01*
X205867000Y-42545000D02*
X205867000Y-39433000D01*
X216375000Y-24478000D02*
X215392000Y-23495000D01*
X220154500Y-80645000D02*
X222675000Y-78124500D01*
X49575152Y-95059054D02*
X49841587Y-95325489D01*
X55874520Y-97959514D02*
X55874520Y-111324520D01*
X213675000Y-35725000D02*
X216375000Y-33025000D01*
X55874511Y-97959505D02*
X55874520Y-97959514D01*
X205867000Y-44517000D02*
X205867000Y-42545000D01*
X55874511Y-97559518D02*
X55874511Y-97959505D01*
X210629500Y-99695000D02*
X210629500Y-94670500D01*
X222275000Y-87325000D02*
X222275000Y-85225000D01*
X49841587Y-95325489D02*
X53640482Y-95325489D01*
X210675000Y-99740500D02*
X210629500Y-99695000D01*
X49575152Y-94375038D02*
X49575152Y-95059054D01*
X215392000Y-54042000D02*
X205867000Y-44517000D01*
X55874520Y-111324520D02*
X56275000Y-111725000D01*
X53640482Y-95325489D02*
X55874511Y-97559518D01*
X222275000Y-85225000D02*
X220154500Y-83104500D01*
X222675000Y-70525000D02*
X215392000Y-63242000D01*
X215392000Y-63242000D02*
X215392000Y-61595000D01*
X216775000Y-88525000D02*
X221075000Y-88525000D01*
X210629500Y-94670500D02*
X216775000Y-88525000D01*
X216375000Y-33025000D02*
X216375000Y-24478000D01*
X209575000Y-35725000D02*
X213675000Y-35725000D01*
X205867000Y-39433000D02*
X209575000Y-35725000D01*
X221075000Y-88525000D02*
X222275000Y-87325000D01*
X210675000Y-101825000D02*
X210675000Y-99740500D01*
X222675000Y-78124500D02*
X222675000Y-70525000D01*
X229679500Y-95420500D02*
X229679500Y-99695000D01*
X244829521Y-32870479D02*
X241975000Y-35725000D01*
X229679500Y-101829500D02*
X236823250Y-108973250D01*
X234442000Y-61595000D02*
X234442000Y-64292000D01*
X236475000Y-88625000D02*
X229679500Y-95420500D01*
X239204500Y-80645000D02*
X239204500Y-83154500D01*
X236823250Y-108973250D02*
X236823250Y-118745000D01*
X244829521Y-24357521D02*
X244829521Y-32870479D01*
X240175000Y-88625000D02*
X236475000Y-88625000D01*
X49175102Y-95224010D02*
X49175102Y-94375038D01*
X234442000Y-54592000D02*
X234442000Y-61595000D01*
X241975000Y-35725000D02*
X229475000Y-35725000D01*
X241175000Y-85125000D02*
X241175000Y-87625000D01*
X241175000Y-87625000D02*
X240175000Y-88625000D01*
X234442000Y-64292000D02*
X239204500Y-69054500D01*
X243967000Y-23495000D02*
X244829521Y-24357521D01*
X55475000Y-112265973D02*
X55475000Y-97725000D01*
X49676092Y-95725000D02*
X49175102Y-95224010D01*
X229475000Y-35725000D02*
X224917000Y-40283000D01*
X53475000Y-95725000D02*
X49676092Y-95725000D01*
X239204500Y-69054500D02*
X239204500Y-80645000D01*
X229679500Y-99695000D02*
X229679500Y-101829500D01*
X239204500Y-83154500D02*
X241175000Y-85125000D01*
X224917000Y-45067000D02*
X234442000Y-54592000D01*
X55475000Y-97725000D02*
X53475000Y-95725000D01*
X55828009Y-112618982D02*
X55475000Y-112265973D01*
X224917000Y-42545000D02*
X224917000Y-45067000D01*
X224917000Y-40283000D02*
X224917000Y-42545000D01*
X243967000Y-38333000D02*
X246675000Y-35625000D01*
X263017000Y-116967000D02*
X248729500Y-102679500D01*
X27874022Y-117894035D02*
X27874023Y-119289016D01*
X248729500Y-95270500D02*
X255375000Y-88625000D01*
X248729500Y-99695000D02*
X248729500Y-95270500D01*
X258675000Y-88625000D02*
X260075000Y-87225000D01*
X260075000Y-87225000D02*
X260075000Y-84525000D01*
X24256944Y-90338086D02*
X22273570Y-92321460D01*
X30171412Y-121023037D02*
X30455535Y-121023037D01*
X27874023Y-119289016D02*
X29257469Y-120672458D01*
X258254500Y-69004500D02*
X253492000Y-64242000D01*
X30455535Y-121023037D02*
X31974511Y-122542014D01*
X42975863Y-92624975D02*
X42875838Y-92725000D01*
X39775000Y-92725000D02*
X37388086Y-90338086D01*
X259075000Y-127325000D02*
X260075000Y-126325000D01*
X255375000Y-88625000D02*
X258675000Y-88625000D01*
X263975000Y-24453000D02*
X263017000Y-23495000D01*
X258254500Y-80645000D02*
X258254500Y-69004500D01*
X43824835Y-92624975D02*
X42975863Y-92624975D01*
X113104034Y-127325978D02*
X113105012Y-127325000D01*
X253492000Y-53842000D02*
X243967000Y-44317000D01*
X31974511Y-122542014D02*
X31974511Y-125011938D01*
X29820834Y-120672459D02*
X30171412Y-121023037D01*
X104044034Y-129725977D02*
X106444036Y-127325978D01*
X243967000Y-42545000D02*
X243967000Y-38333000D01*
X260075000Y-121687000D02*
X263017000Y-118745000D01*
X258254500Y-82704500D02*
X258254500Y-80645000D01*
X260075000Y-126325000D02*
X260075000Y-121687000D01*
X246675000Y-35625000D02*
X260575000Y-35625000D01*
X263017000Y-118745000D02*
X263017000Y-116967000D01*
X42875838Y-92725000D02*
X39775000Y-92725000D01*
X253492000Y-61595000D02*
X253492000Y-53842000D01*
X253492000Y-64242000D02*
X253492000Y-61595000D01*
X29257469Y-120672458D02*
X29820834Y-120672459D01*
X36688551Y-129725978D02*
X104044034Y-129725977D01*
X113105012Y-127325000D02*
X259075000Y-127325000D01*
X248729500Y-102679500D02*
X248729500Y-99695000D01*
X243967000Y-44317000D02*
X243967000Y-42545000D01*
X260075000Y-84525000D02*
X258254500Y-82704500D01*
X263975000Y-32225000D02*
X263975000Y-24453000D01*
X22273570Y-112293583D02*
X27874022Y-117894035D01*
X260575000Y-35625000D02*
X263975000Y-32225000D01*
X37388086Y-90338086D02*
X24256944Y-90338086D01*
X106444036Y-127325978D02*
X113104034Y-127325978D01*
X22273570Y-92321460D02*
X22273570Y-112293583D01*
X31974511Y-125011938D02*
X36688551Y-129725978D01*
X21874040Y-92155972D02*
X21874040Y-112145814D01*
X30102788Y-121435895D02*
X30118784Y-121449224D01*
X272542000Y-59992000D02*
X272542000Y-61595000D01*
X21874059Y-112459065D02*
X21874059Y-112459078D01*
X36523069Y-130125489D02*
X104209517Y-130125489D01*
X104209517Y-130125489D02*
X106609518Y-127725489D01*
X39063536Y-89938566D02*
X24091446Y-89938566D01*
X289210750Y-80645000D02*
X289210750Y-82960750D01*
X22358294Y-112943311D02*
X22360570Y-112966069D01*
X264975000Y-52425000D02*
X272542000Y-59992000D01*
X29628975Y-121071969D02*
X29787225Y-121203844D01*
X106609518Y-127725489D02*
X113269529Y-127725489D01*
X284675000Y-109125000D02*
X282175000Y-111625000D01*
X21887928Y-112489230D02*
X22001914Y-112586932D01*
X22360570Y-112966069D02*
X22473223Y-113058240D01*
X263017000Y-42545000D02*
X263075000Y-42603000D01*
X265675000Y-35525000D02*
X263017000Y-38183000D01*
X22576149Y-113161165D02*
X22576159Y-113161165D01*
X282175000Y-118637000D02*
X282067000Y-118745000D01*
X263017000Y-38183000D02*
X263017000Y-42545000D01*
X263075000Y-44825000D02*
X264975000Y-46725000D01*
X29787225Y-121203844D02*
X30005928Y-121422547D01*
X284675000Y-105425000D02*
X284675000Y-109125000D01*
X282067000Y-23495000D02*
X283475000Y-24903000D01*
X40550046Y-91425076D02*
X39063536Y-89938566D01*
X291375000Y-87425000D02*
X290175000Y-88625000D01*
X272542000Y-61595000D02*
X272845000Y-61595000D01*
X279675000Y-35525000D02*
X265675000Y-35525000D01*
X30049657Y-121422547D02*
X30069295Y-121438915D01*
X30069295Y-121438915D02*
X30069331Y-121438912D01*
X31575000Y-122707496D02*
X31575000Y-125177410D01*
X113269529Y-127725489D02*
X113270498Y-127724520D01*
X21862543Y-112159227D02*
X21874040Y-112308687D01*
X30069361Y-121438937D02*
X30102788Y-121435895D01*
X33576920Y-127179342D02*
X36523069Y-130125489D01*
X278275480Y-127724520D02*
X279475000Y-126525000D01*
X283475000Y-24903000D02*
X283475000Y-31725000D01*
X30118784Y-121449224D02*
X30300230Y-121432726D01*
X22576159Y-113161165D02*
X27474511Y-118059517D01*
X282067000Y-99695000D02*
X282175000Y-99803000D01*
X27474513Y-119454500D02*
X29091986Y-121071969D01*
X21886571Y-112471590D02*
X21887928Y-112489230D01*
X21874040Y-112308687D02*
X21874040Y-112459046D01*
X272845000Y-61595000D02*
X289210750Y-77960750D01*
X21874059Y-112459078D02*
X21886571Y-112471590D01*
X282175000Y-99803000D02*
X282175000Y-102925000D01*
X30005928Y-121422547D02*
X30049657Y-121422547D01*
X283475000Y-31725000D02*
X279675000Y-35525000D01*
X290175000Y-88625000D02*
X288775000Y-88625000D01*
X33576920Y-127179330D02*
X33576920Y-127179342D01*
X22473223Y-113058240D02*
X22576149Y-113161165D01*
X27474511Y-118059517D02*
X27474513Y-119454500D01*
X29091986Y-121071969D02*
X29628975Y-121071969D01*
X264975000Y-46725000D02*
X264975000Y-52425000D01*
X22001914Y-112586932D02*
X22358294Y-112943311D01*
X21874040Y-112459046D02*
X21874059Y-112459065D01*
X263075000Y-42603000D02*
X263075000Y-44825000D01*
X30300230Y-121432726D02*
X31575000Y-122707496D01*
X21874040Y-112145814D02*
X21862543Y-112159227D01*
X282175000Y-111625000D02*
X282175000Y-118637000D01*
X282067000Y-95333000D02*
X282067000Y-99695000D01*
X282175000Y-102925000D02*
X284675000Y-105425000D01*
X113270498Y-127724520D02*
X278275480Y-127724520D01*
X279475000Y-126525000D02*
X279475000Y-121337000D01*
X43824835Y-91425076D02*
X40550046Y-91425076D01*
X289210750Y-77960750D02*
X289210750Y-80645000D01*
X279475000Y-121337000D02*
X282067000Y-118745000D01*
X31575000Y-125177410D02*
X33576920Y-127179330D01*
X30069331Y-121438912D02*
X30069361Y-121438937D01*
X291375000Y-85125000D02*
X291375000Y-87425000D01*
X289210750Y-82960750D02*
X291375000Y-85125000D01*
X288775000Y-88625000D02*
X282067000Y-95333000D01*
X24091446Y-89938566D02*
X21874040Y-92155972D01*
X296354500Y-59345500D02*
X294975000Y-57966000D01*
X31175000Y-122925000D02*
X31175000Y-125342416D01*
X106775000Y-128125000D02*
X297075000Y-128125000D01*
X29974177Y-121848761D02*
X29990158Y-121862079D01*
X29990164Y-121862078D02*
X29990166Y-121862080D01*
X296354500Y-61595000D02*
X296354500Y-59345500D01*
X296445000Y-61595000D02*
X296354500Y-61595000D01*
X29937563Y-121850789D02*
X29939292Y-121850645D01*
X21474521Y-112624533D02*
X21499573Y-112649585D01*
X298730479Y-33269521D02*
X298730479Y-27969521D01*
X30101917Y-121851917D02*
X31175000Y-122925000D01*
X298475000Y-121387000D02*
X301117000Y-118745000D01*
X21979508Y-113170483D02*
X21979510Y-113170486D01*
X43824835Y-91025025D02*
X40715001Y-91025025D01*
X298730479Y-27969521D02*
X301117000Y-25583000D01*
X29940727Y-121851789D02*
X29940750Y-121851787D01*
X21730269Y-112880281D02*
X21974958Y-113124970D01*
X21502287Y-112684868D02*
X21730269Y-112880281D01*
X294975000Y-57966000D02*
X294975000Y-47925000D01*
X21474520Y-91990486D02*
X21474521Y-111998033D01*
X301117000Y-118745000D02*
X302975000Y-116887000D01*
X298475000Y-126725000D02*
X298475000Y-121387000D01*
X29840446Y-121822058D02*
X29903608Y-121822058D01*
X301117000Y-25583000D02*
X301117000Y-23495000D01*
X302975000Y-116887000D02*
X302975000Y-68125000D01*
X27075002Y-119619984D02*
X28926504Y-121471480D01*
X23925960Y-89539046D02*
X21474520Y-91990486D01*
X297075000Y-128125000D02*
X298475000Y-126725000D01*
X21974958Y-113124970D02*
X21979508Y-113170483D01*
X294975000Y-47925000D02*
X291592000Y-44542000D01*
X22204809Y-113354821D02*
X27074991Y-118225003D01*
X29940624Y-121851755D02*
X29940680Y-121851750D01*
X291592000Y-42545000D02*
X291592000Y-40408000D01*
X302975000Y-68125000D02*
X296445000Y-61595000D01*
X40715001Y-91025025D02*
X39229022Y-89539046D01*
X29990166Y-121862080D02*
X30101917Y-121851917D01*
X21474521Y-112323932D02*
X21474521Y-112624533D01*
X29903608Y-121822058D02*
X29937563Y-121850789D01*
X27074991Y-119619972D02*
X27075002Y-119619984D01*
X21979510Y-113170486D02*
X22204809Y-113354821D01*
X29484330Y-121471479D02*
X29517553Y-121499164D01*
X39229022Y-89539046D02*
X23925960Y-89539046D01*
X21451517Y-112024873D02*
X21474521Y-112323932D01*
X29940680Y-121851750D02*
X29940727Y-121851789D01*
X21474521Y-111998033D02*
X21451517Y-112024873D01*
X29940768Y-121851802D02*
X29974177Y-121848761D01*
X29517553Y-121499164D02*
X29840446Y-121822058D01*
X104375001Y-130524999D02*
X106775000Y-128125000D01*
X36357584Y-130525000D02*
X104375001Y-130524999D01*
X29939292Y-121850645D02*
X29940624Y-121851755D01*
X21499573Y-112649585D02*
X21502287Y-112684868D01*
X31175000Y-125342416D02*
X36357584Y-130525000D01*
X29940750Y-121851787D02*
X29940768Y-121851802D01*
X28926504Y-121471480D02*
X29484330Y-121471479D01*
X29990158Y-121862079D02*
X29990164Y-121862078D01*
X291592000Y-40408000D02*
X298730479Y-33269521D01*
X27074991Y-118225003D02*
X27074991Y-119619972D01*
X291592000Y-44542000D02*
X291592000Y-42545000D01*
X48959994Y-82309994D02*
X48175000Y-81525000D01*
X49375000Y-71025000D02*
X51375000Y-71025000D01*
X47974949Y-85879290D02*
X48374012Y-85480226D01*
X47974949Y-87274962D02*
X47974949Y-85879290D01*
X51375000Y-71025000D02*
X52310000Y-71960000D01*
X48374012Y-85480226D02*
X48374012Y-85060982D01*
X48175000Y-81525000D02*
X48175000Y-72225000D01*
X48175000Y-72225000D02*
X49375000Y-71025000D01*
X48374012Y-85060982D02*
X48959994Y-84475000D01*
X52310000Y-71960000D02*
X52310000Y-73325000D01*
X48959994Y-84475000D02*
X48959994Y-82309994D01*
X48375000Y-86044233D02*
X48773523Y-85645708D01*
X48375000Y-87274962D02*
X48375000Y-86044233D01*
X49575000Y-81765717D02*
X48875499Y-81066216D01*
X48875499Y-81066216D02*
X48875499Y-72724501D01*
X48773523Y-85645708D02*
X48773523Y-85243974D01*
X48875499Y-72724501D02*
X49775000Y-71825000D01*
X49775000Y-71825000D02*
X50575000Y-71825000D01*
X51040000Y-72290000D02*
X51040000Y-73325000D01*
X50575000Y-71825000D02*
X51040000Y-72290000D01*
X48773523Y-85243974D02*
X49575000Y-84442497D01*
X49575000Y-84442497D02*
X49575000Y-81765717D01*
X48775051Y-86209176D02*
X50369520Y-84614707D01*
X50374501Y-73929501D02*
X49770000Y-73325000D01*
X50369520Y-84614707D02*
X50369520Y-78819725D01*
X50374501Y-78814744D02*
X50374501Y-73929501D01*
X48775051Y-87274962D02*
X48775051Y-86209176D01*
X50369520Y-78819725D02*
X50374501Y-78814744D01*
X49175102Y-86374118D02*
X51040000Y-84509220D01*
X51040000Y-84509220D02*
X51040000Y-80525000D01*
X49175102Y-87274962D02*
X49175102Y-86374118D01*
X49575152Y-86539061D02*
X52310000Y-83804213D01*
X52310000Y-83804213D02*
X52310000Y-80525000D01*
X49575152Y-87274962D02*
X49575152Y-86539061D01*
M02*
