%TF.GenerationSoftware,KiCad,Pcbnew,(6.0.5-0)*%
%TF.CreationDate,2022-06-28T22:26:50+09:00*%
%TF.ProjectId,key-ripper,6b65792d-7269-4707-9065-722e6b696361,rev?*%
%TF.SameCoordinates,Original*%
%TF.FileFunction,Legend,Top*%
%TF.FilePolarity,Positive*%
%FSLAX46Y46*%
G04 Gerber Fmt 4.6, Leading zero omitted, Abs format (unit mm)*
G04 Created by KiCad (PCBNEW (6.0.5-0)) date 2022-06-28 22:26:50*
%MOMM*%
%LPD*%
G01*
G04 APERTURE LIST*
%ADD10C,0.150000*%
%ADD11C,0.120000*%
G04 APERTURE END LIST*
D10*
X-6861904Y-24200000D02*
X-6957142Y-24152380D01*
X-7100000Y-24152380D01*
X-7242857Y-24200000D01*
X-7338095Y-24295238D01*
X-7385714Y-24390476D01*
X-7433333Y-24580952D01*
X-7433333Y-24723809D01*
X-7385714Y-24914285D01*
X-7338095Y-25009523D01*
X-7242857Y-25104761D01*
X-7100000Y-25152380D01*
X-7004761Y-25152380D01*
X-6861904Y-25104761D01*
X-6814285Y-25057142D01*
X-6814285Y-24723809D01*
X-7004761Y-24723809D01*
X-6385714Y-25152380D02*
X-6385714Y-24152380D01*
X-5814285Y-25152380D01*
X-5814285Y-24152380D01*
X-5338095Y-25152380D02*
X-5338095Y-24152380D01*
X-5100000Y-24152380D01*
X-4957142Y-24200000D01*
X-4861904Y-24295238D01*
X-4814285Y-24390476D01*
X-4766666Y-24580952D01*
X-4766666Y-24723809D01*
X-4814285Y-24914285D01*
X-4861904Y-25009523D01*
X-4957142Y-25104761D01*
X-5100000Y-25152380D01*
X-5338095Y-25152380D01*
X-7457142Y-30204761D02*
X-7314285Y-30252380D01*
X-7076190Y-30252380D01*
X-6980952Y-30204761D01*
X-6933333Y-30157142D01*
X-6885714Y-30061904D01*
X-6885714Y-29966666D01*
X-6933333Y-29871428D01*
X-6980952Y-29823809D01*
X-7076190Y-29776190D01*
X-7266666Y-29728571D01*
X-7361904Y-29680952D01*
X-7409523Y-29633333D01*
X-7457142Y-29538095D01*
X-7457142Y-29442857D01*
X-7409523Y-29347619D01*
X-7361904Y-29300000D01*
X-7266666Y-29252380D01*
X-7028571Y-29252380D01*
X-6885714Y-29300000D01*
X-6552380Y-29252380D02*
X-6314285Y-30252380D01*
X-6123809Y-29538095D01*
X-5933333Y-30252380D01*
X-5695238Y-29252380D01*
X-5314285Y-30252380D02*
X-5314285Y-29252380D01*
X-5076190Y-29252380D01*
X-4933333Y-29300000D01*
X-4838095Y-29395238D01*
X-4790476Y-29490476D01*
X-4742857Y-29680952D01*
X-4742857Y-29823809D01*
X-4790476Y-30014285D01*
X-4838095Y-30109523D01*
X-4933333Y-30204761D01*
X-5076190Y-30252380D01*
X-5314285Y-30252380D01*
X-8161904Y-27504761D02*
X-8019047Y-27552380D01*
X-7780952Y-27552380D01*
X-7685714Y-27504761D01*
X-7638095Y-27457142D01*
X-7590476Y-27361904D01*
X-7590476Y-27266666D01*
X-7638095Y-27171428D01*
X-7685714Y-27123809D01*
X-7780952Y-27076190D01*
X-7971428Y-27028571D01*
X-8066666Y-26980952D01*
X-8114285Y-26933333D01*
X-8161904Y-26838095D01*
X-8161904Y-26742857D01*
X-8114285Y-26647619D01*
X-8066666Y-26600000D01*
X-7971428Y-26552380D01*
X-7733333Y-26552380D01*
X-7590476Y-26600000D01*
X-7257142Y-26552380D02*
X-7019047Y-27552380D01*
X-6828571Y-26838095D01*
X-6638095Y-27552380D01*
X-6399999Y-26552380D01*
X-5447619Y-27457142D02*
X-5495238Y-27504761D01*
X-5638095Y-27552380D01*
X-5733333Y-27552380D01*
X-5876190Y-27504761D01*
X-5971428Y-27409523D01*
X-6019047Y-27314285D01*
X-6066666Y-27123809D01*
X-6066666Y-26980952D01*
X-6019047Y-26790476D01*
X-5971428Y-26695238D01*
X-5876190Y-26600000D01*
X-5733333Y-26552380D01*
X-5638095Y-26552380D01*
X-5495238Y-26600000D01*
X-5447619Y-26647619D01*
X-4542857Y-27552380D02*
X-5019047Y-27552380D01*
X-5019047Y-26552380D01*
X-4209523Y-27552380D02*
X-4209523Y-26552380D01*
X-3638095Y-27552380D02*
X-4066666Y-26980952D01*
X-3638095Y-26552380D02*
X-4209523Y-27123809D01*
%TO.C,SW68*%
X17240476Y-68604761D02*
X17383333Y-68652380D01*
X17621428Y-68652380D01*
X17716666Y-68604761D01*
X17764285Y-68557142D01*
X17811904Y-68461904D01*
X17811904Y-68366666D01*
X17764285Y-68271428D01*
X17716666Y-68223809D01*
X17621428Y-68176190D01*
X17430952Y-68128571D01*
X17335714Y-68080952D01*
X17288095Y-68033333D01*
X17240476Y-67938095D01*
X17240476Y-67842857D01*
X17288095Y-67747619D01*
X17335714Y-67700000D01*
X17430952Y-67652380D01*
X17669047Y-67652380D01*
X17811904Y-67700000D01*
X18145238Y-67652380D02*
X18383333Y-68652380D01*
X18573809Y-67938095D01*
X18764285Y-68652380D01*
X19002380Y-67652380D01*
X19811904Y-67652380D02*
X19621428Y-67652380D01*
X19526190Y-67700000D01*
X19478571Y-67747619D01*
X19383333Y-67890476D01*
X19335714Y-68080952D01*
X19335714Y-68461904D01*
X19383333Y-68557142D01*
X19430952Y-68604761D01*
X19526190Y-68652380D01*
X19716666Y-68652380D01*
X19811904Y-68604761D01*
X19859523Y-68557142D01*
X19907142Y-68461904D01*
X19907142Y-68223809D01*
X19859523Y-68128571D01*
X19811904Y-68080952D01*
X19716666Y-68033333D01*
X19526190Y-68033333D01*
X19430952Y-68080952D01*
X19383333Y-68128571D01*
X19335714Y-68223809D01*
X20478571Y-68080952D02*
X20383333Y-68033333D01*
X20335714Y-67985714D01*
X20288095Y-67890476D01*
X20288095Y-67842857D01*
X20335714Y-67747619D01*
X20383333Y-67700000D01*
X20478571Y-67652380D01*
X20669047Y-67652380D01*
X20764285Y-67700000D01*
X20811904Y-67747619D01*
X20859523Y-67842857D01*
X20859523Y-67890476D01*
X20811904Y-67985714D01*
X20764285Y-68033333D01*
X20669047Y-68080952D01*
X20478571Y-68080952D01*
X20383333Y-68128571D01*
X20335714Y-68176190D01*
X20288095Y-68271428D01*
X20288095Y-68461904D01*
X20335714Y-68557142D01*
X20383333Y-68604761D01*
X20478571Y-68652380D01*
X20669047Y-68652380D01*
X20764285Y-68604761D01*
X20811904Y-68557142D01*
X20859523Y-68461904D01*
X20859523Y-68271428D01*
X20811904Y-68176190D01*
X20764285Y-68128571D01*
X20669047Y-68080952D01*
X16550000Y-81128571D02*
X16692857Y-81176190D01*
X16740476Y-81223809D01*
X16788095Y-81319047D01*
X16788095Y-81461904D01*
X16740476Y-81557142D01*
X16692857Y-81604761D01*
X16597619Y-81652380D01*
X16216666Y-81652380D01*
X16216666Y-80652380D01*
X16550000Y-80652380D01*
X16645238Y-80700000D01*
X16692857Y-80747619D01*
X16740476Y-80842857D01*
X16740476Y-80938095D01*
X16692857Y-81033333D01*
X16645238Y-81080952D01*
X16550000Y-81128571D01*
X16216666Y-81128571D01*
X17692857Y-81652380D02*
X17216666Y-81652380D01*
X17216666Y-80652380D01*
X17788095Y-81747619D02*
X18550000Y-81747619D01*
X19359523Y-81557142D02*
X19311904Y-81604761D01*
X19169047Y-81652380D01*
X19073809Y-81652380D01*
X18930952Y-81604761D01*
X18835714Y-81509523D01*
X18788095Y-81414285D01*
X18740476Y-81223809D01*
X18740476Y-81080952D01*
X18788095Y-80890476D01*
X18835714Y-80795238D01*
X18930952Y-80700000D01*
X19073809Y-80652380D01*
X19169047Y-80652380D01*
X19311904Y-80700000D01*
X19359523Y-80747619D01*
X19645238Y-80652380D02*
X20216666Y-80652380D01*
X19930952Y-81652380D02*
X19930952Y-80652380D01*
X21121428Y-81652380D02*
X20788095Y-81176190D01*
X20550000Y-81652380D02*
X20550000Y-80652380D01*
X20930952Y-80652380D01*
X21026190Y-80700000D01*
X21073809Y-80747619D01*
X21121428Y-80842857D01*
X21121428Y-80985714D01*
X21073809Y-81080952D01*
X21026190Y-81128571D01*
X20930952Y-81176190D01*
X20550000Y-81176190D01*
X22026190Y-81652380D02*
X21550000Y-81652380D01*
X21550000Y-80652380D01*
%TO.C,SW71*%
X129159226Y-68604761D02*
X129302083Y-68652380D01*
X129540178Y-68652380D01*
X129635416Y-68604761D01*
X129683035Y-68557142D01*
X129730654Y-68461904D01*
X129730654Y-68366666D01*
X129683035Y-68271428D01*
X129635416Y-68223809D01*
X129540178Y-68176190D01*
X129349702Y-68128571D01*
X129254464Y-68080952D01*
X129206845Y-68033333D01*
X129159226Y-67938095D01*
X129159226Y-67842857D01*
X129206845Y-67747619D01*
X129254464Y-67700000D01*
X129349702Y-67652380D01*
X129587797Y-67652380D01*
X129730654Y-67700000D01*
X130063988Y-67652380D02*
X130302083Y-68652380D01*
X130492559Y-67938095D01*
X130683035Y-68652380D01*
X130921130Y-67652380D01*
X131206845Y-67652380D02*
X131873511Y-67652380D01*
X131444940Y-68652380D01*
X132778273Y-68652380D02*
X132206845Y-68652380D01*
X132492559Y-68652380D02*
X132492559Y-67652380D01*
X132397321Y-67795238D01*
X132302083Y-67890476D01*
X132206845Y-67938095D01*
X128802083Y-81604761D02*
X128944940Y-81652380D01*
X129183035Y-81652380D01*
X129278273Y-81604761D01*
X129325892Y-81557142D01*
X129373511Y-81461904D01*
X129373511Y-81366666D01*
X129325892Y-81271428D01*
X129278273Y-81223809D01*
X129183035Y-81176190D01*
X128992559Y-81128571D01*
X128897321Y-81080952D01*
X128849702Y-81033333D01*
X128802083Y-80938095D01*
X128802083Y-80842857D01*
X128849702Y-80747619D01*
X128897321Y-80700000D01*
X128992559Y-80652380D01*
X129230654Y-80652380D01*
X129373511Y-80700000D01*
X129802083Y-81652380D02*
X129802083Y-80652380D01*
X130183035Y-80652380D01*
X130278273Y-80700000D01*
X130325892Y-80747619D01*
X130373511Y-80842857D01*
X130373511Y-80985714D01*
X130325892Y-81080952D01*
X130278273Y-81128571D01*
X130183035Y-81176190D01*
X129802083Y-81176190D01*
X130754464Y-81366666D02*
X131230654Y-81366666D01*
X130659226Y-81652380D02*
X130992559Y-80652380D01*
X131325892Y-81652380D01*
X132230654Y-81557142D02*
X132183035Y-81604761D01*
X132040178Y-81652380D01*
X131944940Y-81652380D01*
X131802083Y-81604761D01*
X131706845Y-81509523D01*
X131659226Y-81414285D01*
X131611607Y-81223809D01*
X131611607Y-81080952D01*
X131659226Y-80890476D01*
X131706845Y-80795238D01*
X131802083Y-80700000D01*
X131944940Y-80652380D01*
X132040178Y-80652380D01*
X132183035Y-80700000D01*
X132230654Y-80747619D01*
X132659226Y-81128571D02*
X132992559Y-81128571D01*
X133135416Y-81652380D02*
X132659226Y-81652380D01*
X132659226Y-80652380D01*
X133135416Y-80652380D01*
%TO.C,SW19*%
X93440476Y7595238D02*
X93583333Y7547619D01*
X93821428Y7547619D01*
X93916666Y7595238D01*
X93964285Y7642857D01*
X94011904Y7738095D01*
X94011904Y7833333D01*
X93964285Y7928571D01*
X93916666Y7976190D01*
X93821428Y8023809D01*
X93630952Y8071428D01*
X93535714Y8119047D01*
X93488095Y8166666D01*
X93440476Y8261904D01*
X93440476Y8357142D01*
X93488095Y8452380D01*
X93535714Y8500000D01*
X93630952Y8547619D01*
X93869047Y8547619D01*
X94011904Y8500000D01*
X94345238Y8547619D02*
X94583333Y7547619D01*
X94773809Y8261904D01*
X94964285Y7547619D01*
X95202380Y8547619D01*
X96107142Y7547619D02*
X95535714Y7547619D01*
X95821428Y7547619D02*
X95821428Y8547619D01*
X95726190Y8404761D01*
X95630952Y8309523D01*
X95535714Y8261904D01*
X96583333Y7547619D02*
X96773809Y7547619D01*
X96869047Y7595238D01*
X96916666Y7642857D01*
X97011904Y7785714D01*
X97059523Y7976190D01*
X97059523Y8357142D01*
X97011904Y8452380D01*
X96964285Y8500000D01*
X96869047Y8547619D01*
X96678571Y8547619D01*
X96583333Y8500000D01*
X96535714Y8452380D01*
X96488095Y8357142D01*
X96488095Y8119047D01*
X96535714Y8023809D01*
X96583333Y7976190D01*
X96678571Y7928571D01*
X96869047Y7928571D01*
X96964285Y7976190D01*
X97011904Y8023809D01*
X97059523Y8119047D01*
X95488095Y-4452380D02*
X95011904Y-4452380D01*
X94964285Y-4928571D01*
X95011904Y-4880952D01*
X95107142Y-4833333D01*
X95345238Y-4833333D01*
X95440476Y-4880952D01*
X95488095Y-4928571D01*
X95535714Y-5023809D01*
X95535714Y-5261904D01*
X95488095Y-5357142D01*
X95440476Y-5404761D01*
X95345238Y-5452380D01*
X95107142Y-5452380D01*
X95011904Y-5404761D01*
X94964285Y-5357142D01*
%TO.C,SW61*%
X136302976Y-49554761D02*
X136445833Y-49602380D01*
X136683928Y-49602380D01*
X136779166Y-49554761D01*
X136826785Y-49507142D01*
X136874404Y-49411904D01*
X136874404Y-49316666D01*
X136826785Y-49221428D01*
X136779166Y-49173809D01*
X136683928Y-49126190D01*
X136493452Y-49078571D01*
X136398214Y-49030952D01*
X136350595Y-48983333D01*
X136302976Y-48888095D01*
X136302976Y-48792857D01*
X136350595Y-48697619D01*
X136398214Y-48650000D01*
X136493452Y-48602380D01*
X136731547Y-48602380D01*
X136874404Y-48650000D01*
X137207738Y-48602380D02*
X137445833Y-49602380D01*
X137636309Y-48888095D01*
X137826785Y-49602380D01*
X138064880Y-48602380D01*
X138874404Y-48602380D02*
X138683928Y-48602380D01*
X138588690Y-48650000D01*
X138541071Y-48697619D01*
X138445833Y-48840476D01*
X138398214Y-49030952D01*
X138398214Y-49411904D01*
X138445833Y-49507142D01*
X138493452Y-49554761D01*
X138588690Y-49602380D01*
X138779166Y-49602380D01*
X138874404Y-49554761D01*
X138922023Y-49507142D01*
X138969642Y-49411904D01*
X138969642Y-49173809D01*
X138922023Y-49078571D01*
X138874404Y-49030952D01*
X138779166Y-48983333D01*
X138588690Y-48983333D01*
X138493452Y-49030952D01*
X138445833Y-49078571D01*
X138398214Y-49173809D01*
X139922023Y-49602380D02*
X139350595Y-49602380D01*
X139636309Y-49602380D02*
X139636309Y-48602380D01*
X139541071Y-48745238D01*
X139445833Y-48840476D01*
X139350595Y-48888095D01*
X137826785Y-62602380D02*
X137826785Y-61602380D01*
X138398214Y-62602380D01*
X138398214Y-61602380D01*
%TO.C,SW73*%
X226790476Y-68604761D02*
X226933333Y-68652380D01*
X227171428Y-68652380D01*
X227266666Y-68604761D01*
X227314285Y-68557142D01*
X227361904Y-68461904D01*
X227361904Y-68366666D01*
X227314285Y-68271428D01*
X227266666Y-68223809D01*
X227171428Y-68176190D01*
X226980952Y-68128571D01*
X226885714Y-68080952D01*
X226838095Y-68033333D01*
X226790476Y-67938095D01*
X226790476Y-67842857D01*
X226838095Y-67747619D01*
X226885714Y-67700000D01*
X226980952Y-67652380D01*
X227219047Y-67652380D01*
X227361904Y-67700000D01*
X227695238Y-67652380D02*
X227933333Y-68652380D01*
X228123809Y-67938095D01*
X228314285Y-68652380D01*
X228552380Y-67652380D01*
X228838095Y-67652380D02*
X229504761Y-67652380D01*
X229076190Y-68652380D01*
X229790476Y-67652380D02*
X230409523Y-67652380D01*
X230076190Y-68033333D01*
X230219047Y-68033333D01*
X230314285Y-68080952D01*
X230361904Y-68128571D01*
X230409523Y-68223809D01*
X230409523Y-68461904D01*
X230361904Y-68557142D01*
X230314285Y-68604761D01*
X230219047Y-68652380D01*
X229933333Y-68652380D01*
X229838095Y-68604761D01*
X229790476Y-68557142D01*
X227647619Y-81652380D02*
X227171428Y-81652380D01*
X227171428Y-80652380D01*
X227980952Y-81128571D02*
X228314285Y-81128571D01*
X228457142Y-81652380D02*
X227980952Y-81652380D01*
X227980952Y-80652380D01*
X228457142Y-80652380D01*
X229219047Y-81128571D02*
X228885714Y-81128571D01*
X228885714Y-81652380D02*
X228885714Y-80652380D01*
X229361904Y-80652380D01*
X229600000Y-80652380D02*
X230171428Y-80652380D01*
X229885714Y-81652380D02*
X229885714Y-80652380D01*
%TO.C,H5*%
X15906845Y17035119D02*
X15906845Y18035119D01*
X15906845Y17558928D02*
X16478273Y17558928D01*
X16478273Y17035119D02*
X16478273Y18035119D01*
X17430654Y18035119D02*
X16954464Y18035119D01*
X16906845Y17558928D01*
X16954464Y17606547D01*
X17049702Y17654166D01*
X17287797Y17654166D01*
X17383035Y17606547D01*
X17430654Y17558928D01*
X17478273Y17463690D01*
X17478273Y17225595D01*
X17430654Y17130357D01*
X17383035Y17082738D01*
X17287797Y17035119D01*
X17049702Y17035119D01*
X16954464Y17082738D01*
X16906845Y17130357D01*
%TO.C,SW4*%
X72485416Y26645238D02*
X72628273Y26597619D01*
X72866369Y26597619D01*
X72961607Y26645238D01*
X73009226Y26692857D01*
X73056845Y26788095D01*
X73056845Y26883333D01*
X73009226Y26978571D01*
X72961607Y27026190D01*
X72866369Y27073809D01*
X72675892Y27121428D01*
X72580654Y27169047D01*
X72533035Y27216666D01*
X72485416Y27311904D01*
X72485416Y27407142D01*
X72533035Y27502380D01*
X72580654Y27550000D01*
X72675892Y27597619D01*
X72913988Y27597619D01*
X73056845Y27550000D01*
X73390178Y27597619D02*
X73628273Y26597619D01*
X73818750Y27311904D01*
X74009226Y26597619D01*
X74247321Y27597619D01*
X75056845Y27264285D02*
X75056845Y26597619D01*
X74818750Y27645238D02*
X74580654Y26930952D01*
X75199702Y26930952D01*
X73485416Y14121428D02*
X73152083Y14121428D01*
X73152083Y13597619D02*
X73152083Y14597619D01*
X73628273Y14597619D01*
X73913988Y14597619D02*
X74533035Y14597619D01*
X74199702Y14216666D01*
X74342559Y14216666D01*
X74437797Y14169047D01*
X74485416Y14121428D01*
X74533035Y14026190D01*
X74533035Y13788095D01*
X74485416Y13692857D01*
X74437797Y13645238D01*
X74342559Y13597619D01*
X74056845Y13597619D01*
X73961607Y13645238D01*
X73913988Y13692857D01*
%TO.C,H1*%
X-1761904Y-62052380D02*
X-1761904Y-61052380D01*
X-1761904Y-61528571D02*
X-1190476Y-61528571D01*
X-1190476Y-62052380D02*
X-1190476Y-61052380D01*
X-190476Y-62052380D02*
X-761904Y-62052380D01*
X-476190Y-62052380D02*
X-476190Y-61052380D01*
X-571428Y-61195238D01*
X-666666Y-61290476D01*
X-761904Y-61338095D01*
%TO.C,SW16*%
X36290476Y7595238D02*
X36433333Y7547619D01*
X36671428Y7547619D01*
X36766666Y7595238D01*
X36814285Y7642857D01*
X36861904Y7738095D01*
X36861904Y7833333D01*
X36814285Y7928571D01*
X36766666Y7976190D01*
X36671428Y8023809D01*
X36480952Y8071428D01*
X36385714Y8119047D01*
X36338095Y8166666D01*
X36290476Y8261904D01*
X36290476Y8357142D01*
X36338095Y8452380D01*
X36385714Y8500000D01*
X36480952Y8547619D01*
X36719047Y8547619D01*
X36861904Y8500000D01*
X37195238Y8547619D02*
X37433333Y7547619D01*
X37623809Y8261904D01*
X37814285Y7547619D01*
X38052380Y8547619D01*
X38957142Y7547619D02*
X38385714Y7547619D01*
X38671428Y7547619D02*
X38671428Y8547619D01*
X38576190Y8404761D01*
X38480952Y8309523D01*
X38385714Y8261904D01*
X39814285Y8547619D02*
X39623809Y8547619D01*
X39528571Y8500000D01*
X39480952Y8452380D01*
X39385714Y8309523D01*
X39338095Y8119047D01*
X39338095Y7738095D01*
X39385714Y7642857D01*
X39433333Y7595238D01*
X39528571Y7547619D01*
X39719047Y7547619D01*
X39814285Y7595238D01*
X39861904Y7642857D01*
X39909523Y7738095D01*
X39909523Y7976190D01*
X39861904Y8071428D01*
X39814285Y8119047D01*
X39719047Y8166666D01*
X39528571Y8166666D01*
X39433333Y8119047D01*
X39385714Y8071428D01*
X39338095Y7976190D01*
X37814285Y-4547619D02*
X37861904Y-4500000D01*
X37957142Y-4452380D01*
X38195238Y-4452380D01*
X38290476Y-4500000D01*
X38338095Y-4547619D01*
X38385714Y-4642857D01*
X38385714Y-4738095D01*
X38338095Y-4880952D01*
X37766666Y-5452380D01*
X38385714Y-5452380D01*
%TO.C,H3*%
X242138095Y-42752380D02*
X242138095Y-41752380D01*
X242138095Y-42228571D02*
X242709523Y-42228571D01*
X242709523Y-42752380D02*
X242709523Y-41752380D01*
X243090476Y-41752380D02*
X243709523Y-41752380D01*
X243376190Y-42133333D01*
X243519047Y-42133333D01*
X243614285Y-42180952D01*
X243661904Y-42228571D01*
X243709523Y-42323809D01*
X243709523Y-42561904D01*
X243661904Y-42657142D01*
X243614285Y-42704761D01*
X243519047Y-42752380D01*
X243233333Y-42752380D01*
X243138095Y-42704761D01*
X243090476Y-42657142D01*
%TO.C,SW74*%
X245840476Y-68604761D02*
X245983333Y-68652380D01*
X246221428Y-68652380D01*
X246316666Y-68604761D01*
X246364285Y-68557142D01*
X246411904Y-68461904D01*
X246411904Y-68366666D01*
X246364285Y-68271428D01*
X246316666Y-68223809D01*
X246221428Y-68176190D01*
X246030952Y-68128571D01*
X245935714Y-68080952D01*
X245888095Y-68033333D01*
X245840476Y-67938095D01*
X245840476Y-67842857D01*
X245888095Y-67747619D01*
X245935714Y-67700000D01*
X246030952Y-67652380D01*
X246269047Y-67652380D01*
X246411904Y-67700000D01*
X246745238Y-67652380D02*
X246983333Y-68652380D01*
X247173809Y-67938095D01*
X247364285Y-68652380D01*
X247602380Y-67652380D01*
X247888095Y-67652380D02*
X248554761Y-67652380D01*
X248126190Y-68652380D01*
X249364285Y-67985714D02*
X249364285Y-68652380D01*
X249126190Y-67604761D02*
X248888095Y-68319047D01*
X249507142Y-68319047D01*
X245769047Y-81652380D02*
X245769047Y-80652380D01*
X246007142Y-80652380D01*
X246150000Y-80700000D01*
X246245238Y-80795238D01*
X246292857Y-80890476D01*
X246340476Y-81080952D01*
X246340476Y-81223809D01*
X246292857Y-81414285D01*
X246245238Y-81509523D01*
X246150000Y-81604761D01*
X246007142Y-81652380D01*
X245769047Y-81652380D01*
X246959523Y-80652380D02*
X247150000Y-80652380D01*
X247245238Y-80700000D01*
X247340476Y-80795238D01*
X247388095Y-80985714D01*
X247388095Y-81319047D01*
X247340476Y-81509523D01*
X247245238Y-81604761D01*
X247150000Y-81652380D01*
X246959523Y-81652380D01*
X246864285Y-81604761D01*
X246769047Y-81509523D01*
X246721428Y-81319047D01*
X246721428Y-80985714D01*
X246769047Y-80795238D01*
X246864285Y-80700000D01*
X246959523Y-80652380D01*
X247721428Y-80652380D02*
X247959523Y-81652380D01*
X248150000Y-80938095D01*
X248340476Y-81652380D01*
X248578571Y-80652380D01*
X248959523Y-81652380D02*
X248959523Y-80652380D01*
X249530952Y-81652380D01*
X249530952Y-80652380D01*
%TO.C,SW6*%
X122491666Y26645238D02*
X122634523Y26597619D01*
X122872619Y26597619D01*
X122967857Y26645238D01*
X123015476Y26692857D01*
X123063095Y26788095D01*
X123063095Y26883333D01*
X123015476Y26978571D01*
X122967857Y27026190D01*
X122872619Y27073809D01*
X122682142Y27121428D01*
X122586904Y27169047D01*
X122539285Y27216666D01*
X122491666Y27311904D01*
X122491666Y27407142D01*
X122539285Y27502380D01*
X122586904Y27550000D01*
X122682142Y27597619D01*
X122920238Y27597619D01*
X123063095Y27550000D01*
X123396428Y27597619D02*
X123634523Y26597619D01*
X123825000Y27311904D01*
X124015476Y26597619D01*
X124253571Y27597619D01*
X125063095Y27597619D02*
X124872619Y27597619D01*
X124777380Y27550000D01*
X124729761Y27502380D01*
X124634523Y27359523D01*
X124586904Y27169047D01*
X124586904Y26788095D01*
X124634523Y26692857D01*
X124682142Y26645238D01*
X124777380Y26597619D01*
X124967857Y26597619D01*
X125063095Y26645238D01*
X125110714Y26692857D01*
X125158333Y26788095D01*
X125158333Y27026190D01*
X125110714Y27121428D01*
X125063095Y27169047D01*
X124967857Y27216666D01*
X124777380Y27216666D01*
X124682142Y27169047D01*
X124634523Y27121428D01*
X124586904Y27026190D01*
X121110416Y14121428D02*
X120777083Y14121428D01*
X120777083Y13597619D02*
X120777083Y14597619D01*
X121253273Y14597619D01*
X122110416Y14597619D02*
X121634226Y14597619D01*
X121586607Y14121428D01*
X121634226Y14169047D01*
X121729464Y14216666D01*
X121967559Y14216666D01*
X122062797Y14169047D01*
X122110416Y14121428D01*
X122158035Y14026190D01*
X122158035Y13788095D01*
X122110416Y13692857D01*
X122062797Y13645238D01*
X121967559Y13597619D01*
X121729464Y13597619D01*
X121634226Y13645238D01*
X121586607Y13692857D01*
%TO.C,H15*%
X-8381845Y-16302380D02*
X-8381845Y-15302380D01*
X-8381845Y-15778571D02*
X-7810416Y-15778571D01*
X-7810416Y-16302380D02*
X-7810416Y-15302380D01*
X-6810416Y-16302380D02*
X-7381845Y-16302380D01*
X-7096130Y-16302380D02*
X-7096130Y-15302380D01*
X-7191369Y-15445238D01*
X-7286607Y-15540476D01*
X-7381845Y-15588095D01*
X-5905654Y-15302380D02*
X-6381845Y-15302380D01*
X-6429464Y-15778571D01*
X-6381845Y-15730952D01*
X-6286607Y-15683333D01*
X-6048511Y-15683333D01*
X-5953273Y-15730952D01*
X-5905654Y-15778571D01*
X-5858035Y-15873809D01*
X-5858035Y-16111904D01*
X-5905654Y-16207142D01*
X-5953273Y-16254761D01*
X-6048511Y-16302380D01*
X-6286607Y-16302380D01*
X-6381845Y-16254761D01*
X-6429464Y-16207142D01*
%TO.C,SW64*%
X193452976Y-49554761D02*
X193595833Y-49602380D01*
X193833928Y-49602380D01*
X193929166Y-49554761D01*
X193976785Y-49507142D01*
X194024404Y-49411904D01*
X194024404Y-49316666D01*
X193976785Y-49221428D01*
X193929166Y-49173809D01*
X193833928Y-49126190D01*
X193643452Y-49078571D01*
X193548214Y-49030952D01*
X193500595Y-48983333D01*
X193452976Y-48888095D01*
X193452976Y-48792857D01*
X193500595Y-48697619D01*
X193548214Y-48650000D01*
X193643452Y-48602380D01*
X193881547Y-48602380D01*
X194024404Y-48650000D01*
X194357738Y-48602380D02*
X194595833Y-49602380D01*
X194786309Y-48888095D01*
X194976785Y-49602380D01*
X195214880Y-48602380D01*
X196024404Y-48602380D02*
X195833928Y-48602380D01*
X195738690Y-48650000D01*
X195691071Y-48697619D01*
X195595833Y-48840476D01*
X195548214Y-49030952D01*
X195548214Y-49411904D01*
X195595833Y-49507142D01*
X195643452Y-49554761D01*
X195738690Y-49602380D01*
X195929166Y-49602380D01*
X196024404Y-49554761D01*
X196072023Y-49507142D01*
X196119642Y-49411904D01*
X196119642Y-49173809D01*
X196072023Y-49078571D01*
X196024404Y-49030952D01*
X195929166Y-48983333D01*
X195738690Y-48983333D01*
X195643452Y-49030952D01*
X195595833Y-49078571D01*
X195548214Y-49173809D01*
X196976785Y-48935714D02*
X196976785Y-49602380D01*
X196738690Y-48554761D02*
X196500595Y-49269047D01*
X197119642Y-49269047D01*
X195262500Y-62507142D02*
X195310119Y-62554761D01*
X195262500Y-62602380D01*
X195214880Y-62554761D01*
X195262500Y-62507142D01*
X195262500Y-62602380D01*
%TO.C,SW32*%
X83915476Y-11454761D02*
X84058333Y-11502380D01*
X84296428Y-11502380D01*
X84391666Y-11454761D01*
X84439285Y-11407142D01*
X84486904Y-11311904D01*
X84486904Y-11216666D01*
X84439285Y-11121428D01*
X84391666Y-11073809D01*
X84296428Y-11026190D01*
X84105952Y-10978571D01*
X84010714Y-10930952D01*
X83963095Y-10883333D01*
X83915476Y-10788095D01*
X83915476Y-10692857D01*
X83963095Y-10597619D01*
X84010714Y-10550000D01*
X84105952Y-10502380D01*
X84344047Y-10502380D01*
X84486904Y-10550000D01*
X84820238Y-10502380D02*
X85058333Y-11502380D01*
X85248809Y-10788095D01*
X85439285Y-11502380D01*
X85677380Y-10502380D01*
X85963095Y-10502380D02*
X86582142Y-10502380D01*
X86248809Y-10883333D01*
X86391666Y-10883333D01*
X86486904Y-10930952D01*
X86534523Y-10978571D01*
X86582142Y-11073809D01*
X86582142Y-11311904D01*
X86534523Y-11407142D01*
X86486904Y-11454761D01*
X86391666Y-11502380D01*
X86105952Y-11502380D01*
X86010714Y-11454761D01*
X85963095Y-11407142D01*
X86963095Y-10597619D02*
X87010714Y-10550000D01*
X87105952Y-10502380D01*
X87344047Y-10502380D01*
X87439285Y-10550000D01*
X87486904Y-10597619D01*
X87534523Y-10692857D01*
X87534523Y-10788095D01*
X87486904Y-10930952D01*
X86915476Y-11502380D01*
X87534523Y-11502380D01*
X86034523Y-24502380D02*
X85701190Y-24026190D01*
X85463095Y-24502380D02*
X85463095Y-23502380D01*
X85844047Y-23502380D01*
X85939285Y-23550000D01*
X85986904Y-23597619D01*
X86034523Y-23692857D01*
X86034523Y-23835714D01*
X85986904Y-23930952D01*
X85939285Y-23978571D01*
X85844047Y-24026190D01*
X85463095Y-24026190D01*
%TO.C,SW65*%
X212502976Y-49554761D02*
X212645833Y-49602380D01*
X212883928Y-49602380D01*
X212979166Y-49554761D01*
X213026785Y-49507142D01*
X213074404Y-49411904D01*
X213074404Y-49316666D01*
X213026785Y-49221428D01*
X212979166Y-49173809D01*
X212883928Y-49126190D01*
X212693452Y-49078571D01*
X212598214Y-49030952D01*
X212550595Y-48983333D01*
X212502976Y-48888095D01*
X212502976Y-48792857D01*
X212550595Y-48697619D01*
X212598214Y-48650000D01*
X212693452Y-48602380D01*
X212931547Y-48602380D01*
X213074404Y-48650000D01*
X213407738Y-48602380D02*
X213645833Y-49602380D01*
X213836309Y-48888095D01*
X214026785Y-49602380D01*
X214264880Y-48602380D01*
X215074404Y-48602380D02*
X214883928Y-48602380D01*
X214788690Y-48650000D01*
X214741071Y-48697619D01*
X214645833Y-48840476D01*
X214598214Y-49030952D01*
X214598214Y-49411904D01*
X214645833Y-49507142D01*
X214693452Y-49554761D01*
X214788690Y-49602380D01*
X214979166Y-49602380D01*
X215074404Y-49554761D01*
X215122023Y-49507142D01*
X215169642Y-49411904D01*
X215169642Y-49173809D01*
X215122023Y-49078571D01*
X215074404Y-49030952D01*
X214979166Y-48983333D01*
X214788690Y-48983333D01*
X214693452Y-49030952D01*
X214645833Y-49078571D01*
X214598214Y-49173809D01*
X216074404Y-48602380D02*
X215598214Y-48602380D01*
X215550595Y-49078571D01*
X215598214Y-49030952D01*
X215693452Y-48983333D01*
X215931547Y-48983333D01*
X216026785Y-49030952D01*
X216074404Y-49078571D01*
X216122023Y-49173809D01*
X216122023Y-49411904D01*
X216074404Y-49507142D01*
X216026785Y-49554761D01*
X215931547Y-49602380D01*
X215693452Y-49602380D01*
X215598214Y-49554761D01*
X215550595Y-49507142D01*
X214741071Y-61554761D02*
X213883928Y-62840476D01*
%TO.C,SW31*%
X64865476Y-11454761D02*
X65008333Y-11502380D01*
X65246428Y-11502380D01*
X65341666Y-11454761D01*
X65389285Y-11407142D01*
X65436904Y-11311904D01*
X65436904Y-11216666D01*
X65389285Y-11121428D01*
X65341666Y-11073809D01*
X65246428Y-11026190D01*
X65055952Y-10978571D01*
X64960714Y-10930952D01*
X64913095Y-10883333D01*
X64865476Y-10788095D01*
X64865476Y-10692857D01*
X64913095Y-10597619D01*
X64960714Y-10550000D01*
X65055952Y-10502380D01*
X65294047Y-10502380D01*
X65436904Y-10550000D01*
X65770238Y-10502380D02*
X66008333Y-11502380D01*
X66198809Y-10788095D01*
X66389285Y-11502380D01*
X66627380Y-10502380D01*
X66913095Y-10502380D02*
X67532142Y-10502380D01*
X67198809Y-10883333D01*
X67341666Y-10883333D01*
X67436904Y-10930952D01*
X67484523Y-10978571D01*
X67532142Y-11073809D01*
X67532142Y-11311904D01*
X67484523Y-11407142D01*
X67436904Y-11454761D01*
X67341666Y-11502380D01*
X67055952Y-11502380D01*
X66960714Y-11454761D01*
X66913095Y-11407142D01*
X68484523Y-11502380D02*
X67913095Y-11502380D01*
X68198809Y-11502380D02*
X68198809Y-10502380D01*
X68103571Y-10645238D01*
X68008333Y-10740476D01*
X67913095Y-10788095D01*
X66460714Y-23978571D02*
X66794047Y-23978571D01*
X66936904Y-24502380D02*
X66460714Y-24502380D01*
X66460714Y-23502380D01*
X66936904Y-23502380D01*
%TO.C,SW42*%
X5334226Y-30504761D02*
X5477083Y-30552380D01*
X5715178Y-30552380D01*
X5810416Y-30504761D01*
X5858035Y-30457142D01*
X5905654Y-30361904D01*
X5905654Y-30266666D01*
X5858035Y-30171428D01*
X5810416Y-30123809D01*
X5715178Y-30076190D01*
X5524702Y-30028571D01*
X5429464Y-29980952D01*
X5381845Y-29933333D01*
X5334226Y-29838095D01*
X5334226Y-29742857D01*
X5381845Y-29647619D01*
X5429464Y-29600000D01*
X5524702Y-29552380D01*
X5762797Y-29552380D01*
X5905654Y-29600000D01*
X6238988Y-29552380D02*
X6477083Y-30552380D01*
X6667559Y-29838095D01*
X6858035Y-30552380D01*
X7096130Y-29552380D01*
X7905654Y-29885714D02*
X7905654Y-30552380D01*
X7667559Y-29504761D02*
X7429464Y-30219047D01*
X8048511Y-30219047D01*
X8381845Y-29647619D02*
X8429464Y-29600000D01*
X8524702Y-29552380D01*
X8762797Y-29552380D01*
X8858035Y-29600000D01*
X8905654Y-29647619D01*
X8953273Y-29742857D01*
X8953273Y-29838095D01*
X8905654Y-29980952D01*
X8334226Y-30552380D01*
X8953273Y-30552380D01*
X6048511Y-43457142D02*
X6000892Y-43504761D01*
X5858035Y-43552380D01*
X5762797Y-43552380D01*
X5619940Y-43504761D01*
X5524702Y-43409523D01*
X5477083Y-43314285D01*
X5429464Y-43123809D01*
X5429464Y-42980952D01*
X5477083Y-42790476D01*
X5524702Y-42695238D01*
X5619940Y-42600000D01*
X5762797Y-42552380D01*
X5858035Y-42552380D01*
X6000892Y-42600000D01*
X6048511Y-42647619D01*
X6429464Y-43266666D02*
X6905654Y-43266666D01*
X6334226Y-43552380D02*
X6667559Y-42552380D01*
X7000892Y-43552380D01*
X7334226Y-43552380D02*
X7334226Y-42552380D01*
X7715178Y-42552380D01*
X7810416Y-42600000D01*
X7858035Y-42647619D01*
X7905654Y-42742857D01*
X7905654Y-42885714D01*
X7858035Y-42980952D01*
X7810416Y-43028571D01*
X7715178Y-43076190D01*
X7334226Y-43076190D01*
X8286607Y-43504761D02*
X8429464Y-43552380D01*
X8667559Y-43552380D01*
X8762797Y-43504761D01*
X8810416Y-43457142D01*
X8858035Y-43361904D01*
X8858035Y-43266666D01*
X8810416Y-43171428D01*
X8762797Y-43123809D01*
X8667559Y-43076190D01*
X8477083Y-43028571D01*
X8381845Y-42980952D01*
X8334226Y-42933333D01*
X8286607Y-42838095D01*
X8286607Y-42742857D01*
X8334226Y-42647619D01*
X8381845Y-42600000D01*
X8477083Y-42552380D01*
X8715178Y-42552380D01*
X8858035Y-42600000D01*
%TO.C,SW27*%
X255365476Y7595238D02*
X255508333Y7547619D01*
X255746428Y7547619D01*
X255841666Y7595238D01*
X255889285Y7642857D01*
X255936904Y7738095D01*
X255936904Y7833333D01*
X255889285Y7928571D01*
X255841666Y7976190D01*
X255746428Y8023809D01*
X255555952Y8071428D01*
X255460714Y8119047D01*
X255413095Y8166666D01*
X255365476Y8261904D01*
X255365476Y8357142D01*
X255413095Y8452380D01*
X255460714Y8500000D01*
X255555952Y8547619D01*
X255794047Y8547619D01*
X255936904Y8500000D01*
X256270238Y8547619D02*
X256508333Y7547619D01*
X256698809Y8261904D01*
X256889285Y7547619D01*
X257127380Y8547619D01*
X257460714Y8452380D02*
X257508333Y8500000D01*
X257603571Y8547619D01*
X257841666Y8547619D01*
X257936904Y8500000D01*
X257984523Y8452380D01*
X258032142Y8357142D01*
X258032142Y8261904D01*
X257984523Y8119047D01*
X257413095Y7547619D01*
X258032142Y7547619D01*
X258365476Y8547619D02*
X259032142Y8547619D01*
X258603571Y7547619D01*
X253460714Y-4928571D02*
X253603571Y-4976190D01*
X253651190Y-5023809D01*
X253698809Y-5119047D01*
X253698809Y-5261904D01*
X253651190Y-5357142D01*
X253603571Y-5404761D01*
X253508333Y-5452380D01*
X253127380Y-5452380D01*
X253127380Y-4452380D01*
X253460714Y-4452380D01*
X253555952Y-4500000D01*
X253603571Y-4547619D01*
X253651190Y-4642857D01*
X253651190Y-4738095D01*
X253603571Y-4833333D01*
X253555952Y-4880952D01*
X253460714Y-4928571D01*
X253127380Y-4928571D01*
X254079761Y-5166666D02*
X254555952Y-5166666D01*
X253984523Y-5452380D02*
X254317857Y-4452380D01*
X254651190Y-5452380D01*
X255555952Y-5357142D02*
X255508333Y-5404761D01*
X255365476Y-5452380D01*
X255270238Y-5452380D01*
X255127380Y-5404761D01*
X255032142Y-5309523D01*
X254984523Y-5214285D01*
X254936904Y-5023809D01*
X254936904Y-4880952D01*
X254984523Y-4690476D01*
X255032142Y-4595238D01*
X255127380Y-4500000D01*
X255270238Y-4452380D01*
X255365476Y-4452380D01*
X255508333Y-4500000D01*
X255555952Y-4547619D01*
X255984523Y-5452380D02*
X255984523Y-4452380D01*
X256555952Y-5452380D02*
X256127380Y-4880952D01*
X256555952Y-4452380D02*
X255984523Y-5023809D01*
X256936904Y-5404761D02*
X257079761Y-5452380D01*
X257317857Y-5452380D01*
X257413095Y-5404761D01*
X257460714Y-5357142D01*
X257508333Y-5261904D01*
X257508333Y-5166666D01*
X257460714Y-5071428D01*
X257413095Y-5023809D01*
X257317857Y-4976190D01*
X257127380Y-4928571D01*
X257032142Y-4880952D01*
X256984523Y-4833333D01*
X256936904Y-4738095D01*
X256936904Y-4642857D01*
X256984523Y-4547619D01*
X257032142Y-4500000D01*
X257127380Y-4452380D01*
X257365476Y-4452380D01*
X257508333Y-4500000D01*
X257936904Y-5452380D02*
X257936904Y-4452380D01*
X258317857Y-4452380D01*
X258413095Y-4500000D01*
X258460714Y-4547619D01*
X258508333Y-4642857D01*
X258508333Y-4785714D01*
X258460714Y-4880952D01*
X258413095Y-4928571D01*
X258317857Y-4976190D01*
X257936904Y-4976190D01*
X258889285Y-5166666D02*
X259365476Y-5166666D01*
X258794047Y-5452380D02*
X259127380Y-4452380D01*
X259460714Y-5452380D01*
X260365476Y-5357142D02*
X260317857Y-5404761D01*
X260175000Y-5452380D01*
X260079761Y-5452380D01*
X259936904Y-5404761D01*
X259841666Y-5309523D01*
X259794047Y-5214285D01*
X259746428Y-5023809D01*
X259746428Y-4880952D01*
X259794047Y-4690476D01*
X259841666Y-4595238D01*
X259936904Y-4500000D01*
X260079761Y-4452380D01*
X260175000Y-4452380D01*
X260317857Y-4500000D01*
X260365476Y-4547619D01*
X260794047Y-4928571D02*
X261127380Y-4928571D01*
X261270238Y-5452380D02*
X260794047Y-5452380D01*
X260794047Y-4452380D01*
X261270238Y-4452380D01*
%TO.C,H7*%
X8763095Y-73452380D02*
X8763095Y-72452380D01*
X8763095Y-72928571D02*
X9334523Y-72928571D01*
X9334523Y-73452380D02*
X9334523Y-72452380D01*
X9715476Y-72452380D02*
X10382142Y-72452380D01*
X9953571Y-73452380D01*
%TO.C,SW34*%
X122015476Y-11454761D02*
X122158333Y-11502380D01*
X122396428Y-11502380D01*
X122491666Y-11454761D01*
X122539285Y-11407142D01*
X122586904Y-11311904D01*
X122586904Y-11216666D01*
X122539285Y-11121428D01*
X122491666Y-11073809D01*
X122396428Y-11026190D01*
X122205952Y-10978571D01*
X122110714Y-10930952D01*
X122063095Y-10883333D01*
X122015476Y-10788095D01*
X122015476Y-10692857D01*
X122063095Y-10597619D01*
X122110714Y-10550000D01*
X122205952Y-10502380D01*
X122444047Y-10502380D01*
X122586904Y-10550000D01*
X122920238Y-10502380D02*
X123158333Y-11502380D01*
X123348809Y-10788095D01*
X123539285Y-11502380D01*
X123777380Y-10502380D01*
X124063095Y-10502380D02*
X124682142Y-10502380D01*
X124348809Y-10883333D01*
X124491666Y-10883333D01*
X124586904Y-10930952D01*
X124634523Y-10978571D01*
X124682142Y-11073809D01*
X124682142Y-11311904D01*
X124634523Y-11407142D01*
X124586904Y-11454761D01*
X124491666Y-11502380D01*
X124205952Y-11502380D01*
X124110714Y-11454761D01*
X124063095Y-11407142D01*
X125539285Y-10835714D02*
X125539285Y-11502380D01*
X125301190Y-10454761D02*
X125063095Y-11169047D01*
X125682142Y-11169047D01*
X123825000Y-24026190D02*
X123825000Y-24502380D01*
X123491666Y-23502380D02*
X123825000Y-24026190D01*
X124158333Y-23502380D01*
%TO.C,SW40*%
X236315476Y-11454761D02*
X236458333Y-11502380D01*
X236696428Y-11502380D01*
X236791666Y-11454761D01*
X236839285Y-11407142D01*
X236886904Y-11311904D01*
X236886904Y-11216666D01*
X236839285Y-11121428D01*
X236791666Y-11073809D01*
X236696428Y-11026190D01*
X236505952Y-10978571D01*
X236410714Y-10930952D01*
X236363095Y-10883333D01*
X236315476Y-10788095D01*
X236315476Y-10692857D01*
X236363095Y-10597619D01*
X236410714Y-10550000D01*
X236505952Y-10502380D01*
X236744047Y-10502380D01*
X236886904Y-10550000D01*
X237220238Y-10502380D02*
X237458333Y-11502380D01*
X237648809Y-10788095D01*
X237839285Y-11502380D01*
X238077380Y-10502380D01*
X238886904Y-10835714D02*
X238886904Y-11502380D01*
X238648809Y-10454761D02*
X238410714Y-11169047D01*
X239029761Y-11169047D01*
X239601190Y-10502380D02*
X239696428Y-10502380D01*
X239791666Y-10550000D01*
X239839285Y-10597619D01*
X239886904Y-10692857D01*
X239934523Y-10883333D01*
X239934523Y-11121428D01*
X239886904Y-11311904D01*
X239839285Y-11407142D01*
X239791666Y-11454761D01*
X239696428Y-11502380D01*
X239601190Y-11502380D01*
X239505952Y-11454761D01*
X239458333Y-11407142D01*
X239410714Y-11311904D01*
X239363095Y-11121428D01*
X239363095Y-10883333D01*
X239410714Y-10692857D01*
X239458333Y-10597619D01*
X239505952Y-10550000D01*
X239601190Y-10502380D01*
X237934523Y-24835714D02*
X238172619Y-24835714D01*
X238172619Y-23407142D01*
X237934523Y-23407142D01*
%TO.C,SW18*%
X74390476Y7595238D02*
X74533333Y7547619D01*
X74771428Y7547619D01*
X74866666Y7595238D01*
X74914285Y7642857D01*
X74961904Y7738095D01*
X74961904Y7833333D01*
X74914285Y7928571D01*
X74866666Y7976190D01*
X74771428Y8023809D01*
X74580952Y8071428D01*
X74485714Y8119047D01*
X74438095Y8166666D01*
X74390476Y8261904D01*
X74390476Y8357142D01*
X74438095Y8452380D01*
X74485714Y8500000D01*
X74580952Y8547619D01*
X74819047Y8547619D01*
X74961904Y8500000D01*
X75295238Y8547619D02*
X75533333Y7547619D01*
X75723809Y8261904D01*
X75914285Y7547619D01*
X76152380Y8547619D01*
X77057142Y7547619D02*
X76485714Y7547619D01*
X76771428Y7547619D02*
X76771428Y8547619D01*
X76676190Y8404761D01*
X76580952Y8309523D01*
X76485714Y8261904D01*
X77628571Y8119047D02*
X77533333Y8166666D01*
X77485714Y8214285D01*
X77438095Y8309523D01*
X77438095Y8357142D01*
X77485714Y8452380D01*
X77533333Y8500000D01*
X77628571Y8547619D01*
X77819047Y8547619D01*
X77914285Y8500000D01*
X77961904Y8452380D01*
X78009523Y8357142D01*
X78009523Y8309523D01*
X77961904Y8214285D01*
X77914285Y8166666D01*
X77819047Y8119047D01*
X77628571Y8119047D01*
X77533333Y8071428D01*
X77485714Y8023809D01*
X77438095Y7928571D01*
X77438095Y7738095D01*
X77485714Y7642857D01*
X77533333Y7595238D01*
X77628571Y7547619D01*
X77819047Y7547619D01*
X77914285Y7595238D01*
X77961904Y7642857D01*
X78009523Y7738095D01*
X78009523Y7928571D01*
X77961904Y8023809D01*
X77914285Y8071428D01*
X77819047Y8119047D01*
X76441904Y-4727857D02*
X76441904Y-5574523D01*
X76139523Y-4244047D02*
X75837142Y-5151190D01*
X76623333Y-5151190D01*
%TO.C,SW14*%
X-1809523Y7595238D02*
X-1666666Y7547619D01*
X-1428571Y7547619D01*
X-1333333Y7595238D01*
X-1285714Y7642857D01*
X-1238095Y7738095D01*
X-1238095Y7833333D01*
X-1285714Y7928571D01*
X-1333333Y7976190D01*
X-1428571Y8023809D01*
X-1619047Y8071428D01*
X-1714285Y8119047D01*
X-1761904Y8166666D01*
X-1809523Y8261904D01*
X-1809523Y8357142D01*
X-1761904Y8452380D01*
X-1714285Y8500000D01*
X-1619047Y8547619D01*
X-1380952Y8547619D01*
X-1238095Y8500000D01*
X-904761Y8547619D02*
X-666666Y7547619D01*
X-476190Y8261904D01*
X-285714Y7547619D01*
X-47619Y8547619D01*
X857142Y7547619D02*
X285714Y7547619D01*
X571428Y7547619D02*
X571428Y8547619D01*
X476190Y8404761D01*
X380952Y8309523D01*
X285714Y8261904D01*
X1714285Y8214285D02*
X1714285Y7547619D01*
X1476190Y8595238D02*
X1238095Y7880952D01*
X1857142Y7880952D01*
X-1880952Y-4452380D02*
X-1309523Y-4452380D01*
X-1595238Y-5452380D02*
X-1595238Y-4452380D01*
X-976190Y-5452380D02*
X-976190Y-4452380D01*
X-23809Y-5452380D02*
X-499999Y-5452380D01*
X-499999Y-4452380D01*
X309523Y-5452380D02*
X309523Y-4452380D01*
X547619Y-4452380D01*
X690476Y-4500000D01*
X785714Y-4595238D01*
X833333Y-4690476D01*
X880952Y-4880952D01*
X880952Y-5023809D01*
X833333Y-5214285D01*
X785714Y-5309523D01*
X690476Y-5404761D01*
X547619Y-5452380D01*
X309523Y-5452380D01*
X1309523Y-4928571D02*
X1642857Y-4928571D01*
X1785714Y-5452380D02*
X1309523Y-5452380D01*
X1309523Y-4452380D01*
X1785714Y-4452380D01*
%TO.C,SW58*%
X79152976Y-49554761D02*
X79295833Y-49602380D01*
X79533928Y-49602380D01*
X79629166Y-49554761D01*
X79676785Y-49507142D01*
X79724404Y-49411904D01*
X79724404Y-49316666D01*
X79676785Y-49221428D01*
X79629166Y-49173809D01*
X79533928Y-49126190D01*
X79343452Y-49078571D01*
X79248214Y-49030952D01*
X79200595Y-48983333D01*
X79152976Y-48888095D01*
X79152976Y-48792857D01*
X79200595Y-48697619D01*
X79248214Y-48650000D01*
X79343452Y-48602380D01*
X79581547Y-48602380D01*
X79724404Y-48650000D01*
X80057738Y-48602380D02*
X80295833Y-49602380D01*
X80486309Y-48888095D01*
X80676785Y-49602380D01*
X80914880Y-48602380D01*
X81772023Y-48602380D02*
X81295833Y-48602380D01*
X81248214Y-49078571D01*
X81295833Y-49030952D01*
X81391071Y-48983333D01*
X81629166Y-48983333D01*
X81724404Y-49030952D01*
X81772023Y-49078571D01*
X81819642Y-49173809D01*
X81819642Y-49411904D01*
X81772023Y-49507142D01*
X81724404Y-49554761D01*
X81629166Y-49602380D01*
X81391071Y-49602380D01*
X81295833Y-49554761D01*
X81248214Y-49507142D01*
X82391071Y-49030952D02*
X82295833Y-48983333D01*
X82248214Y-48935714D01*
X82200595Y-48840476D01*
X82200595Y-48792857D01*
X82248214Y-48697619D01*
X82295833Y-48650000D01*
X82391071Y-48602380D01*
X82581547Y-48602380D01*
X82676785Y-48650000D01*
X82724404Y-48697619D01*
X82772023Y-48792857D01*
X82772023Y-48840476D01*
X82724404Y-48935714D01*
X82676785Y-48983333D01*
X82581547Y-49030952D01*
X82391071Y-49030952D01*
X82295833Y-49078571D01*
X82248214Y-49126190D01*
X82200595Y-49221428D01*
X82200595Y-49411904D01*
X82248214Y-49507142D01*
X82295833Y-49554761D01*
X82391071Y-49602380D01*
X82581547Y-49602380D01*
X82676785Y-49554761D01*
X82724404Y-49507142D01*
X82772023Y-49411904D01*
X82772023Y-49221428D01*
X82724404Y-49126190D01*
X82676785Y-49078571D01*
X82581547Y-49030952D01*
X81272023Y-62507142D02*
X81224404Y-62554761D01*
X81081547Y-62602380D01*
X80986309Y-62602380D01*
X80843452Y-62554761D01*
X80748214Y-62459523D01*
X80700595Y-62364285D01*
X80652976Y-62173809D01*
X80652976Y-62030952D01*
X80700595Y-61840476D01*
X80748214Y-61745238D01*
X80843452Y-61650000D01*
X80986309Y-61602380D01*
X81081547Y-61602380D01*
X81224404Y-61650000D01*
X81272023Y-61697619D01*
%TO.C,SW11*%
X226790476Y26645238D02*
X226933333Y26597619D01*
X227171428Y26597619D01*
X227266666Y26645238D01*
X227314285Y26692857D01*
X227361904Y26788095D01*
X227361904Y26883333D01*
X227314285Y26978571D01*
X227266666Y27026190D01*
X227171428Y27073809D01*
X226980952Y27121428D01*
X226885714Y27169047D01*
X226838095Y27216666D01*
X226790476Y27311904D01*
X226790476Y27407142D01*
X226838095Y27502380D01*
X226885714Y27550000D01*
X226980952Y27597619D01*
X227219047Y27597619D01*
X227361904Y27550000D01*
X227695238Y27597619D02*
X227933333Y26597619D01*
X228123809Y27311904D01*
X228314285Y26597619D01*
X228552380Y27597619D01*
X229457142Y26597619D02*
X228885714Y26597619D01*
X229171428Y26597619D02*
X229171428Y27597619D01*
X229076190Y27454761D01*
X228980952Y27359523D01*
X228885714Y27311904D01*
X230409523Y26597619D02*
X229838095Y26597619D01*
X230123809Y26597619D02*
X230123809Y27597619D01*
X230028571Y27454761D01*
X229933333Y27359523D01*
X229838095Y27311904D01*
X227790476Y14121428D02*
X227457142Y14121428D01*
X227457142Y13597619D02*
X227457142Y14597619D01*
X227933333Y14597619D01*
X228838095Y13597619D02*
X228266666Y13597619D01*
X228552380Y13597619D02*
X228552380Y14597619D01*
X228457142Y14454761D01*
X228361904Y14359523D01*
X228266666Y14311904D01*
X229457142Y14597619D02*
X229552380Y14597619D01*
X229647619Y14550000D01*
X229695238Y14502380D01*
X229742857Y14407142D01*
X229790476Y14216666D01*
X229790476Y13978571D01*
X229742857Y13788095D01*
X229695238Y13692857D01*
X229647619Y13645238D01*
X229552380Y13597619D01*
X229457142Y13597619D01*
X229361904Y13645238D01*
X229314285Y13692857D01*
X229266666Y13788095D01*
X229219047Y13978571D01*
X229219047Y14216666D01*
X229266666Y14407142D01*
X229314285Y14502380D01*
X229361904Y14550000D01*
X229457142Y14597619D01*
%TO.C,SW28*%
X2952976Y-11454761D02*
X3095833Y-11502380D01*
X3333928Y-11502380D01*
X3429166Y-11454761D01*
X3476785Y-11407142D01*
X3524404Y-11311904D01*
X3524404Y-11216666D01*
X3476785Y-11121428D01*
X3429166Y-11073809D01*
X3333928Y-11026190D01*
X3143452Y-10978571D01*
X3048214Y-10930952D01*
X3000595Y-10883333D01*
X2952976Y-10788095D01*
X2952976Y-10692857D01*
X3000595Y-10597619D01*
X3048214Y-10550000D01*
X3143452Y-10502380D01*
X3381547Y-10502380D01*
X3524404Y-10550000D01*
X3857738Y-10502380D02*
X4095833Y-11502380D01*
X4286309Y-10788095D01*
X4476785Y-11502380D01*
X4714880Y-10502380D01*
X5048214Y-10597619D02*
X5095833Y-10550000D01*
X5191071Y-10502380D01*
X5429166Y-10502380D01*
X5524404Y-10550000D01*
X5572023Y-10597619D01*
X5619642Y-10692857D01*
X5619642Y-10788095D01*
X5572023Y-10930952D01*
X5000595Y-11502380D01*
X5619642Y-11502380D01*
X6191071Y-10930952D02*
X6095833Y-10883333D01*
X6048214Y-10835714D01*
X6000595Y-10740476D01*
X6000595Y-10692857D01*
X6048214Y-10597619D01*
X6095833Y-10550000D01*
X6191071Y-10502380D01*
X6381547Y-10502380D01*
X6476785Y-10550000D01*
X6524404Y-10597619D01*
X6572023Y-10692857D01*
X6572023Y-10740476D01*
X6524404Y-10835714D01*
X6476785Y-10883333D01*
X6381547Y-10930952D01*
X6191071Y-10930952D01*
X6095833Y-10978571D01*
X6048214Y-11026190D01*
X6000595Y-11121428D01*
X6000595Y-11311904D01*
X6048214Y-11407142D01*
X6095833Y-11454761D01*
X6191071Y-11502380D01*
X6381547Y-11502380D01*
X6476785Y-11454761D01*
X6524404Y-11407142D01*
X6572023Y-11311904D01*
X6572023Y-11121428D01*
X6524404Y-11026190D01*
X6476785Y-10978571D01*
X6381547Y-10930952D01*
X3548214Y-23502380D02*
X4119642Y-23502380D01*
X3833928Y-24502380D02*
X3833928Y-23502380D01*
X4405357Y-24216666D02*
X4881547Y-24216666D01*
X4310119Y-24502380D02*
X4643452Y-23502380D01*
X4976785Y-24502380D01*
X5643452Y-23978571D02*
X5786309Y-24026190D01*
X5833928Y-24073809D01*
X5881547Y-24169047D01*
X5881547Y-24311904D01*
X5833928Y-24407142D01*
X5786309Y-24454761D01*
X5691071Y-24502380D01*
X5310119Y-24502380D01*
X5310119Y-23502380D01*
X5643452Y-23502380D01*
X5738690Y-23550000D01*
X5786309Y-23597619D01*
X5833928Y-23692857D01*
X5833928Y-23788095D01*
X5786309Y-23883333D01*
X5738690Y-23930952D01*
X5643452Y-23978571D01*
X5310119Y-23978571D01*
%TO.C,H11*%
X189261904Y-21064880D02*
X189261904Y-20064880D01*
X189261904Y-20541071D02*
X189833333Y-20541071D01*
X189833333Y-21064880D02*
X189833333Y-20064880D01*
X190833333Y-21064880D02*
X190261904Y-21064880D01*
X190547619Y-21064880D02*
X190547619Y-20064880D01*
X190452380Y-20207738D01*
X190357142Y-20302976D01*
X190261904Y-20350595D01*
X191785714Y-21064880D02*
X191214285Y-21064880D01*
X191500000Y-21064880D02*
X191500000Y-20064880D01*
X191404761Y-20207738D01*
X191309523Y-20302976D01*
X191214285Y-20350595D01*
%TO.C,SW63*%
X174402976Y-49554761D02*
X174545833Y-49602380D01*
X174783928Y-49602380D01*
X174879166Y-49554761D01*
X174926785Y-49507142D01*
X174974404Y-49411904D01*
X174974404Y-49316666D01*
X174926785Y-49221428D01*
X174879166Y-49173809D01*
X174783928Y-49126190D01*
X174593452Y-49078571D01*
X174498214Y-49030952D01*
X174450595Y-48983333D01*
X174402976Y-48888095D01*
X174402976Y-48792857D01*
X174450595Y-48697619D01*
X174498214Y-48650000D01*
X174593452Y-48602380D01*
X174831547Y-48602380D01*
X174974404Y-48650000D01*
X175307738Y-48602380D02*
X175545833Y-49602380D01*
X175736309Y-48888095D01*
X175926785Y-49602380D01*
X176164880Y-48602380D01*
X176974404Y-48602380D02*
X176783928Y-48602380D01*
X176688690Y-48650000D01*
X176641071Y-48697619D01*
X176545833Y-48840476D01*
X176498214Y-49030952D01*
X176498214Y-49411904D01*
X176545833Y-49507142D01*
X176593452Y-49554761D01*
X176688690Y-49602380D01*
X176879166Y-49602380D01*
X176974404Y-49554761D01*
X177022023Y-49507142D01*
X177069642Y-49411904D01*
X177069642Y-49173809D01*
X177022023Y-49078571D01*
X176974404Y-49030952D01*
X176879166Y-48983333D01*
X176688690Y-48983333D01*
X176593452Y-49030952D01*
X176545833Y-49078571D01*
X176498214Y-49173809D01*
X177402976Y-48602380D02*
X178022023Y-48602380D01*
X177688690Y-48983333D01*
X177831547Y-48983333D01*
X177926785Y-49030952D01*
X177974404Y-49078571D01*
X178022023Y-49173809D01*
X178022023Y-49411904D01*
X177974404Y-49507142D01*
X177926785Y-49554761D01*
X177831547Y-49602380D01*
X177545833Y-49602380D01*
X177450595Y-49554761D01*
X177402976Y-49507142D01*
X176260119Y-62554761D02*
X176260119Y-62602380D01*
X176212500Y-62697619D01*
X176164880Y-62745238D01*
%TO.C,H2*%
X80338095Y-79152380D02*
X80338095Y-78152380D01*
X80338095Y-78628571D02*
X80909523Y-78628571D01*
X80909523Y-79152380D02*
X80909523Y-78152380D01*
X81338095Y-78247619D02*
X81385714Y-78200000D01*
X81480952Y-78152380D01*
X81719047Y-78152380D01*
X81814285Y-78200000D01*
X81861904Y-78247619D01*
X81909523Y-78342857D01*
X81909523Y-78438095D01*
X81861904Y-78580952D01*
X81290476Y-79152380D01*
X81909523Y-79152380D01*
%TO.C,H6*%
X106394345Y-73452380D02*
X106394345Y-72452380D01*
X106394345Y-72928571D02*
X106965773Y-72928571D01*
X106965773Y-73452380D02*
X106965773Y-72452380D01*
X107870535Y-72452380D02*
X107680059Y-72452380D01*
X107584821Y-72500000D01*
X107537202Y-72547619D01*
X107441964Y-72690476D01*
X107394345Y-72880952D01*
X107394345Y-73261904D01*
X107441964Y-73357142D01*
X107489583Y-73404761D01*
X107584821Y-73452380D01*
X107775297Y-73452380D01*
X107870535Y-73404761D01*
X107918154Y-73357142D01*
X107965773Y-73261904D01*
X107965773Y-73023809D01*
X107918154Y-72928571D01*
X107870535Y-72880952D01*
X107775297Y-72833333D01*
X107584821Y-72833333D01*
X107489583Y-72880952D01*
X107441964Y-72928571D01*
X107394345Y-73023809D01*
%TO.C,H14*%
X194024404Y21797619D02*
X194024404Y22797619D01*
X194024404Y22321428D02*
X194595833Y22321428D01*
X194595833Y21797619D02*
X194595833Y22797619D01*
X195595833Y21797619D02*
X195024404Y21797619D01*
X195310119Y21797619D02*
X195310119Y22797619D01*
X195214880Y22654761D01*
X195119642Y22559523D01*
X195024404Y22511904D01*
X196452976Y22464285D02*
X196452976Y21797619D01*
X196214880Y22845238D02*
X195976785Y22130952D01*
X196595833Y22130952D01*
%TO.C,SW72*%
X200596726Y-68604761D02*
X200739583Y-68652380D01*
X200977678Y-68652380D01*
X201072916Y-68604761D01*
X201120535Y-68557142D01*
X201168154Y-68461904D01*
X201168154Y-68366666D01*
X201120535Y-68271428D01*
X201072916Y-68223809D01*
X200977678Y-68176190D01*
X200787202Y-68128571D01*
X200691964Y-68080952D01*
X200644345Y-68033333D01*
X200596726Y-67938095D01*
X200596726Y-67842857D01*
X200644345Y-67747619D01*
X200691964Y-67700000D01*
X200787202Y-67652380D01*
X201025297Y-67652380D01*
X201168154Y-67700000D01*
X201501488Y-67652380D02*
X201739583Y-68652380D01*
X201930059Y-67938095D01*
X202120535Y-68652380D01*
X202358630Y-67652380D01*
X202644345Y-67652380D02*
X203311011Y-67652380D01*
X202882440Y-68652380D01*
X203644345Y-67747619D02*
X203691964Y-67700000D01*
X203787202Y-67652380D01*
X204025297Y-67652380D01*
X204120535Y-67700000D01*
X204168154Y-67747619D01*
X204215773Y-67842857D01*
X204215773Y-67938095D01*
X204168154Y-68080952D01*
X203596726Y-68652380D01*
X204215773Y-68652380D01*
X200763392Y-81652380D02*
X200430059Y-81176190D01*
X200191964Y-81652380D02*
X200191964Y-80652380D01*
X200572916Y-80652380D01*
X200668154Y-80700000D01*
X200715773Y-80747619D01*
X200763392Y-80842857D01*
X200763392Y-80985714D01*
X200715773Y-81080952D01*
X200668154Y-81128571D01*
X200572916Y-81176190D01*
X200191964Y-81176190D01*
X200953869Y-81747619D02*
X201715773Y-81747619D01*
X202525297Y-81557142D02*
X202477678Y-81604761D01*
X202334821Y-81652380D01*
X202239583Y-81652380D01*
X202096726Y-81604761D01*
X202001488Y-81509523D01*
X201953869Y-81414285D01*
X201906250Y-81223809D01*
X201906250Y-81080952D01*
X201953869Y-80890476D01*
X202001488Y-80795238D01*
X202096726Y-80700000D01*
X202239583Y-80652380D01*
X202334821Y-80652380D01*
X202477678Y-80700000D01*
X202525297Y-80747619D01*
X202953869Y-81652380D02*
X202953869Y-80652380D01*
X203287202Y-81366666D01*
X203620535Y-80652380D01*
X203620535Y-81652380D01*
X204096726Y-81652380D02*
X204096726Y-80652380D01*
X204334821Y-80652380D01*
X204477678Y-80700000D01*
X204572916Y-80795238D01*
X204620535Y-80890476D01*
X204668154Y-81080952D01*
X204668154Y-81223809D01*
X204620535Y-81414285D01*
X204572916Y-81509523D01*
X204477678Y-81604761D01*
X204334821Y-81652380D01*
X204096726Y-81652380D01*
%TO.C,SW2*%
X34385416Y26645238D02*
X34528273Y26597619D01*
X34766369Y26597619D01*
X34861607Y26645238D01*
X34909226Y26692857D01*
X34956845Y26788095D01*
X34956845Y26883333D01*
X34909226Y26978571D01*
X34861607Y27026190D01*
X34766369Y27073809D01*
X34575892Y27121428D01*
X34480654Y27169047D01*
X34433035Y27216666D01*
X34385416Y27311904D01*
X34385416Y27407142D01*
X34433035Y27502380D01*
X34480654Y27550000D01*
X34575892Y27597619D01*
X34813988Y27597619D01*
X34956845Y27550000D01*
X35290178Y27597619D02*
X35528273Y26597619D01*
X35718750Y27311904D01*
X35909226Y26597619D01*
X36147321Y27597619D01*
X36480654Y27502380D02*
X36528273Y27550000D01*
X36623511Y27597619D01*
X36861607Y27597619D01*
X36956845Y27550000D01*
X37004464Y27502380D01*
X37052083Y27407142D01*
X37052083Y27311904D01*
X37004464Y27169047D01*
X36433035Y26597619D01*
X37052083Y26597619D01*
X35385416Y14121428D02*
X35052083Y14121428D01*
X35052083Y13597619D02*
X35052083Y14597619D01*
X35528273Y14597619D01*
X36433035Y13597619D02*
X35861607Y13597619D01*
X36147321Y13597619D02*
X36147321Y14597619D01*
X36052083Y14454761D01*
X35956845Y14359523D01*
X35861607Y14311904D01*
%TO.C,SW52*%
X202977976Y-30504761D02*
X203120833Y-30552380D01*
X203358928Y-30552380D01*
X203454166Y-30504761D01*
X203501785Y-30457142D01*
X203549404Y-30361904D01*
X203549404Y-30266666D01*
X203501785Y-30171428D01*
X203454166Y-30123809D01*
X203358928Y-30076190D01*
X203168452Y-30028571D01*
X203073214Y-29980952D01*
X203025595Y-29933333D01*
X202977976Y-29838095D01*
X202977976Y-29742857D01*
X203025595Y-29647619D01*
X203073214Y-29600000D01*
X203168452Y-29552380D01*
X203406547Y-29552380D01*
X203549404Y-29600000D01*
X203882738Y-29552380D02*
X204120833Y-30552380D01*
X204311309Y-29838095D01*
X204501785Y-30552380D01*
X204739880Y-29552380D01*
X205597023Y-29552380D02*
X205120833Y-29552380D01*
X205073214Y-30028571D01*
X205120833Y-29980952D01*
X205216071Y-29933333D01*
X205454166Y-29933333D01*
X205549404Y-29980952D01*
X205597023Y-30028571D01*
X205644642Y-30123809D01*
X205644642Y-30361904D01*
X205597023Y-30457142D01*
X205549404Y-30504761D01*
X205454166Y-30552380D01*
X205216071Y-30552380D01*
X205120833Y-30504761D01*
X205073214Y-30457142D01*
X206025595Y-29647619D02*
X206073214Y-29600000D01*
X206168452Y-29552380D01*
X206406547Y-29552380D01*
X206501785Y-29600000D01*
X206549404Y-29647619D01*
X206597023Y-29742857D01*
X206597023Y-29838095D01*
X206549404Y-29980952D01*
X205977976Y-30552380D01*
X206597023Y-30552380D01*
X204835119Y-43504761D02*
X204835119Y-43552380D01*
X204787500Y-43647619D01*
X204739880Y-43695238D01*
X204787500Y-42933333D02*
X204835119Y-42980952D01*
X204787500Y-43028571D01*
X204739880Y-42980952D01*
X204787500Y-42933333D01*
X204787500Y-43028571D01*
%TO.C,SW39*%
X217265476Y-11454761D02*
X217408333Y-11502380D01*
X217646428Y-11502380D01*
X217741666Y-11454761D01*
X217789285Y-11407142D01*
X217836904Y-11311904D01*
X217836904Y-11216666D01*
X217789285Y-11121428D01*
X217741666Y-11073809D01*
X217646428Y-11026190D01*
X217455952Y-10978571D01*
X217360714Y-10930952D01*
X217313095Y-10883333D01*
X217265476Y-10788095D01*
X217265476Y-10692857D01*
X217313095Y-10597619D01*
X217360714Y-10550000D01*
X217455952Y-10502380D01*
X217694047Y-10502380D01*
X217836904Y-10550000D01*
X218170238Y-10502380D02*
X218408333Y-11502380D01*
X218598809Y-10788095D01*
X218789285Y-11502380D01*
X219027380Y-10502380D01*
X219313095Y-10502380D02*
X219932142Y-10502380D01*
X219598809Y-10883333D01*
X219741666Y-10883333D01*
X219836904Y-10930952D01*
X219884523Y-10978571D01*
X219932142Y-11073809D01*
X219932142Y-11311904D01*
X219884523Y-11407142D01*
X219836904Y-11454761D01*
X219741666Y-11502380D01*
X219455952Y-11502380D01*
X219360714Y-11454761D01*
X219313095Y-11407142D01*
X220408333Y-11502380D02*
X220598809Y-11502380D01*
X220694047Y-11454761D01*
X220741666Y-11407142D01*
X220836904Y-11264285D01*
X220884523Y-11073809D01*
X220884523Y-10692857D01*
X220836904Y-10597619D01*
X220789285Y-10550000D01*
X220694047Y-10502380D01*
X220503571Y-10502380D01*
X220408333Y-10550000D01*
X220360714Y-10597619D01*
X220313095Y-10692857D01*
X220313095Y-10930952D01*
X220360714Y-11026190D01*
X220408333Y-11073809D01*
X220503571Y-11121428D01*
X220694047Y-11121428D01*
X220789285Y-11073809D01*
X220836904Y-11026190D01*
X220884523Y-10930952D01*
X219265476Y-24835714D02*
X219027380Y-24835714D01*
X219027380Y-23407142D01*
X219265476Y-23407142D01*
%TO.C,SW29*%
X26765476Y-11454761D02*
X26908333Y-11502380D01*
X27146428Y-11502380D01*
X27241666Y-11454761D01*
X27289285Y-11407142D01*
X27336904Y-11311904D01*
X27336904Y-11216666D01*
X27289285Y-11121428D01*
X27241666Y-11073809D01*
X27146428Y-11026190D01*
X26955952Y-10978571D01*
X26860714Y-10930952D01*
X26813095Y-10883333D01*
X26765476Y-10788095D01*
X26765476Y-10692857D01*
X26813095Y-10597619D01*
X26860714Y-10550000D01*
X26955952Y-10502380D01*
X27194047Y-10502380D01*
X27336904Y-10550000D01*
X27670238Y-10502380D02*
X27908333Y-11502380D01*
X28098809Y-10788095D01*
X28289285Y-11502380D01*
X28527380Y-10502380D01*
X28860714Y-10597619D02*
X28908333Y-10550000D01*
X29003571Y-10502380D01*
X29241666Y-10502380D01*
X29336904Y-10550000D01*
X29384523Y-10597619D01*
X29432142Y-10692857D01*
X29432142Y-10788095D01*
X29384523Y-10930952D01*
X28813095Y-11502380D01*
X29432142Y-11502380D01*
X29908333Y-11502380D02*
X30098809Y-11502380D01*
X30194047Y-11454761D01*
X30241666Y-11407142D01*
X30336904Y-11264285D01*
X30384523Y-11073809D01*
X30384523Y-10692857D01*
X30336904Y-10597619D01*
X30289285Y-10550000D01*
X30194047Y-10502380D01*
X30003571Y-10502380D01*
X29908333Y-10550000D01*
X29860714Y-10597619D01*
X29813095Y-10692857D01*
X29813095Y-10930952D01*
X29860714Y-11026190D01*
X29908333Y-11073809D01*
X30003571Y-11121428D01*
X30194047Y-11121428D01*
X30289285Y-11073809D01*
X30336904Y-11026190D01*
X30384523Y-10930952D01*
X28955952Y-24597619D02*
X28860714Y-24550000D01*
X28765476Y-24454761D01*
X28622619Y-24311904D01*
X28527380Y-24264285D01*
X28432142Y-24264285D01*
X28479761Y-24502380D02*
X28384523Y-24454761D01*
X28289285Y-24359523D01*
X28241666Y-24169047D01*
X28241666Y-23835714D01*
X28289285Y-23645238D01*
X28384523Y-23550000D01*
X28479761Y-23502380D01*
X28670238Y-23502380D01*
X28765476Y-23550000D01*
X28860714Y-23645238D01*
X28908333Y-23835714D01*
X28908333Y-24169047D01*
X28860714Y-24359523D01*
X28765476Y-24454761D01*
X28670238Y-24502380D01*
X28479761Y-24502380D01*
%TO.C,SW25*%
X207740476Y7595238D02*
X207883333Y7547619D01*
X208121428Y7547619D01*
X208216666Y7595238D01*
X208264285Y7642857D01*
X208311904Y7738095D01*
X208311904Y7833333D01*
X208264285Y7928571D01*
X208216666Y7976190D01*
X208121428Y8023809D01*
X207930952Y8071428D01*
X207835714Y8119047D01*
X207788095Y8166666D01*
X207740476Y8261904D01*
X207740476Y8357142D01*
X207788095Y8452380D01*
X207835714Y8500000D01*
X207930952Y8547619D01*
X208169047Y8547619D01*
X208311904Y8500000D01*
X208645238Y8547619D02*
X208883333Y7547619D01*
X209073809Y8261904D01*
X209264285Y7547619D01*
X209502380Y8547619D01*
X209835714Y8452380D02*
X209883333Y8500000D01*
X209978571Y8547619D01*
X210216666Y8547619D01*
X210311904Y8500000D01*
X210359523Y8452380D01*
X210407142Y8357142D01*
X210407142Y8261904D01*
X210359523Y8119047D01*
X209788095Y7547619D01*
X210407142Y7547619D01*
X211311904Y8547619D02*
X210835714Y8547619D01*
X210788095Y8071428D01*
X210835714Y8119047D01*
X210930952Y8166666D01*
X211169047Y8166666D01*
X211264285Y8119047D01*
X211311904Y8071428D01*
X211359523Y7976190D01*
X211359523Y7738095D01*
X211311904Y7642857D01*
X211264285Y7595238D01*
X211169047Y7547619D01*
X210930952Y7547619D01*
X210835714Y7595238D01*
X210788095Y7642857D01*
X209169047Y-5071428D02*
X209930952Y-5071428D01*
%TO.C,SW3*%
X53435416Y26645238D02*
X53578273Y26597619D01*
X53816369Y26597619D01*
X53911607Y26645238D01*
X53959226Y26692857D01*
X54006845Y26788095D01*
X54006845Y26883333D01*
X53959226Y26978571D01*
X53911607Y27026190D01*
X53816369Y27073809D01*
X53625892Y27121428D01*
X53530654Y27169047D01*
X53483035Y27216666D01*
X53435416Y27311904D01*
X53435416Y27407142D01*
X53483035Y27502380D01*
X53530654Y27550000D01*
X53625892Y27597619D01*
X53863988Y27597619D01*
X54006845Y27550000D01*
X54340178Y27597619D02*
X54578273Y26597619D01*
X54768750Y27311904D01*
X54959226Y26597619D01*
X55197321Y27597619D01*
X55483035Y27597619D02*
X56102083Y27597619D01*
X55768750Y27216666D01*
X55911607Y27216666D01*
X56006845Y27169047D01*
X56054464Y27121428D01*
X56102083Y27026190D01*
X56102083Y26788095D01*
X56054464Y26692857D01*
X56006845Y26645238D01*
X55911607Y26597619D01*
X55625892Y26597619D01*
X55530654Y26645238D01*
X55483035Y26692857D01*
X54435416Y14121428D02*
X54102083Y14121428D01*
X54102083Y13597619D02*
X54102083Y14597619D01*
X54578273Y14597619D01*
X54911607Y14502380D02*
X54959226Y14550000D01*
X55054464Y14597619D01*
X55292559Y14597619D01*
X55387797Y14550000D01*
X55435416Y14502380D01*
X55483035Y14407142D01*
X55483035Y14311904D01*
X55435416Y14169047D01*
X54863988Y13597619D01*
X55483035Y13597619D01*
%TO.C,H12*%
X74961904Y-21064880D02*
X74961904Y-20064880D01*
X74961904Y-20541071D02*
X75533333Y-20541071D01*
X75533333Y-21064880D02*
X75533333Y-20064880D01*
X76533333Y-21064880D02*
X75961904Y-21064880D01*
X76247619Y-21064880D02*
X76247619Y-20064880D01*
X76152380Y-20207738D01*
X76057142Y-20302976D01*
X75961904Y-20350595D01*
X76914285Y-20160119D02*
X76961904Y-20112500D01*
X77057142Y-20064880D01*
X77295238Y-20064880D01*
X77390476Y-20112500D01*
X77438095Y-20160119D01*
X77485714Y-20255357D01*
X77485714Y-20350595D01*
X77438095Y-20493452D01*
X76866666Y-21064880D01*
X77485714Y-21064880D01*
%TO.C,SW13*%
X264890476Y26645238D02*
X265033333Y26597619D01*
X265271428Y26597619D01*
X265366666Y26645238D01*
X265414285Y26692857D01*
X265461904Y26788095D01*
X265461904Y26883333D01*
X265414285Y26978571D01*
X265366666Y27026190D01*
X265271428Y27073809D01*
X265080952Y27121428D01*
X264985714Y27169047D01*
X264938095Y27216666D01*
X264890476Y27311904D01*
X264890476Y27407142D01*
X264938095Y27502380D01*
X264985714Y27550000D01*
X265080952Y27597619D01*
X265319047Y27597619D01*
X265461904Y27550000D01*
X265795238Y27597619D02*
X266033333Y26597619D01*
X266223809Y27311904D01*
X266414285Y26597619D01*
X266652380Y27597619D01*
X267557142Y26597619D02*
X266985714Y26597619D01*
X267271428Y26597619D02*
X267271428Y27597619D01*
X267176190Y27454761D01*
X267080952Y27359523D01*
X266985714Y27311904D01*
X267890476Y27597619D02*
X268509523Y27597619D01*
X268176190Y27216666D01*
X268319047Y27216666D01*
X268414285Y27169047D01*
X268461904Y27121428D01*
X268509523Y27026190D01*
X268509523Y26788095D01*
X268461904Y26692857D01*
X268414285Y26645238D01*
X268319047Y26597619D01*
X268033333Y26597619D01*
X267938095Y26645238D01*
X267890476Y26692857D01*
X265890476Y14121428D02*
X265557142Y14121428D01*
X265557142Y13597619D02*
X265557142Y14597619D01*
X266033333Y14597619D01*
X266938095Y13597619D02*
X266366666Y13597619D01*
X266652380Y13597619D02*
X266652380Y14597619D01*
X266557142Y14454761D01*
X266461904Y14359523D01*
X266366666Y14311904D01*
X267319047Y14502380D02*
X267366666Y14550000D01*
X267461904Y14597619D01*
X267700000Y14597619D01*
X267795238Y14550000D01*
X267842857Y14502380D01*
X267890476Y14407142D01*
X267890476Y14311904D01*
X267842857Y14169047D01*
X267271428Y13597619D01*
X267890476Y13597619D01*
%TO.C,H8*%
X106394345Y21797619D02*
X106394345Y22797619D01*
X106394345Y22321428D02*
X106965773Y22321428D01*
X106965773Y21797619D02*
X106965773Y22797619D01*
X107584821Y22369047D02*
X107489583Y22416666D01*
X107441964Y22464285D01*
X107394345Y22559523D01*
X107394345Y22607142D01*
X107441964Y22702380D01*
X107489583Y22750000D01*
X107584821Y22797619D01*
X107775297Y22797619D01*
X107870535Y22750000D01*
X107918154Y22702380D01*
X107965773Y22607142D01*
X107965773Y22559523D01*
X107918154Y22464285D01*
X107870535Y22416666D01*
X107775297Y22369047D01*
X107584821Y22369047D01*
X107489583Y22321428D01*
X107441964Y22273809D01*
X107394345Y22178571D01*
X107394345Y21988095D01*
X107441964Y21892857D01*
X107489583Y21845238D01*
X107584821Y21797619D01*
X107775297Y21797619D01*
X107870535Y21845238D01*
X107918154Y21892857D01*
X107965773Y21988095D01*
X107965773Y22178571D01*
X107918154Y22273809D01*
X107870535Y22321428D01*
X107775297Y22369047D01*
%TO.C,SW49*%
X145827976Y-30504761D02*
X145970833Y-30552380D01*
X146208928Y-30552380D01*
X146304166Y-30504761D01*
X146351785Y-30457142D01*
X146399404Y-30361904D01*
X146399404Y-30266666D01*
X146351785Y-30171428D01*
X146304166Y-30123809D01*
X146208928Y-30076190D01*
X146018452Y-30028571D01*
X145923214Y-29980952D01*
X145875595Y-29933333D01*
X145827976Y-29838095D01*
X145827976Y-29742857D01*
X145875595Y-29647619D01*
X145923214Y-29600000D01*
X146018452Y-29552380D01*
X146256547Y-29552380D01*
X146399404Y-29600000D01*
X146732738Y-29552380D02*
X146970833Y-30552380D01*
X147161309Y-29838095D01*
X147351785Y-30552380D01*
X147589880Y-29552380D01*
X148399404Y-29885714D02*
X148399404Y-30552380D01*
X148161309Y-29504761D02*
X147923214Y-30219047D01*
X148542261Y-30219047D01*
X148970833Y-30552380D02*
X149161309Y-30552380D01*
X149256547Y-30504761D01*
X149304166Y-30457142D01*
X149399404Y-30314285D01*
X149447023Y-30123809D01*
X149447023Y-29742857D01*
X149399404Y-29647619D01*
X149351785Y-29600000D01*
X149256547Y-29552380D01*
X149066071Y-29552380D01*
X148970833Y-29600000D01*
X148923214Y-29647619D01*
X148875595Y-29742857D01*
X148875595Y-29980952D01*
X148923214Y-30076190D01*
X148970833Y-30123809D01*
X149066071Y-30171428D01*
X149256547Y-30171428D01*
X149351785Y-30123809D01*
X149399404Y-30076190D01*
X149447023Y-29980952D01*
X147780357Y-42552380D02*
X147780357Y-43266666D01*
X147732738Y-43409523D01*
X147637500Y-43504761D01*
X147494642Y-43552380D01*
X147399404Y-43552380D01*
%TO.C,SW15*%
X17240476Y7595238D02*
X17383333Y7547619D01*
X17621428Y7547619D01*
X17716666Y7595238D01*
X17764285Y7642857D01*
X17811904Y7738095D01*
X17811904Y7833333D01*
X17764285Y7928571D01*
X17716666Y7976190D01*
X17621428Y8023809D01*
X17430952Y8071428D01*
X17335714Y8119047D01*
X17288095Y8166666D01*
X17240476Y8261904D01*
X17240476Y8357142D01*
X17288095Y8452380D01*
X17335714Y8500000D01*
X17430952Y8547619D01*
X17669047Y8547619D01*
X17811904Y8500000D01*
X18145238Y8547619D02*
X18383333Y7547619D01*
X18573809Y8261904D01*
X18764285Y7547619D01*
X19002380Y8547619D01*
X19907142Y7547619D02*
X19335714Y7547619D01*
X19621428Y7547619D02*
X19621428Y8547619D01*
X19526190Y8404761D01*
X19430952Y8309523D01*
X19335714Y8261904D01*
X20811904Y8547619D02*
X20335714Y8547619D01*
X20288095Y8071428D01*
X20335714Y8119047D01*
X20430952Y8166666D01*
X20669047Y8166666D01*
X20764285Y8119047D01*
X20811904Y8071428D01*
X20859523Y7976190D01*
X20859523Y7738095D01*
X20811904Y7642857D01*
X20764285Y7595238D01*
X20669047Y7547619D01*
X20430952Y7547619D01*
X20335714Y7595238D01*
X20288095Y7642857D01*
X19335714Y-5452380D02*
X18764285Y-5452380D01*
X19050000Y-5452380D02*
X19050000Y-4452380D01*
X18954761Y-4595238D01*
X18859523Y-4690476D01*
X18764285Y-4738095D01*
%TO.C,SW12*%
X245840476Y26645238D02*
X245983333Y26597619D01*
X246221428Y26597619D01*
X246316666Y26645238D01*
X246364285Y26692857D01*
X246411904Y26788095D01*
X246411904Y26883333D01*
X246364285Y26978571D01*
X246316666Y27026190D01*
X246221428Y27073809D01*
X246030952Y27121428D01*
X245935714Y27169047D01*
X245888095Y27216666D01*
X245840476Y27311904D01*
X245840476Y27407142D01*
X245888095Y27502380D01*
X245935714Y27550000D01*
X246030952Y27597619D01*
X246269047Y27597619D01*
X246411904Y27550000D01*
X246745238Y27597619D02*
X246983333Y26597619D01*
X247173809Y27311904D01*
X247364285Y26597619D01*
X247602380Y27597619D01*
X248507142Y26597619D02*
X247935714Y26597619D01*
X248221428Y26597619D02*
X248221428Y27597619D01*
X248126190Y27454761D01*
X248030952Y27359523D01*
X247935714Y27311904D01*
X248888095Y27502380D02*
X248935714Y27550000D01*
X249030952Y27597619D01*
X249269047Y27597619D01*
X249364285Y27550000D01*
X249411904Y27502380D01*
X249459523Y27407142D01*
X249459523Y27311904D01*
X249411904Y27169047D01*
X248840476Y26597619D01*
X249459523Y26597619D01*
X246840476Y14121428D02*
X246507142Y14121428D01*
X246507142Y13597619D02*
X246507142Y14597619D01*
X246983333Y14597619D01*
X247888095Y13597619D02*
X247316666Y13597619D01*
X247602380Y13597619D02*
X247602380Y14597619D01*
X247507142Y14454761D01*
X247411904Y14359523D01*
X247316666Y14311904D01*
X248840476Y13597619D02*
X248269047Y13597619D01*
X248554761Y13597619D02*
X248554761Y14597619D01*
X248459523Y14454761D01*
X248364285Y14359523D01*
X248269047Y14311904D01*
%TO.C,SW67*%
X-1809523Y-68604761D02*
X-1666666Y-68652380D01*
X-1428571Y-68652380D01*
X-1333333Y-68604761D01*
X-1285714Y-68557142D01*
X-1238095Y-68461904D01*
X-1238095Y-68366666D01*
X-1285714Y-68271428D01*
X-1333333Y-68223809D01*
X-1428571Y-68176190D01*
X-1619047Y-68128571D01*
X-1714285Y-68080952D01*
X-1761904Y-68033333D01*
X-1809523Y-67938095D01*
X-1809523Y-67842857D01*
X-1761904Y-67747619D01*
X-1714285Y-67700000D01*
X-1619047Y-67652380D01*
X-1380952Y-67652380D01*
X-1238095Y-67700000D01*
X-904761Y-67652380D02*
X-666666Y-68652380D01*
X-476190Y-67938095D01*
X-285714Y-68652380D01*
X-47619Y-67652380D01*
X761904Y-67652380D02*
X571428Y-67652380D01*
X476190Y-67700000D01*
X428571Y-67747619D01*
X333333Y-67890476D01*
X285714Y-68080952D01*
X285714Y-68461904D01*
X333333Y-68557142D01*
X380952Y-68604761D01*
X476190Y-68652380D01*
X666666Y-68652380D01*
X761904Y-68604761D01*
X809523Y-68557142D01*
X857142Y-68461904D01*
X857142Y-68223809D01*
X809523Y-68128571D01*
X761904Y-68080952D01*
X666666Y-68033333D01*
X476190Y-68033333D01*
X380952Y-68080952D01*
X333333Y-68128571D01*
X285714Y-68223809D01*
X1190476Y-67652380D02*
X1857142Y-67652380D01*
X1428571Y-68652380D01*
X-380952Y-81128571D02*
X-714285Y-81128571D01*
X-714285Y-81652380D02*
X-714285Y-80652380D01*
X-238095Y-80652380D01*
X142857Y-81652380D02*
X142857Y-80652380D01*
X714285Y-81652380D01*
X714285Y-80652380D01*
%TO.C,SW57*%
X60102976Y-49554761D02*
X60245833Y-49602380D01*
X60483928Y-49602380D01*
X60579166Y-49554761D01*
X60626785Y-49507142D01*
X60674404Y-49411904D01*
X60674404Y-49316666D01*
X60626785Y-49221428D01*
X60579166Y-49173809D01*
X60483928Y-49126190D01*
X60293452Y-49078571D01*
X60198214Y-49030952D01*
X60150595Y-48983333D01*
X60102976Y-48888095D01*
X60102976Y-48792857D01*
X60150595Y-48697619D01*
X60198214Y-48650000D01*
X60293452Y-48602380D01*
X60531547Y-48602380D01*
X60674404Y-48650000D01*
X61007738Y-48602380D02*
X61245833Y-49602380D01*
X61436309Y-48888095D01*
X61626785Y-49602380D01*
X61864880Y-48602380D01*
X62722023Y-48602380D02*
X62245833Y-48602380D01*
X62198214Y-49078571D01*
X62245833Y-49030952D01*
X62341071Y-48983333D01*
X62579166Y-48983333D01*
X62674404Y-49030952D01*
X62722023Y-49078571D01*
X62769642Y-49173809D01*
X62769642Y-49411904D01*
X62722023Y-49507142D01*
X62674404Y-49554761D01*
X62579166Y-49602380D01*
X62341071Y-49602380D01*
X62245833Y-49554761D01*
X62198214Y-49507142D01*
X63102976Y-48602380D02*
X63769642Y-48602380D01*
X63341071Y-49602380D01*
X61579166Y-61602380D02*
X62245833Y-62602380D01*
X62245833Y-61602380D02*
X61579166Y-62602380D01*
%TO.C,SW8*%
X160591666Y26645238D02*
X160734523Y26597619D01*
X160972619Y26597619D01*
X161067857Y26645238D01*
X161115476Y26692857D01*
X161163095Y26788095D01*
X161163095Y26883333D01*
X161115476Y26978571D01*
X161067857Y27026190D01*
X160972619Y27073809D01*
X160782142Y27121428D01*
X160686904Y27169047D01*
X160639285Y27216666D01*
X160591666Y27311904D01*
X160591666Y27407142D01*
X160639285Y27502380D01*
X160686904Y27550000D01*
X160782142Y27597619D01*
X161020238Y27597619D01*
X161163095Y27550000D01*
X161496428Y27597619D02*
X161734523Y26597619D01*
X161925000Y27311904D01*
X162115476Y26597619D01*
X162353571Y27597619D01*
X162877380Y27169047D02*
X162782142Y27216666D01*
X162734523Y27264285D01*
X162686904Y27359523D01*
X162686904Y27407142D01*
X162734523Y27502380D01*
X162782142Y27550000D01*
X162877380Y27597619D01*
X163067857Y27597619D01*
X163163095Y27550000D01*
X163210714Y27502380D01*
X163258333Y27407142D01*
X163258333Y27359523D01*
X163210714Y27264285D01*
X163163095Y27216666D01*
X163067857Y27169047D01*
X162877380Y27169047D01*
X162782142Y27121428D01*
X162734523Y27073809D01*
X162686904Y26978571D01*
X162686904Y26788095D01*
X162734523Y26692857D01*
X162782142Y26645238D01*
X162877380Y26597619D01*
X163067857Y26597619D01*
X163163095Y26645238D01*
X163210714Y26692857D01*
X163258333Y26788095D01*
X163258333Y26978571D01*
X163210714Y27073809D01*
X163163095Y27121428D01*
X163067857Y27169047D01*
X161591666Y14121428D02*
X161258333Y14121428D01*
X161258333Y13597619D02*
X161258333Y14597619D01*
X161734523Y14597619D01*
X162020238Y14597619D02*
X162686904Y14597619D01*
X162258333Y13597619D01*
%TO.C,SW5*%
X91535416Y26645238D02*
X91678273Y26597619D01*
X91916369Y26597619D01*
X92011607Y26645238D01*
X92059226Y26692857D01*
X92106845Y26788095D01*
X92106845Y26883333D01*
X92059226Y26978571D01*
X92011607Y27026190D01*
X91916369Y27073809D01*
X91725892Y27121428D01*
X91630654Y27169047D01*
X91583035Y27216666D01*
X91535416Y27311904D01*
X91535416Y27407142D01*
X91583035Y27502380D01*
X91630654Y27550000D01*
X91725892Y27597619D01*
X91963988Y27597619D01*
X92106845Y27550000D01*
X92440178Y27597619D02*
X92678273Y26597619D01*
X92868750Y27311904D01*
X93059226Y26597619D01*
X93297321Y27597619D01*
X94154464Y27597619D02*
X93678273Y27597619D01*
X93630654Y27121428D01*
X93678273Y27169047D01*
X93773511Y27216666D01*
X94011607Y27216666D01*
X94106845Y27169047D01*
X94154464Y27121428D01*
X94202083Y27026190D01*
X94202083Y26788095D01*
X94154464Y26692857D01*
X94106845Y26645238D01*
X94011607Y26597619D01*
X93773511Y26597619D01*
X93678273Y26645238D01*
X93630654Y26692857D01*
X92535416Y14121428D02*
X92202083Y14121428D01*
X92202083Y13597619D02*
X92202083Y14597619D01*
X92678273Y14597619D01*
X93487797Y14264285D02*
X93487797Y13597619D01*
X93249702Y14645238D02*
X93011607Y13930952D01*
X93630654Y13930952D01*
%TO.C,SW41*%
X260127976Y-11454761D02*
X260270833Y-11502380D01*
X260508928Y-11502380D01*
X260604166Y-11454761D01*
X260651785Y-11407142D01*
X260699404Y-11311904D01*
X260699404Y-11216666D01*
X260651785Y-11121428D01*
X260604166Y-11073809D01*
X260508928Y-11026190D01*
X260318452Y-10978571D01*
X260223214Y-10930952D01*
X260175595Y-10883333D01*
X260127976Y-10788095D01*
X260127976Y-10692857D01*
X260175595Y-10597619D01*
X260223214Y-10550000D01*
X260318452Y-10502380D01*
X260556547Y-10502380D01*
X260699404Y-10550000D01*
X261032738Y-10502380D02*
X261270833Y-11502380D01*
X261461309Y-10788095D01*
X261651785Y-11502380D01*
X261889880Y-10502380D01*
X262699404Y-10835714D02*
X262699404Y-11502380D01*
X262461309Y-10454761D02*
X262223214Y-11169047D01*
X262842261Y-11169047D01*
X263747023Y-11502380D02*
X263175595Y-11502380D01*
X263461309Y-11502380D02*
X263461309Y-10502380D01*
X263366071Y-10645238D01*
X263270833Y-10740476D01*
X263175595Y-10788095D01*
X261508928Y-23407142D02*
X262366071Y-24692857D01*
%TO.C,SW24*%
X188690476Y7595238D02*
X188833333Y7547619D01*
X189071428Y7547619D01*
X189166666Y7595238D01*
X189214285Y7642857D01*
X189261904Y7738095D01*
X189261904Y7833333D01*
X189214285Y7928571D01*
X189166666Y7976190D01*
X189071428Y8023809D01*
X188880952Y8071428D01*
X188785714Y8119047D01*
X188738095Y8166666D01*
X188690476Y8261904D01*
X188690476Y8357142D01*
X188738095Y8452380D01*
X188785714Y8500000D01*
X188880952Y8547619D01*
X189119047Y8547619D01*
X189261904Y8500000D01*
X189595238Y8547619D02*
X189833333Y7547619D01*
X190023809Y8261904D01*
X190214285Y7547619D01*
X190452380Y8547619D01*
X190785714Y8452380D02*
X190833333Y8500000D01*
X190928571Y8547619D01*
X191166666Y8547619D01*
X191261904Y8500000D01*
X191309523Y8452380D01*
X191357142Y8357142D01*
X191357142Y8261904D01*
X191309523Y8119047D01*
X190738095Y7547619D01*
X191357142Y7547619D01*
X192214285Y8214285D02*
X192214285Y7547619D01*
X191976190Y8595238D02*
X191738095Y7880952D01*
X192357142Y7880952D01*
X190452380Y-4452380D02*
X190547619Y-4452380D01*
X190642857Y-4500000D01*
X190690476Y-4547619D01*
X190738095Y-4642857D01*
X190785714Y-4833333D01*
X190785714Y-5071428D01*
X190738095Y-5261904D01*
X190690476Y-5357142D01*
X190642857Y-5404761D01*
X190547619Y-5452380D01*
X190452380Y-5452380D01*
X190357142Y-5404761D01*
X190309523Y-5357142D01*
X190261904Y-5261904D01*
X190214285Y-5071428D01*
X190214285Y-4833333D01*
X190261904Y-4642857D01*
X190309523Y-4547619D01*
X190357142Y-4500000D01*
X190452380Y-4452380D01*
%TO.C,SW1*%
X-1333333Y26645238D02*
X-1190476Y26597619D01*
X-952380Y26597619D01*
X-857142Y26645238D01*
X-809523Y26692857D01*
X-761904Y26788095D01*
X-761904Y26883333D01*
X-809523Y26978571D01*
X-857142Y27026190D01*
X-952380Y27073809D01*
X-1142857Y27121428D01*
X-1238095Y27169047D01*
X-1285714Y27216666D01*
X-1333333Y27311904D01*
X-1333333Y27407142D01*
X-1285714Y27502380D01*
X-1238095Y27550000D01*
X-1142857Y27597619D01*
X-904761Y27597619D01*
X-761904Y27550000D01*
X-428571Y27597619D02*
X-190476Y26597619D01*
X0Y27311904D01*
X190476Y26597619D01*
X428571Y27597619D01*
X1333333Y26597619D02*
X761904Y26597619D01*
X1047619Y26597619D02*
X1047619Y27597619D01*
X952380Y27454761D01*
X857142Y27359523D01*
X761904Y27311904D01*
X-1190476Y14121428D02*
X-857142Y14121428D01*
X-714285Y13597619D02*
X-1190476Y13597619D01*
X-1190476Y14597619D01*
X-714285Y14597619D01*
X-333333Y13645238D02*
X-190476Y13597619D01*
X47619Y13597619D01*
X142857Y13645238D01*
X190476Y13692857D01*
X238095Y13788095D01*
X238095Y13883333D01*
X190476Y13978571D01*
X142857Y14026190D01*
X47619Y14073809D01*
X-142857Y14121428D01*
X-238095Y14169047D01*
X-285714Y14216666D01*
X-333333Y14311904D01*
X-333333Y14407142D01*
X-285714Y14502380D01*
X-238095Y14550000D01*
X-142857Y14597619D01*
X95238Y14597619D01*
X238095Y14550000D01*
X1238095Y13692857D02*
X1190476Y13645238D01*
X1047619Y13597619D01*
X952380Y13597619D01*
X809523Y13645238D01*
X714285Y13740476D01*
X666666Y13835714D01*
X619047Y14026190D01*
X619047Y14169047D01*
X666666Y14359523D01*
X714285Y14454761D01*
X809523Y14550000D01*
X952380Y14597619D01*
X1047619Y14597619D01*
X1190476Y14550000D01*
X1238095Y14502380D01*
%TO.C,SW69*%
X36290476Y-68604761D02*
X36433333Y-68652380D01*
X36671428Y-68652380D01*
X36766666Y-68604761D01*
X36814285Y-68557142D01*
X36861904Y-68461904D01*
X36861904Y-68366666D01*
X36814285Y-68271428D01*
X36766666Y-68223809D01*
X36671428Y-68176190D01*
X36480952Y-68128571D01*
X36385714Y-68080952D01*
X36338095Y-68033333D01*
X36290476Y-67938095D01*
X36290476Y-67842857D01*
X36338095Y-67747619D01*
X36385714Y-67700000D01*
X36480952Y-67652380D01*
X36719047Y-67652380D01*
X36861904Y-67700000D01*
X37195238Y-67652380D02*
X37433333Y-68652380D01*
X37623809Y-67938095D01*
X37814285Y-68652380D01*
X38052380Y-67652380D01*
X38861904Y-67652380D02*
X38671428Y-67652380D01*
X38576190Y-67700000D01*
X38528571Y-67747619D01*
X38433333Y-67890476D01*
X38385714Y-68080952D01*
X38385714Y-68461904D01*
X38433333Y-68557142D01*
X38480952Y-68604761D01*
X38576190Y-68652380D01*
X38766666Y-68652380D01*
X38861904Y-68604761D01*
X38909523Y-68557142D01*
X38957142Y-68461904D01*
X38957142Y-68223809D01*
X38909523Y-68128571D01*
X38861904Y-68080952D01*
X38766666Y-68033333D01*
X38576190Y-68033333D01*
X38480952Y-68080952D01*
X38433333Y-68128571D01*
X38385714Y-68223809D01*
X39433333Y-68652380D02*
X39623809Y-68652380D01*
X39719047Y-68604761D01*
X39766666Y-68557142D01*
X39861904Y-68414285D01*
X39909523Y-68223809D01*
X39909523Y-67842857D01*
X39861904Y-67747619D01*
X39814285Y-67700000D01*
X39719047Y-67652380D01*
X39528571Y-67652380D01*
X39433333Y-67700000D01*
X39385714Y-67747619D01*
X39338095Y-67842857D01*
X39338095Y-68080952D01*
X39385714Y-68176190D01*
X39433333Y-68223809D01*
X39528571Y-68271428D01*
X39719047Y-68271428D01*
X39814285Y-68223809D01*
X39861904Y-68176190D01*
X39909523Y-68080952D01*
X36814285Y-81652380D02*
X36338095Y-81652380D01*
X36338095Y-80652380D01*
X36909523Y-81747619D02*
X37671428Y-81747619D01*
X37861904Y-81366666D02*
X38338095Y-81366666D01*
X37766666Y-81652380D02*
X38100000Y-80652380D01*
X38433333Y-81652380D01*
X39242857Y-81652380D02*
X38766666Y-81652380D01*
X38766666Y-80652380D01*
X39433333Y-80652380D02*
X40004761Y-80652380D01*
X39719047Y-81652380D02*
X39719047Y-80652380D01*
%TO.C,SW9*%
X179641666Y26645238D02*
X179784523Y26597619D01*
X180022619Y26597619D01*
X180117857Y26645238D01*
X180165476Y26692857D01*
X180213095Y26788095D01*
X180213095Y26883333D01*
X180165476Y26978571D01*
X180117857Y27026190D01*
X180022619Y27073809D01*
X179832142Y27121428D01*
X179736904Y27169047D01*
X179689285Y27216666D01*
X179641666Y27311904D01*
X179641666Y27407142D01*
X179689285Y27502380D01*
X179736904Y27550000D01*
X179832142Y27597619D01*
X180070238Y27597619D01*
X180213095Y27550000D01*
X180546428Y27597619D02*
X180784523Y26597619D01*
X180975000Y27311904D01*
X181165476Y26597619D01*
X181403571Y27597619D01*
X181832142Y26597619D02*
X182022619Y26597619D01*
X182117857Y26645238D01*
X182165476Y26692857D01*
X182260714Y26835714D01*
X182308333Y27026190D01*
X182308333Y27407142D01*
X182260714Y27502380D01*
X182213095Y27550000D01*
X182117857Y27597619D01*
X181927380Y27597619D01*
X181832142Y27550000D01*
X181784523Y27502380D01*
X181736904Y27407142D01*
X181736904Y27169047D01*
X181784523Y27073809D01*
X181832142Y27026190D01*
X181927380Y26978571D01*
X182117857Y26978571D01*
X182213095Y27026190D01*
X182260714Y27073809D01*
X182308333Y27169047D01*
X180641666Y14121428D02*
X180308333Y14121428D01*
X180308333Y13597619D02*
X180308333Y14597619D01*
X180784523Y14597619D01*
X181308333Y14169047D02*
X181213095Y14216666D01*
X181165476Y14264285D01*
X181117857Y14359523D01*
X181117857Y14407142D01*
X181165476Y14502380D01*
X181213095Y14550000D01*
X181308333Y14597619D01*
X181498809Y14597619D01*
X181594047Y14550000D01*
X181641666Y14502380D01*
X181689285Y14407142D01*
X181689285Y14359523D01*
X181641666Y14264285D01*
X181594047Y14216666D01*
X181498809Y14169047D01*
X181308333Y14169047D01*
X181213095Y14121428D01*
X181165476Y14073809D01*
X181117857Y13978571D01*
X181117857Y13788095D01*
X181165476Y13692857D01*
X181213095Y13645238D01*
X181308333Y13597619D01*
X181498809Y13597619D01*
X181594047Y13645238D01*
X181641666Y13692857D01*
X181689285Y13788095D01*
X181689285Y13978571D01*
X181641666Y14073809D01*
X181594047Y14121428D01*
X181498809Y14169047D01*
%TO.C,SW54*%
X252984226Y-30504761D02*
X253127083Y-30552380D01*
X253365178Y-30552380D01*
X253460416Y-30504761D01*
X253508035Y-30457142D01*
X253555654Y-30361904D01*
X253555654Y-30266666D01*
X253508035Y-30171428D01*
X253460416Y-30123809D01*
X253365178Y-30076190D01*
X253174702Y-30028571D01*
X253079464Y-29980952D01*
X253031845Y-29933333D01*
X252984226Y-29838095D01*
X252984226Y-29742857D01*
X253031845Y-29647619D01*
X253079464Y-29600000D01*
X253174702Y-29552380D01*
X253412797Y-29552380D01*
X253555654Y-29600000D01*
X253888988Y-29552380D02*
X254127083Y-30552380D01*
X254317559Y-29838095D01*
X254508035Y-30552380D01*
X254746130Y-29552380D01*
X255603273Y-29552380D02*
X255127083Y-29552380D01*
X255079464Y-30028571D01*
X255127083Y-29980952D01*
X255222321Y-29933333D01*
X255460416Y-29933333D01*
X255555654Y-29980952D01*
X255603273Y-30028571D01*
X255650892Y-30123809D01*
X255650892Y-30361904D01*
X255603273Y-30457142D01*
X255555654Y-30504761D01*
X255460416Y-30552380D01*
X255222321Y-30552380D01*
X255127083Y-30504761D01*
X255079464Y-30457142D01*
X256508035Y-29885714D02*
X256508035Y-30552380D01*
X256269940Y-29504761D02*
X256031845Y-30219047D01*
X256650892Y-30219047D01*
X252722321Y-43028571D02*
X253055654Y-43028571D01*
X253198511Y-43552380D02*
X252722321Y-43552380D01*
X252722321Y-42552380D01*
X253198511Y-42552380D01*
X253627083Y-43552380D02*
X253627083Y-42552380D01*
X254198511Y-43552380D01*
X254198511Y-42552380D01*
X254531845Y-42552380D02*
X255103273Y-42552380D01*
X254817559Y-43552380D02*
X254817559Y-42552380D01*
X255436607Y-43028571D02*
X255769940Y-43028571D01*
X255912797Y-43552380D02*
X255436607Y-43552380D01*
X255436607Y-42552380D01*
X255912797Y-42552380D01*
X256912797Y-43552380D02*
X256579464Y-43076190D01*
X256341369Y-43552380D02*
X256341369Y-42552380D01*
X256722321Y-42552380D01*
X256817559Y-42600000D01*
X256865178Y-42647619D01*
X256912797Y-42742857D01*
X256912797Y-42885714D01*
X256865178Y-42980952D01*
X256817559Y-43028571D01*
X256722321Y-43076190D01*
X256341369Y-43076190D01*
%TO.C,H9*%
X256413095Y-75833630D02*
X256413095Y-74833630D01*
X256413095Y-75309821D02*
X256984523Y-75309821D01*
X256984523Y-75833630D02*
X256984523Y-74833630D01*
X257508333Y-75833630D02*
X257698809Y-75833630D01*
X257794047Y-75786011D01*
X257841666Y-75738392D01*
X257936904Y-75595535D01*
X257984523Y-75405059D01*
X257984523Y-75024107D01*
X257936904Y-74928869D01*
X257889285Y-74881250D01*
X257794047Y-74833630D01*
X257603571Y-74833630D01*
X257508333Y-74881250D01*
X257460714Y-74928869D01*
X257413095Y-75024107D01*
X257413095Y-75262202D01*
X257460714Y-75357440D01*
X257508333Y-75405059D01*
X257603571Y-75452678D01*
X257794047Y-75452678D01*
X257889285Y-75405059D01*
X257936904Y-75357440D01*
X257984523Y-75262202D01*
%TO.C,H4*%
X244538095Y-4952380D02*
X244538095Y-3952380D01*
X244538095Y-4428571D02*
X245109523Y-4428571D01*
X245109523Y-4952380D02*
X245109523Y-3952380D01*
X246014285Y-4285714D02*
X246014285Y-4952380D01*
X245776190Y-3904761D02*
X245538095Y-4619047D01*
X246157142Y-4619047D01*
%TO.C,SW47*%
X107727976Y-30504761D02*
X107870833Y-30552380D01*
X108108928Y-30552380D01*
X108204166Y-30504761D01*
X108251785Y-30457142D01*
X108299404Y-30361904D01*
X108299404Y-30266666D01*
X108251785Y-30171428D01*
X108204166Y-30123809D01*
X108108928Y-30076190D01*
X107918452Y-30028571D01*
X107823214Y-29980952D01*
X107775595Y-29933333D01*
X107727976Y-29838095D01*
X107727976Y-29742857D01*
X107775595Y-29647619D01*
X107823214Y-29600000D01*
X107918452Y-29552380D01*
X108156547Y-29552380D01*
X108299404Y-29600000D01*
X108632738Y-29552380D02*
X108870833Y-30552380D01*
X109061309Y-29838095D01*
X109251785Y-30552380D01*
X109489880Y-29552380D01*
X110299404Y-29885714D02*
X110299404Y-30552380D01*
X110061309Y-29504761D02*
X109823214Y-30219047D01*
X110442261Y-30219047D01*
X110727976Y-29552380D02*
X111394642Y-29552380D01*
X110966071Y-30552380D01*
X109799404Y-42600000D02*
X109704166Y-42552380D01*
X109561309Y-42552380D01*
X109418452Y-42600000D01*
X109323214Y-42695238D01*
X109275595Y-42790476D01*
X109227976Y-42980952D01*
X109227976Y-43123809D01*
X109275595Y-43314285D01*
X109323214Y-43409523D01*
X109418452Y-43504761D01*
X109561309Y-43552380D01*
X109656547Y-43552380D01*
X109799404Y-43504761D01*
X109847023Y-43457142D01*
X109847023Y-43123809D01*
X109656547Y-43123809D01*
%TO.C,SW51*%
X183927976Y-30504761D02*
X184070833Y-30552380D01*
X184308928Y-30552380D01*
X184404166Y-30504761D01*
X184451785Y-30457142D01*
X184499404Y-30361904D01*
X184499404Y-30266666D01*
X184451785Y-30171428D01*
X184404166Y-30123809D01*
X184308928Y-30076190D01*
X184118452Y-30028571D01*
X184023214Y-29980952D01*
X183975595Y-29933333D01*
X183927976Y-29838095D01*
X183927976Y-29742857D01*
X183975595Y-29647619D01*
X184023214Y-29600000D01*
X184118452Y-29552380D01*
X184356547Y-29552380D01*
X184499404Y-29600000D01*
X184832738Y-29552380D02*
X185070833Y-30552380D01*
X185261309Y-29838095D01*
X185451785Y-30552380D01*
X185689880Y-29552380D01*
X186547023Y-29552380D02*
X186070833Y-29552380D01*
X186023214Y-30028571D01*
X186070833Y-29980952D01*
X186166071Y-29933333D01*
X186404166Y-29933333D01*
X186499404Y-29980952D01*
X186547023Y-30028571D01*
X186594642Y-30123809D01*
X186594642Y-30361904D01*
X186547023Y-30457142D01*
X186499404Y-30504761D01*
X186404166Y-30552380D01*
X186166071Y-30552380D01*
X186070833Y-30504761D01*
X186023214Y-30457142D01*
X187547023Y-30552380D02*
X186975595Y-30552380D01*
X187261309Y-30552380D02*
X187261309Y-29552380D01*
X187166071Y-29695238D01*
X187070833Y-29790476D01*
X186975595Y-29838095D01*
X186047023Y-43552380D02*
X185570833Y-43552380D01*
X185570833Y-42552380D01*
%TO.C,SW56*%
X41052976Y-49554761D02*
X41195833Y-49602380D01*
X41433928Y-49602380D01*
X41529166Y-49554761D01*
X41576785Y-49507142D01*
X41624404Y-49411904D01*
X41624404Y-49316666D01*
X41576785Y-49221428D01*
X41529166Y-49173809D01*
X41433928Y-49126190D01*
X41243452Y-49078571D01*
X41148214Y-49030952D01*
X41100595Y-48983333D01*
X41052976Y-48888095D01*
X41052976Y-48792857D01*
X41100595Y-48697619D01*
X41148214Y-48650000D01*
X41243452Y-48602380D01*
X41481547Y-48602380D01*
X41624404Y-48650000D01*
X41957738Y-48602380D02*
X42195833Y-49602380D01*
X42386309Y-48888095D01*
X42576785Y-49602380D01*
X42814880Y-48602380D01*
X43672023Y-48602380D02*
X43195833Y-48602380D01*
X43148214Y-49078571D01*
X43195833Y-49030952D01*
X43291071Y-48983333D01*
X43529166Y-48983333D01*
X43624404Y-49030952D01*
X43672023Y-49078571D01*
X43719642Y-49173809D01*
X43719642Y-49411904D01*
X43672023Y-49507142D01*
X43624404Y-49554761D01*
X43529166Y-49602380D01*
X43291071Y-49602380D01*
X43195833Y-49554761D01*
X43148214Y-49507142D01*
X44576785Y-48602380D02*
X44386309Y-48602380D01*
X44291071Y-48650000D01*
X44243452Y-48697619D01*
X44148214Y-48840476D01*
X44100595Y-49030952D01*
X44100595Y-49411904D01*
X44148214Y-49507142D01*
X44195833Y-49554761D01*
X44291071Y-49602380D01*
X44481547Y-49602380D01*
X44576785Y-49554761D01*
X44624404Y-49507142D01*
X44672023Y-49411904D01*
X44672023Y-49173809D01*
X44624404Y-49078571D01*
X44576785Y-49030952D01*
X44481547Y-48983333D01*
X44291071Y-48983333D01*
X44195833Y-49030952D01*
X44148214Y-49078571D01*
X44100595Y-49173809D01*
X42529166Y-61602380D02*
X43195833Y-61602380D01*
X42529166Y-62602380D01*
X43195833Y-62602380D01*
%TO.C,SW75*%
X264890476Y-68604761D02*
X265033333Y-68652380D01*
X265271428Y-68652380D01*
X265366666Y-68604761D01*
X265414285Y-68557142D01*
X265461904Y-68461904D01*
X265461904Y-68366666D01*
X265414285Y-68271428D01*
X265366666Y-68223809D01*
X265271428Y-68176190D01*
X265080952Y-68128571D01*
X264985714Y-68080952D01*
X264938095Y-68033333D01*
X264890476Y-67938095D01*
X264890476Y-67842857D01*
X264938095Y-67747619D01*
X264985714Y-67700000D01*
X265080952Y-67652380D01*
X265319047Y-67652380D01*
X265461904Y-67700000D01*
X265795238Y-67652380D02*
X266033333Y-68652380D01*
X266223809Y-67938095D01*
X266414285Y-68652380D01*
X266652380Y-67652380D01*
X266938095Y-67652380D02*
X267604761Y-67652380D01*
X267176190Y-68652380D01*
X268461904Y-67652380D02*
X267985714Y-67652380D01*
X267938095Y-68128571D01*
X267985714Y-68080952D01*
X268080952Y-68033333D01*
X268319047Y-68033333D01*
X268414285Y-68080952D01*
X268461904Y-68128571D01*
X268509523Y-68223809D01*
X268509523Y-68461904D01*
X268461904Y-68557142D01*
X268414285Y-68604761D01*
X268319047Y-68652380D01*
X268080952Y-68652380D01*
X267985714Y-68604761D01*
X267938095Y-68557142D01*
X265366666Y-81652380D02*
X265033333Y-81176190D01*
X264795238Y-81652380D02*
X264795238Y-80652380D01*
X265176190Y-80652380D01*
X265271428Y-80700000D01*
X265319047Y-80747619D01*
X265366666Y-80842857D01*
X265366666Y-80985714D01*
X265319047Y-81080952D01*
X265271428Y-81128571D01*
X265176190Y-81176190D01*
X264795238Y-81176190D01*
X265795238Y-81652380D02*
X265795238Y-80652380D01*
X266795238Y-80700000D02*
X266700000Y-80652380D01*
X266557142Y-80652380D01*
X266414285Y-80700000D01*
X266319047Y-80795238D01*
X266271428Y-80890476D01*
X266223809Y-81080952D01*
X266223809Y-81223809D01*
X266271428Y-81414285D01*
X266319047Y-81509523D01*
X266414285Y-81604761D01*
X266557142Y-81652380D01*
X266652380Y-81652380D01*
X266795238Y-81604761D01*
X266842857Y-81557142D01*
X266842857Y-81223809D01*
X266652380Y-81223809D01*
X267271428Y-81652380D02*
X267271428Y-80652380D01*
X267271428Y-81128571D02*
X267842857Y-81128571D01*
X267842857Y-81652380D02*
X267842857Y-80652380D01*
X268176190Y-80652380D02*
X268747619Y-80652380D01*
X268461904Y-81652380D02*
X268461904Y-80652380D01*
%TO.C,SW26*%
X226790476Y7595238D02*
X226933333Y7547619D01*
X227171428Y7547619D01*
X227266666Y7595238D01*
X227314285Y7642857D01*
X227361904Y7738095D01*
X227361904Y7833333D01*
X227314285Y7928571D01*
X227266666Y7976190D01*
X227171428Y8023809D01*
X226980952Y8071428D01*
X226885714Y8119047D01*
X226838095Y8166666D01*
X226790476Y8261904D01*
X226790476Y8357142D01*
X226838095Y8452380D01*
X226885714Y8500000D01*
X226980952Y8547619D01*
X227219047Y8547619D01*
X227361904Y8500000D01*
X227695238Y8547619D02*
X227933333Y7547619D01*
X228123809Y8261904D01*
X228314285Y7547619D01*
X228552380Y8547619D01*
X228885714Y8452380D02*
X228933333Y8500000D01*
X229028571Y8547619D01*
X229266666Y8547619D01*
X229361904Y8500000D01*
X229409523Y8452380D01*
X229457142Y8357142D01*
X229457142Y8261904D01*
X229409523Y8119047D01*
X228838095Y7547619D01*
X229457142Y7547619D01*
X230314285Y8547619D02*
X230123809Y8547619D01*
X230028571Y8500000D01*
X229980952Y8452380D01*
X229885714Y8309523D01*
X229838095Y8119047D01*
X229838095Y7738095D01*
X229885714Y7642857D01*
X229933333Y7595238D01*
X230028571Y7547619D01*
X230219047Y7547619D01*
X230314285Y7595238D01*
X230361904Y7642857D01*
X230409523Y7738095D01*
X230409523Y7976190D01*
X230361904Y8071428D01*
X230314285Y8119047D01*
X230219047Y8166666D01*
X230028571Y8166666D01*
X229933333Y8119047D01*
X229885714Y8071428D01*
X229838095Y7976190D01*
X228219047Y-4928571D02*
X228980952Y-4928571D01*
X228980952Y-5214285D02*
X228219047Y-5214285D01*
%TO.C,SW22*%
X150590476Y7595238D02*
X150733333Y7547619D01*
X150971428Y7547619D01*
X151066666Y7595238D01*
X151114285Y7642857D01*
X151161904Y7738095D01*
X151161904Y7833333D01*
X151114285Y7928571D01*
X151066666Y7976190D01*
X150971428Y8023809D01*
X150780952Y8071428D01*
X150685714Y8119047D01*
X150638095Y8166666D01*
X150590476Y8261904D01*
X150590476Y8357142D01*
X150638095Y8452380D01*
X150685714Y8500000D01*
X150780952Y8547619D01*
X151019047Y8547619D01*
X151161904Y8500000D01*
X151495238Y8547619D02*
X151733333Y7547619D01*
X151923809Y8261904D01*
X152114285Y7547619D01*
X152352380Y8547619D01*
X152685714Y8452380D02*
X152733333Y8500000D01*
X152828571Y8547619D01*
X153066666Y8547619D01*
X153161904Y8500000D01*
X153209523Y8452380D01*
X153257142Y8357142D01*
X153257142Y8261904D01*
X153209523Y8119047D01*
X152638095Y7547619D01*
X153257142Y7547619D01*
X153638095Y8452380D02*
X153685714Y8500000D01*
X153780952Y8547619D01*
X154019047Y8547619D01*
X154114285Y8500000D01*
X154161904Y8452380D01*
X154209523Y8357142D01*
X154209523Y8261904D01*
X154161904Y8119047D01*
X153590476Y7547619D01*
X154209523Y7547619D01*
X152304761Y-4880952D02*
X152209523Y-4833333D01*
X152161904Y-4785714D01*
X152114285Y-4690476D01*
X152114285Y-4642857D01*
X152161904Y-4547619D01*
X152209523Y-4500000D01*
X152304761Y-4452380D01*
X152495238Y-4452380D01*
X152590476Y-4500000D01*
X152638095Y-4547619D01*
X152685714Y-4642857D01*
X152685714Y-4690476D01*
X152638095Y-4785714D01*
X152590476Y-4833333D01*
X152495238Y-4880952D01*
X152304761Y-4880952D01*
X152209523Y-4928571D01*
X152161904Y-4976190D01*
X152114285Y-5071428D01*
X152114285Y-5261904D01*
X152161904Y-5357142D01*
X152209523Y-5404761D01*
X152304761Y-5452380D01*
X152495238Y-5452380D01*
X152590476Y-5404761D01*
X152638095Y-5357142D01*
X152685714Y-5261904D01*
X152685714Y-5071428D01*
X152638095Y-4976190D01*
X152590476Y-4928571D01*
X152495238Y-4880952D01*
%TO.C,SW30*%
X45815476Y-11454761D02*
X45958333Y-11502380D01*
X46196428Y-11502380D01*
X46291666Y-11454761D01*
X46339285Y-11407142D01*
X46386904Y-11311904D01*
X46386904Y-11216666D01*
X46339285Y-11121428D01*
X46291666Y-11073809D01*
X46196428Y-11026190D01*
X46005952Y-10978571D01*
X45910714Y-10930952D01*
X45863095Y-10883333D01*
X45815476Y-10788095D01*
X45815476Y-10692857D01*
X45863095Y-10597619D01*
X45910714Y-10550000D01*
X46005952Y-10502380D01*
X46244047Y-10502380D01*
X46386904Y-10550000D01*
X46720238Y-10502380D02*
X46958333Y-11502380D01*
X47148809Y-10788095D01*
X47339285Y-11502380D01*
X47577380Y-10502380D01*
X47863095Y-10502380D02*
X48482142Y-10502380D01*
X48148809Y-10883333D01*
X48291666Y-10883333D01*
X48386904Y-10930952D01*
X48434523Y-10978571D01*
X48482142Y-11073809D01*
X48482142Y-11311904D01*
X48434523Y-11407142D01*
X48386904Y-11454761D01*
X48291666Y-11502380D01*
X48005952Y-11502380D01*
X47910714Y-11454761D01*
X47863095Y-11407142D01*
X49101190Y-10502380D02*
X49196428Y-10502380D01*
X49291666Y-10550000D01*
X49339285Y-10597619D01*
X49386904Y-10692857D01*
X49434523Y-10883333D01*
X49434523Y-11121428D01*
X49386904Y-11311904D01*
X49339285Y-11407142D01*
X49291666Y-11454761D01*
X49196428Y-11502380D01*
X49101190Y-11502380D01*
X49005952Y-11454761D01*
X48958333Y-11407142D01*
X48910714Y-11311904D01*
X48863095Y-11121428D01*
X48863095Y-10883333D01*
X48910714Y-10692857D01*
X48958333Y-10597619D01*
X49005952Y-10550000D01*
X49101190Y-10502380D01*
X47196428Y-23502380D02*
X47434523Y-24502380D01*
X47625000Y-23788095D01*
X47815476Y-24502380D01*
X48053571Y-23502380D01*
%TO.C,SW35*%
X141065476Y-11454761D02*
X141208333Y-11502380D01*
X141446428Y-11502380D01*
X141541666Y-11454761D01*
X141589285Y-11407142D01*
X141636904Y-11311904D01*
X141636904Y-11216666D01*
X141589285Y-11121428D01*
X141541666Y-11073809D01*
X141446428Y-11026190D01*
X141255952Y-10978571D01*
X141160714Y-10930952D01*
X141113095Y-10883333D01*
X141065476Y-10788095D01*
X141065476Y-10692857D01*
X141113095Y-10597619D01*
X141160714Y-10550000D01*
X141255952Y-10502380D01*
X141494047Y-10502380D01*
X141636904Y-10550000D01*
X141970238Y-10502380D02*
X142208333Y-11502380D01*
X142398809Y-10788095D01*
X142589285Y-11502380D01*
X142827380Y-10502380D01*
X143113095Y-10502380D02*
X143732142Y-10502380D01*
X143398809Y-10883333D01*
X143541666Y-10883333D01*
X143636904Y-10930952D01*
X143684523Y-10978571D01*
X143732142Y-11073809D01*
X143732142Y-11311904D01*
X143684523Y-11407142D01*
X143636904Y-11454761D01*
X143541666Y-11502380D01*
X143255952Y-11502380D01*
X143160714Y-11454761D01*
X143113095Y-11407142D01*
X144636904Y-10502380D02*
X144160714Y-10502380D01*
X144113095Y-10978571D01*
X144160714Y-10930952D01*
X144255952Y-10883333D01*
X144494047Y-10883333D01*
X144589285Y-10930952D01*
X144636904Y-10978571D01*
X144684523Y-11073809D01*
X144684523Y-11311904D01*
X144636904Y-11407142D01*
X144589285Y-11454761D01*
X144494047Y-11502380D01*
X144255952Y-11502380D01*
X144160714Y-11454761D01*
X144113095Y-11407142D01*
X142589285Y-23502380D02*
X142589285Y-24311904D01*
X142636904Y-24407142D01*
X142684523Y-24454761D01*
X142779761Y-24502380D01*
X142970238Y-24502380D01*
X143065476Y-24454761D01*
X143113095Y-24407142D01*
X143160714Y-24311904D01*
X143160714Y-23502380D01*
%TO.C,SW59*%
X98202976Y-49554761D02*
X98345833Y-49602380D01*
X98583928Y-49602380D01*
X98679166Y-49554761D01*
X98726785Y-49507142D01*
X98774404Y-49411904D01*
X98774404Y-49316666D01*
X98726785Y-49221428D01*
X98679166Y-49173809D01*
X98583928Y-49126190D01*
X98393452Y-49078571D01*
X98298214Y-49030952D01*
X98250595Y-48983333D01*
X98202976Y-48888095D01*
X98202976Y-48792857D01*
X98250595Y-48697619D01*
X98298214Y-48650000D01*
X98393452Y-48602380D01*
X98631547Y-48602380D01*
X98774404Y-48650000D01*
X99107738Y-48602380D02*
X99345833Y-49602380D01*
X99536309Y-48888095D01*
X99726785Y-49602380D01*
X99964880Y-48602380D01*
X100822023Y-48602380D02*
X100345833Y-48602380D01*
X100298214Y-49078571D01*
X100345833Y-49030952D01*
X100441071Y-48983333D01*
X100679166Y-48983333D01*
X100774404Y-49030952D01*
X100822023Y-49078571D01*
X100869642Y-49173809D01*
X100869642Y-49411904D01*
X100822023Y-49507142D01*
X100774404Y-49554761D01*
X100679166Y-49602380D01*
X100441071Y-49602380D01*
X100345833Y-49554761D01*
X100298214Y-49507142D01*
X101345833Y-49602380D02*
X101536309Y-49602380D01*
X101631547Y-49554761D01*
X101679166Y-49507142D01*
X101774404Y-49364285D01*
X101822023Y-49173809D01*
X101822023Y-48792857D01*
X101774404Y-48697619D01*
X101726785Y-48650000D01*
X101631547Y-48602380D01*
X101441071Y-48602380D01*
X101345833Y-48650000D01*
X101298214Y-48697619D01*
X101250595Y-48792857D01*
X101250595Y-49030952D01*
X101298214Y-49126190D01*
X101345833Y-49173809D01*
X101441071Y-49221428D01*
X101631547Y-49221428D01*
X101726785Y-49173809D01*
X101774404Y-49126190D01*
X101822023Y-49030952D01*
X99679166Y-61602380D02*
X100012500Y-62602380D01*
X100345833Y-61602380D01*
%TO.C,SW43*%
X31527976Y-30504761D02*
X31670833Y-30552380D01*
X31908928Y-30552380D01*
X32004166Y-30504761D01*
X32051785Y-30457142D01*
X32099404Y-30361904D01*
X32099404Y-30266666D01*
X32051785Y-30171428D01*
X32004166Y-30123809D01*
X31908928Y-30076190D01*
X31718452Y-30028571D01*
X31623214Y-29980952D01*
X31575595Y-29933333D01*
X31527976Y-29838095D01*
X31527976Y-29742857D01*
X31575595Y-29647619D01*
X31623214Y-29600000D01*
X31718452Y-29552380D01*
X31956547Y-29552380D01*
X32099404Y-29600000D01*
X32432738Y-29552380D02*
X32670833Y-30552380D01*
X32861309Y-29838095D01*
X33051785Y-30552380D01*
X33289880Y-29552380D01*
X34099404Y-29885714D02*
X34099404Y-30552380D01*
X33861309Y-29504761D02*
X33623214Y-30219047D01*
X34242261Y-30219047D01*
X34527976Y-29552380D02*
X35147023Y-29552380D01*
X34813690Y-29933333D01*
X34956547Y-29933333D01*
X35051785Y-29980952D01*
X35099404Y-30028571D01*
X35147023Y-30123809D01*
X35147023Y-30361904D01*
X35099404Y-30457142D01*
X35051785Y-30504761D01*
X34956547Y-30552380D01*
X34670833Y-30552380D01*
X34575595Y-30504761D01*
X34527976Y-30457142D01*
X33099404Y-43266666D02*
X33575595Y-43266666D01*
X33004166Y-43552380D02*
X33337500Y-42552380D01*
X33670833Y-43552380D01*
%TO.C,H13*%
X153543154Y-73452380D02*
X153543154Y-72452380D01*
X153543154Y-72928571D02*
X154114583Y-72928571D01*
X154114583Y-73452380D02*
X154114583Y-72452380D01*
X155114583Y-73452380D02*
X154543154Y-73452380D01*
X154828869Y-73452380D02*
X154828869Y-72452380D01*
X154733630Y-72595238D01*
X154638392Y-72690476D01*
X154543154Y-72738095D01*
X155447916Y-72452380D02*
X156066964Y-72452380D01*
X155733630Y-72833333D01*
X155876488Y-72833333D01*
X155971726Y-72880952D01*
X156019345Y-72928571D01*
X156066964Y-73023809D01*
X156066964Y-73261904D01*
X156019345Y-73357142D01*
X155971726Y-73404761D01*
X155876488Y-73452380D01*
X155590773Y-73452380D01*
X155495535Y-73404761D01*
X155447916Y-73357142D01*
%TO.C,SW37*%
X179165476Y-11454761D02*
X179308333Y-11502380D01*
X179546428Y-11502380D01*
X179641666Y-11454761D01*
X179689285Y-11407142D01*
X179736904Y-11311904D01*
X179736904Y-11216666D01*
X179689285Y-11121428D01*
X179641666Y-11073809D01*
X179546428Y-11026190D01*
X179355952Y-10978571D01*
X179260714Y-10930952D01*
X179213095Y-10883333D01*
X179165476Y-10788095D01*
X179165476Y-10692857D01*
X179213095Y-10597619D01*
X179260714Y-10550000D01*
X179355952Y-10502380D01*
X179594047Y-10502380D01*
X179736904Y-10550000D01*
X180070238Y-10502380D02*
X180308333Y-11502380D01*
X180498809Y-10788095D01*
X180689285Y-11502380D01*
X180927380Y-10502380D01*
X181213095Y-10502380D02*
X181832142Y-10502380D01*
X181498809Y-10883333D01*
X181641666Y-10883333D01*
X181736904Y-10930952D01*
X181784523Y-10978571D01*
X181832142Y-11073809D01*
X181832142Y-11311904D01*
X181784523Y-11407142D01*
X181736904Y-11454761D01*
X181641666Y-11502380D01*
X181355952Y-11502380D01*
X181260714Y-11454761D01*
X181213095Y-11407142D01*
X182165476Y-10502380D02*
X182832142Y-10502380D01*
X182403571Y-11502380D01*
X180879761Y-23502380D02*
X181070238Y-23502380D01*
X181165476Y-23550000D01*
X181260714Y-23645238D01*
X181308333Y-23835714D01*
X181308333Y-24169047D01*
X181260714Y-24359523D01*
X181165476Y-24454761D01*
X181070238Y-24502380D01*
X180879761Y-24502380D01*
X180784523Y-24454761D01*
X180689285Y-24359523D01*
X180641666Y-24169047D01*
X180641666Y-23835714D01*
X180689285Y-23645238D01*
X180784523Y-23550000D01*
X180879761Y-23502380D01*
%TO.C,SW50*%
X164877976Y-30504761D02*
X165020833Y-30552380D01*
X165258928Y-30552380D01*
X165354166Y-30504761D01*
X165401785Y-30457142D01*
X165449404Y-30361904D01*
X165449404Y-30266666D01*
X165401785Y-30171428D01*
X165354166Y-30123809D01*
X165258928Y-30076190D01*
X165068452Y-30028571D01*
X164973214Y-29980952D01*
X164925595Y-29933333D01*
X164877976Y-29838095D01*
X164877976Y-29742857D01*
X164925595Y-29647619D01*
X164973214Y-29600000D01*
X165068452Y-29552380D01*
X165306547Y-29552380D01*
X165449404Y-29600000D01*
X165782738Y-29552380D02*
X166020833Y-30552380D01*
X166211309Y-29838095D01*
X166401785Y-30552380D01*
X166639880Y-29552380D01*
X167497023Y-29552380D02*
X167020833Y-29552380D01*
X166973214Y-30028571D01*
X167020833Y-29980952D01*
X167116071Y-29933333D01*
X167354166Y-29933333D01*
X167449404Y-29980952D01*
X167497023Y-30028571D01*
X167544642Y-30123809D01*
X167544642Y-30361904D01*
X167497023Y-30457142D01*
X167449404Y-30504761D01*
X167354166Y-30552380D01*
X167116071Y-30552380D01*
X167020833Y-30504761D01*
X166973214Y-30457142D01*
X168163690Y-29552380D02*
X168258928Y-29552380D01*
X168354166Y-29600000D01*
X168401785Y-29647619D01*
X168449404Y-29742857D01*
X168497023Y-29933333D01*
X168497023Y-30171428D01*
X168449404Y-30361904D01*
X168401785Y-30457142D01*
X168354166Y-30504761D01*
X168258928Y-30552380D01*
X168163690Y-30552380D01*
X168068452Y-30504761D01*
X168020833Y-30457142D01*
X167973214Y-30361904D01*
X167925595Y-30171428D01*
X167925595Y-29933333D01*
X167973214Y-29742857D01*
X168020833Y-29647619D01*
X168068452Y-29600000D01*
X168163690Y-29552380D01*
X166425595Y-43552380D02*
X166425595Y-42552380D01*
X166997023Y-43552380D02*
X166568452Y-42980952D01*
X166997023Y-42552380D02*
X166425595Y-43123809D01*
%TO.C,SW46*%
X88677976Y-30504761D02*
X88820833Y-30552380D01*
X89058928Y-30552380D01*
X89154166Y-30504761D01*
X89201785Y-30457142D01*
X89249404Y-30361904D01*
X89249404Y-30266666D01*
X89201785Y-30171428D01*
X89154166Y-30123809D01*
X89058928Y-30076190D01*
X88868452Y-30028571D01*
X88773214Y-29980952D01*
X88725595Y-29933333D01*
X88677976Y-29838095D01*
X88677976Y-29742857D01*
X88725595Y-29647619D01*
X88773214Y-29600000D01*
X88868452Y-29552380D01*
X89106547Y-29552380D01*
X89249404Y-29600000D01*
X89582738Y-29552380D02*
X89820833Y-30552380D01*
X90011309Y-29838095D01*
X90201785Y-30552380D01*
X90439880Y-29552380D01*
X91249404Y-29885714D02*
X91249404Y-30552380D01*
X91011309Y-29504761D02*
X90773214Y-30219047D01*
X91392261Y-30219047D01*
X92201785Y-29552380D02*
X92011309Y-29552380D01*
X91916071Y-29600000D01*
X91868452Y-29647619D01*
X91773214Y-29790476D01*
X91725595Y-29980952D01*
X91725595Y-30361904D01*
X91773214Y-30457142D01*
X91820833Y-30504761D01*
X91916071Y-30552380D01*
X92106547Y-30552380D01*
X92201785Y-30504761D01*
X92249404Y-30457142D01*
X92297023Y-30361904D01*
X92297023Y-30123809D01*
X92249404Y-30028571D01*
X92201785Y-29980952D01*
X92106547Y-29933333D01*
X91916071Y-29933333D01*
X91820833Y-29980952D01*
X91773214Y-30028571D01*
X91725595Y-30123809D01*
X90630357Y-43028571D02*
X90297023Y-43028571D01*
X90297023Y-43552380D02*
X90297023Y-42552380D01*
X90773214Y-42552380D01*
%TO.C,J1*%
X-6333333Y-40607380D02*
X-6333333Y-41321666D01*
X-6380952Y-41464523D01*
X-6476190Y-41559761D01*
X-6619047Y-41607380D01*
X-6714285Y-41607380D01*
X-5333333Y-41607380D02*
X-5904761Y-41607380D01*
X-5619047Y-41607380D02*
X-5619047Y-40607380D01*
X-5714285Y-40750238D01*
X-5809523Y-40845476D01*
X-5904761Y-40893095D01*
%TO.C,SW7*%
X141541666Y26645238D02*
X141684523Y26597619D01*
X141922619Y26597619D01*
X142017857Y26645238D01*
X142065476Y26692857D01*
X142113095Y26788095D01*
X142113095Y26883333D01*
X142065476Y26978571D01*
X142017857Y27026190D01*
X141922619Y27073809D01*
X141732142Y27121428D01*
X141636904Y27169047D01*
X141589285Y27216666D01*
X141541666Y27311904D01*
X141541666Y27407142D01*
X141589285Y27502380D01*
X141636904Y27550000D01*
X141732142Y27597619D01*
X141970238Y27597619D01*
X142113095Y27550000D01*
X142446428Y27597619D02*
X142684523Y26597619D01*
X142875000Y27311904D01*
X143065476Y26597619D01*
X143303571Y27597619D01*
X143589285Y27597619D02*
X144255952Y27597619D01*
X143827380Y26597619D01*
X142541666Y14121428D02*
X142208333Y14121428D01*
X142208333Y13597619D02*
X142208333Y14597619D01*
X142684523Y14597619D01*
X143494047Y14597619D02*
X143303571Y14597619D01*
X143208333Y14550000D01*
X143160714Y14502380D01*
X143065476Y14359523D01*
X143017857Y14169047D01*
X143017857Y13788095D01*
X143065476Y13692857D01*
X143113095Y13645238D01*
X143208333Y13597619D01*
X143398809Y13597619D01*
X143494047Y13645238D01*
X143541666Y13692857D01*
X143589285Y13788095D01*
X143589285Y14026190D01*
X143541666Y14121428D01*
X143494047Y14169047D01*
X143398809Y14216666D01*
X143208333Y14216666D01*
X143113095Y14169047D01*
X143065476Y14121428D01*
X143017857Y14026190D01*
%TO.C,SW21*%
X131540476Y7595238D02*
X131683333Y7547619D01*
X131921428Y7547619D01*
X132016666Y7595238D01*
X132064285Y7642857D01*
X132111904Y7738095D01*
X132111904Y7833333D01*
X132064285Y7928571D01*
X132016666Y7976190D01*
X131921428Y8023809D01*
X131730952Y8071428D01*
X131635714Y8119047D01*
X131588095Y8166666D01*
X131540476Y8261904D01*
X131540476Y8357142D01*
X131588095Y8452380D01*
X131635714Y8500000D01*
X131730952Y8547619D01*
X131969047Y8547619D01*
X132111904Y8500000D01*
X132445238Y8547619D02*
X132683333Y7547619D01*
X132873809Y8261904D01*
X133064285Y7547619D01*
X133302380Y8547619D01*
X133635714Y8452380D02*
X133683333Y8500000D01*
X133778571Y8547619D01*
X134016666Y8547619D01*
X134111904Y8500000D01*
X134159523Y8452380D01*
X134207142Y8357142D01*
X134207142Y8261904D01*
X134159523Y8119047D01*
X133588095Y7547619D01*
X134207142Y7547619D01*
X135159523Y7547619D02*
X134588095Y7547619D01*
X134873809Y7547619D02*
X134873809Y8547619D01*
X134778571Y8404761D01*
X134683333Y8309523D01*
X134588095Y8261904D01*
X133016666Y-4452380D02*
X133683333Y-4452380D01*
X133254761Y-5452380D01*
%TO.C,SW33*%
X102965476Y-11454761D02*
X103108333Y-11502380D01*
X103346428Y-11502380D01*
X103441666Y-11454761D01*
X103489285Y-11407142D01*
X103536904Y-11311904D01*
X103536904Y-11216666D01*
X103489285Y-11121428D01*
X103441666Y-11073809D01*
X103346428Y-11026190D01*
X103155952Y-10978571D01*
X103060714Y-10930952D01*
X103013095Y-10883333D01*
X102965476Y-10788095D01*
X102965476Y-10692857D01*
X103013095Y-10597619D01*
X103060714Y-10550000D01*
X103155952Y-10502380D01*
X103394047Y-10502380D01*
X103536904Y-10550000D01*
X103870238Y-10502380D02*
X104108333Y-11502380D01*
X104298809Y-10788095D01*
X104489285Y-11502380D01*
X104727380Y-10502380D01*
X105013095Y-10502380D02*
X105632142Y-10502380D01*
X105298809Y-10883333D01*
X105441666Y-10883333D01*
X105536904Y-10930952D01*
X105584523Y-10978571D01*
X105632142Y-11073809D01*
X105632142Y-11311904D01*
X105584523Y-11407142D01*
X105536904Y-11454761D01*
X105441666Y-11502380D01*
X105155952Y-11502380D01*
X105060714Y-11454761D01*
X105013095Y-11407142D01*
X105965476Y-10502380D02*
X106584523Y-10502380D01*
X106251190Y-10883333D01*
X106394047Y-10883333D01*
X106489285Y-10930952D01*
X106536904Y-10978571D01*
X106584523Y-11073809D01*
X106584523Y-11311904D01*
X106536904Y-11407142D01*
X106489285Y-11454761D01*
X106394047Y-11502380D01*
X106108333Y-11502380D01*
X106013095Y-11454761D01*
X105965476Y-11407142D01*
X104489285Y-23502380D02*
X105060714Y-23502380D01*
X104775000Y-24502380D02*
X104775000Y-23502380D01*
%TO.C,H16*%
X270224404Y-21064880D02*
X270224404Y-20064880D01*
X270224404Y-20541071D02*
X270795833Y-20541071D01*
X270795833Y-21064880D02*
X270795833Y-20064880D01*
X271795833Y-21064880D02*
X271224404Y-21064880D01*
X271510119Y-21064880D02*
X271510119Y-20064880D01*
X271414880Y-20207738D01*
X271319642Y-20302976D01*
X271224404Y-20350595D01*
X272652976Y-20064880D02*
X272462500Y-20064880D01*
X272367261Y-20112500D01*
X272319642Y-20160119D01*
X272224404Y-20302976D01*
X272176785Y-20493452D01*
X272176785Y-20874404D01*
X272224404Y-20969642D01*
X272272023Y-21017261D01*
X272367261Y-21064880D01*
X272557738Y-21064880D01*
X272652976Y-21017261D01*
X272700595Y-20969642D01*
X272748214Y-20874404D01*
X272748214Y-20636309D01*
X272700595Y-20541071D01*
X272652976Y-20493452D01*
X272557738Y-20445833D01*
X272367261Y-20445833D01*
X272272023Y-20493452D01*
X272224404Y-20541071D01*
X272176785Y-20636309D01*
%TO.C,SW70*%
X57721726Y-68604761D02*
X57864583Y-68652380D01*
X58102678Y-68652380D01*
X58197916Y-68604761D01*
X58245535Y-68557142D01*
X58293154Y-68461904D01*
X58293154Y-68366666D01*
X58245535Y-68271428D01*
X58197916Y-68223809D01*
X58102678Y-68176190D01*
X57912202Y-68128571D01*
X57816964Y-68080952D01*
X57769345Y-68033333D01*
X57721726Y-67938095D01*
X57721726Y-67842857D01*
X57769345Y-67747619D01*
X57816964Y-67700000D01*
X57912202Y-67652380D01*
X58150297Y-67652380D01*
X58293154Y-67700000D01*
X58626488Y-67652380D02*
X58864583Y-68652380D01*
X59055059Y-67938095D01*
X59245535Y-68652380D01*
X59483630Y-67652380D01*
X59769345Y-67652380D02*
X60436011Y-67652380D01*
X60007440Y-68652380D01*
X61007440Y-67652380D02*
X61102678Y-67652380D01*
X61197916Y-67700000D01*
X61245535Y-67747619D01*
X61293154Y-67842857D01*
X61340773Y-68033333D01*
X61340773Y-68271428D01*
X61293154Y-68461904D01*
X61245535Y-68557142D01*
X61197916Y-68604761D01*
X61102678Y-68652380D01*
X61007440Y-68652380D01*
X60912202Y-68604761D01*
X60864583Y-68557142D01*
X60816964Y-68461904D01*
X60769345Y-68271428D01*
X60769345Y-68033333D01*
X60816964Y-67842857D01*
X60864583Y-67747619D01*
X60912202Y-67700000D01*
X61007440Y-67652380D01*
X57888392Y-81652380D02*
X57412202Y-81652380D01*
X57412202Y-80652380D01*
X57983630Y-81747619D02*
X58745535Y-81747619D01*
X59555059Y-81557142D02*
X59507440Y-81604761D01*
X59364583Y-81652380D01*
X59269345Y-81652380D01*
X59126488Y-81604761D01*
X59031250Y-81509523D01*
X58983630Y-81414285D01*
X58936011Y-81223809D01*
X58936011Y-81080952D01*
X58983630Y-80890476D01*
X59031250Y-80795238D01*
X59126488Y-80700000D01*
X59269345Y-80652380D01*
X59364583Y-80652380D01*
X59507440Y-80700000D01*
X59555059Y-80747619D01*
X59983630Y-81652380D02*
X59983630Y-80652380D01*
X60316964Y-81366666D01*
X60650297Y-80652380D01*
X60650297Y-81652380D01*
X61126488Y-81652380D02*
X61126488Y-80652380D01*
X61364583Y-80652380D01*
X61507440Y-80700000D01*
X61602678Y-80795238D01*
X61650297Y-80890476D01*
X61697916Y-81080952D01*
X61697916Y-81223809D01*
X61650297Y-81414285D01*
X61602678Y-81509523D01*
X61507440Y-81604761D01*
X61364583Y-81652380D01*
X61126488Y-81652380D01*
%TO.C,H10*%
X255936904Y11453869D02*
X255936904Y12453869D01*
X255936904Y11977678D02*
X256508333Y11977678D01*
X256508333Y11453869D02*
X256508333Y12453869D01*
X257508333Y11453869D02*
X256936904Y11453869D01*
X257222619Y11453869D02*
X257222619Y12453869D01*
X257127380Y12311011D01*
X257032142Y12215773D01*
X256936904Y12168154D01*
X258127380Y12453869D02*
X258222619Y12453869D01*
X258317857Y12406250D01*
X258365476Y12358630D01*
X258413095Y12263392D01*
X258460714Y12072916D01*
X258460714Y11834821D01*
X258413095Y11644345D01*
X258365476Y11549107D01*
X258317857Y11501488D01*
X258222619Y11453869D01*
X258127380Y11453869D01*
X258032142Y11501488D01*
X257984523Y11549107D01*
X257936904Y11644345D01*
X257889285Y11834821D01*
X257889285Y12072916D01*
X257936904Y12263392D01*
X257984523Y12358630D01*
X258032142Y12406250D01*
X258127380Y12453869D01*
%TO.C,SW48*%
X126777976Y-30504761D02*
X126920833Y-30552380D01*
X127158928Y-30552380D01*
X127254166Y-30504761D01*
X127301785Y-30457142D01*
X127349404Y-30361904D01*
X127349404Y-30266666D01*
X127301785Y-30171428D01*
X127254166Y-30123809D01*
X127158928Y-30076190D01*
X126968452Y-30028571D01*
X126873214Y-29980952D01*
X126825595Y-29933333D01*
X126777976Y-29838095D01*
X126777976Y-29742857D01*
X126825595Y-29647619D01*
X126873214Y-29600000D01*
X126968452Y-29552380D01*
X127206547Y-29552380D01*
X127349404Y-29600000D01*
X127682738Y-29552380D02*
X127920833Y-30552380D01*
X128111309Y-29838095D01*
X128301785Y-30552380D01*
X128539880Y-29552380D01*
X129349404Y-29885714D02*
X129349404Y-30552380D01*
X129111309Y-29504761D02*
X128873214Y-30219047D01*
X129492261Y-30219047D01*
X130016071Y-29980952D02*
X129920833Y-29933333D01*
X129873214Y-29885714D01*
X129825595Y-29790476D01*
X129825595Y-29742857D01*
X129873214Y-29647619D01*
X129920833Y-29600000D01*
X130016071Y-29552380D01*
X130206547Y-29552380D01*
X130301785Y-29600000D01*
X130349404Y-29647619D01*
X130397023Y-29742857D01*
X130397023Y-29790476D01*
X130349404Y-29885714D01*
X130301785Y-29933333D01*
X130206547Y-29980952D01*
X130016071Y-29980952D01*
X129920833Y-30028571D01*
X129873214Y-30076190D01*
X129825595Y-30171428D01*
X129825595Y-30361904D01*
X129873214Y-30457142D01*
X129920833Y-30504761D01*
X130016071Y-30552380D01*
X130206547Y-30552380D01*
X130301785Y-30504761D01*
X130349404Y-30457142D01*
X130397023Y-30361904D01*
X130397023Y-30171428D01*
X130349404Y-30076190D01*
X130301785Y-30028571D01*
X130206547Y-29980952D01*
X128301785Y-43552380D02*
X128301785Y-42552380D01*
X128301785Y-43028571D02*
X128873214Y-43028571D01*
X128873214Y-43552380D02*
X128873214Y-42552380D01*
%TO.C,SW10*%
X207740476Y26645238D02*
X207883333Y26597619D01*
X208121428Y26597619D01*
X208216666Y26645238D01*
X208264285Y26692857D01*
X208311904Y26788095D01*
X208311904Y26883333D01*
X208264285Y26978571D01*
X208216666Y27026190D01*
X208121428Y27073809D01*
X207930952Y27121428D01*
X207835714Y27169047D01*
X207788095Y27216666D01*
X207740476Y27311904D01*
X207740476Y27407142D01*
X207788095Y27502380D01*
X207835714Y27550000D01*
X207930952Y27597619D01*
X208169047Y27597619D01*
X208311904Y27550000D01*
X208645238Y27597619D02*
X208883333Y26597619D01*
X209073809Y27311904D01*
X209264285Y26597619D01*
X209502380Y27597619D01*
X210407142Y26597619D02*
X209835714Y26597619D01*
X210121428Y26597619D02*
X210121428Y27597619D01*
X210026190Y27454761D01*
X209930952Y27359523D01*
X209835714Y27311904D01*
X211026190Y27597619D02*
X211121428Y27597619D01*
X211216666Y27550000D01*
X211264285Y27502380D01*
X211311904Y27407142D01*
X211359523Y27216666D01*
X211359523Y26978571D01*
X211311904Y26788095D01*
X211264285Y26692857D01*
X211216666Y26645238D01*
X211121428Y26597619D01*
X211026190Y26597619D01*
X210930952Y26645238D01*
X210883333Y26692857D01*
X210835714Y26788095D01*
X210788095Y26978571D01*
X210788095Y27216666D01*
X210835714Y27407142D01*
X210883333Y27502380D01*
X210930952Y27550000D01*
X211026190Y27597619D01*
X209216666Y14121428D02*
X208883333Y14121428D01*
X208883333Y13597619D02*
X208883333Y14597619D01*
X209359523Y14597619D01*
X209788095Y13597619D02*
X209978571Y13597619D01*
X210073809Y13645238D01*
X210121428Y13692857D01*
X210216666Y13835714D01*
X210264285Y14026190D01*
X210264285Y14407142D01*
X210216666Y14502380D01*
X210169047Y14550000D01*
X210073809Y14597619D01*
X209883333Y14597619D01*
X209788095Y14550000D01*
X209740476Y14502380D01*
X209692857Y14407142D01*
X209692857Y14169047D01*
X209740476Y14073809D01*
X209788095Y14026190D01*
X209883333Y13978571D01*
X210073809Y13978571D01*
X210169047Y14026190D01*
X210216666Y14073809D01*
X210264285Y14169047D01*
%TO.C,SW36*%
X160115476Y-11454761D02*
X160258333Y-11502380D01*
X160496428Y-11502380D01*
X160591666Y-11454761D01*
X160639285Y-11407142D01*
X160686904Y-11311904D01*
X160686904Y-11216666D01*
X160639285Y-11121428D01*
X160591666Y-11073809D01*
X160496428Y-11026190D01*
X160305952Y-10978571D01*
X160210714Y-10930952D01*
X160163095Y-10883333D01*
X160115476Y-10788095D01*
X160115476Y-10692857D01*
X160163095Y-10597619D01*
X160210714Y-10550000D01*
X160305952Y-10502380D01*
X160544047Y-10502380D01*
X160686904Y-10550000D01*
X161020238Y-10502380D02*
X161258333Y-11502380D01*
X161448809Y-10788095D01*
X161639285Y-11502380D01*
X161877380Y-10502380D01*
X162163095Y-10502380D02*
X162782142Y-10502380D01*
X162448809Y-10883333D01*
X162591666Y-10883333D01*
X162686904Y-10930952D01*
X162734523Y-10978571D01*
X162782142Y-11073809D01*
X162782142Y-11311904D01*
X162734523Y-11407142D01*
X162686904Y-11454761D01*
X162591666Y-11502380D01*
X162305952Y-11502380D01*
X162210714Y-11454761D01*
X162163095Y-11407142D01*
X163639285Y-10502380D02*
X163448809Y-10502380D01*
X163353571Y-10550000D01*
X163305952Y-10597619D01*
X163210714Y-10740476D01*
X163163095Y-10930952D01*
X163163095Y-11311904D01*
X163210714Y-11407142D01*
X163258333Y-11454761D01*
X163353571Y-11502380D01*
X163544047Y-11502380D01*
X163639285Y-11454761D01*
X163686904Y-11407142D01*
X163734523Y-11311904D01*
X163734523Y-11073809D01*
X163686904Y-10978571D01*
X163639285Y-10930952D01*
X163544047Y-10883333D01*
X163353571Y-10883333D01*
X163258333Y-10930952D01*
X163210714Y-10978571D01*
X163163095Y-11073809D01*
X161925000Y-24502380D02*
X161925000Y-23502380D01*
%TO.C,SW20*%
X112490476Y7595238D02*
X112633333Y7547619D01*
X112871428Y7547619D01*
X112966666Y7595238D01*
X113014285Y7642857D01*
X113061904Y7738095D01*
X113061904Y7833333D01*
X113014285Y7928571D01*
X112966666Y7976190D01*
X112871428Y8023809D01*
X112680952Y8071428D01*
X112585714Y8119047D01*
X112538095Y8166666D01*
X112490476Y8261904D01*
X112490476Y8357142D01*
X112538095Y8452380D01*
X112585714Y8500000D01*
X112680952Y8547619D01*
X112919047Y8547619D01*
X113061904Y8500000D01*
X113395238Y8547619D02*
X113633333Y7547619D01*
X113823809Y8261904D01*
X114014285Y7547619D01*
X114252380Y8547619D01*
X114585714Y8452380D02*
X114633333Y8500000D01*
X114728571Y8547619D01*
X114966666Y8547619D01*
X115061904Y8500000D01*
X115109523Y8452380D01*
X115157142Y8357142D01*
X115157142Y8261904D01*
X115109523Y8119047D01*
X114538095Y7547619D01*
X115157142Y7547619D01*
X115776190Y8547619D02*
X115871428Y8547619D01*
X115966666Y8500000D01*
X116014285Y8452380D01*
X116061904Y8357142D01*
X116109523Y8166666D01*
X116109523Y7928571D01*
X116061904Y7738095D01*
X116014285Y7642857D01*
X115966666Y7595238D01*
X115871428Y7547619D01*
X115776190Y7547619D01*
X115680952Y7595238D01*
X115633333Y7642857D01*
X115585714Y7738095D01*
X115538095Y7928571D01*
X115538095Y8166666D01*
X115585714Y8357142D01*
X115633333Y8452380D01*
X115680952Y8500000D01*
X115776190Y8547619D01*
X114490476Y-4452380D02*
X114300000Y-4452380D01*
X114204761Y-4500000D01*
X114157142Y-4547619D01*
X114061904Y-4690476D01*
X114014285Y-4880952D01*
X114014285Y-5261904D01*
X114061904Y-5357142D01*
X114109523Y-5404761D01*
X114204761Y-5452380D01*
X114395238Y-5452380D01*
X114490476Y-5404761D01*
X114538095Y-5357142D01*
X114585714Y-5261904D01*
X114585714Y-5023809D01*
X114538095Y-4928571D01*
X114490476Y-4880952D01*
X114395238Y-4833333D01*
X114204761Y-4833333D01*
X114109523Y-4880952D01*
X114061904Y-4928571D01*
X114014285Y-5023809D01*
%TO.C,SW62*%
X155352976Y-49554761D02*
X155495833Y-49602380D01*
X155733928Y-49602380D01*
X155829166Y-49554761D01*
X155876785Y-49507142D01*
X155924404Y-49411904D01*
X155924404Y-49316666D01*
X155876785Y-49221428D01*
X155829166Y-49173809D01*
X155733928Y-49126190D01*
X155543452Y-49078571D01*
X155448214Y-49030952D01*
X155400595Y-48983333D01*
X155352976Y-48888095D01*
X155352976Y-48792857D01*
X155400595Y-48697619D01*
X155448214Y-48650000D01*
X155543452Y-48602380D01*
X155781547Y-48602380D01*
X155924404Y-48650000D01*
X156257738Y-48602380D02*
X156495833Y-49602380D01*
X156686309Y-48888095D01*
X156876785Y-49602380D01*
X157114880Y-48602380D01*
X157924404Y-48602380D02*
X157733928Y-48602380D01*
X157638690Y-48650000D01*
X157591071Y-48697619D01*
X157495833Y-48840476D01*
X157448214Y-49030952D01*
X157448214Y-49411904D01*
X157495833Y-49507142D01*
X157543452Y-49554761D01*
X157638690Y-49602380D01*
X157829166Y-49602380D01*
X157924404Y-49554761D01*
X157972023Y-49507142D01*
X158019642Y-49411904D01*
X158019642Y-49173809D01*
X157972023Y-49078571D01*
X157924404Y-49030952D01*
X157829166Y-48983333D01*
X157638690Y-48983333D01*
X157543452Y-49030952D01*
X157495833Y-49078571D01*
X157448214Y-49173809D01*
X158400595Y-48697619D02*
X158448214Y-48650000D01*
X158543452Y-48602380D01*
X158781547Y-48602380D01*
X158876785Y-48650000D01*
X158924404Y-48697619D01*
X158972023Y-48792857D01*
X158972023Y-48888095D01*
X158924404Y-49030952D01*
X158352976Y-49602380D01*
X158972023Y-49602380D01*
X156829166Y-62602380D02*
X156829166Y-61602380D01*
X157162500Y-62316666D01*
X157495833Y-61602380D01*
X157495833Y-62602380D01*
%TO.C,SW23*%
X169640476Y7595238D02*
X169783333Y7547619D01*
X170021428Y7547619D01*
X170116666Y7595238D01*
X170164285Y7642857D01*
X170211904Y7738095D01*
X170211904Y7833333D01*
X170164285Y7928571D01*
X170116666Y7976190D01*
X170021428Y8023809D01*
X169830952Y8071428D01*
X169735714Y8119047D01*
X169688095Y8166666D01*
X169640476Y8261904D01*
X169640476Y8357142D01*
X169688095Y8452380D01*
X169735714Y8500000D01*
X169830952Y8547619D01*
X170069047Y8547619D01*
X170211904Y8500000D01*
X170545238Y8547619D02*
X170783333Y7547619D01*
X170973809Y8261904D01*
X171164285Y7547619D01*
X171402380Y8547619D01*
X171735714Y8452380D02*
X171783333Y8500000D01*
X171878571Y8547619D01*
X172116666Y8547619D01*
X172211904Y8500000D01*
X172259523Y8452380D01*
X172307142Y8357142D01*
X172307142Y8261904D01*
X172259523Y8119047D01*
X171688095Y7547619D01*
X172307142Y7547619D01*
X172640476Y8547619D02*
X173259523Y8547619D01*
X172926190Y8166666D01*
X173069047Y8166666D01*
X173164285Y8119047D01*
X173211904Y8071428D01*
X173259523Y7976190D01*
X173259523Y7738095D01*
X173211904Y7642857D01*
X173164285Y7595238D01*
X173069047Y7547619D01*
X172783333Y7547619D01*
X172688095Y7595238D01*
X172640476Y7642857D01*
X171259523Y-5452380D02*
X171450000Y-5452380D01*
X171545238Y-5404761D01*
X171592857Y-5357142D01*
X171688095Y-5214285D01*
X171735714Y-5023809D01*
X171735714Y-4642857D01*
X171688095Y-4547619D01*
X171640476Y-4500000D01*
X171545238Y-4452380D01*
X171354761Y-4452380D01*
X171259523Y-4500000D01*
X171211904Y-4547619D01*
X171164285Y-4642857D01*
X171164285Y-4880952D01*
X171211904Y-4976190D01*
X171259523Y-5023809D01*
X171354761Y-5071428D01*
X171545238Y-5071428D01*
X171640476Y-5023809D01*
X171688095Y-4976190D01*
X171735714Y-4880952D01*
%TO.C,SW66*%
X245840476Y-49554761D02*
X245983333Y-49602380D01*
X246221428Y-49602380D01*
X246316666Y-49554761D01*
X246364285Y-49507142D01*
X246411904Y-49411904D01*
X246411904Y-49316666D01*
X246364285Y-49221428D01*
X246316666Y-49173809D01*
X246221428Y-49126190D01*
X246030952Y-49078571D01*
X245935714Y-49030952D01*
X245888095Y-48983333D01*
X245840476Y-48888095D01*
X245840476Y-48792857D01*
X245888095Y-48697619D01*
X245935714Y-48650000D01*
X246030952Y-48602380D01*
X246269047Y-48602380D01*
X246411904Y-48650000D01*
X246745238Y-48602380D02*
X246983333Y-49602380D01*
X247173809Y-48888095D01*
X247364285Y-49602380D01*
X247602380Y-48602380D01*
X248411904Y-48602380D02*
X248221428Y-48602380D01*
X248126190Y-48650000D01*
X248078571Y-48697619D01*
X247983333Y-48840476D01*
X247935714Y-49030952D01*
X247935714Y-49411904D01*
X247983333Y-49507142D01*
X248030952Y-49554761D01*
X248126190Y-49602380D01*
X248316666Y-49602380D01*
X248411904Y-49554761D01*
X248459523Y-49507142D01*
X248507142Y-49411904D01*
X248507142Y-49173809D01*
X248459523Y-49078571D01*
X248411904Y-49030952D01*
X248316666Y-48983333D01*
X248126190Y-48983333D01*
X248030952Y-49030952D01*
X247983333Y-49078571D01*
X247935714Y-49173809D01*
X249364285Y-48602380D02*
X249173809Y-48602380D01*
X249078571Y-48650000D01*
X249030952Y-48697619D01*
X248935714Y-48840476D01*
X248888095Y-49030952D01*
X248888095Y-49411904D01*
X248935714Y-49507142D01*
X248983333Y-49554761D01*
X249078571Y-49602380D01*
X249269047Y-49602380D01*
X249364285Y-49554761D01*
X249411904Y-49507142D01*
X249459523Y-49411904D01*
X249459523Y-49173809D01*
X249411904Y-49078571D01*
X249364285Y-49030952D01*
X249269047Y-48983333D01*
X249078571Y-48983333D01*
X248983333Y-49030952D01*
X248935714Y-49078571D01*
X248888095Y-49173809D01*
X246864285Y-61602380D02*
X246864285Y-62411904D01*
X246911904Y-62507142D01*
X246959523Y-62554761D01*
X247054761Y-62602380D01*
X247245238Y-62602380D01*
X247340476Y-62554761D01*
X247388095Y-62507142D01*
X247435714Y-62411904D01*
X247435714Y-61602380D01*
X247911904Y-62602380D02*
X247911904Y-61602380D01*
X248292857Y-61602380D01*
X248388095Y-61650000D01*
X248435714Y-61697619D01*
X248483333Y-61792857D01*
X248483333Y-61935714D01*
X248435714Y-62030952D01*
X248388095Y-62078571D01*
X248292857Y-62126190D01*
X247911904Y-62126190D01*
%TO.C,SW53*%
X222027976Y-30504761D02*
X222170833Y-30552380D01*
X222408928Y-30552380D01*
X222504166Y-30504761D01*
X222551785Y-30457142D01*
X222599404Y-30361904D01*
X222599404Y-30266666D01*
X222551785Y-30171428D01*
X222504166Y-30123809D01*
X222408928Y-30076190D01*
X222218452Y-30028571D01*
X222123214Y-29980952D01*
X222075595Y-29933333D01*
X222027976Y-29838095D01*
X222027976Y-29742857D01*
X222075595Y-29647619D01*
X222123214Y-29600000D01*
X222218452Y-29552380D01*
X222456547Y-29552380D01*
X222599404Y-29600000D01*
X222932738Y-29552380D02*
X223170833Y-30552380D01*
X223361309Y-29838095D01*
X223551785Y-30552380D01*
X223789880Y-29552380D01*
X224647023Y-29552380D02*
X224170833Y-29552380D01*
X224123214Y-30028571D01*
X224170833Y-29980952D01*
X224266071Y-29933333D01*
X224504166Y-29933333D01*
X224599404Y-29980952D01*
X224647023Y-30028571D01*
X224694642Y-30123809D01*
X224694642Y-30361904D01*
X224647023Y-30457142D01*
X224599404Y-30504761D01*
X224504166Y-30552380D01*
X224266071Y-30552380D01*
X224170833Y-30504761D01*
X224123214Y-30457142D01*
X225027976Y-29552380D02*
X225647023Y-29552380D01*
X225313690Y-29933333D01*
X225456547Y-29933333D01*
X225551785Y-29980952D01*
X225599404Y-30028571D01*
X225647023Y-30123809D01*
X225647023Y-30361904D01*
X225599404Y-30457142D01*
X225551785Y-30504761D01*
X225456547Y-30552380D01*
X225170833Y-30552380D01*
X225075595Y-30504761D01*
X225027976Y-30457142D01*
X223885119Y-42552380D02*
X223789880Y-42742857D01*
%TO.C,SW55*%
X10096726Y-49554761D02*
X10239583Y-49602380D01*
X10477678Y-49602380D01*
X10572916Y-49554761D01*
X10620535Y-49507142D01*
X10668154Y-49411904D01*
X10668154Y-49316666D01*
X10620535Y-49221428D01*
X10572916Y-49173809D01*
X10477678Y-49126190D01*
X10287202Y-49078571D01*
X10191964Y-49030952D01*
X10144345Y-48983333D01*
X10096726Y-48888095D01*
X10096726Y-48792857D01*
X10144345Y-48697619D01*
X10191964Y-48650000D01*
X10287202Y-48602380D01*
X10525297Y-48602380D01*
X10668154Y-48650000D01*
X11001488Y-48602380D02*
X11239583Y-49602380D01*
X11430059Y-48888095D01*
X11620535Y-49602380D01*
X11858630Y-48602380D01*
X12715773Y-48602380D02*
X12239583Y-48602380D01*
X12191964Y-49078571D01*
X12239583Y-49030952D01*
X12334821Y-48983333D01*
X12572916Y-48983333D01*
X12668154Y-49030952D01*
X12715773Y-49078571D01*
X12763392Y-49173809D01*
X12763392Y-49411904D01*
X12715773Y-49507142D01*
X12668154Y-49554761D01*
X12572916Y-49602380D01*
X12334821Y-49602380D01*
X12239583Y-49554761D01*
X12191964Y-49507142D01*
X13668154Y-48602380D02*
X13191964Y-48602380D01*
X13144345Y-49078571D01*
X13191964Y-49030952D01*
X13287202Y-48983333D01*
X13525297Y-48983333D01*
X13620535Y-49030952D01*
X13668154Y-49078571D01*
X13715773Y-49173809D01*
X13715773Y-49411904D01*
X13668154Y-49507142D01*
X13620535Y-49554761D01*
X13525297Y-49602380D01*
X13287202Y-49602380D01*
X13191964Y-49554761D01*
X13144345Y-49507142D01*
X9787202Y-62602380D02*
X9311011Y-62602380D01*
X9311011Y-61602380D01*
X9882440Y-62697619D02*
X10644345Y-62697619D01*
X10834821Y-62554761D02*
X10977678Y-62602380D01*
X11215773Y-62602380D01*
X11311011Y-62554761D01*
X11358630Y-62507142D01*
X11406250Y-62411904D01*
X11406250Y-62316666D01*
X11358630Y-62221428D01*
X11311011Y-62173809D01*
X11215773Y-62126190D01*
X11025297Y-62078571D01*
X10930059Y-62030952D01*
X10882440Y-61983333D01*
X10834821Y-61888095D01*
X10834821Y-61792857D01*
X10882440Y-61697619D01*
X10930059Y-61650000D01*
X11025297Y-61602380D01*
X11263392Y-61602380D01*
X11406250Y-61650000D01*
X11834821Y-62602380D02*
X11834821Y-61602380D01*
X11834821Y-62078571D02*
X12406250Y-62078571D01*
X12406250Y-62602380D02*
X12406250Y-61602380D01*
X12882440Y-62602380D02*
X12882440Y-61602380D01*
X13691964Y-62078571D02*
X13358630Y-62078571D01*
X13358630Y-62602380D02*
X13358630Y-61602380D01*
X13834821Y-61602380D01*
X14072916Y-61602380D02*
X14644345Y-61602380D01*
X14358630Y-62602380D02*
X14358630Y-61602380D01*
%TO.C,SW17*%
X55340476Y7595238D02*
X55483333Y7547619D01*
X55721428Y7547619D01*
X55816666Y7595238D01*
X55864285Y7642857D01*
X55911904Y7738095D01*
X55911904Y7833333D01*
X55864285Y7928571D01*
X55816666Y7976190D01*
X55721428Y8023809D01*
X55530952Y8071428D01*
X55435714Y8119047D01*
X55388095Y8166666D01*
X55340476Y8261904D01*
X55340476Y8357142D01*
X55388095Y8452380D01*
X55435714Y8500000D01*
X55530952Y8547619D01*
X55769047Y8547619D01*
X55911904Y8500000D01*
X56245238Y8547619D02*
X56483333Y7547619D01*
X56673809Y8261904D01*
X56864285Y7547619D01*
X57102380Y8547619D01*
X58007142Y7547619D02*
X57435714Y7547619D01*
X57721428Y7547619D02*
X57721428Y8547619D01*
X57626190Y8404761D01*
X57530952Y8309523D01*
X57435714Y8261904D01*
X58340476Y8547619D02*
X59007142Y8547619D01*
X58578571Y7547619D01*
X56816666Y-4452380D02*
X57435714Y-4452380D01*
X57102380Y-4833333D01*
X57245238Y-4833333D01*
X57340476Y-4880952D01*
X57388095Y-4928571D01*
X57435714Y-5023809D01*
X57435714Y-5261904D01*
X57388095Y-5357142D01*
X57340476Y-5404761D01*
X57245238Y-5452380D01*
X56959523Y-5452380D01*
X56864285Y-5404761D01*
X56816666Y-5357142D01*
%TO.C,SW38*%
X198215476Y-11454761D02*
X198358333Y-11502380D01*
X198596428Y-11502380D01*
X198691666Y-11454761D01*
X198739285Y-11407142D01*
X198786904Y-11311904D01*
X198786904Y-11216666D01*
X198739285Y-11121428D01*
X198691666Y-11073809D01*
X198596428Y-11026190D01*
X198405952Y-10978571D01*
X198310714Y-10930952D01*
X198263095Y-10883333D01*
X198215476Y-10788095D01*
X198215476Y-10692857D01*
X198263095Y-10597619D01*
X198310714Y-10550000D01*
X198405952Y-10502380D01*
X198644047Y-10502380D01*
X198786904Y-10550000D01*
X199120238Y-10502380D02*
X199358333Y-11502380D01*
X199548809Y-10788095D01*
X199739285Y-11502380D01*
X199977380Y-10502380D01*
X200263095Y-10502380D02*
X200882142Y-10502380D01*
X200548809Y-10883333D01*
X200691666Y-10883333D01*
X200786904Y-10930952D01*
X200834523Y-10978571D01*
X200882142Y-11073809D01*
X200882142Y-11311904D01*
X200834523Y-11407142D01*
X200786904Y-11454761D01*
X200691666Y-11502380D01*
X200405952Y-11502380D01*
X200310714Y-11454761D01*
X200263095Y-11407142D01*
X201453571Y-10930952D02*
X201358333Y-10883333D01*
X201310714Y-10835714D01*
X201263095Y-10740476D01*
X201263095Y-10692857D01*
X201310714Y-10597619D01*
X201358333Y-10550000D01*
X201453571Y-10502380D01*
X201644047Y-10502380D01*
X201739285Y-10550000D01*
X201786904Y-10597619D01*
X201834523Y-10692857D01*
X201834523Y-10740476D01*
X201786904Y-10835714D01*
X201739285Y-10883333D01*
X201644047Y-10930952D01*
X201453571Y-10930952D01*
X201358333Y-10978571D01*
X201310714Y-11026190D01*
X201263095Y-11121428D01*
X201263095Y-11311904D01*
X201310714Y-11407142D01*
X201358333Y-11454761D01*
X201453571Y-11502380D01*
X201644047Y-11502380D01*
X201739285Y-11454761D01*
X201786904Y-11407142D01*
X201834523Y-11311904D01*
X201834523Y-11121428D01*
X201786904Y-11026190D01*
X201739285Y-10978571D01*
X201644047Y-10930952D01*
X199763095Y-24502380D02*
X199763095Y-23502380D01*
X200144047Y-23502380D01*
X200239285Y-23550000D01*
X200286904Y-23597619D01*
X200334523Y-23692857D01*
X200334523Y-23835714D01*
X200286904Y-23930952D01*
X200239285Y-23978571D01*
X200144047Y-24026190D01*
X199763095Y-24026190D01*
%TO.C,SW45*%
X69627976Y-30504761D02*
X69770833Y-30552380D01*
X70008928Y-30552380D01*
X70104166Y-30504761D01*
X70151785Y-30457142D01*
X70199404Y-30361904D01*
X70199404Y-30266666D01*
X70151785Y-30171428D01*
X70104166Y-30123809D01*
X70008928Y-30076190D01*
X69818452Y-30028571D01*
X69723214Y-29980952D01*
X69675595Y-29933333D01*
X69627976Y-29838095D01*
X69627976Y-29742857D01*
X69675595Y-29647619D01*
X69723214Y-29600000D01*
X69818452Y-29552380D01*
X70056547Y-29552380D01*
X70199404Y-29600000D01*
X70532738Y-29552380D02*
X70770833Y-30552380D01*
X70961309Y-29838095D01*
X71151785Y-30552380D01*
X71389880Y-29552380D01*
X72199404Y-29885714D02*
X72199404Y-30552380D01*
X71961309Y-29504761D02*
X71723214Y-30219047D01*
X72342261Y-30219047D01*
X73199404Y-29552380D02*
X72723214Y-29552380D01*
X72675595Y-30028571D01*
X72723214Y-29980952D01*
X72818452Y-29933333D01*
X73056547Y-29933333D01*
X73151785Y-29980952D01*
X73199404Y-30028571D01*
X73247023Y-30123809D01*
X73247023Y-30361904D01*
X73199404Y-30457142D01*
X73151785Y-30504761D01*
X73056547Y-30552380D01*
X72818452Y-30552380D01*
X72723214Y-30504761D01*
X72675595Y-30457142D01*
X71175595Y-43552380D02*
X71175595Y-42552380D01*
X71413690Y-42552380D01*
X71556547Y-42600000D01*
X71651785Y-42695238D01*
X71699404Y-42790476D01*
X71747023Y-42980952D01*
X71747023Y-43123809D01*
X71699404Y-43314285D01*
X71651785Y-43409523D01*
X71556547Y-43504761D01*
X71413690Y-43552380D01*
X71175595Y-43552380D01*
%TO.C,SW44*%
X50577976Y-30504761D02*
X50720833Y-30552380D01*
X50958928Y-30552380D01*
X51054166Y-30504761D01*
X51101785Y-30457142D01*
X51149404Y-30361904D01*
X51149404Y-30266666D01*
X51101785Y-30171428D01*
X51054166Y-30123809D01*
X50958928Y-30076190D01*
X50768452Y-30028571D01*
X50673214Y-29980952D01*
X50625595Y-29933333D01*
X50577976Y-29838095D01*
X50577976Y-29742857D01*
X50625595Y-29647619D01*
X50673214Y-29600000D01*
X50768452Y-29552380D01*
X51006547Y-29552380D01*
X51149404Y-29600000D01*
X51482738Y-29552380D02*
X51720833Y-30552380D01*
X51911309Y-29838095D01*
X52101785Y-30552380D01*
X52339880Y-29552380D01*
X53149404Y-29885714D02*
X53149404Y-30552380D01*
X52911309Y-29504761D02*
X52673214Y-30219047D01*
X53292261Y-30219047D01*
X54101785Y-29885714D02*
X54101785Y-30552380D01*
X53863690Y-29504761D02*
X53625595Y-30219047D01*
X54244642Y-30219047D01*
X52101785Y-43504761D02*
X52244642Y-43552380D01*
X52482738Y-43552380D01*
X52577976Y-43504761D01*
X52625595Y-43457142D01*
X52673214Y-43361904D01*
X52673214Y-43266666D01*
X52625595Y-43171428D01*
X52577976Y-43123809D01*
X52482738Y-43076190D01*
X52292261Y-43028571D01*
X52197023Y-42980952D01*
X52149404Y-42933333D01*
X52101785Y-42838095D01*
X52101785Y-42742857D01*
X52149404Y-42647619D01*
X52197023Y-42600000D01*
X52292261Y-42552380D01*
X52530357Y-42552380D01*
X52673214Y-42600000D01*
%TO.C,SW60*%
X117252976Y-49554761D02*
X117395833Y-49602380D01*
X117633928Y-49602380D01*
X117729166Y-49554761D01*
X117776785Y-49507142D01*
X117824404Y-49411904D01*
X117824404Y-49316666D01*
X117776785Y-49221428D01*
X117729166Y-49173809D01*
X117633928Y-49126190D01*
X117443452Y-49078571D01*
X117348214Y-49030952D01*
X117300595Y-48983333D01*
X117252976Y-48888095D01*
X117252976Y-48792857D01*
X117300595Y-48697619D01*
X117348214Y-48650000D01*
X117443452Y-48602380D01*
X117681547Y-48602380D01*
X117824404Y-48650000D01*
X118157738Y-48602380D02*
X118395833Y-49602380D01*
X118586309Y-48888095D01*
X118776785Y-49602380D01*
X119014880Y-48602380D01*
X119824404Y-48602380D02*
X119633928Y-48602380D01*
X119538690Y-48650000D01*
X119491071Y-48697619D01*
X119395833Y-48840476D01*
X119348214Y-49030952D01*
X119348214Y-49411904D01*
X119395833Y-49507142D01*
X119443452Y-49554761D01*
X119538690Y-49602380D01*
X119729166Y-49602380D01*
X119824404Y-49554761D01*
X119872023Y-49507142D01*
X119919642Y-49411904D01*
X119919642Y-49173809D01*
X119872023Y-49078571D01*
X119824404Y-49030952D01*
X119729166Y-48983333D01*
X119538690Y-48983333D01*
X119443452Y-49030952D01*
X119395833Y-49078571D01*
X119348214Y-49173809D01*
X120538690Y-48602380D02*
X120633928Y-48602380D01*
X120729166Y-48650000D01*
X120776785Y-48697619D01*
X120824404Y-48792857D01*
X120872023Y-48983333D01*
X120872023Y-49221428D01*
X120824404Y-49411904D01*
X120776785Y-49507142D01*
X120729166Y-49554761D01*
X120633928Y-49602380D01*
X120538690Y-49602380D01*
X120443452Y-49554761D01*
X120395833Y-49507142D01*
X120348214Y-49411904D01*
X120300595Y-49221428D01*
X120300595Y-48983333D01*
X120348214Y-48792857D01*
X120395833Y-48697619D01*
X120443452Y-48650000D01*
X120538690Y-48602380D01*
X119133928Y-62078571D02*
X119276785Y-62126190D01*
X119324404Y-62173809D01*
X119372023Y-62269047D01*
X119372023Y-62411904D01*
X119324404Y-62507142D01*
X119276785Y-62554761D01*
X119181547Y-62602380D01*
X118800595Y-62602380D01*
X118800595Y-61602380D01*
X119133928Y-61602380D01*
X119229166Y-61650000D01*
X119276785Y-61697619D01*
X119324404Y-61792857D01*
X119324404Y-61888095D01*
X119276785Y-61983333D01*
X119229166Y-62030952D01*
X119133928Y-62078571D01*
X118800595Y-62078571D01*
D11*
%TO.C,SW68*%
X11950000Y-83300000D02*
X26150000Y-83300000D01*
X26150000Y-83300000D02*
X26150000Y-69100000D01*
X26150000Y-69100000D02*
X11950000Y-69100000D01*
X11950000Y-69100000D02*
X11950000Y-83300000D01*
%TO.C,SW71*%
X123868750Y-83300000D02*
X138068750Y-83300000D01*
X138068750Y-83300000D02*
X138068750Y-69100000D01*
X138068750Y-69100000D02*
X123868750Y-69100000D01*
X123868750Y-69100000D02*
X123868750Y-83300000D01*
%TO.C,SW19*%
X88150000Y-7100000D02*
X102350000Y-7100000D01*
X102350000Y7100000D02*
X88150000Y7100000D01*
X102350000Y-7100000D02*
X102350000Y7100000D01*
X88150000Y7100000D02*
X88150000Y-7100000D01*
%TO.C,SW61*%
X145212500Y-50050000D02*
X131012500Y-50050000D01*
X131012500Y-50050000D02*
X131012500Y-64250000D01*
X131012500Y-64250000D02*
X145212500Y-64250000D01*
X145212500Y-64250000D02*
X145212500Y-50050000D01*
%TO.C,SW73*%
X221500000Y-83300000D02*
X235700000Y-83300000D01*
X235700000Y-83300000D02*
X235700000Y-69100000D01*
X235700000Y-69100000D02*
X221500000Y-69100000D01*
X221500000Y-69100000D02*
X221500000Y-83300000D01*
%TO.C,SW4*%
X80918750Y11950000D02*
X80918750Y26150000D01*
X80918750Y26150000D02*
X66718750Y26150000D01*
X66718750Y11950000D02*
X80918750Y11950000D01*
X66718750Y26150000D02*
X66718750Y11950000D01*
%TO.C,SW16*%
X45200000Y-7100000D02*
X45200000Y7100000D01*
X31000000Y-7100000D02*
X45200000Y-7100000D01*
X31000000Y7100000D02*
X31000000Y-7100000D01*
X45200000Y7100000D02*
X31000000Y7100000D01*
%TO.C,SW74*%
X254750000Y-69100000D02*
X240550000Y-69100000D01*
X254750000Y-83300000D02*
X254750000Y-69100000D01*
X240550000Y-69100000D02*
X240550000Y-83300000D01*
X240550000Y-83300000D02*
X254750000Y-83300000D01*
%TO.C,SW6*%
X114343750Y11950000D02*
X128543750Y11950000D01*
X128543750Y11950000D02*
X128543750Y26150000D01*
X114343750Y26150000D02*
X114343750Y11950000D01*
X128543750Y26150000D02*
X114343750Y26150000D01*
%TO.C,SW64*%
X188162500Y-50050000D02*
X188162500Y-64250000D01*
X188162500Y-64250000D02*
X202362500Y-64250000D01*
X202362500Y-50050000D02*
X188162500Y-50050000D01*
X202362500Y-64250000D02*
X202362500Y-50050000D01*
%TO.C,SW32*%
X78625000Y-26150000D02*
X92825000Y-26150000D01*
X92825000Y-26150000D02*
X92825000Y-11950000D01*
X92825000Y-11950000D02*
X78625000Y-11950000D01*
X78625000Y-11950000D02*
X78625000Y-26150000D01*
%TO.C,SW65*%
X221412500Y-64250000D02*
X221412500Y-50050000D01*
X207212500Y-64250000D02*
X221412500Y-64250000D01*
X221412500Y-50050000D02*
X207212500Y-50050000D01*
X207212500Y-50050000D02*
X207212500Y-64250000D01*
%TO.C,SW31*%
X73775000Y-26150000D02*
X73775000Y-11950000D01*
X59575000Y-11950000D02*
X59575000Y-26150000D01*
X59575000Y-26150000D02*
X73775000Y-26150000D01*
X73775000Y-11950000D02*
X59575000Y-11950000D01*
%TO.C,SW42*%
X14243750Y-31000000D02*
X43750Y-31000000D01*
X43750Y-45200000D02*
X14243750Y-45200000D01*
X43750Y-31000000D02*
X43750Y-45200000D01*
X14243750Y-45200000D02*
X14243750Y-31000000D01*
%TO.C,SW27*%
X250075000Y-7100000D02*
X264275000Y-7100000D01*
X264275000Y-7100000D02*
X264275000Y7100000D01*
X250075000Y7100000D02*
X250075000Y-7100000D01*
X264275000Y7100000D02*
X250075000Y7100000D01*
%TO.C,SW34*%
X130925000Y-11950000D02*
X116725000Y-11950000D01*
X116725000Y-11950000D02*
X116725000Y-26150000D01*
X130925000Y-26150000D02*
X130925000Y-11950000D01*
X116725000Y-26150000D02*
X130925000Y-26150000D01*
%TO.C,SW40*%
X231025000Y-11950000D02*
X231025000Y-26150000D01*
X231025000Y-26150000D02*
X245225000Y-26150000D01*
X245225000Y-11950000D02*
X231025000Y-11950000D01*
X245225000Y-26150000D02*
X245225000Y-11950000D01*
%TO.C,SW18*%
X69100000Y-7100000D02*
X83300000Y-7100000D01*
X83300000Y7100000D02*
X69100000Y7100000D01*
X83300000Y-7100000D02*
X83300000Y7100000D01*
X69100000Y7100000D02*
X69100000Y-7100000D01*
%TO.C,SW14*%
X7100000Y-7100000D02*
X7100000Y7100000D01*
X7100000Y7100000D02*
X-7100000Y7100000D01*
X-7100000Y-7100000D02*
X7100000Y-7100000D01*
X-7100000Y7100000D02*
X-7100000Y-7100000D01*
%TO.C,SW58*%
X88062500Y-64250000D02*
X88062500Y-50050000D01*
X73862500Y-64250000D02*
X88062500Y-64250000D01*
X88062500Y-50050000D02*
X73862500Y-50050000D01*
X73862500Y-50050000D02*
X73862500Y-64250000D01*
%TO.C,SW11*%
X235700000Y26150000D02*
X221500000Y26150000D01*
X221500000Y11950000D02*
X235700000Y11950000D01*
X235700000Y11950000D02*
X235700000Y26150000D01*
X221500000Y26150000D02*
X221500000Y11950000D01*
%TO.C,SW28*%
X11862500Y-26150000D02*
X11862500Y-11950000D01*
X11862500Y-11950000D02*
X-2337500Y-11950000D01*
X-2337500Y-26150000D02*
X11862500Y-26150000D01*
X-2337500Y-11950000D02*
X-2337500Y-26150000D01*
%TO.C,SW63*%
X169112500Y-64250000D02*
X183312500Y-64250000D01*
X169112500Y-50050000D02*
X169112500Y-64250000D01*
X183312500Y-50050000D02*
X169112500Y-50050000D01*
X183312500Y-64250000D02*
X183312500Y-50050000D01*
%TO.C,SW72*%
X195306250Y-83300000D02*
X209506250Y-83300000D01*
X209506250Y-83300000D02*
X209506250Y-69100000D01*
X209506250Y-69100000D02*
X195306250Y-69100000D01*
X195306250Y-69100000D02*
X195306250Y-83300000D01*
%TO.C,SW2*%
X42818750Y26150000D02*
X28618750Y26150000D01*
X28618750Y11950000D02*
X42818750Y11950000D01*
X42818750Y11950000D02*
X42818750Y26150000D01*
X28618750Y26150000D02*
X28618750Y11950000D01*
%TO.C,SW52*%
X211887500Y-45200000D02*
X211887500Y-31000000D01*
X197687500Y-45200000D02*
X211887500Y-45200000D01*
X211887500Y-31000000D02*
X197687500Y-31000000D01*
X197687500Y-31000000D02*
X197687500Y-45200000D01*
%TO.C,SW39*%
X226175000Y-26150000D02*
X226175000Y-11950000D01*
X226175000Y-11950000D02*
X211975000Y-11950000D01*
X211975000Y-11950000D02*
X211975000Y-26150000D01*
X211975000Y-26150000D02*
X226175000Y-26150000D01*
%TO.C,SW29*%
X21475000Y-11950000D02*
X21475000Y-26150000D01*
X35675000Y-26150000D02*
X35675000Y-11950000D01*
X21475000Y-26150000D02*
X35675000Y-26150000D01*
X35675000Y-11950000D02*
X21475000Y-11950000D01*
%TO.C,SW25*%
X216650000Y7100000D02*
X202450000Y7100000D01*
X202450000Y7100000D02*
X202450000Y-7100000D01*
X202450000Y-7100000D02*
X216650000Y-7100000D01*
X216650000Y-7100000D02*
X216650000Y7100000D01*
%TO.C,SW3*%
X61868750Y26150000D02*
X47668750Y26150000D01*
X47668750Y26150000D02*
X47668750Y11950000D01*
X61868750Y11950000D02*
X61868750Y26150000D01*
X47668750Y11950000D02*
X61868750Y11950000D01*
%TO.C,SW13*%
X259600000Y11950000D02*
X273800000Y11950000D01*
X273800000Y26150000D02*
X259600000Y26150000D01*
X259600000Y26150000D02*
X259600000Y11950000D01*
X273800000Y11950000D02*
X273800000Y26150000D01*
%TO.C,SW49*%
X154737500Y-45200000D02*
X154737500Y-31000000D01*
X140537500Y-31000000D02*
X140537500Y-45200000D01*
X140537500Y-45200000D02*
X154737500Y-45200000D01*
X154737500Y-31000000D02*
X140537500Y-31000000D01*
%TO.C,SW15*%
X26150000Y7100000D02*
X11950000Y7100000D01*
X11950000Y7100000D02*
X11950000Y-7100000D01*
X26150000Y-7100000D02*
X26150000Y7100000D01*
X11950000Y-7100000D02*
X26150000Y-7100000D01*
%TO.C,SW12*%
X240550000Y26150000D02*
X240550000Y11950000D01*
X254750000Y11950000D02*
X254750000Y26150000D01*
X240550000Y11950000D02*
X254750000Y11950000D01*
X254750000Y26150000D02*
X240550000Y26150000D01*
%TO.C,SW67*%
X7100000Y-83300000D02*
X7100000Y-69100000D01*
X-7100000Y-69100000D02*
X-7100000Y-83300000D01*
X-7100000Y-83300000D02*
X7100000Y-83300000D01*
X7100000Y-69100000D02*
X-7100000Y-69100000D01*
%TO.C,SW57*%
X54812500Y-64250000D02*
X69012500Y-64250000D01*
X54812500Y-50050000D02*
X54812500Y-64250000D01*
X69012500Y-50050000D02*
X54812500Y-50050000D01*
X69012500Y-64250000D02*
X69012500Y-50050000D01*
%TO.C,SW8*%
X169025000Y26150000D02*
X154825000Y26150000D01*
X154825000Y11950000D02*
X169025000Y11950000D01*
X169025000Y11950000D02*
X169025000Y26150000D01*
X154825000Y26150000D02*
X154825000Y11950000D01*
%TO.C,SW5*%
X99968750Y11950000D02*
X99968750Y26150000D01*
X85768750Y11950000D02*
X99968750Y11950000D01*
X99968750Y26150000D02*
X85768750Y26150000D01*
X85768750Y26150000D02*
X85768750Y11950000D01*
%TO.C,SW41*%
X269037500Y-26150000D02*
X269037500Y-11950000D01*
X254837500Y-11950000D02*
X254837500Y-26150000D01*
X269037500Y-11950000D02*
X254837500Y-11950000D01*
X254837500Y-26150000D02*
X269037500Y-26150000D01*
%TO.C,SW24*%
X197600000Y7100000D02*
X183400000Y7100000D01*
X197600000Y-7100000D02*
X197600000Y7100000D01*
X183400000Y7100000D02*
X183400000Y-7100000D01*
X183400000Y-7100000D02*
X197600000Y-7100000D01*
%TO.C,SW1*%
X-7100000Y26150000D02*
X-7100000Y11950000D01*
X7100000Y11950000D02*
X7100000Y26150000D01*
X-7100000Y11950000D02*
X7100000Y11950000D01*
X7100000Y26150000D02*
X-7100000Y26150000D01*
%TO.C,SW69*%
X45200000Y-69100000D02*
X31000000Y-69100000D01*
X31000000Y-83300000D02*
X45200000Y-83300000D01*
X45200000Y-83300000D02*
X45200000Y-69100000D01*
X31000000Y-69100000D02*
X31000000Y-83300000D01*
%TO.C,SW9*%
X173875000Y26150000D02*
X173875000Y11950000D01*
X188075000Y11950000D02*
X188075000Y26150000D01*
X173875000Y11950000D02*
X188075000Y11950000D01*
X188075000Y26150000D02*
X173875000Y26150000D01*
%TO.C,SW54*%
X247693750Y-31000000D02*
X247693750Y-45200000D01*
X261893750Y-31000000D02*
X247693750Y-31000000D01*
X261893750Y-45200000D02*
X261893750Y-31000000D01*
X247693750Y-45200000D02*
X261893750Y-45200000D01*
%TO.C,SW47*%
X102437500Y-45200000D02*
X116637500Y-45200000D01*
X102437500Y-31000000D02*
X102437500Y-45200000D01*
X116637500Y-45200000D02*
X116637500Y-31000000D01*
X116637500Y-31000000D02*
X102437500Y-31000000D01*
%TO.C,SW51*%
X192837500Y-31000000D02*
X178637500Y-31000000D01*
X178637500Y-31000000D02*
X178637500Y-45200000D01*
X178637500Y-45200000D02*
X192837500Y-45200000D01*
X192837500Y-45200000D02*
X192837500Y-31000000D01*
%TO.C,SW56*%
X49962500Y-50050000D02*
X35762500Y-50050000D01*
X49962500Y-64250000D02*
X49962500Y-50050000D01*
X35762500Y-50050000D02*
X35762500Y-64250000D01*
X35762500Y-64250000D02*
X49962500Y-64250000D01*
%TO.C,SW75*%
X259600000Y-83300000D02*
X273800000Y-83300000D01*
X273800000Y-83300000D02*
X273800000Y-69100000D01*
X273800000Y-69100000D02*
X259600000Y-69100000D01*
X259600000Y-69100000D02*
X259600000Y-83300000D01*
%TO.C,SW26*%
X235700000Y-7100000D02*
X235700000Y7100000D01*
X221500000Y-7100000D02*
X235700000Y-7100000D01*
X221500000Y7100000D02*
X221500000Y-7100000D01*
X235700000Y7100000D02*
X221500000Y7100000D01*
%TO.C,SW22*%
X145300000Y7100000D02*
X145300000Y-7100000D01*
X145300000Y-7100000D02*
X159500000Y-7100000D01*
X159500000Y7100000D02*
X145300000Y7100000D01*
X159500000Y-7100000D02*
X159500000Y7100000D01*
%TO.C,SW30*%
X54725000Y-26150000D02*
X54725000Y-11950000D01*
X40525000Y-26150000D02*
X54725000Y-26150000D01*
X40525000Y-11950000D02*
X40525000Y-26150000D01*
X54725000Y-11950000D02*
X40525000Y-11950000D01*
%TO.C,SW35*%
X135775000Y-26150000D02*
X149975000Y-26150000D01*
X135775000Y-11950000D02*
X135775000Y-26150000D01*
X149975000Y-26150000D02*
X149975000Y-11950000D01*
X149975000Y-11950000D02*
X135775000Y-11950000D01*
%TO.C,SW59*%
X107112500Y-64250000D02*
X107112500Y-50050000D01*
X92912500Y-64250000D02*
X107112500Y-64250000D01*
X92912500Y-50050000D02*
X92912500Y-64250000D01*
X107112500Y-50050000D02*
X92912500Y-50050000D01*
%TO.C,SW43*%
X40437500Y-31000000D02*
X26237500Y-31000000D01*
X26237500Y-45200000D02*
X40437500Y-45200000D01*
X40437500Y-45200000D02*
X40437500Y-31000000D01*
X26237500Y-31000000D02*
X26237500Y-45200000D01*
%TO.C,SW37*%
X173875000Y-11950000D02*
X173875000Y-26150000D01*
X173875000Y-26150000D02*
X188075000Y-26150000D01*
X188075000Y-26150000D02*
X188075000Y-11950000D01*
X188075000Y-11950000D02*
X173875000Y-11950000D01*
%TO.C,SW50*%
X159587500Y-31000000D02*
X159587500Y-45200000D01*
X159587500Y-45200000D02*
X173787500Y-45200000D01*
X173787500Y-45200000D02*
X173787500Y-31000000D01*
X173787500Y-31000000D02*
X159587500Y-31000000D01*
%TO.C,SW46*%
X97587500Y-45200000D02*
X97587500Y-31000000D01*
X83387500Y-45200000D02*
X97587500Y-45200000D01*
X83387500Y-31000000D02*
X83387500Y-45200000D01*
X97587500Y-31000000D02*
X83387500Y-31000000D01*
%TO.C,J1*%
X-4670000Y-38825000D02*
X-4670000Y-40155000D01*
X-4670000Y-40155000D02*
X-6000000Y-40155000D01*
X-4670000Y-32415000D02*
X-7330000Y-32415000D01*
X-4670000Y-37555000D02*
X-4670000Y-32415000D01*
X-4670000Y-37555000D02*
X-7330000Y-37555000D01*
X-7330000Y-37555000D02*
X-7330000Y-32415000D01*
%TO.C,SW7*%
X135775000Y26150000D02*
X135775000Y11950000D01*
X135775000Y11950000D02*
X149975000Y11950000D01*
X149975000Y11950000D02*
X149975000Y26150000D01*
X149975000Y26150000D02*
X135775000Y26150000D01*
%TO.C,SW21*%
X140450000Y7100000D02*
X126250000Y7100000D01*
X126250000Y7100000D02*
X126250000Y-7100000D01*
X140450000Y-7100000D02*
X140450000Y7100000D01*
X126250000Y-7100000D02*
X140450000Y-7100000D01*
%TO.C,SW33*%
X97675000Y-11950000D02*
X97675000Y-26150000D01*
X97675000Y-26150000D02*
X111875000Y-26150000D01*
X111875000Y-26150000D02*
X111875000Y-11950000D01*
X111875000Y-11950000D02*
X97675000Y-11950000D01*
%TO.C,SW70*%
X52431250Y-69100000D02*
X52431250Y-83300000D01*
X66631250Y-69100000D02*
X52431250Y-69100000D01*
X66631250Y-83300000D02*
X66631250Y-69100000D01*
X52431250Y-83300000D02*
X66631250Y-83300000D01*
%TO.C,SW48*%
X121487500Y-45200000D02*
X135687500Y-45200000D01*
X135687500Y-45200000D02*
X135687500Y-31000000D01*
X121487500Y-31000000D02*
X121487500Y-45200000D01*
X135687500Y-31000000D02*
X121487500Y-31000000D01*
%TO.C,SW10*%
X216650000Y11950000D02*
X216650000Y26150000D01*
X216650000Y26150000D02*
X202450000Y26150000D01*
X202450000Y11950000D02*
X216650000Y11950000D01*
X202450000Y26150000D02*
X202450000Y11950000D01*
%TO.C,SW36*%
X154825000Y-11950000D02*
X154825000Y-26150000D01*
X154825000Y-26150000D02*
X169025000Y-26150000D01*
X169025000Y-26150000D02*
X169025000Y-11950000D01*
X169025000Y-11950000D02*
X154825000Y-11950000D01*
%TO.C,SW20*%
X107200000Y-7100000D02*
X121400000Y-7100000D01*
X107200000Y7100000D02*
X107200000Y-7100000D01*
X121400000Y-7100000D02*
X121400000Y7100000D01*
X121400000Y7100000D02*
X107200000Y7100000D01*
%TO.C,SW62*%
X150062500Y-50050000D02*
X150062500Y-64250000D01*
X164262500Y-64250000D02*
X164262500Y-50050000D01*
X164262500Y-50050000D02*
X150062500Y-50050000D01*
X150062500Y-64250000D02*
X164262500Y-64250000D01*
%TO.C,SW23*%
X164350000Y7100000D02*
X164350000Y-7100000D01*
X178550000Y7100000D02*
X164350000Y7100000D01*
X164350000Y-7100000D02*
X178550000Y-7100000D01*
X178550000Y-7100000D02*
X178550000Y7100000D01*
%TO.C,SW66*%
X240550000Y-50050000D02*
X240550000Y-64250000D01*
X240550000Y-64250000D02*
X254750000Y-64250000D01*
X254750000Y-50050000D02*
X240550000Y-50050000D01*
X254750000Y-64250000D02*
X254750000Y-50050000D01*
%TO.C,SW53*%
X216737500Y-45200000D02*
X230937500Y-45200000D01*
X230937500Y-31000000D02*
X216737500Y-31000000D01*
X216737500Y-31000000D02*
X216737500Y-45200000D01*
X230937500Y-45200000D02*
X230937500Y-31000000D01*
%TO.C,SW55*%
X4806250Y-50050000D02*
X4806250Y-64250000D01*
X19006250Y-50050000D02*
X4806250Y-50050000D01*
X19006250Y-64250000D02*
X19006250Y-50050000D01*
X4806250Y-64250000D02*
X19006250Y-64250000D01*
%TO.C,SW17*%
X50050000Y7100000D02*
X50050000Y-7100000D01*
X50050000Y-7100000D02*
X64250000Y-7100000D01*
X64250000Y7100000D02*
X50050000Y7100000D01*
X64250000Y-7100000D02*
X64250000Y7100000D01*
%TO.C,SW38*%
X207125000Y-26150000D02*
X207125000Y-11950000D01*
X192925000Y-26150000D02*
X207125000Y-26150000D01*
X192925000Y-11950000D02*
X192925000Y-26150000D01*
X207125000Y-11950000D02*
X192925000Y-11950000D01*
%TO.C,SW45*%
X64337500Y-31000000D02*
X64337500Y-45200000D01*
X78537500Y-31000000D02*
X64337500Y-31000000D01*
X64337500Y-45200000D02*
X78537500Y-45200000D01*
X78537500Y-45200000D02*
X78537500Y-31000000D01*
%TO.C,SW44*%
X45287500Y-45200000D02*
X59487500Y-45200000D01*
X45287500Y-31000000D02*
X45287500Y-45200000D01*
X59487500Y-31000000D02*
X45287500Y-31000000D01*
X59487500Y-45200000D02*
X59487500Y-31000000D01*
%TO.C,SW60*%
X126162500Y-64250000D02*
X126162500Y-50050000D01*
X111962500Y-50050000D02*
X111962500Y-64250000D01*
X126162500Y-50050000D02*
X111962500Y-50050000D01*
X111962500Y-64250000D02*
X126162500Y-64250000D01*
%TD*%
M02*
