M48
; DRILL file {KiCad (6.0.5-0)} date Tuesday, June 28, 2022 at 10:27:31 PM
; FORMAT={-:-/ absolute / metric / decimal}
; #@! TF.CreationDate,2022-06-28T22:27:31+09:00
; #@! TF.GenerationSoftware,Kicad,Pcbnew,(6.0.5-0)
; #@! TF.FileFunction,Plated,1,2,PTH
FMAT,2
METRIC
; #@! TA.AperFunction,Plated,PTH,ViaDrill
T1C0.400
; #@! TA.AperFunction,Plated,PTH,ComponentDrill
T2C0.800
; #@! TA.AperFunction,Plated,PTH,ComponentDrill
T3C1.000
%
G90
G05
T1
X-6.0Y-31.4
X-5.1Y-68.0
X-5.0Y27.3
X-5.0Y8.1
X-1.3Y-46.1
X-0.1Y-10.9
X0.4Y-46.0
X0.7Y-52.5
X2.0Y-54.4
X2.1Y-61.1
X2.3Y-29.9
X4.7Y-68.5
X4.7Y-73.5
X5.7Y-73.5
X5.7Y-68.5
X6.5Y-49.0
X6.7Y-68.5
X6.7Y-73.5
X7.4Y-48.2
X8.1Y9.4
X8.1Y7.1
X8.2Y-47.1
X9.1Y20.9
X10.2Y9.4
X10.2Y7.1
X10.6Y22.5
X11.137Y-43.952
X11.7Y22.5
X12.55Y-35.05
X12.7Y22.5
X12.845Y-39.655
X13.6Y-36.2
X13.8Y-40.3
X14.0Y8.2
X14.6Y-67.8
X15.5Y-39.0
X15.6Y-36.1
X16.5Y-9.9
X16.5Y-12.2
X16.5Y-28.7
X16.5Y-31.0
X16.6Y-36.1
X16.9Y-49.5
X17.7Y-42.1
X17.7Y-44.3
X18.2Y-54.7
X18.5Y-9.9
X18.5Y-12.2
X18.6Y-28.7
X18.6Y-31.0
X18.7Y-37.4
X18.8Y-43.2
X19.0Y-55.8
X19.4Y-34.8
X19.9Y-42.1
X19.9Y-44.3
X20.1Y-57.0
X20.1Y-58.2
X20.38Y-51.52
X21.1Y-30.9
X21.2Y-45.5
X21.21Y-40.793
X21.4Y-58.2
X21.6Y21.1
X21.6Y-49.7
X22.6Y-58.2
X22.7Y24.3
X23.1Y-30.9
X23.7Y24.3
X23.7Y-57.1
X23.7Y-58.2
X24.2Y-10.9
X24.2Y-38.5
X24.5Y-52.6
X24.7Y24.3
X24.9Y-55.8
X24.9Y-57.1
X25.0Y-21.7
X25.7Y-52.6
X25.7Y-53.8
X25.7Y-55.0
X26.0Y-44.2
X27.253Y-64.994
X27.7Y-64.1
X27.999Y-63.1
X28.2Y-24.5
X28.399Y-62.107
X28.799Y-61.131
X29.198Y-60.138
X30.6Y-27.8
X30.8Y-47.2
X31.0Y27.3
X32.0Y-42.9
X32.6Y-40.8
X33.8Y-67.8
X34.0Y8.2
X37.2Y-22.8
X38.3Y-49.0
X43.2Y-10.9
X48.0Y-29.9
X50.0Y27.3
X53.0Y8.2
X55.5Y-67.8
X57.1Y-49.0
X62.1Y-10.9
X67.0Y-29.9
X69.0Y27.3
X72.0Y8.2
X76.1Y-48.9
X80.9Y-10.9
X86.1Y-29.9
X86.8Y-54.3
X88.0Y27.3
X90.9Y8.2
X95.1Y-48.9
X100.0Y-10.9
X105.0Y-29.9
X105.8Y-54.2
X110.0Y8.2
X114.1Y-49.0
X117.0Y27.2
X119.0Y-10.8
X124.1Y-29.9
X126.8Y-68.0
X129.0Y8.2
X133.2Y-49.0
X138.1Y-10.9
X139.0Y27.3
X143.0Y-29.9
X143.9Y-54.1
X148.0Y8.2
X152.2Y-49.0
X157.0Y-10.9
X158.0Y27.4
X162.1Y-29.9
X163.1Y-54.3
X166.9Y8.2
X172.1Y-48.9
X176.1Y-10.9
X177.0Y27.3
X181.1Y-29.9
X182.1Y-54.2
X186.1Y8.2
X191.1Y-49.0
X195.3Y-10.9
X198.1Y-68.0
X200.1Y-30.0
X201.1Y-54.2
X205.0Y27.3
X205.0Y8.2
X210.1Y-49.0
X215.1Y-10.9
X219.1Y-29.9
X224.0Y27.3
X224.0Y8.2
X224.9Y-68.0
X233.9Y-10.9
X243.0Y27.3
X243.4Y-68.0
X243.6Y-49.1
X250.3Y-29.9
X252.4Y8.2
X257.3Y-10.9
X261.9Y27.3
X262.0Y-68.0
T3
X-6.0Y-33.745
X-6.0Y-36.285
X-6.0Y-38.825
T2
G00X12.343Y29.315
M15
G01X12.343Y28.715
M16
G05
G00X12.343Y25.216
M15
G01X12.343Y24.415
M16
G05
G00X20.993Y29.315
M15
G01X20.993Y28.715
M16
G05
G00X20.993Y25.215
M15
G01X20.993Y24.416
M16
G05
T0
M30
