%FSLAX45Y45*%
G04 Gerber Fmt 4.5, Leading zero omitted, Abs format (unit mm)*
G04 Created by KiCad (PCBNEW (6.0.1-0)) date 2022-06-29 12:55:52*
%MOMM*%
%LPD*%
G01*
G04 APERTURE LIST*
%TA.AperFunction,Profile*%
%ADD10C,0.100000*%
%TD*%
%ADD11C,0.200000*%
%ADD12C,0.075001*%
%ADD13C,0.175000*%
%ADD14C,0.220000*%
%ADD15C,0.304800*%
%ADD16C,0.305000*%
%ADD17C,0.398780*%
%ADD18C,0.400000*%
G04 APERTURE END LIST*
D10*
X1905000Y-13096875D02*
X1905000Y-2143125D01*
X30241875Y-13335000D02*
X2143125Y-13335000D01*
X4048125Y-1666875D02*
X5000625Y-1666875D01*
X30480000Y-2143125D02*
X30480000Y-13096875D01*
X5238750Y-1905000D02*
X30241875Y-1905000D01*
X4048125Y-1666875D02*
X3810000Y-1905000D01*
X2143125Y-1905000D02*
X3810000Y-1905000D01*
X30241875Y-13335000D02*
G75*
G03*
X30480000Y-13096875I0J238125D01*
G01*
X1905000Y-13096875D02*
G75*
G03*
X2143125Y-13335000I238125J0D01*
G01*
X5000625Y-1666875D02*
X5238750Y-1905000D01*
X2143125Y-1905000D02*
G75*
G03*
X1905000Y-2143125I0J-238125D01*
G01*
X30480000Y-2143125D02*
G75*
G03*
X30241875Y-1905000I-238125J0D01*
G01*
D11*
D12*
X4196780Y-2193438D02*
X4271782Y-2268439D01*
X4271782Y-2193438D02*
X4196780Y-2268439D01*
X4776765Y-2193438D02*
X4851766Y-2268439D01*
X4851766Y-2193438D02*
X4776765Y-2268439D01*
D13*
X2437000Y-2857500D02*
G75*
G03*
X2437000Y-2857500I-87500J0D01*
G01*
X2437000Y-4762500D02*
G75*
G03*
X2437000Y-4762500I-87500J0D01*
G01*
X2437000Y-12382500D02*
G75*
G03*
X2437000Y-12382500I-87500J0D01*
G01*
X2913250Y-6667500D02*
G75*
G03*
X2913250Y-6667500I-87500J0D01*
G01*
X3151375Y-8572500D02*
G75*
G03*
X3151375Y-8572500I-87500J0D01*
G01*
X3453000Y-2857500D02*
G75*
G03*
X3453000Y-2857500I-87500J0D01*
G01*
X3453000Y-4762500D02*
G75*
G03*
X3453000Y-4762500I-87500J0D01*
G01*
X3453000Y-12382500D02*
G75*
G03*
X3453000Y-12382500I-87500J0D01*
G01*
X3627625Y-10477500D02*
G75*
G03*
X3627625Y-10477500I-87500J0D01*
G01*
X3929250Y-6667500D02*
G75*
G03*
X3929250Y-6667500I-87500J0D01*
G01*
X4167375Y-8572500D02*
G75*
G03*
X4167375Y-8572500I-87500J0D01*
G01*
X4342000Y-4762500D02*
G75*
G03*
X4342000Y-4762500I-87500J0D01*
G01*
X4342000Y-12382500D02*
G75*
G03*
X4342000Y-12382500I-87500J0D01*
G01*
X4643625Y-10477500D02*
G75*
G03*
X4643625Y-10477500I-87500J0D01*
G01*
X5294500Y-6667500D02*
G75*
G03*
X5294500Y-6667500I-87500J0D01*
G01*
X5358000Y-4762500D02*
G75*
G03*
X5358000Y-4762500I-87500J0D01*
G01*
X5358000Y-12382500D02*
G75*
G03*
X5358000Y-12382500I-87500J0D01*
G01*
X5770750Y-8572500D02*
G75*
G03*
X5770750Y-8572500I-87500J0D01*
G01*
X6008875Y-2857500D02*
G75*
G03*
X6008875Y-2857500I-87500J0D01*
G01*
X6247000Y-4762500D02*
G75*
G03*
X6247000Y-4762500I-87500J0D01*
G01*
X6247000Y-12382500D02*
G75*
G03*
X6247000Y-12382500I-87500J0D01*
G01*
X6310500Y-6667500D02*
G75*
G03*
X6310500Y-6667500I-87500J0D01*
G01*
X6723250Y-10477500D02*
G75*
G03*
X6723250Y-10477500I-87500J0D01*
G01*
X6786750Y-8572500D02*
G75*
G03*
X6786750Y-8572500I-87500J0D01*
G01*
X7024875Y-2857500D02*
G75*
G03*
X7024875Y-2857500I-87500J0D01*
G01*
X7199500Y-6667500D02*
G75*
G03*
X7199500Y-6667500I-87500J0D01*
G01*
X7263000Y-4762500D02*
G75*
G03*
X7263000Y-4762500I-87500J0D01*
G01*
X7263000Y-12382500D02*
G75*
G03*
X7263000Y-12382500I-87500J0D01*
G01*
X7675750Y-8572500D02*
G75*
G03*
X7675750Y-8572500I-87500J0D01*
G01*
X7739250Y-10477500D02*
G75*
G03*
X7739250Y-10477500I-87500J0D01*
G01*
X7913875Y-2857500D02*
G75*
G03*
X7913875Y-2857500I-87500J0D01*
G01*
X8152000Y-4762500D02*
G75*
G03*
X8152000Y-4762500I-87500J0D01*
G01*
X8215500Y-6667500D02*
G75*
G03*
X8215500Y-6667500I-87500J0D01*
G01*
X8390125Y-12382500D02*
G75*
G03*
X8390125Y-12382500I-87500J0D01*
G01*
X8628250Y-10477500D02*
G75*
G03*
X8628250Y-10477500I-87500J0D01*
G01*
X8691750Y-8572500D02*
G75*
G03*
X8691750Y-8572500I-87500J0D01*
G01*
X8929875Y-2857500D02*
G75*
G03*
X8929875Y-2857500I-87500J0D01*
G01*
X9104500Y-6667500D02*
G75*
G03*
X9104500Y-6667500I-87500J0D01*
G01*
X9168000Y-4762500D02*
G75*
G03*
X9168000Y-4762500I-87500J0D01*
G01*
X9406125Y-12382500D02*
G75*
G03*
X9406125Y-12382500I-87500J0D01*
G01*
X9580750Y-8572500D02*
G75*
G03*
X9580750Y-8572500I-87500J0D01*
G01*
X9644250Y-10477500D02*
G75*
G03*
X9644250Y-10477500I-87500J0D01*
G01*
X9818875Y-2857500D02*
G75*
G03*
X9818875Y-2857500I-87500J0D01*
G01*
X10057000Y-4762500D02*
G75*
G03*
X10057000Y-4762500I-87500J0D01*
G01*
X10120500Y-6667500D02*
G75*
G03*
X10120500Y-6667500I-87500J0D01*
G01*
X10533250Y-10477500D02*
G75*
G03*
X10533250Y-10477500I-87500J0D01*
G01*
X10596750Y-8572500D02*
G75*
G03*
X10596750Y-8572500I-87500J0D01*
G01*
X10834875Y-2857500D02*
G75*
G03*
X10834875Y-2857500I-87500J0D01*
G01*
X11009500Y-6667500D02*
G75*
G03*
X11009500Y-6667500I-87500J0D01*
G01*
X11073000Y-4762500D02*
G75*
G03*
X11073000Y-4762500I-87500J0D01*
G01*
X11485750Y-8572500D02*
G75*
G03*
X11485750Y-8572500I-87500J0D01*
G01*
X11549250Y-10477500D02*
G75*
G03*
X11549250Y-10477500I-87500J0D01*
G01*
X11723875Y-2857500D02*
G75*
G03*
X11723875Y-2857500I-87500J0D01*
G01*
X11962000Y-4762500D02*
G75*
G03*
X11962000Y-4762500I-87500J0D01*
G01*
X12025500Y-6667500D02*
G75*
G03*
X12025500Y-6667500I-87500J0D01*
G01*
X12438250Y-10477500D02*
G75*
G03*
X12438250Y-10477500I-87500J0D01*
G01*
X12501750Y-8572500D02*
G75*
G03*
X12501750Y-8572500I-87500J0D01*
G01*
X12739875Y-2857500D02*
G75*
G03*
X12739875Y-2857500I-87500J0D01*
G01*
X12914500Y-6667500D02*
G75*
G03*
X12914500Y-6667500I-87500J0D01*
G01*
X12978000Y-4762500D02*
G75*
G03*
X12978000Y-4762500I-87500J0D01*
G01*
X13390750Y-8572500D02*
G75*
G03*
X13390750Y-8572500I-87500J0D01*
G01*
X13454250Y-10477500D02*
G75*
G03*
X13454250Y-10477500I-87500J0D01*
G01*
X13867000Y-4762500D02*
G75*
G03*
X13867000Y-4762500I-87500J0D01*
G01*
X13930500Y-6667500D02*
G75*
G03*
X13930500Y-6667500I-87500J0D01*
G01*
X14343250Y-10477500D02*
G75*
G03*
X14343250Y-10477500I-87500J0D01*
G01*
X14406750Y-8572500D02*
G75*
G03*
X14406750Y-8572500I-87500J0D01*
G01*
X14581375Y-2857500D02*
G75*
G03*
X14581375Y-2857500I-87500J0D01*
G01*
X14819500Y-6667500D02*
G75*
G03*
X14819500Y-6667500I-87500J0D01*
G01*
X14883000Y-4762500D02*
G75*
G03*
X14883000Y-4762500I-87500J0D01*
G01*
X15295750Y-8572500D02*
G75*
G03*
X15295750Y-8572500I-87500J0D01*
G01*
X15359250Y-10477500D02*
G75*
G03*
X15359250Y-10477500I-87500J0D01*
G01*
X15533875Y-12382500D02*
G75*
G03*
X15533875Y-12382500I-87500J0D01*
G01*
X15597375Y-2857500D02*
G75*
G03*
X15597375Y-2857500I-87500J0D01*
G01*
X15772000Y-4762500D02*
G75*
G03*
X15772000Y-4762500I-87500J0D01*
G01*
X15835500Y-6667500D02*
G75*
G03*
X15835500Y-6667500I-87500J0D01*
G01*
X16248250Y-10477500D02*
G75*
G03*
X16248250Y-10477500I-87500J0D01*
G01*
X16311750Y-8572500D02*
G75*
G03*
X16311750Y-8572500I-87500J0D01*
G01*
X16549875Y-12382500D02*
G75*
G03*
X16549875Y-12382500I-87500J0D01*
G01*
X16724500Y-2857500D02*
G75*
G03*
X16724500Y-2857500I-87500J0D01*
G01*
X16724500Y-6667500D02*
G75*
G03*
X16724500Y-6667500I-87500J0D01*
G01*
X16788000Y-4762500D02*
G75*
G03*
X16788000Y-4762500I-87500J0D01*
G01*
X17200750Y-8572500D02*
G75*
G03*
X17200750Y-8572500I-87500J0D01*
G01*
X17264250Y-10477500D02*
G75*
G03*
X17264250Y-10477500I-87500J0D01*
G01*
X17677000Y-4762500D02*
G75*
G03*
X17677000Y-4762500I-87500J0D01*
G01*
X17740500Y-2857500D02*
G75*
G03*
X17740500Y-2857500I-87500J0D01*
G01*
X17740500Y-6667500D02*
G75*
G03*
X17740500Y-6667500I-87500J0D01*
G01*
X18153250Y-10477500D02*
G75*
G03*
X18153250Y-10477500I-87500J0D01*
G01*
X18216750Y-8572500D02*
G75*
G03*
X18216750Y-8572500I-87500J0D01*
G01*
X18629500Y-2857500D02*
G75*
G03*
X18629500Y-2857500I-87500J0D01*
G01*
X18629500Y-6667500D02*
G75*
G03*
X18629500Y-6667500I-87500J0D01*
G01*
X18693000Y-4762500D02*
G75*
G03*
X18693000Y-4762500I-87500J0D01*
G01*
X19105750Y-8572500D02*
G75*
G03*
X19105750Y-8572500I-87500J0D01*
G01*
X19169250Y-10477500D02*
G75*
G03*
X19169250Y-10477500I-87500J0D01*
G01*
X19582000Y-4762500D02*
G75*
G03*
X19582000Y-4762500I-87500J0D01*
G01*
X19645500Y-2857500D02*
G75*
G03*
X19645500Y-2857500I-87500J0D01*
G01*
X19645500Y-6667500D02*
G75*
G03*
X19645500Y-6667500I-87500J0D01*
G01*
X20058250Y-10477500D02*
G75*
G03*
X20058250Y-10477500I-87500J0D01*
G01*
X20121750Y-8572500D02*
G75*
G03*
X20121750Y-8572500I-87500J0D01*
G01*
X20534500Y-2857500D02*
G75*
G03*
X20534500Y-2857500I-87500J0D01*
G01*
X20534500Y-6667500D02*
G75*
G03*
X20534500Y-6667500I-87500J0D01*
G01*
X20598000Y-4762500D02*
G75*
G03*
X20598000Y-4762500I-87500J0D01*
G01*
X21010750Y-8572500D02*
G75*
G03*
X21010750Y-8572500I-87500J0D01*
G01*
X21074250Y-10477500D02*
G75*
G03*
X21074250Y-10477500I-87500J0D01*
G01*
X21487000Y-4762500D02*
G75*
G03*
X21487000Y-4762500I-87500J0D01*
G01*
X21550500Y-2857500D02*
G75*
G03*
X21550500Y-2857500I-87500J0D01*
G01*
X21550500Y-6667500D02*
G75*
G03*
X21550500Y-6667500I-87500J0D01*
G01*
X21963250Y-10477500D02*
G75*
G03*
X21963250Y-10477500I-87500J0D01*
G01*
X22026750Y-8572500D02*
G75*
G03*
X22026750Y-8572500I-87500J0D01*
G01*
X22439500Y-6667500D02*
G75*
G03*
X22439500Y-6667500I-87500J0D01*
G01*
X22503000Y-4762500D02*
G75*
G03*
X22503000Y-4762500I-87500J0D01*
G01*
X22677625Y-12382500D02*
G75*
G03*
X22677625Y-12382500I-87500J0D01*
G01*
X22915750Y-8572500D02*
G75*
G03*
X22915750Y-8572500I-87500J0D01*
G01*
X22979250Y-10477500D02*
G75*
G03*
X22979250Y-10477500I-87500J0D01*
G01*
X23392000Y-2857500D02*
G75*
G03*
X23392000Y-2857500I-87500J0D01*
G01*
X23392000Y-4762500D02*
G75*
G03*
X23392000Y-4762500I-87500J0D01*
G01*
X23455500Y-6667500D02*
G75*
G03*
X23455500Y-6667500I-87500J0D01*
G01*
X23693625Y-12382500D02*
G75*
G03*
X23693625Y-12382500I-87500J0D01*
G01*
X23868250Y-10477500D02*
G75*
G03*
X23868250Y-10477500I-87500J0D01*
G01*
X23931750Y-8572500D02*
G75*
G03*
X23931750Y-8572500I-87500J0D01*
G01*
X24344500Y-6667500D02*
G75*
G03*
X24344500Y-6667500I-87500J0D01*
G01*
X24408000Y-2857500D02*
G75*
G03*
X24408000Y-2857500I-87500J0D01*
G01*
X24408000Y-4762500D02*
G75*
G03*
X24408000Y-4762500I-87500J0D01*
G01*
X24820750Y-8572500D02*
G75*
G03*
X24820750Y-8572500I-87500J0D01*
G01*
X24884250Y-10477500D02*
G75*
G03*
X24884250Y-10477500I-87500J0D01*
G01*
X25297000Y-2857500D02*
G75*
G03*
X25297000Y-2857500I-87500J0D01*
G01*
X25297000Y-4762500D02*
G75*
G03*
X25297000Y-4762500I-87500J0D01*
G01*
X25297000Y-12382500D02*
G75*
G03*
X25297000Y-12382500I-87500J0D01*
G01*
X25360500Y-6667500D02*
G75*
G03*
X25360500Y-6667500I-87500J0D01*
G01*
X25836750Y-8572500D02*
G75*
G03*
X25836750Y-8572500I-87500J0D01*
G01*
X26249500Y-6667500D02*
G75*
G03*
X26249500Y-6667500I-87500J0D01*
G01*
X26313000Y-2857500D02*
G75*
G03*
X26313000Y-2857500I-87500J0D01*
G01*
X26313000Y-4762500D02*
G75*
G03*
X26313000Y-4762500I-87500J0D01*
G01*
X26313000Y-12382500D02*
G75*
G03*
X26313000Y-12382500I-87500J0D01*
G01*
X27202000Y-2857500D02*
G75*
G03*
X27202000Y-2857500I-87500J0D01*
G01*
X27202000Y-10477500D02*
G75*
G03*
X27202000Y-10477500I-87500J0D01*
G01*
X27202000Y-12382500D02*
G75*
G03*
X27202000Y-12382500I-87500J0D01*
G01*
X27265500Y-6667500D02*
G75*
G03*
X27265500Y-6667500I-87500J0D01*
G01*
X27916375Y-8572500D02*
G75*
G03*
X27916375Y-8572500I-87500J0D01*
G01*
X28154500Y-4762500D02*
G75*
G03*
X28154500Y-4762500I-87500J0D01*
G01*
X28218000Y-2857500D02*
G75*
G03*
X28218000Y-2857500I-87500J0D01*
G01*
X28218000Y-10477500D02*
G75*
G03*
X28218000Y-10477500I-87500J0D01*
G01*
X28218000Y-12382500D02*
G75*
G03*
X28218000Y-12382500I-87500J0D01*
G01*
X28630750Y-6667500D02*
G75*
G03*
X28630750Y-6667500I-87500J0D01*
G01*
X28932375Y-8572500D02*
G75*
G03*
X28932375Y-8572500I-87500J0D01*
G01*
X29107000Y-2857500D02*
G75*
G03*
X29107000Y-2857500I-87500J0D01*
G01*
X29107000Y-12382500D02*
G75*
G03*
X29107000Y-12382500I-87500J0D01*
G01*
X29170500Y-4762500D02*
G75*
G03*
X29170500Y-4762500I-87500J0D01*
G01*
X29646750Y-6667500D02*
G75*
G03*
X29646750Y-6667500I-87500J0D01*
G01*
X30123000Y-2857500D02*
G75*
G03*
X30123000Y-2857500I-87500J0D01*
G01*
X30123000Y-12382500D02*
G75*
G03*
X30123000Y-12382500I-87500J0D01*
G01*
D14*
X2143125Y-6557500D02*
X2143125Y-6777500D01*
X2033125Y-6667500D02*
X2253125Y-6667500D01*
X3810000Y-12272500D02*
X3810000Y-12492500D01*
X3700000Y-12382500D02*
X3920000Y-12382500D01*
X4524375Y-3223750D02*
X4524375Y-3443750D01*
X4414375Y-3333750D02*
X4634375Y-3333750D01*
X10477500Y-7033750D02*
X10477500Y-7253750D01*
X10367500Y-7143750D02*
X10587500Y-7143750D01*
X13573125Y-2747500D02*
X13573125Y-2967500D01*
X13463125Y-2857500D02*
X13683125Y-2857500D01*
X13573125Y-12272500D02*
X13573125Y-12492500D01*
X13463125Y-12382500D02*
X13683125Y-12382500D01*
X18335625Y-12272500D02*
X18335625Y-12492500D01*
X18225625Y-12382500D02*
X18445625Y-12382500D01*
X21907500Y-7033750D02*
X21907500Y-7253750D01*
X21797500Y-7143750D02*
X22017500Y-7143750D01*
X22383750Y-2747500D02*
X22383750Y-2967500D01*
X22273750Y-2857500D02*
X22493750Y-2857500D01*
X28575000Y-2985625D02*
X28575000Y-3205625D01*
X28465000Y-3095625D02*
X28685000Y-3095625D01*
X28575000Y-12510625D02*
X28575000Y-12730625D01*
X28465000Y-12620625D02*
X28685000Y-12620625D01*
X30003750Y-7033750D02*
X30003750Y-7253750D01*
X29893750Y-7143750D02*
X30113750Y-7143750D01*
D15*
X2962089Y-9886764D02*
X2962089Y-9671236D01*
X2746561Y-9671236D01*
X2746561Y-9886764D01*
X2962089Y-9886764D01*
X5349689Y-9886764D02*
X5349689Y-9671236D01*
X5134161Y-9671236D01*
X5134161Y-9886764D01*
X5349689Y-9886764D01*
X11062139Y-13188764D02*
X11062139Y-12973236D01*
X10846611Y-12973236D01*
X10846611Y-13188764D01*
X11062139Y-13188764D01*
X21062139Y-13188764D02*
X21062139Y-12973236D01*
X20846611Y-12973236D01*
X20846611Y-13188764D01*
X21062139Y-13188764D01*
X27250839Y-7981764D02*
X27250839Y-7766236D01*
X27035311Y-7766236D01*
X27035311Y-7981764D01*
X27250839Y-7981764D01*
X27488964Y-4171764D02*
X27488964Y-3956236D01*
X27273436Y-3956236D01*
X27273436Y-4171764D01*
X27488964Y-4171764D01*
X29638439Y-7981764D02*
X29638439Y-7766236D01*
X29422911Y-7766236D01*
X29422911Y-7981764D01*
X29638439Y-7981764D01*
X29876564Y-4171764D02*
X29876564Y-3956236D01*
X29661036Y-3956236D01*
X29661036Y-4171764D01*
X29876564Y-4171764D01*
D16*
X2476500Y-2756000D02*
X2629000Y-2603500D01*
X2476500Y-2451000D01*
X2324000Y-2603500D01*
X2476500Y-2756000D01*
X2476500Y-4661000D02*
X2629000Y-4508500D01*
X2476500Y-4356000D01*
X2324000Y-4508500D01*
X2476500Y-4661000D01*
X2476500Y-12281000D02*
X2629000Y-12128500D01*
X2476500Y-11976000D01*
X2324000Y-12128500D01*
X2476500Y-12281000D01*
X2952750Y-6566000D02*
X3105250Y-6413500D01*
X2952750Y-6261000D01*
X2800250Y-6413500D01*
X2952750Y-6566000D01*
X3111500Y-2502000D02*
X3264000Y-2349500D01*
X3111500Y-2197000D01*
X2959000Y-2349500D01*
X3111500Y-2502000D01*
X3111500Y-4407000D02*
X3264000Y-4254500D01*
X3111500Y-4102000D01*
X2959000Y-4254500D01*
X3111500Y-4407000D01*
X3111500Y-12027000D02*
X3264000Y-11874500D01*
X3111500Y-11722000D01*
X2959000Y-11874500D01*
X3111500Y-12027000D01*
X3190875Y-8471000D02*
X3343375Y-8318500D01*
X3190875Y-8166000D01*
X3038375Y-8318500D01*
X3190875Y-8471000D01*
X3587750Y-6312000D02*
X3740250Y-6159500D01*
X3587750Y-6007000D01*
X3435250Y-6159500D01*
X3587750Y-6312000D01*
X3667125Y-10376000D02*
X3819625Y-10223500D01*
X3667125Y-10071000D01*
X3514625Y-10223500D01*
X3667125Y-10376000D01*
X3825875Y-8217000D02*
X3978375Y-8064500D01*
X3825875Y-7912000D01*
X3673375Y-8064500D01*
X3825875Y-8217000D01*
X4302125Y-10122000D02*
X4454625Y-9969500D01*
X4302125Y-9817000D01*
X4149625Y-9969500D01*
X4302125Y-10122000D01*
X4381500Y-4661000D02*
X4534000Y-4508500D01*
X4381500Y-4356000D01*
X4229000Y-4508500D01*
X4381500Y-4661000D01*
X4381500Y-12281000D02*
X4534000Y-12128500D01*
X4381500Y-11976000D01*
X4229000Y-12128500D01*
X4381500Y-12281000D01*
X5016500Y-4407000D02*
X5169000Y-4254500D01*
X5016500Y-4102000D01*
X4864000Y-4254500D01*
X5016500Y-4407000D01*
X5016500Y-12027000D02*
X5169000Y-11874500D01*
X5016500Y-11722000D01*
X4864000Y-11874500D01*
X5016500Y-12027000D01*
X5334000Y-6566000D02*
X5486500Y-6413500D01*
X5334000Y-6261000D01*
X5181500Y-6413500D01*
X5334000Y-6566000D01*
X5810250Y-8471000D02*
X5962750Y-8318500D01*
X5810250Y-8166000D01*
X5657750Y-8318500D01*
X5810250Y-8471000D01*
X5969000Y-6312000D02*
X6121500Y-6159500D01*
X5969000Y-6007000D01*
X5816500Y-6159500D01*
X5969000Y-6312000D01*
X6048375Y-2756000D02*
X6200875Y-2603500D01*
X6048375Y-2451000D01*
X5895875Y-2603500D01*
X6048375Y-2756000D01*
X6286500Y-4661000D02*
X6439000Y-4508500D01*
X6286500Y-4356000D01*
X6134000Y-4508500D01*
X6286500Y-4661000D01*
X6286500Y-12281000D02*
X6439000Y-12128500D01*
X6286500Y-11976000D01*
X6134000Y-12128500D01*
X6286500Y-12281000D01*
X6445250Y-8217000D02*
X6597750Y-8064500D01*
X6445250Y-7912000D01*
X6292750Y-8064500D01*
X6445250Y-8217000D01*
X6683375Y-2502000D02*
X6835875Y-2349500D01*
X6683375Y-2197000D01*
X6530875Y-2349500D01*
X6683375Y-2502000D01*
X6762750Y-10376000D02*
X6915250Y-10223500D01*
X6762750Y-10071000D01*
X6610250Y-10223500D01*
X6762750Y-10376000D01*
X6921500Y-4407000D02*
X7074000Y-4254500D01*
X6921500Y-4102000D01*
X6769000Y-4254500D01*
X6921500Y-4407000D01*
X6921500Y-12027000D02*
X7074000Y-11874500D01*
X6921500Y-11722000D01*
X6769000Y-11874500D01*
X6921500Y-12027000D01*
X7239000Y-6566000D02*
X7391500Y-6413500D01*
X7239000Y-6261000D01*
X7086500Y-6413500D01*
X7239000Y-6566000D01*
X7397750Y-10122000D02*
X7550250Y-9969500D01*
X7397750Y-9817000D01*
X7245250Y-9969500D01*
X7397750Y-10122000D01*
X7715250Y-8471000D02*
X7867750Y-8318500D01*
X7715250Y-8166000D01*
X7562750Y-8318500D01*
X7715250Y-8471000D01*
X7874000Y-6312000D02*
X8026500Y-6159500D01*
X7874000Y-6007000D01*
X7721500Y-6159500D01*
X7874000Y-6312000D01*
X7953375Y-2756000D02*
X8105875Y-2603500D01*
X7953375Y-2451000D01*
X7800875Y-2603500D01*
X7953375Y-2756000D01*
X8191500Y-4661000D02*
X8344000Y-4508500D01*
X8191500Y-4356000D01*
X8039000Y-4508500D01*
X8191500Y-4661000D01*
X8350250Y-8217000D02*
X8502750Y-8064500D01*
X8350250Y-7912000D01*
X8197750Y-8064500D01*
X8350250Y-8217000D01*
X8429625Y-12281000D02*
X8582125Y-12128500D01*
X8429625Y-11976000D01*
X8277125Y-12128500D01*
X8429625Y-12281000D01*
X8588375Y-2502000D02*
X8740875Y-2349500D01*
X8588375Y-2197000D01*
X8435875Y-2349500D01*
X8588375Y-2502000D01*
X8667750Y-10376000D02*
X8820250Y-10223500D01*
X8667750Y-10071000D01*
X8515250Y-10223500D01*
X8667750Y-10376000D01*
X8826500Y-4407000D02*
X8979000Y-4254500D01*
X8826500Y-4102000D01*
X8674000Y-4254500D01*
X8826500Y-4407000D01*
X9064625Y-12027000D02*
X9217125Y-11874500D01*
X9064625Y-11722000D01*
X8912125Y-11874500D01*
X9064625Y-12027000D01*
X9144000Y-6566000D02*
X9296500Y-6413500D01*
X9144000Y-6261000D01*
X8991500Y-6413500D01*
X9144000Y-6566000D01*
X9302750Y-10122000D02*
X9455250Y-9969500D01*
X9302750Y-9817000D01*
X9150250Y-9969500D01*
X9302750Y-10122000D01*
X9620250Y-8471000D02*
X9772750Y-8318500D01*
X9620250Y-8166000D01*
X9467750Y-8318500D01*
X9620250Y-8471000D01*
X9779000Y-6312000D02*
X9931500Y-6159500D01*
X9779000Y-6007000D01*
X9626500Y-6159500D01*
X9779000Y-6312000D01*
X9858375Y-2756000D02*
X10010875Y-2603500D01*
X9858375Y-2451000D01*
X9705875Y-2603500D01*
X9858375Y-2756000D01*
X10096500Y-4661000D02*
X10249000Y-4508500D01*
X10096500Y-4356000D01*
X9944000Y-4508500D01*
X10096500Y-4661000D01*
X10255250Y-8217000D02*
X10407750Y-8064500D01*
X10255250Y-7912000D01*
X10102750Y-8064500D01*
X10255250Y-8217000D01*
X10493375Y-2502000D02*
X10645875Y-2349500D01*
X10493375Y-2197000D01*
X10340875Y-2349500D01*
X10493375Y-2502000D01*
X10572750Y-10376000D02*
X10725250Y-10223500D01*
X10572750Y-10071000D01*
X10420250Y-10223500D01*
X10572750Y-10376000D01*
X10731500Y-4407000D02*
X10884000Y-4254500D01*
X10731500Y-4102000D01*
X10579000Y-4254500D01*
X10731500Y-4407000D01*
X11049000Y-6566000D02*
X11201500Y-6413500D01*
X11049000Y-6261000D01*
X10896500Y-6413500D01*
X11049000Y-6566000D01*
X11207750Y-10122000D02*
X11360250Y-9969500D01*
X11207750Y-9817000D01*
X11055250Y-9969500D01*
X11207750Y-10122000D01*
X11525250Y-8471000D02*
X11677750Y-8318500D01*
X11525250Y-8166000D01*
X11372750Y-8318500D01*
X11525250Y-8471000D01*
X11684000Y-6312000D02*
X11836500Y-6159500D01*
X11684000Y-6007000D01*
X11531500Y-6159500D01*
X11684000Y-6312000D01*
X11763375Y-2756000D02*
X11915875Y-2603500D01*
X11763375Y-2451000D01*
X11610875Y-2603500D01*
X11763375Y-2756000D01*
X12001500Y-4661000D02*
X12154000Y-4508500D01*
X12001500Y-4356000D01*
X11849000Y-4508500D01*
X12001500Y-4661000D01*
X12160250Y-8217000D02*
X12312750Y-8064500D01*
X12160250Y-7912000D01*
X12007750Y-8064500D01*
X12160250Y-8217000D01*
X12398375Y-2502000D02*
X12550875Y-2349500D01*
X12398375Y-2197000D01*
X12245875Y-2349500D01*
X12398375Y-2502000D01*
X12477750Y-10376000D02*
X12630250Y-10223500D01*
X12477750Y-10071000D01*
X12325250Y-10223500D01*
X12477750Y-10376000D01*
X12636500Y-4407000D02*
X12789000Y-4254500D01*
X12636500Y-4102000D01*
X12484000Y-4254500D01*
X12636500Y-4407000D01*
X12954000Y-6566000D02*
X13106500Y-6413500D01*
X12954000Y-6261000D01*
X12801500Y-6413500D01*
X12954000Y-6566000D01*
X13112750Y-10122000D02*
X13265250Y-9969500D01*
X13112750Y-9817000D01*
X12960250Y-9969500D01*
X13112750Y-10122000D01*
X13430250Y-8471000D02*
X13582750Y-8318500D01*
X13430250Y-8166000D01*
X13277750Y-8318500D01*
X13430250Y-8471000D01*
X13589000Y-6312000D02*
X13741500Y-6159500D01*
X13589000Y-6007000D01*
X13436500Y-6159500D01*
X13589000Y-6312000D01*
X13906500Y-4661000D02*
X14059000Y-4508500D01*
X13906500Y-4356000D01*
X13754000Y-4508500D01*
X13906500Y-4661000D01*
X14065250Y-8217000D02*
X14217750Y-8064500D01*
X14065250Y-7912000D01*
X13912750Y-8064500D01*
X14065250Y-8217000D01*
X14382750Y-10376000D02*
X14535250Y-10223500D01*
X14382750Y-10071000D01*
X14230250Y-10223500D01*
X14382750Y-10376000D01*
X14541500Y-4407000D02*
X14694000Y-4254500D01*
X14541500Y-4102000D01*
X14389000Y-4254500D01*
X14541500Y-4407000D01*
X14620875Y-2756000D02*
X14773375Y-2603500D01*
X14620875Y-2451000D01*
X14468375Y-2603500D01*
X14620875Y-2756000D01*
X14859000Y-6566000D02*
X15011500Y-6413500D01*
X14859000Y-6261000D01*
X14706500Y-6413500D01*
X14859000Y-6566000D01*
X15017750Y-10122000D02*
X15170250Y-9969500D01*
X15017750Y-9817000D01*
X14865250Y-9969500D01*
X15017750Y-10122000D01*
X15255875Y-2502000D02*
X15408375Y-2349500D01*
X15255875Y-2197000D01*
X15103375Y-2349500D01*
X15255875Y-2502000D01*
X15335250Y-8471000D02*
X15487750Y-8318500D01*
X15335250Y-8166000D01*
X15182750Y-8318500D01*
X15335250Y-8471000D01*
X15494000Y-6312000D02*
X15646500Y-6159500D01*
X15494000Y-6007000D01*
X15341500Y-6159500D01*
X15494000Y-6312000D01*
X15573375Y-12281000D02*
X15725875Y-12128500D01*
X15573375Y-11976000D01*
X15420875Y-12128500D01*
X15573375Y-12281000D01*
X15811500Y-4661000D02*
X15964000Y-4508500D01*
X15811500Y-4356000D01*
X15659000Y-4508500D01*
X15811500Y-4661000D01*
X15970250Y-8217000D02*
X16122750Y-8064500D01*
X15970250Y-7912000D01*
X15817750Y-8064500D01*
X15970250Y-8217000D01*
X16208375Y-12027000D02*
X16360875Y-11874500D01*
X16208375Y-11722000D01*
X16055875Y-11874500D01*
X16208375Y-12027000D01*
X16287750Y-10376000D02*
X16440250Y-10223500D01*
X16287750Y-10071000D01*
X16135250Y-10223500D01*
X16287750Y-10376000D01*
X16446500Y-4407000D02*
X16599000Y-4254500D01*
X16446500Y-4102000D01*
X16294000Y-4254500D01*
X16446500Y-4407000D01*
X16764000Y-2756000D02*
X16916500Y-2603500D01*
X16764000Y-2451000D01*
X16611500Y-2603500D01*
X16764000Y-2756000D01*
X16764000Y-6566000D02*
X16916500Y-6413500D01*
X16764000Y-6261000D01*
X16611500Y-6413500D01*
X16764000Y-6566000D01*
X16922750Y-10122000D02*
X17075250Y-9969500D01*
X16922750Y-9817000D01*
X16770250Y-9969500D01*
X16922750Y-10122000D01*
X17240250Y-8471000D02*
X17392750Y-8318500D01*
X17240250Y-8166000D01*
X17087750Y-8318500D01*
X17240250Y-8471000D01*
X17399000Y-2502000D02*
X17551500Y-2349500D01*
X17399000Y-2197000D01*
X17246500Y-2349500D01*
X17399000Y-2502000D01*
X17399000Y-6312000D02*
X17551500Y-6159500D01*
X17399000Y-6007000D01*
X17246500Y-6159500D01*
X17399000Y-6312000D01*
X17716500Y-4661000D02*
X17869000Y-4508500D01*
X17716500Y-4356000D01*
X17564000Y-4508500D01*
X17716500Y-4661000D01*
X17875250Y-8217000D02*
X18027750Y-8064500D01*
X17875250Y-7912000D01*
X17722750Y-8064500D01*
X17875250Y-8217000D01*
X18192750Y-10376000D02*
X18345250Y-10223500D01*
X18192750Y-10071000D01*
X18040250Y-10223500D01*
X18192750Y-10376000D01*
X18351500Y-4407000D02*
X18504000Y-4254500D01*
X18351500Y-4102000D01*
X18199000Y-4254500D01*
X18351500Y-4407000D01*
X18669000Y-2756000D02*
X18821500Y-2603500D01*
X18669000Y-2451000D01*
X18516500Y-2603500D01*
X18669000Y-2756000D01*
X18669000Y-6566000D02*
X18821500Y-6413500D01*
X18669000Y-6261000D01*
X18516500Y-6413500D01*
X18669000Y-6566000D01*
X18827750Y-10122000D02*
X18980250Y-9969500D01*
X18827750Y-9817000D01*
X18675250Y-9969500D01*
X18827750Y-10122000D01*
X19145250Y-8471000D02*
X19297750Y-8318500D01*
X19145250Y-8166000D01*
X18992750Y-8318500D01*
X19145250Y-8471000D01*
X19304000Y-2502000D02*
X19456500Y-2349500D01*
X19304000Y-2197000D01*
X19151500Y-2349500D01*
X19304000Y-2502000D01*
X19304000Y-6312000D02*
X19456500Y-6159500D01*
X19304000Y-6007000D01*
X19151500Y-6159500D01*
X19304000Y-6312000D01*
X19621500Y-4661000D02*
X19774000Y-4508500D01*
X19621500Y-4356000D01*
X19469000Y-4508500D01*
X19621500Y-4661000D01*
X19780250Y-8217000D02*
X19932750Y-8064500D01*
X19780250Y-7912000D01*
X19627750Y-8064500D01*
X19780250Y-8217000D01*
X20097750Y-10376000D02*
X20250250Y-10223500D01*
X20097750Y-10071000D01*
X19945250Y-10223500D01*
X20097750Y-10376000D01*
X20256500Y-4407000D02*
X20409000Y-4254500D01*
X20256500Y-4102000D01*
X20104000Y-4254500D01*
X20256500Y-4407000D01*
X20574000Y-2756000D02*
X20726500Y-2603500D01*
X20574000Y-2451000D01*
X20421500Y-2603500D01*
X20574000Y-2756000D01*
X20574000Y-6566000D02*
X20726500Y-6413500D01*
X20574000Y-6261000D01*
X20421500Y-6413500D01*
X20574000Y-6566000D01*
X20732750Y-10122000D02*
X20885250Y-9969500D01*
X20732750Y-9817000D01*
X20580250Y-9969500D01*
X20732750Y-10122000D01*
X21050250Y-8471000D02*
X21202750Y-8318500D01*
X21050250Y-8166000D01*
X20897750Y-8318500D01*
X21050250Y-8471000D01*
X21209000Y-2502000D02*
X21361500Y-2349500D01*
X21209000Y-2197000D01*
X21056500Y-2349500D01*
X21209000Y-2502000D01*
X21209000Y-6312000D02*
X21361500Y-6159500D01*
X21209000Y-6007000D01*
X21056500Y-6159500D01*
X21209000Y-6312000D01*
X21526500Y-4661000D02*
X21679000Y-4508500D01*
X21526500Y-4356000D01*
X21374000Y-4508500D01*
X21526500Y-4661000D01*
X21685250Y-8217000D02*
X21837750Y-8064500D01*
X21685250Y-7912000D01*
X21532750Y-8064500D01*
X21685250Y-8217000D01*
X22002750Y-10376000D02*
X22155250Y-10223500D01*
X22002750Y-10071000D01*
X21850250Y-10223500D01*
X22002750Y-10376000D01*
X22161500Y-4407000D02*
X22314000Y-4254500D01*
X22161500Y-4102000D01*
X22009000Y-4254500D01*
X22161500Y-4407000D01*
X22479000Y-6566000D02*
X22631500Y-6413500D01*
X22479000Y-6261000D01*
X22326500Y-6413500D01*
X22479000Y-6566000D01*
X22637750Y-10122000D02*
X22790250Y-9969500D01*
X22637750Y-9817000D01*
X22485250Y-9969500D01*
X22637750Y-10122000D01*
X22717125Y-12281000D02*
X22869625Y-12128500D01*
X22717125Y-11976000D01*
X22564625Y-12128500D01*
X22717125Y-12281000D01*
X22955250Y-8471000D02*
X23107750Y-8318500D01*
X22955250Y-8166000D01*
X22802750Y-8318500D01*
X22955250Y-8471000D01*
X23114000Y-6312000D02*
X23266500Y-6159500D01*
X23114000Y-6007000D01*
X22961500Y-6159500D01*
X23114000Y-6312000D01*
X23352125Y-12027000D02*
X23504625Y-11874500D01*
X23352125Y-11722000D01*
X23199625Y-11874500D01*
X23352125Y-12027000D01*
X23431500Y-2756000D02*
X23584000Y-2603500D01*
X23431500Y-2451000D01*
X23279000Y-2603500D01*
X23431500Y-2756000D01*
X23431500Y-4661000D02*
X23584000Y-4508500D01*
X23431500Y-4356000D01*
X23279000Y-4508500D01*
X23431500Y-4661000D01*
X23590250Y-8217000D02*
X23742750Y-8064500D01*
X23590250Y-7912000D01*
X23437750Y-8064500D01*
X23590250Y-8217000D01*
X23907750Y-10376000D02*
X24060250Y-10223500D01*
X23907750Y-10071000D01*
X23755250Y-10223500D01*
X23907750Y-10376000D01*
X24066500Y-2502000D02*
X24219000Y-2349500D01*
X24066500Y-2197000D01*
X23914000Y-2349500D01*
X24066500Y-2502000D01*
X24066500Y-4407000D02*
X24219000Y-4254500D01*
X24066500Y-4102000D01*
X23914000Y-4254500D01*
X24066500Y-4407000D01*
X24384000Y-6566000D02*
X24536500Y-6413500D01*
X24384000Y-6261000D01*
X24231500Y-6413500D01*
X24384000Y-6566000D01*
X24542750Y-10122000D02*
X24695250Y-9969500D01*
X24542750Y-9817000D01*
X24390250Y-9969500D01*
X24542750Y-10122000D01*
X24860250Y-8471000D02*
X25012750Y-8318500D01*
X24860250Y-8166000D01*
X24707750Y-8318500D01*
X24860250Y-8471000D01*
X25019000Y-6312000D02*
X25171500Y-6159500D01*
X25019000Y-6007000D01*
X24866500Y-6159500D01*
X25019000Y-6312000D01*
X25336500Y-2756000D02*
X25489000Y-2603500D01*
X25336500Y-2451000D01*
X25184000Y-2603500D01*
X25336500Y-2756000D01*
X25336500Y-4661000D02*
X25489000Y-4508500D01*
X25336500Y-4356000D01*
X25184000Y-4508500D01*
X25336500Y-4661000D01*
X25336500Y-12281000D02*
X25489000Y-12128500D01*
X25336500Y-11976000D01*
X25184000Y-12128500D01*
X25336500Y-12281000D01*
X25495250Y-8217000D02*
X25647750Y-8064500D01*
X25495250Y-7912000D01*
X25342750Y-8064500D01*
X25495250Y-8217000D01*
X25971500Y-2502000D02*
X26124000Y-2349500D01*
X25971500Y-2197000D01*
X25819000Y-2349500D01*
X25971500Y-2502000D01*
X25971500Y-4407000D02*
X26124000Y-4254500D01*
X25971500Y-4102000D01*
X25819000Y-4254500D01*
X25971500Y-4407000D01*
X25971500Y-12027000D02*
X26124000Y-11874500D01*
X25971500Y-11722000D01*
X25819000Y-11874500D01*
X25971500Y-12027000D01*
X26289000Y-6566000D02*
X26441500Y-6413500D01*
X26289000Y-6261000D01*
X26136500Y-6413500D01*
X26289000Y-6566000D01*
X26924000Y-6312000D02*
X27076500Y-6159500D01*
X26924000Y-6007000D01*
X26771500Y-6159500D01*
X26924000Y-6312000D01*
X27241500Y-2756000D02*
X27394000Y-2603500D01*
X27241500Y-2451000D01*
X27089000Y-2603500D01*
X27241500Y-2756000D01*
X27241500Y-10376000D02*
X27394000Y-10223500D01*
X27241500Y-10071000D01*
X27089000Y-10223500D01*
X27241500Y-10376000D01*
X27241500Y-12281000D02*
X27394000Y-12128500D01*
X27241500Y-11976000D01*
X27089000Y-12128500D01*
X27241500Y-12281000D01*
X27876500Y-2502000D02*
X28029000Y-2349500D01*
X27876500Y-2197000D01*
X27724000Y-2349500D01*
X27876500Y-2502000D01*
X27876500Y-10122000D02*
X28029000Y-9969500D01*
X27876500Y-9817000D01*
X27724000Y-9969500D01*
X27876500Y-10122000D01*
X27876500Y-12027000D02*
X28029000Y-11874500D01*
X27876500Y-11722000D01*
X27724000Y-11874500D01*
X27876500Y-12027000D01*
X27955875Y-8471000D02*
X28108375Y-8318500D01*
X27955875Y-8166000D01*
X27803375Y-8318500D01*
X27955875Y-8471000D01*
X28194000Y-4661000D02*
X28346500Y-4508500D01*
X28194000Y-4356000D01*
X28041500Y-4508500D01*
X28194000Y-4661000D01*
X28590875Y-8217000D02*
X28743375Y-8064500D01*
X28590875Y-7912000D01*
X28438375Y-8064500D01*
X28590875Y-8217000D01*
X28670250Y-6566000D02*
X28822750Y-6413500D01*
X28670250Y-6261000D01*
X28517750Y-6413500D01*
X28670250Y-6566000D01*
X28829000Y-4407000D02*
X28981500Y-4254500D01*
X28829000Y-4102000D01*
X28676500Y-4254500D01*
X28829000Y-4407000D01*
X29146500Y-2756000D02*
X29299000Y-2603500D01*
X29146500Y-2451000D01*
X28994000Y-2603500D01*
X29146500Y-2756000D01*
X29146500Y-12281000D02*
X29299000Y-12128500D01*
X29146500Y-11976000D01*
X28994000Y-12128500D01*
X29146500Y-12281000D01*
X29305250Y-6312000D02*
X29457750Y-6159500D01*
X29305250Y-6007000D01*
X29152750Y-6159500D01*
X29305250Y-6312000D01*
X29781500Y-2502000D02*
X29934000Y-2349500D01*
X29781500Y-2197000D01*
X29629000Y-2349500D01*
X29781500Y-2502000D01*
X29781500Y-12027000D02*
X29934000Y-11874500D01*
X29781500Y-11722000D01*
X29629000Y-11874500D01*
X29781500Y-12027000D01*
D17*
X2654935Y-11100610D02*
X3053715Y-11499390D01*
X3053715Y-11100610D02*
X2654935Y-11499390D01*
X3053715Y-11300000D02*
G75*
G03*
X3053715Y-11300000I-199390J0D01*
G01*
X5042535Y-11100610D02*
X5441315Y-11499390D01*
X5441315Y-11100610D02*
X5042535Y-11499390D01*
X5441315Y-11300000D02*
G75*
G03*
X5441315Y-11300000I-199390J0D01*
G01*
X10754985Y-11360610D02*
X11153765Y-11759390D01*
X11153765Y-11360610D02*
X10754985Y-11759390D01*
X11153765Y-11560000D02*
G75*
G03*
X11153765Y-11560000I-199390J0D01*
G01*
X20754985Y-11360610D02*
X21153765Y-11759390D01*
X21153765Y-11360610D02*
X20754985Y-11759390D01*
X21153765Y-11560000D02*
G75*
G03*
X21153765Y-11560000I-199390J0D01*
G01*
X26943685Y-9195610D02*
X27342465Y-9594390D01*
X27342465Y-9195610D02*
X26943685Y-9594390D01*
X27342465Y-9395000D02*
G75*
G03*
X27342465Y-9395000I-199390J0D01*
G01*
X27181810Y-5385610D02*
X27580590Y-5784390D01*
X27580590Y-5385610D02*
X27181810Y-5784390D01*
X27580590Y-5585000D02*
G75*
G03*
X27580590Y-5585000I-199390J0D01*
G01*
X29331285Y-9195610D02*
X29730065Y-9594390D01*
X29730065Y-9195610D02*
X29331285Y-9594390D01*
X29730065Y-9395000D02*
G75*
G03*
X29730065Y-9395000I-199390J0D01*
G01*
X29569410Y-5385610D02*
X29968190Y-5784390D01*
X29968190Y-5385610D02*
X29569410Y-5784390D01*
X29968190Y-5585000D02*
G75*
G03*
X29968190Y-5585000I-199390J0D01*
G01*
D18*
X2657500Y-2657500D02*
X3057500Y-3057500D01*
X3057500Y-2657500D02*
X2657500Y-3057500D01*
X2857500Y-2657500D02*
X2857500Y-3057500D01*
X2657500Y-2857500D02*
X3057500Y-2857500D01*
X2657500Y-4562500D02*
X3057500Y-4962500D01*
X3057500Y-4562500D02*
X2657500Y-4962500D01*
X2857500Y-4562500D02*
X2857500Y-4962500D01*
X2657500Y-4762500D02*
X3057500Y-4762500D01*
X2657500Y-12182500D02*
X3057500Y-12582500D01*
X3057500Y-12182500D02*
X2657500Y-12582500D01*
X2857500Y-12182500D02*
X2857500Y-12582500D01*
X2657500Y-12382500D02*
X3057500Y-12382500D01*
X3133750Y-6467500D02*
X3533750Y-6867500D01*
X3533750Y-6467500D02*
X3133750Y-6867500D01*
X3333750Y-6467500D02*
X3333750Y-6867500D01*
X3133750Y-6667500D02*
X3533750Y-6667500D01*
X3371875Y-8372500D02*
X3771875Y-8772500D01*
X3771875Y-8372500D02*
X3371875Y-8772500D01*
X3571875Y-8372500D02*
X3571875Y-8772500D01*
X3371875Y-8572500D02*
X3771875Y-8572500D01*
X3848125Y-10277500D02*
X4248125Y-10677500D01*
X4248125Y-10277500D02*
X3848125Y-10677500D01*
X4048125Y-10277500D02*
X4048125Y-10677500D01*
X3848125Y-10477500D02*
X4248125Y-10477500D01*
X4562500Y-4562500D02*
X4962500Y-4962500D01*
X4962500Y-4562500D02*
X4562500Y-4962500D01*
X4762500Y-4562500D02*
X4762500Y-4962500D01*
X4562500Y-4762500D02*
X4962500Y-4762500D01*
X4562500Y-12182500D02*
X4962500Y-12582500D01*
X4962500Y-12182500D02*
X4562500Y-12582500D01*
X4762500Y-12182500D02*
X4762500Y-12582500D01*
X4562500Y-12382500D02*
X4962500Y-12382500D01*
X5515000Y-6467500D02*
X5915000Y-6867500D01*
X5915000Y-6467500D02*
X5515000Y-6867500D01*
X5715000Y-6467500D02*
X5715000Y-6867500D01*
X5515000Y-6667500D02*
X5915000Y-6667500D01*
X5991250Y-8372500D02*
X6391250Y-8772500D01*
X6391250Y-8372500D02*
X5991250Y-8772500D01*
X6191250Y-8372500D02*
X6191250Y-8772500D01*
X5991250Y-8572500D02*
X6391250Y-8572500D01*
X6229375Y-2657500D02*
X6629375Y-3057500D01*
X6629375Y-2657500D02*
X6229375Y-3057500D01*
X6429375Y-2657500D02*
X6429375Y-3057500D01*
X6229375Y-2857500D02*
X6629375Y-2857500D01*
X6467500Y-4562500D02*
X6867500Y-4962500D01*
X6867500Y-4562500D02*
X6467500Y-4962500D01*
X6667500Y-4562500D02*
X6667500Y-4962500D01*
X6467500Y-4762500D02*
X6867500Y-4762500D01*
X6467500Y-12182500D02*
X6867500Y-12582500D01*
X6867500Y-12182500D02*
X6467500Y-12582500D01*
X6667500Y-12182500D02*
X6667500Y-12582500D01*
X6467500Y-12382500D02*
X6867500Y-12382500D01*
X6943750Y-10277500D02*
X7343750Y-10677500D01*
X7343750Y-10277500D02*
X6943750Y-10677500D01*
X7143750Y-10277500D02*
X7143750Y-10677500D01*
X6943750Y-10477500D02*
X7343750Y-10477500D01*
X7420000Y-6467500D02*
X7820000Y-6867500D01*
X7820000Y-6467500D02*
X7420000Y-6867500D01*
X7620000Y-6467500D02*
X7620000Y-6867500D01*
X7420000Y-6667500D02*
X7820000Y-6667500D01*
X7896250Y-8372500D02*
X8296250Y-8772500D01*
X8296250Y-8372500D02*
X7896250Y-8772500D01*
X8096250Y-8372500D02*
X8096250Y-8772500D01*
X7896250Y-8572500D02*
X8296250Y-8572500D01*
X8134375Y-2657500D02*
X8534375Y-3057500D01*
X8534375Y-2657500D02*
X8134375Y-3057500D01*
X8334375Y-2657500D02*
X8334375Y-3057500D01*
X8134375Y-2857500D02*
X8534375Y-2857500D01*
X8372500Y-4562500D02*
X8772500Y-4962500D01*
X8772500Y-4562500D02*
X8372500Y-4962500D01*
X8572500Y-4562500D02*
X8572500Y-4962500D01*
X8372500Y-4762500D02*
X8772500Y-4762500D01*
X8610625Y-12182500D02*
X9010625Y-12582500D01*
X9010625Y-12182500D02*
X8610625Y-12582500D01*
X8810625Y-12182500D02*
X8810625Y-12582500D01*
X8610625Y-12382500D02*
X9010625Y-12382500D01*
X8848750Y-10277500D02*
X9248750Y-10677500D01*
X9248750Y-10277500D02*
X8848750Y-10677500D01*
X9048750Y-10277500D02*
X9048750Y-10677500D01*
X8848750Y-10477500D02*
X9248750Y-10477500D01*
X9325000Y-6467500D02*
X9725000Y-6867500D01*
X9725000Y-6467500D02*
X9325000Y-6867500D01*
X9525000Y-6467500D02*
X9525000Y-6867500D01*
X9325000Y-6667500D02*
X9725000Y-6667500D01*
X9801250Y-8372500D02*
X10201250Y-8772500D01*
X10201250Y-8372500D02*
X9801250Y-8772500D01*
X10001250Y-8372500D02*
X10001250Y-8772500D01*
X9801250Y-8572500D02*
X10201250Y-8572500D01*
X10039375Y-2657500D02*
X10439375Y-3057500D01*
X10439375Y-2657500D02*
X10039375Y-3057500D01*
X10239375Y-2657500D02*
X10239375Y-3057500D01*
X10039375Y-2857500D02*
X10439375Y-2857500D01*
X10277500Y-4562500D02*
X10677500Y-4962500D01*
X10677500Y-4562500D02*
X10277500Y-4962500D01*
X10477500Y-4562500D02*
X10477500Y-4962500D01*
X10277500Y-4762500D02*
X10677500Y-4762500D01*
X10753750Y-10277500D02*
X11153750Y-10677500D01*
X11153750Y-10277500D02*
X10753750Y-10677500D01*
X10953750Y-10277500D02*
X10953750Y-10677500D01*
X10753750Y-10477500D02*
X11153750Y-10477500D01*
X11230000Y-6467500D02*
X11630000Y-6867500D01*
X11630000Y-6467500D02*
X11230000Y-6867500D01*
X11430000Y-6467500D02*
X11430000Y-6867500D01*
X11230000Y-6667500D02*
X11630000Y-6667500D01*
X11706250Y-8372500D02*
X12106250Y-8772500D01*
X12106250Y-8372500D02*
X11706250Y-8772500D01*
X11906250Y-8372500D02*
X11906250Y-8772500D01*
X11706250Y-8572500D02*
X12106250Y-8572500D01*
X11944375Y-2657500D02*
X12344375Y-3057500D01*
X12344375Y-2657500D02*
X11944375Y-3057500D01*
X12144375Y-2657500D02*
X12144375Y-3057500D01*
X11944375Y-2857500D02*
X12344375Y-2857500D01*
X12182500Y-4562500D02*
X12582500Y-4962500D01*
X12582500Y-4562500D02*
X12182500Y-4962500D01*
X12382500Y-4562500D02*
X12382500Y-4962500D01*
X12182500Y-4762500D02*
X12582500Y-4762500D01*
X12658750Y-10277500D02*
X13058750Y-10677500D01*
X13058750Y-10277500D02*
X12658750Y-10677500D01*
X12858750Y-10277500D02*
X12858750Y-10677500D01*
X12658750Y-10477500D02*
X13058750Y-10477500D01*
X13135000Y-6467500D02*
X13535000Y-6867500D01*
X13535000Y-6467500D02*
X13135000Y-6867500D01*
X13335000Y-6467500D02*
X13335000Y-6867500D01*
X13135000Y-6667500D02*
X13535000Y-6667500D01*
X13611250Y-8372500D02*
X14011250Y-8772500D01*
X14011250Y-8372500D02*
X13611250Y-8772500D01*
X13811250Y-8372500D02*
X13811250Y-8772500D01*
X13611250Y-8572500D02*
X14011250Y-8572500D01*
X14087500Y-4562500D02*
X14487500Y-4962500D01*
X14487500Y-4562500D02*
X14087500Y-4962500D01*
X14287500Y-4562500D02*
X14287500Y-4962500D01*
X14087500Y-4762500D02*
X14487500Y-4762500D01*
X14563750Y-10277500D02*
X14963750Y-10677500D01*
X14963750Y-10277500D02*
X14563750Y-10677500D01*
X14763750Y-10277500D02*
X14763750Y-10677500D01*
X14563750Y-10477500D02*
X14963750Y-10477500D01*
X14801875Y-2657500D02*
X15201875Y-3057500D01*
X15201875Y-2657500D02*
X14801875Y-3057500D01*
X15001875Y-2657500D02*
X15001875Y-3057500D01*
X14801875Y-2857500D02*
X15201875Y-2857500D01*
X15040000Y-6467500D02*
X15440000Y-6867500D01*
X15440000Y-6467500D02*
X15040000Y-6867500D01*
X15240000Y-6467500D02*
X15240000Y-6867500D01*
X15040000Y-6667500D02*
X15440000Y-6667500D01*
X15516250Y-8372500D02*
X15916250Y-8772500D01*
X15916250Y-8372500D02*
X15516250Y-8772500D01*
X15716250Y-8372500D02*
X15716250Y-8772500D01*
X15516250Y-8572500D02*
X15916250Y-8572500D01*
X15754375Y-12182500D02*
X16154375Y-12582500D01*
X16154375Y-12182500D02*
X15754375Y-12582500D01*
X15954375Y-12182500D02*
X15954375Y-12582500D01*
X15754375Y-12382500D02*
X16154375Y-12382500D01*
X15992500Y-4562500D02*
X16392500Y-4962500D01*
X16392500Y-4562500D02*
X15992500Y-4962500D01*
X16192500Y-4562500D02*
X16192500Y-4962500D01*
X15992500Y-4762500D02*
X16392500Y-4762500D01*
X16468750Y-10277500D02*
X16868750Y-10677500D01*
X16868750Y-10277500D02*
X16468750Y-10677500D01*
X16668750Y-10277500D02*
X16668750Y-10677500D01*
X16468750Y-10477500D02*
X16868750Y-10477500D01*
X16945000Y-2657500D02*
X17345000Y-3057500D01*
X17345000Y-2657500D02*
X16945000Y-3057500D01*
X17145000Y-2657500D02*
X17145000Y-3057500D01*
X16945000Y-2857500D02*
X17345000Y-2857500D01*
X16945000Y-6467500D02*
X17345000Y-6867500D01*
X17345000Y-6467500D02*
X16945000Y-6867500D01*
X17145000Y-6467500D02*
X17145000Y-6867500D01*
X16945000Y-6667500D02*
X17345000Y-6667500D01*
X17421250Y-8372500D02*
X17821250Y-8772500D01*
X17821250Y-8372500D02*
X17421250Y-8772500D01*
X17621250Y-8372500D02*
X17621250Y-8772500D01*
X17421250Y-8572500D02*
X17821250Y-8572500D01*
X17897500Y-4562500D02*
X18297500Y-4962500D01*
X18297500Y-4562500D02*
X17897500Y-4962500D01*
X18097500Y-4562500D02*
X18097500Y-4962500D01*
X17897500Y-4762500D02*
X18297500Y-4762500D01*
X18373750Y-10277500D02*
X18773750Y-10677500D01*
X18773750Y-10277500D02*
X18373750Y-10677500D01*
X18573750Y-10277500D02*
X18573750Y-10677500D01*
X18373750Y-10477500D02*
X18773750Y-10477500D01*
X18850000Y-2657500D02*
X19250000Y-3057500D01*
X19250000Y-2657500D02*
X18850000Y-3057500D01*
X19050000Y-2657500D02*
X19050000Y-3057500D01*
X18850000Y-2857500D02*
X19250000Y-2857500D01*
X18850000Y-6467500D02*
X19250000Y-6867500D01*
X19250000Y-6467500D02*
X18850000Y-6867500D01*
X19050000Y-6467500D02*
X19050000Y-6867500D01*
X18850000Y-6667500D02*
X19250000Y-6667500D01*
X19326250Y-8372500D02*
X19726250Y-8772500D01*
X19726250Y-8372500D02*
X19326250Y-8772500D01*
X19526250Y-8372500D02*
X19526250Y-8772500D01*
X19326250Y-8572500D02*
X19726250Y-8572500D01*
X19802500Y-4562500D02*
X20202500Y-4962500D01*
X20202500Y-4562500D02*
X19802500Y-4962500D01*
X20002500Y-4562500D02*
X20002500Y-4962500D01*
X19802500Y-4762500D02*
X20202500Y-4762500D01*
X20278750Y-10277500D02*
X20678750Y-10677500D01*
X20678750Y-10277500D02*
X20278750Y-10677500D01*
X20478750Y-10277500D02*
X20478750Y-10677500D01*
X20278750Y-10477500D02*
X20678750Y-10477500D01*
X20755000Y-2657500D02*
X21155000Y-3057500D01*
X21155000Y-2657500D02*
X20755000Y-3057500D01*
X20955000Y-2657500D02*
X20955000Y-3057500D01*
X20755000Y-2857500D02*
X21155000Y-2857500D01*
X20755000Y-6467500D02*
X21155000Y-6867500D01*
X21155000Y-6467500D02*
X20755000Y-6867500D01*
X20955000Y-6467500D02*
X20955000Y-6867500D01*
X20755000Y-6667500D02*
X21155000Y-6667500D01*
X21231250Y-8372500D02*
X21631250Y-8772500D01*
X21631250Y-8372500D02*
X21231250Y-8772500D01*
X21431250Y-8372500D02*
X21431250Y-8772500D01*
X21231250Y-8572500D02*
X21631250Y-8572500D01*
X21707500Y-4562500D02*
X22107500Y-4962500D01*
X22107500Y-4562500D02*
X21707500Y-4962500D01*
X21907500Y-4562500D02*
X21907500Y-4962500D01*
X21707500Y-4762500D02*
X22107500Y-4762500D01*
X22183750Y-10277500D02*
X22583750Y-10677500D01*
X22583750Y-10277500D02*
X22183750Y-10677500D01*
X22383750Y-10277500D02*
X22383750Y-10677500D01*
X22183750Y-10477500D02*
X22583750Y-10477500D01*
X22660000Y-6467500D02*
X23060000Y-6867500D01*
X23060000Y-6467500D02*
X22660000Y-6867500D01*
X22860000Y-6467500D02*
X22860000Y-6867500D01*
X22660000Y-6667500D02*
X23060000Y-6667500D01*
X22898125Y-12182500D02*
X23298125Y-12582500D01*
X23298125Y-12182500D02*
X22898125Y-12582500D01*
X23098125Y-12182500D02*
X23098125Y-12582500D01*
X22898125Y-12382500D02*
X23298125Y-12382500D01*
X23136250Y-8372500D02*
X23536250Y-8772500D01*
X23536250Y-8372500D02*
X23136250Y-8772500D01*
X23336250Y-8372500D02*
X23336250Y-8772500D01*
X23136250Y-8572500D02*
X23536250Y-8572500D01*
X23612500Y-2657500D02*
X24012500Y-3057500D01*
X24012500Y-2657500D02*
X23612500Y-3057500D01*
X23812500Y-2657500D02*
X23812500Y-3057500D01*
X23612500Y-2857500D02*
X24012500Y-2857500D01*
X23612500Y-4562500D02*
X24012500Y-4962500D01*
X24012500Y-4562500D02*
X23612500Y-4962500D01*
X23812500Y-4562500D02*
X23812500Y-4962500D01*
X23612500Y-4762500D02*
X24012500Y-4762500D01*
X24088750Y-10277500D02*
X24488750Y-10677500D01*
X24488750Y-10277500D02*
X24088750Y-10677500D01*
X24288750Y-10277500D02*
X24288750Y-10677500D01*
X24088750Y-10477500D02*
X24488750Y-10477500D01*
X24565000Y-6467500D02*
X24965000Y-6867500D01*
X24965000Y-6467500D02*
X24565000Y-6867500D01*
X24765000Y-6467500D02*
X24765000Y-6867500D01*
X24565000Y-6667500D02*
X24965000Y-6667500D01*
X25041250Y-8372500D02*
X25441250Y-8772500D01*
X25441250Y-8372500D02*
X25041250Y-8772500D01*
X25241250Y-8372500D02*
X25241250Y-8772500D01*
X25041250Y-8572500D02*
X25441250Y-8572500D01*
X25517500Y-2657500D02*
X25917500Y-3057500D01*
X25917500Y-2657500D02*
X25517500Y-3057500D01*
X25717500Y-2657500D02*
X25717500Y-3057500D01*
X25517500Y-2857500D02*
X25917500Y-2857500D01*
X25517500Y-4562500D02*
X25917500Y-4962500D01*
X25917500Y-4562500D02*
X25517500Y-4962500D01*
X25717500Y-4562500D02*
X25717500Y-4962500D01*
X25517500Y-4762500D02*
X25917500Y-4762500D01*
X25517500Y-12182500D02*
X25917500Y-12582500D01*
X25917500Y-12182500D02*
X25517500Y-12582500D01*
X25717500Y-12182500D02*
X25717500Y-12582500D01*
X25517500Y-12382500D02*
X25917500Y-12382500D01*
X26470000Y-6467500D02*
X26870000Y-6867500D01*
X26870000Y-6467500D02*
X26470000Y-6867500D01*
X26670000Y-6467500D02*
X26670000Y-6867500D01*
X26470000Y-6667500D02*
X26870000Y-6667500D01*
X27422500Y-2657500D02*
X27822500Y-3057500D01*
X27822500Y-2657500D02*
X27422500Y-3057500D01*
X27622500Y-2657500D02*
X27622500Y-3057500D01*
X27422500Y-2857500D02*
X27822500Y-2857500D01*
X27422500Y-10277500D02*
X27822500Y-10677500D01*
X27822500Y-10277500D02*
X27422500Y-10677500D01*
X27622500Y-10277500D02*
X27622500Y-10677500D01*
X27422500Y-10477500D02*
X27822500Y-10477500D01*
X27422500Y-12182500D02*
X27822500Y-12582500D01*
X27822500Y-12182500D02*
X27422500Y-12582500D01*
X27622500Y-12182500D02*
X27622500Y-12582500D01*
X27422500Y-12382500D02*
X27822500Y-12382500D01*
X28136875Y-8372500D02*
X28536875Y-8772500D01*
X28536875Y-8372500D02*
X28136875Y-8772500D01*
X28336875Y-8372500D02*
X28336875Y-8772500D01*
X28136875Y-8572500D02*
X28536875Y-8572500D01*
X28375000Y-4562500D02*
X28775000Y-4962500D01*
X28775000Y-4562500D02*
X28375000Y-4962500D01*
X28575000Y-4562500D02*
X28575000Y-4962500D01*
X28375000Y-4762500D02*
X28775000Y-4762500D01*
X28851250Y-6467500D02*
X29251250Y-6867500D01*
X29251250Y-6467500D02*
X28851250Y-6867500D01*
X29051250Y-6467500D02*
X29051250Y-6867500D01*
X28851250Y-6667500D02*
X29251250Y-6667500D01*
X29327500Y-2657500D02*
X29727500Y-3057500D01*
X29727500Y-2657500D02*
X29327500Y-3057500D01*
X29527500Y-2657500D02*
X29527500Y-3057500D01*
X29327500Y-2857500D02*
X29727500Y-2857500D01*
X29327500Y-12182500D02*
X29727500Y-12582500D01*
X29727500Y-12182500D02*
X29327500Y-12582500D01*
X29527500Y-12182500D02*
X29527500Y-12582500D01*
X29327500Y-12382500D02*
X29727500Y-12382500D01*
D11*
X2157619Y-13650476D02*
X2157619Y-13450476D01*
X2205238Y-13450476D01*
X2233810Y-13460000D01*
X2252857Y-13479048D01*
X2262381Y-13498095D01*
X2271905Y-13536190D01*
X2271905Y-13564762D01*
X2262381Y-13602857D01*
X2252857Y-13621905D01*
X2233810Y-13640952D01*
X2205238Y-13650476D01*
X2157619Y-13650476D01*
X2357619Y-13650476D02*
X2357619Y-13517143D01*
X2357619Y-13555238D02*
X2367143Y-13536190D01*
X2376667Y-13526667D01*
X2395714Y-13517143D01*
X2414762Y-13517143D01*
X2481429Y-13650476D02*
X2481429Y-13517143D01*
X2481429Y-13450476D02*
X2471905Y-13460000D01*
X2481429Y-13469524D01*
X2490952Y-13460000D01*
X2481429Y-13450476D01*
X2481429Y-13469524D01*
X2605238Y-13650476D02*
X2586190Y-13640952D01*
X2576667Y-13621905D01*
X2576667Y-13450476D01*
X2710000Y-13650476D02*
X2690952Y-13640952D01*
X2681429Y-13621905D01*
X2681429Y-13450476D01*
X2938571Y-13650476D02*
X2938571Y-13450476D01*
X3005238Y-13593333D01*
X3071905Y-13450476D01*
X3071905Y-13650476D01*
X3252857Y-13650476D02*
X3252857Y-13545714D01*
X3243333Y-13526667D01*
X3224286Y-13517143D01*
X3186190Y-13517143D01*
X3167143Y-13526667D01*
X3252857Y-13640952D02*
X3233809Y-13650476D01*
X3186190Y-13650476D01*
X3167143Y-13640952D01*
X3157619Y-13621905D01*
X3157619Y-13602857D01*
X3167143Y-13583809D01*
X3186190Y-13574286D01*
X3233809Y-13574286D01*
X3252857Y-13564762D01*
X3348095Y-13517143D02*
X3348095Y-13717143D01*
X3348095Y-13526667D02*
X3367143Y-13517143D01*
X3405238Y-13517143D01*
X3424286Y-13526667D01*
X3433809Y-13536190D01*
X3443333Y-13555238D01*
X3443333Y-13612381D01*
X3433809Y-13631428D01*
X3424286Y-13640952D01*
X3405238Y-13650476D01*
X3367143Y-13650476D01*
X3348095Y-13640952D01*
X3529048Y-13631428D02*
X3538571Y-13640952D01*
X3529048Y-13650476D01*
X3519524Y-13640952D01*
X3529048Y-13631428D01*
X3529048Y-13650476D01*
X3529048Y-13526667D02*
X3538571Y-13536190D01*
X3529048Y-13545714D01*
X3519524Y-13536190D01*
X3529048Y-13526667D01*
X3529048Y-13545714D01*
D12*
X1824999Y-13942499D02*
X1900000Y-14017501D01*
X1900000Y-13942499D02*
X1824999Y-14017501D01*
D11*
X2195714Y-13870476D02*
X2214762Y-13870476D01*
X2233810Y-13880000D01*
X2243333Y-13889524D01*
X2252857Y-13908571D01*
X2262381Y-13946667D01*
X2262381Y-13994286D01*
X2252857Y-14032381D01*
X2243333Y-14051428D01*
X2233810Y-14060952D01*
X2214762Y-14070476D01*
X2195714Y-14070476D01*
X2176667Y-14060952D01*
X2167143Y-14051428D01*
X2157619Y-14032381D01*
X2148095Y-13994286D01*
X2148095Y-13946667D01*
X2157619Y-13908571D01*
X2167143Y-13889524D01*
X2176667Y-13880000D01*
X2195714Y-13870476D01*
X2348095Y-14051428D02*
X2357619Y-14060952D01*
X2348095Y-14070476D01*
X2338571Y-14060952D01*
X2348095Y-14051428D01*
X2348095Y-14070476D01*
X2424286Y-13870476D02*
X2557619Y-13870476D01*
X2471905Y-14070476D01*
X2729048Y-13870476D02*
X2633810Y-13870476D01*
X2624286Y-13965714D01*
X2633810Y-13956190D01*
X2652857Y-13946667D01*
X2700476Y-13946667D01*
X2719524Y-13956190D01*
X2729048Y-13965714D01*
X2738571Y-13984762D01*
X2738571Y-14032381D01*
X2729048Y-14051428D01*
X2719524Y-14060952D01*
X2700476Y-14070476D01*
X2652857Y-14070476D01*
X2633810Y-14060952D01*
X2624286Y-14051428D01*
X2862381Y-13870476D02*
X2881428Y-13870476D01*
X2900476Y-13880000D01*
X2910000Y-13889524D01*
X2919524Y-13908571D01*
X2929048Y-13946667D01*
X2929048Y-13994286D01*
X2919524Y-14032381D01*
X2910000Y-14051428D01*
X2900476Y-14060952D01*
X2881428Y-14070476D01*
X2862381Y-14070476D01*
X2843333Y-14060952D01*
X2833809Y-14051428D01*
X2824286Y-14032381D01*
X2814762Y-13994286D01*
X2814762Y-13946667D01*
X2824286Y-13908571D01*
X2833809Y-13889524D01*
X2843333Y-13880000D01*
X2862381Y-13870476D01*
X3014762Y-14070476D02*
X3014762Y-13937143D01*
X3014762Y-13956190D02*
X3024286Y-13946667D01*
X3043333Y-13937143D01*
X3071905Y-13937143D01*
X3090952Y-13946667D01*
X3100476Y-13965714D01*
X3100476Y-14070476D01*
X3100476Y-13965714D02*
X3110000Y-13946667D01*
X3129048Y-13937143D01*
X3157619Y-13937143D01*
X3176667Y-13946667D01*
X3186190Y-13965714D01*
X3186190Y-14070476D01*
X3281428Y-14070476D02*
X3281428Y-13937143D01*
X3281428Y-13956190D02*
X3290952Y-13946667D01*
X3310000Y-13937143D01*
X3338571Y-13937143D01*
X3357619Y-13946667D01*
X3367143Y-13965714D01*
X3367143Y-14070476D01*
X3367143Y-13965714D02*
X3376667Y-13946667D01*
X3395714Y-13937143D01*
X3424286Y-13937143D01*
X3443333Y-13946667D01*
X3452857Y-13965714D01*
X3452857Y-14070476D01*
X3843333Y-13860952D02*
X3671905Y-14118095D01*
X4100476Y-13870476D02*
X4119524Y-13870476D01*
X4138571Y-13880000D01*
X4148095Y-13889524D01*
X4157619Y-13908571D01*
X4167143Y-13946667D01*
X4167143Y-13994286D01*
X4157619Y-14032381D01*
X4148095Y-14051428D01*
X4138571Y-14060952D01*
X4119524Y-14070476D01*
X4100476Y-14070476D01*
X4081428Y-14060952D01*
X4071905Y-14051428D01*
X4062381Y-14032381D01*
X4052857Y-13994286D01*
X4052857Y-13946667D01*
X4062381Y-13908571D01*
X4071905Y-13889524D01*
X4081428Y-13880000D01*
X4100476Y-13870476D01*
X4252857Y-14051428D02*
X4262381Y-14060952D01*
X4252857Y-14070476D01*
X4243333Y-14060952D01*
X4252857Y-14051428D01*
X4252857Y-14070476D01*
X4386190Y-13870476D02*
X4405238Y-13870476D01*
X4424286Y-13880000D01*
X4433810Y-13889524D01*
X4443333Y-13908571D01*
X4452857Y-13946667D01*
X4452857Y-13994286D01*
X4443333Y-14032381D01*
X4433810Y-14051428D01*
X4424286Y-14060952D01*
X4405238Y-14070476D01*
X4386190Y-14070476D01*
X4367143Y-14060952D01*
X4357619Y-14051428D01*
X4348095Y-14032381D01*
X4338571Y-13994286D01*
X4338571Y-13946667D01*
X4348095Y-13908571D01*
X4357619Y-13889524D01*
X4367143Y-13880000D01*
X4386190Y-13870476D01*
X4529048Y-13889524D02*
X4538571Y-13880000D01*
X4557619Y-13870476D01*
X4605238Y-13870476D01*
X4624286Y-13880000D01*
X4633810Y-13889524D01*
X4643333Y-13908571D01*
X4643333Y-13927619D01*
X4633810Y-13956190D01*
X4519524Y-14070476D01*
X4643333Y-14070476D01*
X4738571Y-14070476D02*
X4776667Y-14070476D01*
X4795714Y-14060952D01*
X4805238Y-14051428D01*
X4824286Y-14022857D01*
X4833810Y-13984762D01*
X4833810Y-13908571D01*
X4824286Y-13889524D01*
X4814762Y-13880000D01*
X4795714Y-13870476D01*
X4757619Y-13870476D01*
X4738571Y-13880000D01*
X4729048Y-13889524D01*
X4719524Y-13908571D01*
X4719524Y-13956190D01*
X4729048Y-13975238D01*
X4738571Y-13984762D01*
X4757619Y-13994286D01*
X4795714Y-13994286D01*
X4814762Y-13984762D01*
X4824286Y-13975238D01*
X4833810Y-13956190D01*
X5014762Y-13870476D02*
X4919524Y-13870476D01*
X4910000Y-13965714D01*
X4919524Y-13956190D01*
X4938571Y-13946667D01*
X4986190Y-13946667D01*
X5005238Y-13956190D01*
X5014762Y-13965714D01*
X5024286Y-13984762D01*
X5024286Y-14032381D01*
X5014762Y-14051428D01*
X5005238Y-14060952D01*
X4986190Y-14070476D01*
X4938571Y-14070476D01*
X4919524Y-14060952D01*
X4910000Y-14051428D01*
X5100476Y-13870476D02*
X5100476Y-13908571D01*
X5176667Y-13870476D02*
X5176667Y-13908571D01*
X5471905Y-14146667D02*
X5462381Y-14137143D01*
X5443333Y-14108571D01*
X5433810Y-14089524D01*
X5424286Y-14060952D01*
X5414762Y-14013333D01*
X5414762Y-13975238D01*
X5424286Y-13927619D01*
X5433810Y-13899048D01*
X5443333Y-13880000D01*
X5462381Y-13851428D01*
X5471905Y-13841905D01*
X5538571Y-13889524D02*
X5548095Y-13880000D01*
X5567143Y-13870476D01*
X5614762Y-13870476D01*
X5633809Y-13880000D01*
X5643333Y-13889524D01*
X5652857Y-13908571D01*
X5652857Y-13927619D01*
X5643333Y-13956190D01*
X5529048Y-14070476D01*
X5652857Y-14070476D01*
X5890952Y-14070476D02*
X5890952Y-13870476D01*
X5976667Y-14070476D02*
X5976667Y-13965714D01*
X5967143Y-13946667D01*
X5948095Y-13937143D01*
X5919524Y-13937143D01*
X5900476Y-13946667D01*
X5890952Y-13956190D01*
X6100476Y-14070476D02*
X6081428Y-14060952D01*
X6071905Y-14051428D01*
X6062381Y-14032381D01*
X6062381Y-13975238D01*
X6071905Y-13956190D01*
X6081428Y-13946667D01*
X6100476Y-13937143D01*
X6129048Y-13937143D01*
X6148095Y-13946667D01*
X6157619Y-13956190D01*
X6167143Y-13975238D01*
X6167143Y-14032381D01*
X6157619Y-14051428D01*
X6148095Y-14060952D01*
X6129048Y-14070476D01*
X6100476Y-14070476D01*
X6281428Y-14070476D02*
X6262381Y-14060952D01*
X6252857Y-14041905D01*
X6252857Y-13870476D01*
X6433809Y-14060952D02*
X6414762Y-14070476D01*
X6376667Y-14070476D01*
X6357619Y-14060952D01*
X6348095Y-14041905D01*
X6348095Y-13965714D01*
X6357619Y-13946667D01*
X6376667Y-13937143D01*
X6414762Y-13937143D01*
X6433809Y-13946667D01*
X6443333Y-13965714D01*
X6443333Y-13984762D01*
X6348095Y-14003809D01*
X6519524Y-14060952D02*
X6538571Y-14070476D01*
X6576667Y-14070476D01*
X6595714Y-14060952D01*
X6605238Y-14041905D01*
X6605238Y-14032381D01*
X6595714Y-14013333D01*
X6576667Y-14003809D01*
X6548095Y-14003809D01*
X6529048Y-13994286D01*
X6519524Y-13975238D01*
X6519524Y-13965714D01*
X6529048Y-13946667D01*
X6548095Y-13937143D01*
X6576667Y-13937143D01*
X6595714Y-13946667D01*
X6671905Y-14146667D02*
X6681428Y-14137143D01*
X6700476Y-14108571D01*
X6710000Y-14089524D01*
X6719524Y-14060952D01*
X6729048Y-14013333D01*
X6729048Y-13975238D01*
X6719524Y-13927619D01*
X6710000Y-13899048D01*
X6700476Y-13880000D01*
X6681428Y-13851428D01*
X6671905Y-13841905D01*
X7033809Y-14146667D02*
X7024286Y-14137143D01*
X7005238Y-14108571D01*
X6995714Y-14089524D01*
X6986190Y-14060952D01*
X6976667Y-14013333D01*
X6976667Y-13975238D01*
X6986190Y-13927619D01*
X6995714Y-13899048D01*
X7005238Y-13880000D01*
X7024286Y-13851428D01*
X7033809Y-13841905D01*
X7110000Y-13937143D02*
X7110000Y-14070476D01*
X7110000Y-13956190D02*
X7119524Y-13946667D01*
X7138571Y-13937143D01*
X7167143Y-13937143D01*
X7186190Y-13946667D01*
X7195714Y-13965714D01*
X7195714Y-14070476D01*
X7319524Y-14070476D02*
X7300476Y-14060952D01*
X7290952Y-14051428D01*
X7281428Y-14032381D01*
X7281428Y-13975238D01*
X7290952Y-13956190D01*
X7300476Y-13946667D01*
X7319524Y-13937143D01*
X7348095Y-13937143D01*
X7367143Y-13946667D01*
X7376667Y-13956190D01*
X7386190Y-13975238D01*
X7386190Y-14032381D01*
X7376667Y-14051428D01*
X7367143Y-14060952D01*
X7348095Y-14070476D01*
X7319524Y-14070476D01*
X7443333Y-13937143D02*
X7519524Y-13937143D01*
X7471905Y-13870476D02*
X7471905Y-14041905D01*
X7481428Y-14060952D01*
X7500476Y-14070476D01*
X7519524Y-14070476D01*
X7738571Y-13937143D02*
X7738571Y-14137143D01*
X7738571Y-13946667D02*
X7757619Y-13937143D01*
X7795714Y-13937143D01*
X7814762Y-13946667D01*
X7824286Y-13956190D01*
X7833809Y-13975238D01*
X7833809Y-14032381D01*
X7824286Y-14051428D01*
X7814762Y-14060952D01*
X7795714Y-14070476D01*
X7757619Y-14070476D01*
X7738571Y-14060952D01*
X7948095Y-14070476D02*
X7929048Y-14060952D01*
X7919524Y-14041905D01*
X7919524Y-13870476D01*
X8110000Y-14070476D02*
X8110000Y-13965714D01*
X8100476Y-13946667D01*
X8081428Y-13937143D01*
X8043333Y-13937143D01*
X8024286Y-13946667D01*
X8110000Y-14060952D02*
X8090952Y-14070476D01*
X8043333Y-14070476D01*
X8024286Y-14060952D01*
X8014762Y-14041905D01*
X8014762Y-14022857D01*
X8024286Y-14003809D01*
X8043333Y-13994286D01*
X8090952Y-13994286D01*
X8110000Y-13984762D01*
X8176667Y-13937143D02*
X8252857Y-13937143D01*
X8205238Y-13870476D02*
X8205238Y-14041905D01*
X8214762Y-14060952D01*
X8233809Y-14070476D01*
X8252857Y-14070476D01*
X8395714Y-14060952D02*
X8376667Y-14070476D01*
X8338571Y-14070476D01*
X8319524Y-14060952D01*
X8310000Y-14041905D01*
X8310000Y-13965714D01*
X8319524Y-13946667D01*
X8338571Y-13937143D01*
X8376667Y-13937143D01*
X8395714Y-13946667D01*
X8405238Y-13965714D01*
X8405238Y-13984762D01*
X8310000Y-14003809D01*
X8576667Y-14070476D02*
X8576667Y-13870476D01*
X8576667Y-14060952D02*
X8557619Y-14070476D01*
X8519524Y-14070476D01*
X8500476Y-14060952D01*
X8490952Y-14051428D01*
X8481429Y-14032381D01*
X8481429Y-13975238D01*
X8490952Y-13956190D01*
X8500476Y-13946667D01*
X8519524Y-13937143D01*
X8557619Y-13937143D01*
X8576667Y-13946667D01*
X8652857Y-14146667D02*
X8662381Y-14137143D01*
X8681429Y-14108571D01*
X8690952Y-14089524D01*
X8700476Y-14060952D01*
X8710000Y-14013333D01*
X8710000Y-13975238D01*
X8700476Y-13927619D01*
X8690952Y-13899048D01*
X8681429Y-13880000D01*
X8662381Y-13851428D01*
X8652857Y-13841905D01*
D13*
X1900000Y-14244000D02*
G75*
G03*
X1900000Y-14244000I-87500J0D01*
G01*
D11*
X2262381Y-14334476D02*
X2148095Y-14334476D01*
X2205238Y-14334476D02*
X2205238Y-14134476D01*
X2186190Y-14163048D01*
X2167143Y-14182095D01*
X2148095Y-14191619D01*
X2348095Y-14315428D02*
X2357619Y-14324952D01*
X2348095Y-14334476D01*
X2338571Y-14324952D01*
X2348095Y-14315428D01*
X2348095Y-14334476D01*
X2424286Y-14134476D02*
X2557619Y-14134476D01*
X2471905Y-14334476D01*
X2729048Y-14134476D02*
X2633810Y-14134476D01*
X2624286Y-14229714D01*
X2633810Y-14220190D01*
X2652857Y-14210667D01*
X2700476Y-14210667D01*
X2719524Y-14220190D01*
X2729048Y-14229714D01*
X2738571Y-14248762D01*
X2738571Y-14296381D01*
X2729048Y-14315428D01*
X2719524Y-14324952D01*
X2700476Y-14334476D01*
X2652857Y-14334476D01*
X2633810Y-14324952D01*
X2624286Y-14315428D01*
X2862381Y-14134476D02*
X2881428Y-14134476D01*
X2900476Y-14144000D01*
X2910000Y-14153524D01*
X2919524Y-14172571D01*
X2929048Y-14210667D01*
X2929048Y-14258286D01*
X2919524Y-14296381D01*
X2910000Y-14315428D01*
X2900476Y-14324952D01*
X2881428Y-14334476D01*
X2862381Y-14334476D01*
X2843333Y-14324952D01*
X2833809Y-14315428D01*
X2824286Y-14296381D01*
X2814762Y-14258286D01*
X2814762Y-14210667D01*
X2824286Y-14172571D01*
X2833809Y-14153524D01*
X2843333Y-14144000D01*
X2862381Y-14134476D01*
X3014762Y-14334476D02*
X3014762Y-14201143D01*
X3014762Y-14220190D02*
X3024286Y-14210667D01*
X3043333Y-14201143D01*
X3071905Y-14201143D01*
X3090952Y-14210667D01*
X3100476Y-14229714D01*
X3100476Y-14334476D01*
X3100476Y-14229714D02*
X3110000Y-14210667D01*
X3129048Y-14201143D01*
X3157619Y-14201143D01*
X3176667Y-14210667D01*
X3186190Y-14229714D01*
X3186190Y-14334476D01*
X3281428Y-14334476D02*
X3281428Y-14201143D01*
X3281428Y-14220190D02*
X3290952Y-14210667D01*
X3310000Y-14201143D01*
X3338571Y-14201143D01*
X3357619Y-14210667D01*
X3367143Y-14229714D01*
X3367143Y-14334476D01*
X3367143Y-14229714D02*
X3376667Y-14210667D01*
X3395714Y-14201143D01*
X3424286Y-14201143D01*
X3443333Y-14210667D01*
X3452857Y-14229714D01*
X3452857Y-14334476D01*
X3843333Y-14124952D02*
X3671905Y-14382095D01*
X4100476Y-14134476D02*
X4119524Y-14134476D01*
X4138571Y-14144000D01*
X4148095Y-14153524D01*
X4157619Y-14172571D01*
X4167143Y-14210667D01*
X4167143Y-14258286D01*
X4157619Y-14296381D01*
X4148095Y-14315428D01*
X4138571Y-14324952D01*
X4119524Y-14334476D01*
X4100476Y-14334476D01*
X4081428Y-14324952D01*
X4071905Y-14315428D01*
X4062381Y-14296381D01*
X4052857Y-14258286D01*
X4052857Y-14210667D01*
X4062381Y-14172571D01*
X4071905Y-14153524D01*
X4081428Y-14144000D01*
X4100476Y-14134476D01*
X4252857Y-14315428D02*
X4262381Y-14324952D01*
X4252857Y-14334476D01*
X4243333Y-14324952D01*
X4252857Y-14315428D01*
X4252857Y-14334476D01*
X4386190Y-14134476D02*
X4405238Y-14134476D01*
X4424286Y-14144000D01*
X4433810Y-14153524D01*
X4443333Y-14172571D01*
X4452857Y-14210667D01*
X4452857Y-14258286D01*
X4443333Y-14296381D01*
X4433810Y-14315428D01*
X4424286Y-14324952D01*
X4405238Y-14334476D01*
X4386190Y-14334476D01*
X4367143Y-14324952D01*
X4357619Y-14315428D01*
X4348095Y-14296381D01*
X4338571Y-14258286D01*
X4338571Y-14210667D01*
X4348095Y-14172571D01*
X4357619Y-14153524D01*
X4367143Y-14144000D01*
X4386190Y-14134476D01*
X4624286Y-14134476D02*
X4586190Y-14134476D01*
X4567143Y-14144000D01*
X4557619Y-14153524D01*
X4538571Y-14182095D01*
X4529048Y-14220190D01*
X4529048Y-14296381D01*
X4538571Y-14315428D01*
X4548095Y-14324952D01*
X4567143Y-14334476D01*
X4605238Y-14334476D01*
X4624286Y-14324952D01*
X4633810Y-14315428D01*
X4643333Y-14296381D01*
X4643333Y-14248762D01*
X4633810Y-14229714D01*
X4624286Y-14220190D01*
X4605238Y-14210667D01*
X4567143Y-14210667D01*
X4548095Y-14220190D01*
X4538571Y-14229714D01*
X4529048Y-14248762D01*
X4757619Y-14220190D02*
X4738571Y-14210667D01*
X4729048Y-14201143D01*
X4719524Y-14182095D01*
X4719524Y-14172571D01*
X4729048Y-14153524D01*
X4738571Y-14144000D01*
X4757619Y-14134476D01*
X4795714Y-14134476D01*
X4814762Y-14144000D01*
X4824286Y-14153524D01*
X4833810Y-14172571D01*
X4833810Y-14182095D01*
X4824286Y-14201143D01*
X4814762Y-14210667D01*
X4795714Y-14220190D01*
X4757619Y-14220190D01*
X4738571Y-14229714D01*
X4729048Y-14239238D01*
X4719524Y-14258286D01*
X4719524Y-14296381D01*
X4729048Y-14315428D01*
X4738571Y-14324952D01*
X4757619Y-14334476D01*
X4795714Y-14334476D01*
X4814762Y-14324952D01*
X4824286Y-14315428D01*
X4833810Y-14296381D01*
X4833810Y-14258286D01*
X4824286Y-14239238D01*
X4814762Y-14229714D01*
X4795714Y-14220190D01*
X4929048Y-14334476D02*
X4967143Y-14334476D01*
X4986190Y-14324952D01*
X4995714Y-14315428D01*
X5014762Y-14286857D01*
X5024286Y-14248762D01*
X5024286Y-14172571D01*
X5014762Y-14153524D01*
X5005238Y-14144000D01*
X4986190Y-14134476D01*
X4948095Y-14134476D01*
X4929048Y-14144000D01*
X4919524Y-14153524D01*
X4910000Y-14172571D01*
X4910000Y-14220190D01*
X4919524Y-14239238D01*
X4929048Y-14248762D01*
X4948095Y-14258286D01*
X4986190Y-14258286D01*
X5005238Y-14248762D01*
X5014762Y-14239238D01*
X5024286Y-14220190D01*
X5100476Y-14134476D02*
X5100476Y-14172571D01*
X5176667Y-14134476D02*
X5176667Y-14172571D01*
X5471905Y-14410667D02*
X5462381Y-14401143D01*
X5443333Y-14372571D01*
X5433810Y-14353524D01*
X5424286Y-14324952D01*
X5414762Y-14277333D01*
X5414762Y-14239238D01*
X5424286Y-14191619D01*
X5433810Y-14163048D01*
X5443333Y-14144000D01*
X5462381Y-14115428D01*
X5471905Y-14105905D01*
X5652857Y-14334476D02*
X5538571Y-14334476D01*
X5595714Y-14334476D02*
X5595714Y-14134476D01*
X5576667Y-14163048D01*
X5557619Y-14182095D01*
X5538571Y-14191619D01*
X5833809Y-14134476D02*
X5738571Y-14134476D01*
X5729048Y-14229714D01*
X5738571Y-14220190D01*
X5757619Y-14210667D01*
X5805238Y-14210667D01*
X5824286Y-14220190D01*
X5833809Y-14229714D01*
X5843333Y-14248762D01*
X5843333Y-14296381D01*
X5833809Y-14315428D01*
X5824286Y-14324952D01*
X5805238Y-14334476D01*
X5757619Y-14334476D01*
X5738571Y-14324952D01*
X5729048Y-14315428D01*
X5967143Y-14134476D02*
X5986190Y-14134476D01*
X6005238Y-14144000D01*
X6014762Y-14153524D01*
X6024286Y-14172571D01*
X6033809Y-14210667D01*
X6033809Y-14258286D01*
X6024286Y-14296381D01*
X6014762Y-14315428D01*
X6005238Y-14324952D01*
X5986190Y-14334476D01*
X5967143Y-14334476D01*
X5948095Y-14324952D01*
X5938571Y-14315428D01*
X5929048Y-14296381D01*
X5919524Y-14258286D01*
X5919524Y-14210667D01*
X5929048Y-14172571D01*
X5938571Y-14153524D01*
X5948095Y-14144000D01*
X5967143Y-14134476D01*
X6271905Y-14334476D02*
X6271905Y-14134476D01*
X6357619Y-14334476D02*
X6357619Y-14229714D01*
X6348095Y-14210667D01*
X6329048Y-14201143D01*
X6300476Y-14201143D01*
X6281428Y-14210667D01*
X6271905Y-14220190D01*
X6481428Y-14334476D02*
X6462381Y-14324952D01*
X6452857Y-14315428D01*
X6443333Y-14296381D01*
X6443333Y-14239238D01*
X6452857Y-14220190D01*
X6462381Y-14210667D01*
X6481428Y-14201143D01*
X6510000Y-14201143D01*
X6529048Y-14210667D01*
X6538571Y-14220190D01*
X6548095Y-14239238D01*
X6548095Y-14296381D01*
X6538571Y-14315428D01*
X6529048Y-14324952D01*
X6510000Y-14334476D01*
X6481428Y-14334476D01*
X6662381Y-14334476D02*
X6643333Y-14324952D01*
X6633809Y-14305905D01*
X6633809Y-14134476D01*
X6814762Y-14324952D02*
X6795714Y-14334476D01*
X6757619Y-14334476D01*
X6738571Y-14324952D01*
X6729048Y-14305905D01*
X6729048Y-14229714D01*
X6738571Y-14210667D01*
X6757619Y-14201143D01*
X6795714Y-14201143D01*
X6814762Y-14210667D01*
X6824286Y-14229714D01*
X6824286Y-14248762D01*
X6729048Y-14267809D01*
X6900476Y-14324952D02*
X6919524Y-14334476D01*
X6957619Y-14334476D01*
X6976667Y-14324952D01*
X6986190Y-14305905D01*
X6986190Y-14296381D01*
X6976667Y-14277333D01*
X6957619Y-14267809D01*
X6929048Y-14267809D01*
X6910000Y-14258286D01*
X6900476Y-14239238D01*
X6900476Y-14229714D01*
X6910000Y-14210667D01*
X6929048Y-14201143D01*
X6957619Y-14201143D01*
X6976667Y-14210667D01*
X7052857Y-14410667D02*
X7062381Y-14401143D01*
X7081428Y-14372571D01*
X7090952Y-14353524D01*
X7100476Y-14324952D01*
X7110000Y-14277333D01*
X7110000Y-14239238D01*
X7100476Y-14191619D01*
X7090952Y-14163048D01*
X7081428Y-14144000D01*
X7062381Y-14115428D01*
X7052857Y-14105905D01*
X7414762Y-14410667D02*
X7405238Y-14401143D01*
X7386190Y-14372571D01*
X7376667Y-14353524D01*
X7367143Y-14324952D01*
X7357619Y-14277333D01*
X7357619Y-14239238D01*
X7367143Y-14191619D01*
X7376667Y-14163048D01*
X7386190Y-14144000D01*
X7405238Y-14115428D01*
X7414762Y-14105905D01*
X7490952Y-14201143D02*
X7490952Y-14334476D01*
X7490952Y-14220190D02*
X7500476Y-14210667D01*
X7519524Y-14201143D01*
X7548095Y-14201143D01*
X7567143Y-14210667D01*
X7576667Y-14229714D01*
X7576667Y-14334476D01*
X7700476Y-14334476D02*
X7681428Y-14324952D01*
X7671905Y-14315428D01*
X7662381Y-14296381D01*
X7662381Y-14239238D01*
X7671905Y-14220190D01*
X7681428Y-14210667D01*
X7700476Y-14201143D01*
X7729048Y-14201143D01*
X7748095Y-14210667D01*
X7757619Y-14220190D01*
X7767143Y-14239238D01*
X7767143Y-14296381D01*
X7757619Y-14315428D01*
X7748095Y-14324952D01*
X7729048Y-14334476D01*
X7700476Y-14334476D01*
X7824286Y-14201143D02*
X7900476Y-14201143D01*
X7852857Y-14134476D02*
X7852857Y-14305905D01*
X7862381Y-14324952D01*
X7881428Y-14334476D01*
X7900476Y-14334476D01*
X8119524Y-14201143D02*
X8119524Y-14401143D01*
X8119524Y-14210667D02*
X8138571Y-14201143D01*
X8176667Y-14201143D01*
X8195714Y-14210667D01*
X8205238Y-14220190D01*
X8214762Y-14239238D01*
X8214762Y-14296381D01*
X8205238Y-14315428D01*
X8195714Y-14324952D01*
X8176667Y-14334476D01*
X8138571Y-14334476D01*
X8119524Y-14324952D01*
X8329048Y-14334476D02*
X8310000Y-14324952D01*
X8300476Y-14305905D01*
X8300476Y-14134476D01*
X8490952Y-14334476D02*
X8490952Y-14229714D01*
X8481429Y-14210667D01*
X8462381Y-14201143D01*
X8424286Y-14201143D01*
X8405238Y-14210667D01*
X8490952Y-14324952D02*
X8471905Y-14334476D01*
X8424286Y-14334476D01*
X8405238Y-14324952D01*
X8395714Y-14305905D01*
X8395714Y-14286857D01*
X8405238Y-14267809D01*
X8424286Y-14258286D01*
X8471905Y-14258286D01*
X8490952Y-14248762D01*
X8557619Y-14201143D02*
X8633810Y-14201143D01*
X8586190Y-14134476D02*
X8586190Y-14305905D01*
X8595714Y-14324952D01*
X8614762Y-14334476D01*
X8633810Y-14334476D01*
X8776667Y-14324952D02*
X8757619Y-14334476D01*
X8719524Y-14334476D01*
X8700476Y-14324952D01*
X8690952Y-14305905D01*
X8690952Y-14229714D01*
X8700476Y-14210667D01*
X8719524Y-14201143D01*
X8757619Y-14201143D01*
X8776667Y-14210667D01*
X8786190Y-14229714D01*
X8786190Y-14248762D01*
X8690952Y-14267809D01*
X8957619Y-14334476D02*
X8957619Y-14134476D01*
X8957619Y-14324952D02*
X8938571Y-14334476D01*
X8900476Y-14334476D01*
X8881429Y-14324952D01*
X8871905Y-14315428D01*
X8862381Y-14296381D01*
X8862381Y-14239238D01*
X8871905Y-14220190D01*
X8881429Y-14210667D01*
X8900476Y-14201143D01*
X8938571Y-14201143D01*
X8957619Y-14210667D01*
X9033810Y-14410667D02*
X9043333Y-14401143D01*
X9062381Y-14372571D01*
X9071905Y-14353524D01*
X9081429Y-14324952D01*
X9090952Y-14277333D01*
X9090952Y-14239238D01*
X9081429Y-14191619D01*
X9071905Y-14163048D01*
X9062381Y-14144000D01*
X9043333Y-14115428D01*
X9033810Y-14105905D01*
X1800000Y-14439000D02*
X1800000Y-14639000D01*
X1700000Y-14539000D02*
X1900000Y-14539000D01*
X2148095Y-14448524D02*
X2157619Y-14439000D01*
X2176667Y-14429476D01*
X2224286Y-14429476D01*
X2243333Y-14439000D01*
X2252857Y-14448524D01*
X2262381Y-14467571D01*
X2262381Y-14486619D01*
X2252857Y-14515190D01*
X2138571Y-14629476D01*
X2262381Y-14629476D01*
X2348095Y-14610428D02*
X2357619Y-14619952D01*
X2348095Y-14629476D01*
X2338571Y-14619952D01*
X2348095Y-14610428D01*
X2348095Y-14629476D01*
X2433810Y-14448524D02*
X2443333Y-14439000D01*
X2462381Y-14429476D01*
X2510000Y-14429476D01*
X2529048Y-14439000D01*
X2538571Y-14448524D01*
X2548095Y-14467571D01*
X2548095Y-14486619D01*
X2538571Y-14515190D01*
X2424286Y-14629476D01*
X2548095Y-14629476D01*
X2671905Y-14429476D02*
X2690952Y-14429476D01*
X2710000Y-14439000D01*
X2719524Y-14448524D01*
X2729048Y-14467571D01*
X2738571Y-14505667D01*
X2738571Y-14553286D01*
X2729048Y-14591381D01*
X2719524Y-14610428D01*
X2710000Y-14619952D01*
X2690952Y-14629476D01*
X2671905Y-14629476D01*
X2652857Y-14619952D01*
X2643333Y-14610428D01*
X2633810Y-14591381D01*
X2624286Y-14553286D01*
X2624286Y-14505667D01*
X2633810Y-14467571D01*
X2643333Y-14448524D01*
X2652857Y-14439000D01*
X2671905Y-14429476D01*
X2862381Y-14429476D02*
X2881428Y-14429476D01*
X2900476Y-14439000D01*
X2910000Y-14448524D01*
X2919524Y-14467571D01*
X2929048Y-14505667D01*
X2929048Y-14553286D01*
X2919524Y-14591381D01*
X2910000Y-14610428D01*
X2900476Y-14619952D01*
X2881428Y-14629476D01*
X2862381Y-14629476D01*
X2843333Y-14619952D01*
X2833809Y-14610428D01*
X2824286Y-14591381D01*
X2814762Y-14553286D01*
X2814762Y-14505667D01*
X2824286Y-14467571D01*
X2833809Y-14448524D01*
X2843333Y-14439000D01*
X2862381Y-14429476D01*
X3014762Y-14629476D02*
X3014762Y-14496143D01*
X3014762Y-14515190D02*
X3024286Y-14505667D01*
X3043333Y-14496143D01*
X3071905Y-14496143D01*
X3090952Y-14505667D01*
X3100476Y-14524714D01*
X3100476Y-14629476D01*
X3100476Y-14524714D02*
X3110000Y-14505667D01*
X3129048Y-14496143D01*
X3157619Y-14496143D01*
X3176667Y-14505667D01*
X3186190Y-14524714D01*
X3186190Y-14629476D01*
X3281428Y-14629476D02*
X3281428Y-14496143D01*
X3281428Y-14515190D02*
X3290952Y-14505667D01*
X3310000Y-14496143D01*
X3338571Y-14496143D01*
X3357619Y-14505667D01*
X3367143Y-14524714D01*
X3367143Y-14629476D01*
X3367143Y-14524714D02*
X3376667Y-14505667D01*
X3395714Y-14496143D01*
X3424286Y-14496143D01*
X3443333Y-14505667D01*
X3452857Y-14524714D01*
X3452857Y-14629476D01*
X3843333Y-14419952D02*
X3671905Y-14677095D01*
X4100476Y-14429476D02*
X4119524Y-14429476D01*
X4138571Y-14439000D01*
X4148095Y-14448524D01*
X4157619Y-14467571D01*
X4167143Y-14505667D01*
X4167143Y-14553286D01*
X4157619Y-14591381D01*
X4148095Y-14610428D01*
X4138571Y-14619952D01*
X4119524Y-14629476D01*
X4100476Y-14629476D01*
X4081428Y-14619952D01*
X4071905Y-14610428D01*
X4062381Y-14591381D01*
X4052857Y-14553286D01*
X4052857Y-14505667D01*
X4062381Y-14467571D01*
X4071905Y-14448524D01*
X4081428Y-14439000D01*
X4100476Y-14429476D01*
X4252857Y-14610428D02*
X4262381Y-14619952D01*
X4252857Y-14629476D01*
X4243333Y-14619952D01*
X4252857Y-14610428D01*
X4252857Y-14629476D01*
X4386190Y-14429476D02*
X4405238Y-14429476D01*
X4424286Y-14439000D01*
X4433810Y-14448524D01*
X4443333Y-14467571D01*
X4452857Y-14505667D01*
X4452857Y-14553286D01*
X4443333Y-14591381D01*
X4433810Y-14610428D01*
X4424286Y-14619952D01*
X4405238Y-14629476D01*
X4386190Y-14629476D01*
X4367143Y-14619952D01*
X4357619Y-14610428D01*
X4348095Y-14591381D01*
X4338571Y-14553286D01*
X4338571Y-14505667D01*
X4348095Y-14467571D01*
X4357619Y-14448524D01*
X4367143Y-14439000D01*
X4386190Y-14429476D01*
X4567143Y-14515190D02*
X4548095Y-14505667D01*
X4538571Y-14496143D01*
X4529048Y-14477095D01*
X4529048Y-14467571D01*
X4538571Y-14448524D01*
X4548095Y-14439000D01*
X4567143Y-14429476D01*
X4605238Y-14429476D01*
X4624286Y-14439000D01*
X4633810Y-14448524D01*
X4643333Y-14467571D01*
X4643333Y-14477095D01*
X4633810Y-14496143D01*
X4624286Y-14505667D01*
X4605238Y-14515190D01*
X4567143Y-14515190D01*
X4548095Y-14524714D01*
X4538571Y-14534238D01*
X4529048Y-14553286D01*
X4529048Y-14591381D01*
X4538571Y-14610428D01*
X4548095Y-14619952D01*
X4567143Y-14629476D01*
X4605238Y-14629476D01*
X4624286Y-14619952D01*
X4633810Y-14610428D01*
X4643333Y-14591381D01*
X4643333Y-14553286D01*
X4633810Y-14534238D01*
X4624286Y-14524714D01*
X4605238Y-14515190D01*
X4814762Y-14429476D02*
X4776667Y-14429476D01*
X4757619Y-14439000D01*
X4748095Y-14448524D01*
X4729048Y-14477095D01*
X4719524Y-14515190D01*
X4719524Y-14591381D01*
X4729048Y-14610428D01*
X4738571Y-14619952D01*
X4757619Y-14629476D01*
X4795714Y-14629476D01*
X4814762Y-14619952D01*
X4824286Y-14610428D01*
X4833810Y-14591381D01*
X4833810Y-14543762D01*
X4824286Y-14524714D01*
X4814762Y-14515190D01*
X4795714Y-14505667D01*
X4757619Y-14505667D01*
X4738571Y-14515190D01*
X4729048Y-14524714D01*
X4719524Y-14543762D01*
X5005238Y-14429476D02*
X4967143Y-14429476D01*
X4948095Y-14439000D01*
X4938571Y-14448524D01*
X4919524Y-14477095D01*
X4910000Y-14515190D01*
X4910000Y-14591381D01*
X4919524Y-14610428D01*
X4929048Y-14619952D01*
X4948095Y-14629476D01*
X4986190Y-14629476D01*
X5005238Y-14619952D01*
X5014762Y-14610428D01*
X5024286Y-14591381D01*
X5024286Y-14543762D01*
X5014762Y-14524714D01*
X5005238Y-14515190D01*
X4986190Y-14505667D01*
X4948095Y-14505667D01*
X4929048Y-14515190D01*
X4919524Y-14524714D01*
X4910000Y-14543762D01*
X5100476Y-14429476D02*
X5100476Y-14467571D01*
X5176667Y-14429476D02*
X5176667Y-14467571D01*
X5471905Y-14705667D02*
X5462381Y-14696143D01*
X5443333Y-14667571D01*
X5433810Y-14648524D01*
X5424286Y-14619952D01*
X5414762Y-14572333D01*
X5414762Y-14534238D01*
X5424286Y-14486619D01*
X5433810Y-14458048D01*
X5443333Y-14439000D01*
X5462381Y-14410428D01*
X5471905Y-14400905D01*
X5652857Y-14629476D02*
X5538571Y-14629476D01*
X5595714Y-14629476D02*
X5595714Y-14429476D01*
X5576667Y-14458048D01*
X5557619Y-14477095D01*
X5538571Y-14486619D01*
X5729048Y-14448524D02*
X5738571Y-14439000D01*
X5757619Y-14429476D01*
X5805238Y-14429476D01*
X5824286Y-14439000D01*
X5833809Y-14448524D01*
X5843333Y-14467571D01*
X5843333Y-14486619D01*
X5833809Y-14515190D01*
X5719524Y-14629476D01*
X5843333Y-14629476D01*
X6081428Y-14629476D02*
X6081428Y-14429476D01*
X6167143Y-14629476D02*
X6167143Y-14524714D01*
X6157619Y-14505667D01*
X6138571Y-14496143D01*
X6110000Y-14496143D01*
X6090952Y-14505667D01*
X6081428Y-14515190D01*
X6290952Y-14629476D02*
X6271905Y-14619952D01*
X6262381Y-14610428D01*
X6252857Y-14591381D01*
X6252857Y-14534238D01*
X6262381Y-14515190D01*
X6271905Y-14505667D01*
X6290952Y-14496143D01*
X6319524Y-14496143D01*
X6338571Y-14505667D01*
X6348095Y-14515190D01*
X6357619Y-14534238D01*
X6357619Y-14591381D01*
X6348095Y-14610428D01*
X6338571Y-14619952D01*
X6319524Y-14629476D01*
X6290952Y-14629476D01*
X6471905Y-14629476D02*
X6452857Y-14619952D01*
X6443333Y-14600905D01*
X6443333Y-14429476D01*
X6624286Y-14619952D02*
X6605238Y-14629476D01*
X6567143Y-14629476D01*
X6548095Y-14619952D01*
X6538571Y-14600905D01*
X6538571Y-14524714D01*
X6548095Y-14505667D01*
X6567143Y-14496143D01*
X6605238Y-14496143D01*
X6624286Y-14505667D01*
X6633809Y-14524714D01*
X6633809Y-14543762D01*
X6538571Y-14562809D01*
X6710000Y-14619952D02*
X6729048Y-14629476D01*
X6767143Y-14629476D01*
X6786190Y-14619952D01*
X6795714Y-14600905D01*
X6795714Y-14591381D01*
X6786190Y-14572333D01*
X6767143Y-14562809D01*
X6738571Y-14562809D01*
X6719524Y-14553286D01*
X6710000Y-14534238D01*
X6710000Y-14524714D01*
X6719524Y-14505667D01*
X6738571Y-14496143D01*
X6767143Y-14496143D01*
X6786190Y-14505667D01*
X6862381Y-14705667D02*
X6871905Y-14696143D01*
X6890952Y-14667571D01*
X6900476Y-14648524D01*
X6910000Y-14619952D01*
X6919524Y-14572333D01*
X6919524Y-14534238D01*
X6910000Y-14486619D01*
X6900476Y-14458048D01*
X6890952Y-14439000D01*
X6871905Y-14410428D01*
X6862381Y-14400905D01*
X7224286Y-14705667D02*
X7214762Y-14696143D01*
X7195714Y-14667571D01*
X7186190Y-14648524D01*
X7176667Y-14619952D01*
X7167143Y-14572333D01*
X7167143Y-14534238D01*
X7176667Y-14486619D01*
X7186190Y-14458048D01*
X7195714Y-14439000D01*
X7214762Y-14410428D01*
X7224286Y-14400905D01*
X7300476Y-14496143D02*
X7300476Y-14629476D01*
X7300476Y-14515190D02*
X7310000Y-14505667D01*
X7329048Y-14496143D01*
X7357619Y-14496143D01*
X7376667Y-14505667D01*
X7386190Y-14524714D01*
X7386190Y-14629476D01*
X7510000Y-14629476D02*
X7490952Y-14619952D01*
X7481428Y-14610428D01*
X7471905Y-14591381D01*
X7471905Y-14534238D01*
X7481428Y-14515190D01*
X7490952Y-14505667D01*
X7510000Y-14496143D01*
X7538571Y-14496143D01*
X7557619Y-14505667D01*
X7567143Y-14515190D01*
X7576667Y-14534238D01*
X7576667Y-14591381D01*
X7567143Y-14610428D01*
X7557619Y-14619952D01*
X7538571Y-14629476D01*
X7510000Y-14629476D01*
X7633809Y-14496143D02*
X7710000Y-14496143D01*
X7662381Y-14429476D02*
X7662381Y-14600905D01*
X7671905Y-14619952D01*
X7690952Y-14629476D01*
X7710000Y-14629476D01*
X7929048Y-14496143D02*
X7929048Y-14696143D01*
X7929048Y-14505667D02*
X7948095Y-14496143D01*
X7986190Y-14496143D01*
X8005238Y-14505667D01*
X8014762Y-14515190D01*
X8024286Y-14534238D01*
X8024286Y-14591381D01*
X8014762Y-14610428D01*
X8005238Y-14619952D01*
X7986190Y-14629476D01*
X7948095Y-14629476D01*
X7929048Y-14619952D01*
X8138571Y-14629476D02*
X8119524Y-14619952D01*
X8110000Y-14600905D01*
X8110000Y-14429476D01*
X8300476Y-14629476D02*
X8300476Y-14524714D01*
X8290952Y-14505667D01*
X8271905Y-14496143D01*
X8233809Y-14496143D01*
X8214762Y-14505667D01*
X8300476Y-14619952D02*
X8281428Y-14629476D01*
X8233809Y-14629476D01*
X8214762Y-14619952D01*
X8205238Y-14600905D01*
X8205238Y-14581857D01*
X8214762Y-14562809D01*
X8233809Y-14553286D01*
X8281428Y-14553286D01*
X8300476Y-14543762D01*
X8367143Y-14496143D02*
X8443333Y-14496143D01*
X8395714Y-14429476D02*
X8395714Y-14600905D01*
X8405238Y-14619952D01*
X8424286Y-14629476D01*
X8443333Y-14629476D01*
X8586190Y-14619952D02*
X8567143Y-14629476D01*
X8529048Y-14629476D01*
X8510000Y-14619952D01*
X8500476Y-14600905D01*
X8500476Y-14524714D01*
X8510000Y-14505667D01*
X8529048Y-14496143D01*
X8567143Y-14496143D01*
X8586190Y-14505667D01*
X8595714Y-14524714D01*
X8595714Y-14543762D01*
X8500476Y-14562809D01*
X8767143Y-14629476D02*
X8767143Y-14429476D01*
X8767143Y-14619952D02*
X8748095Y-14629476D01*
X8710000Y-14629476D01*
X8690952Y-14619952D01*
X8681429Y-14610428D01*
X8671905Y-14591381D01*
X8671905Y-14534238D01*
X8681429Y-14515190D01*
X8690952Y-14505667D01*
X8710000Y-14496143D01*
X8748095Y-14496143D01*
X8767143Y-14505667D01*
X8843333Y-14705667D02*
X8852857Y-14696143D01*
X8871905Y-14667571D01*
X8881429Y-14648524D01*
X8890952Y-14619952D01*
X8900476Y-14572333D01*
X8900476Y-14534238D01*
X8890952Y-14486619D01*
X8881429Y-14458048D01*
X8871905Y-14439000D01*
X8852857Y-14410428D01*
X8843333Y-14400905D01*
X1870711Y-14929711D02*
X1870711Y-14788289D01*
X1729289Y-14788289D01*
X1729289Y-14929711D01*
X1870711Y-14929711D01*
X2138571Y-14749476D02*
X2262381Y-14749476D01*
X2195714Y-14825667D01*
X2224286Y-14825667D01*
X2243333Y-14835190D01*
X2252857Y-14844714D01*
X2262381Y-14863762D01*
X2262381Y-14911381D01*
X2252857Y-14930428D01*
X2243333Y-14939952D01*
X2224286Y-14949476D01*
X2167143Y-14949476D01*
X2148095Y-14939952D01*
X2138571Y-14930428D01*
X2348095Y-14930428D02*
X2357619Y-14939952D01*
X2348095Y-14949476D01*
X2338571Y-14939952D01*
X2348095Y-14930428D01*
X2348095Y-14949476D01*
X2481429Y-14749476D02*
X2500476Y-14749476D01*
X2519524Y-14759000D01*
X2529048Y-14768524D01*
X2538571Y-14787571D01*
X2548095Y-14825667D01*
X2548095Y-14873286D01*
X2538571Y-14911381D01*
X2529048Y-14930428D01*
X2519524Y-14939952D01*
X2500476Y-14949476D01*
X2481429Y-14949476D01*
X2462381Y-14939952D01*
X2452857Y-14930428D01*
X2443333Y-14911381D01*
X2433810Y-14873286D01*
X2433810Y-14825667D01*
X2443333Y-14787571D01*
X2452857Y-14768524D01*
X2462381Y-14759000D01*
X2481429Y-14749476D01*
X2719524Y-14816143D02*
X2719524Y-14949476D01*
X2671905Y-14739952D02*
X2624286Y-14882809D01*
X2748095Y-14882809D01*
X2852857Y-14835190D02*
X2833809Y-14825667D01*
X2824286Y-14816143D01*
X2814762Y-14797095D01*
X2814762Y-14787571D01*
X2824286Y-14768524D01*
X2833809Y-14759000D01*
X2852857Y-14749476D01*
X2890952Y-14749476D01*
X2910000Y-14759000D01*
X2919524Y-14768524D01*
X2929048Y-14787571D01*
X2929048Y-14797095D01*
X2919524Y-14816143D01*
X2910000Y-14825667D01*
X2890952Y-14835190D01*
X2852857Y-14835190D01*
X2833809Y-14844714D01*
X2824286Y-14854238D01*
X2814762Y-14873286D01*
X2814762Y-14911381D01*
X2824286Y-14930428D01*
X2833809Y-14939952D01*
X2852857Y-14949476D01*
X2890952Y-14949476D01*
X2910000Y-14939952D01*
X2919524Y-14930428D01*
X2929048Y-14911381D01*
X2929048Y-14873286D01*
X2919524Y-14854238D01*
X2910000Y-14844714D01*
X2890952Y-14835190D01*
X3014762Y-14949476D02*
X3014762Y-14816143D01*
X3014762Y-14835190D02*
X3024286Y-14825667D01*
X3043333Y-14816143D01*
X3071905Y-14816143D01*
X3090952Y-14825667D01*
X3100476Y-14844714D01*
X3100476Y-14949476D01*
X3100476Y-14844714D02*
X3110000Y-14825667D01*
X3129048Y-14816143D01*
X3157619Y-14816143D01*
X3176667Y-14825667D01*
X3186190Y-14844714D01*
X3186190Y-14949476D01*
X3281428Y-14949476D02*
X3281428Y-14816143D01*
X3281428Y-14835190D02*
X3290952Y-14825667D01*
X3310000Y-14816143D01*
X3338571Y-14816143D01*
X3357619Y-14825667D01*
X3367143Y-14844714D01*
X3367143Y-14949476D01*
X3367143Y-14844714D02*
X3376667Y-14825667D01*
X3395714Y-14816143D01*
X3424286Y-14816143D01*
X3443333Y-14825667D01*
X3452857Y-14844714D01*
X3452857Y-14949476D01*
X3843333Y-14739952D02*
X3671905Y-14997095D01*
X4100476Y-14749476D02*
X4119524Y-14749476D01*
X4138571Y-14759000D01*
X4148095Y-14768524D01*
X4157619Y-14787571D01*
X4167143Y-14825667D01*
X4167143Y-14873286D01*
X4157619Y-14911381D01*
X4148095Y-14930428D01*
X4138571Y-14939952D01*
X4119524Y-14949476D01*
X4100476Y-14949476D01*
X4081428Y-14939952D01*
X4071905Y-14930428D01*
X4062381Y-14911381D01*
X4052857Y-14873286D01*
X4052857Y-14825667D01*
X4062381Y-14787571D01*
X4071905Y-14768524D01*
X4081428Y-14759000D01*
X4100476Y-14749476D01*
X4252857Y-14930428D02*
X4262381Y-14939952D01*
X4252857Y-14949476D01*
X4243333Y-14939952D01*
X4252857Y-14930428D01*
X4252857Y-14949476D01*
X4452857Y-14949476D02*
X4338571Y-14949476D01*
X4395714Y-14949476D02*
X4395714Y-14749476D01*
X4376667Y-14778048D01*
X4357619Y-14797095D01*
X4338571Y-14806619D01*
X4529048Y-14768524D02*
X4538571Y-14759000D01*
X4557619Y-14749476D01*
X4605238Y-14749476D01*
X4624286Y-14759000D01*
X4633810Y-14768524D01*
X4643333Y-14787571D01*
X4643333Y-14806619D01*
X4633810Y-14835190D01*
X4519524Y-14949476D01*
X4643333Y-14949476D01*
X4767143Y-14749476D02*
X4786190Y-14749476D01*
X4805238Y-14759000D01*
X4814762Y-14768524D01*
X4824286Y-14787571D01*
X4833810Y-14825667D01*
X4833810Y-14873286D01*
X4824286Y-14911381D01*
X4814762Y-14930428D01*
X4805238Y-14939952D01*
X4786190Y-14949476D01*
X4767143Y-14949476D01*
X4748095Y-14939952D01*
X4738571Y-14930428D01*
X4729048Y-14911381D01*
X4719524Y-14873286D01*
X4719524Y-14825667D01*
X4729048Y-14787571D01*
X4738571Y-14768524D01*
X4748095Y-14759000D01*
X4767143Y-14749476D01*
X4957619Y-14749476D02*
X4976667Y-14749476D01*
X4995714Y-14759000D01*
X5005238Y-14768524D01*
X5014762Y-14787571D01*
X5024286Y-14825667D01*
X5024286Y-14873286D01*
X5014762Y-14911381D01*
X5005238Y-14930428D01*
X4995714Y-14939952D01*
X4976667Y-14949476D01*
X4957619Y-14949476D01*
X4938571Y-14939952D01*
X4929048Y-14930428D01*
X4919524Y-14911381D01*
X4910000Y-14873286D01*
X4910000Y-14825667D01*
X4919524Y-14787571D01*
X4929048Y-14768524D01*
X4938571Y-14759000D01*
X4957619Y-14749476D01*
X5100476Y-14749476D02*
X5100476Y-14787571D01*
X5176667Y-14749476D02*
X5176667Y-14787571D01*
X5471905Y-15025667D02*
X5462381Y-15016143D01*
X5443333Y-14987571D01*
X5433810Y-14968524D01*
X5424286Y-14939952D01*
X5414762Y-14892333D01*
X5414762Y-14854238D01*
X5424286Y-14806619D01*
X5433810Y-14778048D01*
X5443333Y-14759000D01*
X5462381Y-14730428D01*
X5471905Y-14720905D01*
X5576667Y-14835190D02*
X5557619Y-14825667D01*
X5548095Y-14816143D01*
X5538571Y-14797095D01*
X5538571Y-14787571D01*
X5548095Y-14768524D01*
X5557619Y-14759000D01*
X5576667Y-14749476D01*
X5614762Y-14749476D01*
X5633809Y-14759000D01*
X5643333Y-14768524D01*
X5652857Y-14787571D01*
X5652857Y-14797095D01*
X5643333Y-14816143D01*
X5633809Y-14825667D01*
X5614762Y-14835190D01*
X5576667Y-14835190D01*
X5557619Y-14844714D01*
X5548095Y-14854238D01*
X5538571Y-14873286D01*
X5538571Y-14911381D01*
X5548095Y-14930428D01*
X5557619Y-14939952D01*
X5576667Y-14949476D01*
X5614762Y-14949476D01*
X5633809Y-14939952D01*
X5643333Y-14930428D01*
X5652857Y-14911381D01*
X5652857Y-14873286D01*
X5643333Y-14854238D01*
X5633809Y-14844714D01*
X5614762Y-14835190D01*
X5890952Y-14949476D02*
X5890952Y-14749476D01*
X5976667Y-14949476D02*
X5976667Y-14844714D01*
X5967143Y-14825667D01*
X5948095Y-14816143D01*
X5919524Y-14816143D01*
X5900476Y-14825667D01*
X5890952Y-14835190D01*
X6100476Y-14949476D02*
X6081428Y-14939952D01*
X6071905Y-14930428D01*
X6062381Y-14911381D01*
X6062381Y-14854238D01*
X6071905Y-14835190D01*
X6081428Y-14825667D01*
X6100476Y-14816143D01*
X6129048Y-14816143D01*
X6148095Y-14825667D01*
X6157619Y-14835190D01*
X6167143Y-14854238D01*
X6167143Y-14911381D01*
X6157619Y-14930428D01*
X6148095Y-14939952D01*
X6129048Y-14949476D01*
X6100476Y-14949476D01*
X6281428Y-14949476D02*
X6262381Y-14939952D01*
X6252857Y-14920905D01*
X6252857Y-14749476D01*
X6433809Y-14939952D02*
X6414762Y-14949476D01*
X6376667Y-14949476D01*
X6357619Y-14939952D01*
X6348095Y-14920905D01*
X6348095Y-14844714D01*
X6357619Y-14825667D01*
X6376667Y-14816143D01*
X6414762Y-14816143D01*
X6433809Y-14825667D01*
X6443333Y-14844714D01*
X6443333Y-14863762D01*
X6348095Y-14882809D01*
X6519524Y-14939952D02*
X6538571Y-14949476D01*
X6576667Y-14949476D01*
X6595714Y-14939952D01*
X6605238Y-14920905D01*
X6605238Y-14911381D01*
X6595714Y-14892333D01*
X6576667Y-14882809D01*
X6548095Y-14882809D01*
X6529048Y-14873286D01*
X6519524Y-14854238D01*
X6519524Y-14844714D01*
X6529048Y-14825667D01*
X6548095Y-14816143D01*
X6576667Y-14816143D01*
X6595714Y-14825667D01*
X6671905Y-15025667D02*
X6681428Y-15016143D01*
X6700476Y-14987571D01*
X6710000Y-14968524D01*
X6719524Y-14939952D01*
X6729048Y-14892333D01*
X6729048Y-14854238D01*
X6719524Y-14806619D01*
X6710000Y-14778048D01*
X6700476Y-14759000D01*
X6681428Y-14730428D01*
X6671905Y-14720905D01*
X7033809Y-15025667D02*
X7024286Y-15016143D01*
X7005238Y-14987571D01*
X6995714Y-14968524D01*
X6986190Y-14939952D01*
X6976667Y-14892333D01*
X6976667Y-14854238D01*
X6986190Y-14806619D01*
X6995714Y-14778048D01*
X7005238Y-14759000D01*
X7024286Y-14730428D01*
X7033809Y-14720905D01*
X7110000Y-14816143D02*
X7110000Y-14949476D01*
X7110000Y-14835190D02*
X7119524Y-14825667D01*
X7138571Y-14816143D01*
X7167143Y-14816143D01*
X7186190Y-14825667D01*
X7195714Y-14844714D01*
X7195714Y-14949476D01*
X7319524Y-14949476D02*
X7300476Y-14939952D01*
X7290952Y-14930428D01*
X7281428Y-14911381D01*
X7281428Y-14854238D01*
X7290952Y-14835190D01*
X7300476Y-14825667D01*
X7319524Y-14816143D01*
X7348095Y-14816143D01*
X7367143Y-14825667D01*
X7376667Y-14835190D01*
X7386190Y-14854238D01*
X7386190Y-14911381D01*
X7376667Y-14930428D01*
X7367143Y-14939952D01*
X7348095Y-14949476D01*
X7319524Y-14949476D01*
X7443333Y-14816143D02*
X7519524Y-14816143D01*
X7471905Y-14749476D02*
X7471905Y-14920905D01*
X7481428Y-14939952D01*
X7500476Y-14949476D01*
X7519524Y-14949476D01*
X7738571Y-14816143D02*
X7738571Y-15016143D01*
X7738571Y-14825667D02*
X7757619Y-14816143D01*
X7795714Y-14816143D01*
X7814762Y-14825667D01*
X7824286Y-14835190D01*
X7833809Y-14854238D01*
X7833809Y-14911381D01*
X7824286Y-14930428D01*
X7814762Y-14939952D01*
X7795714Y-14949476D01*
X7757619Y-14949476D01*
X7738571Y-14939952D01*
X7948095Y-14949476D02*
X7929048Y-14939952D01*
X7919524Y-14920905D01*
X7919524Y-14749476D01*
X8110000Y-14949476D02*
X8110000Y-14844714D01*
X8100476Y-14825667D01*
X8081428Y-14816143D01*
X8043333Y-14816143D01*
X8024286Y-14825667D01*
X8110000Y-14939952D02*
X8090952Y-14949476D01*
X8043333Y-14949476D01*
X8024286Y-14939952D01*
X8014762Y-14920905D01*
X8014762Y-14901857D01*
X8024286Y-14882809D01*
X8043333Y-14873286D01*
X8090952Y-14873286D01*
X8110000Y-14863762D01*
X8176667Y-14816143D02*
X8252857Y-14816143D01*
X8205238Y-14749476D02*
X8205238Y-14920905D01*
X8214762Y-14939952D01*
X8233809Y-14949476D01*
X8252857Y-14949476D01*
X8395714Y-14939952D02*
X8376667Y-14949476D01*
X8338571Y-14949476D01*
X8319524Y-14939952D01*
X8310000Y-14920905D01*
X8310000Y-14844714D01*
X8319524Y-14825667D01*
X8338571Y-14816143D01*
X8376667Y-14816143D01*
X8395714Y-14825667D01*
X8405238Y-14844714D01*
X8405238Y-14863762D01*
X8310000Y-14882809D01*
X8576667Y-14949476D02*
X8576667Y-14749476D01*
X8576667Y-14939952D02*
X8557619Y-14949476D01*
X8519524Y-14949476D01*
X8500476Y-14939952D01*
X8490952Y-14930428D01*
X8481429Y-14911381D01*
X8481429Y-14854238D01*
X8490952Y-14835190D01*
X8500476Y-14825667D01*
X8519524Y-14816143D01*
X8557619Y-14816143D01*
X8576667Y-14825667D01*
X8652857Y-15025667D02*
X8662381Y-15016143D01*
X8681429Y-14987571D01*
X8690952Y-14968524D01*
X8700476Y-14939952D01*
X8710000Y-14892333D01*
X8710000Y-14854238D01*
X8700476Y-14806619D01*
X8690952Y-14778048D01*
X8681429Y-14759000D01*
X8662381Y-14730428D01*
X8652857Y-14720905D01*
X1800000Y-15279000D02*
X1900000Y-15179000D01*
X1800000Y-15079000D01*
X1700000Y-15179000D01*
X1800000Y-15279000D01*
X2138571Y-15069476D02*
X2262381Y-15069476D01*
X2195714Y-15145667D01*
X2224286Y-15145667D01*
X2243333Y-15155190D01*
X2252857Y-15164714D01*
X2262381Y-15183762D01*
X2262381Y-15231381D01*
X2252857Y-15250428D01*
X2243333Y-15259952D01*
X2224286Y-15269476D01*
X2167143Y-15269476D01*
X2148095Y-15259952D01*
X2138571Y-15250428D01*
X2348095Y-15250428D02*
X2357619Y-15259952D01*
X2348095Y-15269476D01*
X2338571Y-15259952D01*
X2348095Y-15250428D01*
X2348095Y-15269476D01*
X2481429Y-15069476D02*
X2500476Y-15069476D01*
X2519524Y-15079000D01*
X2529048Y-15088524D01*
X2538571Y-15107571D01*
X2548095Y-15145667D01*
X2548095Y-15193286D01*
X2538571Y-15231381D01*
X2529048Y-15250428D01*
X2519524Y-15259952D01*
X2500476Y-15269476D01*
X2481429Y-15269476D01*
X2462381Y-15259952D01*
X2452857Y-15250428D01*
X2443333Y-15231381D01*
X2433810Y-15193286D01*
X2433810Y-15145667D01*
X2443333Y-15107571D01*
X2452857Y-15088524D01*
X2462381Y-15079000D01*
X2481429Y-15069476D01*
X2729048Y-15069476D02*
X2633810Y-15069476D01*
X2624286Y-15164714D01*
X2633810Y-15155190D01*
X2652857Y-15145667D01*
X2700476Y-15145667D01*
X2719524Y-15155190D01*
X2729048Y-15164714D01*
X2738571Y-15183762D01*
X2738571Y-15231381D01*
X2729048Y-15250428D01*
X2719524Y-15259952D01*
X2700476Y-15269476D01*
X2652857Y-15269476D01*
X2633810Y-15259952D01*
X2624286Y-15250428D01*
X2862381Y-15069476D02*
X2881428Y-15069476D01*
X2900476Y-15079000D01*
X2910000Y-15088524D01*
X2919524Y-15107571D01*
X2929048Y-15145667D01*
X2929048Y-15193286D01*
X2919524Y-15231381D01*
X2910000Y-15250428D01*
X2900476Y-15259952D01*
X2881428Y-15269476D01*
X2862381Y-15269476D01*
X2843333Y-15259952D01*
X2833809Y-15250428D01*
X2824286Y-15231381D01*
X2814762Y-15193286D01*
X2814762Y-15145667D01*
X2824286Y-15107571D01*
X2833809Y-15088524D01*
X2843333Y-15079000D01*
X2862381Y-15069476D01*
X3014762Y-15269476D02*
X3014762Y-15136143D01*
X3014762Y-15155190D02*
X3024286Y-15145667D01*
X3043333Y-15136143D01*
X3071905Y-15136143D01*
X3090952Y-15145667D01*
X3100476Y-15164714D01*
X3100476Y-15269476D01*
X3100476Y-15164714D02*
X3110000Y-15145667D01*
X3129048Y-15136143D01*
X3157619Y-15136143D01*
X3176667Y-15145667D01*
X3186190Y-15164714D01*
X3186190Y-15269476D01*
X3281428Y-15269476D02*
X3281428Y-15136143D01*
X3281428Y-15155190D02*
X3290952Y-15145667D01*
X3310000Y-15136143D01*
X3338571Y-15136143D01*
X3357619Y-15145667D01*
X3367143Y-15164714D01*
X3367143Y-15269476D01*
X3367143Y-15164714D02*
X3376667Y-15145667D01*
X3395714Y-15136143D01*
X3424286Y-15136143D01*
X3443333Y-15145667D01*
X3452857Y-15164714D01*
X3452857Y-15269476D01*
X3843333Y-15059952D02*
X3671905Y-15317095D01*
X4100476Y-15069476D02*
X4119524Y-15069476D01*
X4138571Y-15079000D01*
X4148095Y-15088524D01*
X4157619Y-15107571D01*
X4167143Y-15145667D01*
X4167143Y-15193286D01*
X4157619Y-15231381D01*
X4148095Y-15250428D01*
X4138571Y-15259952D01*
X4119524Y-15269476D01*
X4100476Y-15269476D01*
X4081428Y-15259952D01*
X4071905Y-15250428D01*
X4062381Y-15231381D01*
X4052857Y-15193286D01*
X4052857Y-15145667D01*
X4062381Y-15107571D01*
X4071905Y-15088524D01*
X4081428Y-15079000D01*
X4100476Y-15069476D01*
X4252857Y-15250428D02*
X4262381Y-15259952D01*
X4252857Y-15269476D01*
X4243333Y-15259952D01*
X4252857Y-15250428D01*
X4252857Y-15269476D01*
X4452857Y-15269476D02*
X4338571Y-15269476D01*
X4395714Y-15269476D02*
X4395714Y-15069476D01*
X4376667Y-15098048D01*
X4357619Y-15117095D01*
X4338571Y-15126619D01*
X4529048Y-15088524D02*
X4538571Y-15079000D01*
X4557619Y-15069476D01*
X4605238Y-15069476D01*
X4624286Y-15079000D01*
X4633810Y-15088524D01*
X4643333Y-15107571D01*
X4643333Y-15126619D01*
X4633810Y-15155190D01*
X4519524Y-15269476D01*
X4643333Y-15269476D01*
X4767143Y-15069476D02*
X4786190Y-15069476D01*
X4805238Y-15079000D01*
X4814762Y-15088524D01*
X4824286Y-15107571D01*
X4833810Y-15145667D01*
X4833810Y-15193286D01*
X4824286Y-15231381D01*
X4814762Y-15250428D01*
X4805238Y-15259952D01*
X4786190Y-15269476D01*
X4767143Y-15269476D01*
X4748095Y-15259952D01*
X4738571Y-15250428D01*
X4729048Y-15231381D01*
X4719524Y-15193286D01*
X4719524Y-15145667D01*
X4729048Y-15107571D01*
X4738571Y-15088524D01*
X4748095Y-15079000D01*
X4767143Y-15069476D01*
X5024286Y-15269476D02*
X4910000Y-15269476D01*
X4967143Y-15269476D02*
X4967143Y-15069476D01*
X4948095Y-15098048D01*
X4929048Y-15117095D01*
X4910000Y-15126619D01*
X5100476Y-15069476D02*
X5100476Y-15107571D01*
X5176667Y-15069476D02*
X5176667Y-15107571D01*
X5471905Y-15345667D02*
X5462381Y-15336143D01*
X5443333Y-15307571D01*
X5433810Y-15288524D01*
X5424286Y-15259952D01*
X5414762Y-15212333D01*
X5414762Y-15174238D01*
X5424286Y-15126619D01*
X5433810Y-15098048D01*
X5443333Y-15079000D01*
X5462381Y-15050428D01*
X5471905Y-15040905D01*
X5652857Y-15269476D02*
X5538571Y-15269476D01*
X5595714Y-15269476D02*
X5595714Y-15069476D01*
X5576667Y-15098048D01*
X5557619Y-15117095D01*
X5538571Y-15126619D01*
X5833809Y-15069476D02*
X5738571Y-15069476D01*
X5729048Y-15164714D01*
X5738571Y-15155190D01*
X5757619Y-15145667D01*
X5805238Y-15145667D01*
X5824286Y-15155190D01*
X5833809Y-15164714D01*
X5843333Y-15183762D01*
X5843333Y-15231381D01*
X5833809Y-15250428D01*
X5824286Y-15259952D01*
X5805238Y-15269476D01*
X5757619Y-15269476D01*
X5738571Y-15259952D01*
X5729048Y-15250428D01*
X5967143Y-15069476D02*
X5986190Y-15069476D01*
X6005238Y-15079000D01*
X6014762Y-15088524D01*
X6024286Y-15107571D01*
X6033809Y-15145667D01*
X6033809Y-15193286D01*
X6024286Y-15231381D01*
X6014762Y-15250428D01*
X6005238Y-15259952D01*
X5986190Y-15269476D01*
X5967143Y-15269476D01*
X5948095Y-15259952D01*
X5938571Y-15250428D01*
X5929048Y-15231381D01*
X5919524Y-15193286D01*
X5919524Y-15145667D01*
X5929048Y-15107571D01*
X5938571Y-15088524D01*
X5948095Y-15079000D01*
X5967143Y-15069476D01*
X6271905Y-15269476D02*
X6271905Y-15069476D01*
X6357619Y-15269476D02*
X6357619Y-15164714D01*
X6348095Y-15145667D01*
X6329048Y-15136143D01*
X6300476Y-15136143D01*
X6281428Y-15145667D01*
X6271905Y-15155190D01*
X6481428Y-15269476D02*
X6462381Y-15259952D01*
X6452857Y-15250428D01*
X6443333Y-15231381D01*
X6443333Y-15174238D01*
X6452857Y-15155190D01*
X6462381Y-15145667D01*
X6481428Y-15136143D01*
X6510000Y-15136143D01*
X6529048Y-15145667D01*
X6538571Y-15155190D01*
X6548095Y-15174238D01*
X6548095Y-15231381D01*
X6538571Y-15250428D01*
X6529048Y-15259952D01*
X6510000Y-15269476D01*
X6481428Y-15269476D01*
X6662381Y-15269476D02*
X6643333Y-15259952D01*
X6633809Y-15240905D01*
X6633809Y-15069476D01*
X6814762Y-15259952D02*
X6795714Y-15269476D01*
X6757619Y-15269476D01*
X6738571Y-15259952D01*
X6729048Y-15240905D01*
X6729048Y-15164714D01*
X6738571Y-15145667D01*
X6757619Y-15136143D01*
X6795714Y-15136143D01*
X6814762Y-15145667D01*
X6824286Y-15164714D01*
X6824286Y-15183762D01*
X6729048Y-15202809D01*
X6900476Y-15259952D02*
X6919524Y-15269476D01*
X6957619Y-15269476D01*
X6976667Y-15259952D01*
X6986190Y-15240905D01*
X6986190Y-15231381D01*
X6976667Y-15212333D01*
X6957619Y-15202809D01*
X6929048Y-15202809D01*
X6910000Y-15193286D01*
X6900476Y-15174238D01*
X6900476Y-15164714D01*
X6910000Y-15145667D01*
X6929048Y-15136143D01*
X6957619Y-15136143D01*
X6976667Y-15145667D01*
X7052857Y-15345667D02*
X7062381Y-15336143D01*
X7081428Y-15307571D01*
X7090952Y-15288524D01*
X7100476Y-15259952D01*
X7110000Y-15212333D01*
X7110000Y-15174238D01*
X7100476Y-15126619D01*
X7090952Y-15098048D01*
X7081428Y-15079000D01*
X7062381Y-15050428D01*
X7052857Y-15040905D01*
X7414762Y-15345667D02*
X7405238Y-15336143D01*
X7386190Y-15307571D01*
X7376667Y-15288524D01*
X7367143Y-15259952D01*
X7357619Y-15212333D01*
X7357619Y-15174238D01*
X7367143Y-15126619D01*
X7376667Y-15098048D01*
X7386190Y-15079000D01*
X7405238Y-15050428D01*
X7414762Y-15040905D01*
X7490952Y-15136143D02*
X7490952Y-15269476D01*
X7490952Y-15155190D02*
X7500476Y-15145667D01*
X7519524Y-15136143D01*
X7548095Y-15136143D01*
X7567143Y-15145667D01*
X7576667Y-15164714D01*
X7576667Y-15269476D01*
X7700476Y-15269476D02*
X7681428Y-15259952D01*
X7671905Y-15250428D01*
X7662381Y-15231381D01*
X7662381Y-15174238D01*
X7671905Y-15155190D01*
X7681428Y-15145667D01*
X7700476Y-15136143D01*
X7729048Y-15136143D01*
X7748095Y-15145667D01*
X7757619Y-15155190D01*
X7767143Y-15174238D01*
X7767143Y-15231381D01*
X7757619Y-15250428D01*
X7748095Y-15259952D01*
X7729048Y-15269476D01*
X7700476Y-15269476D01*
X7824286Y-15136143D02*
X7900476Y-15136143D01*
X7852857Y-15069476D02*
X7852857Y-15240905D01*
X7862381Y-15259952D01*
X7881428Y-15269476D01*
X7900476Y-15269476D01*
X8119524Y-15136143D02*
X8119524Y-15336143D01*
X8119524Y-15145667D02*
X8138571Y-15136143D01*
X8176667Y-15136143D01*
X8195714Y-15145667D01*
X8205238Y-15155190D01*
X8214762Y-15174238D01*
X8214762Y-15231381D01*
X8205238Y-15250428D01*
X8195714Y-15259952D01*
X8176667Y-15269476D01*
X8138571Y-15269476D01*
X8119524Y-15259952D01*
X8329048Y-15269476D02*
X8310000Y-15259952D01*
X8300476Y-15240905D01*
X8300476Y-15069476D01*
X8490952Y-15269476D02*
X8490952Y-15164714D01*
X8481429Y-15145667D01*
X8462381Y-15136143D01*
X8424286Y-15136143D01*
X8405238Y-15145667D01*
X8490952Y-15259952D02*
X8471905Y-15269476D01*
X8424286Y-15269476D01*
X8405238Y-15259952D01*
X8395714Y-15240905D01*
X8395714Y-15221857D01*
X8405238Y-15202809D01*
X8424286Y-15193286D01*
X8471905Y-15193286D01*
X8490952Y-15183762D01*
X8557619Y-15136143D02*
X8633810Y-15136143D01*
X8586190Y-15069476D02*
X8586190Y-15240905D01*
X8595714Y-15259952D01*
X8614762Y-15269476D01*
X8633810Y-15269476D01*
X8776667Y-15259952D02*
X8757619Y-15269476D01*
X8719524Y-15269476D01*
X8700476Y-15259952D01*
X8690952Y-15240905D01*
X8690952Y-15164714D01*
X8700476Y-15145667D01*
X8719524Y-15136143D01*
X8757619Y-15136143D01*
X8776667Y-15145667D01*
X8786190Y-15164714D01*
X8786190Y-15183762D01*
X8690952Y-15202809D01*
X8957619Y-15269476D02*
X8957619Y-15069476D01*
X8957619Y-15259952D02*
X8938571Y-15269476D01*
X8900476Y-15269476D01*
X8881429Y-15259952D01*
X8871905Y-15250428D01*
X8862381Y-15231381D01*
X8862381Y-15174238D01*
X8871905Y-15155190D01*
X8881429Y-15145667D01*
X8900476Y-15136143D01*
X8938571Y-15136143D01*
X8957619Y-15145667D01*
X9033810Y-15345667D02*
X9043333Y-15336143D01*
X9062381Y-15307571D01*
X9071905Y-15288524D01*
X9081429Y-15259952D01*
X9090952Y-15212333D01*
X9090952Y-15174238D01*
X9081429Y-15126619D01*
X9071905Y-15098048D01*
X9062381Y-15079000D01*
X9043333Y-15050428D01*
X9033810Y-15040905D01*
X1700000Y-15399000D02*
X1900000Y-15599000D01*
X1900000Y-15399000D02*
X1700000Y-15599000D01*
X1900000Y-15499000D02*
G75*
G03*
X1900000Y-15499000I-100000J0D01*
G01*
X2138571Y-15389476D02*
X2262381Y-15389476D01*
X2195714Y-15465667D01*
X2224286Y-15465667D01*
X2243333Y-15475190D01*
X2252857Y-15484714D01*
X2262381Y-15503762D01*
X2262381Y-15551381D01*
X2252857Y-15570428D01*
X2243333Y-15579952D01*
X2224286Y-15589476D01*
X2167143Y-15589476D01*
X2148095Y-15579952D01*
X2138571Y-15570428D01*
X2348095Y-15570428D02*
X2357619Y-15579952D01*
X2348095Y-15589476D01*
X2338571Y-15579952D01*
X2348095Y-15570428D01*
X2348095Y-15589476D01*
X2452857Y-15589476D02*
X2490952Y-15589476D01*
X2510000Y-15579952D01*
X2519524Y-15570428D01*
X2538571Y-15541857D01*
X2548095Y-15503762D01*
X2548095Y-15427571D01*
X2538571Y-15408524D01*
X2529048Y-15399000D01*
X2510000Y-15389476D01*
X2471905Y-15389476D01*
X2452857Y-15399000D01*
X2443333Y-15408524D01*
X2433810Y-15427571D01*
X2433810Y-15475190D01*
X2443333Y-15494238D01*
X2452857Y-15503762D01*
X2471905Y-15513286D01*
X2510000Y-15513286D01*
X2529048Y-15503762D01*
X2538571Y-15494238D01*
X2548095Y-15475190D01*
X2662381Y-15475190D02*
X2643333Y-15465667D01*
X2633810Y-15456143D01*
X2624286Y-15437095D01*
X2624286Y-15427571D01*
X2633810Y-15408524D01*
X2643333Y-15399000D01*
X2662381Y-15389476D01*
X2700476Y-15389476D01*
X2719524Y-15399000D01*
X2729048Y-15408524D01*
X2738571Y-15427571D01*
X2738571Y-15437095D01*
X2729048Y-15456143D01*
X2719524Y-15465667D01*
X2700476Y-15475190D01*
X2662381Y-15475190D01*
X2643333Y-15484714D01*
X2633810Y-15494238D01*
X2624286Y-15513286D01*
X2624286Y-15551381D01*
X2633810Y-15570428D01*
X2643333Y-15579952D01*
X2662381Y-15589476D01*
X2700476Y-15589476D01*
X2719524Y-15579952D01*
X2729048Y-15570428D01*
X2738571Y-15551381D01*
X2738571Y-15513286D01*
X2729048Y-15494238D01*
X2719524Y-15484714D01*
X2700476Y-15475190D01*
X2852857Y-15475190D02*
X2833809Y-15465667D01*
X2824286Y-15456143D01*
X2814762Y-15437095D01*
X2814762Y-15427571D01*
X2824286Y-15408524D01*
X2833809Y-15399000D01*
X2852857Y-15389476D01*
X2890952Y-15389476D01*
X2910000Y-15399000D01*
X2919524Y-15408524D01*
X2929048Y-15427571D01*
X2929048Y-15437095D01*
X2919524Y-15456143D01*
X2910000Y-15465667D01*
X2890952Y-15475190D01*
X2852857Y-15475190D01*
X2833809Y-15484714D01*
X2824286Y-15494238D01*
X2814762Y-15513286D01*
X2814762Y-15551381D01*
X2824286Y-15570428D01*
X2833809Y-15579952D01*
X2852857Y-15589476D01*
X2890952Y-15589476D01*
X2910000Y-15579952D01*
X2919524Y-15570428D01*
X2929048Y-15551381D01*
X2929048Y-15513286D01*
X2919524Y-15494238D01*
X2910000Y-15484714D01*
X2890952Y-15475190D01*
X3014762Y-15589476D02*
X3014762Y-15456143D01*
X3014762Y-15475190D02*
X3024286Y-15465667D01*
X3043333Y-15456143D01*
X3071905Y-15456143D01*
X3090952Y-15465667D01*
X3100476Y-15484714D01*
X3100476Y-15589476D01*
X3100476Y-15484714D02*
X3110000Y-15465667D01*
X3129048Y-15456143D01*
X3157619Y-15456143D01*
X3176667Y-15465667D01*
X3186190Y-15484714D01*
X3186190Y-15589476D01*
X3281428Y-15589476D02*
X3281428Y-15456143D01*
X3281428Y-15475190D02*
X3290952Y-15465667D01*
X3310000Y-15456143D01*
X3338571Y-15456143D01*
X3357619Y-15465667D01*
X3367143Y-15484714D01*
X3367143Y-15589476D01*
X3367143Y-15484714D02*
X3376667Y-15465667D01*
X3395714Y-15456143D01*
X3424286Y-15456143D01*
X3443333Y-15465667D01*
X3452857Y-15484714D01*
X3452857Y-15589476D01*
X3843333Y-15379952D02*
X3671905Y-15637095D01*
X4100476Y-15389476D02*
X4119524Y-15389476D01*
X4138571Y-15399000D01*
X4148095Y-15408524D01*
X4157619Y-15427571D01*
X4167143Y-15465667D01*
X4167143Y-15513286D01*
X4157619Y-15551381D01*
X4148095Y-15570428D01*
X4138571Y-15579952D01*
X4119524Y-15589476D01*
X4100476Y-15589476D01*
X4081428Y-15579952D01*
X4071905Y-15570428D01*
X4062381Y-15551381D01*
X4052857Y-15513286D01*
X4052857Y-15465667D01*
X4062381Y-15427571D01*
X4071905Y-15408524D01*
X4081428Y-15399000D01*
X4100476Y-15389476D01*
X4252857Y-15570428D02*
X4262381Y-15579952D01*
X4252857Y-15589476D01*
X4243333Y-15579952D01*
X4252857Y-15570428D01*
X4252857Y-15589476D01*
X4452857Y-15589476D02*
X4338571Y-15589476D01*
X4395714Y-15589476D02*
X4395714Y-15389476D01*
X4376667Y-15418048D01*
X4357619Y-15437095D01*
X4338571Y-15446619D01*
X4633810Y-15389476D02*
X4538571Y-15389476D01*
X4529048Y-15484714D01*
X4538571Y-15475190D01*
X4557619Y-15465667D01*
X4605238Y-15465667D01*
X4624286Y-15475190D01*
X4633810Y-15484714D01*
X4643333Y-15503762D01*
X4643333Y-15551381D01*
X4633810Y-15570428D01*
X4624286Y-15579952D01*
X4605238Y-15589476D01*
X4557619Y-15589476D01*
X4538571Y-15579952D01*
X4529048Y-15570428D01*
X4710000Y-15389476D02*
X4843333Y-15389476D01*
X4757619Y-15589476D01*
X4957619Y-15389476D02*
X4976667Y-15389476D01*
X4995714Y-15399000D01*
X5005238Y-15408524D01*
X5014762Y-15427571D01*
X5024286Y-15465667D01*
X5024286Y-15513286D01*
X5014762Y-15551381D01*
X5005238Y-15570428D01*
X4995714Y-15579952D01*
X4976667Y-15589476D01*
X4957619Y-15589476D01*
X4938571Y-15579952D01*
X4929048Y-15570428D01*
X4919524Y-15551381D01*
X4910000Y-15513286D01*
X4910000Y-15465667D01*
X4919524Y-15427571D01*
X4929048Y-15408524D01*
X4938571Y-15399000D01*
X4957619Y-15389476D01*
X5100476Y-15389476D02*
X5100476Y-15427571D01*
X5176667Y-15389476D02*
X5176667Y-15427571D01*
X5471905Y-15665667D02*
X5462381Y-15656143D01*
X5443333Y-15627571D01*
X5433810Y-15608524D01*
X5424286Y-15579952D01*
X5414762Y-15532333D01*
X5414762Y-15494238D01*
X5424286Y-15446619D01*
X5433810Y-15418048D01*
X5443333Y-15399000D01*
X5462381Y-15370428D01*
X5471905Y-15360905D01*
X5576667Y-15475190D02*
X5557619Y-15465667D01*
X5548095Y-15456143D01*
X5538571Y-15437095D01*
X5538571Y-15427571D01*
X5548095Y-15408524D01*
X5557619Y-15399000D01*
X5576667Y-15389476D01*
X5614762Y-15389476D01*
X5633809Y-15399000D01*
X5643333Y-15408524D01*
X5652857Y-15427571D01*
X5652857Y-15437095D01*
X5643333Y-15456143D01*
X5633809Y-15465667D01*
X5614762Y-15475190D01*
X5576667Y-15475190D01*
X5557619Y-15484714D01*
X5548095Y-15494238D01*
X5538571Y-15513286D01*
X5538571Y-15551381D01*
X5548095Y-15570428D01*
X5557619Y-15579952D01*
X5576667Y-15589476D01*
X5614762Y-15589476D01*
X5633809Y-15579952D01*
X5643333Y-15570428D01*
X5652857Y-15551381D01*
X5652857Y-15513286D01*
X5643333Y-15494238D01*
X5633809Y-15484714D01*
X5614762Y-15475190D01*
X5890952Y-15589476D02*
X5890952Y-15389476D01*
X5976667Y-15589476D02*
X5976667Y-15484714D01*
X5967143Y-15465667D01*
X5948095Y-15456143D01*
X5919524Y-15456143D01*
X5900476Y-15465667D01*
X5890952Y-15475190D01*
X6100476Y-15589476D02*
X6081428Y-15579952D01*
X6071905Y-15570428D01*
X6062381Y-15551381D01*
X6062381Y-15494238D01*
X6071905Y-15475190D01*
X6081428Y-15465667D01*
X6100476Y-15456143D01*
X6129048Y-15456143D01*
X6148095Y-15465667D01*
X6157619Y-15475190D01*
X6167143Y-15494238D01*
X6167143Y-15551381D01*
X6157619Y-15570428D01*
X6148095Y-15579952D01*
X6129048Y-15589476D01*
X6100476Y-15589476D01*
X6281428Y-15589476D02*
X6262381Y-15579952D01*
X6252857Y-15560905D01*
X6252857Y-15389476D01*
X6433809Y-15579952D02*
X6414762Y-15589476D01*
X6376667Y-15589476D01*
X6357619Y-15579952D01*
X6348095Y-15560905D01*
X6348095Y-15484714D01*
X6357619Y-15465667D01*
X6376667Y-15456143D01*
X6414762Y-15456143D01*
X6433809Y-15465667D01*
X6443333Y-15484714D01*
X6443333Y-15503762D01*
X6348095Y-15522809D01*
X6519524Y-15579952D02*
X6538571Y-15589476D01*
X6576667Y-15589476D01*
X6595714Y-15579952D01*
X6605238Y-15560905D01*
X6605238Y-15551381D01*
X6595714Y-15532333D01*
X6576667Y-15522809D01*
X6548095Y-15522809D01*
X6529048Y-15513286D01*
X6519524Y-15494238D01*
X6519524Y-15484714D01*
X6529048Y-15465667D01*
X6548095Y-15456143D01*
X6576667Y-15456143D01*
X6595714Y-15465667D01*
X6671905Y-15665667D02*
X6681428Y-15656143D01*
X6700476Y-15627571D01*
X6710000Y-15608524D01*
X6719524Y-15579952D01*
X6729048Y-15532333D01*
X6729048Y-15494238D01*
X6719524Y-15446619D01*
X6710000Y-15418048D01*
X6700476Y-15399000D01*
X6681428Y-15370428D01*
X6671905Y-15360905D01*
X7033809Y-15665667D02*
X7024286Y-15656143D01*
X7005238Y-15627571D01*
X6995714Y-15608524D01*
X6986190Y-15579952D01*
X6976667Y-15532333D01*
X6976667Y-15494238D01*
X6986190Y-15446619D01*
X6995714Y-15418048D01*
X7005238Y-15399000D01*
X7024286Y-15370428D01*
X7033809Y-15360905D01*
X7110000Y-15456143D02*
X7110000Y-15589476D01*
X7110000Y-15475190D02*
X7119524Y-15465667D01*
X7138571Y-15456143D01*
X7167143Y-15456143D01*
X7186190Y-15465667D01*
X7195714Y-15484714D01*
X7195714Y-15589476D01*
X7319524Y-15589476D02*
X7300476Y-15579952D01*
X7290952Y-15570428D01*
X7281428Y-15551381D01*
X7281428Y-15494238D01*
X7290952Y-15475190D01*
X7300476Y-15465667D01*
X7319524Y-15456143D01*
X7348095Y-15456143D01*
X7367143Y-15465667D01*
X7376667Y-15475190D01*
X7386190Y-15494238D01*
X7386190Y-15551381D01*
X7376667Y-15570428D01*
X7367143Y-15579952D01*
X7348095Y-15589476D01*
X7319524Y-15589476D01*
X7443333Y-15456143D02*
X7519524Y-15456143D01*
X7471905Y-15389476D02*
X7471905Y-15560905D01*
X7481428Y-15579952D01*
X7500476Y-15589476D01*
X7519524Y-15589476D01*
X7738571Y-15456143D02*
X7738571Y-15656143D01*
X7738571Y-15465667D02*
X7757619Y-15456143D01*
X7795714Y-15456143D01*
X7814762Y-15465667D01*
X7824286Y-15475190D01*
X7833809Y-15494238D01*
X7833809Y-15551381D01*
X7824286Y-15570428D01*
X7814762Y-15579952D01*
X7795714Y-15589476D01*
X7757619Y-15589476D01*
X7738571Y-15579952D01*
X7948095Y-15589476D02*
X7929048Y-15579952D01*
X7919524Y-15560905D01*
X7919524Y-15389476D01*
X8110000Y-15589476D02*
X8110000Y-15484714D01*
X8100476Y-15465667D01*
X8081428Y-15456143D01*
X8043333Y-15456143D01*
X8024286Y-15465667D01*
X8110000Y-15579952D02*
X8090952Y-15589476D01*
X8043333Y-15589476D01*
X8024286Y-15579952D01*
X8014762Y-15560905D01*
X8014762Y-15541857D01*
X8024286Y-15522809D01*
X8043333Y-15513286D01*
X8090952Y-15513286D01*
X8110000Y-15503762D01*
X8176667Y-15456143D02*
X8252857Y-15456143D01*
X8205238Y-15389476D02*
X8205238Y-15560905D01*
X8214762Y-15579952D01*
X8233809Y-15589476D01*
X8252857Y-15589476D01*
X8395714Y-15579952D02*
X8376667Y-15589476D01*
X8338571Y-15589476D01*
X8319524Y-15579952D01*
X8310000Y-15560905D01*
X8310000Y-15484714D01*
X8319524Y-15465667D01*
X8338571Y-15456143D01*
X8376667Y-15456143D01*
X8395714Y-15465667D01*
X8405238Y-15484714D01*
X8405238Y-15503762D01*
X8310000Y-15522809D01*
X8576667Y-15589476D02*
X8576667Y-15389476D01*
X8576667Y-15579952D02*
X8557619Y-15589476D01*
X8519524Y-15589476D01*
X8500476Y-15579952D01*
X8490952Y-15570428D01*
X8481429Y-15551381D01*
X8481429Y-15494238D01*
X8490952Y-15475190D01*
X8500476Y-15465667D01*
X8519524Y-15456143D01*
X8557619Y-15456143D01*
X8576667Y-15465667D01*
X8652857Y-15665667D02*
X8662381Y-15656143D01*
X8681429Y-15627571D01*
X8690952Y-15608524D01*
X8700476Y-15579952D01*
X8710000Y-15532333D01*
X8710000Y-15494238D01*
X8700476Y-15446619D01*
X8690952Y-15418048D01*
X8681429Y-15399000D01*
X8662381Y-15370428D01*
X8652857Y-15360905D01*
X1700000Y-15719000D02*
X1900000Y-15919000D01*
X1900000Y-15719000D02*
X1700000Y-15919000D01*
X1800000Y-15719000D02*
X1800000Y-15919000D01*
X1700000Y-15819000D02*
X1900000Y-15819000D01*
X2243333Y-15776143D02*
X2243333Y-15909476D01*
X2195714Y-15699952D02*
X2148095Y-15842809D01*
X2271905Y-15842809D01*
X2348095Y-15890428D02*
X2357619Y-15899952D01*
X2348095Y-15909476D01*
X2338571Y-15899952D01*
X2348095Y-15890428D01*
X2348095Y-15909476D01*
X2481429Y-15709476D02*
X2500476Y-15709476D01*
X2519524Y-15719000D01*
X2529048Y-15728524D01*
X2538571Y-15747571D01*
X2548095Y-15785667D01*
X2548095Y-15833286D01*
X2538571Y-15871381D01*
X2529048Y-15890428D01*
X2519524Y-15899952D01*
X2500476Y-15909476D01*
X2481429Y-15909476D01*
X2462381Y-15899952D01*
X2452857Y-15890428D01*
X2443333Y-15871381D01*
X2433810Y-15833286D01*
X2433810Y-15785667D01*
X2443333Y-15747571D01*
X2452857Y-15728524D01*
X2462381Y-15719000D01*
X2481429Y-15709476D01*
X2671905Y-15709476D02*
X2690952Y-15709476D01*
X2710000Y-15719000D01*
X2719524Y-15728524D01*
X2729048Y-15747571D01*
X2738571Y-15785667D01*
X2738571Y-15833286D01*
X2729048Y-15871381D01*
X2719524Y-15890428D01*
X2710000Y-15899952D01*
X2690952Y-15909476D01*
X2671905Y-15909476D01*
X2652857Y-15899952D01*
X2643333Y-15890428D01*
X2633810Y-15871381D01*
X2624286Y-15833286D01*
X2624286Y-15785667D01*
X2633810Y-15747571D01*
X2643333Y-15728524D01*
X2652857Y-15719000D01*
X2671905Y-15709476D01*
X2862381Y-15709476D02*
X2881428Y-15709476D01*
X2900476Y-15719000D01*
X2910000Y-15728524D01*
X2919524Y-15747571D01*
X2929048Y-15785667D01*
X2929048Y-15833286D01*
X2919524Y-15871381D01*
X2910000Y-15890428D01*
X2900476Y-15899952D01*
X2881428Y-15909476D01*
X2862381Y-15909476D01*
X2843333Y-15899952D01*
X2833809Y-15890428D01*
X2824286Y-15871381D01*
X2814762Y-15833286D01*
X2814762Y-15785667D01*
X2824286Y-15747571D01*
X2833809Y-15728524D01*
X2843333Y-15719000D01*
X2862381Y-15709476D01*
X3014762Y-15909476D02*
X3014762Y-15776143D01*
X3014762Y-15795190D02*
X3024286Y-15785667D01*
X3043333Y-15776143D01*
X3071905Y-15776143D01*
X3090952Y-15785667D01*
X3100476Y-15804714D01*
X3100476Y-15909476D01*
X3100476Y-15804714D02*
X3110000Y-15785667D01*
X3129048Y-15776143D01*
X3157619Y-15776143D01*
X3176667Y-15785667D01*
X3186190Y-15804714D01*
X3186190Y-15909476D01*
X3281428Y-15909476D02*
X3281428Y-15776143D01*
X3281428Y-15795190D02*
X3290952Y-15785667D01*
X3310000Y-15776143D01*
X3338571Y-15776143D01*
X3357619Y-15785667D01*
X3367143Y-15804714D01*
X3367143Y-15909476D01*
X3367143Y-15804714D02*
X3376667Y-15785667D01*
X3395714Y-15776143D01*
X3424286Y-15776143D01*
X3443333Y-15785667D01*
X3452857Y-15804714D01*
X3452857Y-15909476D01*
X3843333Y-15699952D02*
X3671905Y-15957095D01*
X4100476Y-15709476D02*
X4119524Y-15709476D01*
X4138571Y-15719000D01*
X4148095Y-15728524D01*
X4157619Y-15747571D01*
X4167143Y-15785667D01*
X4167143Y-15833286D01*
X4157619Y-15871381D01*
X4148095Y-15890428D01*
X4138571Y-15899952D01*
X4119524Y-15909476D01*
X4100476Y-15909476D01*
X4081428Y-15899952D01*
X4071905Y-15890428D01*
X4062381Y-15871381D01*
X4052857Y-15833286D01*
X4052857Y-15785667D01*
X4062381Y-15747571D01*
X4071905Y-15728524D01*
X4081428Y-15719000D01*
X4100476Y-15709476D01*
X4252857Y-15890428D02*
X4262381Y-15899952D01*
X4252857Y-15909476D01*
X4243333Y-15899952D01*
X4252857Y-15890428D01*
X4252857Y-15909476D01*
X4452857Y-15909476D02*
X4338571Y-15909476D01*
X4395714Y-15909476D02*
X4395714Y-15709476D01*
X4376667Y-15738048D01*
X4357619Y-15757095D01*
X4338571Y-15766619D01*
X4633810Y-15709476D02*
X4538571Y-15709476D01*
X4529048Y-15804714D01*
X4538571Y-15795190D01*
X4557619Y-15785667D01*
X4605238Y-15785667D01*
X4624286Y-15795190D01*
X4633810Y-15804714D01*
X4643333Y-15823762D01*
X4643333Y-15871381D01*
X4633810Y-15890428D01*
X4624286Y-15899952D01*
X4605238Y-15909476D01*
X4557619Y-15909476D01*
X4538571Y-15899952D01*
X4529048Y-15890428D01*
X4710000Y-15709476D02*
X4843333Y-15709476D01*
X4757619Y-15909476D01*
X5014762Y-15709476D02*
X4919524Y-15709476D01*
X4910000Y-15804714D01*
X4919524Y-15795190D01*
X4938571Y-15785667D01*
X4986190Y-15785667D01*
X5005238Y-15795190D01*
X5014762Y-15804714D01*
X5024286Y-15823762D01*
X5024286Y-15871381D01*
X5014762Y-15890428D01*
X5005238Y-15899952D01*
X4986190Y-15909476D01*
X4938571Y-15909476D01*
X4919524Y-15899952D01*
X4910000Y-15890428D01*
X5100476Y-15709476D02*
X5100476Y-15747571D01*
X5176667Y-15709476D02*
X5176667Y-15747571D01*
X5471905Y-15985667D02*
X5462381Y-15976143D01*
X5443333Y-15947571D01*
X5433810Y-15928524D01*
X5424286Y-15899952D01*
X5414762Y-15852333D01*
X5414762Y-15814238D01*
X5424286Y-15766619D01*
X5433810Y-15738048D01*
X5443333Y-15719000D01*
X5462381Y-15690428D01*
X5471905Y-15680905D01*
X5529048Y-15709476D02*
X5662381Y-15709476D01*
X5576667Y-15909476D01*
X5833809Y-15709476D02*
X5738571Y-15709476D01*
X5729048Y-15804714D01*
X5738571Y-15795190D01*
X5757619Y-15785667D01*
X5805238Y-15785667D01*
X5824286Y-15795190D01*
X5833809Y-15804714D01*
X5843333Y-15823762D01*
X5843333Y-15871381D01*
X5833809Y-15890428D01*
X5824286Y-15899952D01*
X5805238Y-15909476D01*
X5757619Y-15909476D01*
X5738571Y-15899952D01*
X5729048Y-15890428D01*
X6081428Y-15909476D02*
X6081428Y-15709476D01*
X6167143Y-15909476D02*
X6167143Y-15804714D01*
X6157619Y-15785667D01*
X6138571Y-15776143D01*
X6110000Y-15776143D01*
X6090952Y-15785667D01*
X6081428Y-15795190D01*
X6290952Y-15909476D02*
X6271905Y-15899952D01*
X6262381Y-15890428D01*
X6252857Y-15871381D01*
X6252857Y-15814238D01*
X6262381Y-15795190D01*
X6271905Y-15785667D01*
X6290952Y-15776143D01*
X6319524Y-15776143D01*
X6338571Y-15785667D01*
X6348095Y-15795190D01*
X6357619Y-15814238D01*
X6357619Y-15871381D01*
X6348095Y-15890428D01*
X6338571Y-15899952D01*
X6319524Y-15909476D01*
X6290952Y-15909476D01*
X6471905Y-15909476D02*
X6452857Y-15899952D01*
X6443333Y-15880905D01*
X6443333Y-15709476D01*
X6624286Y-15899952D02*
X6605238Y-15909476D01*
X6567143Y-15909476D01*
X6548095Y-15899952D01*
X6538571Y-15880905D01*
X6538571Y-15804714D01*
X6548095Y-15785667D01*
X6567143Y-15776143D01*
X6605238Y-15776143D01*
X6624286Y-15785667D01*
X6633809Y-15804714D01*
X6633809Y-15823762D01*
X6538571Y-15842809D01*
X6710000Y-15899952D02*
X6729048Y-15909476D01*
X6767143Y-15909476D01*
X6786190Y-15899952D01*
X6795714Y-15880905D01*
X6795714Y-15871381D01*
X6786190Y-15852333D01*
X6767143Y-15842809D01*
X6738571Y-15842809D01*
X6719524Y-15833286D01*
X6710000Y-15814238D01*
X6710000Y-15804714D01*
X6719524Y-15785667D01*
X6738571Y-15776143D01*
X6767143Y-15776143D01*
X6786190Y-15785667D01*
X6862381Y-15985667D02*
X6871905Y-15976143D01*
X6890952Y-15947571D01*
X6900476Y-15928524D01*
X6910000Y-15899952D01*
X6919524Y-15852333D01*
X6919524Y-15814238D01*
X6910000Y-15766619D01*
X6900476Y-15738048D01*
X6890952Y-15719000D01*
X6871905Y-15690428D01*
X6862381Y-15680905D01*
X7224286Y-15985667D02*
X7214762Y-15976143D01*
X7195714Y-15947571D01*
X7186190Y-15928524D01*
X7176667Y-15899952D01*
X7167143Y-15852333D01*
X7167143Y-15814238D01*
X7176667Y-15766619D01*
X7186190Y-15738048D01*
X7195714Y-15719000D01*
X7214762Y-15690428D01*
X7224286Y-15680905D01*
X7300476Y-15776143D02*
X7300476Y-15909476D01*
X7300476Y-15795190D02*
X7310000Y-15785667D01*
X7329048Y-15776143D01*
X7357619Y-15776143D01*
X7376667Y-15785667D01*
X7386190Y-15804714D01*
X7386190Y-15909476D01*
X7510000Y-15909476D02*
X7490952Y-15899952D01*
X7481428Y-15890428D01*
X7471905Y-15871381D01*
X7471905Y-15814238D01*
X7481428Y-15795190D01*
X7490952Y-15785667D01*
X7510000Y-15776143D01*
X7538571Y-15776143D01*
X7557619Y-15785667D01*
X7567143Y-15795190D01*
X7576667Y-15814238D01*
X7576667Y-15871381D01*
X7567143Y-15890428D01*
X7557619Y-15899952D01*
X7538571Y-15909476D01*
X7510000Y-15909476D01*
X7633809Y-15776143D02*
X7710000Y-15776143D01*
X7662381Y-15709476D02*
X7662381Y-15880905D01*
X7671905Y-15899952D01*
X7690952Y-15909476D01*
X7710000Y-15909476D01*
X7929048Y-15776143D02*
X7929048Y-15976143D01*
X7929048Y-15785667D02*
X7948095Y-15776143D01*
X7986190Y-15776143D01*
X8005238Y-15785667D01*
X8014762Y-15795190D01*
X8024286Y-15814238D01*
X8024286Y-15871381D01*
X8014762Y-15890428D01*
X8005238Y-15899952D01*
X7986190Y-15909476D01*
X7948095Y-15909476D01*
X7929048Y-15899952D01*
X8138571Y-15909476D02*
X8119524Y-15899952D01*
X8110000Y-15880905D01*
X8110000Y-15709476D01*
X8300476Y-15909476D02*
X8300476Y-15804714D01*
X8290952Y-15785667D01*
X8271905Y-15776143D01*
X8233809Y-15776143D01*
X8214762Y-15785667D01*
X8300476Y-15899952D02*
X8281428Y-15909476D01*
X8233809Y-15909476D01*
X8214762Y-15899952D01*
X8205238Y-15880905D01*
X8205238Y-15861857D01*
X8214762Y-15842809D01*
X8233809Y-15833286D01*
X8281428Y-15833286D01*
X8300476Y-15823762D01*
X8367143Y-15776143D02*
X8443333Y-15776143D01*
X8395714Y-15709476D02*
X8395714Y-15880905D01*
X8405238Y-15899952D01*
X8424286Y-15909476D01*
X8443333Y-15909476D01*
X8586190Y-15899952D02*
X8567143Y-15909476D01*
X8529048Y-15909476D01*
X8510000Y-15899952D01*
X8500476Y-15880905D01*
X8500476Y-15804714D01*
X8510000Y-15785667D01*
X8529048Y-15776143D01*
X8567143Y-15776143D01*
X8586190Y-15785667D01*
X8595714Y-15804714D01*
X8595714Y-15823762D01*
X8500476Y-15842809D01*
X8767143Y-15909476D02*
X8767143Y-15709476D01*
X8767143Y-15899952D02*
X8748095Y-15909476D01*
X8710000Y-15909476D01*
X8690952Y-15899952D01*
X8681429Y-15890428D01*
X8671905Y-15871381D01*
X8671905Y-15814238D01*
X8681429Y-15795190D01*
X8690952Y-15785667D01*
X8710000Y-15776143D01*
X8748095Y-15776143D01*
X8767143Y-15785667D01*
X8843333Y-15985667D02*
X8852857Y-15976143D01*
X8871905Y-15947571D01*
X8881429Y-15928524D01*
X8890952Y-15899952D01*
X8900476Y-15852333D01*
X8900476Y-15814238D01*
X8890952Y-15766619D01*
X8881429Y-15738048D01*
X8871905Y-15719000D01*
X8852857Y-15690428D01*
X8843333Y-15680905D01*
M02*
