%TF.GenerationSoftware,KiCad,Pcbnew,(6.0.5-0)*%
%TF.CreationDate,2022-06-28T22:26:51+09:00*%
%TF.ProjectId,key-ripper,6b65792d-7269-4707-9065-722e6b696361,rev?*%
%TF.SameCoordinates,Original*%
%TF.FileFunction,Soldermask,Top*%
%TF.FilePolarity,Negative*%
%FSLAX46Y46*%
G04 Gerber Fmt 4.6, Leading zero omitted, Abs format (unit mm)*
G04 Created by KiCad (PCBNEW (6.0.5-0)) date 2022-06-28 22:26:51*
%MOMM*%
%LPD*%
G01*
G04 APERTURE LIST*
%ADD10C,1.750000*%
%ADD11C,3.050000*%
%ADD12C,4.000000*%
%ADD13C,2.200000*%
%ADD14C,3.048000*%
%ADD15C,3.987800*%
%ADD16R,1.700000X1.700000*%
%ADD17O,1.700000X1.700000*%
%ADD18C,0.750013*%
%ADD19O,1.200000X1.800000*%
%ADD20O,1.200000X2.000000*%
G04 APERTURE END LIST*
D10*
%TO.C,SW68*%
X13970000Y-76200000D03*
D11*
X21590000Y-71120000D03*
X15240000Y-73660000D03*
D10*
X24130000Y-76200000D03*
D12*
X19050000Y-76200000D03*
%TD*%
D10*
%TO.C,SW71*%
X136048750Y-76200000D03*
D12*
X130968750Y-76200000D03*
D11*
X127158750Y-73660000D03*
X133508750Y-71120000D03*
D10*
X125888750Y-76200000D03*
%TD*%
%TO.C,SW19*%
X100330000Y0D03*
D11*
X97790000Y5080000D03*
D12*
X95250000Y0D03*
D10*
X90170000Y0D03*
D11*
X91440000Y2540000D03*
%TD*%
D12*
%TO.C,SW61*%
X138112500Y-57150000D03*
D10*
X133032500Y-57150000D03*
D11*
X134302500Y-54610000D03*
D10*
X143192500Y-57150000D03*
D11*
X140652500Y-52070000D03*
%TD*%
D10*
%TO.C,SW73*%
X223520000Y-76200000D03*
D12*
X228600000Y-76200000D03*
D10*
X233680000Y-76200000D03*
D11*
X231140000Y-71120000D03*
X224790000Y-73660000D03*
%TD*%
D13*
%TO.C,H5*%
X16668750Y14287500D03*
%TD*%
D12*
%TO.C,SW4*%
X73818750Y19050000D03*
D10*
X68738750Y19050000D03*
D11*
X70008750Y21590000D03*
D10*
X78898750Y19050000D03*
D11*
X76358750Y24130000D03*
%TD*%
D14*
%TO.C,H1*%
X23844250Y-50165000D03*
D15*
X-31750Y-65375000D03*
D14*
X-31750Y-50165000D03*
D15*
X23844250Y-65375000D03*
%TD*%
D11*
%TO.C,SW16*%
X40640000Y5080000D03*
D10*
X33020000Y0D03*
D12*
X38100000Y0D03*
D10*
X43180000Y0D03*
D11*
X34290000Y2540000D03*
%TD*%
D14*
%TO.C,H3*%
X242855750Y-31115000D03*
D15*
X242855750Y-46325000D03*
X266731750Y-46325000D03*
D14*
X266731750Y-31115000D03*
%TD*%
D11*
%TO.C,SW74*%
X250190000Y-71120000D03*
D10*
X242570000Y-76200000D03*
X252730000Y-76200000D03*
D11*
X243840000Y-73660000D03*
D12*
X247650000Y-76200000D03*
%TD*%
D10*
%TO.C,SW6*%
X126523750Y19050000D03*
D12*
X121443750Y19050000D03*
D11*
X117633750Y21590000D03*
D10*
X116363750Y19050000D03*
D11*
X123983750Y24130000D03*
%TD*%
D13*
%TO.C,H15*%
X-7143750Y-19050000D03*
%TD*%
D10*
%TO.C,SW64*%
X190182500Y-57150000D03*
D12*
X195262500Y-57150000D03*
D11*
X197802500Y-52070000D03*
X191452500Y-54610000D03*
D10*
X200342500Y-57150000D03*
%TD*%
%TO.C,SW32*%
X90805000Y-19050000D03*
X80645000Y-19050000D03*
D11*
X88265000Y-13970000D03*
X81915000Y-16510000D03*
D12*
X85725000Y-19050000D03*
%TD*%
%TO.C,SW65*%
X214312500Y-57150000D03*
D11*
X210502500Y-54610000D03*
D10*
X219392500Y-57150000D03*
D11*
X216852500Y-52070000D03*
D10*
X209232500Y-57150000D03*
%TD*%
%TO.C,SW31*%
X71755000Y-19050000D03*
D12*
X66675000Y-19050000D03*
D11*
X69215000Y-13970000D03*
X62865000Y-16510000D03*
D10*
X61595000Y-19050000D03*
%TD*%
%TO.C,SW42*%
X2063750Y-38100000D03*
D11*
X9683750Y-33020000D03*
D12*
X7143750Y-38100000D03*
D10*
X12223750Y-38100000D03*
D11*
X3333750Y-35560000D03*
%TD*%
D12*
%TO.C,SW27*%
X257175000Y0D03*
D11*
X253365000Y2540000D03*
D10*
X252095000Y0D03*
X262255000Y0D03*
D11*
X259715000Y5080000D03*
%TD*%
D13*
%TO.C,H7*%
X9525000Y-76200000D03*
%TD*%
D11*
%TO.C,SW34*%
X120015000Y-16510000D03*
D10*
X118745000Y-19050000D03*
D11*
X126365000Y-13970000D03*
D12*
X123825000Y-19050000D03*
D10*
X128905000Y-19050000D03*
%TD*%
%TO.C,SW40*%
X233045000Y-19050000D03*
X243205000Y-19050000D03*
D11*
X240665000Y-13970000D03*
D12*
X238125000Y-19050000D03*
D11*
X234315000Y-16510000D03*
%TD*%
D10*
%TO.C,SW18*%
X71120000Y0D03*
D11*
X78740000Y5080000D03*
X72390000Y2540000D03*
D12*
X76200000Y0D03*
D10*
X81280000Y0D03*
%TD*%
%TO.C,SW14*%
X-5080000Y0D03*
D12*
X0Y0D03*
D10*
X5080000Y0D03*
D11*
X2540000Y5080000D03*
X-3810000Y2540000D03*
%TD*%
%TO.C,SW58*%
X83502500Y-52070000D03*
D10*
X86042500Y-57150000D03*
X75882500Y-57150000D03*
D12*
X80962500Y-57150000D03*
D11*
X77152500Y-54610000D03*
%TD*%
%TO.C,SW11*%
X224790000Y21590000D03*
D12*
X228600000Y19050000D03*
D10*
X223520000Y19050000D03*
X233680000Y19050000D03*
D11*
X231140000Y24130000D03*
%TD*%
D10*
%TO.C,SW28*%
X9842500Y-19050000D03*
X-317500Y-19050000D03*
D11*
X952500Y-16510000D03*
X7302500Y-13970000D03*
D12*
X4762500Y-19050000D03*
%TD*%
D13*
%TO.C,H11*%
X190500000Y-23812500D03*
%TD*%
D11*
%TO.C,SW63*%
X178752500Y-52070000D03*
D10*
X171132500Y-57150000D03*
X181292500Y-57150000D03*
D12*
X176212500Y-57150000D03*
D11*
X172402500Y-54610000D03*
%TD*%
D15*
%TO.C,H2*%
X180968750Y-67975000D03*
X80968750Y-67975000D03*
D14*
X80968750Y-83185000D03*
X180968750Y-83185000D03*
%TD*%
D13*
%TO.C,H6*%
X107156250Y-76200000D03*
%TD*%
%TO.C,H14*%
X195262500Y19050000D03*
%TD*%
D11*
%TO.C,SW72*%
X204946250Y-71120000D03*
D12*
X202406250Y-76200000D03*
D11*
X198596250Y-73660000D03*
D10*
X197326250Y-76200000D03*
X207486250Y-76200000D03*
%TD*%
%TO.C,SW2*%
X40798750Y19050000D03*
D11*
X31908750Y21590000D03*
D10*
X30638750Y19050000D03*
D12*
X35718750Y19050000D03*
D11*
X38258750Y24130000D03*
%TD*%
D10*
%TO.C,SW52*%
X199707500Y-38100000D03*
D12*
X204787500Y-38100000D03*
D11*
X200977500Y-35560000D03*
X207327500Y-33020000D03*
D10*
X209867500Y-38100000D03*
%TD*%
D11*
%TO.C,SW39*%
X221615000Y-13970000D03*
D10*
X224155000Y-19050000D03*
X213995000Y-19050000D03*
D11*
X215265000Y-16510000D03*
D12*
X219075000Y-19050000D03*
%TD*%
D10*
%TO.C,SW29*%
X23495000Y-19050000D03*
D11*
X31115000Y-13970000D03*
X24765000Y-16510000D03*
D12*
X28575000Y-19050000D03*
D10*
X33655000Y-19050000D03*
%TD*%
%TO.C,SW25*%
X214630000Y0D03*
D12*
X209550000Y0D03*
D11*
X205740000Y2540000D03*
D10*
X204470000Y0D03*
D11*
X212090000Y5080000D03*
%TD*%
%TO.C,SW3*%
X50958750Y21590000D03*
D10*
X59848750Y19050000D03*
D11*
X57308750Y24130000D03*
D12*
X54768750Y19050000D03*
D10*
X49688750Y19050000D03*
%TD*%
D13*
%TO.C,H12*%
X76200000Y-23812500D03*
%TD*%
D10*
%TO.C,SW13*%
X261620000Y19050000D03*
D12*
X266700000Y19050000D03*
D10*
X271780000Y19050000D03*
D11*
X262890000Y21590000D03*
X269240000Y24130000D03*
%TD*%
D13*
%TO.C,H8*%
X107156250Y19050000D03*
%TD*%
D10*
%TO.C,SW49*%
X152717500Y-38100000D03*
D11*
X143827500Y-35560000D03*
D10*
X142557500Y-38100000D03*
D11*
X150177500Y-33020000D03*
D12*
X147637500Y-38100000D03*
%TD*%
D11*
%TO.C,SW15*%
X15240000Y2540000D03*
D12*
X19050000Y0D03*
D11*
X21590000Y5080000D03*
D10*
X13970000Y0D03*
X24130000Y0D03*
%TD*%
%TO.C,SW12*%
X242570000Y19050000D03*
D11*
X250190000Y24130000D03*
D12*
X247650000Y19050000D03*
D11*
X243840000Y21590000D03*
D10*
X252730000Y19050000D03*
%TD*%
D11*
%TO.C,SW67*%
X-3810000Y-73660000D03*
D10*
X5080000Y-76200000D03*
D12*
X0Y-76200000D03*
D11*
X2540000Y-71120000D03*
D10*
X-5080000Y-76200000D03*
%TD*%
%TO.C,SW57*%
X56832500Y-57150000D03*
X66992500Y-57150000D03*
D11*
X58102500Y-54610000D03*
X64452500Y-52070000D03*
D12*
X61912500Y-57150000D03*
%TD*%
D11*
%TO.C,SW8*%
X158115000Y21590000D03*
D10*
X167005000Y19050000D03*
D11*
X164465000Y24130000D03*
D10*
X156845000Y19050000D03*
D12*
X161925000Y19050000D03*
%TD*%
D10*
%TO.C,SW5*%
X97948750Y19050000D03*
D11*
X95408750Y24130000D03*
D12*
X92868750Y19050000D03*
D10*
X87788750Y19050000D03*
D11*
X89058750Y21590000D03*
%TD*%
%TO.C,SW41*%
X264477500Y-13970000D03*
X258127500Y-16510000D03*
D10*
X256857500Y-19050000D03*
X267017500Y-19050000D03*
D12*
X261937500Y-19050000D03*
%TD*%
%TO.C,SW24*%
X190500000Y0D03*
D11*
X186690000Y2540000D03*
D10*
X195580000Y0D03*
D11*
X193040000Y5080000D03*
D10*
X185420000Y0D03*
%TD*%
%TO.C,SW1*%
X5080000Y19050000D03*
D11*
X-3810000Y21590000D03*
D12*
X0Y19050000D03*
D11*
X2540000Y24130000D03*
D10*
X-5080000Y19050000D03*
%TD*%
D12*
%TO.C,SW69*%
X38100000Y-76200000D03*
D11*
X40640000Y-71120000D03*
X34290000Y-73660000D03*
D10*
X33020000Y-76200000D03*
X43180000Y-76200000D03*
%TD*%
%TO.C,SW9*%
X175895000Y19050000D03*
D11*
X177165000Y21590000D03*
D10*
X186055000Y19050000D03*
D11*
X183515000Y24130000D03*
D12*
X180975000Y19050000D03*
%TD*%
D10*
%TO.C,SW54*%
X259873750Y-38100000D03*
D11*
X250983750Y-35560000D03*
X257333750Y-33020000D03*
D10*
X249713750Y-38100000D03*
D12*
X254793750Y-38100000D03*
%TD*%
D13*
%TO.C,H9*%
X257175000Y-78581250D03*
%TD*%
D15*
%TO.C,H4*%
X245237000Y-8225000D03*
X269113000Y-8225000D03*
D14*
X245237000Y6985000D03*
X269113000Y6985000D03*
%TD*%
D10*
%TO.C,SW47*%
X104457500Y-38100000D03*
D11*
X112077500Y-33020000D03*
D12*
X109537500Y-38100000D03*
D11*
X105727500Y-35560000D03*
D10*
X114617500Y-38100000D03*
%TD*%
D12*
%TO.C,SW51*%
X185737500Y-38100000D03*
D10*
X190817500Y-38100000D03*
D11*
X188277500Y-33020000D03*
D10*
X180657500Y-38100000D03*
D11*
X181927500Y-35560000D03*
%TD*%
D10*
%TO.C,SW56*%
X47942500Y-57150000D03*
D11*
X39052500Y-54610000D03*
D12*
X42862500Y-57150000D03*
D10*
X37782500Y-57150000D03*
D11*
X45402500Y-52070000D03*
%TD*%
D10*
%TO.C,SW75*%
X261620000Y-76200000D03*
D11*
X269240000Y-71120000D03*
D12*
X266700000Y-76200000D03*
D11*
X262890000Y-73660000D03*
D10*
X271780000Y-76200000D03*
%TD*%
D12*
%TO.C,SW26*%
X228600000Y0D03*
D11*
X224790000Y2540000D03*
D10*
X233680000Y0D03*
X223520000Y0D03*
D11*
X231140000Y5080000D03*
%TD*%
%TO.C,SW22*%
X148590000Y2540000D03*
D10*
X147320000Y0D03*
D11*
X154940000Y5080000D03*
D10*
X157480000Y0D03*
D12*
X152400000Y0D03*
%TD*%
D11*
%TO.C,SW30*%
X50165000Y-13970000D03*
D10*
X52705000Y-19050000D03*
D11*
X43815000Y-16510000D03*
D10*
X42545000Y-19050000D03*
D12*
X47625000Y-19050000D03*
%TD*%
D11*
%TO.C,SW35*%
X145415000Y-13970000D03*
D10*
X137795000Y-19050000D03*
D12*
X142875000Y-19050000D03*
D11*
X139065000Y-16510000D03*
D10*
X147955000Y-19050000D03*
%TD*%
D11*
%TO.C,SW59*%
X102552500Y-52070000D03*
D12*
X100012500Y-57150000D03*
D11*
X96202500Y-54610000D03*
D10*
X105092500Y-57150000D03*
X94932500Y-57150000D03*
%TD*%
D12*
%TO.C,SW43*%
X33337500Y-38100000D03*
D11*
X35877500Y-33020000D03*
D10*
X28257500Y-38100000D03*
X38417500Y-38100000D03*
D11*
X29527500Y-35560000D03*
%TD*%
D13*
%TO.C,H13*%
X154781250Y-76200000D03*
%TD*%
D12*
%TO.C,SW37*%
X180975000Y-19050000D03*
D10*
X186055000Y-19050000D03*
X175895000Y-19050000D03*
D11*
X183515000Y-13970000D03*
X177165000Y-16510000D03*
%TD*%
D12*
%TO.C,SW50*%
X166687500Y-38100000D03*
D10*
X161607500Y-38100000D03*
D11*
X162877500Y-35560000D03*
X169227500Y-33020000D03*
D10*
X171767500Y-38100000D03*
%TD*%
D11*
%TO.C,SW46*%
X86677500Y-35560000D03*
D10*
X95567500Y-38100000D03*
D11*
X93027500Y-33020000D03*
D12*
X90487500Y-38100000D03*
D10*
X85407500Y-38100000D03*
%TD*%
D16*
%TO.C,J1*%
X-6000000Y-38825000D03*
D17*
X-6000000Y-36285000D03*
X-6000000Y-33745000D03*
%TD*%
D11*
%TO.C,SW7*%
X145415000Y24130000D03*
D10*
X147955000Y19050000D03*
D12*
X142875000Y19050000D03*
D10*
X137795000Y19050000D03*
D11*
X139065000Y21590000D03*
%TD*%
%TO.C,SW21*%
X135890000Y5080000D03*
D12*
X133350000Y0D03*
D10*
X138430000Y0D03*
D11*
X129540000Y2540000D03*
D10*
X128270000Y0D03*
%TD*%
D11*
%TO.C,SW33*%
X100965000Y-16510000D03*
X107315000Y-13970000D03*
D10*
X109855000Y-19050000D03*
X99695000Y-19050000D03*
D12*
X104775000Y-19050000D03*
%TD*%
D13*
%TO.C,H16*%
X271462500Y-23812500D03*
%TD*%
D10*
%TO.C,SW70*%
X54451250Y-76200000D03*
D11*
X55721250Y-73660000D03*
D10*
X64611250Y-76200000D03*
D12*
X59531250Y-76200000D03*
D11*
X62071250Y-71120000D03*
%TD*%
D13*
%TO.C,H10*%
X257175000Y16668750D03*
%TD*%
D11*
%TO.C,SW48*%
X124777500Y-35560000D03*
D10*
X123507500Y-38100000D03*
D12*
X128587500Y-38100000D03*
D11*
X131127500Y-33020000D03*
D10*
X133667500Y-38100000D03*
%TD*%
D11*
%TO.C,SW10*%
X212090000Y24130000D03*
D12*
X209550000Y19050000D03*
D10*
X204470000Y19050000D03*
D11*
X205740000Y21590000D03*
D10*
X214630000Y19050000D03*
%TD*%
%TO.C,SW36*%
X156845000Y-19050000D03*
D11*
X158115000Y-16510000D03*
D12*
X161925000Y-19050000D03*
D10*
X167005000Y-19050000D03*
D11*
X164465000Y-13970000D03*
%TD*%
%TO.C,SW20*%
X116840000Y5080000D03*
D12*
X114300000Y0D03*
D10*
X109220000Y0D03*
D11*
X110490000Y2540000D03*
D10*
X119380000Y0D03*
%TD*%
D11*
%TO.C,SW62*%
X153352500Y-54610000D03*
D10*
X152082500Y-57150000D03*
X162242500Y-57150000D03*
D11*
X159702500Y-52070000D03*
D12*
X157162500Y-57150000D03*
%TD*%
D10*
%TO.C,SW23*%
X176530000Y0D03*
X166370000Y0D03*
D11*
X173990000Y5080000D03*
X167640000Y2540000D03*
D12*
X171450000Y0D03*
%TD*%
D10*
%TO.C,SW66*%
X252730000Y-57150000D03*
X242570000Y-57150000D03*
D11*
X250190000Y-52070000D03*
D12*
X247650000Y-57150000D03*
D11*
X243840000Y-54610000D03*
%TD*%
%TO.C,SW53*%
X220027500Y-35560000D03*
X226377500Y-33020000D03*
D10*
X218757500Y-38100000D03*
D12*
X223837500Y-38100000D03*
D10*
X228917500Y-38100000D03*
%TD*%
%TO.C,SW55*%
X16986250Y-57150000D03*
X6826250Y-57150000D03*
D12*
X11906250Y-57150000D03*
D11*
X8096250Y-54610000D03*
X14446250Y-52070000D03*
%TD*%
D10*
%TO.C,SW17*%
X62230000Y0D03*
D12*
X57150000Y0D03*
D11*
X59690000Y5080000D03*
D10*
X52070000Y0D03*
D11*
X53340000Y2540000D03*
%TD*%
D10*
%TO.C,SW38*%
X205105000Y-19050000D03*
D11*
X202565000Y-13970000D03*
D12*
X200025000Y-19050000D03*
D10*
X194945000Y-19050000D03*
D11*
X196215000Y-16510000D03*
%TD*%
D12*
%TO.C,SW45*%
X71437500Y-38100000D03*
D10*
X76517500Y-38100000D03*
D11*
X67627500Y-35560000D03*
X73977500Y-33020000D03*
D10*
X66357500Y-38100000D03*
%TD*%
D11*
%TO.C,SW44*%
X54927500Y-33020000D03*
D10*
X57467500Y-38100000D03*
D12*
X52387500Y-38100000D03*
D10*
X47307500Y-38100000D03*
D11*
X48577500Y-35560000D03*
%TD*%
%TO.C,SW60*%
X115252500Y-54610000D03*
D10*
X124142500Y-57150000D03*
D12*
X119062500Y-57150000D03*
D10*
X113982500Y-57150000D03*
D11*
X121602500Y-52070000D03*
%TD*%
D18*
%TO.C,U2*%
X13767810Y25315616D03*
X19567658Y25315616D03*
D19*
X20992855Y29015388D03*
D20*
X20992855Y24815489D03*
D19*
X12342613Y29015388D03*
D20*
X12342613Y24815489D03*
%TD*%
M02*
