M48
; DRILL file {KiCad (6.0.5-0)} date Tuesday, June 28, 2022 at 10:27:31 PM
; FORMAT={-:-/ absolute / metric / decimal}
; #@! TF.CreationDate,2022-06-28T22:27:31+09:00
; #@! TF.GenerationSoftware,Kicad,Pcbnew,(6.0.5-0)
; #@! TF.FileFunction,NonPlated,1,2,NPTH
FMAT,2
METRIC
; #@! TA.AperFunction,NonPlated,NPTH,ComponentDrill
T1C0.750
; #@! TA.AperFunction,NonPlated,NPTH,ComponentDrill
T2C1.750
; #@! TA.AperFunction,NonPlated,NPTH,ComponentDrill
T3C2.200
; #@! TA.AperFunction,NonPlated,NPTH,ComponentDrill
T4C3.048
; #@! TA.AperFunction,NonPlated,NPTH,ComponentDrill
T5C3.050
; #@! TA.AperFunction,NonPlated,NPTH,ComponentDrill
T6C3.988
; #@! TA.AperFunction,NonPlated,NPTH,ComponentDrill
T7C4.000
%
G90
G05
T1
X13.768Y25.316
X19.568Y25.316
T2
X-5.08Y19.05
X-5.08Y0.0
X-5.08Y-76.2
X-0.318Y-19.05
X2.064Y-38.1
X5.08Y19.05
X5.08Y0.0
X5.08Y-76.2
X6.826Y-57.15
X9.842Y-19.05
X12.224Y-38.1
X13.97Y0.0
X13.97Y-76.2
X16.986Y-57.15
X23.495Y-19.05
X24.13Y0.0
X24.13Y-76.2
X28.258Y-38.1
X30.639Y19.05
X33.02Y0.0
X33.02Y-76.2
X33.655Y-19.05
X37.782Y-57.15
X38.417Y-38.1
X40.799Y19.05
X42.545Y-19.05
X43.18Y0.0
X43.18Y-76.2
X47.307Y-38.1
X47.942Y-57.15
X49.689Y19.05
X52.07Y0.0
X52.705Y-19.05
X54.451Y-76.2
X56.832Y-57.15
X57.467Y-38.1
X59.849Y19.05
X61.595Y-19.05
X62.23Y0.0
X64.611Y-76.2
X66.358Y-38.1
X66.992Y-57.15
X68.739Y19.05
X71.12Y0.0
X71.755Y-19.05
X75.882Y-57.15
X76.517Y-38.1
X78.899Y19.05
X80.645Y-19.05
X81.28Y0.0
X85.407Y-38.1
X86.042Y-57.15
X87.789Y19.05
X90.17Y0.0
X90.805Y-19.05
X94.932Y-57.15
X95.567Y-38.1
X97.949Y19.05
X99.695Y-19.05
X100.33Y0.0
X104.457Y-38.1
X105.093Y-57.15
X109.22Y0.0
X109.855Y-19.05
X113.983Y-57.15
X114.617Y-38.1
X116.364Y19.05
X118.745Y-19.05
X119.38Y0.0
X123.507Y-38.1
X124.142Y-57.15
X125.889Y-76.2
X126.524Y19.05
X128.27Y0.0
X128.905Y-19.05
X133.032Y-57.15
X133.667Y-38.1
X136.049Y-76.2
X137.795Y19.05
X137.795Y-19.05
X138.43Y0.0
X142.558Y-38.1
X143.192Y-57.15
X147.32Y0.0
X147.955Y19.05
X147.955Y-19.05
X152.082Y-57.15
X152.718Y-38.1
X156.845Y19.05
X156.845Y-19.05
X157.48Y0.0
X161.607Y-38.1
X162.243Y-57.15
X166.37Y0.0
X167.005Y19.05
X167.005Y-19.05
X171.132Y-57.15
X171.767Y-38.1
X175.895Y19.05
X175.895Y-19.05
X176.53Y0.0
X180.657Y-38.1
X181.292Y-57.15
X185.42Y0.0
X186.055Y19.05
X186.055Y-19.05
X190.183Y-57.15
X190.817Y-38.1
X194.945Y-19.05
X195.58Y0.0
X197.326Y-76.2
X199.707Y-38.1
X200.343Y-57.15
X204.47Y19.05
X204.47Y0.0
X205.105Y-19.05
X207.486Y-76.2
X209.232Y-57.15
X209.867Y-38.1
X213.995Y-19.05
X214.63Y19.05
X214.63Y0.0
X218.757Y-38.1
X219.392Y-57.15
X223.52Y19.05
X223.52Y0.0
X223.52Y-76.2
X224.155Y-19.05
X228.917Y-38.1
X233.045Y-19.05
X233.68Y19.05
X233.68Y0.0
X233.68Y-76.2
X242.57Y19.05
X242.57Y-57.15
X242.57Y-76.2
X243.205Y-19.05
X249.714Y-38.1
X252.095Y0.0
X252.73Y19.05
X252.73Y-57.15
X252.73Y-76.2
X256.858Y-19.05
X259.874Y-38.1
X261.62Y19.05
X261.62Y-76.2
X262.255Y0.0
X267.017Y-19.05
X271.78Y19.05
X271.78Y-76.2
T3
X-7.144Y-19.05
X9.525Y-76.2
X16.669Y14.287
X76.2Y-23.812
X107.156Y19.05
X107.156Y-76.2
X154.781Y-76.2
X190.5Y-23.812
X195.262Y19.05
X257.175Y16.669
X257.175Y-78.581
X271.462Y-23.812
T4
X-0.032Y-50.165
X23.844Y-50.165
X80.969Y-83.185
X180.969Y-83.185
X242.856Y-31.115
X245.237Y6.985
X266.732Y-31.115
X269.113Y6.985
T5
X-3.81Y21.59
X-3.81Y2.54
X-3.81Y-73.66
X0.952Y-16.51
X2.54Y24.13
X2.54Y5.08
X2.54Y-71.12
X3.334Y-35.56
X7.302Y-13.97
X8.096Y-54.61
X9.684Y-33.02
X14.446Y-52.07
X15.24Y2.54
X15.24Y-73.66
X21.59Y5.08
X21.59Y-71.12
X24.765Y-16.51
X29.527Y-35.56
X31.115Y-13.97
X31.909Y21.59
X34.29Y2.54
X34.29Y-73.66
X35.877Y-33.02
X38.259Y24.13
X39.052Y-54.61
X40.64Y5.08
X40.64Y-71.12
X43.815Y-16.51
X45.402Y-52.07
X48.578Y-35.56
X50.165Y-13.97
X50.959Y21.59
X53.34Y2.54
X54.927Y-33.02
X55.721Y-73.66
X57.309Y24.13
X58.102Y-54.61
X59.69Y5.08
X62.071Y-71.12
X62.865Y-16.51
X64.453Y-52.07
X67.627Y-35.56
X69.215Y-13.97
X70.009Y21.59
X72.39Y2.54
X73.977Y-33.02
X76.359Y24.13
X77.153Y-54.61
X78.74Y5.08
X81.915Y-16.51
X83.502Y-52.07
X86.677Y-35.56
X88.265Y-13.97
X89.059Y21.59
X91.44Y2.54
X93.027Y-33.02
X95.409Y24.13
X96.203Y-54.61
X97.79Y5.08
X100.965Y-16.51
X102.552Y-52.07
X105.727Y-35.56
X107.315Y-13.97
X110.49Y2.54
X112.078Y-33.02
X115.252Y-54.61
X116.84Y5.08
X117.634Y21.59
X120.015Y-16.51
X121.602Y-52.07
X123.984Y24.13
X124.777Y-35.56
X126.365Y-13.97
X127.159Y-73.66
X129.54Y2.54
X131.127Y-33.02
X133.509Y-71.12
X134.302Y-54.61
X135.89Y5.08
X139.065Y21.59
X139.065Y-16.51
X140.653Y-52.07
X143.827Y-35.56
X145.415Y24.13
X145.415Y-13.97
X148.59Y2.54
X150.177Y-33.02
X153.352Y-54.61
X154.94Y5.08
X158.115Y21.59
X158.115Y-16.51
X159.702Y-52.07
X162.877Y-35.56
X164.465Y24.13
X164.465Y-13.97
X167.64Y2.54
X169.227Y-33.02
X172.403Y-54.61
X173.99Y5.08
X177.165Y21.59
X177.165Y-16.51
X178.752Y-52.07
X181.927Y-35.56
X183.515Y24.13
X183.515Y-13.97
X186.69Y2.54
X188.278Y-33.02
X191.452Y-54.61
X193.04Y5.08
X196.215Y-16.51
X197.802Y-52.07
X198.596Y-73.66
X200.977Y-35.56
X202.565Y-13.97
X204.946Y-71.12
X205.74Y21.59
X205.74Y2.54
X207.327Y-33.02
X210.502Y-54.61
X212.09Y24.13
X212.09Y5.08
X215.265Y-16.51
X216.852Y-52.07
X220.028Y-35.56
X221.615Y-13.97
X224.79Y21.59
X224.79Y2.54
X224.79Y-73.66
X226.377Y-33.02
X231.14Y24.13
X231.14Y5.08
X231.14Y-71.12
X234.315Y-16.51
X240.665Y-13.97
X243.84Y21.59
X243.84Y-54.61
X243.84Y-73.66
X250.19Y24.13
X250.19Y-52.07
X250.19Y-71.12
X250.984Y-35.56
X253.365Y2.54
X257.334Y-33.02
X258.127Y-16.51
X259.715Y5.08
X262.89Y21.59
X262.89Y-73.66
X264.477Y-13.97
X269.24Y24.13
X269.24Y-71.12
T6
X-0.032Y-65.375
X23.844Y-65.375
X80.969Y-67.975
X180.969Y-67.975
X242.856Y-46.325
X245.237Y-8.225
X266.732Y-46.325
X269.113Y-8.225
T7
X0.0Y19.05
X0.0Y0.0
X0.0Y-76.2
X4.763Y-19.05
X7.144Y-38.1
X11.906Y-57.15
X19.05Y0.0
X19.05Y-76.2
X28.575Y-19.05
X33.337Y-38.1
X35.719Y19.05
X38.1Y0.0
X38.1Y-76.2
X42.862Y-57.15
X47.625Y-19.05
X52.387Y-38.1
X54.769Y19.05
X57.15Y0.0
X59.531Y-76.2
X61.912Y-57.15
X66.675Y-19.05
X71.438Y-38.1
X73.819Y19.05
X76.2Y0.0
X80.962Y-57.15
X85.725Y-19.05
X90.487Y-38.1
X92.869Y19.05
X95.25Y0.0
X100.012Y-57.15
X104.775Y-19.05
X109.537Y-38.1
X114.3Y0.0
X119.062Y-57.15
X121.444Y19.05
X123.825Y-19.05
X128.588Y-38.1
X130.969Y-76.2
X133.35Y0.0
X138.112Y-57.15
X142.875Y19.05
X142.875Y-19.05
X147.637Y-38.1
X152.4Y0.0
X157.162Y-57.15
X161.925Y19.05
X161.925Y-19.05
X166.688Y-38.1
X171.45Y0.0
X176.213Y-57.15
X180.975Y19.05
X180.975Y-19.05
X185.737Y-38.1
X190.5Y0.0
X195.262Y-57.15
X200.025Y-19.05
X202.406Y-76.2
X204.787Y-38.1
X209.55Y19.05
X209.55Y0.0
X214.312Y-57.15
X219.075Y-19.05
X223.837Y-38.1
X228.6Y19.05
X228.6Y0.0
X228.6Y-76.2
X238.125Y-19.05
X247.65Y19.05
X247.65Y-57.15
X247.65Y-76.2
X254.794Y-38.1
X257.175Y0.0
X261.938Y-19.05
X266.7Y19.05
X266.7Y-76.2
T0
M30
