%FSLAX45Y45*%
G04 Gerber Fmt 4.5, Leading zero omitted, Abs format (unit mm)*
G04 Created by KiCad (PCBNEW (6.0.5-0)) date 2022-07-25 23:23:21*
%MOMM*%
%LPD*%
G01*
G04 APERTURE LIST*
%TA.AperFunction,Profile*%
%ADD10C,0.100000*%
%TD*%
%ADD11C,0.200000*%
%ADD12C,0.220000*%
G04 APERTURE END LIST*
D10*
X4048125Y-1905000D02*
X3810000Y-2143125D01*
X30241875Y-13573125D02*
X2143125Y-13573125D01*
X5000625Y-1905000D02*
X5238750Y-2143125D01*
X4048125Y-1905000D02*
X5000625Y-1905000D01*
X30480005Y-2381250D02*
G75*
G03*
X30241875Y-2143125I-238135J-10D01*
G01*
X1905000Y-13335000D02*
X1905000Y-2381250D01*
X5238750Y-2143125D02*
X30241875Y-2143125D01*
X2143125Y-2143125D02*
X3810000Y-2143125D01*
X2143125Y-2143125D02*
G75*
G03*
X1905000Y-2381250I0J-238125D01*
G01*
X1905000Y-13335000D02*
G75*
G03*
X2143125Y-13573125I238125J0D01*
G01*
X30480000Y-2381250D02*
X30480000Y-13335000D01*
X30241875Y-13573120D02*
G75*
G03*
X30480000Y-13335000I-5J238130D01*
G01*
D11*
D12*
X2033125Y-6795625D02*
X2253125Y-7015625D01*
X2253125Y-6795625D02*
X2033125Y-7015625D01*
X3700000Y-12510625D02*
X3920000Y-12730625D01*
X3920000Y-12510625D02*
X3700000Y-12730625D01*
X4414375Y-3461875D02*
X4634375Y-3681875D01*
X4634375Y-3461875D02*
X4414375Y-3681875D01*
X10367500Y-7271875D02*
X10587500Y-7491875D01*
X10587500Y-7271875D02*
X10367500Y-7491875D01*
X13463125Y-2985625D02*
X13683125Y-3205625D01*
X13683125Y-2985625D02*
X13463125Y-3205625D01*
X21797500Y-7271875D02*
X22017500Y-7491875D01*
X22017500Y-7271875D02*
X21797500Y-7491875D01*
X22273750Y-2985625D02*
X22493750Y-3205625D01*
X22493750Y-2985625D02*
X22273750Y-3205625D01*
X28465000Y-3223750D02*
X28685000Y-3443750D01*
X28685000Y-3223750D02*
X28465000Y-3443750D01*
X28465000Y-12748750D02*
X28685000Y-12968750D01*
X28685000Y-12748750D02*
X28465000Y-12968750D01*
X29893750Y-7271875D02*
X30113750Y-7491875D01*
X30113750Y-7271875D02*
X29893750Y-7491875D01*
D11*
X2157619Y-13888601D02*
X2157619Y-13688601D01*
X2205238Y-13688601D01*
X2233810Y-13698125D01*
X2252857Y-13717173D01*
X2262381Y-13736220D01*
X2271905Y-13774315D01*
X2271905Y-13802887D01*
X2262381Y-13840982D01*
X2252857Y-13860030D01*
X2233810Y-13879077D01*
X2205238Y-13888601D01*
X2157619Y-13888601D01*
X2357619Y-13888601D02*
X2357619Y-13755268D01*
X2357619Y-13793363D02*
X2367143Y-13774315D01*
X2376667Y-13764792D01*
X2395714Y-13755268D01*
X2414762Y-13755268D01*
X2481429Y-13888601D02*
X2481429Y-13755268D01*
X2481429Y-13688601D02*
X2471905Y-13698125D01*
X2481429Y-13707649D01*
X2490952Y-13698125D01*
X2481429Y-13688601D01*
X2481429Y-13707649D01*
X2605238Y-13888601D02*
X2586190Y-13879077D01*
X2576667Y-13860030D01*
X2576667Y-13688601D01*
X2710000Y-13888601D02*
X2690952Y-13879077D01*
X2681429Y-13860030D01*
X2681429Y-13688601D01*
X2938571Y-13888601D02*
X2938571Y-13688601D01*
X3005238Y-13831458D01*
X3071905Y-13688601D01*
X3071905Y-13888601D01*
X3252857Y-13888601D02*
X3252857Y-13783839D01*
X3243333Y-13764792D01*
X3224286Y-13755268D01*
X3186190Y-13755268D01*
X3167143Y-13764792D01*
X3252857Y-13879077D02*
X3233809Y-13888601D01*
X3186190Y-13888601D01*
X3167143Y-13879077D01*
X3157619Y-13860030D01*
X3157619Y-13840982D01*
X3167143Y-13821934D01*
X3186190Y-13812411D01*
X3233809Y-13812411D01*
X3252857Y-13802887D01*
X3348095Y-13755268D02*
X3348095Y-13955268D01*
X3348095Y-13764792D02*
X3367143Y-13755268D01*
X3405238Y-13755268D01*
X3424286Y-13764792D01*
X3433809Y-13774315D01*
X3443333Y-13793363D01*
X3443333Y-13850506D01*
X3433809Y-13869553D01*
X3424286Y-13879077D01*
X3405238Y-13888601D01*
X3367143Y-13888601D01*
X3348095Y-13879077D01*
X3529048Y-13869553D02*
X3538571Y-13879077D01*
X3529048Y-13888601D01*
X3519524Y-13879077D01*
X3529048Y-13869553D01*
X3529048Y-13888601D01*
X3529048Y-13764792D02*
X3538571Y-13774315D01*
X3529048Y-13783839D01*
X3519524Y-13774315D01*
X3529048Y-13764792D01*
X3529048Y-13783839D01*
X1700000Y-14118125D02*
X1900000Y-14318125D01*
X1900000Y-14118125D02*
X1700000Y-14318125D01*
X2148095Y-14127649D02*
X2157619Y-14118125D01*
X2176667Y-14108601D01*
X2224286Y-14108601D01*
X2243333Y-14118125D01*
X2252857Y-14127649D01*
X2262381Y-14146696D01*
X2262381Y-14165744D01*
X2252857Y-14194315D01*
X2138571Y-14308601D01*
X2262381Y-14308601D01*
X2348095Y-14289553D02*
X2357619Y-14299077D01*
X2348095Y-14308601D01*
X2338571Y-14299077D01*
X2348095Y-14289553D01*
X2348095Y-14308601D01*
X2433810Y-14127649D02*
X2443333Y-14118125D01*
X2462381Y-14108601D01*
X2510000Y-14108601D01*
X2529048Y-14118125D01*
X2538571Y-14127649D01*
X2548095Y-14146696D01*
X2548095Y-14165744D01*
X2538571Y-14194315D01*
X2424286Y-14308601D01*
X2548095Y-14308601D01*
X2671905Y-14108601D02*
X2690952Y-14108601D01*
X2710000Y-14118125D01*
X2719524Y-14127649D01*
X2729048Y-14146696D01*
X2738571Y-14184792D01*
X2738571Y-14232411D01*
X2729048Y-14270506D01*
X2719524Y-14289553D01*
X2710000Y-14299077D01*
X2690952Y-14308601D01*
X2671905Y-14308601D01*
X2652857Y-14299077D01*
X2643333Y-14289553D01*
X2633810Y-14270506D01*
X2624286Y-14232411D01*
X2624286Y-14184792D01*
X2633810Y-14146696D01*
X2643333Y-14127649D01*
X2652857Y-14118125D01*
X2671905Y-14108601D01*
X2862381Y-14108601D02*
X2881428Y-14108601D01*
X2900476Y-14118125D01*
X2910000Y-14127649D01*
X2919524Y-14146696D01*
X2929048Y-14184792D01*
X2929048Y-14232411D01*
X2919524Y-14270506D01*
X2910000Y-14289553D01*
X2900476Y-14299077D01*
X2881428Y-14308601D01*
X2862381Y-14308601D01*
X2843333Y-14299077D01*
X2833809Y-14289553D01*
X2824286Y-14270506D01*
X2814762Y-14232411D01*
X2814762Y-14184792D01*
X2824286Y-14146696D01*
X2833809Y-14127649D01*
X2843333Y-14118125D01*
X2862381Y-14108601D01*
X3014762Y-14308601D02*
X3014762Y-14175268D01*
X3014762Y-14194315D02*
X3024286Y-14184792D01*
X3043333Y-14175268D01*
X3071905Y-14175268D01*
X3090952Y-14184792D01*
X3100476Y-14203839D01*
X3100476Y-14308601D01*
X3100476Y-14203839D02*
X3110000Y-14184792D01*
X3129048Y-14175268D01*
X3157619Y-14175268D01*
X3176667Y-14184792D01*
X3186190Y-14203839D01*
X3186190Y-14308601D01*
X3281428Y-14308601D02*
X3281428Y-14175268D01*
X3281428Y-14194315D02*
X3290952Y-14184792D01*
X3310000Y-14175268D01*
X3338571Y-14175268D01*
X3357619Y-14184792D01*
X3367143Y-14203839D01*
X3367143Y-14308601D01*
X3367143Y-14203839D02*
X3376667Y-14184792D01*
X3395714Y-14175268D01*
X3424286Y-14175268D01*
X3443333Y-14184792D01*
X3452857Y-14203839D01*
X3452857Y-14308601D01*
X3843333Y-14099077D02*
X3671905Y-14356220D01*
X4100476Y-14108601D02*
X4119524Y-14108601D01*
X4138571Y-14118125D01*
X4148095Y-14127649D01*
X4157619Y-14146696D01*
X4167143Y-14184792D01*
X4167143Y-14232411D01*
X4157619Y-14270506D01*
X4148095Y-14289553D01*
X4138571Y-14299077D01*
X4119524Y-14308601D01*
X4100476Y-14308601D01*
X4081428Y-14299077D01*
X4071905Y-14289553D01*
X4062381Y-14270506D01*
X4052857Y-14232411D01*
X4052857Y-14184792D01*
X4062381Y-14146696D01*
X4071905Y-14127649D01*
X4081428Y-14118125D01*
X4100476Y-14108601D01*
X4252857Y-14289553D02*
X4262381Y-14299077D01*
X4252857Y-14308601D01*
X4243333Y-14299077D01*
X4252857Y-14289553D01*
X4252857Y-14308601D01*
X4386190Y-14108601D02*
X4405238Y-14108601D01*
X4424286Y-14118125D01*
X4433810Y-14127649D01*
X4443333Y-14146696D01*
X4452857Y-14184792D01*
X4452857Y-14232411D01*
X4443333Y-14270506D01*
X4433810Y-14289553D01*
X4424286Y-14299077D01*
X4405238Y-14308601D01*
X4386190Y-14308601D01*
X4367143Y-14299077D01*
X4357619Y-14289553D01*
X4348095Y-14270506D01*
X4338571Y-14232411D01*
X4338571Y-14184792D01*
X4348095Y-14146696D01*
X4357619Y-14127649D01*
X4367143Y-14118125D01*
X4386190Y-14108601D01*
X4567143Y-14194315D02*
X4548095Y-14184792D01*
X4538571Y-14175268D01*
X4529048Y-14156220D01*
X4529048Y-14146696D01*
X4538571Y-14127649D01*
X4548095Y-14118125D01*
X4567143Y-14108601D01*
X4605238Y-14108601D01*
X4624286Y-14118125D01*
X4633810Y-14127649D01*
X4643333Y-14146696D01*
X4643333Y-14156220D01*
X4633810Y-14175268D01*
X4624286Y-14184792D01*
X4605238Y-14194315D01*
X4567143Y-14194315D01*
X4548095Y-14203839D01*
X4538571Y-14213363D01*
X4529048Y-14232411D01*
X4529048Y-14270506D01*
X4538571Y-14289553D01*
X4548095Y-14299077D01*
X4567143Y-14308601D01*
X4605238Y-14308601D01*
X4624286Y-14299077D01*
X4633810Y-14289553D01*
X4643333Y-14270506D01*
X4643333Y-14232411D01*
X4633810Y-14213363D01*
X4624286Y-14203839D01*
X4605238Y-14194315D01*
X4814762Y-14108601D02*
X4776667Y-14108601D01*
X4757619Y-14118125D01*
X4748095Y-14127649D01*
X4729048Y-14156220D01*
X4719524Y-14194315D01*
X4719524Y-14270506D01*
X4729048Y-14289553D01*
X4738571Y-14299077D01*
X4757619Y-14308601D01*
X4795714Y-14308601D01*
X4814762Y-14299077D01*
X4824286Y-14289553D01*
X4833810Y-14270506D01*
X4833810Y-14222887D01*
X4824286Y-14203839D01*
X4814762Y-14194315D01*
X4795714Y-14184792D01*
X4757619Y-14184792D01*
X4738571Y-14194315D01*
X4729048Y-14203839D01*
X4719524Y-14222887D01*
X5005238Y-14108601D02*
X4967143Y-14108601D01*
X4948095Y-14118125D01*
X4938571Y-14127649D01*
X4919524Y-14156220D01*
X4910000Y-14194315D01*
X4910000Y-14270506D01*
X4919524Y-14289553D01*
X4929048Y-14299077D01*
X4948095Y-14308601D01*
X4986190Y-14308601D01*
X5005238Y-14299077D01*
X5014762Y-14289553D01*
X5024286Y-14270506D01*
X5024286Y-14222887D01*
X5014762Y-14203839D01*
X5005238Y-14194315D01*
X4986190Y-14184792D01*
X4948095Y-14184792D01*
X4929048Y-14194315D01*
X4919524Y-14203839D01*
X4910000Y-14222887D01*
X5100476Y-14108601D02*
X5100476Y-14146696D01*
X5176667Y-14108601D02*
X5176667Y-14146696D01*
X5471905Y-14384792D02*
X5462381Y-14375268D01*
X5443333Y-14346696D01*
X5433810Y-14327649D01*
X5424286Y-14299077D01*
X5414762Y-14251458D01*
X5414762Y-14213363D01*
X5424286Y-14165744D01*
X5433810Y-14137173D01*
X5443333Y-14118125D01*
X5462381Y-14089553D01*
X5471905Y-14080030D01*
X5652857Y-14308601D02*
X5538571Y-14308601D01*
X5595714Y-14308601D02*
X5595714Y-14108601D01*
X5576667Y-14137173D01*
X5557619Y-14156220D01*
X5538571Y-14165744D01*
X5776667Y-14108601D02*
X5795714Y-14108601D01*
X5814762Y-14118125D01*
X5824286Y-14127649D01*
X5833809Y-14146696D01*
X5843333Y-14184792D01*
X5843333Y-14232411D01*
X5833809Y-14270506D01*
X5824286Y-14289553D01*
X5814762Y-14299077D01*
X5795714Y-14308601D01*
X5776667Y-14308601D01*
X5757619Y-14299077D01*
X5748095Y-14289553D01*
X5738571Y-14270506D01*
X5729048Y-14232411D01*
X5729048Y-14184792D01*
X5738571Y-14146696D01*
X5748095Y-14127649D01*
X5757619Y-14118125D01*
X5776667Y-14108601D01*
X6081428Y-14308601D02*
X6081428Y-14108601D01*
X6167143Y-14308601D02*
X6167143Y-14203839D01*
X6157619Y-14184792D01*
X6138571Y-14175268D01*
X6110000Y-14175268D01*
X6090952Y-14184792D01*
X6081428Y-14194315D01*
X6290952Y-14308601D02*
X6271905Y-14299077D01*
X6262381Y-14289553D01*
X6252857Y-14270506D01*
X6252857Y-14213363D01*
X6262381Y-14194315D01*
X6271905Y-14184792D01*
X6290952Y-14175268D01*
X6319524Y-14175268D01*
X6338571Y-14184792D01*
X6348095Y-14194315D01*
X6357619Y-14213363D01*
X6357619Y-14270506D01*
X6348095Y-14289553D01*
X6338571Y-14299077D01*
X6319524Y-14308601D01*
X6290952Y-14308601D01*
X6471905Y-14308601D02*
X6452857Y-14299077D01*
X6443333Y-14280030D01*
X6443333Y-14108601D01*
X6624286Y-14299077D02*
X6605238Y-14308601D01*
X6567143Y-14308601D01*
X6548095Y-14299077D01*
X6538571Y-14280030D01*
X6538571Y-14203839D01*
X6548095Y-14184792D01*
X6567143Y-14175268D01*
X6605238Y-14175268D01*
X6624286Y-14184792D01*
X6633809Y-14203839D01*
X6633809Y-14222887D01*
X6538571Y-14241934D01*
X6710000Y-14299077D02*
X6729048Y-14308601D01*
X6767143Y-14308601D01*
X6786190Y-14299077D01*
X6795714Y-14280030D01*
X6795714Y-14270506D01*
X6786190Y-14251458D01*
X6767143Y-14241934D01*
X6738571Y-14241934D01*
X6719524Y-14232411D01*
X6710000Y-14213363D01*
X6710000Y-14203839D01*
X6719524Y-14184792D01*
X6738571Y-14175268D01*
X6767143Y-14175268D01*
X6786190Y-14184792D01*
X6862381Y-14384792D02*
X6871905Y-14375268D01*
X6890952Y-14346696D01*
X6900476Y-14327649D01*
X6910000Y-14299077D01*
X6919524Y-14251458D01*
X6919524Y-14213363D01*
X6910000Y-14165744D01*
X6900476Y-14137173D01*
X6890952Y-14118125D01*
X6871905Y-14089553D01*
X6862381Y-14080030D01*
X7224286Y-14384792D02*
X7214762Y-14375268D01*
X7195714Y-14346696D01*
X7186190Y-14327649D01*
X7176667Y-14299077D01*
X7167143Y-14251458D01*
X7167143Y-14213363D01*
X7176667Y-14165744D01*
X7186190Y-14137173D01*
X7195714Y-14118125D01*
X7214762Y-14089553D01*
X7224286Y-14080030D01*
X7300476Y-14175268D02*
X7300476Y-14308601D01*
X7300476Y-14194315D02*
X7310000Y-14184792D01*
X7329048Y-14175268D01*
X7357619Y-14175268D01*
X7376667Y-14184792D01*
X7386190Y-14203839D01*
X7386190Y-14308601D01*
X7510000Y-14308601D02*
X7490952Y-14299077D01*
X7481428Y-14289553D01*
X7471905Y-14270506D01*
X7471905Y-14213363D01*
X7481428Y-14194315D01*
X7490952Y-14184792D01*
X7510000Y-14175268D01*
X7538571Y-14175268D01*
X7557619Y-14184792D01*
X7567143Y-14194315D01*
X7576667Y-14213363D01*
X7576667Y-14270506D01*
X7567143Y-14289553D01*
X7557619Y-14299077D01*
X7538571Y-14308601D01*
X7510000Y-14308601D01*
X7633809Y-14175268D02*
X7710000Y-14175268D01*
X7662381Y-14108601D02*
X7662381Y-14280030D01*
X7671905Y-14299077D01*
X7690952Y-14308601D01*
X7710000Y-14308601D01*
X7929048Y-14175268D02*
X7929048Y-14375268D01*
X7929048Y-14184792D02*
X7948095Y-14175268D01*
X7986190Y-14175268D01*
X8005238Y-14184792D01*
X8014762Y-14194315D01*
X8024286Y-14213363D01*
X8024286Y-14270506D01*
X8014762Y-14289553D01*
X8005238Y-14299077D01*
X7986190Y-14308601D01*
X7948095Y-14308601D01*
X7929048Y-14299077D01*
X8138571Y-14308601D02*
X8119524Y-14299077D01*
X8110000Y-14280030D01*
X8110000Y-14108601D01*
X8300476Y-14308601D02*
X8300476Y-14203839D01*
X8290952Y-14184792D01*
X8271905Y-14175268D01*
X8233809Y-14175268D01*
X8214762Y-14184792D01*
X8300476Y-14299077D02*
X8281428Y-14308601D01*
X8233809Y-14308601D01*
X8214762Y-14299077D01*
X8205238Y-14280030D01*
X8205238Y-14260982D01*
X8214762Y-14241934D01*
X8233809Y-14232411D01*
X8281428Y-14232411D01*
X8300476Y-14222887D01*
X8367143Y-14175268D02*
X8443333Y-14175268D01*
X8395714Y-14108601D02*
X8395714Y-14280030D01*
X8405238Y-14299077D01*
X8424286Y-14308601D01*
X8443333Y-14308601D01*
X8586190Y-14299077D02*
X8567143Y-14308601D01*
X8529048Y-14308601D01*
X8510000Y-14299077D01*
X8500476Y-14280030D01*
X8500476Y-14203839D01*
X8510000Y-14184792D01*
X8529048Y-14175268D01*
X8567143Y-14175268D01*
X8586190Y-14184792D01*
X8595714Y-14203839D01*
X8595714Y-14222887D01*
X8500476Y-14241934D01*
X8767143Y-14308601D02*
X8767143Y-14108601D01*
X8767143Y-14299077D02*
X8748095Y-14308601D01*
X8710000Y-14308601D01*
X8690952Y-14299077D01*
X8681429Y-14289553D01*
X8671905Y-14270506D01*
X8671905Y-14213363D01*
X8681429Y-14194315D01*
X8690952Y-14184792D01*
X8710000Y-14175268D01*
X8748095Y-14175268D01*
X8767143Y-14184792D01*
X8843333Y-14384792D02*
X8852857Y-14375268D01*
X8871905Y-14346696D01*
X8881429Y-14327649D01*
X8890952Y-14299077D01*
X8900476Y-14251458D01*
X8900476Y-14213363D01*
X8890952Y-14165744D01*
X8881429Y-14137173D01*
X8871905Y-14118125D01*
X8852857Y-14089553D01*
X8843333Y-14080030D01*
M02*
