G04 #@! TF.GenerationSoftware,KiCad,Pcbnew,(7.0.0-0)*
G04 #@! TF.CreationDate,2023-04-23T21:56:02+09:00*
G04 #@! TF.ProjectId,top-plate,746f702d-706c-4617-9465-2e6b69636164,rev?*
G04 #@! TF.SameCoordinates,Original*
G04 #@! TF.FileFunction,Legend,Top*
G04 #@! TF.FilePolarity,Positive*
%FSLAX46Y46*%
G04 Gerber Fmt 4.6, Leading zero omitted, Abs format (unit mm)*
G04 Created by KiCad (PCBNEW (7.0.0-0)) date 2023-04-23 21:56:02*
%MOMM*%
%LPD*%
G01*
G04 APERTURE LIST*
%ADD10C,0.150000*%
%ADD11C,2.200000*%
G04 APERTURE END LIST*
D10*
X177704761Y-113847380D02*
X177704761Y-112847380D01*
X177799999Y-113466428D02*
X178085713Y-113847380D01*
X178085713Y-113180714D02*
X177704761Y-113561666D01*
X178895237Y-113799761D02*
X178799999Y-113847380D01*
X178799999Y-113847380D02*
X178609523Y-113847380D01*
X178609523Y-113847380D02*
X178514285Y-113799761D01*
X178514285Y-113799761D02*
X178466666Y-113704523D01*
X178466666Y-113704523D02*
X178466666Y-113323571D01*
X178466666Y-113323571D02*
X178514285Y-113228333D01*
X178514285Y-113228333D02*
X178609523Y-113180714D01*
X178609523Y-113180714D02*
X178799999Y-113180714D01*
X178799999Y-113180714D02*
X178895237Y-113228333D01*
X178895237Y-113228333D02*
X178942856Y-113323571D01*
X178942856Y-113323571D02*
X178942856Y-113418809D01*
X178942856Y-113418809D02*
X178466666Y-113514047D01*
X179276190Y-113180714D02*
X179514285Y-113847380D01*
X179752380Y-113180714D02*
X179514285Y-113847380D01*
X179514285Y-113847380D02*
X179419047Y-114085476D01*
X179419047Y-114085476D02*
X179371428Y-114133095D01*
X179371428Y-114133095D02*
X179276190Y-114180714D01*
X180133333Y-113466428D02*
X180895238Y-113466428D01*
X181371428Y-113847380D02*
X181371428Y-113180714D01*
X181371428Y-113371190D02*
X181419047Y-113275952D01*
X181419047Y-113275952D02*
X181466666Y-113228333D01*
X181466666Y-113228333D02*
X181561904Y-113180714D01*
X181561904Y-113180714D02*
X181657142Y-113180714D01*
X181990476Y-113847380D02*
X181990476Y-113180714D01*
X181990476Y-112847380D02*
X181942857Y-112895000D01*
X181942857Y-112895000D02*
X181990476Y-112942619D01*
X181990476Y-112942619D02*
X182038095Y-112895000D01*
X182038095Y-112895000D02*
X181990476Y-112847380D01*
X181990476Y-112847380D02*
X181990476Y-112942619D01*
X182466666Y-113180714D02*
X182466666Y-114180714D01*
X182466666Y-113228333D02*
X182561904Y-113180714D01*
X182561904Y-113180714D02*
X182752380Y-113180714D01*
X182752380Y-113180714D02*
X182847618Y-113228333D01*
X182847618Y-113228333D02*
X182895237Y-113275952D01*
X182895237Y-113275952D02*
X182942856Y-113371190D01*
X182942856Y-113371190D02*
X182942856Y-113656904D01*
X182942856Y-113656904D02*
X182895237Y-113752142D01*
X182895237Y-113752142D02*
X182847618Y-113799761D01*
X182847618Y-113799761D02*
X182752380Y-113847380D01*
X182752380Y-113847380D02*
X182561904Y-113847380D01*
X182561904Y-113847380D02*
X182466666Y-113799761D01*
X183371428Y-113180714D02*
X183371428Y-114180714D01*
X183371428Y-113228333D02*
X183466666Y-113180714D01*
X183466666Y-113180714D02*
X183657142Y-113180714D01*
X183657142Y-113180714D02*
X183752380Y-113228333D01*
X183752380Y-113228333D02*
X183799999Y-113275952D01*
X183799999Y-113275952D02*
X183847618Y-113371190D01*
X183847618Y-113371190D02*
X183847618Y-113656904D01*
X183847618Y-113656904D02*
X183799999Y-113752142D01*
X183799999Y-113752142D02*
X183752380Y-113799761D01*
X183752380Y-113799761D02*
X183657142Y-113847380D01*
X183657142Y-113847380D02*
X183466666Y-113847380D01*
X183466666Y-113847380D02*
X183371428Y-113799761D01*
X184657142Y-113799761D02*
X184561904Y-113847380D01*
X184561904Y-113847380D02*
X184371428Y-113847380D01*
X184371428Y-113847380D02*
X184276190Y-113799761D01*
X184276190Y-113799761D02*
X184228571Y-113704523D01*
X184228571Y-113704523D02*
X184228571Y-113323571D01*
X184228571Y-113323571D02*
X184276190Y-113228333D01*
X184276190Y-113228333D02*
X184371428Y-113180714D01*
X184371428Y-113180714D02*
X184561904Y-113180714D01*
X184561904Y-113180714D02*
X184657142Y-113228333D01*
X184657142Y-113228333D02*
X184704761Y-113323571D01*
X184704761Y-113323571D02*
X184704761Y-113418809D01*
X184704761Y-113418809D02*
X184228571Y-113514047D01*
X185133333Y-113847380D02*
X185133333Y-113180714D01*
X185133333Y-113371190D02*
X185180952Y-113275952D01*
X185180952Y-113275952D02*
X185228571Y-113228333D01*
X185228571Y-113228333D02*
X185323809Y-113180714D01*
X185323809Y-113180714D02*
X185419047Y-113180714D01*
X185752381Y-113466428D02*
X186514286Y-113466428D01*
X186847619Y-113180714D02*
X187228571Y-113180714D01*
X186990476Y-112847380D02*
X186990476Y-113704523D01*
X186990476Y-113704523D02*
X187038095Y-113799761D01*
X187038095Y-113799761D02*
X187133333Y-113847380D01*
X187133333Y-113847380D02*
X187228571Y-113847380D01*
X187704762Y-113847380D02*
X187609524Y-113799761D01*
X187609524Y-113799761D02*
X187561905Y-113752142D01*
X187561905Y-113752142D02*
X187514286Y-113656904D01*
X187514286Y-113656904D02*
X187514286Y-113371190D01*
X187514286Y-113371190D02*
X187561905Y-113275952D01*
X187561905Y-113275952D02*
X187609524Y-113228333D01*
X187609524Y-113228333D02*
X187704762Y-113180714D01*
X187704762Y-113180714D02*
X187847619Y-113180714D01*
X187847619Y-113180714D02*
X187942857Y-113228333D01*
X187942857Y-113228333D02*
X187990476Y-113275952D01*
X187990476Y-113275952D02*
X188038095Y-113371190D01*
X188038095Y-113371190D02*
X188038095Y-113656904D01*
X188038095Y-113656904D02*
X187990476Y-113752142D01*
X187990476Y-113752142D02*
X187942857Y-113799761D01*
X187942857Y-113799761D02*
X187847619Y-113847380D01*
X187847619Y-113847380D02*
X187704762Y-113847380D01*
X188466667Y-113180714D02*
X188466667Y-114180714D01*
X188466667Y-113228333D02*
X188561905Y-113180714D01*
X188561905Y-113180714D02*
X188752381Y-113180714D01*
X188752381Y-113180714D02*
X188847619Y-113228333D01*
X188847619Y-113228333D02*
X188895238Y-113275952D01*
X188895238Y-113275952D02*
X188942857Y-113371190D01*
X188942857Y-113371190D02*
X188942857Y-113656904D01*
X188942857Y-113656904D02*
X188895238Y-113752142D01*
X188895238Y-113752142D02*
X188847619Y-113799761D01*
X188847619Y-113799761D02*
X188752381Y-113847380D01*
X188752381Y-113847380D02*
X188561905Y-113847380D01*
X188561905Y-113847380D02*
X188466667Y-113799761D01*
X189371429Y-113466428D02*
X190133334Y-113466428D01*
X190609524Y-113180714D02*
X190609524Y-114180714D01*
X190609524Y-113228333D02*
X190704762Y-113180714D01*
X190704762Y-113180714D02*
X190895238Y-113180714D01*
X190895238Y-113180714D02*
X190990476Y-113228333D01*
X190990476Y-113228333D02*
X191038095Y-113275952D01*
X191038095Y-113275952D02*
X191085714Y-113371190D01*
X191085714Y-113371190D02*
X191085714Y-113656904D01*
X191085714Y-113656904D02*
X191038095Y-113752142D01*
X191038095Y-113752142D02*
X190990476Y-113799761D01*
X190990476Y-113799761D02*
X190895238Y-113847380D01*
X190895238Y-113847380D02*
X190704762Y-113847380D01*
X190704762Y-113847380D02*
X190609524Y-113799761D01*
X191657143Y-113847380D02*
X191561905Y-113799761D01*
X191561905Y-113799761D02*
X191514286Y-113704523D01*
X191514286Y-113704523D02*
X191514286Y-112847380D01*
X192466667Y-113847380D02*
X192466667Y-113323571D01*
X192466667Y-113323571D02*
X192419048Y-113228333D01*
X192419048Y-113228333D02*
X192323810Y-113180714D01*
X192323810Y-113180714D02*
X192133334Y-113180714D01*
X192133334Y-113180714D02*
X192038096Y-113228333D01*
X192466667Y-113799761D02*
X192371429Y-113847380D01*
X192371429Y-113847380D02*
X192133334Y-113847380D01*
X192133334Y-113847380D02*
X192038096Y-113799761D01*
X192038096Y-113799761D02*
X191990477Y-113704523D01*
X191990477Y-113704523D02*
X191990477Y-113609285D01*
X191990477Y-113609285D02*
X192038096Y-113514047D01*
X192038096Y-113514047D02*
X192133334Y-113466428D01*
X192133334Y-113466428D02*
X192371429Y-113466428D01*
X192371429Y-113466428D02*
X192466667Y-113418809D01*
X192800001Y-113180714D02*
X193180953Y-113180714D01*
X192942858Y-112847380D02*
X192942858Y-113704523D01*
X192942858Y-113704523D02*
X192990477Y-113799761D01*
X192990477Y-113799761D02*
X193085715Y-113847380D01*
X193085715Y-113847380D02*
X193180953Y-113847380D01*
X193895239Y-113799761D02*
X193800001Y-113847380D01*
X193800001Y-113847380D02*
X193609525Y-113847380D01*
X193609525Y-113847380D02*
X193514287Y-113799761D01*
X193514287Y-113799761D02*
X193466668Y-113704523D01*
X193466668Y-113704523D02*
X193466668Y-113323571D01*
X193466668Y-113323571D02*
X193514287Y-113228333D01*
X193514287Y-113228333D02*
X193609525Y-113180714D01*
X193609525Y-113180714D02*
X193800001Y-113180714D01*
X193800001Y-113180714D02*
X193895239Y-113228333D01*
X193895239Y-113228333D02*
X193942858Y-113323571D01*
X193942858Y-113323571D02*
X193942858Y-113418809D01*
X193942858Y-113418809D02*
X193466668Y-113514047D01*
X184371429Y-114800714D02*
X184609524Y-115467380D01*
X184609524Y-115467380D02*
X184847619Y-114800714D01*
X185419048Y-114467380D02*
X185514286Y-114467380D01*
X185514286Y-114467380D02*
X185609524Y-114515000D01*
X185609524Y-114515000D02*
X185657143Y-114562619D01*
X185657143Y-114562619D02*
X185704762Y-114657857D01*
X185704762Y-114657857D02*
X185752381Y-114848333D01*
X185752381Y-114848333D02*
X185752381Y-115086428D01*
X185752381Y-115086428D02*
X185704762Y-115276904D01*
X185704762Y-115276904D02*
X185657143Y-115372142D01*
X185657143Y-115372142D02*
X185609524Y-115419761D01*
X185609524Y-115419761D02*
X185514286Y-115467380D01*
X185514286Y-115467380D02*
X185419048Y-115467380D01*
X185419048Y-115467380D02*
X185323810Y-115419761D01*
X185323810Y-115419761D02*
X185276191Y-115372142D01*
X185276191Y-115372142D02*
X185228572Y-115276904D01*
X185228572Y-115276904D02*
X185180953Y-115086428D01*
X185180953Y-115086428D02*
X185180953Y-114848333D01*
X185180953Y-114848333D02*
X185228572Y-114657857D01*
X185228572Y-114657857D02*
X185276191Y-114562619D01*
X185276191Y-114562619D02*
X185323810Y-114515000D01*
X185323810Y-114515000D02*
X185419048Y-114467380D01*
X186180953Y-115372142D02*
X186228572Y-115419761D01*
X186228572Y-115419761D02*
X186180953Y-115467380D01*
X186180953Y-115467380D02*
X186133334Y-115419761D01*
X186133334Y-115419761D02*
X186180953Y-115372142D01*
X186180953Y-115372142D02*
X186180953Y-115467380D01*
X186561905Y-114467380D02*
X187180952Y-114467380D01*
X187180952Y-114467380D02*
X186847619Y-114848333D01*
X186847619Y-114848333D02*
X186990476Y-114848333D01*
X186990476Y-114848333D02*
X187085714Y-114895952D01*
X187085714Y-114895952D02*
X187133333Y-114943571D01*
X187133333Y-114943571D02*
X187180952Y-115038809D01*
X187180952Y-115038809D02*
X187180952Y-115276904D01*
X187180952Y-115276904D02*
X187133333Y-115372142D01*
X187133333Y-115372142D02*
X187085714Y-115419761D01*
X187085714Y-115419761D02*
X186990476Y-115467380D01*
X186990476Y-115467380D02*
X186704762Y-115467380D01*
X186704762Y-115467380D02*
X186609524Y-115419761D01*
X186609524Y-115419761D02*
X186561905Y-115372142D01*
X173871428Y-116420714D02*
X173871428Y-117230238D01*
X173871428Y-117230238D02*
X173823809Y-117325476D01*
X173823809Y-117325476D02*
X173776190Y-117373095D01*
X173776190Y-117373095D02*
X173680952Y-117420714D01*
X173680952Y-117420714D02*
X173538095Y-117420714D01*
X173538095Y-117420714D02*
X173442857Y-117373095D01*
X173871428Y-117039761D02*
X173776190Y-117087380D01*
X173776190Y-117087380D02*
X173585714Y-117087380D01*
X173585714Y-117087380D02*
X173490476Y-117039761D01*
X173490476Y-117039761D02*
X173442857Y-116992142D01*
X173442857Y-116992142D02*
X173395238Y-116896904D01*
X173395238Y-116896904D02*
X173395238Y-116611190D01*
X173395238Y-116611190D02*
X173442857Y-116515952D01*
X173442857Y-116515952D02*
X173490476Y-116468333D01*
X173490476Y-116468333D02*
X173585714Y-116420714D01*
X173585714Y-116420714D02*
X173776190Y-116420714D01*
X173776190Y-116420714D02*
X173871428Y-116468333D01*
X174347619Y-117087380D02*
X174347619Y-116420714D01*
X174347619Y-116087380D02*
X174300000Y-116135000D01*
X174300000Y-116135000D02*
X174347619Y-116182619D01*
X174347619Y-116182619D02*
X174395238Y-116135000D01*
X174395238Y-116135000D02*
X174347619Y-116087380D01*
X174347619Y-116087380D02*
X174347619Y-116182619D01*
X174680952Y-116420714D02*
X175061904Y-116420714D01*
X174823809Y-116087380D02*
X174823809Y-116944523D01*
X174823809Y-116944523D02*
X174871428Y-117039761D01*
X174871428Y-117039761D02*
X174966666Y-117087380D01*
X174966666Y-117087380D02*
X175061904Y-117087380D01*
X175395238Y-117087380D02*
X175395238Y-116087380D01*
X175823809Y-117087380D02*
X175823809Y-116563571D01*
X175823809Y-116563571D02*
X175776190Y-116468333D01*
X175776190Y-116468333D02*
X175680952Y-116420714D01*
X175680952Y-116420714D02*
X175538095Y-116420714D01*
X175538095Y-116420714D02*
X175442857Y-116468333D01*
X175442857Y-116468333D02*
X175395238Y-116515952D01*
X176728571Y-116420714D02*
X176728571Y-117087380D01*
X176300000Y-116420714D02*
X176300000Y-116944523D01*
X176300000Y-116944523D02*
X176347619Y-117039761D01*
X176347619Y-117039761D02*
X176442857Y-117087380D01*
X176442857Y-117087380D02*
X176585714Y-117087380D01*
X176585714Y-117087380D02*
X176680952Y-117039761D01*
X176680952Y-117039761D02*
X176728571Y-116992142D01*
X177204762Y-117087380D02*
X177204762Y-116087380D01*
X177204762Y-116468333D02*
X177300000Y-116420714D01*
X177300000Y-116420714D02*
X177490476Y-116420714D01*
X177490476Y-116420714D02*
X177585714Y-116468333D01*
X177585714Y-116468333D02*
X177633333Y-116515952D01*
X177633333Y-116515952D02*
X177680952Y-116611190D01*
X177680952Y-116611190D02*
X177680952Y-116896904D01*
X177680952Y-116896904D02*
X177633333Y-116992142D01*
X177633333Y-116992142D02*
X177585714Y-117039761D01*
X177585714Y-117039761D02*
X177490476Y-117087380D01*
X177490476Y-117087380D02*
X177300000Y-117087380D01*
X177300000Y-117087380D02*
X177204762Y-117039761D01*
X178109524Y-116992142D02*
X178157143Y-117039761D01*
X178157143Y-117039761D02*
X178109524Y-117087380D01*
X178109524Y-117087380D02*
X178061905Y-117039761D01*
X178061905Y-117039761D02*
X178109524Y-116992142D01*
X178109524Y-116992142D02*
X178109524Y-117087380D01*
X179014285Y-117039761D02*
X178919047Y-117087380D01*
X178919047Y-117087380D02*
X178728571Y-117087380D01*
X178728571Y-117087380D02*
X178633333Y-117039761D01*
X178633333Y-117039761D02*
X178585714Y-116992142D01*
X178585714Y-116992142D02*
X178538095Y-116896904D01*
X178538095Y-116896904D02*
X178538095Y-116611190D01*
X178538095Y-116611190D02*
X178585714Y-116515952D01*
X178585714Y-116515952D02*
X178633333Y-116468333D01*
X178633333Y-116468333D02*
X178728571Y-116420714D01*
X178728571Y-116420714D02*
X178919047Y-116420714D01*
X178919047Y-116420714D02*
X179014285Y-116468333D01*
X179585714Y-117087380D02*
X179490476Y-117039761D01*
X179490476Y-117039761D02*
X179442857Y-116992142D01*
X179442857Y-116992142D02*
X179395238Y-116896904D01*
X179395238Y-116896904D02*
X179395238Y-116611190D01*
X179395238Y-116611190D02*
X179442857Y-116515952D01*
X179442857Y-116515952D02*
X179490476Y-116468333D01*
X179490476Y-116468333D02*
X179585714Y-116420714D01*
X179585714Y-116420714D02*
X179728571Y-116420714D01*
X179728571Y-116420714D02*
X179823809Y-116468333D01*
X179823809Y-116468333D02*
X179871428Y-116515952D01*
X179871428Y-116515952D02*
X179919047Y-116611190D01*
X179919047Y-116611190D02*
X179919047Y-116896904D01*
X179919047Y-116896904D02*
X179871428Y-116992142D01*
X179871428Y-116992142D02*
X179823809Y-117039761D01*
X179823809Y-117039761D02*
X179728571Y-117087380D01*
X179728571Y-117087380D02*
X179585714Y-117087380D01*
X180347619Y-117087380D02*
X180347619Y-116420714D01*
X180347619Y-116515952D02*
X180395238Y-116468333D01*
X180395238Y-116468333D02*
X180490476Y-116420714D01*
X180490476Y-116420714D02*
X180633333Y-116420714D01*
X180633333Y-116420714D02*
X180728571Y-116468333D01*
X180728571Y-116468333D02*
X180776190Y-116563571D01*
X180776190Y-116563571D02*
X180776190Y-117087380D01*
X180776190Y-116563571D02*
X180823809Y-116468333D01*
X180823809Y-116468333D02*
X180919047Y-116420714D01*
X180919047Y-116420714D02*
X181061904Y-116420714D01*
X181061904Y-116420714D02*
X181157143Y-116468333D01*
X181157143Y-116468333D02*
X181204762Y-116563571D01*
X181204762Y-116563571D02*
X181204762Y-117087380D01*
X182395237Y-116039761D02*
X181538095Y-117325476D01*
X182728571Y-117087380D02*
X182728571Y-116087380D01*
X182728571Y-116468333D02*
X182823809Y-116420714D01*
X182823809Y-116420714D02*
X183014285Y-116420714D01*
X183014285Y-116420714D02*
X183109523Y-116468333D01*
X183109523Y-116468333D02*
X183157142Y-116515952D01*
X183157142Y-116515952D02*
X183204761Y-116611190D01*
X183204761Y-116611190D02*
X183204761Y-116896904D01*
X183204761Y-116896904D02*
X183157142Y-116992142D01*
X183157142Y-116992142D02*
X183109523Y-117039761D01*
X183109523Y-117039761D02*
X183014285Y-117087380D01*
X183014285Y-117087380D02*
X182823809Y-117087380D01*
X182823809Y-117087380D02*
X182728571Y-117039761D01*
X183585714Y-117039761D02*
X183680952Y-117087380D01*
X183680952Y-117087380D02*
X183871428Y-117087380D01*
X183871428Y-117087380D02*
X183966666Y-117039761D01*
X183966666Y-117039761D02*
X184014285Y-116944523D01*
X184014285Y-116944523D02*
X184014285Y-116896904D01*
X184014285Y-116896904D02*
X183966666Y-116801666D01*
X183966666Y-116801666D02*
X183871428Y-116754047D01*
X183871428Y-116754047D02*
X183728571Y-116754047D01*
X183728571Y-116754047D02*
X183633333Y-116706428D01*
X183633333Y-116706428D02*
X183585714Y-116611190D01*
X183585714Y-116611190D02*
X183585714Y-116563571D01*
X183585714Y-116563571D02*
X183633333Y-116468333D01*
X183633333Y-116468333D02*
X183728571Y-116420714D01*
X183728571Y-116420714D02*
X183871428Y-116420714D01*
X183871428Y-116420714D02*
X183966666Y-116468333D01*
X184871428Y-117039761D02*
X184776190Y-117087380D01*
X184776190Y-117087380D02*
X184585714Y-117087380D01*
X184585714Y-117087380D02*
X184490476Y-117039761D01*
X184490476Y-117039761D02*
X184442857Y-116992142D01*
X184442857Y-116992142D02*
X184395238Y-116896904D01*
X184395238Y-116896904D02*
X184395238Y-116611190D01*
X184395238Y-116611190D02*
X184442857Y-116515952D01*
X184442857Y-116515952D02*
X184490476Y-116468333D01*
X184490476Y-116468333D02*
X184585714Y-116420714D01*
X184585714Y-116420714D02*
X184776190Y-116420714D01*
X184776190Y-116420714D02*
X184871428Y-116468333D01*
X185300000Y-117087380D02*
X185300000Y-116087380D01*
X185728571Y-117087380D02*
X185728571Y-116563571D01*
X185728571Y-116563571D02*
X185680952Y-116468333D01*
X185680952Y-116468333D02*
X185585714Y-116420714D01*
X185585714Y-116420714D02*
X185442857Y-116420714D01*
X185442857Y-116420714D02*
X185347619Y-116468333D01*
X185347619Y-116468333D02*
X185300000Y-116515952D01*
X186109524Y-116420714D02*
X186300000Y-117087380D01*
X186300000Y-117087380D02*
X186490476Y-116611190D01*
X186490476Y-116611190D02*
X186680952Y-117087380D01*
X186680952Y-117087380D02*
X186871428Y-116420714D01*
X187252381Y-117087380D02*
X187252381Y-116420714D01*
X187252381Y-116087380D02*
X187204762Y-116135000D01*
X187204762Y-116135000D02*
X187252381Y-116182619D01*
X187252381Y-116182619D02*
X187300000Y-116135000D01*
X187300000Y-116135000D02*
X187252381Y-116087380D01*
X187252381Y-116087380D02*
X187252381Y-116182619D01*
X187728571Y-116420714D02*
X187728571Y-117087380D01*
X187728571Y-116515952D02*
X187776190Y-116468333D01*
X187776190Y-116468333D02*
X187871428Y-116420714D01*
X187871428Y-116420714D02*
X188014285Y-116420714D01*
X188014285Y-116420714D02*
X188109523Y-116468333D01*
X188109523Y-116468333D02*
X188157142Y-116563571D01*
X188157142Y-116563571D02*
X188157142Y-117087380D01*
X189061904Y-117087380D02*
X189061904Y-116087380D01*
X189061904Y-117039761D02*
X188966666Y-117087380D01*
X188966666Y-117087380D02*
X188776190Y-117087380D01*
X188776190Y-117087380D02*
X188680952Y-117039761D01*
X188680952Y-117039761D02*
X188633333Y-116992142D01*
X188633333Y-116992142D02*
X188585714Y-116896904D01*
X188585714Y-116896904D02*
X188585714Y-116611190D01*
X188585714Y-116611190D02*
X188633333Y-116515952D01*
X188633333Y-116515952D02*
X188680952Y-116468333D01*
X188680952Y-116468333D02*
X188776190Y-116420714D01*
X188776190Y-116420714D02*
X188966666Y-116420714D01*
X188966666Y-116420714D02*
X189061904Y-116468333D01*
X190252380Y-116039761D02*
X189395238Y-117325476D01*
X190585714Y-117087380D02*
X190585714Y-116087380D01*
X190680952Y-116706428D02*
X190966666Y-117087380D01*
X190966666Y-116420714D02*
X190585714Y-116801666D01*
X191776190Y-117039761D02*
X191680952Y-117087380D01*
X191680952Y-117087380D02*
X191490476Y-117087380D01*
X191490476Y-117087380D02*
X191395238Y-117039761D01*
X191395238Y-117039761D02*
X191347619Y-116944523D01*
X191347619Y-116944523D02*
X191347619Y-116563571D01*
X191347619Y-116563571D02*
X191395238Y-116468333D01*
X191395238Y-116468333D02*
X191490476Y-116420714D01*
X191490476Y-116420714D02*
X191680952Y-116420714D01*
X191680952Y-116420714D02*
X191776190Y-116468333D01*
X191776190Y-116468333D02*
X191823809Y-116563571D01*
X191823809Y-116563571D02*
X191823809Y-116658809D01*
X191823809Y-116658809D02*
X191347619Y-116754047D01*
X192157143Y-116420714D02*
X192395238Y-117087380D01*
X192633333Y-116420714D02*
X192395238Y-117087380D01*
X192395238Y-117087380D02*
X192300000Y-117325476D01*
X192300000Y-117325476D02*
X192252381Y-117373095D01*
X192252381Y-117373095D02*
X192157143Y-117420714D01*
X193014286Y-116706428D02*
X193776191Y-116706428D01*
X194252381Y-117087380D02*
X194252381Y-116420714D01*
X194252381Y-116611190D02*
X194300000Y-116515952D01*
X194300000Y-116515952D02*
X194347619Y-116468333D01*
X194347619Y-116468333D02*
X194442857Y-116420714D01*
X194442857Y-116420714D02*
X194538095Y-116420714D01*
X194871429Y-117087380D02*
X194871429Y-116420714D01*
X194871429Y-116087380D02*
X194823810Y-116135000D01*
X194823810Y-116135000D02*
X194871429Y-116182619D01*
X194871429Y-116182619D02*
X194919048Y-116135000D01*
X194919048Y-116135000D02*
X194871429Y-116087380D01*
X194871429Y-116087380D02*
X194871429Y-116182619D01*
X195347619Y-116420714D02*
X195347619Y-117420714D01*
X195347619Y-116468333D02*
X195442857Y-116420714D01*
X195442857Y-116420714D02*
X195633333Y-116420714D01*
X195633333Y-116420714D02*
X195728571Y-116468333D01*
X195728571Y-116468333D02*
X195776190Y-116515952D01*
X195776190Y-116515952D02*
X195823809Y-116611190D01*
X195823809Y-116611190D02*
X195823809Y-116896904D01*
X195823809Y-116896904D02*
X195776190Y-116992142D01*
X195776190Y-116992142D02*
X195728571Y-117039761D01*
X195728571Y-117039761D02*
X195633333Y-117087380D01*
X195633333Y-117087380D02*
X195442857Y-117087380D01*
X195442857Y-117087380D02*
X195347619Y-117039761D01*
X196252381Y-116420714D02*
X196252381Y-117420714D01*
X196252381Y-116468333D02*
X196347619Y-116420714D01*
X196347619Y-116420714D02*
X196538095Y-116420714D01*
X196538095Y-116420714D02*
X196633333Y-116468333D01*
X196633333Y-116468333D02*
X196680952Y-116515952D01*
X196680952Y-116515952D02*
X196728571Y-116611190D01*
X196728571Y-116611190D02*
X196728571Y-116896904D01*
X196728571Y-116896904D02*
X196680952Y-116992142D01*
X196680952Y-116992142D02*
X196633333Y-117039761D01*
X196633333Y-117039761D02*
X196538095Y-117087380D01*
X196538095Y-117087380D02*
X196347619Y-117087380D01*
X196347619Y-117087380D02*
X196252381Y-117039761D01*
X197538095Y-117039761D02*
X197442857Y-117087380D01*
X197442857Y-117087380D02*
X197252381Y-117087380D01*
X197252381Y-117087380D02*
X197157143Y-117039761D01*
X197157143Y-117039761D02*
X197109524Y-116944523D01*
X197109524Y-116944523D02*
X197109524Y-116563571D01*
X197109524Y-116563571D02*
X197157143Y-116468333D01*
X197157143Y-116468333D02*
X197252381Y-116420714D01*
X197252381Y-116420714D02*
X197442857Y-116420714D01*
X197442857Y-116420714D02*
X197538095Y-116468333D01*
X197538095Y-116468333D02*
X197585714Y-116563571D01*
X197585714Y-116563571D02*
X197585714Y-116658809D01*
X197585714Y-116658809D02*
X197109524Y-116754047D01*
X198014286Y-117087380D02*
X198014286Y-116420714D01*
X198014286Y-116611190D02*
X198061905Y-116515952D01*
X198061905Y-116515952D02*
X198109524Y-116468333D01*
X198109524Y-116468333D02*
X198204762Y-116420714D01*
X198204762Y-116420714D02*
X198300000Y-116420714D01*
X124080951Y-114586180D02*
X124080951Y-115300466D01*
X124080951Y-115300466D02*
X124033332Y-115443323D01*
X124033332Y-115443323D02*
X123938094Y-115538561D01*
X123938094Y-115538561D02*
X123795237Y-115586180D01*
X123795237Y-115586180D02*
X123699999Y-115586180D01*
X125033332Y-115586180D02*
X124557142Y-115586180D01*
X124557142Y-115586180D02*
X124557142Y-114586180D01*
X125938094Y-115490942D02*
X125890475Y-115538561D01*
X125890475Y-115538561D02*
X125747618Y-115586180D01*
X125747618Y-115586180D02*
X125652380Y-115586180D01*
X125652380Y-115586180D02*
X125509523Y-115538561D01*
X125509523Y-115538561D02*
X125414285Y-115443323D01*
X125414285Y-115443323D02*
X125366666Y-115348085D01*
X125366666Y-115348085D02*
X125319047Y-115157609D01*
X125319047Y-115157609D02*
X125319047Y-115014752D01*
X125319047Y-115014752D02*
X125366666Y-114824276D01*
X125366666Y-114824276D02*
X125414285Y-114729038D01*
X125414285Y-114729038D02*
X125509523Y-114633800D01*
X125509523Y-114633800D02*
X125652380Y-114586180D01*
X125652380Y-114586180D02*
X125747618Y-114586180D01*
X125747618Y-114586180D02*
X125890475Y-114633800D01*
X125890475Y-114633800D02*
X125938094Y-114681419D01*
X126652380Y-114586180D02*
X126652380Y-115300466D01*
X126652380Y-115300466D02*
X126604761Y-115443323D01*
X126604761Y-115443323D02*
X126509523Y-115538561D01*
X126509523Y-115538561D02*
X126366666Y-115586180D01*
X126366666Y-115586180D02*
X126271428Y-115586180D01*
X127604761Y-115586180D02*
X127128571Y-115586180D01*
X127128571Y-115586180D02*
X127128571Y-114586180D01*
X128509523Y-115490942D02*
X128461904Y-115538561D01*
X128461904Y-115538561D02*
X128319047Y-115586180D01*
X128319047Y-115586180D02*
X128223809Y-115586180D01*
X128223809Y-115586180D02*
X128080952Y-115538561D01*
X128080952Y-115538561D02*
X127985714Y-115443323D01*
X127985714Y-115443323D02*
X127938095Y-115348085D01*
X127938095Y-115348085D02*
X127890476Y-115157609D01*
X127890476Y-115157609D02*
X127890476Y-115014752D01*
X127890476Y-115014752D02*
X127938095Y-114824276D01*
X127938095Y-114824276D02*
X127985714Y-114729038D01*
X127985714Y-114729038D02*
X128080952Y-114633800D01*
X128080952Y-114633800D02*
X128223809Y-114586180D01*
X128223809Y-114586180D02*
X128319047Y-114586180D01*
X128319047Y-114586180D02*
X128461904Y-114633800D01*
X128461904Y-114633800D02*
X128509523Y-114681419D01*
X129223809Y-114586180D02*
X129223809Y-115300466D01*
X129223809Y-115300466D02*
X129176190Y-115443323D01*
X129176190Y-115443323D02*
X129080952Y-115538561D01*
X129080952Y-115538561D02*
X128938095Y-115586180D01*
X128938095Y-115586180D02*
X128842857Y-115586180D01*
X130176190Y-115586180D02*
X129700000Y-115586180D01*
X129700000Y-115586180D02*
X129700000Y-114586180D01*
X131080952Y-115490942D02*
X131033333Y-115538561D01*
X131033333Y-115538561D02*
X130890476Y-115586180D01*
X130890476Y-115586180D02*
X130795238Y-115586180D01*
X130795238Y-115586180D02*
X130652381Y-115538561D01*
X130652381Y-115538561D02*
X130557143Y-115443323D01*
X130557143Y-115443323D02*
X130509524Y-115348085D01*
X130509524Y-115348085D02*
X130461905Y-115157609D01*
X130461905Y-115157609D02*
X130461905Y-115014752D01*
X130461905Y-115014752D02*
X130509524Y-114824276D01*
X130509524Y-114824276D02*
X130557143Y-114729038D01*
X130557143Y-114729038D02*
X130652381Y-114633800D01*
X130652381Y-114633800D02*
X130795238Y-114586180D01*
X130795238Y-114586180D02*
X130890476Y-114586180D01*
X130890476Y-114586180D02*
X131033333Y-114633800D01*
X131033333Y-114633800D02*
X131080952Y-114681419D01*
X131795238Y-114586180D02*
X131795238Y-115300466D01*
X131795238Y-115300466D02*
X131747619Y-115443323D01*
X131747619Y-115443323D02*
X131652381Y-115538561D01*
X131652381Y-115538561D02*
X131509524Y-115586180D01*
X131509524Y-115586180D02*
X131414286Y-115586180D01*
X132747619Y-115586180D02*
X132271429Y-115586180D01*
X132271429Y-115586180D02*
X132271429Y-114586180D01*
X133652381Y-115490942D02*
X133604762Y-115538561D01*
X133604762Y-115538561D02*
X133461905Y-115586180D01*
X133461905Y-115586180D02*
X133366667Y-115586180D01*
X133366667Y-115586180D02*
X133223810Y-115538561D01*
X133223810Y-115538561D02*
X133128572Y-115443323D01*
X133128572Y-115443323D02*
X133080953Y-115348085D01*
X133080953Y-115348085D02*
X133033334Y-115157609D01*
X133033334Y-115157609D02*
X133033334Y-115014752D01*
X133033334Y-115014752D02*
X133080953Y-114824276D01*
X133080953Y-114824276D02*
X133128572Y-114729038D01*
X133128572Y-114729038D02*
X133223810Y-114633800D01*
X133223810Y-114633800D02*
X133366667Y-114586180D01*
X133366667Y-114586180D02*
X133461905Y-114586180D01*
X133461905Y-114586180D02*
X133604762Y-114633800D01*
X133604762Y-114633800D02*
X133652381Y-114681419D01*
X-60707652Y-66877965D02*
X-61280072Y-66776950D01*
X-61111713Y-67282026D02*
X-61818820Y-66574919D01*
X-61818820Y-66574919D02*
X-61549446Y-66305545D01*
X-61549446Y-66305545D02*
X-61448430Y-66271873D01*
X-61448430Y-66271873D02*
X-61381087Y-66271873D01*
X-61381087Y-66271873D02*
X-61280072Y-66305545D01*
X-61280072Y-66305545D02*
X-61179056Y-66406560D01*
X-61179056Y-66406560D02*
X-61145385Y-66507576D01*
X-61145385Y-66507576D02*
X-61145385Y-66574919D01*
X-61145385Y-66574919D02*
X-61179056Y-66675934D01*
X-61179056Y-66675934D02*
X-61448430Y-66945309D01*
X-60774995Y-66204530D02*
X-60539293Y-65968828D01*
X-60067889Y-66238202D02*
X-60404606Y-66574919D01*
X-60404606Y-66574919D02*
X-61111713Y-65867812D01*
X-61111713Y-65867812D02*
X-60774995Y-65531095D01*
X-59899530Y-65329064D02*
X-60135232Y-65564767D01*
X-59764843Y-65935156D02*
X-60471950Y-65228049D01*
X-60471950Y-65228049D02*
X-60135232Y-64891332D01*
X-59764843Y-64520942D02*
X-59596484Y-64689301D01*
X-59832186Y-64790316D02*
X-59596484Y-64689301D01*
X-59596484Y-64689301D02*
X-59495469Y-64453599D01*
X-59562812Y-64925003D02*
X-59596484Y-64689301D01*
X-59596484Y-64689301D02*
X-59360782Y-64722973D01*
X-59226094Y-63982194D02*
X-59057736Y-64150553D01*
X-59293438Y-64251568D02*
X-59057736Y-64150553D01*
X-59057736Y-64150553D02*
X-58956720Y-63914851D01*
X-59024064Y-64386255D02*
X-59057736Y-64150553D01*
X-59057736Y-64150553D02*
X-58822033Y-64184225D01*
%LPC*%
D11*
X21550000Y-76200000D03*
X138125000Y-21550000D03*
X100000000Y-130850000D03*
X302300000Y-76200000D03*
X38100000Y-30300000D03*
X285700000Y-126400000D03*
X38100000Y-126400000D03*
X285700000Y-30300000D03*
X223800000Y-21550000D03*
X219100000Y-130850000D03*
M02*
