G04 #@! TF.GenerationSoftware,KiCad,Pcbnew,(7.0.0-0)*
G04 #@! TF.CreationDate,2023-04-23T21:56:02+09:00*
G04 #@! TF.ProjectId,top-plate,746f702d-706c-4617-9465-2e6b69636164,rev?*
G04 #@! TF.SameCoordinates,Original*
G04 #@! TF.FileFunction,Profile,NP*
%FSLAX46Y46*%
G04 Gerber Fmt 4.6, Leading zero omitted, Abs format (unit mm)*
G04 Created by KiCad (PCBNEW (7.0.0-0)) date 2023-04-23 21:56:02*
%MOMM*%
%LPD*%
G01*
G04 APERTURE LIST*
G04 #@! TA.AperFunction,Profile*
%ADD10C,0.100000*%
G04 #@! TD*
G04 #@! TA.AperFunction,Profile*
%ADD11C,0.120000*%
G04 #@! TD*
G04 APERTURE END LIST*
D10*
X302418750Y-133350050D02*
X21431250Y-133350050D01*
X304799950Y-21431300D02*
G75*
G03*
X302418750Y-19050050I-2381250J0D01*
G01*
X19050000Y-130968800D02*
X19050000Y-21431300D01*
X21431250Y-19050050D02*
X302418750Y-19050050D01*
X21431250Y-19050050D02*
G75*
G03*
X19050000Y-21431300I0J-2381250D01*
G01*
X19050000Y-130968800D02*
G75*
G03*
X21431250Y-133350050I2381250J0D01*
G01*
X304800000Y-21431300D02*
X304800000Y-130968800D01*
X302418750Y-133350100D02*
G75*
G03*
X304800000Y-130968800I-150J2381400D01*
G01*
X269225000Y-117325050D02*
X269225000Y-130315974D01*
X269725000Y-116825050D02*
X282725000Y-116825050D01*
X269725000Y-130815974D02*
X282725000Y-130825050D01*
X283225000Y-117325050D02*
X283225000Y-130325050D01*
X269725000Y-116825050D02*
G75*
G03*
X269225000Y-117325050I1J-500001D01*
G01*
X269225000Y-130315974D02*
G75*
G03*
X269725000Y-130815974I500001J1D01*
G01*
X283225000Y-117325050D02*
G75*
G03*
X282725000Y-116825050I-500000J0D01*
G01*
X282725000Y-130825050D02*
G75*
G03*
X283225000Y-130325050I0J500000D01*
G01*
X223981250Y-117325050D02*
X223981250Y-130315974D01*
X224481250Y-116825050D02*
X237481250Y-116825050D01*
X224481250Y-130815974D02*
X237481250Y-130825050D01*
X237981250Y-117325050D02*
X237981250Y-130325050D01*
X224481250Y-116825050D02*
G75*
G03*
X223981250Y-117325050I1J-500001D01*
G01*
X223981250Y-130315974D02*
G75*
G03*
X224481250Y-130815974I500001J1D01*
G01*
X237981250Y-117325050D02*
G75*
G03*
X237481250Y-116825050I-500000J0D01*
G01*
X237481250Y-130825050D02*
G75*
G03*
X237981250Y-130325050I0J500000D01*
G01*
X83487500Y-98275050D02*
X83487500Y-111265974D01*
X83987500Y-97775050D02*
X96987500Y-97775050D01*
X83987500Y-111765974D02*
X96987500Y-111775050D01*
X97487500Y-98275050D02*
X97487500Y-111275050D01*
X83987500Y-97775050D02*
G75*
G03*
X83487500Y-98275050I1J-500001D01*
G01*
X83487500Y-111265974D02*
G75*
G03*
X83987500Y-111765974I500001J1D01*
G01*
X97487500Y-98275050D02*
G75*
G03*
X96987500Y-97775050I-500000J0D01*
G01*
X96987500Y-111775050D02*
G75*
G03*
X97487500Y-111275050I0J500000D01*
G01*
X93012500Y-79225050D02*
X93012500Y-92215974D01*
X93512500Y-78725050D02*
X106512500Y-78725050D01*
X93512500Y-92715974D02*
X106512500Y-92725050D01*
X107012500Y-79225050D02*
X107012500Y-92225050D01*
X93512500Y-78725050D02*
G75*
G03*
X93012500Y-79225050I1J-500001D01*
G01*
X93012500Y-92215974D02*
G75*
G03*
X93512500Y-92715974I500001J1D01*
G01*
X107012500Y-79225050D02*
G75*
G03*
X106512500Y-78725050I-500000J0D01*
G01*
X106512500Y-92725050D02*
G75*
G03*
X107012500Y-92225050I0J500000D01*
G01*
X173975000Y-41125050D02*
X173975000Y-54115974D01*
X174475000Y-40625050D02*
X187475000Y-40625050D01*
X174475000Y-54615974D02*
X187475000Y-54625050D01*
X187975000Y-41125050D02*
X187975000Y-54125050D01*
X174475000Y-40625050D02*
G75*
G03*
X173975000Y-41125050I1J-500001D01*
G01*
X173975000Y-54115974D02*
G75*
G03*
X174475000Y-54615974I500001J1D01*
G01*
X187975000Y-41125050D02*
G75*
G03*
X187475000Y-40625050I-500000J0D01*
G01*
X187475000Y-54625050D02*
G75*
G03*
X187975000Y-54125050I0J500000D01*
G01*
X231125000Y-41125050D02*
X231125000Y-54115974D01*
X231625000Y-40625050D02*
X244625000Y-40625050D01*
X231625000Y-54615974D02*
X244625000Y-54625050D01*
X245125000Y-41125050D02*
X245125000Y-54125050D01*
X231625000Y-40625050D02*
G75*
G03*
X231125000Y-41125050I1J-500001D01*
G01*
X231125000Y-54115974D02*
G75*
G03*
X231625000Y-54615974I500001J1D01*
G01*
X245125000Y-41125050D02*
G75*
G03*
X244625000Y-40625050I-500000J0D01*
G01*
X244625000Y-54625050D02*
G75*
G03*
X245125000Y-54125050I0J500000D01*
G01*
X288275000Y-22075050D02*
X288275000Y-35065974D01*
X288775000Y-21575050D02*
X301775000Y-21575050D01*
X288775000Y-35565974D02*
X301775000Y-35575050D01*
X302275000Y-22075050D02*
X302275000Y-35075050D01*
X288775000Y-21575050D02*
G75*
G03*
X288275000Y-22075050I1J-500001D01*
G01*
X288275000Y-35065974D02*
G75*
G03*
X288775000Y-35565974I500001J1D01*
G01*
X302275000Y-22075050D02*
G75*
G03*
X301775000Y-21575050I-500000J0D01*
G01*
X301775000Y-35575050D02*
G75*
G03*
X302275000Y-35075050I0J500000D01*
G01*
X288275000Y-117325050D02*
X288275000Y-130315974D01*
X288775000Y-116825050D02*
X301775000Y-116825050D01*
X288775000Y-130815974D02*
X301775000Y-130825050D01*
X302275000Y-117325050D02*
X302275000Y-130325050D01*
X288775000Y-116825050D02*
G75*
G03*
X288275000Y-117325050I1J-500001D01*
G01*
X288275000Y-130315974D02*
G75*
G03*
X288775000Y-130815974I500001J1D01*
G01*
X302275000Y-117325050D02*
G75*
G03*
X301775000Y-116825050I-500000J0D01*
G01*
X301775000Y-130825050D02*
G75*
G03*
X302275000Y-130325050I0J500000D01*
G01*
X97775000Y-41125050D02*
X97775000Y-54115974D01*
X98275000Y-40625050D02*
X111275000Y-40625050D01*
X98275000Y-54615974D02*
X111275000Y-54625050D01*
X111775000Y-41125050D02*
X111775000Y-54125050D01*
X98275000Y-40625050D02*
G75*
G03*
X97775000Y-41125050I1J-500001D01*
G01*
X97775000Y-54115974D02*
G75*
G03*
X98275000Y-54615974I500001J1D01*
G01*
X111775000Y-41125050D02*
G75*
G03*
X111275000Y-40625050I-500000J0D01*
G01*
X111275000Y-54625050D02*
G75*
G03*
X111775000Y-54125050I0J500000D01*
G01*
X116825000Y-22075050D02*
X116825000Y-35065974D01*
X117325000Y-21575050D02*
X130325000Y-21575050D01*
X117325000Y-35565974D02*
X130325000Y-35575050D01*
X130825000Y-22075050D02*
X130825000Y-35075050D01*
X117325000Y-21575050D02*
G75*
G03*
X116825000Y-22075050I1J-500001D01*
G01*
X116825000Y-35065974D02*
G75*
G03*
X117325000Y-35565974I500001J1D01*
G01*
X130825000Y-22075050D02*
G75*
G03*
X130325000Y-21575050I-500000J0D01*
G01*
X130325000Y-35575050D02*
G75*
G03*
X130825000Y-35075050I0J500000D01*
G01*
X88250000Y-60175050D02*
X88250000Y-73165974D01*
X88750000Y-59675050D02*
X101750000Y-59675050D01*
X88750000Y-73665974D02*
X101750000Y-73675050D01*
X102250000Y-60175050D02*
X102250000Y-73175050D01*
X88750000Y-59675050D02*
G75*
G03*
X88250000Y-60175050I1J-500001D01*
G01*
X88250000Y-73165974D02*
G75*
G03*
X88750000Y-73665974I500001J1D01*
G01*
X102250000Y-60175050D02*
G75*
G03*
X101750000Y-59675050I-500000J0D01*
G01*
X101750000Y-73675050D02*
G75*
G03*
X102250000Y-73175050I0J500000D01*
G01*
X216837500Y-98275050D02*
X216837500Y-111265974D01*
X217337500Y-97775050D02*
X230337500Y-97775050D01*
X217337500Y-111765974D02*
X230337500Y-111775050D01*
X230837500Y-98275050D02*
X230837500Y-111275050D01*
X217337500Y-97775050D02*
G75*
G03*
X216837500Y-98275050I1J-500001D01*
G01*
X216837500Y-111265974D02*
G75*
G03*
X217337500Y-111765974I500001J1D01*
G01*
X230837500Y-98275050D02*
G75*
G03*
X230337500Y-97775050I-500000J0D01*
G01*
X230337500Y-111775050D02*
G75*
G03*
X230837500Y-111275050I0J500000D01*
G01*
X59675000Y-22075050D02*
X59675000Y-35065974D01*
X60175000Y-21575050D02*
X73175000Y-21575050D01*
X60175000Y-35565974D02*
X73175000Y-35575050D01*
X73675000Y-22075050D02*
X73675000Y-35075050D01*
X60175000Y-21575050D02*
G75*
G03*
X59675000Y-22075050I1J-500001D01*
G01*
X59675000Y-35065974D02*
G75*
G03*
X60175000Y-35565974I500001J1D01*
G01*
X73675000Y-22075050D02*
G75*
G03*
X73175000Y-21575050I-500000J0D01*
G01*
X73175000Y-35575050D02*
G75*
G03*
X73675000Y-35075050I0J500000D01*
G01*
X154925000Y-41125050D02*
X154925000Y-54115974D01*
X155425000Y-40625050D02*
X168425000Y-40625050D01*
X155425000Y-54615974D02*
X168425000Y-54625050D01*
X168925000Y-41125050D02*
X168925000Y-54125050D01*
X155425000Y-40625050D02*
G75*
G03*
X154925000Y-41125050I1J-500001D01*
G01*
X154925000Y-54115974D02*
G75*
G03*
X155425000Y-54615974I500001J1D01*
G01*
X168925000Y-41125050D02*
G75*
G03*
X168425000Y-40625050I-500000J0D01*
G01*
X168425000Y-54625050D02*
G75*
G03*
X168925000Y-54125050I0J500000D01*
G01*
X140637500Y-98275050D02*
X140637500Y-111265974D01*
X141137500Y-97775050D02*
X154137500Y-97775050D01*
X141137500Y-111765974D02*
X154137500Y-111775050D01*
X154637500Y-98275050D02*
X154637500Y-111275050D01*
X141137500Y-97775050D02*
G75*
G03*
X140637500Y-98275050I1J-500001D01*
G01*
X140637500Y-111265974D02*
G75*
G03*
X141137500Y-111765974I500001J1D01*
G01*
X154637500Y-98275050D02*
G75*
G03*
X154137500Y-97775050I-500000J0D01*
G01*
X154137500Y-111775050D02*
G75*
G03*
X154637500Y-111275050I0J500000D01*
G01*
X226362500Y-79225050D02*
X226362500Y-92215974D01*
X226862500Y-78725050D02*
X239862500Y-78725050D01*
X226862500Y-92715974D02*
X239862500Y-92725050D01*
X240362500Y-79225050D02*
X240362500Y-92225050D01*
X226862500Y-78725050D02*
G75*
G03*
X226362500Y-79225050I1J-500001D01*
G01*
X226362500Y-92215974D02*
G75*
G03*
X226862500Y-92715974I500001J1D01*
G01*
X240362500Y-79225050D02*
G75*
G03*
X239862500Y-78725050I-500000J0D01*
G01*
X239862500Y-92725050D02*
G75*
G03*
X240362500Y-92225050I0J500000D01*
G01*
X250175000Y-117325050D02*
X250175000Y-130315974D01*
X250675000Y-116825050D02*
X263675000Y-116825050D01*
X250675000Y-130815974D02*
X263675000Y-130825050D01*
X264175000Y-117325050D02*
X264175000Y-130325050D01*
X250675000Y-116825050D02*
G75*
G03*
X250175000Y-117325050I1J-500001D01*
G01*
X250175000Y-130315974D02*
G75*
G03*
X250675000Y-130815974I500001J1D01*
G01*
X264175000Y-117325050D02*
G75*
G03*
X263675000Y-116825050I-500000J0D01*
G01*
X263675000Y-130825050D02*
G75*
G03*
X264175000Y-130325050I0J500000D01*
G01*
X169212500Y-79225050D02*
X169212500Y-92215974D01*
X169712500Y-78725050D02*
X182712500Y-78725050D01*
X169712500Y-92715974D02*
X182712500Y-92725050D01*
X183212500Y-79225050D02*
X183212500Y-92225050D01*
X169712500Y-78725050D02*
G75*
G03*
X169212500Y-79225050I1J-500001D01*
G01*
X169212500Y-92215974D02*
G75*
G03*
X169712500Y-92715974I500001J1D01*
G01*
X183212500Y-79225050D02*
G75*
G03*
X182712500Y-78725050I-500000J0D01*
G01*
X182712500Y-92725050D02*
G75*
G03*
X183212500Y-92225050I0J500000D01*
G01*
X231125000Y-22075050D02*
X231125000Y-35065974D01*
X231625000Y-21575050D02*
X244625000Y-21575050D01*
X231625000Y-35565974D02*
X244625000Y-35575050D01*
X245125000Y-22075050D02*
X245125000Y-35075050D01*
X231625000Y-21575050D02*
G75*
G03*
X231125000Y-22075050I1J-500001D01*
G01*
X231125000Y-35065974D02*
G75*
G03*
X231625000Y-35565974I500001J1D01*
G01*
X245125000Y-22075050D02*
G75*
G03*
X244625000Y-21575050I-500000J0D01*
G01*
X244625000Y-35575050D02*
G75*
G03*
X245125000Y-35075050I0J500000D01*
G01*
X145400000Y-60175050D02*
X145400000Y-73165974D01*
X145900000Y-59675050D02*
X158900000Y-59675050D01*
X145900000Y-73665974D02*
X158900000Y-73675050D01*
X159400000Y-60175050D02*
X159400000Y-73175050D01*
X145900000Y-59675050D02*
G75*
G03*
X145400000Y-60175050I1J-500001D01*
G01*
X145400000Y-73165974D02*
G75*
G03*
X145900000Y-73665974I500001J1D01*
G01*
X159400000Y-60175050D02*
G75*
G03*
X158900000Y-59675050I-500000J0D01*
G01*
X158900000Y-73675050D02*
G75*
G03*
X159400000Y-73175050I0J500000D01*
G01*
D11*
X267968750Y-76725050D02*
X274968750Y-76725050D01*
X267968750Y-94725050D02*
X267968750Y-76725050D01*
X274968750Y-76725050D02*
X274968750Y-94725050D01*
X274968750Y-94725050D02*
X267968750Y-94725050D01*
D10*
X276368750Y-79234126D02*
X276368750Y-92225050D01*
X276868750Y-78725050D02*
X289868750Y-78725050D01*
X276868750Y-92725050D02*
X289868750Y-92725050D01*
X290368750Y-79234126D02*
X290368750Y-92234126D01*
D11*
X291768750Y-76725050D02*
X298768750Y-76725050D01*
X291768750Y-94725050D02*
X291768750Y-76725050D01*
X298768750Y-76725050D02*
X298768750Y-94725050D01*
X298768750Y-94725050D02*
X291768750Y-94725050D01*
D10*
X276868750Y-78725050D02*
G75*
G03*
X276368750Y-79225050I1J-500001D01*
G01*
X276368750Y-92225050D02*
G75*
G03*
X276868750Y-92725050I500001J1D01*
G01*
X290368750Y-79225050D02*
G75*
G03*
X289868750Y-78725050I-500000J0D01*
G01*
X289868750Y-92725050D02*
G75*
G03*
X290368750Y-92225050I0J500000D01*
G01*
X150162500Y-79225050D02*
X150162500Y-92215974D01*
X150662500Y-78725050D02*
X163662500Y-78725050D01*
X150662500Y-92715974D02*
X163662500Y-92725050D01*
X164162500Y-79225050D02*
X164162500Y-92225050D01*
X150662500Y-78725050D02*
G75*
G03*
X150162500Y-79225050I1J-500001D01*
G01*
X150162500Y-92215974D02*
G75*
G03*
X150662500Y-92715974I500001J1D01*
G01*
X164162500Y-79225050D02*
G75*
G03*
X163662500Y-78725050I-500000J0D01*
G01*
X163662500Y-92725050D02*
G75*
G03*
X164162500Y-92225050I0J500000D01*
G01*
X78725000Y-41125050D02*
X78725000Y-54115974D01*
X79225000Y-40625050D02*
X92225000Y-40625050D01*
X79225000Y-54615974D02*
X92225000Y-54625050D01*
X92725000Y-41125050D02*
X92725000Y-54125050D01*
X79225000Y-40625050D02*
G75*
G03*
X78725000Y-41125050I1J-500001D01*
G01*
X78725000Y-54115974D02*
G75*
G03*
X79225000Y-54615974I500001J1D01*
G01*
X92725000Y-41125050D02*
G75*
G03*
X92225000Y-40625050I-500000J0D01*
G01*
X92225000Y-54625050D02*
G75*
G03*
X92725000Y-54125050I0J500000D01*
G01*
X21575000Y-22075050D02*
X21575000Y-35065974D01*
X22075000Y-21575050D02*
X35075000Y-21575050D01*
X22075000Y-35565974D02*
X35075000Y-35575050D01*
X35575000Y-22075050D02*
X35575000Y-35075050D01*
X22075000Y-21575050D02*
G75*
G03*
X21575000Y-22075050I1J-500001D01*
G01*
X21575000Y-35065974D02*
G75*
G03*
X22075000Y-35565974I500001J1D01*
G01*
X35575000Y-22075050D02*
G75*
G03*
X35075000Y-21575050I-500000J0D01*
G01*
X35075000Y-35575050D02*
G75*
G03*
X35575000Y-35075050I0J500000D01*
G01*
X97775000Y-22075050D02*
X97775000Y-35065974D01*
X98275000Y-21575050D02*
X111275000Y-21575050D01*
X98275000Y-35565974D02*
X111275000Y-35575050D01*
X111775000Y-22075050D02*
X111775000Y-35075050D01*
X98275000Y-21575050D02*
G75*
G03*
X97775000Y-22075050I1J-500001D01*
G01*
X97775000Y-35065974D02*
G75*
G03*
X98275000Y-35565974I500001J1D01*
G01*
X111775000Y-22075050D02*
G75*
G03*
X111275000Y-21575050I-500000J0D01*
G01*
X111275000Y-35575050D02*
G75*
G03*
X111775000Y-35075050I0J500000D01*
G01*
X59675000Y-117325050D02*
X59675000Y-130315974D01*
X60175000Y-116825050D02*
X73175000Y-116825050D01*
X60175000Y-130815974D02*
X73175000Y-130825050D01*
X73675000Y-117325050D02*
X73675000Y-130325050D01*
X60175000Y-116825050D02*
G75*
G03*
X59675000Y-117325050I1J-500001D01*
G01*
X59675000Y-130315974D02*
G75*
G03*
X60175000Y-130815974I500001J1D01*
G01*
X73675000Y-117325050D02*
G75*
G03*
X73175000Y-116825050I-500000J0D01*
G01*
X73175000Y-130825050D02*
G75*
G03*
X73675000Y-130325050I0J500000D01*
G01*
X26337500Y-60175050D02*
X26337500Y-73165974D01*
X26837500Y-59675050D02*
X39837500Y-59675050D01*
X26837500Y-73665974D02*
X39837500Y-73675050D01*
X40337500Y-60175050D02*
X40337500Y-73175050D01*
X26837500Y-59675050D02*
G75*
G03*
X26337500Y-60175050I1J-500001D01*
G01*
X26337500Y-73165974D02*
G75*
G03*
X26837500Y-73665974I500001J1D01*
G01*
X40337500Y-60175050D02*
G75*
G03*
X39837500Y-59675050I-500000J0D01*
G01*
X39837500Y-73675050D02*
G75*
G03*
X40337500Y-73175050I0J500000D01*
G01*
X126350000Y-60175050D02*
X126350000Y-73165974D01*
X126850000Y-59675050D02*
X139850000Y-59675050D01*
X126850000Y-73665974D02*
X139850000Y-73675050D01*
X140350000Y-60175050D02*
X140350000Y-73175050D01*
X126850000Y-59675050D02*
G75*
G03*
X126350000Y-60175050I1J-500001D01*
G01*
X126350000Y-73165974D02*
G75*
G03*
X126850000Y-73665974I500001J1D01*
G01*
X140350000Y-60175050D02*
G75*
G03*
X139850000Y-59675050I-500000J0D01*
G01*
X139850000Y-73675050D02*
G75*
G03*
X140350000Y-73175050I0J500000D01*
G01*
X81106250Y-117325050D02*
X81106250Y-130315974D01*
X81606250Y-116825050D02*
X94606250Y-116825050D01*
X81606250Y-130815974D02*
X94606250Y-130825050D01*
X95106250Y-117325050D02*
X95106250Y-130325050D01*
X81606250Y-116825050D02*
G75*
G03*
X81106250Y-117325050I1J-500001D01*
G01*
X81106250Y-130315974D02*
G75*
G03*
X81606250Y-130815974I500001J1D01*
G01*
X95106250Y-117325050D02*
G75*
G03*
X94606250Y-116825050I-500000J0D01*
G01*
X94606250Y-130825050D02*
G75*
G03*
X95106250Y-130325050I0J500000D01*
G01*
X112062500Y-79225050D02*
X112062500Y-92215974D01*
X112562500Y-78725050D02*
X125562500Y-78725050D01*
X112562500Y-92715974D02*
X125562500Y-92725050D01*
X126062500Y-79225050D02*
X126062500Y-92225050D01*
X112562500Y-78725050D02*
G75*
G03*
X112062500Y-79225050I1J-500001D01*
G01*
X112062500Y-92215974D02*
G75*
G03*
X112562500Y-92715974I500001J1D01*
G01*
X126062500Y-79225050D02*
G75*
G03*
X125562500Y-78725050I-500000J0D01*
G01*
X125562500Y-92725050D02*
G75*
G03*
X126062500Y-92225050I0J500000D01*
G01*
X28718750Y-79225050D02*
X28718750Y-92215974D01*
X29218750Y-78725050D02*
X42218750Y-78725050D01*
X29218750Y-92715974D02*
X42218750Y-92725050D01*
X42718750Y-79225050D02*
X42718750Y-92225050D01*
X29218750Y-78725050D02*
G75*
G03*
X28718750Y-79225050I1J-500001D01*
G01*
X28718750Y-92215974D02*
G75*
G03*
X29218750Y-92715974I500001J1D01*
G01*
X42718750Y-79225050D02*
G75*
G03*
X42218750Y-78725050I-500000J0D01*
G01*
X42218750Y-92725050D02*
G75*
G03*
X42718750Y-92225050I0J500000D01*
G01*
X183500000Y-60175050D02*
X183500000Y-73165974D01*
X184000000Y-59675050D02*
X197000000Y-59675050D01*
X184000000Y-73665974D02*
X197000000Y-73675050D01*
X197500000Y-60175050D02*
X197500000Y-73175050D01*
X184000000Y-59675050D02*
G75*
G03*
X183500000Y-60175050I1J-500001D01*
G01*
X183500000Y-73165974D02*
G75*
G03*
X184000000Y-73665974I500001J1D01*
G01*
X197500000Y-60175050D02*
G75*
G03*
X197000000Y-59675050I-500000J0D01*
G01*
X197000000Y-73675050D02*
G75*
G03*
X197500000Y-73175050I0J500000D01*
G01*
D11*
X213043750Y-132825050D02*
X206043750Y-132825050D01*
X213043750Y-114825050D02*
X213043750Y-132825050D01*
X206043750Y-132825050D02*
X206043750Y-114825050D01*
X206043750Y-114825050D02*
X213043750Y-114825050D01*
D10*
X166543750Y-130315974D02*
X166543750Y-117325050D01*
X166043750Y-130825050D02*
X153043750Y-130825050D01*
X166043750Y-116825050D02*
X153043750Y-116825050D01*
X152543750Y-130315974D02*
X152543750Y-117315974D01*
D11*
X113043750Y-132825050D02*
X106043750Y-132825050D01*
X113043750Y-114825050D02*
X113043750Y-132825050D01*
X106043750Y-132825050D02*
X106043750Y-114825050D01*
X106043750Y-114825050D02*
X113043750Y-114825050D01*
D10*
X166043750Y-130825050D02*
G75*
G03*
X166543750Y-130325050I-1J500001D01*
G01*
X166543750Y-117325050D02*
G75*
G03*
X166043750Y-116825050I-500001J-1D01*
G01*
X152543750Y-130325050D02*
G75*
G03*
X153043750Y-130825050I500000J0D01*
G01*
X153043750Y-116825050D02*
G75*
G03*
X152543750Y-117325050I0J-500000D01*
G01*
X245412500Y-79225050D02*
X245412500Y-92215974D01*
X245912500Y-78725050D02*
X258912500Y-78725050D01*
X245912500Y-92715974D02*
X258912500Y-92725050D01*
X259412500Y-79225050D02*
X259412500Y-92225050D01*
X245912500Y-78725050D02*
G75*
G03*
X245412500Y-79225050I1J-500001D01*
G01*
X245412500Y-92215974D02*
G75*
G03*
X245912500Y-92715974I500001J1D01*
G01*
X259412500Y-79225050D02*
G75*
G03*
X258912500Y-78725050I-500000J0D01*
G01*
X258912500Y-92725050D02*
G75*
G03*
X259412500Y-92225050I0J500000D01*
G01*
X69200000Y-60175050D02*
X69200000Y-73165974D01*
X69700000Y-59675050D02*
X82700000Y-59675050D01*
X69700000Y-73665974D02*
X82700000Y-73675050D01*
X83200000Y-60175050D02*
X83200000Y-73175050D01*
X69700000Y-59675050D02*
G75*
G03*
X69200000Y-60175050I1J-500001D01*
G01*
X69200000Y-73165974D02*
G75*
G03*
X69700000Y-73665974I500001J1D01*
G01*
X83200000Y-60175050D02*
G75*
G03*
X82700000Y-59675050I-500000J0D01*
G01*
X82700000Y-73675050D02*
G75*
G03*
X83200000Y-73175050I0J500000D01*
G01*
X131112500Y-79225050D02*
X131112500Y-92215974D01*
X131612500Y-78725050D02*
X144612500Y-78725050D01*
X131612500Y-92715974D02*
X144612500Y-92725050D01*
X145112500Y-79225050D02*
X145112500Y-92225050D01*
X131612500Y-78725050D02*
G75*
G03*
X131112500Y-79225050I1J-500001D01*
G01*
X131112500Y-92215974D02*
G75*
G03*
X131612500Y-92715974I500001J1D01*
G01*
X145112500Y-79225050D02*
G75*
G03*
X144612500Y-78725050I-500000J0D01*
G01*
X144612500Y-92725050D02*
G75*
G03*
X145112500Y-92225050I0J500000D01*
G01*
X197787500Y-98275050D02*
X197787500Y-111265974D01*
X198287500Y-97775050D02*
X211287500Y-97775050D01*
X198287500Y-111765974D02*
X211287500Y-111775050D01*
X211787500Y-98275050D02*
X211787500Y-111275050D01*
X198287500Y-97775050D02*
G75*
G03*
X197787500Y-98275050I1J-500001D01*
G01*
X197787500Y-111265974D02*
G75*
G03*
X198287500Y-111765974I500001J1D01*
G01*
X211787500Y-98275050D02*
G75*
G03*
X211287500Y-97775050I-500000J0D01*
G01*
X211287500Y-111775050D02*
G75*
G03*
X211787500Y-111275050I0J500000D01*
G01*
X178737500Y-98275050D02*
X178737500Y-111265974D01*
X179237500Y-97775050D02*
X192237500Y-97775050D01*
X179237500Y-111765974D02*
X192237500Y-111775050D01*
X192737500Y-98275050D02*
X192737500Y-111275050D01*
X179237500Y-97775050D02*
G75*
G03*
X178737500Y-98275050I1J-500001D01*
G01*
X178737500Y-111265974D02*
G75*
G03*
X179237500Y-111765974I500001J1D01*
G01*
X192737500Y-98275050D02*
G75*
G03*
X192237500Y-97775050I-500000J0D01*
G01*
X192237500Y-111775050D02*
G75*
G03*
X192737500Y-111275050I0J500000D01*
G01*
X21575000Y-117325050D02*
X21575000Y-130315974D01*
X22075000Y-116825050D02*
X35075000Y-116825050D01*
X22075000Y-130815974D02*
X35075000Y-130825050D01*
X35575000Y-117325050D02*
X35575000Y-130325050D01*
X22075000Y-116825050D02*
G75*
G03*
X21575000Y-117325050I1J-500001D01*
G01*
X21575000Y-130315974D02*
G75*
G03*
X22075000Y-130815974I500001J1D01*
G01*
X35575000Y-117325050D02*
G75*
G03*
X35075000Y-116825050I-500000J0D01*
G01*
X35075000Y-130825050D02*
G75*
G03*
X35575000Y-130325050I0J500000D01*
G01*
X269225000Y-98275050D02*
X269225000Y-111265974D01*
X269725000Y-97775050D02*
X282725000Y-97775050D01*
X269725000Y-111765974D02*
X282725000Y-111775050D01*
X283225000Y-98275050D02*
X283225000Y-111275050D01*
X269725000Y-97775050D02*
G75*
G03*
X269225000Y-98275050I1J-500001D01*
G01*
X269225000Y-111265974D02*
G75*
G03*
X269725000Y-111765974I500001J1D01*
G01*
X283225000Y-98275050D02*
G75*
G03*
X282725000Y-97775050I-500000J0D01*
G01*
X282725000Y-111775050D02*
G75*
G03*
X283225000Y-111275050I0J500000D01*
G01*
X78725000Y-22075050D02*
X78725000Y-35065974D01*
X79225000Y-21575050D02*
X92225000Y-21575050D01*
X79225000Y-35565974D02*
X92225000Y-35575050D01*
X92725000Y-22075050D02*
X92725000Y-35075050D01*
X79225000Y-21575050D02*
G75*
G03*
X78725000Y-22075050I1J-500001D01*
G01*
X78725000Y-35065974D02*
G75*
G03*
X79225000Y-35565974I500001J1D01*
G01*
X92725000Y-22075050D02*
G75*
G03*
X92225000Y-21575050I-500000J0D01*
G01*
X92225000Y-35575050D02*
G75*
G03*
X92725000Y-35075050I0J500000D01*
G01*
X221600000Y-60175050D02*
X221600000Y-73165974D01*
X222100000Y-59675050D02*
X235100000Y-59675050D01*
X222100000Y-73665974D02*
X235100000Y-73675050D01*
X235600000Y-60175050D02*
X235600000Y-73175050D01*
X222100000Y-59675050D02*
G75*
G03*
X221600000Y-60175050I1J-500001D01*
G01*
X221600000Y-73165974D02*
G75*
G03*
X222100000Y-73665974I500001J1D01*
G01*
X235600000Y-60175050D02*
G75*
G03*
X235100000Y-59675050I-500000J0D01*
G01*
X235100000Y-73675050D02*
G75*
G03*
X235600000Y-73175050I0J500000D01*
G01*
X259700000Y-60175050D02*
X259700000Y-73165974D01*
X260200000Y-59675050D02*
X273200000Y-59675050D01*
X260200000Y-73665974D02*
X273200000Y-73675050D01*
X273700000Y-60175050D02*
X273700000Y-73175050D01*
X260200000Y-59675050D02*
G75*
G03*
X259700000Y-60175050I1J-500001D01*
G01*
X259700000Y-73165974D02*
G75*
G03*
X260200000Y-73665974I500001J1D01*
G01*
X273700000Y-60175050D02*
G75*
G03*
X273200000Y-59675050I-500000J0D01*
G01*
X273200000Y-73675050D02*
G75*
G03*
X273700000Y-73175050I0J500000D01*
G01*
X164450000Y-22075050D02*
X164450000Y-35065974D01*
X164950000Y-21575050D02*
X177950000Y-21575050D01*
X164950000Y-35565974D02*
X177950000Y-35575050D01*
X178450000Y-22075050D02*
X178450000Y-35075050D01*
X164950000Y-21575050D02*
G75*
G03*
X164450000Y-22075050I1J-500001D01*
G01*
X164450000Y-35065974D02*
G75*
G03*
X164950000Y-35565974I500001J1D01*
G01*
X178450000Y-22075050D02*
G75*
G03*
X177950000Y-21575050I-500000J0D01*
G01*
X177950000Y-35575050D02*
G75*
G03*
X178450000Y-35075050I0J500000D01*
G01*
X193025000Y-41125050D02*
X193025000Y-54115974D01*
X193525000Y-40625050D02*
X206525000Y-40625050D01*
X193525000Y-54615974D02*
X206525000Y-54625050D01*
X207025000Y-41125050D02*
X207025000Y-54125050D01*
X193525000Y-40625050D02*
G75*
G03*
X193025000Y-41125050I1J-500001D01*
G01*
X193025000Y-54115974D02*
G75*
G03*
X193525000Y-54615974I500001J1D01*
G01*
X207025000Y-41125050D02*
G75*
G03*
X206525000Y-40625050I-500000J0D01*
G01*
X206525000Y-54625050D02*
G75*
G03*
X207025000Y-54125050I0J500000D01*
G01*
X188262500Y-79225050D02*
X188262500Y-92215974D01*
X188762500Y-78725050D02*
X201762500Y-78725050D01*
X188762500Y-92715974D02*
X201762500Y-92725050D01*
X202262500Y-79225050D02*
X202262500Y-92225050D01*
X188762500Y-78725050D02*
G75*
G03*
X188262500Y-79225050I1J-500001D01*
G01*
X188262500Y-92215974D02*
G75*
G03*
X188762500Y-92715974I500001J1D01*
G01*
X202262500Y-79225050D02*
G75*
G03*
X201762500Y-78725050I-500000J0D01*
G01*
X201762500Y-92725050D02*
G75*
G03*
X202262500Y-92225050I0J500000D01*
G01*
X207312500Y-79225050D02*
X207312500Y-92215974D01*
X207812500Y-78725050D02*
X220812500Y-78725050D01*
X207812500Y-92715974D02*
X220812500Y-92725050D01*
X221312500Y-79225050D02*
X221312500Y-92225050D01*
X207812500Y-78725050D02*
G75*
G03*
X207312500Y-79225050I1J-500001D01*
G01*
X207312500Y-92215974D02*
G75*
G03*
X207812500Y-92715974I500001J1D01*
G01*
X221312500Y-79225050D02*
G75*
G03*
X220812500Y-78725050I-500000J0D01*
G01*
X220812500Y-92725050D02*
G75*
G03*
X221312500Y-92225050I0J500000D01*
G01*
X212075000Y-41125050D02*
X212075000Y-54115974D01*
X212575000Y-40625050D02*
X225575000Y-40625050D01*
X212575000Y-54615974D02*
X225575000Y-54625050D01*
X226075000Y-41125050D02*
X226075000Y-54125050D01*
X212575000Y-40625050D02*
G75*
G03*
X212075000Y-41125050I1J-500001D01*
G01*
X212075000Y-54115974D02*
G75*
G03*
X212575000Y-54615974I500001J1D01*
G01*
X226075000Y-41125050D02*
G75*
G03*
X225575000Y-40625050I-500000J0D01*
G01*
X225575000Y-54625050D02*
G75*
G03*
X226075000Y-54125050I0J500000D01*
G01*
X64437500Y-98275050D02*
X64437500Y-111265974D01*
X64937500Y-97775050D02*
X77937500Y-97775050D01*
X64937500Y-111765974D02*
X77937500Y-111775050D01*
X78437500Y-98275050D02*
X78437500Y-111275050D01*
X64937500Y-97775050D02*
G75*
G03*
X64437500Y-98275050I1J-500001D01*
G01*
X64437500Y-111265974D02*
G75*
G03*
X64937500Y-111765974I500001J1D01*
G01*
X78437500Y-98275050D02*
G75*
G03*
X77937500Y-97775050I-500000J0D01*
G01*
X77937500Y-111775050D02*
G75*
G03*
X78437500Y-111275050I0J500000D01*
G01*
X121587500Y-98275050D02*
X121587500Y-111265974D01*
X122087500Y-97775050D02*
X135087500Y-97775050D01*
X122087500Y-111765974D02*
X135087500Y-111775050D01*
X135587500Y-98275050D02*
X135587500Y-111275050D01*
X122087500Y-97775050D02*
G75*
G03*
X121587500Y-98275050I1J-500001D01*
G01*
X121587500Y-111265974D02*
G75*
G03*
X122087500Y-111765974I500001J1D01*
G01*
X135587500Y-98275050D02*
G75*
G03*
X135087500Y-97775050I-500000J0D01*
G01*
X135087500Y-111775050D02*
G75*
G03*
X135587500Y-111275050I0J500000D01*
G01*
X269225000Y-22075050D02*
X269225000Y-35065974D01*
X269725000Y-21575050D02*
X282725000Y-21575050D01*
X269725000Y-35565974D02*
X282725000Y-35575050D01*
X283225000Y-22075050D02*
X283225000Y-35075050D01*
X269725000Y-21575050D02*
G75*
G03*
X269225000Y-22075050I1J-500001D01*
G01*
X269225000Y-35065974D02*
G75*
G03*
X269725000Y-35565974I500001J1D01*
G01*
X283225000Y-22075050D02*
G75*
G03*
X282725000Y-21575050I-500000J0D01*
G01*
X282725000Y-35575050D02*
G75*
G03*
X283225000Y-35075050I0J500000D01*
G01*
X21575000Y-41125050D02*
X21575000Y-54115974D01*
X22075000Y-40625050D02*
X35075000Y-40625050D01*
X22075000Y-54615974D02*
X35075000Y-54625050D01*
X35575000Y-41125050D02*
X35575000Y-54125050D01*
X22075000Y-40625050D02*
G75*
G03*
X21575000Y-41125050I1J-500001D01*
G01*
X21575000Y-54115974D02*
G75*
G03*
X22075000Y-54615974I500001J1D01*
G01*
X35575000Y-41125050D02*
G75*
G03*
X35075000Y-40625050I-500000J0D01*
G01*
X35075000Y-54625050D02*
G75*
G03*
X35575000Y-54125050I0J500000D01*
G01*
X54912500Y-79225050D02*
X54912500Y-92215974D01*
X55412500Y-78725050D02*
X68412500Y-78725050D01*
X55412500Y-92715974D02*
X68412500Y-92725050D01*
X68912500Y-79225050D02*
X68912500Y-92225050D01*
X55412500Y-78725050D02*
G75*
G03*
X54912500Y-79225050I1J-500001D01*
G01*
X54912500Y-92215974D02*
G75*
G03*
X55412500Y-92715974I500001J1D01*
G01*
X68912500Y-79225050D02*
G75*
G03*
X68412500Y-78725050I-500000J0D01*
G01*
X68412500Y-92725050D02*
G75*
G03*
X68912500Y-92225050I0J500000D01*
G01*
X283512500Y-60175050D02*
X283512500Y-73165974D01*
X284012500Y-59675050D02*
X297012500Y-59675050D01*
X284012500Y-73665974D02*
X297012500Y-73675050D01*
X297512500Y-60175050D02*
X297512500Y-73175050D01*
X284012500Y-59675050D02*
G75*
G03*
X283512500Y-60175050I1J-500001D01*
G01*
X283512500Y-73165974D02*
G75*
G03*
X284012500Y-73665974I500001J1D01*
G01*
X297512500Y-60175050D02*
G75*
G03*
X297012500Y-59675050I-500000J0D01*
G01*
X297012500Y-73675050D02*
G75*
G03*
X297512500Y-73175050I0J500000D01*
G01*
X107300000Y-60175050D02*
X107300000Y-73165974D01*
X107800000Y-59675050D02*
X120800000Y-59675050D01*
X107800000Y-73665974D02*
X120800000Y-73675050D01*
X121300000Y-60175050D02*
X121300000Y-73175050D01*
X107800000Y-59675050D02*
G75*
G03*
X107300000Y-60175050I1J-500001D01*
G01*
X107300000Y-73165974D02*
G75*
G03*
X107800000Y-73665974I500001J1D01*
G01*
X121300000Y-60175050D02*
G75*
G03*
X120800000Y-59675050I-500000J0D01*
G01*
X120800000Y-73675050D02*
G75*
G03*
X121300000Y-73175050I0J500000D01*
G01*
X59675000Y-41125050D02*
X59675000Y-54115974D01*
X60175000Y-40625050D02*
X73175000Y-40625050D01*
X60175000Y-54615974D02*
X73175000Y-54625050D01*
X73675000Y-41125050D02*
X73675000Y-54125050D01*
X60175000Y-40625050D02*
G75*
G03*
X59675000Y-41125050I1J-500001D01*
G01*
X59675000Y-54115974D02*
G75*
G03*
X60175000Y-54615974I500001J1D01*
G01*
X73675000Y-41125050D02*
G75*
G03*
X73175000Y-40625050I-500000J0D01*
G01*
X73175000Y-54625050D02*
G75*
G03*
X73675000Y-54125050I0J500000D01*
G01*
X159687500Y-98275050D02*
X159687500Y-111265974D01*
X160187500Y-97775050D02*
X173187500Y-97775050D01*
X160187500Y-111765974D02*
X173187500Y-111775050D01*
X173687500Y-98275050D02*
X173687500Y-111275050D01*
X160187500Y-97775050D02*
G75*
G03*
X159687500Y-98275050I1J-500001D01*
G01*
X159687500Y-111265974D02*
G75*
G03*
X160187500Y-111765974I500001J1D01*
G01*
X173687500Y-98275050D02*
G75*
G03*
X173187500Y-97775050I-500000J0D01*
G01*
X173187500Y-111775050D02*
G75*
G03*
X173687500Y-111275050I0J500000D01*
G01*
X145400000Y-22075050D02*
X145400000Y-35065974D01*
X145900000Y-21575050D02*
X158900000Y-21575050D01*
X145900000Y-35565974D02*
X158900000Y-35575050D01*
X159400000Y-22075050D02*
X159400000Y-35075050D01*
X145900000Y-21575050D02*
G75*
G03*
X145400000Y-22075050I1J-500001D01*
G01*
X145400000Y-35065974D02*
G75*
G03*
X145900000Y-35565974I500001J1D01*
G01*
X159400000Y-22075050D02*
G75*
G03*
X158900000Y-21575050I-500000J0D01*
G01*
X158900000Y-35575050D02*
G75*
G03*
X159400000Y-35075050I0J500000D01*
G01*
X183500000Y-22075050D02*
X183500000Y-35065974D01*
X184000000Y-21575050D02*
X197000000Y-21575050D01*
X184000000Y-35565974D02*
X197000000Y-35575050D01*
X197500000Y-22075050D02*
X197500000Y-35075050D01*
X184000000Y-21575050D02*
G75*
G03*
X183500000Y-22075050I1J-500001D01*
G01*
X183500000Y-35065974D02*
G75*
G03*
X184000000Y-35565974I500001J1D01*
G01*
X197500000Y-22075050D02*
G75*
G03*
X197000000Y-21575050I-500000J0D01*
G01*
X197000000Y-35575050D02*
G75*
G03*
X197500000Y-35075050I0J500000D01*
G01*
D11*
X25081250Y-95775050D02*
X32081250Y-95775050D01*
X25081250Y-113775050D02*
X25081250Y-95775050D01*
X32081250Y-95775050D02*
X32081250Y-113775050D01*
X32081250Y-113775050D02*
X25081250Y-113775050D01*
D10*
X33481250Y-98284126D02*
X33481250Y-111275050D01*
X33981250Y-97775050D02*
X46981250Y-97775050D01*
X33981250Y-111775050D02*
X46981250Y-111775050D01*
X47481250Y-98284126D02*
X47481250Y-111284126D01*
D11*
X48881250Y-95775050D02*
X55881250Y-95775050D01*
X48881250Y-113775050D02*
X48881250Y-95775050D01*
X55881250Y-95775050D02*
X55881250Y-113775050D01*
X55881250Y-113775050D02*
X48881250Y-113775050D01*
D10*
X33981250Y-97775050D02*
G75*
G03*
X33481250Y-98275050I1J-500001D01*
G01*
X33481250Y-111275050D02*
G75*
G03*
X33981250Y-111775050I500001J1D01*
G01*
X47481250Y-98275050D02*
G75*
G03*
X46981250Y-97775050I-500000J0D01*
G01*
X46981250Y-111775050D02*
G75*
G03*
X47481250Y-111275050I0J500000D01*
G01*
D11*
X270350000Y-38625050D02*
X277350000Y-38625050D01*
X270350000Y-56625050D02*
X270350000Y-38625050D01*
X277350000Y-38625050D02*
X277350000Y-56625050D01*
X277350000Y-56625050D02*
X270350000Y-56625050D01*
D10*
X278750000Y-41134126D02*
X278750000Y-54125050D01*
X279250000Y-40625050D02*
X292250000Y-40625050D01*
X279250000Y-54625050D02*
X292250000Y-54625050D01*
X292750000Y-41134126D02*
X292750000Y-54134126D01*
D11*
X294150000Y-38625050D02*
X301150000Y-38625050D01*
X294150000Y-56625050D02*
X294150000Y-38625050D01*
X301150000Y-38625050D02*
X301150000Y-56625050D01*
X301150000Y-56625050D02*
X294150000Y-56625050D01*
D10*
X279250000Y-40625050D02*
G75*
G03*
X278750000Y-41125050I1J-500001D01*
G01*
X278750000Y-54125050D02*
G75*
G03*
X279250000Y-54625050I500001J1D01*
G01*
X292750000Y-41125050D02*
G75*
G03*
X292250000Y-40625050I-500000J0D01*
G01*
X292250000Y-54625050D02*
G75*
G03*
X292750000Y-54125050I0J500000D01*
G01*
X164450000Y-60175050D02*
X164450000Y-73165974D01*
X164950000Y-59675050D02*
X177950000Y-59675050D01*
X164950000Y-73665974D02*
X177950000Y-73675050D01*
X178450000Y-60175050D02*
X178450000Y-73175050D01*
X164950000Y-59675050D02*
G75*
G03*
X164450000Y-60175050I1J-500001D01*
G01*
X164450000Y-73165974D02*
G75*
G03*
X164950000Y-73665974I500001J1D01*
G01*
X178450000Y-60175050D02*
G75*
G03*
X177950000Y-59675050I-500000J0D01*
G01*
X177950000Y-73675050D02*
G75*
G03*
X178450000Y-73175050I0J500000D01*
G01*
X40625000Y-117325050D02*
X40625000Y-130315974D01*
X41125000Y-116825050D02*
X54125000Y-116825050D01*
X41125000Y-130815974D02*
X54125000Y-130825050D01*
X54625000Y-117325050D02*
X54625000Y-130325050D01*
X41125000Y-116825050D02*
G75*
G03*
X40625000Y-117325050I1J-500001D01*
G01*
X40625000Y-130315974D02*
G75*
G03*
X41125000Y-130815974I500001J1D01*
G01*
X54625000Y-117325050D02*
G75*
G03*
X54125000Y-116825050I-500000J0D01*
G01*
X54125000Y-130825050D02*
G75*
G03*
X54625000Y-130325050I0J500000D01*
G01*
X135875000Y-41125050D02*
X135875000Y-54115974D01*
X136375000Y-40625050D02*
X149375000Y-40625050D01*
X136375000Y-54615974D02*
X149375000Y-54625050D01*
X149875000Y-41125050D02*
X149875000Y-54125050D01*
X136375000Y-40625050D02*
G75*
G03*
X135875000Y-41125050I1J-500001D01*
G01*
X135875000Y-54115974D02*
G75*
G03*
X136375000Y-54615974I500001J1D01*
G01*
X149875000Y-41125050D02*
G75*
G03*
X149375000Y-40625050I-500000J0D01*
G01*
X149375000Y-54625050D02*
G75*
G03*
X149875000Y-54125050I0J500000D01*
G01*
X250175000Y-22075050D02*
X250175000Y-35065974D01*
X250675000Y-21575050D02*
X263675000Y-21575050D01*
X250675000Y-35565974D02*
X263675000Y-35575050D01*
X264175000Y-22075050D02*
X264175000Y-35075050D01*
X250675000Y-21575050D02*
G75*
G03*
X250175000Y-22075050I1J-500001D01*
G01*
X250175000Y-35065974D02*
G75*
G03*
X250675000Y-35565974I500001J1D01*
G01*
X264175000Y-22075050D02*
G75*
G03*
X263675000Y-21575050I-500000J0D01*
G01*
X263675000Y-35575050D02*
G75*
G03*
X264175000Y-35075050I0J500000D01*
G01*
X50150000Y-60175050D02*
X50150000Y-73165974D01*
X50650000Y-59675050D02*
X63650000Y-59675050D01*
X50650000Y-73665974D02*
X63650000Y-73675050D01*
X64150000Y-60175050D02*
X64150000Y-73175050D01*
X50650000Y-59675050D02*
G75*
G03*
X50150000Y-60175050I1J-500001D01*
G01*
X50150000Y-73165974D02*
G75*
G03*
X50650000Y-73665974I500001J1D01*
G01*
X64150000Y-60175050D02*
G75*
G03*
X63650000Y-59675050I-500000J0D01*
G01*
X63650000Y-73675050D02*
G75*
G03*
X64150000Y-73175050I0J500000D01*
G01*
X235887500Y-98275050D02*
X235887500Y-111265974D01*
X236387500Y-97775050D02*
X249387500Y-97775050D01*
X236387500Y-111765974D02*
X249387500Y-111775050D01*
X249887500Y-98275050D02*
X249887500Y-111275050D01*
X236387500Y-97775050D02*
G75*
G03*
X235887500Y-98275050I1J-500001D01*
G01*
X235887500Y-111265974D02*
G75*
G03*
X236387500Y-111765974I500001J1D01*
G01*
X249887500Y-98275050D02*
G75*
G03*
X249387500Y-97775050I-500000J0D01*
G01*
X249387500Y-111775050D02*
G75*
G03*
X249887500Y-111275050I0J500000D01*
G01*
X202550000Y-60175050D02*
X202550000Y-73165974D01*
X203050000Y-59675050D02*
X216050000Y-59675050D01*
X203050000Y-73665974D02*
X216050000Y-73675050D01*
X216550000Y-60175050D02*
X216550000Y-73175050D01*
X203050000Y-59675050D02*
G75*
G03*
X202550000Y-60175050I1J-500001D01*
G01*
X202550000Y-73165974D02*
G75*
G03*
X203050000Y-73665974I500001J1D01*
G01*
X216550000Y-60175050D02*
G75*
G03*
X216050000Y-59675050I-500000J0D01*
G01*
X216050000Y-73675050D02*
G75*
G03*
X216550000Y-73175050I0J500000D01*
G01*
X240650000Y-60175050D02*
X240650000Y-73165974D01*
X241150000Y-59675050D02*
X254150000Y-59675050D01*
X241150000Y-73665974D02*
X254150000Y-73675050D01*
X254650000Y-60175050D02*
X254650000Y-73175050D01*
X241150000Y-59675050D02*
G75*
G03*
X240650000Y-60175050I1J-500001D01*
G01*
X240650000Y-73165974D02*
G75*
G03*
X241150000Y-73665974I500001J1D01*
G01*
X254650000Y-60175050D02*
G75*
G03*
X254150000Y-59675050I-500000J0D01*
G01*
X254150000Y-73675050D02*
G75*
G03*
X254650000Y-73175050I0J500000D01*
G01*
X40625000Y-41125050D02*
X40625000Y-54115974D01*
X41125000Y-40625050D02*
X54125000Y-40625050D01*
X41125000Y-54615974D02*
X54125000Y-54625050D01*
X54625000Y-41125050D02*
X54625000Y-54125050D01*
X41125000Y-40625050D02*
G75*
G03*
X40625000Y-41125050I1J-500001D01*
G01*
X40625000Y-54115974D02*
G75*
G03*
X41125000Y-54615974I500001J1D01*
G01*
X54625000Y-41125050D02*
G75*
G03*
X54125000Y-40625050I-500000J0D01*
G01*
X54125000Y-54625050D02*
G75*
G03*
X54625000Y-54125050I0J500000D01*
G01*
X202550000Y-22075050D02*
X202550000Y-35065974D01*
X203050000Y-21575050D02*
X216050000Y-21575050D01*
X203050000Y-35565974D02*
X216050000Y-35575050D01*
X216550000Y-22075050D02*
X216550000Y-35075050D01*
X203050000Y-21575050D02*
G75*
G03*
X202550000Y-22075050I1J-500001D01*
G01*
X202550000Y-35065974D02*
G75*
G03*
X203050000Y-35565974I500001J1D01*
G01*
X216550000Y-22075050D02*
G75*
G03*
X216050000Y-21575050I-500000J0D01*
G01*
X216050000Y-35575050D02*
G75*
G03*
X216550000Y-35075050I0J500000D01*
G01*
X116825000Y-41125050D02*
X116825000Y-54115974D01*
X117325000Y-40625050D02*
X130325000Y-40625050D01*
X117325000Y-54615974D02*
X130325000Y-54625050D01*
X130825000Y-41125050D02*
X130825000Y-54125050D01*
X117325000Y-40625050D02*
G75*
G03*
X116825000Y-41125050I1J-500001D01*
G01*
X116825000Y-54115974D02*
G75*
G03*
X117325000Y-54615974I500001J1D01*
G01*
X130825000Y-41125050D02*
G75*
G03*
X130325000Y-40625050I-500000J0D01*
G01*
X130325000Y-54625050D02*
G75*
G03*
X130825000Y-54125050I0J500000D01*
G01*
X250175000Y-41125050D02*
X250175000Y-54115974D01*
X250675000Y-40625050D02*
X263675000Y-40625050D01*
X250675000Y-54615974D02*
X263675000Y-54625050D01*
X264175000Y-41125050D02*
X264175000Y-54125050D01*
X250675000Y-40625050D02*
G75*
G03*
X250175000Y-41125050I1J-500001D01*
G01*
X250175000Y-54115974D02*
G75*
G03*
X250675000Y-54615974I500001J1D01*
G01*
X264175000Y-41125050D02*
G75*
G03*
X263675000Y-40625050I-500000J0D01*
G01*
X263675000Y-54625050D02*
G75*
G03*
X264175000Y-54125050I0J500000D01*
G01*
X73962500Y-79225050D02*
X73962500Y-92215974D01*
X74462500Y-78725050D02*
X87462500Y-78725050D01*
X74462500Y-92715974D02*
X87462500Y-92725050D01*
X87962500Y-79225050D02*
X87962500Y-92225050D01*
X74462500Y-78725050D02*
G75*
G03*
X73962500Y-79225050I1J-500001D01*
G01*
X73962500Y-92215974D02*
G75*
G03*
X74462500Y-92715974I500001J1D01*
G01*
X87962500Y-79225050D02*
G75*
G03*
X87462500Y-78725050I-500000J0D01*
G01*
X87462500Y-92725050D02*
G75*
G03*
X87962500Y-92225050I0J500000D01*
G01*
X102537500Y-98275050D02*
X102537500Y-111265974D01*
X103037500Y-97775050D02*
X116037500Y-97775050D01*
X103037500Y-111765974D02*
X116037500Y-111775050D01*
X116537500Y-98275050D02*
X116537500Y-111275050D01*
X103037500Y-97775050D02*
G75*
G03*
X102537500Y-98275050I1J-500001D01*
G01*
X102537500Y-111265974D02*
G75*
G03*
X103037500Y-111765974I500001J1D01*
G01*
X116537500Y-98275050D02*
G75*
G03*
X116037500Y-97775050I-500000J0D01*
G01*
X116037500Y-111775050D02*
G75*
G03*
X116537500Y-111275050I0J500000D01*
G01*
M02*
