G04 #@! TF.GenerationSoftware,KiCad,Pcbnew,(6.0.5-0)*
G04 #@! TF.CreationDate,2022-08-17T23:37:01+09:00*
G04 #@! TF.ProjectId,top-plate,746f702d-706c-4617-9465-2e6b69636164,rev?*
G04 #@! TF.SameCoordinates,Original*
G04 #@! TF.FileFunction,Legend,Top*
G04 #@! TF.FilePolarity,Positive*
%FSLAX46Y46*%
G04 Gerber Fmt 4.6, Leading zero omitted, Abs format (unit mm)*
G04 Created by KiCad (PCBNEW (6.0.5-0)) date 2022-08-17 23:37:01*
%MOMM*%
%LPD*%
G01*
G04 APERTURE LIST*
%ADD10C,0.150000*%
%ADD11C,2.200000*%
G04 APERTURE END LIST*
D10*
X177704761Y-117447380D02*
X177704761Y-116447380D01*
X177800000Y-117066428D02*
X178085714Y-117447380D01*
X178085714Y-116780714D02*
X177704761Y-117161666D01*
X178895238Y-117399761D02*
X178800000Y-117447380D01*
X178609523Y-117447380D01*
X178514285Y-117399761D01*
X178466666Y-117304523D01*
X178466666Y-116923571D01*
X178514285Y-116828333D01*
X178609523Y-116780714D01*
X178800000Y-116780714D01*
X178895238Y-116828333D01*
X178942857Y-116923571D01*
X178942857Y-117018809D01*
X178466666Y-117114047D01*
X179276190Y-116780714D02*
X179514285Y-117447380D01*
X179752380Y-116780714D02*
X179514285Y-117447380D01*
X179419047Y-117685476D01*
X179371428Y-117733095D01*
X179276190Y-117780714D01*
X180133333Y-117066428D02*
X180895238Y-117066428D01*
X181371428Y-117447380D02*
X181371428Y-116780714D01*
X181371428Y-116971190D02*
X181419047Y-116875952D01*
X181466666Y-116828333D01*
X181561904Y-116780714D01*
X181657142Y-116780714D01*
X181990476Y-117447380D02*
X181990476Y-116780714D01*
X181990476Y-116447380D02*
X181942857Y-116495000D01*
X181990476Y-116542619D01*
X182038095Y-116495000D01*
X181990476Y-116447380D01*
X181990476Y-116542619D01*
X182466666Y-116780714D02*
X182466666Y-117780714D01*
X182466666Y-116828333D02*
X182561904Y-116780714D01*
X182752380Y-116780714D01*
X182847619Y-116828333D01*
X182895238Y-116875952D01*
X182942857Y-116971190D01*
X182942857Y-117256904D01*
X182895238Y-117352142D01*
X182847619Y-117399761D01*
X182752380Y-117447380D01*
X182561904Y-117447380D01*
X182466666Y-117399761D01*
X183371428Y-116780714D02*
X183371428Y-117780714D01*
X183371428Y-116828333D02*
X183466666Y-116780714D01*
X183657142Y-116780714D01*
X183752380Y-116828333D01*
X183800000Y-116875952D01*
X183847619Y-116971190D01*
X183847619Y-117256904D01*
X183800000Y-117352142D01*
X183752380Y-117399761D01*
X183657142Y-117447380D01*
X183466666Y-117447380D01*
X183371428Y-117399761D01*
X184657142Y-117399761D02*
X184561904Y-117447380D01*
X184371428Y-117447380D01*
X184276190Y-117399761D01*
X184228571Y-117304523D01*
X184228571Y-116923571D01*
X184276190Y-116828333D01*
X184371428Y-116780714D01*
X184561904Y-116780714D01*
X184657142Y-116828333D01*
X184704761Y-116923571D01*
X184704761Y-117018809D01*
X184228571Y-117114047D01*
X185133333Y-117447380D02*
X185133333Y-116780714D01*
X185133333Y-116971190D02*
X185180952Y-116875952D01*
X185228571Y-116828333D01*
X185323809Y-116780714D01*
X185419047Y-116780714D01*
X185752380Y-117066428D02*
X186514285Y-117066428D01*
X186847619Y-116780714D02*
X187228571Y-116780714D01*
X186990476Y-116447380D02*
X186990476Y-117304523D01*
X187038095Y-117399761D01*
X187133333Y-117447380D01*
X187228571Y-117447380D01*
X187704761Y-117447380D02*
X187609523Y-117399761D01*
X187561904Y-117352142D01*
X187514285Y-117256904D01*
X187514285Y-116971190D01*
X187561904Y-116875952D01*
X187609523Y-116828333D01*
X187704761Y-116780714D01*
X187847619Y-116780714D01*
X187942857Y-116828333D01*
X187990476Y-116875952D01*
X188038095Y-116971190D01*
X188038095Y-117256904D01*
X187990476Y-117352142D01*
X187942857Y-117399761D01*
X187847619Y-117447380D01*
X187704761Y-117447380D01*
X188466666Y-116780714D02*
X188466666Y-117780714D01*
X188466666Y-116828333D02*
X188561904Y-116780714D01*
X188752380Y-116780714D01*
X188847619Y-116828333D01*
X188895238Y-116875952D01*
X188942857Y-116971190D01*
X188942857Y-117256904D01*
X188895238Y-117352142D01*
X188847619Y-117399761D01*
X188752380Y-117447380D01*
X188561904Y-117447380D01*
X188466666Y-117399761D01*
X189371428Y-117066428D02*
X190133333Y-117066428D01*
X190609523Y-116780714D02*
X190609523Y-117780714D01*
X190609523Y-116828333D02*
X190704761Y-116780714D01*
X190895238Y-116780714D01*
X190990476Y-116828333D01*
X191038095Y-116875952D01*
X191085714Y-116971190D01*
X191085714Y-117256904D01*
X191038095Y-117352142D01*
X190990476Y-117399761D01*
X190895238Y-117447380D01*
X190704761Y-117447380D01*
X190609523Y-117399761D01*
X191657142Y-117447380D02*
X191561904Y-117399761D01*
X191514285Y-117304523D01*
X191514285Y-116447380D01*
X192466666Y-117447380D02*
X192466666Y-116923571D01*
X192419047Y-116828333D01*
X192323809Y-116780714D01*
X192133333Y-116780714D01*
X192038095Y-116828333D01*
X192466666Y-117399761D02*
X192371428Y-117447380D01*
X192133333Y-117447380D01*
X192038095Y-117399761D01*
X191990476Y-117304523D01*
X191990476Y-117209285D01*
X192038095Y-117114047D01*
X192133333Y-117066428D01*
X192371428Y-117066428D01*
X192466666Y-117018809D01*
X192800000Y-116780714D02*
X193180952Y-116780714D01*
X192942857Y-116447380D02*
X192942857Y-117304523D01*
X192990476Y-117399761D01*
X193085714Y-117447380D01*
X193180952Y-117447380D01*
X193895238Y-117399761D02*
X193800000Y-117447380D01*
X193609523Y-117447380D01*
X193514285Y-117399761D01*
X193466666Y-117304523D01*
X193466666Y-116923571D01*
X193514285Y-116828333D01*
X193609523Y-116780714D01*
X193800000Y-116780714D01*
X193895238Y-116828333D01*
X193942857Y-116923571D01*
X193942857Y-117018809D01*
X193466666Y-117114047D01*
X184371428Y-118390714D02*
X184609523Y-119057380D01*
X184847619Y-118390714D01*
X185419047Y-118057380D02*
X185514285Y-118057380D01*
X185609523Y-118105000D01*
X185657142Y-118152619D01*
X185704761Y-118247857D01*
X185752380Y-118438333D01*
X185752380Y-118676428D01*
X185704761Y-118866904D01*
X185657142Y-118962142D01*
X185609523Y-119009761D01*
X185514285Y-119057380D01*
X185419047Y-119057380D01*
X185323809Y-119009761D01*
X185276190Y-118962142D01*
X185228571Y-118866904D01*
X185180952Y-118676428D01*
X185180952Y-118438333D01*
X185228571Y-118247857D01*
X185276190Y-118152619D01*
X185323809Y-118105000D01*
X185419047Y-118057380D01*
X186180952Y-118962142D02*
X186228571Y-119009761D01*
X186180952Y-119057380D01*
X186133333Y-119009761D01*
X186180952Y-118962142D01*
X186180952Y-119057380D01*
X186609523Y-118152619D02*
X186657142Y-118105000D01*
X186752380Y-118057380D01*
X186990476Y-118057380D01*
X187085714Y-118105000D01*
X187133333Y-118152619D01*
X187180952Y-118247857D01*
X187180952Y-118343095D01*
X187133333Y-118485952D01*
X186561904Y-119057380D01*
X187180952Y-119057380D01*
X124080952Y-117052380D02*
X124080952Y-117766666D01*
X124033333Y-117909523D01*
X123938095Y-118004761D01*
X123795238Y-118052380D01*
X123700000Y-118052380D01*
X125033333Y-118052380D02*
X124557142Y-118052380D01*
X124557142Y-117052380D01*
X125938095Y-117957142D02*
X125890476Y-118004761D01*
X125747619Y-118052380D01*
X125652380Y-118052380D01*
X125509523Y-118004761D01*
X125414285Y-117909523D01*
X125366666Y-117814285D01*
X125319047Y-117623809D01*
X125319047Y-117480952D01*
X125366666Y-117290476D01*
X125414285Y-117195238D01*
X125509523Y-117100000D01*
X125652380Y-117052380D01*
X125747619Y-117052380D01*
X125890476Y-117100000D01*
X125938095Y-117147619D01*
X126652380Y-117052380D02*
X126652380Y-117766666D01*
X126604761Y-117909523D01*
X126509523Y-118004761D01*
X126366666Y-118052380D01*
X126271428Y-118052380D01*
X127604761Y-118052380D02*
X127128571Y-118052380D01*
X127128571Y-117052380D01*
X128509523Y-117957142D02*
X128461904Y-118004761D01*
X128319047Y-118052380D01*
X128223809Y-118052380D01*
X128080952Y-118004761D01*
X127985714Y-117909523D01*
X127938095Y-117814285D01*
X127890476Y-117623809D01*
X127890476Y-117480952D01*
X127938095Y-117290476D01*
X127985714Y-117195238D01*
X128080952Y-117100000D01*
X128223809Y-117052380D01*
X128319047Y-117052380D01*
X128461904Y-117100000D01*
X128509523Y-117147619D01*
X129223809Y-117052380D02*
X129223809Y-117766666D01*
X129176190Y-117909523D01*
X129080952Y-118004761D01*
X128938095Y-118052380D01*
X128842857Y-118052380D01*
X130176190Y-118052380D02*
X129700000Y-118052380D01*
X129700000Y-117052380D01*
X131080952Y-117957142D02*
X131033333Y-118004761D01*
X130890476Y-118052380D01*
X130795238Y-118052380D01*
X130652380Y-118004761D01*
X130557142Y-117909523D01*
X130509523Y-117814285D01*
X130461904Y-117623809D01*
X130461904Y-117480952D01*
X130509523Y-117290476D01*
X130557142Y-117195238D01*
X130652380Y-117100000D01*
X130795238Y-117052380D01*
X130890476Y-117052380D01*
X131033333Y-117100000D01*
X131080952Y-117147619D01*
X131795238Y-117052380D02*
X131795238Y-117766666D01*
X131747619Y-117909523D01*
X131652380Y-118004761D01*
X131509523Y-118052380D01*
X131414285Y-118052380D01*
X132747619Y-118052380D02*
X132271428Y-118052380D01*
X132271428Y-117052380D01*
X133652380Y-117957142D02*
X133604761Y-118004761D01*
X133461904Y-118052380D01*
X133366666Y-118052380D01*
X133223809Y-118004761D01*
X133128571Y-117909523D01*
X133080952Y-117814285D01*
X133033333Y-117623809D01*
X133033333Y-117480952D01*
X133080952Y-117290476D01*
X133128571Y-117195238D01*
X133223809Y-117100000D01*
X133366666Y-117052380D01*
X133461904Y-117052380D01*
X133604761Y-117100000D01*
X133652380Y-117147619D01*
X103536904Y-71071130D02*
X103536904Y-70071130D01*
X103536904Y-70547321D02*
X104108333Y-70547321D01*
X104108333Y-71071130D02*
X104108333Y-70071130D01*
X105108333Y-71071130D02*
X104536904Y-71071130D01*
X104822619Y-71071130D02*
X104822619Y-70071130D01*
X104727380Y-70213988D01*
X104632142Y-70309226D01*
X104536904Y-70356845D01*
X105489285Y-70166369D02*
X105536904Y-70118750D01*
X105632142Y-70071130D01*
X105870238Y-70071130D01*
X105965476Y-70118750D01*
X106013095Y-70166369D01*
X106060714Y-70261607D01*
X106060714Y-70356845D01*
X106013095Y-70499702D01*
X105441666Y-71071130D01*
X106060714Y-71071130D01*
X134969345Y-123458630D02*
X134969345Y-122458630D01*
X134969345Y-122934821D02*
X135540773Y-122934821D01*
X135540773Y-123458630D02*
X135540773Y-122458630D01*
X136445535Y-122458630D02*
X136255059Y-122458630D01*
X136159821Y-122506250D01*
X136112202Y-122553869D01*
X136016964Y-122696726D01*
X135969345Y-122887202D01*
X135969345Y-123268154D01*
X136016964Y-123363392D01*
X136064583Y-123411011D01*
X136159821Y-123458630D01*
X136350297Y-123458630D01*
X136445535Y-123411011D01*
X136493154Y-123363392D01*
X136540773Y-123268154D01*
X136540773Y-123030059D01*
X136493154Y-122934821D01*
X136445535Y-122887202D01*
X136350297Y-122839583D01*
X136159821Y-122839583D01*
X136064583Y-122887202D01*
X136016964Y-122934821D01*
X135969345Y-123030059D01*
X222599404Y-28208630D02*
X222599404Y-27208630D01*
X222599404Y-27684821D02*
X223170833Y-27684821D01*
X223170833Y-28208630D02*
X223170833Y-27208630D01*
X224170833Y-28208630D02*
X223599404Y-28208630D01*
X223885119Y-28208630D02*
X223885119Y-27208630D01*
X223789880Y-27351488D01*
X223694642Y-27446726D01*
X223599404Y-27494345D01*
X225027976Y-27541964D02*
X225027976Y-28208630D01*
X224789880Y-27161011D02*
X224551785Y-27875297D01*
X225170833Y-27875297D01*
X298799404Y-71071130D02*
X298799404Y-70071130D01*
X298799404Y-70547321D02*
X299370833Y-70547321D01*
X299370833Y-71071130D02*
X299370833Y-70071130D01*
X300370833Y-71071130D02*
X299799404Y-71071130D01*
X300085119Y-71071130D02*
X300085119Y-70071130D01*
X299989880Y-70213988D01*
X299894642Y-70309226D01*
X299799404Y-70356845D01*
X301227976Y-70071130D02*
X301037500Y-70071130D01*
X300942261Y-70118750D01*
X300894642Y-70166369D01*
X300799404Y-70309226D01*
X300751785Y-70499702D01*
X300751785Y-70880654D01*
X300799404Y-70975892D01*
X300847023Y-71023511D01*
X300942261Y-71071130D01*
X301132738Y-71071130D01*
X301227976Y-71023511D01*
X301275595Y-70975892D01*
X301323214Y-70880654D01*
X301323214Y-70642559D01*
X301275595Y-70547321D01*
X301227976Y-70499702D01*
X301132738Y-70452083D01*
X300942261Y-70452083D01*
X300847023Y-70499702D01*
X300799404Y-70547321D01*
X300751785Y-70642559D01*
X20193154Y-66308630D02*
X20193154Y-65308630D01*
X20193154Y-65784821D02*
X20764583Y-65784821D01*
X20764583Y-66308630D02*
X20764583Y-65308630D01*
X21764583Y-66308630D02*
X21193154Y-66308630D01*
X21478869Y-66308630D02*
X21478869Y-65308630D01*
X21383630Y-65451488D01*
X21288392Y-65546726D01*
X21193154Y-65594345D01*
X22669345Y-65308630D02*
X22193154Y-65308630D01*
X22145535Y-65784821D01*
X22193154Y-65737202D01*
X22288392Y-65689583D01*
X22526488Y-65689583D01*
X22621726Y-65737202D01*
X22669345Y-65784821D01*
X22716964Y-65880059D01*
X22716964Y-66118154D01*
X22669345Y-66213392D01*
X22621726Y-66261011D01*
X22526488Y-66308630D01*
X22288392Y-66308630D01*
X22193154Y-66261011D01*
X22145535Y-66213392D01*
X284511904Y-38552380D02*
X284511904Y-37552380D01*
X284511904Y-38028571D02*
X285083333Y-38028571D01*
X285083333Y-38552380D02*
X285083333Y-37552380D01*
X286083333Y-38552380D02*
X285511904Y-38552380D01*
X285797619Y-38552380D02*
X285797619Y-37552380D01*
X285702380Y-37695238D01*
X285607142Y-37790476D01*
X285511904Y-37838095D01*
X286702380Y-37552380D02*
X286797619Y-37552380D01*
X286892857Y-37600000D01*
X286940476Y-37647619D01*
X286988095Y-37742857D01*
X287035714Y-37933333D01*
X287035714Y-38171428D01*
X286988095Y-38361904D01*
X286940476Y-38457142D01*
X286892857Y-38504761D01*
X286797619Y-38552380D01*
X286702380Y-38552380D01*
X286607142Y-38504761D01*
X286559523Y-38457142D01*
X286511904Y-38361904D01*
X286464285Y-38171428D01*
X286464285Y-37933333D01*
X286511904Y-37742857D01*
X286559523Y-37647619D01*
X286607142Y-37600000D01*
X286702380Y-37552380D01*
X284988095Y-125839880D02*
X284988095Y-124839880D01*
X284988095Y-125316071D02*
X285559523Y-125316071D01*
X285559523Y-125839880D02*
X285559523Y-124839880D01*
X286083333Y-125839880D02*
X286273809Y-125839880D01*
X286369047Y-125792261D01*
X286416666Y-125744642D01*
X286511904Y-125601785D01*
X286559523Y-125411309D01*
X286559523Y-125030357D01*
X286511904Y-124935119D01*
X286464285Y-124887500D01*
X286369047Y-124839880D01*
X286178571Y-124839880D01*
X286083333Y-124887500D01*
X286035714Y-124935119D01*
X285988095Y-125030357D01*
X285988095Y-125268452D01*
X286035714Y-125363690D01*
X286083333Y-125411309D01*
X286178571Y-125458928D01*
X286369047Y-125458928D01*
X286464285Y-125411309D01*
X286511904Y-125363690D01*
X286559523Y-125268452D01*
X217836904Y-71071130D02*
X217836904Y-70071130D01*
X217836904Y-70547321D02*
X218408333Y-70547321D01*
X218408333Y-71071130D02*
X218408333Y-70071130D01*
X219408333Y-71071130D02*
X218836904Y-71071130D01*
X219122619Y-71071130D02*
X219122619Y-70071130D01*
X219027380Y-70213988D01*
X218932142Y-70309226D01*
X218836904Y-70356845D01*
X220360714Y-71071130D02*
X219789285Y-71071130D01*
X220075000Y-71071130D02*
X220075000Y-70071130D01*
X219979761Y-70213988D01*
X219884523Y-70309226D01*
X219789285Y-70356845D01*
X182118154Y-123458630D02*
X182118154Y-122458630D01*
X182118154Y-122934821D02*
X182689583Y-122934821D01*
X182689583Y-123458630D02*
X182689583Y-122458630D01*
X183689583Y-123458630D02*
X183118154Y-123458630D01*
X183403869Y-123458630D02*
X183403869Y-122458630D01*
X183308630Y-122601488D01*
X183213392Y-122696726D01*
X183118154Y-122744345D01*
X184022916Y-122458630D02*
X184641964Y-122458630D01*
X184308630Y-122839583D01*
X184451488Y-122839583D01*
X184546726Y-122887202D01*
X184594345Y-122934821D01*
X184641964Y-123030059D01*
X184641964Y-123268154D01*
X184594345Y-123363392D01*
X184546726Y-123411011D01*
X184451488Y-123458630D01*
X184165773Y-123458630D01*
X184070535Y-123411011D01*
X184022916Y-123363392D01*
X37338095Y-123458630D02*
X37338095Y-122458630D01*
X37338095Y-122934821D02*
X37909523Y-122934821D01*
X37909523Y-123458630D02*
X37909523Y-122458630D01*
X38290476Y-122458630D02*
X38957142Y-122458630D01*
X38528571Y-123458630D01*
X44481845Y-32971130D02*
X44481845Y-31971130D01*
X44481845Y-32447321D02*
X45053273Y-32447321D01*
X45053273Y-32971130D02*
X45053273Y-31971130D01*
X46005654Y-31971130D02*
X45529464Y-31971130D01*
X45481845Y-32447321D01*
X45529464Y-32399702D01*
X45624702Y-32352083D01*
X45862797Y-32352083D01*
X45958035Y-32399702D01*
X46005654Y-32447321D01*
X46053273Y-32542559D01*
X46053273Y-32780654D01*
X46005654Y-32875892D01*
X45958035Y-32923511D01*
X45862797Y-32971130D01*
X45624702Y-32971130D01*
X45529464Y-32923511D01*
X45481845Y-32875892D01*
X134969345Y-28208630D02*
X134969345Y-27208630D01*
X134969345Y-27684821D02*
X135540773Y-27684821D01*
X135540773Y-28208630D02*
X135540773Y-27208630D01*
X136159821Y-27637202D02*
X136064583Y-27589583D01*
X136016964Y-27541964D01*
X135969345Y-27446726D01*
X135969345Y-27399107D01*
X136016964Y-27303869D01*
X136064583Y-27256250D01*
X136159821Y-27208630D01*
X136350297Y-27208630D01*
X136445535Y-27256250D01*
X136493154Y-27303869D01*
X136540773Y-27399107D01*
X136540773Y-27446726D01*
X136493154Y-27541964D01*
X136445535Y-27589583D01*
X136350297Y-27637202D01*
X136159821Y-27637202D01*
X136064583Y-27684821D01*
X136016964Y-27732440D01*
X135969345Y-27827678D01*
X135969345Y-28018154D01*
X136016964Y-28113392D01*
X136064583Y-28161011D01*
X136159821Y-28208630D01*
X136350297Y-28208630D01*
X136445535Y-28161011D01*
X136493154Y-28113392D01*
X136540773Y-28018154D01*
X136540773Y-27827678D01*
X136493154Y-27732440D01*
X136445535Y-27684821D01*
X136350297Y-27637202D01*
%LPC*%
D11*
X104775000Y-73818750D03*
X135731250Y-126206250D03*
X223837500Y-30956250D03*
X300037500Y-73818750D03*
X21431250Y-69056250D03*
X285750000Y-33337500D03*
X285750000Y-128587500D03*
X219075000Y-73818750D03*
X183356250Y-126206250D03*
X38100000Y-126206250D03*
X45243750Y-35718750D03*
X135731250Y-30956250D03*
M02*
