%FSLAX45Y45*%
G04 Gerber Fmt 4.5, Leading zero omitted, Abs format (unit mm)*
G04 Created by KiCad (PCBNEW (6.0.5-0)) date 2022-08-17 23:37:07*
%MOMM*%
%LPD*%
G01*
G04 APERTURE LIST*
%TA.AperFunction,Profile*%
%ADD10C,0.100000*%
%TD*%
%ADD11C,0.200000*%
G04 APERTURE END LIST*
D10*
X4048125Y-1905000D02*
X3810000Y-2143125D01*
X30241875Y-13573125D02*
X2143125Y-13573125D01*
X5000625Y-1905000D02*
X5238750Y-2143125D01*
X4048125Y-1905000D02*
X5000625Y-1905000D01*
X30480005Y-2381250D02*
G75*
G03*
X30241875Y-2143125I-238135J-10D01*
G01*
X1905000Y-13335000D02*
X1905000Y-2381250D01*
X5238750Y-2143125D02*
X30241875Y-2143125D01*
X2143125Y-2143125D02*
X3810000Y-2143125D01*
X2143125Y-2143125D02*
G75*
G03*
X1905000Y-2381250I0J-238125D01*
G01*
X1905000Y-13335000D02*
G75*
G03*
X2143125Y-13573125I238125J0D01*
G01*
X30480000Y-2381250D02*
X30480000Y-13335000D01*
X30241875Y-13573120D02*
G75*
G03*
X30480000Y-13335000I-5J238130D01*
G01*
D11*
X2157619Y-13888601D02*
X2157619Y-13688601D01*
X2205238Y-13688601D01*
X2233810Y-13698125D01*
X2252857Y-13717173D01*
X2262381Y-13736220D01*
X2271905Y-13774315D01*
X2271905Y-13802887D01*
X2262381Y-13840982D01*
X2252857Y-13860030D01*
X2233810Y-13879077D01*
X2205238Y-13888601D01*
X2157619Y-13888601D01*
X2357619Y-13888601D02*
X2357619Y-13755268D01*
X2357619Y-13793363D02*
X2367143Y-13774315D01*
X2376667Y-13764792D01*
X2395714Y-13755268D01*
X2414762Y-13755268D01*
X2481429Y-13888601D02*
X2481429Y-13755268D01*
X2481429Y-13688601D02*
X2471905Y-13698125D01*
X2481429Y-13707649D01*
X2490952Y-13698125D01*
X2481429Y-13688601D01*
X2481429Y-13707649D01*
X2605238Y-13888601D02*
X2586190Y-13879077D01*
X2576667Y-13860030D01*
X2576667Y-13688601D01*
X2710000Y-13888601D02*
X2690952Y-13879077D01*
X2681429Y-13860030D01*
X2681429Y-13688601D01*
X2938571Y-13888601D02*
X2938571Y-13688601D01*
X3005238Y-13831458D01*
X3071905Y-13688601D01*
X3071905Y-13888601D01*
X3252857Y-13888601D02*
X3252857Y-13783839D01*
X3243333Y-13764792D01*
X3224286Y-13755268D01*
X3186190Y-13755268D01*
X3167143Y-13764792D01*
X3252857Y-13879077D02*
X3233809Y-13888601D01*
X3186190Y-13888601D01*
X3167143Y-13879077D01*
X3157619Y-13860030D01*
X3157619Y-13840982D01*
X3167143Y-13821934D01*
X3186190Y-13812411D01*
X3233809Y-13812411D01*
X3252857Y-13802887D01*
X3348095Y-13755268D02*
X3348095Y-13955268D01*
X3348095Y-13764792D02*
X3367143Y-13755268D01*
X3405238Y-13755268D01*
X3424286Y-13764792D01*
X3433809Y-13774315D01*
X3443333Y-13793363D01*
X3443333Y-13850506D01*
X3433809Y-13869553D01*
X3424286Y-13879077D01*
X3405238Y-13888601D01*
X3367143Y-13888601D01*
X3348095Y-13879077D01*
X3529048Y-13869553D02*
X3538571Y-13879077D01*
X3529048Y-13888601D01*
X3519524Y-13879077D01*
X3529048Y-13869553D01*
X3529048Y-13888601D01*
X3529048Y-13764792D02*
X3538571Y-13774315D01*
X3529048Y-13783839D01*
X3519524Y-13774315D01*
X3529048Y-13764792D01*
X3529048Y-13783839D01*
M02*
