G04 #@! TF.GenerationSoftware,KiCad,Pcbnew,(6.0.6-0)*
G04 #@! TF.CreationDate,2023-02-10T21:58:15+09:00*
G04 #@! TF.ProjectId,bottom-plate,626f7474-6f6d-42d7-906c-6174652e6b69,rev?*
G04 #@! TF.SameCoordinates,Original*
G04 #@! TF.FileFunction,Legend,Top*
G04 #@! TF.FilePolarity,Positive*
%FSLAX46Y46*%
G04 Gerber Fmt 4.6, Leading zero omitted, Abs format (unit mm)*
G04 Created by KiCad (PCBNEW (6.0.6-0)) date 2023-02-10 21:58:15*
%MOMM*%
%LPD*%
G01*
G04 APERTURE LIST*
%ADD10C,0.150000*%
%ADD11C,2.200000*%
%ADD12C,3.200000*%
G04 APERTURE END LIST*
D10*
X124080952Y-114671180D02*
X124080952Y-115385466D01*
X124033333Y-115528323D01*
X123938095Y-115623561D01*
X123795238Y-115671180D01*
X123700000Y-115671180D01*
X125033333Y-115671180D02*
X124557142Y-115671180D01*
X124557142Y-114671180D01*
X125938095Y-115575942D02*
X125890476Y-115623561D01*
X125747619Y-115671180D01*
X125652380Y-115671180D01*
X125509523Y-115623561D01*
X125414285Y-115528323D01*
X125366666Y-115433085D01*
X125319047Y-115242609D01*
X125319047Y-115099752D01*
X125366666Y-114909276D01*
X125414285Y-114814038D01*
X125509523Y-114718800D01*
X125652380Y-114671180D01*
X125747619Y-114671180D01*
X125890476Y-114718800D01*
X125938095Y-114766419D01*
X126652380Y-114671180D02*
X126652380Y-115385466D01*
X126604761Y-115528323D01*
X126509523Y-115623561D01*
X126366666Y-115671180D01*
X126271428Y-115671180D01*
X127604761Y-115671180D02*
X127128571Y-115671180D01*
X127128571Y-114671180D01*
X128509523Y-115575942D02*
X128461904Y-115623561D01*
X128319047Y-115671180D01*
X128223809Y-115671180D01*
X128080952Y-115623561D01*
X127985714Y-115528323D01*
X127938095Y-115433085D01*
X127890476Y-115242609D01*
X127890476Y-115099752D01*
X127938095Y-114909276D01*
X127985714Y-114814038D01*
X128080952Y-114718800D01*
X128223809Y-114671180D01*
X128319047Y-114671180D01*
X128461904Y-114718800D01*
X128509523Y-114766419D01*
X129223809Y-114671180D02*
X129223809Y-115385466D01*
X129176190Y-115528323D01*
X129080952Y-115623561D01*
X128938095Y-115671180D01*
X128842857Y-115671180D01*
X130176190Y-115671180D02*
X129700000Y-115671180D01*
X129700000Y-114671180D01*
X131080952Y-115575942D02*
X131033333Y-115623561D01*
X130890476Y-115671180D01*
X130795238Y-115671180D01*
X130652380Y-115623561D01*
X130557142Y-115528323D01*
X130509523Y-115433085D01*
X130461904Y-115242609D01*
X130461904Y-115099752D01*
X130509523Y-114909276D01*
X130557142Y-114814038D01*
X130652380Y-114718800D01*
X130795238Y-114671180D01*
X130890476Y-114671180D01*
X131033333Y-114718800D01*
X131080952Y-114766419D01*
X131795238Y-114671180D02*
X131795238Y-115385466D01*
X131747619Y-115528323D01*
X131652380Y-115623561D01*
X131509523Y-115671180D01*
X131414285Y-115671180D01*
X132747619Y-115671180D02*
X132271428Y-115671180D01*
X132271428Y-114671180D01*
X133652380Y-115575942D02*
X133604761Y-115623561D01*
X133461904Y-115671180D01*
X133366666Y-115671180D01*
X133223809Y-115623561D01*
X133128571Y-115528323D01*
X133080952Y-115433085D01*
X133033333Y-115242609D01*
X133033333Y-115099752D01*
X133080952Y-114909276D01*
X133128571Y-114814038D01*
X133223809Y-114718800D01*
X133366666Y-114671180D01*
X133461904Y-114671180D01*
X133604761Y-114718800D01*
X133652380Y-114766419D01*
X19166666Y-17452380D02*
X18833333Y-16976190D01*
X18595238Y-17452380D02*
X18595238Y-16452380D01*
X18976190Y-16452380D01*
X19071428Y-16500000D01*
X19119047Y-16547619D01*
X19166666Y-16642857D01*
X19166666Y-16785714D01*
X19119047Y-16880952D01*
X19071428Y-16928571D01*
X18976190Y-16976190D01*
X18595238Y-16976190D01*
X19595238Y-16928571D02*
X19928571Y-16928571D01*
X20071428Y-17452380D02*
X19595238Y-17452380D01*
X19595238Y-16452380D01*
X20071428Y-16452380D01*
X20833333Y-16928571D02*
X20500000Y-16928571D01*
X20500000Y-17452380D02*
X20500000Y-16452380D01*
X20976190Y-16452380D01*
X21500000Y-16452380D02*
X21500000Y-16690476D01*
X21261904Y-16595238D02*
X21500000Y-16690476D01*
X21738095Y-16595238D01*
X21357142Y-16880952D02*
X21500000Y-16690476D01*
X21642857Y-16880952D01*
X22261904Y-16452380D02*
X22261904Y-16690476D01*
X22023809Y-16595238D02*
X22261904Y-16690476D01*
X22500000Y-16595238D01*
X22119047Y-16880952D02*
X22261904Y-16690476D01*
X22404761Y-16880952D01*
%LPC*%
D11*
X21550000Y-76200000D03*
X138125000Y-21550000D03*
X100000000Y-130850000D03*
D12*
X285700000Y-37300000D03*
D11*
X302300000Y-76200000D03*
D12*
X285700000Y-115500000D03*
D11*
X27475000Y-105525000D03*
X38100000Y-30300000D03*
X285700000Y-126400000D03*
X54900000Y-73000000D03*
X38100000Y-126400000D03*
X285700000Y-30300000D03*
D12*
X38100000Y-115500000D03*
D11*
X223800000Y-21550000D03*
X219100000Y-130850000D03*
D12*
X38100000Y-37300000D03*
M02*
