G04 #@! TF.GenerationSoftware,KiCad,Pcbnew,(6.0.6-0)*
G04 #@! TF.CreationDate,2023-02-10T21:58:15+09:00*
G04 #@! TF.ProjectId,bottom-plate,626f7474-6f6d-42d7-906c-6174652e6b69,rev?*
G04 #@! TF.SameCoordinates,Original*
G04 #@! TF.FileFunction,Legend,Bot*
G04 #@! TF.FilePolarity,Positive*
%FSLAX46Y46*%
G04 Gerber Fmt 4.6, Leading zero omitted, Abs format (unit mm)*
G04 Created by KiCad (PCBNEW (6.0.6-0)) date 2023-02-10 21:58:15*
%MOMM*%
%LPD*%
G01*
G04 APERTURE LIST*
%ADD10C,0.150000*%
%ADD11C,2.200000*%
%ADD12C,3.200000*%
G04 APERTURE END LIST*
D10*
X168700000Y-122242380D02*
X168700000Y-121242380D01*
X168604761Y-121861428D02*
X168319047Y-122242380D01*
X168319047Y-121575714D02*
X168700000Y-121956666D01*
X167509523Y-122194761D02*
X167604761Y-122242380D01*
X167795238Y-122242380D01*
X167890476Y-122194761D01*
X167938095Y-122099523D01*
X167938095Y-121718571D01*
X167890476Y-121623333D01*
X167795238Y-121575714D01*
X167604761Y-121575714D01*
X167509523Y-121623333D01*
X167461904Y-121718571D01*
X167461904Y-121813809D01*
X167938095Y-121909047D01*
X167128571Y-121575714D02*
X166890476Y-122242380D01*
X166652380Y-121575714D02*
X166890476Y-122242380D01*
X166985714Y-122480476D01*
X167033333Y-122528095D01*
X167128571Y-122575714D01*
X166271428Y-121861428D02*
X165509523Y-121861428D01*
X165033333Y-122242380D02*
X165033333Y-121575714D01*
X165033333Y-121766190D02*
X164985714Y-121670952D01*
X164938095Y-121623333D01*
X164842857Y-121575714D01*
X164747619Y-121575714D01*
X164414285Y-122242380D02*
X164414285Y-121575714D01*
X164414285Y-121242380D02*
X164461904Y-121290000D01*
X164414285Y-121337619D01*
X164366666Y-121290000D01*
X164414285Y-121242380D01*
X164414285Y-121337619D01*
X163938095Y-121575714D02*
X163938095Y-122575714D01*
X163938095Y-121623333D02*
X163842857Y-121575714D01*
X163652380Y-121575714D01*
X163557142Y-121623333D01*
X163509523Y-121670952D01*
X163461904Y-121766190D01*
X163461904Y-122051904D01*
X163509523Y-122147142D01*
X163557142Y-122194761D01*
X163652380Y-122242380D01*
X163842857Y-122242380D01*
X163938095Y-122194761D01*
X163033333Y-121575714D02*
X163033333Y-122575714D01*
X163033333Y-121623333D02*
X162938095Y-121575714D01*
X162747619Y-121575714D01*
X162652380Y-121623333D01*
X162604761Y-121670952D01*
X162557142Y-121766190D01*
X162557142Y-122051904D01*
X162604761Y-122147142D01*
X162652380Y-122194761D01*
X162747619Y-122242380D01*
X162938095Y-122242380D01*
X163033333Y-122194761D01*
X161747619Y-122194761D02*
X161842857Y-122242380D01*
X162033333Y-122242380D01*
X162128571Y-122194761D01*
X162176190Y-122099523D01*
X162176190Y-121718571D01*
X162128571Y-121623333D01*
X162033333Y-121575714D01*
X161842857Y-121575714D01*
X161747619Y-121623333D01*
X161700000Y-121718571D01*
X161700000Y-121813809D01*
X162176190Y-121909047D01*
X161271428Y-122242380D02*
X161271428Y-121575714D01*
X161271428Y-121766190D02*
X161223809Y-121670952D01*
X161176190Y-121623333D01*
X161080952Y-121575714D01*
X160985714Y-121575714D01*
X160652380Y-121861428D02*
X159890476Y-121861428D01*
X159414285Y-122242380D02*
X159414285Y-121242380D01*
X159414285Y-121623333D02*
X159319047Y-121575714D01*
X159128571Y-121575714D01*
X159033333Y-121623333D01*
X158985714Y-121670952D01*
X158938095Y-121766190D01*
X158938095Y-122051904D01*
X158985714Y-122147142D01*
X159033333Y-122194761D01*
X159128571Y-122242380D01*
X159319047Y-122242380D01*
X159414285Y-122194761D01*
X158366666Y-122242380D02*
X158461904Y-122194761D01*
X158509523Y-122147142D01*
X158557142Y-122051904D01*
X158557142Y-121766190D01*
X158509523Y-121670952D01*
X158461904Y-121623333D01*
X158366666Y-121575714D01*
X158223809Y-121575714D01*
X158128571Y-121623333D01*
X158080952Y-121670952D01*
X158033333Y-121766190D01*
X158033333Y-122051904D01*
X158080952Y-122147142D01*
X158128571Y-122194761D01*
X158223809Y-122242380D01*
X158366666Y-122242380D01*
X157747619Y-121575714D02*
X157366666Y-121575714D01*
X157604761Y-121242380D02*
X157604761Y-122099523D01*
X157557142Y-122194761D01*
X157461904Y-122242380D01*
X157366666Y-122242380D01*
X157176190Y-121575714D02*
X156795238Y-121575714D01*
X157033333Y-121242380D02*
X157033333Y-122099523D01*
X156985714Y-122194761D01*
X156890476Y-122242380D01*
X156795238Y-122242380D01*
X156319047Y-122242380D02*
X156414285Y-122194761D01*
X156461904Y-122147142D01*
X156509523Y-122051904D01*
X156509523Y-121766190D01*
X156461904Y-121670952D01*
X156414285Y-121623333D01*
X156319047Y-121575714D01*
X156176190Y-121575714D01*
X156080952Y-121623333D01*
X156033333Y-121670952D01*
X155985714Y-121766190D01*
X155985714Y-122051904D01*
X156033333Y-122147142D01*
X156080952Y-122194761D01*
X156176190Y-122242380D01*
X156319047Y-122242380D01*
X155557142Y-122242380D02*
X155557142Y-121575714D01*
X155557142Y-121670952D02*
X155509523Y-121623333D01*
X155414285Y-121575714D01*
X155271428Y-121575714D01*
X155176190Y-121623333D01*
X155128571Y-121718571D01*
X155128571Y-122242380D01*
X155128571Y-121718571D02*
X155080952Y-121623333D01*
X154985714Y-121575714D01*
X154842857Y-121575714D01*
X154747619Y-121623333D01*
X154700000Y-121718571D01*
X154700000Y-122242380D01*
X154223809Y-121861428D02*
X153461904Y-121861428D01*
X152985714Y-121575714D02*
X152985714Y-122575714D01*
X152985714Y-121623333D02*
X152890476Y-121575714D01*
X152700000Y-121575714D01*
X152604761Y-121623333D01*
X152557142Y-121670952D01*
X152509523Y-121766190D01*
X152509523Y-122051904D01*
X152557142Y-122147142D01*
X152604761Y-122194761D01*
X152700000Y-122242380D01*
X152890476Y-122242380D01*
X152985714Y-122194761D01*
X151938095Y-122242380D02*
X152033333Y-122194761D01*
X152080952Y-122099523D01*
X152080952Y-121242380D01*
X151128571Y-122242380D02*
X151128571Y-121718571D01*
X151176190Y-121623333D01*
X151271428Y-121575714D01*
X151461904Y-121575714D01*
X151557142Y-121623333D01*
X151128571Y-122194761D02*
X151223809Y-122242380D01*
X151461904Y-122242380D01*
X151557142Y-122194761D01*
X151604761Y-122099523D01*
X151604761Y-122004285D01*
X151557142Y-121909047D01*
X151461904Y-121861428D01*
X151223809Y-121861428D01*
X151128571Y-121813809D01*
X150795238Y-121575714D02*
X150414285Y-121575714D01*
X150652380Y-121242380D02*
X150652380Y-122099523D01*
X150604761Y-122194761D01*
X150509523Y-122242380D01*
X150414285Y-122242380D01*
X149700000Y-122194761D02*
X149795238Y-122242380D01*
X149985714Y-122242380D01*
X150080952Y-122194761D01*
X150128571Y-122099523D01*
X150128571Y-121718571D01*
X150080952Y-121623333D01*
X149985714Y-121575714D01*
X149795238Y-121575714D01*
X149700000Y-121623333D01*
X149652380Y-121718571D01*
X149652380Y-121813809D01*
X150128571Y-121909047D01*
X160628571Y-123185714D02*
X160390476Y-123852380D01*
X160152380Y-123185714D01*
X159580952Y-122852380D02*
X159485714Y-122852380D01*
X159390476Y-122900000D01*
X159342857Y-122947619D01*
X159295238Y-123042857D01*
X159247619Y-123233333D01*
X159247619Y-123471428D01*
X159295238Y-123661904D01*
X159342857Y-123757142D01*
X159390476Y-123804761D01*
X159485714Y-123852380D01*
X159580952Y-123852380D01*
X159676190Y-123804761D01*
X159723809Y-123757142D01*
X159771428Y-123661904D01*
X159819047Y-123471428D01*
X159819047Y-123233333D01*
X159771428Y-123042857D01*
X159723809Y-122947619D01*
X159676190Y-122900000D01*
X159580952Y-122852380D01*
X158819047Y-123757142D02*
X158771428Y-123804761D01*
X158819047Y-123852380D01*
X158866666Y-123804761D01*
X158819047Y-123757142D01*
X158819047Y-123852380D01*
X158438095Y-122852380D02*
X157819047Y-122852380D01*
X158152380Y-123233333D01*
X158009523Y-123233333D01*
X157914285Y-123280952D01*
X157866666Y-123328571D01*
X157819047Y-123423809D01*
X157819047Y-123661904D01*
X157866666Y-123757142D01*
X157914285Y-123804761D01*
X158009523Y-123852380D01*
X158295238Y-123852380D01*
X158390476Y-123804761D01*
X158438095Y-123757142D01*
X171128571Y-124795714D02*
X171128571Y-125605238D01*
X171176190Y-125700476D01*
X171223809Y-125748095D01*
X171319047Y-125795714D01*
X171461904Y-125795714D01*
X171557142Y-125748095D01*
X171128571Y-125414761D02*
X171223809Y-125462380D01*
X171414285Y-125462380D01*
X171509523Y-125414761D01*
X171557142Y-125367142D01*
X171604761Y-125271904D01*
X171604761Y-124986190D01*
X171557142Y-124890952D01*
X171509523Y-124843333D01*
X171414285Y-124795714D01*
X171223809Y-124795714D01*
X171128571Y-124843333D01*
X170652380Y-125462380D02*
X170652380Y-124795714D01*
X170652380Y-124462380D02*
X170700000Y-124510000D01*
X170652380Y-124557619D01*
X170604761Y-124510000D01*
X170652380Y-124462380D01*
X170652380Y-124557619D01*
X170319047Y-124795714D02*
X169938095Y-124795714D01*
X170176190Y-124462380D02*
X170176190Y-125319523D01*
X170128571Y-125414761D01*
X170033333Y-125462380D01*
X169938095Y-125462380D01*
X169604761Y-125462380D02*
X169604761Y-124462380D01*
X169176190Y-125462380D02*
X169176190Y-124938571D01*
X169223809Y-124843333D01*
X169319047Y-124795714D01*
X169461904Y-124795714D01*
X169557142Y-124843333D01*
X169604761Y-124890952D01*
X168271428Y-124795714D02*
X168271428Y-125462380D01*
X168700000Y-124795714D02*
X168700000Y-125319523D01*
X168652380Y-125414761D01*
X168557142Y-125462380D01*
X168414285Y-125462380D01*
X168319047Y-125414761D01*
X168271428Y-125367142D01*
X167795238Y-125462380D02*
X167795238Y-124462380D01*
X167795238Y-124843333D02*
X167700000Y-124795714D01*
X167509523Y-124795714D01*
X167414285Y-124843333D01*
X167366666Y-124890952D01*
X167319047Y-124986190D01*
X167319047Y-125271904D01*
X167366666Y-125367142D01*
X167414285Y-125414761D01*
X167509523Y-125462380D01*
X167700000Y-125462380D01*
X167795238Y-125414761D01*
X166890476Y-125367142D02*
X166842857Y-125414761D01*
X166890476Y-125462380D01*
X166938095Y-125414761D01*
X166890476Y-125367142D01*
X166890476Y-125462380D01*
X165985714Y-125414761D02*
X166080952Y-125462380D01*
X166271428Y-125462380D01*
X166366666Y-125414761D01*
X166414285Y-125367142D01*
X166461904Y-125271904D01*
X166461904Y-124986190D01*
X166414285Y-124890952D01*
X166366666Y-124843333D01*
X166271428Y-124795714D01*
X166080952Y-124795714D01*
X165985714Y-124843333D01*
X165414285Y-125462380D02*
X165509523Y-125414761D01*
X165557142Y-125367142D01*
X165604761Y-125271904D01*
X165604761Y-124986190D01*
X165557142Y-124890952D01*
X165509523Y-124843333D01*
X165414285Y-124795714D01*
X165271428Y-124795714D01*
X165176190Y-124843333D01*
X165128571Y-124890952D01*
X165080952Y-124986190D01*
X165080952Y-125271904D01*
X165128571Y-125367142D01*
X165176190Y-125414761D01*
X165271428Y-125462380D01*
X165414285Y-125462380D01*
X164652380Y-125462380D02*
X164652380Y-124795714D01*
X164652380Y-124890952D02*
X164604761Y-124843333D01*
X164509523Y-124795714D01*
X164366666Y-124795714D01*
X164271428Y-124843333D01*
X164223809Y-124938571D01*
X164223809Y-125462380D01*
X164223809Y-124938571D02*
X164176190Y-124843333D01*
X164080952Y-124795714D01*
X163938095Y-124795714D01*
X163842857Y-124843333D01*
X163795238Y-124938571D01*
X163795238Y-125462380D01*
X162604761Y-124414761D02*
X163461904Y-125700476D01*
X162271428Y-125462380D02*
X162271428Y-124462380D01*
X162271428Y-124843333D02*
X162176190Y-124795714D01*
X161985714Y-124795714D01*
X161890476Y-124843333D01*
X161842857Y-124890952D01*
X161795238Y-124986190D01*
X161795238Y-125271904D01*
X161842857Y-125367142D01*
X161890476Y-125414761D01*
X161985714Y-125462380D01*
X162176190Y-125462380D01*
X162271428Y-125414761D01*
X161414285Y-125414761D02*
X161319047Y-125462380D01*
X161128571Y-125462380D01*
X161033333Y-125414761D01*
X160985714Y-125319523D01*
X160985714Y-125271904D01*
X161033333Y-125176666D01*
X161128571Y-125129047D01*
X161271428Y-125129047D01*
X161366666Y-125081428D01*
X161414285Y-124986190D01*
X161414285Y-124938571D01*
X161366666Y-124843333D01*
X161271428Y-124795714D01*
X161128571Y-124795714D01*
X161033333Y-124843333D01*
X160128571Y-125414761D02*
X160223809Y-125462380D01*
X160414285Y-125462380D01*
X160509523Y-125414761D01*
X160557142Y-125367142D01*
X160604761Y-125271904D01*
X160604761Y-124986190D01*
X160557142Y-124890952D01*
X160509523Y-124843333D01*
X160414285Y-124795714D01*
X160223809Y-124795714D01*
X160128571Y-124843333D01*
X159700000Y-125462380D02*
X159700000Y-124462380D01*
X159271428Y-125462380D02*
X159271428Y-124938571D01*
X159319047Y-124843333D01*
X159414285Y-124795714D01*
X159557142Y-124795714D01*
X159652380Y-124843333D01*
X159700000Y-124890952D01*
X158890476Y-124795714D02*
X158700000Y-125462380D01*
X158509523Y-124986190D01*
X158319047Y-125462380D01*
X158128571Y-124795714D01*
X157747619Y-125462380D02*
X157747619Y-124795714D01*
X157747619Y-124462380D02*
X157795238Y-124510000D01*
X157747619Y-124557619D01*
X157700000Y-124510000D01*
X157747619Y-124462380D01*
X157747619Y-124557619D01*
X157271428Y-124795714D02*
X157271428Y-125462380D01*
X157271428Y-124890952D02*
X157223809Y-124843333D01*
X157128571Y-124795714D01*
X156985714Y-124795714D01*
X156890476Y-124843333D01*
X156842857Y-124938571D01*
X156842857Y-125462380D01*
X155938095Y-125462380D02*
X155938095Y-124462380D01*
X155938095Y-125414761D02*
X156033333Y-125462380D01*
X156223809Y-125462380D01*
X156319047Y-125414761D01*
X156366666Y-125367142D01*
X156414285Y-125271904D01*
X156414285Y-124986190D01*
X156366666Y-124890952D01*
X156319047Y-124843333D01*
X156223809Y-124795714D01*
X156033333Y-124795714D01*
X155938095Y-124843333D01*
X154747619Y-124414761D02*
X155604761Y-125700476D01*
X154414285Y-125462380D02*
X154414285Y-124462380D01*
X154319047Y-125081428D02*
X154033333Y-125462380D01*
X154033333Y-124795714D02*
X154414285Y-125176666D01*
X153223809Y-125414761D02*
X153319047Y-125462380D01*
X153509523Y-125462380D01*
X153604761Y-125414761D01*
X153652380Y-125319523D01*
X153652380Y-124938571D01*
X153604761Y-124843333D01*
X153509523Y-124795714D01*
X153319047Y-124795714D01*
X153223809Y-124843333D01*
X153176190Y-124938571D01*
X153176190Y-125033809D01*
X153652380Y-125129047D01*
X152842857Y-124795714D02*
X152604761Y-125462380D01*
X152366666Y-124795714D02*
X152604761Y-125462380D01*
X152700000Y-125700476D01*
X152747619Y-125748095D01*
X152842857Y-125795714D01*
X151985714Y-125081428D02*
X151223809Y-125081428D01*
X150747619Y-125462380D02*
X150747619Y-124795714D01*
X150747619Y-124986190D02*
X150700000Y-124890952D01*
X150652380Y-124843333D01*
X150557142Y-124795714D01*
X150461904Y-124795714D01*
X150128571Y-125462380D02*
X150128571Y-124795714D01*
X150128571Y-124462380D02*
X150176190Y-124510000D01*
X150128571Y-124557619D01*
X150080952Y-124510000D01*
X150128571Y-124462380D01*
X150128571Y-124557619D01*
X149652380Y-124795714D02*
X149652380Y-125795714D01*
X149652380Y-124843333D02*
X149557142Y-124795714D01*
X149366666Y-124795714D01*
X149271428Y-124843333D01*
X149223809Y-124890952D01*
X149176190Y-124986190D01*
X149176190Y-125271904D01*
X149223809Y-125367142D01*
X149271428Y-125414761D01*
X149366666Y-125462380D01*
X149557142Y-125462380D01*
X149652380Y-125414761D01*
X148747619Y-124795714D02*
X148747619Y-125795714D01*
X148747619Y-124843333D02*
X148652380Y-124795714D01*
X148461904Y-124795714D01*
X148366666Y-124843333D01*
X148319047Y-124890952D01*
X148271428Y-124986190D01*
X148271428Y-125271904D01*
X148319047Y-125367142D01*
X148366666Y-125414761D01*
X148461904Y-125462380D01*
X148652380Y-125462380D01*
X148747619Y-125414761D01*
X147461904Y-125414761D02*
X147557142Y-125462380D01*
X147747619Y-125462380D01*
X147842857Y-125414761D01*
X147890476Y-125319523D01*
X147890476Y-124938571D01*
X147842857Y-124843333D01*
X147747619Y-124795714D01*
X147557142Y-124795714D01*
X147461904Y-124843333D01*
X147414285Y-124938571D01*
X147414285Y-125033809D01*
X147890476Y-125129047D01*
X146985714Y-125462380D02*
X146985714Y-124795714D01*
X146985714Y-124986190D02*
X146938095Y-124890952D01*
X146890476Y-124843333D01*
X146795238Y-124795714D01*
X146700000Y-124795714D01*
X65671428Y-72452380D02*
X65671428Y-73261904D01*
X65623809Y-73357142D01*
X65576190Y-73404761D01*
X65480952Y-73452380D01*
X65290476Y-73452380D01*
X65195238Y-73404761D01*
X65147619Y-73357142D01*
X65100000Y-73261904D01*
X65100000Y-72452380D01*
X64671428Y-73404761D02*
X64528571Y-73452380D01*
X64290476Y-73452380D01*
X64195238Y-73404761D01*
X64147619Y-73357142D01*
X64100000Y-73261904D01*
X64100000Y-73166666D01*
X64147619Y-73071428D01*
X64195238Y-73023809D01*
X64290476Y-72976190D01*
X64480952Y-72928571D01*
X64576190Y-72880952D01*
X64623809Y-72833333D01*
X64671428Y-72738095D01*
X64671428Y-72642857D01*
X64623809Y-72547619D01*
X64576190Y-72500000D01*
X64480952Y-72452380D01*
X64242857Y-72452380D01*
X64100000Y-72500000D01*
X63338095Y-72928571D02*
X63195238Y-72976190D01*
X63147619Y-73023809D01*
X63100000Y-73119047D01*
X63100000Y-73261904D01*
X63147619Y-73357142D01*
X63195238Y-73404761D01*
X63290476Y-73452380D01*
X63671428Y-73452380D01*
X63671428Y-72452380D01*
X63338095Y-72452380D01*
X63242857Y-72500000D01*
X63195238Y-72547619D01*
X63147619Y-72642857D01*
X63147619Y-72738095D01*
X63195238Y-72833333D01*
X63242857Y-72880952D01*
X63338095Y-72928571D01*
X63671428Y-72928571D01*
X61576190Y-72928571D02*
X61433333Y-72976190D01*
X61385714Y-73023809D01*
X61338095Y-73119047D01*
X61338095Y-73261904D01*
X61385714Y-73357142D01*
X61433333Y-73404761D01*
X61528571Y-73452380D01*
X61909523Y-73452380D01*
X61909523Y-72452380D01*
X61576190Y-72452380D01*
X61480952Y-72500000D01*
X61433333Y-72547619D01*
X61385714Y-72642857D01*
X61385714Y-72738095D01*
X61433333Y-72833333D01*
X61480952Y-72880952D01*
X61576190Y-72928571D01*
X61909523Y-72928571D01*
X60719047Y-72452380D02*
X60528571Y-72452380D01*
X60433333Y-72500000D01*
X60338095Y-72595238D01*
X60290476Y-72785714D01*
X60290476Y-73119047D01*
X60338095Y-73309523D01*
X60433333Y-73404761D01*
X60528571Y-73452380D01*
X60719047Y-73452380D01*
X60814285Y-73404761D01*
X60909523Y-73309523D01*
X60957142Y-73119047D01*
X60957142Y-72785714D01*
X60909523Y-72595238D01*
X60814285Y-72500000D01*
X60719047Y-72452380D01*
X59671428Y-72452380D02*
X59480952Y-72452380D01*
X59385714Y-72500000D01*
X59290476Y-72595238D01*
X59242857Y-72785714D01*
X59242857Y-73119047D01*
X59290476Y-73309523D01*
X59385714Y-73404761D01*
X59480952Y-73452380D01*
X59671428Y-73452380D01*
X59766666Y-73404761D01*
X59861904Y-73309523D01*
X59909523Y-73119047D01*
X59909523Y-72785714D01*
X59861904Y-72595238D01*
X59766666Y-72500000D01*
X59671428Y-72452380D01*
X58957142Y-72452380D02*
X58385714Y-72452380D01*
X58671428Y-73452380D02*
X58671428Y-72452380D01*
X34552380Y-105952380D02*
X34885714Y-105476190D01*
X35123809Y-105952380D02*
X35123809Y-104952380D01*
X34742857Y-104952380D01*
X34647619Y-105000000D01*
X34600000Y-105047619D01*
X34552380Y-105142857D01*
X34552380Y-105285714D01*
X34600000Y-105380952D01*
X34647619Y-105428571D01*
X34742857Y-105476190D01*
X35123809Y-105476190D01*
X34123809Y-105428571D02*
X33790476Y-105428571D01*
X33647619Y-105952380D02*
X34123809Y-105952380D01*
X34123809Y-104952380D01*
X33647619Y-104952380D01*
X33266666Y-105904761D02*
X33123809Y-105952380D01*
X32885714Y-105952380D01*
X32790476Y-105904761D01*
X32742857Y-105857142D01*
X32695238Y-105761904D01*
X32695238Y-105666666D01*
X32742857Y-105571428D01*
X32790476Y-105523809D01*
X32885714Y-105476190D01*
X33076190Y-105428571D01*
X33171428Y-105380952D01*
X33219047Y-105333333D01*
X33266666Y-105238095D01*
X33266666Y-105142857D01*
X33219047Y-105047619D01*
X33171428Y-105000000D01*
X33076190Y-104952380D01*
X32838095Y-104952380D01*
X32695238Y-105000000D01*
X32266666Y-105428571D02*
X31933333Y-105428571D01*
X31790476Y-105952380D02*
X32266666Y-105952380D01*
X32266666Y-104952380D01*
X31790476Y-104952380D01*
X31504761Y-104952380D02*
X30933333Y-104952380D01*
X31219047Y-105952380D02*
X31219047Y-104952380D01*
%LPC*%
D11*
X21550000Y-76200000D03*
X138125000Y-21550000D03*
X100000000Y-130850000D03*
D12*
X285700000Y-37300000D03*
D11*
X302300000Y-76200000D03*
D12*
X285700000Y-115500000D03*
D11*
X27475000Y-105525000D03*
X38100000Y-30300000D03*
X285700000Y-126400000D03*
X54900000Y-73000000D03*
X38100000Y-126400000D03*
X285700000Y-30300000D03*
D12*
X38100000Y-115500000D03*
D11*
X223800000Y-21550000D03*
X219100000Y-130850000D03*
D12*
X38100000Y-37300000D03*
M02*
