G04 #@! TF.GenerationSoftware,KiCad,Pcbnew,(6.0.5-0)*
G04 #@! TF.CreationDate,2022-07-26T23:18:35+09:00*
G04 #@! TF.ProjectId,key-ripper,6b65792d-7269-4707-9065-722e6b696361,rev?*
G04 #@! TF.SameCoordinates,Original*
G04 #@! TF.FileFunction,Paste,Bot*
G04 #@! TF.FilePolarity,Positive*
%FSLAX46Y46*%
G04 Gerber Fmt 4.6, Leading zero omitted, Abs format (unit mm)*
G04 Created by KiCad (PCBNEW (6.0.5-0)) date 2022-07-26 23:18:35*
%MOMM*%
%LPD*%
G01*
G04 APERTURE LIST*
G04 Aperture macros list*
%AMRoundRect*
0 Rectangle with rounded corners*
0 $1 Rounding radius*
0 $2 $3 $4 $5 $6 $7 $8 $9 X,Y pos of 4 corners*
0 Add a 4 corners polygon primitive as box body*
4,1,4,$2,$3,$4,$5,$6,$7,$8,$9,$2,$3,0*
0 Add four circle primitives for the rounded corners*
1,1,$1+$1,$2,$3*
1,1,$1+$1,$4,$5*
1,1,$1+$1,$6,$7*
1,1,$1+$1,$8,$9*
0 Add four rect primitives between the rounded corners*
20,1,$1+$1,$2,$3,$4,$5,0*
20,1,$1+$1,$4,$5,$6,$7,0*
20,1,$1+$1,$6,$7,$8,$9,0*
20,1,$1+$1,$8,$9,$2,$3,0*%
G04 Aperture macros list end*
%ADD10R,1.200000X0.900000*%
%ADD11RoundRect,0.140000X0.140000X0.170000X-0.140000X0.170000X-0.140000X-0.170000X0.140000X-0.170000X0*%
%ADD12RoundRect,0.140000X0.170000X-0.140000X0.170000X0.140000X-0.170000X0.140000X-0.170000X-0.140000X0*%
%ADD13RoundRect,0.140000X-0.140000X-0.170000X0.140000X-0.170000X0.140000X0.170000X-0.140000X0.170000X0*%
%ADD14RoundRect,0.150000X-0.587500X-0.150000X0.587500X-0.150000X0.587500X0.150000X-0.587500X0.150000X0*%
%ADD15RoundRect,0.218750X-0.381250X0.218750X-0.381250X-0.218750X0.381250X-0.218750X0.381250X0.218750X0*%
%ADD16RoundRect,0.200000X0.275000X-0.200000X0.275000X0.200000X-0.275000X0.200000X-0.275000X-0.200000X0*%
%ADD17RoundRect,0.135000X0.185000X-0.135000X0.185000X0.135000X-0.185000X0.135000X-0.185000X-0.135000X0*%
%ADD18R,0.300000X1.300000*%
%ADD19R,0.900000X1.200000*%
%ADD20RoundRect,0.243750X0.243750X0.456250X-0.243750X0.456250X-0.243750X-0.456250X0.243750X-0.456250X0*%
%ADD21R,1.000000X1.700000*%
%ADD22RoundRect,0.140000X-0.170000X0.140000X-0.170000X-0.140000X0.170000X-0.140000X0.170000X0.140000X0*%
%ADD23RoundRect,0.135000X-0.185000X0.135000X-0.185000X-0.135000X0.185000X-0.135000X0.185000X0.135000X0*%
%ADD24RoundRect,0.135000X-0.135000X-0.185000X0.135000X-0.185000X0.135000X0.185000X-0.135000X0.185000X0*%
%ADD25RoundRect,0.135000X0.135000X0.185000X-0.135000X0.185000X-0.135000X-0.185000X0.135000X-0.185000X0*%
%ADD26RoundRect,0.243750X-0.456250X0.243750X-0.456250X-0.243750X0.456250X-0.243750X0.456250X0.243750X0*%
%ADD27R,1.200000X1.400000*%
%ADD28R,1.100000X0.200000*%
%ADD29R,0.200000X1.100000*%
%ADD30R,3.100000X3.100000*%
%ADD31R,1.700000X1.000000*%
%ADD32RoundRect,0.150000X0.150000X-0.650000X0.150000X0.650000X-0.150000X0.650000X-0.150000X-0.650000X0*%
G04 APERTURE END LIST*
D10*
X225862500Y-77525000D03*
X225862500Y-80825000D03*
X202050000Y-58475000D03*
X202050000Y-61775000D03*
D11*
X43255000Y-85925000D03*
X42295000Y-85925000D03*
D10*
X130612500Y-77525000D03*
X130612500Y-80825000D03*
D12*
X45225000Y-85625000D03*
X45225000Y-84665000D03*
D10*
X230625000Y-20375000D03*
X230625000Y-23675000D03*
X163950000Y-20375000D03*
X163950000Y-23675000D03*
X21075000Y-20375000D03*
X21075000Y-23675000D03*
X68700000Y-58475000D03*
X68700000Y-61775000D03*
D11*
X43235000Y-84925000D03*
X42275000Y-84925000D03*
D10*
X111562500Y-77525000D03*
X111562500Y-80825000D03*
X87750000Y-58475000D03*
X87750000Y-61775000D03*
X268725000Y-20375000D03*
X268725000Y-23675000D03*
D13*
X26920000Y-101000000D03*
X27880000Y-101000000D03*
D10*
X106800000Y-58475000D03*
X106800000Y-61775000D03*
X249675000Y-20375000D03*
X249675000Y-23675000D03*
X135375000Y-39425000D03*
X135375000Y-42725000D03*
D14*
X57837500Y-94675000D03*
X57837500Y-92775000D03*
X59712500Y-93725000D03*
D15*
X61712500Y-91662500D03*
X61712500Y-93787500D03*
D10*
X202050000Y-20375000D03*
X202050000Y-23675000D03*
X168712500Y-77525000D03*
X168712500Y-80825000D03*
X149662500Y-77525000D03*
X149662500Y-80825000D03*
X51675000Y-28325000D03*
X51675000Y-25025000D03*
X94893750Y-20375000D03*
X94893750Y-23675000D03*
X268725000Y-96575000D03*
X268725000Y-99875000D03*
D16*
X46775000Y-81875000D03*
X46775000Y-80225000D03*
D17*
X25300000Y-95710000D03*
X25300000Y-94690000D03*
D10*
X113943750Y-20375000D03*
X113943750Y-23675000D03*
D17*
X57625000Y-91485000D03*
X57625000Y-90465000D03*
D18*
X41892721Y-23577837D03*
X42692823Y-23577837D03*
X43992797Y-23577837D03*
X44992797Y-23577837D03*
X45492670Y-23577837D03*
X46492416Y-23577837D03*
X47792899Y-23577837D03*
X48592747Y-23577837D03*
X48292772Y-23577837D03*
X47492670Y-23577837D03*
X46992797Y-23577837D03*
X45992797Y-23577837D03*
X44492670Y-23577837D03*
X43492670Y-23577837D03*
X42992797Y-23577837D03*
X42192696Y-23577837D03*
D19*
X58625000Y-77225000D03*
X55325000Y-77225000D03*
D10*
X173475000Y-39425000D03*
X173475000Y-42725000D03*
D20*
X59487500Y-88975000D03*
X57612500Y-88975000D03*
D10*
X75843750Y-20375000D03*
X75843750Y-23675000D03*
X183000000Y-20375000D03*
X183000000Y-23675000D03*
X287775000Y-20375000D03*
X287775000Y-23675000D03*
D21*
X29324124Y-108424975D03*
X29325394Y-101825025D03*
X25624606Y-108424975D03*
X25624606Y-101825025D03*
D10*
X49650000Y-58475000D03*
X49650000Y-61775000D03*
X92512500Y-77525000D03*
X92512500Y-80825000D03*
X275868750Y-77525000D03*
X275868750Y-80825000D03*
X268725000Y-115625000D03*
X268725000Y-118925000D03*
X206812500Y-77525000D03*
X206812500Y-80825000D03*
X197287500Y-96575000D03*
X197287500Y-99875000D03*
X82987500Y-96575000D03*
X82987500Y-99875000D03*
D13*
X52615000Y-91805000D03*
X53575000Y-91805000D03*
D17*
X48175000Y-102445000D03*
X48175000Y-101425000D03*
D10*
X63937500Y-96575000D03*
X63937500Y-99875000D03*
X230625000Y-39425000D03*
X230625000Y-42725000D03*
D22*
X47375000Y-96825000D03*
X47375000Y-97785000D03*
D10*
X21075000Y-39425000D03*
X21075000Y-42725000D03*
X163950000Y-58475000D03*
X163950000Y-61775000D03*
X223481250Y-115625000D03*
X223481250Y-118925000D03*
D23*
X55075000Y-73005000D03*
X55075000Y-74025000D03*
D10*
X40125000Y-39425000D03*
X40125000Y-42725000D03*
D24*
X55065000Y-75425000D03*
X56085000Y-75425000D03*
D10*
X40125000Y-115625000D03*
X40125000Y-118925000D03*
D24*
X47565000Y-26525000D03*
X48585000Y-26525000D03*
D10*
X178237500Y-96575000D03*
X178237500Y-99875000D03*
X140137500Y-96575000D03*
X140137500Y-99875000D03*
X240150000Y-58475000D03*
X240150000Y-61775000D03*
D12*
X44175000Y-85625000D03*
X44175000Y-84665000D03*
D10*
X216337500Y-96575000D03*
X216337500Y-99875000D03*
X116325000Y-39425000D03*
X116325000Y-42725000D03*
X59175000Y-39425000D03*
X59175000Y-42725000D03*
X211575000Y-39425000D03*
X211575000Y-42725000D03*
D25*
X40185000Y-26725000D03*
X39165000Y-26725000D03*
D12*
X59700000Y-91530000D03*
X59700000Y-90570000D03*
D10*
X235387500Y-96575000D03*
X235387500Y-99875000D03*
X283012500Y-58475000D03*
X283012500Y-61775000D03*
D12*
X53575000Y-71405000D03*
X53575000Y-70445000D03*
D10*
X154425000Y-39425000D03*
X154425000Y-42725000D03*
D12*
X58700000Y-91480000D03*
X58700000Y-90520000D03*
D10*
X73462500Y-77525000D03*
X73462500Y-80825000D03*
X144900000Y-58475000D03*
X144900000Y-61775000D03*
X278250000Y-39425000D03*
X278250000Y-42725000D03*
X192525000Y-39425000D03*
X192525000Y-42725000D03*
D12*
X47975000Y-84305000D03*
X47975000Y-83345000D03*
D13*
X49955000Y-104495000D03*
X50915000Y-104495000D03*
D11*
X43255000Y-86925000D03*
X42295000Y-86925000D03*
X42005000Y-92055000D03*
X41045000Y-92055000D03*
D22*
X46375000Y-96825000D03*
X46375000Y-97785000D03*
D10*
X25837500Y-58475000D03*
X25837500Y-61775000D03*
X56793750Y-20375000D03*
X56793750Y-23675000D03*
X28218750Y-77525000D03*
X28218750Y-80825000D03*
D12*
X52575000Y-88025000D03*
X52575000Y-87065000D03*
D10*
X249675000Y-115625000D03*
X249675000Y-118925000D03*
X144800000Y-20350000D03*
X144800000Y-23650000D03*
X244912500Y-77525000D03*
X244912500Y-80825000D03*
X259200000Y-58475000D03*
X259200000Y-61775000D03*
D26*
X51725000Y-29937500D03*
X51725000Y-31812500D03*
D12*
X47045000Y-84005000D03*
X47045000Y-83045000D03*
D10*
X249675000Y-39425000D03*
X249675000Y-42725000D03*
X21075000Y-115625000D03*
X21075000Y-118925000D03*
X125850000Y-58475000D03*
X125850000Y-61775000D03*
D27*
X51325000Y-100725000D03*
X51325000Y-102925000D03*
X49625000Y-102925000D03*
X49625000Y-100725000D03*
D10*
X159187500Y-96575000D03*
X159187500Y-99875000D03*
X102037500Y-96575000D03*
X102037500Y-99875000D03*
X183000000Y-58475000D03*
X183000000Y-61775000D03*
X80606250Y-115625000D03*
X80606250Y-118925000D03*
D28*
X50925165Y-88224924D03*
X50925165Y-88624975D03*
X50925165Y-89025025D03*
X50925165Y-89425076D03*
X50925165Y-89824873D03*
X50925165Y-90224924D03*
X50925165Y-90624975D03*
X50925165Y-91025025D03*
X50925165Y-91425076D03*
X50925165Y-91824873D03*
X50925165Y-92224924D03*
X50925165Y-92624975D03*
X50925165Y-93025025D03*
X50925165Y-93425076D03*
D29*
X49974949Y-94375038D03*
X49575152Y-94375038D03*
X49175102Y-94375038D03*
X48775051Y-94375038D03*
X48375000Y-94375038D03*
X47974949Y-94375038D03*
X47575152Y-94375038D03*
X47175102Y-94375038D03*
X46775051Y-94375038D03*
X46375000Y-94375038D03*
X45974949Y-94375038D03*
X45575152Y-94375038D03*
X45175102Y-94375038D03*
X44775051Y-94375038D03*
D28*
X43824835Y-93425076D03*
X43824835Y-93025025D03*
X43824835Y-92624975D03*
X43824835Y-92224924D03*
X43824835Y-91824873D03*
X43824835Y-91425076D03*
X43824835Y-91025025D03*
X43824835Y-90624975D03*
X43824835Y-90224924D03*
X43824835Y-89824873D03*
X43824835Y-89425076D03*
X43824835Y-89025025D03*
X43824835Y-88624975D03*
X43824835Y-88224924D03*
D29*
X44775051Y-87274962D03*
X45175102Y-87274962D03*
X45575152Y-87274962D03*
X45974949Y-87274962D03*
X46375000Y-87274962D03*
X46775051Y-87274962D03*
X47175102Y-87274962D03*
X47575152Y-87274962D03*
X47974949Y-87274962D03*
X48375000Y-87274962D03*
X48775051Y-87274962D03*
X49175102Y-87274962D03*
X49575152Y-87274962D03*
X49974949Y-87274962D03*
D30*
X47375000Y-90824873D03*
D10*
X152043750Y-115625000D03*
X152043750Y-118925000D03*
X121087500Y-96575000D03*
X121087500Y-99875000D03*
D31*
X63674950Y-70426270D03*
X57075000Y-70425000D03*
X63674950Y-74125788D03*
X57075000Y-74125788D03*
D10*
X59175000Y-115625000D03*
X59175000Y-118925000D03*
D22*
X52675000Y-101245000D03*
X52675000Y-102205000D03*
D10*
X78225000Y-39425000D03*
X78225000Y-42725000D03*
X97275000Y-39425000D03*
X97275000Y-42725000D03*
X221100000Y-58475000D03*
X221100000Y-61775000D03*
X287775000Y-115625000D03*
X287775000Y-118925000D03*
X32981250Y-96575000D03*
X32981250Y-99875000D03*
D32*
X53580000Y-80525000D03*
X52310000Y-80525000D03*
X51040000Y-80525000D03*
X49770000Y-80525000D03*
X49770000Y-73325000D03*
X51040000Y-73325000D03*
X52310000Y-73325000D03*
X53580000Y-73325000D03*
D10*
X187762500Y-77525000D03*
X187762500Y-80825000D03*
D16*
X45175000Y-81875000D03*
X45175000Y-80225000D03*
M02*
