G04 #@! TF.GenerationSoftware,KiCad,Pcbnew,(6.0.6-0)*
G04 #@! TF.CreationDate,2023-02-10T21:05:53+09:00*
G04 #@! TF.ProjectId,key-ripper,6b65792d-7269-4707-9065-722e6b696361,rev?*
G04 #@! TF.SameCoordinates,Original*
G04 #@! TF.FileFunction,Legend,Bot*
G04 #@! TF.FilePolarity,Positive*
%FSLAX46Y46*%
G04 Gerber Fmt 4.6, Leading zero omitted, Abs format (unit mm)*
G04 Created by KiCad (PCBNEW (6.0.6-0)) date 2023-02-10 21:05:53*
%MOMM*%
%LPD*%
G01*
G04 APERTURE LIST*
G04 Aperture macros list*
%AMRoundRect*
0 Rectangle with rounded corners*
0 $1 Rounding radius*
0 $2 $3 $4 $5 $6 $7 $8 $9 X,Y pos of 4 corners*
0 Add a 4 corners polygon primitive as box body*
4,1,4,$2,$3,$4,$5,$6,$7,$8,$9,$2,$3,0*
0 Add four circle primitives for the rounded corners*
1,1,$1+$1,$2,$3*
1,1,$1+$1,$4,$5*
1,1,$1+$1,$6,$7*
1,1,$1+$1,$8,$9*
0 Add four rect primitives between the rounded corners*
20,1,$1+$1,$2,$3,$4,$5,0*
20,1,$1+$1,$4,$5,$6,$7,0*
20,1,$1+$1,$6,$7,$8,$9,0*
20,1,$1+$1,$8,$9,$2,$3,0*%
G04 Aperture macros list end*
%ADD10C,0.150000*%
%ADD11C,0.130000*%
%ADD12C,0.120000*%
%ADD13C,0.254001*%
%ADD14C,0.059995*%
%ADD15C,0.152400*%
%ADD16C,0.200000*%
%ADD17C,1.750000*%
%ADD18C,4.000000*%
%ADD19C,2.500000*%
%ADD20C,6.200000*%
%ADD21C,3.048000*%
%ADD22C,3.987800*%
%ADD23C,5.000000*%
%ADD24R,1.200000X0.900000*%
%ADD25RoundRect,0.140000X0.140000X0.170000X-0.140000X0.170000X-0.140000X-0.170000X0.140000X-0.170000X0*%
%ADD26RoundRect,0.225000X0.250000X-0.225000X0.250000X0.225000X-0.250000X0.225000X-0.250000X-0.225000X0*%
%ADD27R,0.900000X1.200000*%
%ADD28RoundRect,0.225000X0.225000X0.250000X-0.225000X0.250000X-0.225000X-0.250000X0.225000X-0.250000X0*%
%ADD29C,1.000000*%
%ADD30RoundRect,0.140000X-0.170000X0.140000X-0.170000X-0.140000X0.170000X-0.140000X0.170000X0.140000X0*%
%ADD31RoundRect,0.150000X-0.587500X-0.150000X0.587500X-0.150000X0.587500X0.150000X-0.587500X0.150000X0*%
%ADD32RoundRect,0.218750X-0.381250X0.218750X-0.381250X-0.218750X0.381250X-0.218750X0.381250X0.218750X0*%
%ADD33RoundRect,0.200000X0.275000X-0.200000X0.275000X0.200000X-0.275000X0.200000X-0.275000X-0.200000X0*%
%ADD34C,0.750013*%
%ADD35O,1.200000X1.800000*%
%ADD36O,1.200000X2.000000*%
%ADD37R,0.300000X1.300000*%
%ADD38RoundRect,0.243750X0.243750X0.456250X-0.243750X0.456250X-0.243750X-0.456250X0.243750X-0.456250X0*%
%ADD39R,1.000000X1.700000*%
%ADD40RoundRect,0.140000X-0.140000X-0.170000X0.140000X-0.170000X0.140000X0.170000X-0.140000X0.170000X0*%
%ADD41RoundRect,0.225000X-0.225000X-0.250000X0.225000X-0.250000X0.225000X0.250000X-0.225000X0.250000X0*%
%ADD42C,2.000000*%
%ADD43RoundRect,0.200000X0.200000X0.275000X-0.200000X0.275000X-0.200000X-0.275000X0.200000X-0.275000X0*%
%ADD44RoundRect,0.200000X-0.275000X0.200000X-0.275000X-0.200000X0.275000X-0.200000X0.275000X0.200000X0*%
%ADD45RoundRect,0.140000X0.170000X-0.140000X0.170000X0.140000X-0.170000X0.140000X-0.170000X-0.140000X0*%
%ADD46C,1.200000*%
%ADD47O,1.000000X2.000000*%
%ADD48R,0.280010X0.600000*%
%ADD49R,1.700000X0.300000*%
%ADD50RoundRect,0.243750X-0.243750X-0.456250X0.243750X-0.456250X0.243750X0.456250X-0.243750X0.456250X0*%
%ADD51R,1.200000X1.400000*%
%ADD52R,1.100000X0.200000*%
%ADD53R,0.200000X1.100000*%
%ADD54R,3.100000X3.100000*%
%ADD55R,1.700000X1.000000*%
%ADD56RoundRect,0.200000X-0.200000X-0.275000X0.200000X-0.275000X0.200000X0.275000X-0.200000X0.275000X0*%
%ADD57RoundRect,0.225000X-0.250000X0.225000X-0.250000X-0.225000X0.250000X-0.225000X0.250000X0.225000X0*%
G04 APERTURE END LIST*
D10*
X65200000Y-94500000D02*
X62400000Y-94500000D01*
X52582843Y-100700000D02*
G75*
G03*
X52582843Y-100700000I-282843J0D01*
G01*
X36800000Y-96400000D02*
X40300000Y-96400000D01*
X40300000Y-96400000D02*
X40300000Y-98500000D01*
X40300000Y-98500000D02*
X36800000Y-98500000D01*
X36800000Y-98500000D02*
X36800000Y-96400000D01*
X54700000Y-99850000D02*
X51300000Y-99850000D01*
X54700000Y-97750000D02*
X62100000Y-97750000D01*
X62100000Y-97750000D02*
X62100000Y-99850000D01*
X62100000Y-99850000D02*
X54700000Y-99850000D01*
X54700000Y-99850000D02*
X54700000Y-97750000D01*
X20550000Y-99400000D02*
X24050000Y-99400000D01*
X24050000Y-99400000D02*
X24050000Y-101500000D01*
X24050000Y-101500000D02*
X20550000Y-101500000D01*
X20550000Y-101500000D02*
X20550000Y-99400000D01*
X43600000Y-106400000D02*
X43600000Y-103500000D01*
X49100000Y-82600000D02*
X48600000Y-83400000D01*
X51300000Y-99850000D02*
X49975000Y-98525000D01*
X68600000Y-93450000D02*
X68600000Y-95550000D01*
X44800000Y-107700000D02*
X50700000Y-107700000D01*
X50700000Y-107700000D02*
X50700000Y-109800000D01*
X50700000Y-109800000D02*
X44800000Y-109800000D01*
X44800000Y-109800000D02*
X44800000Y-107700000D01*
X40100000Y-87100000D02*
X41800000Y-86500000D01*
X65200000Y-93450000D02*
X71100000Y-93450000D01*
X71100000Y-93450000D02*
X71100000Y-95550000D01*
X71100000Y-95550000D02*
X65200000Y-95550000D01*
X65200000Y-95550000D02*
X65200000Y-93450000D01*
X68900000Y-52400000D02*
X77200000Y-52400000D01*
X77200000Y-52400000D02*
X77200000Y-54500000D01*
X77200000Y-54500000D02*
X68900000Y-54500000D01*
X68900000Y-54500000D02*
X68900000Y-52400000D01*
X44800000Y-107700000D02*
X43600000Y-106400000D01*
X43600000Y-103500000D02*
X45500000Y-101800000D01*
X66250000Y-91500000D02*
X61400000Y-89450000D01*
X76623809Y-53952380D02*
X76623809Y-52952380D01*
X76385714Y-52952380D01*
X76242857Y-53000000D01*
X76147619Y-53095238D01*
X76100000Y-53190476D01*
X76052380Y-53380952D01*
X76052380Y-53523809D01*
X76100000Y-53714285D01*
X76147619Y-53809523D01*
X76242857Y-53904761D01*
X76385714Y-53952380D01*
X76623809Y-53952380D01*
X75623809Y-53428571D02*
X75290476Y-53428571D01*
X75147619Y-53952380D02*
X75623809Y-53952380D01*
X75623809Y-52952380D01*
X75147619Y-52952380D01*
X74385714Y-53428571D02*
X74242857Y-53476190D01*
X74195238Y-53523809D01*
X74147619Y-53619047D01*
X74147619Y-53761904D01*
X74195238Y-53857142D01*
X74242857Y-53904761D01*
X74338095Y-53952380D01*
X74719047Y-53952380D01*
X74719047Y-52952380D01*
X74385714Y-52952380D01*
X74290476Y-53000000D01*
X74242857Y-53047619D01*
X74195238Y-53142857D01*
X74195238Y-53238095D01*
X74242857Y-53333333D01*
X74290476Y-53380952D01*
X74385714Y-53428571D01*
X74719047Y-53428571D01*
X73719047Y-52952380D02*
X73719047Y-53761904D01*
X73671428Y-53857142D01*
X73623809Y-53904761D01*
X73528571Y-53952380D01*
X73338095Y-53952380D01*
X73242857Y-53904761D01*
X73195238Y-53857142D01*
X73147619Y-53761904D01*
X73147619Y-52952380D01*
X72147619Y-53000000D02*
X72242857Y-52952380D01*
X72385714Y-52952380D01*
X72528571Y-53000000D01*
X72623809Y-53095238D01*
X72671428Y-53190476D01*
X72719047Y-53380952D01*
X72719047Y-53523809D01*
X72671428Y-53714285D01*
X72623809Y-53809523D01*
X72528571Y-53904761D01*
X72385714Y-53952380D01*
X72290476Y-53952380D01*
X72147619Y-53904761D01*
X72100000Y-53857142D01*
X72100000Y-53523809D01*
X72290476Y-53523809D01*
X70433333Y-52952380D02*
X70909523Y-52952380D01*
X70957142Y-53428571D01*
X70909523Y-53380952D01*
X70814285Y-53333333D01*
X70576190Y-53333333D01*
X70480952Y-53380952D01*
X70433333Y-53428571D01*
X70385714Y-53523809D01*
X70385714Y-53761904D01*
X70433333Y-53857142D01*
X70480952Y-53904761D01*
X70576190Y-53952380D01*
X70814285Y-53952380D01*
X70909523Y-53904761D01*
X70957142Y-53857142D01*
X70100000Y-52952380D02*
X69766666Y-53952380D01*
X69433333Y-52952380D01*
X55957142Y-27742857D02*
X55871428Y-27771428D01*
X55728571Y-27771428D01*
X55671428Y-27742857D01*
X55642857Y-27714285D01*
X55614285Y-27657142D01*
X55614285Y-27600000D01*
X55642857Y-27542857D01*
X55671428Y-27514285D01*
X55728571Y-27485714D01*
X55842857Y-27457142D01*
X55900000Y-27428571D01*
X55928571Y-27400000D01*
X55957142Y-27342857D01*
X55957142Y-27285714D01*
X55928571Y-27228571D01*
X55900000Y-27200000D01*
X55842857Y-27171428D01*
X55700000Y-27171428D01*
X55614285Y-27200000D01*
X55414285Y-27171428D02*
X55271428Y-27771428D01*
X55157142Y-27342857D01*
X55042857Y-27771428D01*
X54900000Y-27171428D01*
X54328571Y-27714285D02*
X54357142Y-27742857D01*
X54442857Y-27771428D01*
X54500000Y-27771428D01*
X54585714Y-27742857D01*
X54642857Y-27685714D01*
X54671428Y-27628571D01*
X54700000Y-27514285D01*
X54700000Y-27428571D01*
X54671428Y-27314285D01*
X54642857Y-27257142D01*
X54585714Y-27200000D01*
X54500000Y-27171428D01*
X54442857Y-27171428D01*
X54357142Y-27200000D01*
X54328571Y-27228571D01*
X53785714Y-27771428D02*
X54071428Y-27771428D01*
X54071428Y-27171428D01*
X53585714Y-27771428D02*
X53585714Y-27171428D01*
X53242857Y-27771428D02*
X53500000Y-27428571D01*
X53242857Y-27171428D02*
X53585714Y-27514285D01*
X56194047Y-87696428D02*
X56955952Y-87696428D01*
X56575000Y-88077380D02*
X56575000Y-87315476D01*
X80188095Y-90852380D02*
X80188095Y-91661904D01*
X80140476Y-91757142D01*
X80092857Y-91804761D01*
X79997619Y-91852380D01*
X79807142Y-91852380D01*
X79711904Y-91804761D01*
X79664285Y-91757142D01*
X79616666Y-91661904D01*
X79616666Y-90852380D01*
X79188095Y-91804761D02*
X79045238Y-91852380D01*
X78807142Y-91852380D01*
X78711904Y-91804761D01*
X78664285Y-91757142D01*
X78616666Y-91661904D01*
X78616666Y-91566666D01*
X78664285Y-91471428D01*
X78711904Y-91423809D01*
X78807142Y-91376190D01*
X78997619Y-91328571D01*
X79092857Y-91280952D01*
X79140476Y-91233333D01*
X79188095Y-91138095D01*
X79188095Y-91042857D01*
X79140476Y-90947619D01*
X79092857Y-90900000D01*
X78997619Y-90852380D01*
X78759523Y-90852380D01*
X78616666Y-90900000D01*
X78188095Y-91328571D02*
X77854761Y-91328571D01*
X77711904Y-91852380D02*
X78188095Y-91852380D01*
X78188095Y-90852380D01*
X77711904Y-90852380D01*
X76711904Y-91852380D02*
X77045238Y-91376190D01*
X77283333Y-91852380D02*
X77283333Y-90852380D01*
X76902380Y-90852380D01*
X76807142Y-90900000D01*
X76759523Y-90947619D01*
X76711904Y-91042857D01*
X76711904Y-91185714D01*
X76759523Y-91280952D01*
X76807142Y-91328571D01*
X76902380Y-91376190D01*
X77283333Y-91376190D01*
X75045238Y-91852380D02*
X75521428Y-91852380D01*
X75521428Y-90852380D01*
X74711904Y-91328571D02*
X74378571Y-91328571D01*
X74235714Y-91852380D02*
X74711904Y-91852380D01*
X74711904Y-90852380D01*
X74235714Y-90852380D01*
X73807142Y-91852380D02*
X73807142Y-90852380D01*
X73569047Y-90852380D01*
X73426190Y-90900000D01*
X73330952Y-90995238D01*
X73283333Y-91090476D01*
X73235714Y-91280952D01*
X73235714Y-91423809D01*
X73283333Y-91614285D01*
X73330952Y-91709523D01*
X73426190Y-91804761D01*
X73569047Y-91852380D01*
X73807142Y-91852380D01*
X71759523Y-92233333D02*
X71807142Y-92185714D01*
X71902380Y-92042857D01*
X71950000Y-91947619D01*
X71997619Y-91804761D01*
X72045238Y-91566666D01*
X72045238Y-91376190D01*
X71997619Y-91138095D01*
X71950000Y-90995238D01*
X71902380Y-90900000D01*
X71807142Y-90757142D01*
X71759523Y-90709523D01*
X70854761Y-90900000D02*
X70950000Y-90852380D01*
X71092857Y-90852380D01*
X71235714Y-90900000D01*
X71330952Y-90995238D01*
X71378571Y-91090476D01*
X71426190Y-91280952D01*
X71426190Y-91423809D01*
X71378571Y-91614285D01*
X71330952Y-91709523D01*
X71235714Y-91804761D01*
X71092857Y-91852380D01*
X70997619Y-91852380D01*
X70854761Y-91804761D01*
X70807142Y-91757142D01*
X70807142Y-91423809D01*
X70997619Y-91423809D01*
X70378571Y-91852380D02*
X70378571Y-90852380D01*
X69997619Y-90852380D01*
X69902380Y-90900000D01*
X69854761Y-90947619D01*
X69807142Y-91042857D01*
X69807142Y-91185714D01*
X69854761Y-91280952D01*
X69902380Y-91328571D01*
X69997619Y-91376190D01*
X70378571Y-91376190D01*
X69378571Y-91852380D02*
X69378571Y-90852380D01*
X68711904Y-90852380D02*
X68521428Y-90852380D01*
X68426190Y-90900000D01*
X68330952Y-90995238D01*
X68283333Y-91185714D01*
X68283333Y-91519047D01*
X68330952Y-91709523D01*
X68426190Y-91804761D01*
X68521428Y-91852380D01*
X68711904Y-91852380D01*
X68807142Y-91804761D01*
X68902380Y-91709523D01*
X68950000Y-91519047D01*
X68950000Y-91185714D01*
X68902380Y-90995238D01*
X68807142Y-90900000D01*
X68711904Y-90852380D01*
X67664285Y-90852380D02*
X67569047Y-90852380D01*
X67473809Y-90900000D01*
X67426190Y-90947619D01*
X67378571Y-91042857D01*
X67330952Y-91233333D01*
X67330952Y-91471428D01*
X67378571Y-91661904D01*
X67426190Y-91757142D01*
X67473809Y-91804761D01*
X67569047Y-91852380D01*
X67664285Y-91852380D01*
X67759523Y-91804761D01*
X67807142Y-91757142D01*
X67854761Y-91661904D01*
X67902380Y-91471428D01*
X67902380Y-91233333D01*
X67854761Y-91042857D01*
X67807142Y-90947619D01*
X67759523Y-90900000D01*
X67664285Y-90852380D01*
X66997619Y-92233333D02*
X66950000Y-92185714D01*
X66854761Y-92042857D01*
X66807142Y-91947619D01*
X66759523Y-91804761D01*
X66711904Y-91566666D01*
X66711904Y-91376190D01*
X66759523Y-91138095D01*
X66807142Y-90995238D01*
X66854761Y-90900000D01*
X66950000Y-90757142D01*
X66997619Y-90709523D01*
X68138095Y-94002380D02*
X67519047Y-94002380D01*
X67852380Y-94383333D01*
X67709523Y-94383333D01*
X67614285Y-94430952D01*
X67566666Y-94478571D01*
X67519047Y-94573809D01*
X67519047Y-94811904D01*
X67566666Y-94907142D01*
X67614285Y-94954761D01*
X67709523Y-95002380D01*
X67995238Y-95002380D01*
X68090476Y-94954761D01*
X68138095Y-94907142D01*
X67233333Y-94002380D02*
X66900000Y-95002380D01*
X66566666Y-94002380D01*
X66328571Y-94002380D02*
X65709523Y-94002380D01*
X66042857Y-94383333D01*
X65900000Y-94383333D01*
X65804761Y-94430952D01*
X65757142Y-94478571D01*
X65709523Y-94573809D01*
X65709523Y-94811904D01*
X65757142Y-94907142D01*
X65804761Y-94954761D01*
X65900000Y-95002380D01*
X66185714Y-95002380D01*
X66280952Y-94954761D01*
X66328571Y-94907142D01*
X54571428Y-24671428D02*
X54571428Y-24071428D01*
X54228571Y-24671428D01*
X54228571Y-24071428D01*
X53600000Y-24614285D02*
X53628571Y-24642857D01*
X53714285Y-24671428D01*
X53771428Y-24671428D01*
X53857142Y-24642857D01*
X53914285Y-24585714D01*
X53942857Y-24528571D01*
X53971428Y-24414285D01*
X53971428Y-24328571D01*
X53942857Y-24214285D01*
X53914285Y-24157142D01*
X53857142Y-24100000D01*
X53771428Y-24071428D01*
X53714285Y-24071428D01*
X53628571Y-24100000D01*
X53600000Y-24128571D01*
X54914285Y-31842857D02*
X54828571Y-31871428D01*
X54685714Y-31871428D01*
X54628571Y-31842857D01*
X54600000Y-31814285D01*
X54571428Y-31757142D01*
X54571428Y-31700000D01*
X54600000Y-31642857D01*
X54628571Y-31614285D01*
X54685714Y-31585714D01*
X54800000Y-31557142D01*
X54857142Y-31528571D01*
X54885714Y-31500000D01*
X54914285Y-31442857D01*
X54914285Y-31385714D01*
X54885714Y-31328571D01*
X54857142Y-31300000D01*
X54800000Y-31271428D01*
X54657142Y-31271428D01*
X54571428Y-31300000D01*
X54371428Y-31271428D02*
X54228571Y-31871428D01*
X54114285Y-31442857D01*
X54000000Y-31871428D01*
X53857142Y-31271428D01*
X53628571Y-31871428D02*
X53628571Y-31271428D01*
X53485714Y-31271428D01*
X53400000Y-31300000D01*
X53342857Y-31357142D01*
X53314285Y-31414285D01*
X53285714Y-31528571D01*
X53285714Y-31614285D01*
X53314285Y-31728571D01*
X53342857Y-31785714D01*
X53400000Y-31842857D01*
X53485714Y-31871428D01*
X53628571Y-31871428D01*
X39361904Y-97000000D02*
X39457142Y-96952380D01*
X39600000Y-96952380D01*
X39742857Y-97000000D01*
X39838095Y-97095238D01*
X39885714Y-97190476D01*
X39933333Y-97380952D01*
X39933333Y-97523809D01*
X39885714Y-97714285D01*
X39838095Y-97809523D01*
X39742857Y-97904761D01*
X39600000Y-97952380D01*
X39504761Y-97952380D01*
X39361904Y-97904761D01*
X39314285Y-97857142D01*
X39314285Y-97523809D01*
X39504761Y-97523809D01*
X38885714Y-97952380D02*
X38885714Y-96952380D01*
X38314285Y-97952380D01*
X38314285Y-96952380D01*
X37838095Y-97952380D02*
X37838095Y-96952380D01*
X37600000Y-96952380D01*
X37457142Y-97000000D01*
X37361904Y-97095238D01*
X37314285Y-97190476D01*
X37266666Y-97380952D01*
X37266666Y-97523809D01*
X37314285Y-97714285D01*
X37361904Y-97809523D01*
X37457142Y-97904761D01*
X37600000Y-97952380D01*
X37838095Y-97952380D01*
X61380952Y-98302380D02*
X61190476Y-98302380D01*
X61095238Y-98350000D01*
X61000000Y-98445238D01*
X60952380Y-98635714D01*
X60952380Y-98969047D01*
X61000000Y-99159523D01*
X61095238Y-99254761D01*
X61190476Y-99302380D01*
X61380952Y-99302380D01*
X61476190Y-99254761D01*
X61571428Y-99159523D01*
X61619047Y-98969047D01*
X61619047Y-98635714D01*
X61571428Y-98445238D01*
X61476190Y-98350000D01*
X61380952Y-98302380D01*
X60571428Y-99254761D02*
X60428571Y-99302380D01*
X60190476Y-99302380D01*
X60095238Y-99254761D01*
X60047619Y-99207142D01*
X60000000Y-99111904D01*
X60000000Y-99016666D01*
X60047619Y-98921428D01*
X60095238Y-98873809D01*
X60190476Y-98826190D01*
X60380952Y-98778571D01*
X60476190Y-98730952D01*
X60523809Y-98683333D01*
X60571428Y-98588095D01*
X60571428Y-98492857D01*
X60523809Y-98397619D01*
X60476190Y-98350000D01*
X60380952Y-98302380D01*
X60142857Y-98302380D01*
X60000000Y-98350000D01*
X59000000Y-99207142D02*
X59047619Y-99254761D01*
X59190476Y-99302380D01*
X59285714Y-99302380D01*
X59428571Y-99254761D01*
X59523809Y-99159523D01*
X59571428Y-99064285D01*
X59619047Y-98873809D01*
X59619047Y-98730952D01*
X59571428Y-98540476D01*
X59523809Y-98445238D01*
X59428571Y-98350000D01*
X59285714Y-98302380D01*
X59190476Y-98302380D01*
X59047619Y-98350000D01*
X59000000Y-98397619D01*
X58809523Y-99397619D02*
X58047619Y-99397619D01*
X57619047Y-98302380D02*
X57428571Y-98302380D01*
X57333333Y-98350000D01*
X57238095Y-98445238D01*
X57190476Y-98635714D01*
X57190476Y-98969047D01*
X57238095Y-99159523D01*
X57333333Y-99254761D01*
X57428571Y-99302380D01*
X57619047Y-99302380D01*
X57714285Y-99254761D01*
X57809523Y-99159523D01*
X57857142Y-98969047D01*
X57857142Y-98635714D01*
X57809523Y-98445238D01*
X57714285Y-98350000D01*
X57619047Y-98302380D01*
X56761904Y-98302380D02*
X56761904Y-99111904D01*
X56714285Y-99207142D01*
X56666666Y-99254761D01*
X56571428Y-99302380D01*
X56380952Y-99302380D01*
X56285714Y-99254761D01*
X56238095Y-99207142D01*
X56190476Y-99111904D01*
X56190476Y-98302380D01*
X55857142Y-98302380D02*
X55285714Y-98302380D01*
X55571428Y-99302380D02*
X55571428Y-98302380D01*
D11*
X48970238Y-19886904D02*
X48970238Y-20458333D01*
X49008333Y-20572619D01*
X49084523Y-20648809D01*
X49198809Y-20686904D01*
X49275000Y-20686904D01*
X48208333Y-20686904D02*
X48589285Y-20686904D01*
X48589285Y-19886904D01*
X47484523Y-20610714D02*
X47522619Y-20648809D01*
X47636904Y-20686904D01*
X47713095Y-20686904D01*
X47827380Y-20648809D01*
X47903571Y-20572619D01*
X47941666Y-20496428D01*
X47979761Y-20344047D01*
X47979761Y-20229761D01*
X47941666Y-20077380D01*
X47903571Y-20001190D01*
X47827380Y-19925000D01*
X47713095Y-19886904D01*
X47636904Y-19886904D01*
X47522619Y-19925000D01*
X47484523Y-19963095D01*
X46913095Y-19886904D02*
X46913095Y-20458333D01*
X46951190Y-20572619D01*
X47027380Y-20648809D01*
X47141666Y-20686904D01*
X47217857Y-20686904D01*
X46151190Y-20686904D02*
X46532142Y-20686904D01*
X46532142Y-19886904D01*
X45427380Y-20610714D02*
X45465476Y-20648809D01*
X45579761Y-20686904D01*
X45655952Y-20686904D01*
X45770238Y-20648809D01*
X45846428Y-20572619D01*
X45884523Y-20496428D01*
X45922619Y-20344047D01*
X45922619Y-20229761D01*
X45884523Y-20077380D01*
X45846428Y-20001190D01*
X45770238Y-19925000D01*
X45655952Y-19886904D01*
X45579761Y-19886904D01*
X45465476Y-19925000D01*
X45427380Y-19963095D01*
X44855952Y-19886904D02*
X44855952Y-20458333D01*
X44894047Y-20572619D01*
X44970238Y-20648809D01*
X45084523Y-20686904D01*
X45160714Y-20686904D01*
X44094047Y-20686904D02*
X44475000Y-20686904D01*
X44475000Y-19886904D01*
X43370238Y-20610714D02*
X43408333Y-20648809D01*
X43522619Y-20686904D01*
X43598809Y-20686904D01*
X43713095Y-20648809D01*
X43789285Y-20572619D01*
X43827380Y-20496428D01*
X43865476Y-20344047D01*
X43865476Y-20229761D01*
X43827380Y-20077380D01*
X43789285Y-20001190D01*
X43713095Y-19925000D01*
X43598809Y-19886904D01*
X43522619Y-19886904D01*
X43408333Y-19925000D01*
X43370238Y-19963095D01*
X42798809Y-19886904D02*
X42798809Y-20458333D01*
X42836904Y-20572619D01*
X42913095Y-20648809D01*
X43027380Y-20686904D01*
X43103571Y-20686904D01*
X42036904Y-20686904D02*
X42417857Y-20686904D01*
X42417857Y-19886904D01*
X41313095Y-20610714D02*
X41351190Y-20648809D01*
X41465476Y-20686904D01*
X41541666Y-20686904D01*
X41655952Y-20648809D01*
X41732142Y-20572619D01*
X41770238Y-20496428D01*
X41808333Y-20344047D01*
X41808333Y-20229761D01*
X41770238Y-20077380D01*
X41732142Y-20001190D01*
X41655952Y-19925000D01*
X41541666Y-19886904D01*
X41465476Y-19886904D01*
X41351190Y-19925000D01*
X41313095Y-19963095D01*
D10*
X50014285Y-108202380D02*
X49823809Y-108202380D01*
X49728571Y-108250000D01*
X49633333Y-108345238D01*
X49585714Y-108535714D01*
X49585714Y-108869047D01*
X49633333Y-109059523D01*
X49728571Y-109154761D01*
X49823809Y-109202380D01*
X50014285Y-109202380D01*
X50109523Y-109154761D01*
X50204761Y-109059523D01*
X50252380Y-108869047D01*
X50252380Y-108535714D01*
X50204761Y-108345238D01*
X50109523Y-108250000D01*
X50014285Y-108202380D01*
X49204761Y-109154761D02*
X49061904Y-109202380D01*
X48823809Y-109202380D01*
X48728571Y-109154761D01*
X48680952Y-109107142D01*
X48633333Y-109011904D01*
X48633333Y-108916666D01*
X48680952Y-108821428D01*
X48728571Y-108773809D01*
X48823809Y-108726190D01*
X49014285Y-108678571D01*
X49109523Y-108630952D01*
X49157142Y-108583333D01*
X49204761Y-108488095D01*
X49204761Y-108392857D01*
X49157142Y-108297619D01*
X49109523Y-108250000D01*
X49014285Y-108202380D01*
X48776190Y-108202380D01*
X48633333Y-108250000D01*
X47633333Y-109107142D02*
X47680952Y-109154761D01*
X47823809Y-109202380D01*
X47919047Y-109202380D01*
X48061904Y-109154761D01*
X48157142Y-109059523D01*
X48204761Y-108964285D01*
X48252380Y-108773809D01*
X48252380Y-108630952D01*
X48204761Y-108440476D01*
X48157142Y-108345238D01*
X48061904Y-108250000D01*
X47919047Y-108202380D01*
X47823809Y-108202380D01*
X47680952Y-108250000D01*
X47633333Y-108297619D01*
X47442857Y-109297619D02*
X46680952Y-109297619D01*
X46442857Y-109202380D02*
X46442857Y-108202380D01*
X45966666Y-109202380D02*
X45966666Y-108202380D01*
X45395238Y-109202380D01*
X45395238Y-108202380D01*
X58904761Y-20314285D02*
X58952380Y-20457142D01*
X58952380Y-20695238D01*
X58904761Y-20790476D01*
X58857142Y-20838095D01*
X58761904Y-20885714D01*
X58666666Y-20885714D01*
X58571428Y-20838095D01*
X58523809Y-20790476D01*
X58476190Y-20695238D01*
X58428571Y-20504761D01*
X58380952Y-20409523D01*
X58333333Y-20361904D01*
X58238095Y-20314285D01*
X58142857Y-20314285D01*
X58047619Y-20361904D01*
X58000000Y-20409523D01*
X57952380Y-20504761D01*
X57952380Y-20742857D01*
X58000000Y-20885714D01*
X57952380Y-21219047D02*
X58952380Y-21457142D01*
X58238095Y-21647619D01*
X58952380Y-21838095D01*
X57952380Y-22076190D01*
X58952380Y-22457142D02*
X57952380Y-22457142D01*
X57952380Y-22695238D01*
X58000000Y-22838095D01*
X58095238Y-22933333D01*
X58190476Y-22980952D01*
X58380952Y-23028571D01*
X58523809Y-23028571D01*
X58714285Y-22980952D01*
X58809523Y-22933333D01*
X58904761Y-22838095D01*
X58952380Y-22695238D01*
X58952380Y-22457142D01*
X58952380Y-24219047D02*
X57952380Y-24219047D01*
X57952380Y-24600000D01*
X58000000Y-24695238D01*
X58047619Y-24742857D01*
X58142857Y-24790476D01*
X58285714Y-24790476D01*
X58380952Y-24742857D01*
X58428571Y-24695238D01*
X58476190Y-24600000D01*
X58476190Y-24219047D01*
X58952380Y-25361904D02*
X58904761Y-25266666D01*
X58857142Y-25219047D01*
X58761904Y-25171428D01*
X58476190Y-25171428D01*
X58380952Y-25219047D01*
X58333333Y-25266666D01*
X58285714Y-25361904D01*
X58285714Y-25504761D01*
X58333333Y-25600000D01*
X58380952Y-25647619D01*
X58476190Y-25695238D01*
X58761904Y-25695238D01*
X58857142Y-25647619D01*
X58904761Y-25600000D01*
X58952380Y-25504761D01*
X58952380Y-25361904D01*
X58952380Y-26123809D02*
X58285714Y-26123809D01*
X58476190Y-26123809D02*
X58380952Y-26171428D01*
X58333333Y-26219047D01*
X58285714Y-26314285D01*
X58285714Y-26409523D01*
X58285714Y-26600000D02*
X58285714Y-26980952D01*
X57952380Y-26742857D02*
X58809523Y-26742857D01*
X58904761Y-26790476D01*
X58952380Y-26885714D01*
X58952380Y-26980952D01*
X57457142Y-34300000D02*
X57514285Y-34271428D01*
X57600000Y-34271428D01*
X57685714Y-34300000D01*
X57742857Y-34357142D01*
X57771428Y-34414285D01*
X57800000Y-34528571D01*
X57800000Y-34614285D01*
X57771428Y-34728571D01*
X57742857Y-34785714D01*
X57685714Y-34842857D01*
X57600000Y-34871428D01*
X57542857Y-34871428D01*
X57457142Y-34842857D01*
X57428571Y-34814285D01*
X57428571Y-34614285D01*
X57542857Y-34614285D01*
X57171428Y-34871428D02*
X57171428Y-34271428D01*
X56828571Y-34871428D01*
X56828571Y-34271428D01*
X56542857Y-34871428D02*
X56542857Y-34271428D01*
X56400000Y-34271428D01*
X56314285Y-34300000D01*
X56257142Y-34357142D01*
X56228571Y-34414285D01*
X56200000Y-34528571D01*
X56200000Y-34614285D01*
X56228571Y-34728571D01*
X56257142Y-34785714D01*
X56314285Y-34842857D01*
X56400000Y-34871428D01*
X56542857Y-34871428D01*
X23038095Y-100952380D02*
X23371428Y-100476190D01*
X23609523Y-100952380D02*
X23609523Y-99952380D01*
X23228571Y-99952380D01*
X23133333Y-100000000D01*
X23085714Y-100047619D01*
X23038095Y-100142857D01*
X23038095Y-100285714D01*
X23085714Y-100380952D01*
X23133333Y-100428571D01*
X23228571Y-100476190D01*
X23609523Y-100476190D01*
X22609523Y-99952380D02*
X22609523Y-100761904D01*
X22561904Y-100857142D01*
X22514285Y-100904761D01*
X22419047Y-100952380D01*
X22228571Y-100952380D01*
X22133333Y-100904761D01*
X22085714Y-100857142D01*
X22038095Y-100761904D01*
X22038095Y-99952380D01*
X21561904Y-100952380D02*
X21561904Y-99952380D01*
X20990476Y-100952380D01*
X20990476Y-99952380D01*
X190685714Y-117342380D02*
X190685714Y-116342380D01*
X190590476Y-116961428D02*
X190304761Y-117342380D01*
X190304761Y-116675714D02*
X190685714Y-117056666D01*
X189495238Y-117294761D02*
X189590476Y-117342380D01*
X189780952Y-117342380D01*
X189876190Y-117294761D01*
X189923809Y-117199523D01*
X189923809Y-116818571D01*
X189876190Y-116723333D01*
X189780952Y-116675714D01*
X189590476Y-116675714D01*
X189495238Y-116723333D01*
X189447619Y-116818571D01*
X189447619Y-116913809D01*
X189923809Y-117009047D01*
X189114285Y-116675714D02*
X188876190Y-117342380D01*
X188638095Y-116675714D02*
X188876190Y-117342380D01*
X188971428Y-117580476D01*
X189019047Y-117628095D01*
X189114285Y-117675714D01*
X188257142Y-116961428D02*
X187495238Y-116961428D01*
X187019047Y-117342380D02*
X187019047Y-116675714D01*
X187019047Y-116866190D02*
X186971428Y-116770952D01*
X186923809Y-116723333D01*
X186828571Y-116675714D01*
X186733333Y-116675714D01*
X186400000Y-117342380D02*
X186400000Y-116675714D01*
X186400000Y-116342380D02*
X186447619Y-116390000D01*
X186400000Y-116437619D01*
X186352380Y-116390000D01*
X186400000Y-116342380D01*
X186400000Y-116437619D01*
X185923809Y-116675714D02*
X185923809Y-117675714D01*
X185923809Y-116723333D02*
X185828571Y-116675714D01*
X185638095Y-116675714D01*
X185542857Y-116723333D01*
X185495238Y-116770952D01*
X185447619Y-116866190D01*
X185447619Y-117151904D01*
X185495238Y-117247142D01*
X185542857Y-117294761D01*
X185638095Y-117342380D01*
X185828571Y-117342380D01*
X185923809Y-117294761D01*
X185019047Y-116675714D02*
X185019047Y-117675714D01*
X185019047Y-116723333D02*
X184923809Y-116675714D01*
X184733333Y-116675714D01*
X184638095Y-116723333D01*
X184590476Y-116770952D01*
X184542857Y-116866190D01*
X184542857Y-117151904D01*
X184590476Y-117247142D01*
X184638095Y-117294761D01*
X184733333Y-117342380D01*
X184923809Y-117342380D01*
X185019047Y-117294761D01*
X183733333Y-117294761D02*
X183828571Y-117342380D01*
X184019047Y-117342380D01*
X184114285Y-117294761D01*
X184161904Y-117199523D01*
X184161904Y-116818571D01*
X184114285Y-116723333D01*
X184019047Y-116675714D01*
X183828571Y-116675714D01*
X183733333Y-116723333D01*
X183685714Y-116818571D01*
X183685714Y-116913809D01*
X184161904Y-117009047D01*
X183257142Y-117342380D02*
X183257142Y-116675714D01*
X183257142Y-116866190D02*
X183209523Y-116770952D01*
X183161904Y-116723333D01*
X183066666Y-116675714D01*
X182971428Y-116675714D01*
X188328571Y-118285714D02*
X188090476Y-118952380D01*
X187852380Y-118285714D01*
X187280952Y-117952380D02*
X187185714Y-117952380D01*
X187090476Y-118000000D01*
X187042857Y-118047619D01*
X186995238Y-118142857D01*
X186947619Y-118333333D01*
X186947619Y-118571428D01*
X186995238Y-118761904D01*
X187042857Y-118857142D01*
X187090476Y-118904761D01*
X187185714Y-118952380D01*
X187280952Y-118952380D01*
X187376190Y-118904761D01*
X187423809Y-118857142D01*
X187471428Y-118761904D01*
X187519047Y-118571428D01*
X187519047Y-118333333D01*
X187471428Y-118142857D01*
X187423809Y-118047619D01*
X187376190Y-118000000D01*
X187280952Y-117952380D01*
X186519047Y-118857142D02*
X186471428Y-118904761D01*
X186519047Y-118952380D01*
X186566666Y-118904761D01*
X186519047Y-118857142D01*
X186519047Y-118952380D01*
X186138095Y-117952380D02*
X185519047Y-117952380D01*
X185852380Y-118333333D01*
X185709523Y-118333333D01*
X185614285Y-118380952D01*
X185566666Y-118428571D01*
X185519047Y-118523809D01*
X185519047Y-118761904D01*
X185566666Y-118857142D01*
X185614285Y-118904761D01*
X185709523Y-118952380D01*
X185995238Y-118952380D01*
X186090476Y-118904761D01*
X186138095Y-118857142D01*
X198828571Y-119895714D02*
X198828571Y-120705238D01*
X198876190Y-120800476D01*
X198923809Y-120848095D01*
X199019047Y-120895714D01*
X199161904Y-120895714D01*
X199257142Y-120848095D01*
X198828571Y-120514761D02*
X198923809Y-120562380D01*
X199114285Y-120562380D01*
X199209523Y-120514761D01*
X199257142Y-120467142D01*
X199304761Y-120371904D01*
X199304761Y-120086190D01*
X199257142Y-119990952D01*
X199209523Y-119943333D01*
X199114285Y-119895714D01*
X198923809Y-119895714D01*
X198828571Y-119943333D01*
X198352380Y-120562380D02*
X198352380Y-119895714D01*
X198352380Y-119562380D02*
X198400000Y-119610000D01*
X198352380Y-119657619D01*
X198304761Y-119610000D01*
X198352380Y-119562380D01*
X198352380Y-119657619D01*
X198019047Y-119895714D02*
X197638095Y-119895714D01*
X197876190Y-119562380D02*
X197876190Y-120419523D01*
X197828571Y-120514761D01*
X197733333Y-120562380D01*
X197638095Y-120562380D01*
X197304761Y-120562380D02*
X197304761Y-119562380D01*
X196876190Y-120562380D02*
X196876190Y-120038571D01*
X196923809Y-119943333D01*
X197019047Y-119895714D01*
X197161904Y-119895714D01*
X197257142Y-119943333D01*
X197304761Y-119990952D01*
X195971428Y-119895714D02*
X195971428Y-120562380D01*
X196400000Y-119895714D02*
X196400000Y-120419523D01*
X196352380Y-120514761D01*
X196257142Y-120562380D01*
X196114285Y-120562380D01*
X196019047Y-120514761D01*
X195971428Y-120467142D01*
X195495238Y-120562380D02*
X195495238Y-119562380D01*
X195495238Y-119943333D02*
X195400000Y-119895714D01*
X195209523Y-119895714D01*
X195114285Y-119943333D01*
X195066666Y-119990952D01*
X195019047Y-120086190D01*
X195019047Y-120371904D01*
X195066666Y-120467142D01*
X195114285Y-120514761D01*
X195209523Y-120562380D01*
X195400000Y-120562380D01*
X195495238Y-120514761D01*
X194590476Y-120467142D02*
X194542857Y-120514761D01*
X194590476Y-120562380D01*
X194638095Y-120514761D01*
X194590476Y-120467142D01*
X194590476Y-120562380D01*
X193685714Y-120514761D02*
X193780952Y-120562380D01*
X193971428Y-120562380D01*
X194066666Y-120514761D01*
X194114285Y-120467142D01*
X194161904Y-120371904D01*
X194161904Y-120086190D01*
X194114285Y-119990952D01*
X194066666Y-119943333D01*
X193971428Y-119895714D01*
X193780952Y-119895714D01*
X193685714Y-119943333D01*
X193114285Y-120562380D02*
X193209523Y-120514761D01*
X193257142Y-120467142D01*
X193304761Y-120371904D01*
X193304761Y-120086190D01*
X193257142Y-119990952D01*
X193209523Y-119943333D01*
X193114285Y-119895714D01*
X192971428Y-119895714D01*
X192876190Y-119943333D01*
X192828571Y-119990952D01*
X192780952Y-120086190D01*
X192780952Y-120371904D01*
X192828571Y-120467142D01*
X192876190Y-120514761D01*
X192971428Y-120562380D01*
X193114285Y-120562380D01*
X192352380Y-120562380D02*
X192352380Y-119895714D01*
X192352380Y-119990952D02*
X192304761Y-119943333D01*
X192209523Y-119895714D01*
X192066666Y-119895714D01*
X191971428Y-119943333D01*
X191923809Y-120038571D01*
X191923809Y-120562380D01*
X191923809Y-120038571D02*
X191876190Y-119943333D01*
X191780952Y-119895714D01*
X191638095Y-119895714D01*
X191542857Y-119943333D01*
X191495238Y-120038571D01*
X191495238Y-120562380D01*
X190304761Y-119514761D02*
X191161904Y-120800476D01*
X189971428Y-120562380D02*
X189971428Y-119562380D01*
X189971428Y-119943333D02*
X189876190Y-119895714D01*
X189685714Y-119895714D01*
X189590476Y-119943333D01*
X189542857Y-119990952D01*
X189495238Y-120086190D01*
X189495238Y-120371904D01*
X189542857Y-120467142D01*
X189590476Y-120514761D01*
X189685714Y-120562380D01*
X189876190Y-120562380D01*
X189971428Y-120514761D01*
X189114285Y-120514761D02*
X189019047Y-120562380D01*
X188828571Y-120562380D01*
X188733333Y-120514761D01*
X188685714Y-120419523D01*
X188685714Y-120371904D01*
X188733333Y-120276666D01*
X188828571Y-120229047D01*
X188971428Y-120229047D01*
X189066666Y-120181428D01*
X189114285Y-120086190D01*
X189114285Y-120038571D01*
X189066666Y-119943333D01*
X188971428Y-119895714D01*
X188828571Y-119895714D01*
X188733333Y-119943333D01*
X187828571Y-120514761D02*
X187923809Y-120562380D01*
X188114285Y-120562380D01*
X188209523Y-120514761D01*
X188257142Y-120467142D01*
X188304761Y-120371904D01*
X188304761Y-120086190D01*
X188257142Y-119990952D01*
X188209523Y-119943333D01*
X188114285Y-119895714D01*
X187923809Y-119895714D01*
X187828571Y-119943333D01*
X187400000Y-120562380D02*
X187400000Y-119562380D01*
X186971428Y-120562380D02*
X186971428Y-120038571D01*
X187019047Y-119943333D01*
X187114285Y-119895714D01*
X187257142Y-119895714D01*
X187352380Y-119943333D01*
X187400000Y-119990952D01*
X186590476Y-119895714D02*
X186400000Y-120562380D01*
X186209523Y-120086190D01*
X186019047Y-120562380D01*
X185828571Y-119895714D01*
X185447619Y-120562380D02*
X185447619Y-119895714D01*
X185447619Y-119562380D02*
X185495238Y-119610000D01*
X185447619Y-119657619D01*
X185400000Y-119610000D01*
X185447619Y-119562380D01*
X185447619Y-119657619D01*
X184971428Y-119895714D02*
X184971428Y-120562380D01*
X184971428Y-119990952D02*
X184923809Y-119943333D01*
X184828571Y-119895714D01*
X184685714Y-119895714D01*
X184590476Y-119943333D01*
X184542857Y-120038571D01*
X184542857Y-120562380D01*
X183638095Y-120562380D02*
X183638095Y-119562380D01*
X183638095Y-120514761D02*
X183733333Y-120562380D01*
X183923809Y-120562380D01*
X184019047Y-120514761D01*
X184066666Y-120467142D01*
X184114285Y-120371904D01*
X184114285Y-120086190D01*
X184066666Y-119990952D01*
X184019047Y-119943333D01*
X183923809Y-119895714D01*
X183733333Y-119895714D01*
X183638095Y-119943333D01*
X182447619Y-119514761D02*
X183304761Y-120800476D01*
X182114285Y-120562380D02*
X182114285Y-119562380D01*
X182019047Y-120181428D02*
X181733333Y-120562380D01*
X181733333Y-119895714D02*
X182114285Y-120276666D01*
X180923809Y-120514761D02*
X181019047Y-120562380D01*
X181209523Y-120562380D01*
X181304761Y-120514761D01*
X181352380Y-120419523D01*
X181352380Y-120038571D01*
X181304761Y-119943333D01*
X181209523Y-119895714D01*
X181019047Y-119895714D01*
X180923809Y-119943333D01*
X180876190Y-120038571D01*
X180876190Y-120133809D01*
X181352380Y-120229047D01*
X180542857Y-119895714D02*
X180304761Y-120562380D01*
X180066666Y-119895714D02*
X180304761Y-120562380D01*
X180400000Y-120800476D01*
X180447619Y-120848095D01*
X180542857Y-120895714D01*
X179685714Y-120181428D02*
X178923809Y-120181428D01*
X178447619Y-120562380D02*
X178447619Y-119895714D01*
X178447619Y-120086190D02*
X178400000Y-119990952D01*
X178352380Y-119943333D01*
X178257142Y-119895714D01*
X178161904Y-119895714D01*
X177828571Y-120562380D02*
X177828571Y-119895714D01*
X177828571Y-119562380D02*
X177876190Y-119610000D01*
X177828571Y-119657619D01*
X177780952Y-119610000D01*
X177828571Y-119562380D01*
X177828571Y-119657619D01*
X177352380Y-119895714D02*
X177352380Y-120895714D01*
X177352380Y-119943333D02*
X177257142Y-119895714D01*
X177066666Y-119895714D01*
X176971428Y-119943333D01*
X176923809Y-119990952D01*
X176876190Y-120086190D01*
X176876190Y-120371904D01*
X176923809Y-120467142D01*
X176971428Y-120514761D01*
X177066666Y-120562380D01*
X177257142Y-120562380D01*
X177352380Y-120514761D01*
X176447619Y-119895714D02*
X176447619Y-120895714D01*
X176447619Y-119943333D02*
X176352380Y-119895714D01*
X176161904Y-119895714D01*
X176066666Y-119943333D01*
X176019047Y-119990952D01*
X175971428Y-120086190D01*
X175971428Y-120371904D01*
X176019047Y-120467142D01*
X176066666Y-120514761D01*
X176161904Y-120562380D01*
X176352380Y-120562380D01*
X176447619Y-120514761D01*
X175161904Y-120514761D02*
X175257142Y-120562380D01*
X175447619Y-120562380D01*
X175542857Y-120514761D01*
X175590476Y-120419523D01*
X175590476Y-120038571D01*
X175542857Y-119943333D01*
X175447619Y-119895714D01*
X175257142Y-119895714D01*
X175161904Y-119943333D01*
X175114285Y-120038571D01*
X175114285Y-120133809D01*
X175590476Y-120229047D01*
X174685714Y-120562380D02*
X174685714Y-119895714D01*
X174685714Y-120086190D02*
X174638095Y-119990952D01*
X174590476Y-119943333D01*
X174495238Y-119895714D01*
X174400000Y-119895714D01*
X50219047Y-28271428D02*
X50980952Y-28271428D01*
X50600000Y-28652380D02*
X50600000Y-27890476D01*
X70090476Y-94002380D02*
X70566666Y-94002380D01*
X70614285Y-94478571D01*
X70566666Y-94430952D01*
X70471428Y-94383333D01*
X70233333Y-94383333D01*
X70138095Y-94430952D01*
X70090476Y-94478571D01*
X70042857Y-94573809D01*
X70042857Y-94811904D01*
X70090476Y-94907142D01*
X70138095Y-94954761D01*
X70233333Y-95002380D01*
X70471428Y-95002380D01*
X70566666Y-94954761D01*
X70614285Y-94907142D01*
X69757142Y-94002380D02*
X69423809Y-95002380D01*
X69090476Y-94002380D01*
X64719047Y-57428571D02*
X65480952Y-57428571D01*
X65100000Y-57047619D02*
X65100000Y-57809523D01*
X224314880Y-77960714D02*
X223314880Y-77960714D01*
X223314880Y-78198809D01*
X223362500Y-78341666D01*
X223457738Y-78436904D01*
X223552976Y-78484523D01*
X223743452Y-78532142D01*
X223886309Y-78532142D01*
X224076785Y-78484523D01*
X224172023Y-78436904D01*
X224267261Y-78341666D01*
X224314880Y-78198809D01*
X224314880Y-77960714D01*
X223314880Y-79436904D02*
X223314880Y-78960714D01*
X223791071Y-78913095D01*
X223743452Y-78960714D01*
X223695833Y-79055952D01*
X223695833Y-79294047D01*
X223743452Y-79389285D01*
X223791071Y-79436904D01*
X223886309Y-79484523D01*
X224124404Y-79484523D01*
X224219642Y-79436904D01*
X224267261Y-79389285D01*
X224314880Y-79294047D01*
X224314880Y-79055952D01*
X224267261Y-78960714D01*
X224219642Y-78913095D01*
X223410119Y-79865476D02*
X223362500Y-79913095D01*
X223314880Y-80008333D01*
X223314880Y-80246428D01*
X223362500Y-80341666D01*
X223410119Y-80389285D01*
X223505357Y-80436904D01*
X223600595Y-80436904D01*
X223743452Y-80389285D01*
X224314880Y-79817857D01*
X224314880Y-80436904D01*
X224583928Y-80944047D02*
X224583928Y-81705952D01*
X224964880Y-81325000D02*
X224202976Y-81325000D01*
X200502380Y-58910714D02*
X199502380Y-58910714D01*
X199502380Y-59148809D01*
X199550000Y-59291666D01*
X199645238Y-59386904D01*
X199740476Y-59434523D01*
X199930952Y-59482142D01*
X200073809Y-59482142D01*
X200264285Y-59434523D01*
X200359523Y-59386904D01*
X200454761Y-59291666D01*
X200502380Y-59148809D01*
X200502380Y-58910714D01*
X199502380Y-59815476D02*
X199502380Y-60434523D01*
X199883333Y-60101190D01*
X199883333Y-60244047D01*
X199930952Y-60339285D01*
X199978571Y-60386904D01*
X200073809Y-60434523D01*
X200311904Y-60434523D01*
X200407142Y-60386904D01*
X200454761Y-60339285D01*
X200502380Y-60244047D01*
X200502380Y-59958333D01*
X200454761Y-59863095D01*
X200407142Y-59815476D01*
X199502380Y-60767857D02*
X199502380Y-61434523D01*
X200502380Y-61005952D01*
X200771428Y-61894047D02*
X200771428Y-62655952D01*
X201152380Y-62275000D02*
X200390476Y-62275000D01*
X39008333Y-86985714D02*
X39046428Y-87023809D01*
X39160714Y-87061904D01*
X39236904Y-87061904D01*
X39351190Y-87023809D01*
X39427380Y-86947619D01*
X39465476Y-86871428D01*
X39503571Y-86719047D01*
X39503571Y-86604761D01*
X39465476Y-86452380D01*
X39427380Y-86376190D01*
X39351190Y-86300000D01*
X39236904Y-86261904D01*
X39160714Y-86261904D01*
X39046428Y-86300000D01*
X39008333Y-86338095D01*
X38627380Y-87061904D02*
X38475000Y-87061904D01*
X38398809Y-87023809D01*
X38360714Y-86985714D01*
X38284523Y-86871428D01*
X38246428Y-86719047D01*
X38246428Y-86414285D01*
X38284523Y-86338095D01*
X38322619Y-86300000D01*
X38398809Y-86261904D01*
X38551190Y-86261904D01*
X38627380Y-86300000D01*
X38665476Y-86338095D01*
X38703571Y-86414285D01*
X38703571Y-86604761D01*
X38665476Y-86680952D01*
X38627380Y-86719047D01*
X38551190Y-86757142D01*
X38398809Y-86757142D01*
X38322619Y-86719047D01*
X38284523Y-86680952D01*
X38246428Y-86604761D01*
X129064880Y-77960714D02*
X128064880Y-77960714D01*
X128064880Y-78198809D01*
X128112500Y-78341666D01*
X128207738Y-78436904D01*
X128302976Y-78484523D01*
X128493452Y-78532142D01*
X128636309Y-78532142D01*
X128826785Y-78484523D01*
X128922023Y-78436904D01*
X129017261Y-78341666D01*
X129064880Y-78198809D01*
X129064880Y-77960714D01*
X128398214Y-79389285D02*
X129064880Y-79389285D01*
X128017261Y-79151190D02*
X128731547Y-78913095D01*
X128731547Y-79532142D01*
X128064880Y-79817857D02*
X128064880Y-80484523D01*
X129064880Y-80055952D01*
X129333928Y-80944047D02*
X129333928Y-81705952D01*
X129714880Y-81325000D02*
X128952976Y-81325000D01*
X46560714Y-84566666D02*
X46598809Y-84528571D01*
X46636904Y-84414285D01*
X46636904Y-84338095D01*
X46598809Y-84223809D01*
X46522619Y-84147619D01*
X46446428Y-84109523D01*
X46294047Y-84071428D01*
X46179761Y-84071428D01*
X46027380Y-84109523D01*
X45951190Y-84147619D01*
X45875000Y-84223809D01*
X45836904Y-84338095D01*
X45836904Y-84414285D01*
X45875000Y-84528571D01*
X45913095Y-84566666D01*
X45913095Y-84871428D02*
X45875000Y-84909523D01*
X45836904Y-84985714D01*
X45836904Y-85176190D01*
X45875000Y-85252380D01*
X45913095Y-85290476D01*
X45989285Y-85328571D01*
X46065476Y-85328571D01*
X46179761Y-85290476D01*
X46636904Y-84833333D01*
X46636904Y-85328571D01*
X64214285Y-58452380D02*
X64214285Y-57452380D01*
X63976190Y-57452380D01*
X63833333Y-57500000D01*
X63738095Y-57595238D01*
X63690476Y-57690476D01*
X63642857Y-57880952D01*
X63642857Y-58023809D01*
X63690476Y-58214285D01*
X63738095Y-58309523D01*
X63833333Y-58404761D01*
X63976190Y-58452380D01*
X64214285Y-58452380D01*
X63309523Y-57452380D02*
X62642857Y-57452380D01*
X63071428Y-58452380D01*
X62119047Y-57880952D02*
X62214285Y-57833333D01*
X62261904Y-57785714D01*
X62309523Y-57690476D01*
X62309523Y-57642857D01*
X62261904Y-57547619D01*
X62214285Y-57500000D01*
X62119047Y-57452380D01*
X61928571Y-57452380D01*
X61833333Y-57500000D01*
X61785714Y-57547619D01*
X61738095Y-57642857D01*
X61738095Y-57690476D01*
X61785714Y-57785714D01*
X61833333Y-57833333D01*
X61928571Y-57880952D01*
X62119047Y-57880952D01*
X62214285Y-57928571D01*
X62261904Y-57976190D01*
X62309523Y-58071428D01*
X62309523Y-58261904D01*
X62261904Y-58357142D01*
X62214285Y-58404761D01*
X62119047Y-58452380D01*
X61928571Y-58452380D01*
X61833333Y-58404761D01*
X61785714Y-58357142D01*
X61738095Y-58261904D01*
X61738095Y-58071428D01*
X61785714Y-57976190D01*
X61833333Y-57928571D01*
X61928571Y-57880952D01*
X237739285Y-35127380D02*
X237739285Y-34127380D01*
X237501190Y-34127380D01*
X237358333Y-34175000D01*
X237263095Y-34270238D01*
X237215476Y-34365476D01*
X237167857Y-34555952D01*
X237167857Y-34698809D01*
X237215476Y-34889285D01*
X237263095Y-34984523D01*
X237358333Y-35079761D01*
X237501190Y-35127380D01*
X237739285Y-35127380D01*
X236215476Y-35127380D02*
X236786904Y-35127380D01*
X236501190Y-35127380D02*
X236501190Y-34127380D01*
X236596428Y-34270238D01*
X236691666Y-34365476D01*
X236786904Y-34413095D01*
X235596428Y-34127380D02*
X235501190Y-34127380D01*
X235405952Y-34175000D01*
X235358333Y-34222619D01*
X235310714Y-34317857D01*
X235263095Y-34508333D01*
X235263095Y-34746428D01*
X235310714Y-34936904D01*
X235358333Y-35032142D01*
X235405952Y-35079761D01*
X235501190Y-35127380D01*
X235596428Y-35127380D01*
X235691666Y-35079761D01*
X235739285Y-35032142D01*
X235786904Y-34936904D01*
X235834523Y-34746428D01*
X235834523Y-34508333D01*
X235786904Y-34317857D01*
X235739285Y-34222619D01*
X235691666Y-34175000D01*
X235596428Y-34127380D01*
X234730952Y-30921428D02*
X233969047Y-30921428D01*
X234350000Y-31302380D02*
X234350000Y-30540476D01*
X170538095Y-35027380D02*
X170538095Y-34027380D01*
X170300000Y-34027380D01*
X170157142Y-34075000D01*
X170061904Y-34170238D01*
X170014285Y-34265476D01*
X169966666Y-34455952D01*
X169966666Y-34598809D01*
X170014285Y-34789285D01*
X170061904Y-34884523D01*
X170157142Y-34979761D01*
X170300000Y-35027380D01*
X170538095Y-35027380D01*
X169633333Y-34027380D02*
X168966666Y-34027380D01*
X169395238Y-35027380D01*
X168030952Y-30921428D02*
X167269047Y-30921428D01*
X167650000Y-31302380D02*
X167650000Y-30540476D01*
X27863095Y-35102380D02*
X27863095Y-34102380D01*
X27625000Y-34102380D01*
X27482142Y-34150000D01*
X27386904Y-34245238D01*
X27339285Y-34340476D01*
X27291666Y-34530952D01*
X27291666Y-34673809D01*
X27339285Y-34864285D01*
X27386904Y-34959523D01*
X27482142Y-35054761D01*
X27625000Y-35102380D01*
X27863095Y-35102380D01*
X26339285Y-35102380D02*
X26910714Y-35102380D01*
X26625000Y-35102380D02*
X26625000Y-34102380D01*
X26720238Y-34245238D01*
X26815476Y-34340476D01*
X26910714Y-34388095D01*
X25330952Y-30921428D02*
X24569047Y-30921428D01*
X24950000Y-31302380D02*
X24950000Y-30540476D01*
X67152380Y-58910714D02*
X66152380Y-58910714D01*
X66152380Y-59148809D01*
X66200000Y-59291666D01*
X66295238Y-59386904D01*
X66390476Y-59434523D01*
X66580952Y-59482142D01*
X66723809Y-59482142D01*
X66914285Y-59434523D01*
X67009523Y-59386904D01*
X67104761Y-59291666D01*
X67152380Y-59148809D01*
X67152380Y-58910714D01*
X66152380Y-59815476D02*
X66152380Y-60434523D01*
X66533333Y-60101190D01*
X66533333Y-60244047D01*
X66580952Y-60339285D01*
X66628571Y-60386904D01*
X66723809Y-60434523D01*
X66961904Y-60434523D01*
X67057142Y-60386904D01*
X67104761Y-60339285D01*
X67152380Y-60244047D01*
X67152380Y-59958333D01*
X67104761Y-59863095D01*
X67057142Y-59815476D01*
X66152380Y-61053571D02*
X66152380Y-61148809D01*
X66200000Y-61244047D01*
X66247619Y-61291666D01*
X66342857Y-61339285D01*
X66533333Y-61386904D01*
X66771428Y-61386904D01*
X66961904Y-61339285D01*
X67057142Y-61291666D01*
X67104761Y-61244047D01*
X67152380Y-61148809D01*
X67152380Y-61053571D01*
X67104761Y-60958333D01*
X67057142Y-60910714D01*
X66961904Y-60863095D01*
X66771428Y-60815476D01*
X66533333Y-60815476D01*
X66342857Y-60863095D01*
X66247619Y-60910714D01*
X66200000Y-60958333D01*
X66152380Y-61053571D01*
X67421428Y-61894047D02*
X67421428Y-62655952D01*
X67802380Y-62275000D02*
X67040476Y-62275000D01*
X41833333Y-82655714D02*
X41871428Y-82693809D01*
X41985714Y-82731904D01*
X42061904Y-82731904D01*
X42176190Y-82693809D01*
X42252380Y-82617619D01*
X42290476Y-82541428D01*
X42328571Y-82389047D01*
X42328571Y-82274761D01*
X42290476Y-82122380D01*
X42252380Y-82046190D01*
X42176190Y-81970000D01*
X42061904Y-81931904D01*
X41985714Y-81931904D01*
X41871428Y-81970000D01*
X41833333Y-82008095D01*
X41071428Y-82731904D02*
X41528571Y-82731904D01*
X41300000Y-82731904D02*
X41300000Y-81931904D01*
X41376190Y-82046190D01*
X41452380Y-82122380D01*
X41528571Y-82160476D01*
X110014880Y-77960714D02*
X109014880Y-77960714D01*
X109014880Y-78198809D01*
X109062500Y-78341666D01*
X109157738Y-78436904D01*
X109252976Y-78484523D01*
X109443452Y-78532142D01*
X109586309Y-78532142D01*
X109776785Y-78484523D01*
X109872023Y-78436904D01*
X109967261Y-78341666D01*
X110014880Y-78198809D01*
X110014880Y-77960714D01*
X109348214Y-79389285D02*
X110014880Y-79389285D01*
X108967261Y-79151190D02*
X109681547Y-78913095D01*
X109681547Y-79532142D01*
X109014880Y-80341666D02*
X109014880Y-80151190D01*
X109062500Y-80055952D01*
X109110119Y-80008333D01*
X109252976Y-79913095D01*
X109443452Y-79865476D01*
X109824404Y-79865476D01*
X109919642Y-79913095D01*
X109967261Y-79960714D01*
X110014880Y-80055952D01*
X110014880Y-80246428D01*
X109967261Y-80341666D01*
X109919642Y-80389285D01*
X109824404Y-80436904D01*
X109586309Y-80436904D01*
X109491071Y-80389285D01*
X109443452Y-80341666D01*
X109395833Y-80246428D01*
X109395833Y-80055952D01*
X109443452Y-79960714D01*
X109491071Y-79913095D01*
X109586309Y-79865476D01*
X110283928Y-80944047D02*
X110283928Y-81705952D01*
X110664880Y-81325000D02*
X109902976Y-81325000D01*
X86202380Y-58910714D02*
X85202380Y-58910714D01*
X85202380Y-59148809D01*
X85250000Y-59291666D01*
X85345238Y-59386904D01*
X85440476Y-59434523D01*
X85630952Y-59482142D01*
X85773809Y-59482142D01*
X85964285Y-59434523D01*
X86059523Y-59386904D01*
X86154761Y-59291666D01*
X86202380Y-59148809D01*
X86202380Y-58910714D01*
X85202380Y-59815476D02*
X85202380Y-60434523D01*
X85583333Y-60101190D01*
X85583333Y-60244047D01*
X85630952Y-60339285D01*
X85678571Y-60386904D01*
X85773809Y-60434523D01*
X86011904Y-60434523D01*
X86107142Y-60386904D01*
X86154761Y-60339285D01*
X86202380Y-60244047D01*
X86202380Y-59958333D01*
X86154761Y-59863095D01*
X86107142Y-59815476D01*
X86202380Y-61386904D02*
X86202380Y-60815476D01*
X86202380Y-61101190D02*
X85202380Y-61101190D01*
X85345238Y-61005952D01*
X85440476Y-60910714D01*
X85488095Y-60815476D01*
X86471428Y-61894047D02*
X86471428Y-62655952D01*
X86852380Y-62275000D02*
X86090476Y-62275000D01*
X275939285Y-34977380D02*
X275939285Y-33977380D01*
X275701190Y-33977380D01*
X275558333Y-34025000D01*
X275463095Y-34120238D01*
X275415476Y-34215476D01*
X275367857Y-34405952D01*
X275367857Y-34548809D01*
X275415476Y-34739285D01*
X275463095Y-34834523D01*
X275558333Y-34929761D01*
X275701190Y-34977380D01*
X275939285Y-34977380D01*
X274415476Y-34977380D02*
X274986904Y-34977380D01*
X274701190Y-34977380D02*
X274701190Y-33977380D01*
X274796428Y-34120238D01*
X274891666Y-34215476D01*
X274986904Y-34263095D01*
X274034523Y-34072619D02*
X273986904Y-34025000D01*
X273891666Y-33977380D01*
X273653571Y-33977380D01*
X273558333Y-34025000D01*
X273510714Y-34072619D01*
X273463095Y-34167857D01*
X273463095Y-34263095D01*
X273510714Y-34405952D01*
X274082142Y-34977380D01*
X273463095Y-34977380D01*
X272930952Y-30921428D02*
X272169047Y-30921428D01*
X272550000Y-31302380D02*
X272550000Y-30540476D01*
X23957142Y-96157142D02*
X24004761Y-96109523D01*
X24052380Y-95966666D01*
X24052380Y-95871428D01*
X24004761Y-95728571D01*
X23909523Y-95633333D01*
X23814285Y-95585714D01*
X23623809Y-95538095D01*
X23480952Y-95538095D01*
X23290476Y-95585714D01*
X23195238Y-95633333D01*
X23100000Y-95728571D01*
X23052380Y-95871428D01*
X23052380Y-95966666D01*
X23100000Y-96109523D01*
X23147619Y-96157142D01*
X24052380Y-97109523D02*
X24052380Y-96538095D01*
X24052380Y-96823809D02*
X23052380Y-96823809D01*
X23195238Y-96728571D01*
X23290476Y-96633333D01*
X23338095Y-96538095D01*
X23480952Y-97680952D02*
X23433333Y-97585714D01*
X23385714Y-97538095D01*
X23290476Y-97490476D01*
X23242857Y-97490476D01*
X23147619Y-97538095D01*
X23100000Y-97585714D01*
X23052380Y-97680952D01*
X23052380Y-97871428D01*
X23100000Y-97966666D01*
X23147619Y-98014285D01*
X23242857Y-98061904D01*
X23290476Y-98061904D01*
X23385714Y-98014285D01*
X23433333Y-97966666D01*
X23480952Y-97871428D01*
X23480952Y-97680952D01*
X23528571Y-97585714D01*
X23576190Y-97538095D01*
X23671428Y-97490476D01*
X23861904Y-97490476D01*
X23957142Y-97538095D01*
X24004761Y-97585714D01*
X24052380Y-97680952D01*
X24052380Y-97871428D01*
X24004761Y-97966666D01*
X23957142Y-98014285D01*
X23861904Y-98061904D01*
X23671428Y-98061904D01*
X23576190Y-98014285D01*
X23528571Y-97966666D01*
X23480952Y-97871428D01*
X105252380Y-58910714D02*
X104252380Y-58910714D01*
X104252380Y-59148809D01*
X104300000Y-59291666D01*
X104395238Y-59386904D01*
X104490476Y-59434523D01*
X104680952Y-59482142D01*
X104823809Y-59482142D01*
X105014285Y-59434523D01*
X105109523Y-59386904D01*
X105204761Y-59291666D01*
X105252380Y-59148809D01*
X105252380Y-58910714D01*
X104252380Y-59815476D02*
X104252380Y-60434523D01*
X104633333Y-60101190D01*
X104633333Y-60244047D01*
X104680952Y-60339285D01*
X104728571Y-60386904D01*
X104823809Y-60434523D01*
X105061904Y-60434523D01*
X105157142Y-60386904D01*
X105204761Y-60339285D01*
X105252380Y-60244047D01*
X105252380Y-59958333D01*
X105204761Y-59863095D01*
X105157142Y-59815476D01*
X104347619Y-60815476D02*
X104300000Y-60863095D01*
X104252380Y-60958333D01*
X104252380Y-61196428D01*
X104300000Y-61291666D01*
X104347619Y-61339285D01*
X104442857Y-61386904D01*
X104538095Y-61386904D01*
X104680952Y-61339285D01*
X105252380Y-60767857D01*
X105252380Y-61386904D01*
X105521428Y-61894047D02*
X105521428Y-62655952D01*
X105902380Y-62275000D02*
X105140476Y-62275000D01*
X256739285Y-35002380D02*
X256739285Y-34002380D01*
X256501190Y-34002380D01*
X256358333Y-34050000D01*
X256263095Y-34145238D01*
X256215476Y-34240476D01*
X256167857Y-34430952D01*
X256167857Y-34573809D01*
X256215476Y-34764285D01*
X256263095Y-34859523D01*
X256358333Y-34954761D01*
X256501190Y-35002380D01*
X256739285Y-35002380D01*
X255215476Y-35002380D02*
X255786904Y-35002380D01*
X255501190Y-35002380D02*
X255501190Y-34002380D01*
X255596428Y-34145238D01*
X255691666Y-34240476D01*
X255786904Y-34288095D01*
X254263095Y-35002380D02*
X254834523Y-35002380D01*
X254548809Y-35002380D02*
X254548809Y-34002380D01*
X254644047Y-34145238D01*
X254739285Y-34240476D01*
X254834523Y-34288095D01*
X253730952Y-30921428D02*
X252969047Y-30921428D01*
X253350000Y-31302380D02*
X253350000Y-30540476D01*
X133827380Y-39860714D02*
X132827380Y-39860714D01*
X132827380Y-40098809D01*
X132875000Y-40241666D01*
X132970238Y-40336904D01*
X133065476Y-40384523D01*
X133255952Y-40432142D01*
X133398809Y-40432142D01*
X133589285Y-40384523D01*
X133684523Y-40336904D01*
X133779761Y-40241666D01*
X133827380Y-40098809D01*
X133827380Y-39860714D01*
X132922619Y-40813095D02*
X132875000Y-40860714D01*
X132827380Y-40955952D01*
X132827380Y-41194047D01*
X132875000Y-41289285D01*
X132922619Y-41336904D01*
X133017857Y-41384523D01*
X133113095Y-41384523D01*
X133255952Y-41336904D01*
X133827380Y-40765476D01*
X133827380Y-41384523D01*
X132827380Y-42003571D02*
X132827380Y-42098809D01*
X132875000Y-42194047D01*
X132922619Y-42241666D01*
X133017857Y-42289285D01*
X133208333Y-42336904D01*
X133446428Y-42336904D01*
X133636904Y-42289285D01*
X133732142Y-42241666D01*
X133779761Y-42194047D01*
X133827380Y-42098809D01*
X133827380Y-42003571D01*
X133779761Y-41908333D01*
X133732142Y-41860714D01*
X133636904Y-41813095D01*
X133446428Y-41765476D01*
X133208333Y-41765476D01*
X133017857Y-41813095D01*
X132922619Y-41860714D01*
X132875000Y-41908333D01*
X132827380Y-42003571D01*
X134096428Y-42844047D02*
X134096428Y-43605952D01*
X134477380Y-43225000D02*
X133715476Y-43225000D01*
X55652380Y-93538095D02*
X56461904Y-93538095D01*
X56557142Y-93585714D01*
X56604761Y-93633333D01*
X56652380Y-93728571D01*
X56652380Y-93919047D01*
X56604761Y-94014285D01*
X56557142Y-94061904D01*
X56461904Y-94109523D01*
X55652380Y-94109523D01*
X55652380Y-94490476D02*
X55652380Y-95109523D01*
X56033333Y-94776190D01*
X56033333Y-94919047D01*
X56080952Y-95014285D01*
X56128571Y-95061904D01*
X56223809Y-95109523D01*
X56461904Y-95109523D01*
X56557142Y-95061904D01*
X56604761Y-95014285D01*
X56652380Y-94919047D01*
X56652380Y-94633333D01*
X56604761Y-94538095D01*
X56557142Y-94490476D01*
X63403571Y-91891666D02*
X63403571Y-91558333D01*
X63927380Y-91558333D02*
X62927380Y-91558333D01*
X62927380Y-92034523D01*
X63403571Y-92748809D02*
X63451190Y-92891666D01*
X63498809Y-92939285D01*
X63594047Y-92986904D01*
X63736904Y-92986904D01*
X63832142Y-92939285D01*
X63879761Y-92891666D01*
X63927380Y-92796428D01*
X63927380Y-92415476D01*
X62927380Y-92415476D01*
X62927380Y-92748809D01*
X62975000Y-92844047D01*
X63022619Y-92891666D01*
X63117857Y-92939285D01*
X63213095Y-92939285D01*
X63308333Y-92891666D01*
X63355952Y-92844047D01*
X63403571Y-92748809D01*
X63403571Y-92415476D01*
X63927380Y-93939285D02*
X63927380Y-93367857D01*
X63927380Y-93653571D02*
X62927380Y-93653571D01*
X63070238Y-93558333D01*
X63165476Y-93463095D01*
X63213095Y-93367857D01*
X208638095Y-34827380D02*
X208638095Y-33827380D01*
X208400000Y-33827380D01*
X208257142Y-33875000D01*
X208161904Y-33970238D01*
X208114285Y-34065476D01*
X208066666Y-34255952D01*
X208066666Y-34398809D01*
X208114285Y-34589285D01*
X208161904Y-34684523D01*
X208257142Y-34779761D01*
X208400000Y-34827380D01*
X208638095Y-34827380D01*
X207590476Y-34827380D02*
X207400000Y-34827380D01*
X207304761Y-34779761D01*
X207257142Y-34732142D01*
X207161904Y-34589285D01*
X207114285Y-34398809D01*
X207114285Y-34017857D01*
X207161904Y-33922619D01*
X207209523Y-33875000D01*
X207304761Y-33827380D01*
X207495238Y-33827380D01*
X207590476Y-33875000D01*
X207638095Y-33922619D01*
X207685714Y-34017857D01*
X207685714Y-34255952D01*
X207638095Y-34351190D01*
X207590476Y-34398809D01*
X207495238Y-34446428D01*
X207304761Y-34446428D01*
X207209523Y-34398809D01*
X207161904Y-34351190D01*
X207114285Y-34255952D01*
X206130952Y-30921428D02*
X205369047Y-30921428D01*
X205750000Y-31302380D02*
X205750000Y-30540476D01*
X167164880Y-77960714D02*
X166164880Y-77960714D01*
X166164880Y-78198809D01*
X166212500Y-78341666D01*
X166307738Y-78436904D01*
X166402976Y-78484523D01*
X166593452Y-78532142D01*
X166736309Y-78532142D01*
X166926785Y-78484523D01*
X167022023Y-78436904D01*
X167117261Y-78341666D01*
X167164880Y-78198809D01*
X167164880Y-77960714D01*
X166498214Y-79389285D02*
X167164880Y-79389285D01*
X166117261Y-79151190D02*
X166831547Y-78913095D01*
X166831547Y-79532142D01*
X167164880Y-79960714D02*
X167164880Y-80151190D01*
X167117261Y-80246428D01*
X167069642Y-80294047D01*
X166926785Y-80389285D01*
X166736309Y-80436904D01*
X166355357Y-80436904D01*
X166260119Y-80389285D01*
X166212500Y-80341666D01*
X166164880Y-80246428D01*
X166164880Y-80055952D01*
X166212500Y-79960714D01*
X166260119Y-79913095D01*
X166355357Y-79865476D01*
X166593452Y-79865476D01*
X166688690Y-79913095D01*
X166736309Y-79960714D01*
X166783928Y-80055952D01*
X166783928Y-80246428D01*
X166736309Y-80341666D01*
X166688690Y-80389285D01*
X166593452Y-80436904D01*
X167433928Y-80944047D02*
X167433928Y-81705952D01*
X167814880Y-81325000D02*
X167052976Y-81325000D01*
X148114880Y-77960714D02*
X147114880Y-77960714D01*
X147114880Y-78198809D01*
X147162500Y-78341666D01*
X147257738Y-78436904D01*
X147352976Y-78484523D01*
X147543452Y-78532142D01*
X147686309Y-78532142D01*
X147876785Y-78484523D01*
X147972023Y-78436904D01*
X148067261Y-78341666D01*
X148114880Y-78198809D01*
X148114880Y-77960714D01*
X147448214Y-79389285D02*
X148114880Y-79389285D01*
X147067261Y-79151190D02*
X147781547Y-78913095D01*
X147781547Y-79532142D01*
X147543452Y-80055952D02*
X147495833Y-79960714D01*
X147448214Y-79913095D01*
X147352976Y-79865476D01*
X147305357Y-79865476D01*
X147210119Y-79913095D01*
X147162500Y-79960714D01*
X147114880Y-80055952D01*
X147114880Y-80246428D01*
X147162500Y-80341666D01*
X147210119Y-80389285D01*
X147305357Y-80436904D01*
X147352976Y-80436904D01*
X147448214Y-80389285D01*
X147495833Y-80341666D01*
X147543452Y-80246428D01*
X147543452Y-80055952D01*
X147591071Y-79960714D01*
X147638690Y-79913095D01*
X147733928Y-79865476D01*
X147924404Y-79865476D01*
X148019642Y-79913095D01*
X148067261Y-79960714D01*
X148114880Y-80055952D01*
X148114880Y-80246428D01*
X148067261Y-80341666D01*
X148019642Y-80389285D01*
X147924404Y-80436904D01*
X147733928Y-80436904D01*
X147638690Y-80389285D01*
X147591071Y-80341666D01*
X147543452Y-80246428D01*
X148383928Y-80944047D02*
X148383928Y-81705952D01*
X148764880Y-81325000D02*
X148002976Y-81325000D01*
X46514285Y-30352380D02*
X46514285Y-29352380D01*
X46276190Y-29352380D01*
X46133333Y-29400000D01*
X46038095Y-29495238D01*
X45990476Y-29590476D01*
X45942857Y-29780952D01*
X45942857Y-29923809D01*
X45990476Y-30114285D01*
X46038095Y-30209523D01*
X46133333Y-30304761D01*
X46276190Y-30352380D01*
X46514285Y-30352380D01*
X45609523Y-29352380D02*
X44942857Y-29352380D01*
X45371428Y-30352380D01*
X44133333Y-29352380D02*
X44323809Y-29352380D01*
X44419047Y-29400000D01*
X44466666Y-29447619D01*
X44561904Y-29590476D01*
X44609523Y-29780952D01*
X44609523Y-30161904D01*
X44561904Y-30257142D01*
X44514285Y-30304761D01*
X44419047Y-30352380D01*
X44228571Y-30352380D01*
X44133333Y-30304761D01*
X44085714Y-30257142D01*
X44038095Y-30161904D01*
X44038095Y-29923809D01*
X44085714Y-29828571D01*
X44133333Y-29780952D01*
X44228571Y-29733333D01*
X44419047Y-29733333D01*
X44514285Y-29780952D01*
X44561904Y-29828571D01*
X44609523Y-29923809D01*
X103738095Y-34877380D02*
X103738095Y-33877380D01*
X103500000Y-33877380D01*
X103357142Y-33925000D01*
X103261904Y-34020238D01*
X103214285Y-34115476D01*
X103166666Y-34305952D01*
X103166666Y-34448809D01*
X103214285Y-34639285D01*
X103261904Y-34734523D01*
X103357142Y-34829761D01*
X103500000Y-34877380D01*
X103738095Y-34877380D01*
X102309523Y-34210714D02*
X102309523Y-34877380D01*
X102547619Y-33829761D02*
X102785714Y-34544047D01*
X102166666Y-34544047D01*
X101230952Y-30921428D02*
X100469047Y-30921428D01*
X100850000Y-31302380D02*
X100850000Y-30540476D01*
X267177380Y-97010714D02*
X266177380Y-97010714D01*
X266177380Y-97248809D01*
X266225000Y-97391666D01*
X266320238Y-97486904D01*
X266415476Y-97534523D01*
X266605952Y-97582142D01*
X266748809Y-97582142D01*
X266939285Y-97534523D01*
X267034523Y-97486904D01*
X267129761Y-97391666D01*
X267177380Y-97248809D01*
X267177380Y-97010714D01*
X266177380Y-98439285D02*
X266177380Y-98248809D01*
X266225000Y-98153571D01*
X266272619Y-98105952D01*
X266415476Y-98010714D01*
X266605952Y-97963095D01*
X266986904Y-97963095D01*
X267082142Y-98010714D01*
X267129761Y-98058333D01*
X267177380Y-98153571D01*
X267177380Y-98344047D01*
X267129761Y-98439285D01*
X267082142Y-98486904D01*
X266986904Y-98534523D01*
X266748809Y-98534523D01*
X266653571Y-98486904D01*
X266605952Y-98439285D01*
X266558333Y-98344047D01*
X266558333Y-98153571D01*
X266605952Y-98058333D01*
X266653571Y-98010714D01*
X266748809Y-97963095D01*
X266177380Y-99391666D02*
X266177380Y-99201190D01*
X266225000Y-99105952D01*
X266272619Y-99058333D01*
X266415476Y-98963095D01*
X266605952Y-98915476D01*
X266986904Y-98915476D01*
X267082142Y-98963095D01*
X267129761Y-99010714D01*
X267177380Y-99105952D01*
X267177380Y-99296428D01*
X267129761Y-99391666D01*
X267082142Y-99439285D01*
X266986904Y-99486904D01*
X266748809Y-99486904D01*
X266653571Y-99439285D01*
X266605952Y-99391666D01*
X266558333Y-99296428D01*
X266558333Y-99105952D01*
X266605952Y-99010714D01*
X266653571Y-98963095D01*
X266748809Y-98915476D01*
X267446428Y-99994047D02*
X267446428Y-100755952D01*
X267827380Y-100375000D02*
X267065476Y-100375000D01*
X46561904Y-78466666D02*
X46180952Y-78200000D01*
X46561904Y-78009523D02*
X45761904Y-78009523D01*
X45761904Y-78314285D01*
X45800000Y-78390476D01*
X45838095Y-78428571D01*
X45914285Y-78466666D01*
X46028571Y-78466666D01*
X46104761Y-78428571D01*
X46142857Y-78390476D01*
X46180952Y-78314285D01*
X46180952Y-78009523D01*
X46561904Y-79228571D02*
X46561904Y-78771428D01*
X46561904Y-79000000D02*
X45761904Y-79000000D01*
X45876190Y-78923809D01*
X45952380Y-78847619D01*
X45990476Y-78771428D01*
X24652380Y-93833333D02*
X24176190Y-93500000D01*
X24652380Y-93261904D02*
X23652380Y-93261904D01*
X23652380Y-93642857D01*
X23700000Y-93738095D01*
X23747619Y-93785714D01*
X23842857Y-93833333D01*
X23985714Y-93833333D01*
X24080952Y-93785714D01*
X24128571Y-93738095D01*
X24176190Y-93642857D01*
X24176190Y-93261904D01*
X24080952Y-94404761D02*
X24033333Y-94309523D01*
X23985714Y-94261904D01*
X23890476Y-94214285D01*
X23842857Y-94214285D01*
X23747619Y-94261904D01*
X23700000Y-94309523D01*
X23652380Y-94404761D01*
X23652380Y-94595238D01*
X23700000Y-94690476D01*
X23747619Y-94738095D01*
X23842857Y-94785714D01*
X23890476Y-94785714D01*
X23985714Y-94738095D01*
X24033333Y-94690476D01*
X24080952Y-94595238D01*
X24080952Y-94404761D01*
X24128571Y-94309523D01*
X24176190Y-94261904D01*
X24271428Y-94214285D01*
X24461904Y-94214285D01*
X24557142Y-94261904D01*
X24604761Y-94309523D01*
X24652380Y-94404761D01*
X24652380Y-94595238D01*
X24604761Y-94690476D01*
X24557142Y-94738095D01*
X24461904Y-94785714D01*
X24271428Y-94785714D01*
X24176190Y-94738095D01*
X24128571Y-94690476D01*
X24080952Y-94595238D01*
X122813095Y-34852380D02*
X122813095Y-33852380D01*
X122575000Y-33852380D01*
X122432142Y-33900000D01*
X122336904Y-33995238D01*
X122289285Y-34090476D01*
X122241666Y-34280952D01*
X122241666Y-34423809D01*
X122289285Y-34614285D01*
X122336904Y-34709523D01*
X122432142Y-34804761D01*
X122575000Y-34852380D01*
X122813095Y-34852380D01*
X121336904Y-33852380D02*
X121813095Y-33852380D01*
X121860714Y-34328571D01*
X121813095Y-34280952D01*
X121717857Y-34233333D01*
X121479761Y-34233333D01*
X121384523Y-34280952D01*
X121336904Y-34328571D01*
X121289285Y-34423809D01*
X121289285Y-34661904D01*
X121336904Y-34757142D01*
X121384523Y-34804761D01*
X121479761Y-34852380D01*
X121717857Y-34852380D01*
X121813095Y-34804761D01*
X121860714Y-34757142D01*
X120330952Y-30921428D02*
X119569047Y-30921428D01*
X119950000Y-31302380D02*
X119950000Y-30540476D01*
X53161904Y-90166666D02*
X52780952Y-89900000D01*
X53161904Y-89709523D02*
X52361904Y-89709523D01*
X52361904Y-90014285D01*
X52400000Y-90090476D01*
X52438095Y-90128571D01*
X52514285Y-90166666D01*
X52628571Y-90166666D01*
X52704761Y-90128571D01*
X52742857Y-90090476D01*
X52780952Y-90014285D01*
X52780952Y-89709523D01*
X53161904Y-90547619D02*
X53161904Y-90700000D01*
X53123809Y-90776190D01*
X53085714Y-90814285D01*
X52971428Y-90890476D01*
X52819047Y-90928571D01*
X52514285Y-90928571D01*
X52438095Y-90890476D01*
X52400000Y-90852380D01*
X52361904Y-90776190D01*
X52361904Y-90623809D01*
X52400000Y-90547619D01*
X52438095Y-90509523D01*
X52514285Y-90471428D01*
X52704761Y-90471428D01*
X52780952Y-90509523D01*
X52819047Y-90547619D01*
X52857142Y-90623809D01*
X52857142Y-90776190D01*
X52819047Y-90852380D01*
X52780952Y-90890476D01*
X52704761Y-90928571D01*
X46036904Y-21477380D02*
X46036904Y-22286904D01*
X45989285Y-22382142D01*
X45941666Y-22429761D01*
X45846428Y-22477380D01*
X45655952Y-22477380D01*
X45560714Y-22429761D01*
X45513095Y-22382142D01*
X45465476Y-22286904D01*
X45465476Y-21477380D01*
X45036904Y-21572619D02*
X44989285Y-21525000D01*
X44894047Y-21477380D01*
X44655952Y-21477380D01*
X44560714Y-21525000D01*
X44513095Y-21572619D01*
X44465476Y-21667857D01*
X44465476Y-21763095D01*
X44513095Y-21905952D01*
X45084523Y-22477380D01*
X44465476Y-22477380D01*
X62114285Y-78052380D02*
X62114285Y-77052380D01*
X61876190Y-77052380D01*
X61733333Y-77100000D01*
X61638095Y-77195238D01*
X61590476Y-77290476D01*
X61542857Y-77480952D01*
X61542857Y-77623809D01*
X61590476Y-77814285D01*
X61638095Y-77909523D01*
X61733333Y-78004761D01*
X61876190Y-78052380D01*
X62114285Y-78052380D01*
X60685714Y-77385714D02*
X60685714Y-78052380D01*
X60923809Y-77004761D02*
X61161904Y-77719047D01*
X60542857Y-77719047D01*
X60257142Y-77052380D02*
X59638095Y-77052380D01*
X59971428Y-77433333D01*
X59828571Y-77433333D01*
X59733333Y-77480952D01*
X59685714Y-77528571D01*
X59638095Y-77623809D01*
X59638095Y-77861904D01*
X59685714Y-77957142D01*
X59733333Y-78004761D01*
X59828571Y-78052380D01*
X60114285Y-78052380D01*
X60209523Y-78004761D01*
X60257142Y-77957142D01*
X55355952Y-78721428D02*
X54594047Y-78721428D01*
X54975000Y-79102380D02*
X54975000Y-78340476D01*
X171927380Y-39860714D02*
X170927380Y-39860714D01*
X170927380Y-40098809D01*
X170975000Y-40241666D01*
X171070238Y-40336904D01*
X171165476Y-40384523D01*
X171355952Y-40432142D01*
X171498809Y-40432142D01*
X171689285Y-40384523D01*
X171784523Y-40336904D01*
X171879761Y-40241666D01*
X171927380Y-40098809D01*
X171927380Y-39860714D01*
X171022619Y-40813095D02*
X170975000Y-40860714D01*
X170927380Y-40955952D01*
X170927380Y-41194047D01*
X170975000Y-41289285D01*
X171022619Y-41336904D01*
X171117857Y-41384523D01*
X171213095Y-41384523D01*
X171355952Y-41336904D01*
X171927380Y-40765476D01*
X171927380Y-41384523D01*
X171022619Y-41765476D02*
X170975000Y-41813095D01*
X170927380Y-41908333D01*
X170927380Y-42146428D01*
X170975000Y-42241666D01*
X171022619Y-42289285D01*
X171117857Y-42336904D01*
X171213095Y-42336904D01*
X171355952Y-42289285D01*
X171927380Y-41717857D01*
X171927380Y-42336904D01*
X172196428Y-42844047D02*
X172196428Y-43605952D01*
X172577380Y-43225000D02*
X171815476Y-43225000D01*
X63914285Y-89052380D02*
X63914285Y-88052380D01*
X63676190Y-88052380D01*
X63533333Y-88100000D01*
X63438095Y-88195238D01*
X63390476Y-88290476D01*
X63342857Y-88480952D01*
X63342857Y-88623809D01*
X63390476Y-88814285D01*
X63438095Y-88909523D01*
X63533333Y-89004761D01*
X63676190Y-89052380D01*
X63914285Y-89052380D01*
X63009523Y-88052380D02*
X62342857Y-88052380D01*
X62771428Y-89052380D01*
X62057142Y-88052380D02*
X61390476Y-88052380D01*
X61819047Y-89052380D01*
X84838095Y-34727380D02*
X84838095Y-33727380D01*
X84600000Y-33727380D01*
X84457142Y-33775000D01*
X84361904Y-33870238D01*
X84314285Y-33965476D01*
X84266666Y-34155952D01*
X84266666Y-34298809D01*
X84314285Y-34489285D01*
X84361904Y-34584523D01*
X84457142Y-34679761D01*
X84600000Y-34727380D01*
X84838095Y-34727380D01*
X83933333Y-33727380D02*
X83314285Y-33727380D01*
X83647619Y-34108333D01*
X83504761Y-34108333D01*
X83409523Y-34155952D01*
X83361904Y-34203571D01*
X83314285Y-34298809D01*
X83314285Y-34536904D01*
X83361904Y-34632142D01*
X83409523Y-34679761D01*
X83504761Y-34727380D01*
X83790476Y-34727380D01*
X83885714Y-34679761D01*
X83933333Y-34632142D01*
X82330952Y-30921428D02*
X81569047Y-30921428D01*
X81950000Y-31302380D02*
X81950000Y-30540476D01*
X189663095Y-34952380D02*
X189663095Y-33952380D01*
X189425000Y-33952380D01*
X189282142Y-34000000D01*
X189186904Y-34095238D01*
X189139285Y-34190476D01*
X189091666Y-34380952D01*
X189091666Y-34523809D01*
X189139285Y-34714285D01*
X189186904Y-34809523D01*
X189282142Y-34904761D01*
X189425000Y-34952380D01*
X189663095Y-34952380D01*
X188520238Y-34380952D02*
X188615476Y-34333333D01*
X188663095Y-34285714D01*
X188710714Y-34190476D01*
X188710714Y-34142857D01*
X188663095Y-34047619D01*
X188615476Y-34000000D01*
X188520238Y-33952380D01*
X188329761Y-33952380D01*
X188234523Y-34000000D01*
X188186904Y-34047619D01*
X188139285Y-34142857D01*
X188139285Y-34190476D01*
X188186904Y-34285714D01*
X188234523Y-34333333D01*
X188329761Y-34380952D01*
X188520238Y-34380952D01*
X188615476Y-34428571D01*
X188663095Y-34476190D01*
X188710714Y-34571428D01*
X188710714Y-34761904D01*
X188663095Y-34857142D01*
X188615476Y-34904761D01*
X188520238Y-34952380D01*
X188329761Y-34952380D01*
X188234523Y-34904761D01*
X188186904Y-34857142D01*
X188139285Y-34761904D01*
X188139285Y-34571428D01*
X188186904Y-34476190D01*
X188234523Y-34428571D01*
X188329761Y-34380952D01*
X187130952Y-30921428D02*
X186369047Y-30921428D01*
X186750000Y-31302380D02*
X186750000Y-30540476D01*
X294939285Y-35177380D02*
X294939285Y-34177380D01*
X294701190Y-34177380D01*
X294558333Y-34225000D01*
X294463095Y-34320238D01*
X294415476Y-34415476D01*
X294367857Y-34605952D01*
X294367857Y-34748809D01*
X294415476Y-34939285D01*
X294463095Y-35034523D01*
X294558333Y-35129761D01*
X294701190Y-35177380D01*
X294939285Y-35177380D01*
X293415476Y-35177380D02*
X293986904Y-35177380D01*
X293701190Y-35177380D02*
X293701190Y-34177380D01*
X293796428Y-34320238D01*
X293891666Y-34415476D01*
X293986904Y-34463095D01*
X293082142Y-34177380D02*
X292463095Y-34177380D01*
X292796428Y-34558333D01*
X292653571Y-34558333D01*
X292558333Y-34605952D01*
X292510714Y-34653571D01*
X292463095Y-34748809D01*
X292463095Y-34986904D01*
X292510714Y-35082142D01*
X292558333Y-35129761D01*
X292653571Y-35177380D01*
X292939285Y-35177380D01*
X293034523Y-35129761D01*
X293082142Y-35082142D01*
X291930952Y-30921428D02*
X291169047Y-30921428D01*
X291550000Y-31302380D02*
X291550000Y-30540476D01*
X52152380Y-59335714D02*
X51152380Y-59335714D01*
X51152380Y-59573809D01*
X51200000Y-59716666D01*
X51295238Y-59811904D01*
X51390476Y-59859523D01*
X51580952Y-59907142D01*
X51723809Y-59907142D01*
X51914285Y-59859523D01*
X52009523Y-59811904D01*
X52104761Y-59716666D01*
X52152380Y-59573809D01*
X52152380Y-59335714D01*
X51247619Y-60288095D02*
X51200000Y-60335714D01*
X51152380Y-60430952D01*
X51152380Y-60669047D01*
X51200000Y-60764285D01*
X51247619Y-60811904D01*
X51342857Y-60859523D01*
X51438095Y-60859523D01*
X51580952Y-60811904D01*
X52152380Y-60240476D01*
X52152380Y-60859523D01*
X52152380Y-61335714D02*
X52152380Y-61526190D01*
X52104761Y-61621428D01*
X52057142Y-61669047D01*
X51914285Y-61764285D01*
X51723809Y-61811904D01*
X51342857Y-61811904D01*
X51247619Y-61764285D01*
X51200000Y-61716666D01*
X51152380Y-61621428D01*
X51152380Y-61430952D01*
X51200000Y-61335714D01*
X51247619Y-61288095D01*
X51342857Y-61240476D01*
X51580952Y-61240476D01*
X51676190Y-61288095D01*
X51723809Y-61335714D01*
X51771428Y-61430952D01*
X51771428Y-61621428D01*
X51723809Y-61716666D01*
X51676190Y-61764285D01*
X51580952Y-61811904D01*
X48371428Y-61894047D02*
X48371428Y-62655952D01*
X48752380Y-62275000D02*
X47990476Y-62275000D01*
X90964880Y-77960714D02*
X89964880Y-77960714D01*
X89964880Y-78198809D01*
X90012500Y-78341666D01*
X90107738Y-78436904D01*
X90202976Y-78484523D01*
X90393452Y-78532142D01*
X90536309Y-78532142D01*
X90726785Y-78484523D01*
X90822023Y-78436904D01*
X90917261Y-78341666D01*
X90964880Y-78198809D01*
X90964880Y-77960714D01*
X90298214Y-79389285D02*
X90964880Y-79389285D01*
X89917261Y-79151190D02*
X90631547Y-78913095D01*
X90631547Y-79532142D01*
X89964880Y-80389285D02*
X89964880Y-79913095D01*
X90441071Y-79865476D01*
X90393452Y-79913095D01*
X90345833Y-80008333D01*
X90345833Y-80246428D01*
X90393452Y-80341666D01*
X90441071Y-80389285D01*
X90536309Y-80436904D01*
X90774404Y-80436904D01*
X90869642Y-80389285D01*
X90917261Y-80341666D01*
X90964880Y-80246428D01*
X90964880Y-80008333D01*
X90917261Y-79913095D01*
X90869642Y-79865476D01*
X91233928Y-80944047D02*
X91233928Y-81705952D01*
X91614880Y-81325000D02*
X90852976Y-81325000D01*
X274321130Y-77960714D02*
X273321130Y-77960714D01*
X273321130Y-78198809D01*
X273368750Y-78341666D01*
X273463988Y-78436904D01*
X273559226Y-78484523D01*
X273749702Y-78532142D01*
X273892559Y-78532142D01*
X274083035Y-78484523D01*
X274178273Y-78436904D01*
X274273511Y-78341666D01*
X274321130Y-78198809D01*
X274321130Y-77960714D01*
X273321130Y-79436904D02*
X273321130Y-78960714D01*
X273797321Y-78913095D01*
X273749702Y-78960714D01*
X273702083Y-79055952D01*
X273702083Y-79294047D01*
X273749702Y-79389285D01*
X273797321Y-79436904D01*
X273892559Y-79484523D01*
X274130654Y-79484523D01*
X274225892Y-79436904D01*
X274273511Y-79389285D01*
X274321130Y-79294047D01*
X274321130Y-79055952D01*
X274273511Y-78960714D01*
X274225892Y-78913095D01*
X273654464Y-80341666D02*
X274321130Y-80341666D01*
X273273511Y-80103571D02*
X273987797Y-79865476D01*
X273987797Y-80484523D01*
X274590178Y-80944047D02*
X274590178Y-81705952D01*
X274971130Y-81325000D02*
X274209226Y-81325000D01*
X267177380Y-116060714D02*
X266177380Y-116060714D01*
X266177380Y-116298809D01*
X266225000Y-116441666D01*
X266320238Y-116536904D01*
X266415476Y-116584523D01*
X266605952Y-116632142D01*
X266748809Y-116632142D01*
X266939285Y-116584523D01*
X267034523Y-116536904D01*
X267129761Y-116441666D01*
X267177380Y-116298809D01*
X267177380Y-116060714D01*
X266177380Y-116965476D02*
X266177380Y-117632142D01*
X267177380Y-117203571D01*
X266510714Y-118441666D02*
X267177380Y-118441666D01*
X266129761Y-118203571D02*
X266844047Y-117965476D01*
X266844047Y-118584523D01*
X267446428Y-119044047D02*
X267446428Y-119805952D01*
X267827380Y-119425000D02*
X267065476Y-119425000D01*
X205264880Y-77960714D02*
X204264880Y-77960714D01*
X204264880Y-78198809D01*
X204312500Y-78341666D01*
X204407738Y-78436904D01*
X204502976Y-78484523D01*
X204693452Y-78532142D01*
X204836309Y-78532142D01*
X205026785Y-78484523D01*
X205122023Y-78436904D01*
X205217261Y-78341666D01*
X205264880Y-78198809D01*
X205264880Y-77960714D01*
X204264880Y-79436904D02*
X204264880Y-78960714D01*
X204741071Y-78913095D01*
X204693452Y-78960714D01*
X204645833Y-79055952D01*
X204645833Y-79294047D01*
X204693452Y-79389285D01*
X204741071Y-79436904D01*
X204836309Y-79484523D01*
X205074404Y-79484523D01*
X205169642Y-79436904D01*
X205217261Y-79389285D01*
X205264880Y-79294047D01*
X205264880Y-79055952D01*
X205217261Y-78960714D01*
X205169642Y-78913095D01*
X205264880Y-80436904D02*
X205264880Y-79865476D01*
X205264880Y-80151190D02*
X204264880Y-80151190D01*
X204407738Y-80055952D01*
X204502976Y-79960714D01*
X204550595Y-79865476D01*
X205533928Y-80944047D02*
X205533928Y-81705952D01*
X205914880Y-81325000D02*
X205152976Y-81325000D01*
X195739880Y-97010714D02*
X194739880Y-97010714D01*
X194739880Y-97248809D01*
X194787500Y-97391666D01*
X194882738Y-97486904D01*
X194977976Y-97534523D01*
X195168452Y-97582142D01*
X195311309Y-97582142D01*
X195501785Y-97534523D01*
X195597023Y-97486904D01*
X195692261Y-97391666D01*
X195739880Y-97248809D01*
X195739880Y-97010714D01*
X194739880Y-98439285D02*
X194739880Y-98248809D01*
X194787500Y-98153571D01*
X194835119Y-98105952D01*
X194977976Y-98010714D01*
X195168452Y-97963095D01*
X195549404Y-97963095D01*
X195644642Y-98010714D01*
X195692261Y-98058333D01*
X195739880Y-98153571D01*
X195739880Y-98344047D01*
X195692261Y-98439285D01*
X195644642Y-98486904D01*
X195549404Y-98534523D01*
X195311309Y-98534523D01*
X195216071Y-98486904D01*
X195168452Y-98439285D01*
X195120833Y-98344047D01*
X195120833Y-98153571D01*
X195168452Y-98058333D01*
X195216071Y-98010714D01*
X195311309Y-97963095D01*
X194739880Y-98867857D02*
X194739880Y-99486904D01*
X195120833Y-99153571D01*
X195120833Y-99296428D01*
X195168452Y-99391666D01*
X195216071Y-99439285D01*
X195311309Y-99486904D01*
X195549404Y-99486904D01*
X195644642Y-99439285D01*
X195692261Y-99391666D01*
X195739880Y-99296428D01*
X195739880Y-99010714D01*
X195692261Y-98915476D01*
X195644642Y-98867857D01*
X196008928Y-99994047D02*
X196008928Y-100755952D01*
X196389880Y-100375000D02*
X195627976Y-100375000D01*
X81439880Y-97010714D02*
X80439880Y-97010714D01*
X80439880Y-97248809D01*
X80487500Y-97391666D01*
X80582738Y-97486904D01*
X80677976Y-97534523D01*
X80868452Y-97582142D01*
X81011309Y-97582142D01*
X81201785Y-97534523D01*
X81297023Y-97486904D01*
X81392261Y-97391666D01*
X81439880Y-97248809D01*
X81439880Y-97010714D01*
X80439880Y-98486904D02*
X80439880Y-98010714D01*
X80916071Y-97963095D01*
X80868452Y-98010714D01*
X80820833Y-98105952D01*
X80820833Y-98344047D01*
X80868452Y-98439285D01*
X80916071Y-98486904D01*
X81011309Y-98534523D01*
X81249404Y-98534523D01*
X81344642Y-98486904D01*
X81392261Y-98439285D01*
X81439880Y-98344047D01*
X81439880Y-98105952D01*
X81392261Y-98010714D01*
X81344642Y-97963095D01*
X80439880Y-98867857D02*
X80439880Y-99534523D01*
X81439880Y-99105952D01*
X81708928Y-99994047D02*
X81708928Y-100755952D01*
X82089880Y-100375000D02*
X81327976Y-100375000D01*
X53914285Y-93490714D02*
X53952380Y-93528809D01*
X54066666Y-93566904D01*
X54142857Y-93566904D01*
X54257142Y-93528809D01*
X54333333Y-93452619D01*
X54371428Y-93376428D01*
X54409523Y-93224047D01*
X54409523Y-93109761D01*
X54371428Y-92957380D01*
X54333333Y-92881190D01*
X54257142Y-92805000D01*
X54142857Y-92766904D01*
X54066666Y-92766904D01*
X53952380Y-92805000D01*
X53914285Y-92843095D01*
X53152380Y-93566904D02*
X53609523Y-93566904D01*
X53380952Y-93566904D02*
X53380952Y-92766904D01*
X53457142Y-92881190D01*
X53533333Y-92957380D01*
X53609523Y-92995476D01*
X52847619Y-92843095D02*
X52809523Y-92805000D01*
X52733333Y-92766904D01*
X52542857Y-92766904D01*
X52466666Y-92805000D01*
X52428571Y-92843095D01*
X52390476Y-92919285D01*
X52390476Y-92995476D01*
X52428571Y-93109761D01*
X52885714Y-93566904D01*
X52390476Y-93566904D01*
X48061904Y-99266666D02*
X47680952Y-99000000D01*
X48061904Y-98809523D02*
X47261904Y-98809523D01*
X47261904Y-99114285D01*
X47300000Y-99190476D01*
X47338095Y-99228571D01*
X47414285Y-99266666D01*
X47528571Y-99266666D01*
X47604761Y-99228571D01*
X47642857Y-99190476D01*
X47680952Y-99114285D01*
X47680952Y-98809523D01*
X47261904Y-99533333D02*
X47261904Y-100028571D01*
X47566666Y-99761904D01*
X47566666Y-99876190D01*
X47604761Y-99952380D01*
X47642857Y-99990476D01*
X47719047Y-100028571D01*
X47909523Y-100028571D01*
X47985714Y-99990476D01*
X48023809Y-99952380D01*
X48061904Y-99876190D01*
X48061904Y-99647619D01*
X48023809Y-99571428D01*
X47985714Y-99533333D01*
X66252380Y-97010714D02*
X65252380Y-97010714D01*
X65252380Y-97248809D01*
X65300000Y-97391666D01*
X65395238Y-97486904D01*
X65490476Y-97534523D01*
X65680952Y-97582142D01*
X65823809Y-97582142D01*
X66014285Y-97534523D01*
X66109523Y-97486904D01*
X66204761Y-97391666D01*
X66252380Y-97248809D01*
X66252380Y-97010714D01*
X65252380Y-98486904D02*
X65252380Y-98010714D01*
X65728571Y-97963095D01*
X65680952Y-98010714D01*
X65633333Y-98105952D01*
X65633333Y-98344047D01*
X65680952Y-98439285D01*
X65728571Y-98486904D01*
X65823809Y-98534523D01*
X66061904Y-98534523D01*
X66157142Y-98486904D01*
X66204761Y-98439285D01*
X66252380Y-98344047D01*
X66252380Y-98105952D01*
X66204761Y-98010714D01*
X66157142Y-97963095D01*
X65252380Y-99391666D02*
X65252380Y-99201190D01*
X65300000Y-99105952D01*
X65347619Y-99058333D01*
X65490476Y-98963095D01*
X65680952Y-98915476D01*
X66061904Y-98915476D01*
X66157142Y-98963095D01*
X66204761Y-99010714D01*
X66252380Y-99105952D01*
X66252380Y-99296428D01*
X66204761Y-99391666D01*
X66157142Y-99439285D01*
X66061904Y-99486904D01*
X65823809Y-99486904D01*
X65728571Y-99439285D01*
X65680952Y-99391666D01*
X65633333Y-99296428D01*
X65633333Y-99105952D01*
X65680952Y-99010714D01*
X65728571Y-98963095D01*
X65823809Y-98915476D01*
X62658928Y-99994047D02*
X62658928Y-100755952D01*
X63039880Y-100375000D02*
X62277976Y-100375000D01*
X229077380Y-39860714D02*
X228077380Y-39860714D01*
X228077380Y-40098809D01*
X228125000Y-40241666D01*
X228220238Y-40336904D01*
X228315476Y-40384523D01*
X228505952Y-40432142D01*
X228648809Y-40432142D01*
X228839285Y-40384523D01*
X228934523Y-40336904D01*
X229029761Y-40241666D01*
X229077380Y-40098809D01*
X229077380Y-39860714D01*
X228172619Y-40813095D02*
X228125000Y-40860714D01*
X228077380Y-40955952D01*
X228077380Y-41194047D01*
X228125000Y-41289285D01*
X228172619Y-41336904D01*
X228267857Y-41384523D01*
X228363095Y-41384523D01*
X228505952Y-41336904D01*
X229077380Y-40765476D01*
X229077380Y-41384523D01*
X228077380Y-42289285D02*
X228077380Y-41813095D01*
X228553571Y-41765476D01*
X228505952Y-41813095D01*
X228458333Y-41908333D01*
X228458333Y-42146428D01*
X228505952Y-42241666D01*
X228553571Y-42289285D01*
X228648809Y-42336904D01*
X228886904Y-42336904D01*
X228982142Y-42289285D01*
X229029761Y-42241666D01*
X229077380Y-42146428D01*
X229077380Y-41908333D01*
X229029761Y-41813095D01*
X228982142Y-41765476D01*
X229346428Y-42844047D02*
X229346428Y-43605952D01*
X229727380Y-43225000D02*
X228965476Y-43225000D01*
X44510714Y-96135714D02*
X44548809Y-96097619D01*
X44586904Y-95983333D01*
X44586904Y-95907142D01*
X44548809Y-95792857D01*
X44472619Y-95716666D01*
X44396428Y-95678571D01*
X44244047Y-95640476D01*
X44129761Y-95640476D01*
X43977380Y-95678571D01*
X43901190Y-95716666D01*
X43825000Y-95792857D01*
X43786904Y-95907142D01*
X43786904Y-95983333D01*
X43825000Y-96097619D01*
X43863095Y-96135714D01*
X44586904Y-96897619D02*
X44586904Y-96440476D01*
X44586904Y-96669047D02*
X43786904Y-96669047D01*
X43901190Y-96592857D01*
X43977380Y-96516666D01*
X44015476Y-96440476D01*
X44586904Y-97659523D02*
X44586904Y-97202380D01*
X44586904Y-97430952D02*
X43786904Y-97430952D01*
X43901190Y-97354761D01*
X43977380Y-97278571D01*
X44015476Y-97202380D01*
X21377380Y-35910714D02*
X20377380Y-35910714D01*
X20377380Y-36148809D01*
X20425000Y-36291666D01*
X20520238Y-36386904D01*
X20615476Y-36434523D01*
X20805952Y-36482142D01*
X20948809Y-36482142D01*
X21139285Y-36434523D01*
X21234523Y-36386904D01*
X21329761Y-36291666D01*
X21377380Y-36148809D01*
X21377380Y-35910714D01*
X21377380Y-37434523D02*
X21377380Y-36863095D01*
X21377380Y-37148809D02*
X20377380Y-37148809D01*
X20520238Y-37053571D01*
X20615476Y-36958333D01*
X20663095Y-36863095D01*
X20710714Y-38291666D02*
X21377380Y-38291666D01*
X20329761Y-38053571D02*
X21044047Y-37815476D01*
X21044047Y-38434523D01*
X19796428Y-42844047D02*
X19796428Y-43605952D01*
X20177380Y-43225000D02*
X19415476Y-43225000D01*
X55714285Y-80085714D02*
X55752380Y-80123809D01*
X55866666Y-80161904D01*
X55942857Y-80161904D01*
X56057142Y-80123809D01*
X56133333Y-80047619D01*
X56171428Y-79971428D01*
X56209523Y-79819047D01*
X56209523Y-79704761D01*
X56171428Y-79552380D01*
X56133333Y-79476190D01*
X56057142Y-79400000D01*
X55942857Y-79361904D01*
X55866666Y-79361904D01*
X55752380Y-79400000D01*
X55714285Y-79438095D01*
X54952380Y-80161904D02*
X55409523Y-80161904D01*
X55180952Y-80161904D02*
X55180952Y-79361904D01*
X55257142Y-79476190D01*
X55333333Y-79552380D01*
X55409523Y-79590476D01*
X54571428Y-80161904D02*
X54419047Y-80161904D01*
X54342857Y-80123809D01*
X54304761Y-80085714D01*
X54228571Y-79971428D01*
X54190476Y-79819047D01*
X54190476Y-79514285D01*
X54228571Y-79438095D01*
X54266666Y-79400000D01*
X54342857Y-79361904D01*
X54495238Y-79361904D01*
X54571428Y-79400000D01*
X54609523Y-79438095D01*
X54647619Y-79514285D01*
X54647619Y-79704761D01*
X54609523Y-79780952D01*
X54571428Y-79819047D01*
X54495238Y-79857142D01*
X54342857Y-79857142D01*
X54266666Y-79819047D01*
X54228571Y-79780952D01*
X54190476Y-79704761D01*
X162402380Y-58910714D02*
X161402380Y-58910714D01*
X161402380Y-59148809D01*
X161450000Y-59291666D01*
X161545238Y-59386904D01*
X161640476Y-59434523D01*
X161830952Y-59482142D01*
X161973809Y-59482142D01*
X162164285Y-59434523D01*
X162259523Y-59386904D01*
X162354761Y-59291666D01*
X162402380Y-59148809D01*
X162402380Y-58910714D01*
X161402380Y-59815476D02*
X161402380Y-60434523D01*
X161783333Y-60101190D01*
X161783333Y-60244047D01*
X161830952Y-60339285D01*
X161878571Y-60386904D01*
X161973809Y-60434523D01*
X162211904Y-60434523D01*
X162307142Y-60386904D01*
X162354761Y-60339285D01*
X162402380Y-60244047D01*
X162402380Y-59958333D01*
X162354761Y-59863095D01*
X162307142Y-59815476D01*
X161402380Y-61339285D02*
X161402380Y-60863095D01*
X161878571Y-60815476D01*
X161830952Y-60863095D01*
X161783333Y-60958333D01*
X161783333Y-61196428D01*
X161830952Y-61291666D01*
X161878571Y-61339285D01*
X161973809Y-61386904D01*
X162211904Y-61386904D01*
X162307142Y-61339285D01*
X162354761Y-61291666D01*
X162402380Y-61196428D01*
X162402380Y-60958333D01*
X162354761Y-60863095D01*
X162307142Y-60815476D01*
X162671428Y-61894047D02*
X162671428Y-62655952D01*
X163052380Y-62275000D02*
X162290476Y-62275000D01*
X221933630Y-116060714D02*
X220933630Y-116060714D01*
X220933630Y-116298809D01*
X220981250Y-116441666D01*
X221076488Y-116536904D01*
X221171726Y-116584523D01*
X221362202Y-116632142D01*
X221505059Y-116632142D01*
X221695535Y-116584523D01*
X221790773Y-116536904D01*
X221886011Y-116441666D01*
X221933630Y-116298809D01*
X221933630Y-116060714D01*
X220933630Y-116965476D02*
X220933630Y-117632142D01*
X221933630Y-117203571D01*
X221028869Y-117965476D02*
X220981250Y-118013095D01*
X220933630Y-118108333D01*
X220933630Y-118346428D01*
X220981250Y-118441666D01*
X221028869Y-118489285D01*
X221124107Y-118536904D01*
X221219345Y-118536904D01*
X221362202Y-118489285D01*
X221933630Y-117917857D01*
X221933630Y-118536904D01*
X222202678Y-119044047D02*
X222202678Y-119805952D01*
X222583630Y-119425000D02*
X221821726Y-119425000D01*
X52889285Y-37652380D02*
X52889285Y-36652380D01*
X52651190Y-36652380D01*
X52508333Y-36700000D01*
X52413095Y-36795238D01*
X52365476Y-36890476D01*
X52317857Y-37080952D01*
X52317857Y-37223809D01*
X52365476Y-37414285D01*
X52413095Y-37509523D01*
X52508333Y-37604761D01*
X52651190Y-37652380D01*
X52889285Y-37652380D01*
X51365476Y-37652380D02*
X51936904Y-37652380D01*
X51651190Y-37652380D02*
X51651190Y-36652380D01*
X51746428Y-36795238D01*
X51841666Y-36890476D01*
X51936904Y-36938095D01*
X50460714Y-36652380D02*
X50936904Y-36652380D01*
X50984523Y-37128571D01*
X50936904Y-37080952D01*
X50841666Y-37033333D01*
X50603571Y-37033333D01*
X50508333Y-37080952D01*
X50460714Y-37128571D01*
X50413095Y-37223809D01*
X50413095Y-37461904D01*
X50460714Y-37557142D01*
X50508333Y-37604761D01*
X50603571Y-37652380D01*
X50841666Y-37652380D01*
X50936904Y-37604761D01*
X50984523Y-37557142D01*
X49880952Y-33621428D02*
X49119047Y-33621428D01*
X49500000Y-34002380D02*
X49500000Y-33240476D01*
X50333333Y-76961904D02*
X50600000Y-76580952D01*
X50790476Y-76961904D02*
X50790476Y-76161904D01*
X50485714Y-76161904D01*
X50409523Y-76200000D01*
X50371428Y-76238095D01*
X50333333Y-76314285D01*
X50333333Y-76428571D01*
X50371428Y-76504761D01*
X50409523Y-76542857D01*
X50485714Y-76580952D01*
X50790476Y-76580952D01*
X49609523Y-76161904D02*
X49990476Y-76161904D01*
X50028571Y-76542857D01*
X49990476Y-76504761D01*
X49914285Y-76466666D01*
X49723809Y-76466666D01*
X49647619Y-76504761D01*
X49609523Y-76542857D01*
X49571428Y-76619047D01*
X49571428Y-76809523D01*
X49609523Y-76885714D01*
X49647619Y-76923809D01*
X49723809Y-76961904D01*
X49914285Y-76961904D01*
X49990476Y-76923809D01*
X50028571Y-76885714D01*
X47239285Y-130202380D02*
X47239285Y-129202380D01*
X47001190Y-129202380D01*
X46858333Y-129250000D01*
X46763095Y-129345238D01*
X46715476Y-129440476D01*
X46667857Y-129630952D01*
X46667857Y-129773809D01*
X46715476Y-129964285D01*
X46763095Y-130059523D01*
X46858333Y-130154761D01*
X47001190Y-130202380D01*
X47239285Y-130202380D01*
X45810714Y-129202380D02*
X46001190Y-129202380D01*
X46096428Y-129250000D01*
X46144047Y-129297619D01*
X46239285Y-129440476D01*
X46286904Y-129630952D01*
X46286904Y-130011904D01*
X46239285Y-130107142D01*
X46191666Y-130154761D01*
X46096428Y-130202380D01*
X45905952Y-130202380D01*
X45810714Y-130154761D01*
X45763095Y-130107142D01*
X45715476Y-130011904D01*
X45715476Y-129773809D01*
X45763095Y-129678571D01*
X45810714Y-129630952D01*
X45905952Y-129583333D01*
X46096428Y-129583333D01*
X46191666Y-129630952D01*
X46239285Y-129678571D01*
X46286904Y-129773809D01*
X45144047Y-129630952D02*
X45239285Y-129583333D01*
X45286904Y-129535714D01*
X45334523Y-129440476D01*
X45334523Y-129392857D01*
X45286904Y-129297619D01*
X45239285Y-129250000D01*
X45144047Y-129202380D01*
X44953571Y-129202380D01*
X44858333Y-129250000D01*
X44810714Y-129297619D01*
X44763095Y-129392857D01*
X44763095Y-129440476D01*
X44810714Y-129535714D01*
X44858333Y-129583333D01*
X44953571Y-129630952D01*
X45144047Y-129630952D01*
X45239285Y-129678571D01*
X45286904Y-129726190D01*
X45334523Y-129821428D01*
X45334523Y-130011904D01*
X45286904Y-130107142D01*
X45239285Y-130154761D01*
X45144047Y-130202380D01*
X44953571Y-130202380D01*
X44858333Y-130154761D01*
X44810714Y-130107142D01*
X44763095Y-130011904D01*
X44763095Y-129821428D01*
X44810714Y-129726190D01*
X44858333Y-129678571D01*
X44953571Y-129630952D01*
X44230952Y-126021428D02*
X43469047Y-126021428D01*
X43850000Y-126402380D02*
X43850000Y-125640476D01*
X49352380Y-26733333D02*
X48876190Y-26400000D01*
X49352380Y-26161904D02*
X48352380Y-26161904D01*
X48352380Y-26542857D01*
X48400000Y-26638095D01*
X48447619Y-26685714D01*
X48542857Y-26733333D01*
X48685714Y-26733333D01*
X48780952Y-26685714D01*
X48828571Y-26638095D01*
X48876190Y-26542857D01*
X48876190Y-26161904D01*
X48352380Y-27590476D02*
X48352380Y-27400000D01*
X48400000Y-27304761D01*
X48447619Y-27257142D01*
X48590476Y-27161904D01*
X48780952Y-27114285D01*
X49161904Y-27114285D01*
X49257142Y-27161904D01*
X49304761Y-27209523D01*
X49352380Y-27304761D01*
X49352380Y-27495238D01*
X49304761Y-27590476D01*
X49257142Y-27638095D01*
X49161904Y-27685714D01*
X48923809Y-27685714D01*
X48828571Y-27638095D01*
X48780952Y-27590476D01*
X48733333Y-27495238D01*
X48733333Y-27304761D01*
X48780952Y-27209523D01*
X48828571Y-27161904D01*
X48923809Y-27114285D01*
X176689880Y-97010714D02*
X175689880Y-97010714D01*
X175689880Y-97248809D01*
X175737500Y-97391666D01*
X175832738Y-97486904D01*
X175927976Y-97534523D01*
X176118452Y-97582142D01*
X176261309Y-97582142D01*
X176451785Y-97534523D01*
X176547023Y-97486904D01*
X176642261Y-97391666D01*
X176689880Y-97248809D01*
X176689880Y-97010714D01*
X175689880Y-98439285D02*
X175689880Y-98248809D01*
X175737500Y-98153571D01*
X175785119Y-98105952D01*
X175927976Y-98010714D01*
X176118452Y-97963095D01*
X176499404Y-97963095D01*
X176594642Y-98010714D01*
X176642261Y-98058333D01*
X176689880Y-98153571D01*
X176689880Y-98344047D01*
X176642261Y-98439285D01*
X176594642Y-98486904D01*
X176499404Y-98534523D01*
X176261309Y-98534523D01*
X176166071Y-98486904D01*
X176118452Y-98439285D01*
X176070833Y-98344047D01*
X176070833Y-98153571D01*
X176118452Y-98058333D01*
X176166071Y-98010714D01*
X176261309Y-97963095D01*
X175785119Y-98915476D02*
X175737500Y-98963095D01*
X175689880Y-99058333D01*
X175689880Y-99296428D01*
X175737500Y-99391666D01*
X175785119Y-99439285D01*
X175880357Y-99486904D01*
X175975595Y-99486904D01*
X176118452Y-99439285D01*
X176689880Y-98867857D01*
X176689880Y-99486904D01*
X176958928Y-99994047D02*
X176958928Y-100755952D01*
X177339880Y-100375000D02*
X176577976Y-100375000D01*
X138589880Y-97010714D02*
X137589880Y-97010714D01*
X137589880Y-97248809D01*
X137637500Y-97391666D01*
X137732738Y-97486904D01*
X137827976Y-97534523D01*
X138018452Y-97582142D01*
X138161309Y-97582142D01*
X138351785Y-97534523D01*
X138447023Y-97486904D01*
X138542261Y-97391666D01*
X138589880Y-97248809D01*
X138589880Y-97010714D01*
X137589880Y-98439285D02*
X137589880Y-98248809D01*
X137637500Y-98153571D01*
X137685119Y-98105952D01*
X137827976Y-98010714D01*
X138018452Y-97963095D01*
X138399404Y-97963095D01*
X138494642Y-98010714D01*
X138542261Y-98058333D01*
X138589880Y-98153571D01*
X138589880Y-98344047D01*
X138542261Y-98439285D01*
X138494642Y-98486904D01*
X138399404Y-98534523D01*
X138161309Y-98534523D01*
X138066071Y-98486904D01*
X138018452Y-98439285D01*
X137970833Y-98344047D01*
X137970833Y-98153571D01*
X138018452Y-98058333D01*
X138066071Y-98010714D01*
X138161309Y-97963095D01*
X137589880Y-99153571D02*
X137589880Y-99248809D01*
X137637500Y-99344047D01*
X137685119Y-99391666D01*
X137780357Y-99439285D01*
X137970833Y-99486904D01*
X138208928Y-99486904D01*
X138399404Y-99439285D01*
X138494642Y-99391666D01*
X138542261Y-99344047D01*
X138589880Y-99248809D01*
X138589880Y-99153571D01*
X138542261Y-99058333D01*
X138494642Y-99010714D01*
X138399404Y-98963095D01*
X138208928Y-98915476D01*
X137970833Y-98915476D01*
X137780357Y-98963095D01*
X137685119Y-99010714D01*
X137637500Y-99058333D01*
X137589880Y-99153571D01*
X138858928Y-99994047D02*
X138858928Y-100755952D01*
X139239880Y-100375000D02*
X138477976Y-100375000D01*
X55733333Y-81385714D02*
X55771428Y-81423809D01*
X55885714Y-81461904D01*
X55961904Y-81461904D01*
X56076190Y-81423809D01*
X56152380Y-81347619D01*
X56190476Y-81271428D01*
X56228571Y-81119047D01*
X56228571Y-81004761D01*
X56190476Y-80852380D01*
X56152380Y-80776190D01*
X56076190Y-80700000D01*
X55961904Y-80661904D01*
X55885714Y-80661904D01*
X55771428Y-80700000D01*
X55733333Y-80738095D01*
X55466666Y-80661904D02*
X54971428Y-80661904D01*
X55238095Y-80966666D01*
X55123809Y-80966666D01*
X55047619Y-81004761D01*
X55009523Y-81042857D01*
X54971428Y-81119047D01*
X54971428Y-81309523D01*
X55009523Y-81385714D01*
X55047619Y-81423809D01*
X55123809Y-81461904D01*
X55352380Y-81461904D01*
X55428571Y-81423809D01*
X55466666Y-81385714D01*
X238602380Y-58910714D02*
X237602380Y-58910714D01*
X237602380Y-59148809D01*
X237650000Y-59291666D01*
X237745238Y-59386904D01*
X237840476Y-59434523D01*
X238030952Y-59482142D01*
X238173809Y-59482142D01*
X238364285Y-59434523D01*
X238459523Y-59386904D01*
X238554761Y-59291666D01*
X238602380Y-59148809D01*
X238602380Y-58910714D01*
X237602380Y-59815476D02*
X237602380Y-60434523D01*
X237983333Y-60101190D01*
X237983333Y-60244047D01*
X238030952Y-60339285D01*
X238078571Y-60386904D01*
X238173809Y-60434523D01*
X238411904Y-60434523D01*
X238507142Y-60386904D01*
X238554761Y-60339285D01*
X238602380Y-60244047D01*
X238602380Y-59958333D01*
X238554761Y-59863095D01*
X238507142Y-59815476D01*
X238602380Y-60910714D02*
X238602380Y-61101190D01*
X238554761Y-61196428D01*
X238507142Y-61244047D01*
X238364285Y-61339285D01*
X238173809Y-61386904D01*
X237792857Y-61386904D01*
X237697619Y-61339285D01*
X237650000Y-61291666D01*
X237602380Y-61196428D01*
X237602380Y-61005952D01*
X237650000Y-60910714D01*
X237697619Y-60863095D01*
X237792857Y-60815476D01*
X238030952Y-60815476D01*
X238126190Y-60863095D01*
X238173809Y-60910714D01*
X238221428Y-61005952D01*
X238221428Y-61196428D01*
X238173809Y-61291666D01*
X238126190Y-61339285D01*
X238030952Y-61386904D01*
X238871428Y-61894047D02*
X238871428Y-62655952D01*
X239252380Y-62275000D02*
X238490476Y-62275000D01*
X44085714Y-82621666D02*
X44123809Y-82583571D01*
X44161904Y-82469285D01*
X44161904Y-82393095D01*
X44123809Y-82278809D01*
X44047619Y-82202619D01*
X43971428Y-82164523D01*
X43819047Y-82126428D01*
X43704761Y-82126428D01*
X43552380Y-82164523D01*
X43476190Y-82202619D01*
X43400000Y-82278809D01*
X43361904Y-82393095D01*
X43361904Y-82469285D01*
X43400000Y-82583571D01*
X43438095Y-82621666D01*
X43704761Y-83078809D02*
X43666666Y-83002619D01*
X43628571Y-82964523D01*
X43552380Y-82926428D01*
X43514285Y-82926428D01*
X43438095Y-82964523D01*
X43400000Y-83002619D01*
X43361904Y-83078809D01*
X43361904Y-83231190D01*
X43400000Y-83307380D01*
X43438095Y-83345476D01*
X43514285Y-83383571D01*
X43552380Y-83383571D01*
X43628571Y-83345476D01*
X43666666Y-83307380D01*
X43704761Y-83231190D01*
X43704761Y-83078809D01*
X43742857Y-83002619D01*
X43780952Y-82964523D01*
X43857142Y-82926428D01*
X44009523Y-82926428D01*
X44085714Y-82964523D01*
X44123809Y-83002619D01*
X44161904Y-83078809D01*
X44161904Y-83231190D01*
X44123809Y-83307380D01*
X44085714Y-83345476D01*
X44009523Y-83383571D01*
X43857142Y-83383571D01*
X43780952Y-83345476D01*
X43742857Y-83307380D01*
X43704761Y-83231190D01*
X214789880Y-97010714D02*
X213789880Y-97010714D01*
X213789880Y-97248809D01*
X213837500Y-97391666D01*
X213932738Y-97486904D01*
X214027976Y-97534523D01*
X214218452Y-97582142D01*
X214361309Y-97582142D01*
X214551785Y-97534523D01*
X214647023Y-97486904D01*
X214742261Y-97391666D01*
X214789880Y-97248809D01*
X214789880Y-97010714D01*
X213789880Y-98439285D02*
X213789880Y-98248809D01*
X213837500Y-98153571D01*
X213885119Y-98105952D01*
X214027976Y-98010714D01*
X214218452Y-97963095D01*
X214599404Y-97963095D01*
X214694642Y-98010714D01*
X214742261Y-98058333D01*
X214789880Y-98153571D01*
X214789880Y-98344047D01*
X214742261Y-98439285D01*
X214694642Y-98486904D01*
X214599404Y-98534523D01*
X214361309Y-98534523D01*
X214266071Y-98486904D01*
X214218452Y-98439285D01*
X214170833Y-98344047D01*
X214170833Y-98153571D01*
X214218452Y-98058333D01*
X214266071Y-98010714D01*
X214361309Y-97963095D01*
X214123214Y-99391666D02*
X214789880Y-99391666D01*
X213742261Y-99153571D02*
X214456547Y-98915476D01*
X214456547Y-99534523D01*
X215058928Y-99994047D02*
X215058928Y-100755952D01*
X215439880Y-100375000D02*
X214677976Y-100375000D01*
X114777380Y-39860714D02*
X113777380Y-39860714D01*
X113777380Y-40098809D01*
X113825000Y-40241666D01*
X113920238Y-40336904D01*
X114015476Y-40384523D01*
X114205952Y-40432142D01*
X114348809Y-40432142D01*
X114539285Y-40384523D01*
X114634523Y-40336904D01*
X114729761Y-40241666D01*
X114777380Y-40098809D01*
X114777380Y-39860714D01*
X114777380Y-41384523D02*
X114777380Y-40813095D01*
X114777380Y-41098809D02*
X113777380Y-41098809D01*
X113920238Y-41003571D01*
X114015476Y-40908333D01*
X114063095Y-40813095D01*
X114777380Y-41860714D02*
X114777380Y-42051190D01*
X114729761Y-42146428D01*
X114682142Y-42194047D01*
X114539285Y-42289285D01*
X114348809Y-42336904D01*
X113967857Y-42336904D01*
X113872619Y-42289285D01*
X113825000Y-42241666D01*
X113777380Y-42146428D01*
X113777380Y-41955952D01*
X113825000Y-41860714D01*
X113872619Y-41813095D01*
X113967857Y-41765476D01*
X114205952Y-41765476D01*
X114301190Y-41813095D01*
X114348809Y-41860714D01*
X114396428Y-41955952D01*
X114396428Y-42146428D01*
X114348809Y-42241666D01*
X114301190Y-42289285D01*
X114205952Y-42336904D01*
X115046428Y-42844047D02*
X115046428Y-43605952D01*
X115427380Y-43225000D02*
X114665476Y-43225000D01*
X57627380Y-39860714D02*
X56627380Y-39860714D01*
X56627380Y-40098809D01*
X56675000Y-40241666D01*
X56770238Y-40336904D01*
X56865476Y-40384523D01*
X57055952Y-40432142D01*
X57198809Y-40432142D01*
X57389285Y-40384523D01*
X57484523Y-40336904D01*
X57579761Y-40241666D01*
X57627380Y-40098809D01*
X57627380Y-39860714D01*
X57627380Y-41384523D02*
X57627380Y-40813095D01*
X57627380Y-41098809D02*
X56627380Y-41098809D01*
X56770238Y-41003571D01*
X56865476Y-40908333D01*
X56913095Y-40813095D01*
X56627380Y-42241666D02*
X56627380Y-42051190D01*
X56675000Y-41955952D01*
X56722619Y-41908333D01*
X56865476Y-41813095D01*
X57055952Y-41765476D01*
X57436904Y-41765476D01*
X57532142Y-41813095D01*
X57579761Y-41860714D01*
X57627380Y-41955952D01*
X57627380Y-42146428D01*
X57579761Y-42241666D01*
X57532142Y-42289285D01*
X57436904Y-42336904D01*
X57198809Y-42336904D01*
X57103571Y-42289285D01*
X57055952Y-42241666D01*
X57008333Y-42146428D01*
X57008333Y-41955952D01*
X57055952Y-41860714D01*
X57103571Y-41813095D01*
X57198809Y-41765476D01*
X57896428Y-42844047D02*
X57896428Y-43605952D01*
X58277380Y-43225000D02*
X57515476Y-43225000D01*
X210027380Y-39860714D02*
X209027380Y-39860714D01*
X209027380Y-40098809D01*
X209075000Y-40241666D01*
X209170238Y-40336904D01*
X209265476Y-40384523D01*
X209455952Y-40432142D01*
X209598809Y-40432142D01*
X209789285Y-40384523D01*
X209884523Y-40336904D01*
X209979761Y-40241666D01*
X210027380Y-40098809D01*
X210027380Y-39860714D01*
X209122619Y-40813095D02*
X209075000Y-40860714D01*
X209027380Y-40955952D01*
X209027380Y-41194047D01*
X209075000Y-41289285D01*
X209122619Y-41336904D01*
X209217857Y-41384523D01*
X209313095Y-41384523D01*
X209455952Y-41336904D01*
X210027380Y-40765476D01*
X210027380Y-41384523D01*
X209360714Y-42241666D02*
X210027380Y-42241666D01*
X208979761Y-42003571D02*
X209694047Y-41765476D01*
X209694047Y-42384523D01*
X210296428Y-42844047D02*
X210296428Y-43605952D01*
X210677380Y-43225000D02*
X209915476Y-43225000D01*
X41466666Y-28552380D02*
X41800000Y-28076190D01*
X42038095Y-28552380D02*
X42038095Y-27552380D01*
X41657142Y-27552380D01*
X41561904Y-27600000D01*
X41514285Y-27647619D01*
X41466666Y-27742857D01*
X41466666Y-27885714D01*
X41514285Y-27980952D01*
X41561904Y-28028571D01*
X41657142Y-28076190D01*
X42038095Y-28076190D01*
X41133333Y-27552380D02*
X40466666Y-27552380D01*
X40895238Y-28552380D01*
X55985714Y-90066666D02*
X56023809Y-90028571D01*
X56061904Y-89914285D01*
X56061904Y-89838095D01*
X56023809Y-89723809D01*
X55947619Y-89647619D01*
X55871428Y-89609523D01*
X55719047Y-89571428D01*
X55604761Y-89571428D01*
X55452380Y-89609523D01*
X55376190Y-89647619D01*
X55300000Y-89723809D01*
X55261904Y-89838095D01*
X55261904Y-89914285D01*
X55300000Y-90028571D01*
X55338095Y-90066666D01*
X55528571Y-90752380D02*
X56061904Y-90752380D01*
X55223809Y-90561904D02*
X55795238Y-90371428D01*
X55795238Y-90866666D01*
X233839880Y-97010714D02*
X232839880Y-97010714D01*
X232839880Y-97248809D01*
X232887500Y-97391666D01*
X232982738Y-97486904D01*
X233077976Y-97534523D01*
X233268452Y-97582142D01*
X233411309Y-97582142D01*
X233601785Y-97534523D01*
X233697023Y-97486904D01*
X233792261Y-97391666D01*
X233839880Y-97248809D01*
X233839880Y-97010714D01*
X232839880Y-98439285D02*
X232839880Y-98248809D01*
X232887500Y-98153571D01*
X232935119Y-98105952D01*
X233077976Y-98010714D01*
X233268452Y-97963095D01*
X233649404Y-97963095D01*
X233744642Y-98010714D01*
X233792261Y-98058333D01*
X233839880Y-98153571D01*
X233839880Y-98344047D01*
X233792261Y-98439285D01*
X233744642Y-98486904D01*
X233649404Y-98534523D01*
X233411309Y-98534523D01*
X233316071Y-98486904D01*
X233268452Y-98439285D01*
X233220833Y-98344047D01*
X233220833Y-98153571D01*
X233268452Y-98058333D01*
X233316071Y-98010714D01*
X233411309Y-97963095D01*
X232839880Y-99439285D02*
X232839880Y-98963095D01*
X233316071Y-98915476D01*
X233268452Y-98963095D01*
X233220833Y-99058333D01*
X233220833Y-99296428D01*
X233268452Y-99391666D01*
X233316071Y-99439285D01*
X233411309Y-99486904D01*
X233649404Y-99486904D01*
X233744642Y-99439285D01*
X233792261Y-99391666D01*
X233839880Y-99296428D01*
X233839880Y-99058333D01*
X233792261Y-98963095D01*
X233744642Y-98915476D01*
X234108928Y-99994047D02*
X234108928Y-100755952D01*
X234489880Y-100375000D02*
X233727976Y-100375000D01*
X281464880Y-58910714D02*
X280464880Y-58910714D01*
X280464880Y-59148809D01*
X280512500Y-59291666D01*
X280607738Y-59386904D01*
X280702976Y-59434523D01*
X280893452Y-59482142D01*
X281036309Y-59482142D01*
X281226785Y-59434523D01*
X281322023Y-59386904D01*
X281417261Y-59291666D01*
X281464880Y-59148809D01*
X281464880Y-58910714D01*
X280798214Y-60339285D02*
X281464880Y-60339285D01*
X280417261Y-60101190D02*
X281131547Y-59863095D01*
X281131547Y-60482142D01*
X281464880Y-61386904D02*
X281464880Y-60815476D01*
X281464880Y-61101190D02*
X280464880Y-61101190D01*
X280607738Y-61005952D01*
X280702976Y-60910714D01*
X280750595Y-60815476D01*
X281733928Y-61894047D02*
X281733928Y-62655952D01*
X282114880Y-62275000D02*
X281352976Y-62275000D01*
X152877380Y-39860714D02*
X151877380Y-39860714D01*
X151877380Y-40098809D01*
X151925000Y-40241666D01*
X152020238Y-40336904D01*
X152115476Y-40384523D01*
X152305952Y-40432142D01*
X152448809Y-40432142D01*
X152639285Y-40384523D01*
X152734523Y-40336904D01*
X152829761Y-40241666D01*
X152877380Y-40098809D01*
X152877380Y-39860714D01*
X151972619Y-40813095D02*
X151925000Y-40860714D01*
X151877380Y-40955952D01*
X151877380Y-41194047D01*
X151925000Y-41289285D01*
X151972619Y-41336904D01*
X152067857Y-41384523D01*
X152163095Y-41384523D01*
X152305952Y-41336904D01*
X152877380Y-40765476D01*
X152877380Y-41384523D01*
X152877380Y-42336904D02*
X152877380Y-41765476D01*
X152877380Y-42051190D02*
X151877380Y-42051190D01*
X152020238Y-41955952D01*
X152115476Y-41860714D01*
X152163095Y-41765476D01*
X153146428Y-42844047D02*
X153146428Y-43605952D01*
X153527380Y-43225000D02*
X152765476Y-43225000D01*
X54585714Y-90066666D02*
X54623809Y-90028571D01*
X54661904Y-89914285D01*
X54661904Y-89838095D01*
X54623809Y-89723809D01*
X54547619Y-89647619D01*
X54471428Y-89609523D01*
X54319047Y-89571428D01*
X54204761Y-89571428D01*
X54052380Y-89609523D01*
X53976190Y-89647619D01*
X53900000Y-89723809D01*
X53861904Y-89838095D01*
X53861904Y-89914285D01*
X53900000Y-90028571D01*
X53938095Y-90066666D01*
X53861904Y-90790476D02*
X53861904Y-90409523D01*
X54242857Y-90371428D01*
X54204761Y-90409523D01*
X54166666Y-90485714D01*
X54166666Y-90676190D01*
X54204761Y-90752380D01*
X54242857Y-90790476D01*
X54319047Y-90828571D01*
X54509523Y-90828571D01*
X54585714Y-90790476D01*
X54623809Y-90752380D01*
X54661904Y-90676190D01*
X54661904Y-90485714D01*
X54623809Y-90409523D01*
X54585714Y-90371428D01*
X71914880Y-77960714D02*
X70914880Y-77960714D01*
X70914880Y-78198809D01*
X70962500Y-78341666D01*
X71057738Y-78436904D01*
X71152976Y-78484523D01*
X71343452Y-78532142D01*
X71486309Y-78532142D01*
X71676785Y-78484523D01*
X71772023Y-78436904D01*
X71867261Y-78341666D01*
X71914880Y-78198809D01*
X71914880Y-77960714D01*
X71248214Y-79389285D02*
X71914880Y-79389285D01*
X70867261Y-79151190D02*
X71581547Y-78913095D01*
X71581547Y-79532142D01*
X71248214Y-80341666D02*
X71914880Y-80341666D01*
X70867261Y-80103571D02*
X71581547Y-79865476D01*
X71581547Y-80484523D01*
X72183928Y-80944047D02*
X72183928Y-81705952D01*
X72564880Y-81325000D02*
X71802976Y-81325000D01*
X143352380Y-58910714D02*
X142352380Y-58910714D01*
X142352380Y-59148809D01*
X142400000Y-59291666D01*
X142495238Y-59386904D01*
X142590476Y-59434523D01*
X142780952Y-59482142D01*
X142923809Y-59482142D01*
X143114285Y-59434523D01*
X143209523Y-59386904D01*
X143304761Y-59291666D01*
X143352380Y-59148809D01*
X143352380Y-58910714D01*
X142352380Y-59815476D02*
X142352380Y-60434523D01*
X142733333Y-60101190D01*
X142733333Y-60244047D01*
X142780952Y-60339285D01*
X142828571Y-60386904D01*
X142923809Y-60434523D01*
X143161904Y-60434523D01*
X143257142Y-60386904D01*
X143304761Y-60339285D01*
X143352380Y-60244047D01*
X143352380Y-59958333D01*
X143304761Y-59863095D01*
X143257142Y-59815476D01*
X142685714Y-61291666D02*
X143352380Y-61291666D01*
X142304761Y-61053571D02*
X143019047Y-60815476D01*
X143019047Y-61434523D01*
X143621428Y-61894047D02*
X143621428Y-62655952D01*
X144002380Y-62275000D02*
X143240476Y-62275000D01*
X280852380Y-40460714D02*
X279852380Y-40460714D01*
X279852380Y-40698809D01*
X279900000Y-40841666D01*
X279995238Y-40936904D01*
X280090476Y-40984523D01*
X280280952Y-41032142D01*
X280423809Y-41032142D01*
X280614285Y-40984523D01*
X280709523Y-40936904D01*
X280804761Y-40841666D01*
X280852380Y-40698809D01*
X280852380Y-40460714D01*
X279947619Y-41413095D02*
X279900000Y-41460714D01*
X279852380Y-41555952D01*
X279852380Y-41794047D01*
X279900000Y-41889285D01*
X279947619Y-41936904D01*
X280042857Y-41984523D01*
X280138095Y-41984523D01*
X280280952Y-41936904D01*
X280852380Y-41365476D01*
X280852380Y-41984523D01*
X279852380Y-42317857D02*
X279852380Y-42984523D01*
X280852380Y-42555952D01*
X276971428Y-42844047D02*
X276971428Y-43605952D01*
X277352380Y-43225000D02*
X276590476Y-43225000D01*
X190977380Y-39860714D02*
X189977380Y-39860714D01*
X189977380Y-40098809D01*
X190025000Y-40241666D01*
X190120238Y-40336904D01*
X190215476Y-40384523D01*
X190405952Y-40432142D01*
X190548809Y-40432142D01*
X190739285Y-40384523D01*
X190834523Y-40336904D01*
X190929761Y-40241666D01*
X190977380Y-40098809D01*
X190977380Y-39860714D01*
X190072619Y-40813095D02*
X190025000Y-40860714D01*
X189977380Y-40955952D01*
X189977380Y-41194047D01*
X190025000Y-41289285D01*
X190072619Y-41336904D01*
X190167857Y-41384523D01*
X190263095Y-41384523D01*
X190405952Y-41336904D01*
X190977380Y-40765476D01*
X190977380Y-41384523D01*
X189977380Y-41717857D02*
X189977380Y-42336904D01*
X190358333Y-42003571D01*
X190358333Y-42146428D01*
X190405952Y-42241666D01*
X190453571Y-42289285D01*
X190548809Y-42336904D01*
X190786904Y-42336904D01*
X190882142Y-42289285D01*
X190929761Y-42241666D01*
X190977380Y-42146428D01*
X190977380Y-41860714D01*
X190929761Y-41765476D01*
X190882142Y-41717857D01*
X191246428Y-42844047D02*
X191246428Y-43605952D01*
X191627380Y-43225000D02*
X190865476Y-43225000D01*
X49785714Y-80885714D02*
X49823809Y-80847619D01*
X49861904Y-80733333D01*
X49861904Y-80657142D01*
X49823809Y-80542857D01*
X49747619Y-80466666D01*
X49671428Y-80428571D01*
X49519047Y-80390476D01*
X49404761Y-80390476D01*
X49252380Y-80428571D01*
X49176190Y-80466666D01*
X49100000Y-80542857D01*
X49061904Y-80657142D01*
X49061904Y-80733333D01*
X49100000Y-80847619D01*
X49138095Y-80885714D01*
X49861904Y-81647619D02*
X49861904Y-81190476D01*
X49861904Y-81419047D02*
X49061904Y-81419047D01*
X49176190Y-81342857D01*
X49252380Y-81266666D01*
X49290476Y-81190476D01*
X49061904Y-82333333D02*
X49061904Y-82180952D01*
X49100000Y-82104761D01*
X49138095Y-82066666D01*
X49252380Y-81990476D01*
X49404761Y-81952380D01*
X49709523Y-81952380D01*
X49785714Y-81990476D01*
X49823809Y-82028571D01*
X49861904Y-82104761D01*
X49861904Y-82257142D01*
X49823809Y-82333333D01*
X49785714Y-82371428D01*
X49709523Y-82409523D01*
X49519047Y-82409523D01*
X49442857Y-82371428D01*
X49404761Y-82333333D01*
X49366666Y-82257142D01*
X49366666Y-82104761D01*
X49404761Y-82028571D01*
X49442857Y-81990476D01*
X49519047Y-81952380D01*
X54333333Y-106185714D02*
X54371428Y-106223809D01*
X54485714Y-106261904D01*
X54561904Y-106261904D01*
X54676190Y-106223809D01*
X54752380Y-106147619D01*
X54790476Y-106071428D01*
X54828571Y-105919047D01*
X54828571Y-105804761D01*
X54790476Y-105652380D01*
X54752380Y-105576190D01*
X54676190Y-105500000D01*
X54561904Y-105461904D01*
X54485714Y-105461904D01*
X54371428Y-105500000D01*
X54333333Y-105538095D01*
X54066666Y-105461904D02*
X53533333Y-105461904D01*
X53876190Y-106261904D01*
X38989285Y-88285714D02*
X39027380Y-88323809D01*
X39141666Y-88361904D01*
X39217857Y-88361904D01*
X39332142Y-88323809D01*
X39408333Y-88247619D01*
X39446428Y-88171428D01*
X39484523Y-88019047D01*
X39484523Y-87904761D01*
X39446428Y-87752380D01*
X39408333Y-87676190D01*
X39332142Y-87600000D01*
X39217857Y-87561904D01*
X39141666Y-87561904D01*
X39027380Y-87600000D01*
X38989285Y-87638095D01*
X38227380Y-88361904D02*
X38684523Y-88361904D01*
X38455952Y-88361904D02*
X38455952Y-87561904D01*
X38532142Y-87676190D01*
X38608333Y-87752380D01*
X38684523Y-87790476D01*
X37503571Y-87561904D02*
X37884523Y-87561904D01*
X37922619Y-87942857D01*
X37884523Y-87904761D01*
X37808333Y-87866666D01*
X37617857Y-87866666D01*
X37541666Y-87904761D01*
X37503571Y-87942857D01*
X37465476Y-88019047D01*
X37465476Y-88209523D01*
X37503571Y-88285714D01*
X37541666Y-88323809D01*
X37617857Y-88361904D01*
X37808333Y-88361904D01*
X37884523Y-88323809D01*
X37922619Y-88285714D01*
X55261904Y-19752380D02*
X55261904Y-20561904D01*
X55214285Y-20657142D01*
X55166666Y-20704761D01*
X55071428Y-20752380D01*
X54880952Y-20752380D01*
X54785714Y-20704761D01*
X54738095Y-20657142D01*
X54690476Y-20561904D01*
X54690476Y-19752380D01*
X54309523Y-19752380D02*
X53642857Y-19752380D01*
X54071428Y-20752380D01*
X42039285Y-91180714D02*
X42077380Y-91218809D01*
X42191666Y-91256904D01*
X42267857Y-91256904D01*
X42382142Y-91218809D01*
X42458333Y-91142619D01*
X42496428Y-91066428D01*
X42534523Y-90914047D01*
X42534523Y-90799761D01*
X42496428Y-90647380D01*
X42458333Y-90571190D01*
X42382142Y-90495000D01*
X42267857Y-90456904D01*
X42191666Y-90456904D01*
X42077380Y-90495000D01*
X42039285Y-90533095D01*
X41277380Y-91256904D02*
X41734523Y-91256904D01*
X41505952Y-91256904D02*
X41505952Y-90456904D01*
X41582142Y-90571190D01*
X41658333Y-90647380D01*
X41734523Y-90685476D01*
X40782142Y-90456904D02*
X40705952Y-90456904D01*
X40629761Y-90495000D01*
X40591666Y-90533095D01*
X40553571Y-90609285D01*
X40515476Y-90761666D01*
X40515476Y-90952142D01*
X40553571Y-91104523D01*
X40591666Y-91180714D01*
X40629761Y-91218809D01*
X40705952Y-91256904D01*
X40782142Y-91256904D01*
X40858333Y-91218809D01*
X40896428Y-91180714D01*
X40934523Y-91104523D01*
X40972619Y-90952142D01*
X40972619Y-90761666D01*
X40934523Y-90609285D01*
X40896428Y-90533095D01*
X40858333Y-90495000D01*
X40782142Y-90456904D01*
X43185714Y-96135714D02*
X43223809Y-96097619D01*
X43261904Y-95983333D01*
X43261904Y-95907142D01*
X43223809Y-95792857D01*
X43147619Y-95716666D01*
X43071428Y-95678571D01*
X42919047Y-95640476D01*
X42804761Y-95640476D01*
X42652380Y-95678571D01*
X42576190Y-95716666D01*
X42500000Y-95792857D01*
X42461904Y-95907142D01*
X42461904Y-95983333D01*
X42500000Y-96097619D01*
X42538095Y-96135714D01*
X43261904Y-96897619D02*
X43261904Y-96440476D01*
X43261904Y-96669047D02*
X42461904Y-96669047D01*
X42576190Y-96592857D01*
X42652380Y-96516666D01*
X42690476Y-96440476D01*
X42461904Y-97164285D02*
X42461904Y-97697619D01*
X43261904Y-97354761D01*
X24289880Y-58910714D02*
X23289880Y-58910714D01*
X23289880Y-59148809D01*
X23337500Y-59291666D01*
X23432738Y-59386904D01*
X23527976Y-59434523D01*
X23718452Y-59482142D01*
X23861309Y-59482142D01*
X24051785Y-59434523D01*
X24147023Y-59386904D01*
X24242261Y-59291666D01*
X24289880Y-59148809D01*
X24289880Y-58910714D01*
X23385119Y-59863095D02*
X23337500Y-59910714D01*
X23289880Y-60005952D01*
X23289880Y-60244047D01*
X23337500Y-60339285D01*
X23385119Y-60386904D01*
X23480357Y-60434523D01*
X23575595Y-60434523D01*
X23718452Y-60386904D01*
X24289880Y-59815476D01*
X24289880Y-60434523D01*
X23718452Y-61005952D02*
X23670833Y-60910714D01*
X23623214Y-60863095D01*
X23527976Y-60815476D01*
X23480357Y-60815476D01*
X23385119Y-60863095D01*
X23337500Y-60910714D01*
X23289880Y-61005952D01*
X23289880Y-61196428D01*
X23337500Y-61291666D01*
X23385119Y-61339285D01*
X23480357Y-61386904D01*
X23527976Y-61386904D01*
X23623214Y-61339285D01*
X23670833Y-61291666D01*
X23718452Y-61196428D01*
X23718452Y-61005952D01*
X23766071Y-60910714D01*
X23813690Y-60863095D01*
X23908928Y-60815476D01*
X24099404Y-60815476D01*
X24194642Y-60863095D01*
X24242261Y-60910714D01*
X24289880Y-61005952D01*
X24289880Y-61196428D01*
X24242261Y-61291666D01*
X24194642Y-61339285D01*
X24099404Y-61386904D01*
X23908928Y-61386904D01*
X23813690Y-61339285D01*
X23766071Y-61291666D01*
X23718452Y-61196428D01*
X24558928Y-61894047D02*
X24558928Y-62655952D01*
X24939880Y-62275000D02*
X24177976Y-62275000D01*
X65538095Y-34652380D02*
X65538095Y-33652380D01*
X65300000Y-33652380D01*
X65157142Y-33700000D01*
X65061904Y-33795238D01*
X65014285Y-33890476D01*
X64966666Y-34080952D01*
X64966666Y-34223809D01*
X65014285Y-34414285D01*
X65061904Y-34509523D01*
X65157142Y-34604761D01*
X65300000Y-34652380D01*
X65538095Y-34652380D01*
X64585714Y-33747619D02*
X64538095Y-33700000D01*
X64442857Y-33652380D01*
X64204761Y-33652380D01*
X64109523Y-33700000D01*
X64061904Y-33747619D01*
X64014285Y-33842857D01*
X64014285Y-33938095D01*
X64061904Y-34080952D01*
X64633333Y-34652380D01*
X64014285Y-34652380D01*
X63030952Y-30921428D02*
X62269047Y-30921428D01*
X62650000Y-31302380D02*
X62650000Y-30540476D01*
X26671130Y-77960714D02*
X25671130Y-77960714D01*
X25671130Y-78198809D01*
X25718750Y-78341666D01*
X25813988Y-78436904D01*
X25909226Y-78484523D01*
X26099702Y-78532142D01*
X26242559Y-78532142D01*
X26433035Y-78484523D01*
X26528273Y-78436904D01*
X26623511Y-78341666D01*
X26671130Y-78198809D01*
X26671130Y-77960714D01*
X26004464Y-79389285D02*
X26671130Y-79389285D01*
X25623511Y-79151190D02*
X26337797Y-78913095D01*
X26337797Y-79532142D01*
X25766369Y-79865476D02*
X25718750Y-79913095D01*
X25671130Y-80008333D01*
X25671130Y-80246428D01*
X25718750Y-80341666D01*
X25766369Y-80389285D01*
X25861607Y-80436904D01*
X25956845Y-80436904D01*
X26099702Y-80389285D01*
X26671130Y-79817857D01*
X26671130Y-80436904D01*
X26940178Y-80944047D02*
X26940178Y-81705952D01*
X27321130Y-81325000D02*
X26559226Y-81325000D01*
X52752380Y-83538095D02*
X53561904Y-83538095D01*
X53657142Y-83585714D01*
X53704761Y-83633333D01*
X53752380Y-83728571D01*
X53752380Y-83919047D01*
X53704761Y-84014285D01*
X53657142Y-84061904D01*
X53561904Y-84109523D01*
X52752380Y-84109523D01*
X53085714Y-85014285D02*
X53752380Y-85014285D01*
X52704761Y-84776190D02*
X53419047Y-84538095D01*
X53419047Y-85157142D01*
X54020714Y-87030714D02*
X54058809Y-86992619D01*
X54096904Y-86878333D01*
X54096904Y-86802142D01*
X54058809Y-86687857D01*
X53982619Y-86611666D01*
X53906428Y-86573571D01*
X53754047Y-86535476D01*
X53639761Y-86535476D01*
X53487380Y-86573571D01*
X53411190Y-86611666D01*
X53335000Y-86687857D01*
X53296904Y-86802142D01*
X53296904Y-86878333D01*
X53335000Y-86992619D01*
X53373095Y-87030714D01*
X54096904Y-87792619D02*
X54096904Y-87335476D01*
X54096904Y-87564047D02*
X53296904Y-87564047D01*
X53411190Y-87487857D01*
X53487380Y-87411666D01*
X53525476Y-87335476D01*
X53296904Y-88059285D02*
X53296904Y-88554523D01*
X53601666Y-88287857D01*
X53601666Y-88402142D01*
X53639761Y-88478333D01*
X53677857Y-88516428D01*
X53754047Y-88554523D01*
X53944523Y-88554523D01*
X54020714Y-88516428D01*
X54058809Y-88478333D01*
X54096904Y-88402142D01*
X54096904Y-88173571D01*
X54058809Y-88097380D01*
X54020714Y-88059285D01*
X248127380Y-116060714D02*
X247127380Y-116060714D01*
X247127380Y-116298809D01*
X247175000Y-116441666D01*
X247270238Y-116536904D01*
X247365476Y-116584523D01*
X247555952Y-116632142D01*
X247698809Y-116632142D01*
X247889285Y-116584523D01*
X247984523Y-116536904D01*
X248079761Y-116441666D01*
X248127380Y-116298809D01*
X248127380Y-116060714D01*
X247127380Y-116965476D02*
X247127380Y-117632142D01*
X248127380Y-117203571D01*
X247127380Y-117917857D02*
X247127380Y-118536904D01*
X247508333Y-118203571D01*
X247508333Y-118346428D01*
X247555952Y-118441666D01*
X247603571Y-118489285D01*
X247698809Y-118536904D01*
X247936904Y-118536904D01*
X248032142Y-118489285D01*
X248079761Y-118441666D01*
X248127380Y-118346428D01*
X248127380Y-118060714D01*
X248079761Y-117965476D01*
X248032142Y-117917857D01*
X248396428Y-119044047D02*
X248396428Y-119805952D01*
X248777380Y-119425000D02*
X248015476Y-119425000D01*
X151538095Y-35002380D02*
X151538095Y-34002380D01*
X151300000Y-34002380D01*
X151157142Y-34050000D01*
X151061904Y-34145238D01*
X151014285Y-34240476D01*
X150966666Y-34430952D01*
X150966666Y-34573809D01*
X151014285Y-34764285D01*
X151061904Y-34859523D01*
X151157142Y-34954761D01*
X151300000Y-35002380D01*
X151538095Y-35002380D01*
X150109523Y-34002380D02*
X150300000Y-34002380D01*
X150395238Y-34050000D01*
X150442857Y-34097619D01*
X150538095Y-34240476D01*
X150585714Y-34430952D01*
X150585714Y-34811904D01*
X150538095Y-34907142D01*
X150490476Y-34954761D01*
X150395238Y-35002380D01*
X150204761Y-35002380D01*
X150109523Y-34954761D01*
X150061904Y-34907142D01*
X150014285Y-34811904D01*
X150014285Y-34573809D01*
X150061904Y-34478571D01*
X150109523Y-34430952D01*
X150204761Y-34383333D01*
X150395238Y-34383333D01*
X150490476Y-34430952D01*
X150538095Y-34478571D01*
X150585714Y-34573809D01*
X149030952Y-30921428D02*
X148269047Y-30921428D01*
X148650000Y-31302380D02*
X148650000Y-30540476D01*
X243364880Y-77960714D02*
X242364880Y-77960714D01*
X242364880Y-78198809D01*
X242412500Y-78341666D01*
X242507738Y-78436904D01*
X242602976Y-78484523D01*
X242793452Y-78532142D01*
X242936309Y-78532142D01*
X243126785Y-78484523D01*
X243222023Y-78436904D01*
X243317261Y-78341666D01*
X243364880Y-78198809D01*
X243364880Y-77960714D01*
X242364880Y-79436904D02*
X242364880Y-78960714D01*
X242841071Y-78913095D01*
X242793452Y-78960714D01*
X242745833Y-79055952D01*
X242745833Y-79294047D01*
X242793452Y-79389285D01*
X242841071Y-79436904D01*
X242936309Y-79484523D01*
X243174404Y-79484523D01*
X243269642Y-79436904D01*
X243317261Y-79389285D01*
X243364880Y-79294047D01*
X243364880Y-79055952D01*
X243317261Y-78960714D01*
X243269642Y-78913095D01*
X242364880Y-79817857D02*
X242364880Y-80436904D01*
X242745833Y-80103571D01*
X242745833Y-80246428D01*
X242793452Y-80341666D01*
X242841071Y-80389285D01*
X242936309Y-80436904D01*
X243174404Y-80436904D01*
X243269642Y-80389285D01*
X243317261Y-80341666D01*
X243364880Y-80246428D01*
X243364880Y-79960714D01*
X243317261Y-79865476D01*
X243269642Y-79817857D01*
X243633928Y-80944047D02*
X243633928Y-81705952D01*
X244014880Y-81325000D02*
X243252976Y-81325000D01*
X257652380Y-58910714D02*
X256652380Y-58910714D01*
X256652380Y-59148809D01*
X256700000Y-59291666D01*
X256795238Y-59386904D01*
X256890476Y-59434523D01*
X257080952Y-59482142D01*
X257223809Y-59482142D01*
X257414285Y-59434523D01*
X257509523Y-59386904D01*
X257604761Y-59291666D01*
X257652380Y-59148809D01*
X257652380Y-58910714D01*
X256985714Y-60339285D02*
X257652380Y-60339285D01*
X256604761Y-60101190D02*
X257319047Y-59863095D01*
X257319047Y-60482142D01*
X256652380Y-61053571D02*
X256652380Y-61148809D01*
X256700000Y-61244047D01*
X256747619Y-61291666D01*
X256842857Y-61339285D01*
X257033333Y-61386904D01*
X257271428Y-61386904D01*
X257461904Y-61339285D01*
X257557142Y-61291666D01*
X257604761Y-61244047D01*
X257652380Y-61148809D01*
X257652380Y-61053571D01*
X257604761Y-60958333D01*
X257557142Y-60910714D01*
X257461904Y-60863095D01*
X257271428Y-60815476D01*
X257033333Y-60815476D01*
X256842857Y-60863095D01*
X256747619Y-60910714D01*
X256700000Y-60958333D01*
X256652380Y-61053571D01*
X257921428Y-61894047D02*
X257921428Y-62655952D01*
X258302380Y-62275000D02*
X257540476Y-62275000D01*
X47233333Y-33028571D02*
X47566666Y-33028571D01*
X47566666Y-33552380D02*
X47566666Y-32552380D01*
X47090476Y-32552380D01*
X46185714Y-33552380D02*
X46757142Y-33552380D01*
X46471428Y-33552380D02*
X46471428Y-32552380D01*
X46566666Y-32695238D01*
X46661904Y-32790476D01*
X46757142Y-32838095D01*
D11*
X48585714Y-80885714D02*
X48623809Y-80847619D01*
X48661904Y-80733333D01*
X48661904Y-80657142D01*
X48623809Y-80542857D01*
X48547619Y-80466666D01*
X48471428Y-80428571D01*
X48319047Y-80390476D01*
X48204761Y-80390476D01*
X48052380Y-80428571D01*
X47976190Y-80466666D01*
X47900000Y-80542857D01*
X47861904Y-80657142D01*
X47861904Y-80733333D01*
X47900000Y-80847619D01*
X47938095Y-80885714D01*
X48661904Y-81647619D02*
X48661904Y-81190476D01*
X48661904Y-81419047D02*
X47861904Y-81419047D01*
X47976190Y-81342857D01*
X48052380Y-81266666D01*
X48090476Y-81190476D01*
X48128571Y-82333333D02*
X48661904Y-82333333D01*
X47823809Y-82142857D02*
X48395238Y-81952380D01*
X48395238Y-82447619D01*
D10*
X248127380Y-39860714D02*
X247127380Y-39860714D01*
X247127380Y-40098809D01*
X247175000Y-40241666D01*
X247270238Y-40336904D01*
X247365476Y-40384523D01*
X247555952Y-40432142D01*
X247698809Y-40432142D01*
X247889285Y-40384523D01*
X247984523Y-40336904D01*
X248079761Y-40241666D01*
X248127380Y-40098809D01*
X248127380Y-39860714D01*
X247222619Y-40813095D02*
X247175000Y-40860714D01*
X247127380Y-40955952D01*
X247127380Y-41194047D01*
X247175000Y-41289285D01*
X247222619Y-41336904D01*
X247317857Y-41384523D01*
X247413095Y-41384523D01*
X247555952Y-41336904D01*
X248127380Y-40765476D01*
X248127380Y-41384523D01*
X247127380Y-42241666D02*
X247127380Y-42051190D01*
X247175000Y-41955952D01*
X247222619Y-41908333D01*
X247365476Y-41813095D01*
X247555952Y-41765476D01*
X247936904Y-41765476D01*
X248032142Y-41813095D01*
X248079761Y-41860714D01*
X248127380Y-41955952D01*
X248127380Y-42146428D01*
X248079761Y-42241666D01*
X248032142Y-42289285D01*
X247936904Y-42336904D01*
X247698809Y-42336904D01*
X247603571Y-42289285D01*
X247555952Y-42241666D01*
X247508333Y-42146428D01*
X247508333Y-41955952D01*
X247555952Y-41860714D01*
X247603571Y-41813095D01*
X247698809Y-41765476D01*
X248396428Y-42844047D02*
X248396428Y-43605952D01*
X248777380Y-43225000D02*
X248015476Y-43225000D01*
X24727380Y-117310714D02*
X23727380Y-117310714D01*
X23727380Y-117548809D01*
X23775000Y-117691666D01*
X23870238Y-117786904D01*
X23965476Y-117834523D01*
X24155952Y-117882142D01*
X24298809Y-117882142D01*
X24489285Y-117834523D01*
X24584523Y-117786904D01*
X24679761Y-117691666D01*
X24727380Y-117548809D01*
X24727380Y-117310714D01*
X23727380Y-118739285D02*
X23727380Y-118548809D01*
X23775000Y-118453571D01*
X23822619Y-118405952D01*
X23965476Y-118310714D01*
X24155952Y-118263095D01*
X24536904Y-118263095D01*
X24632142Y-118310714D01*
X24679761Y-118358333D01*
X24727380Y-118453571D01*
X24727380Y-118644047D01*
X24679761Y-118739285D01*
X24632142Y-118786904D01*
X24536904Y-118834523D01*
X24298809Y-118834523D01*
X24203571Y-118786904D01*
X24155952Y-118739285D01*
X24108333Y-118644047D01*
X24108333Y-118453571D01*
X24155952Y-118358333D01*
X24203571Y-118310714D01*
X24298809Y-118263095D01*
X23727380Y-119167857D02*
X23727380Y-119834523D01*
X24727380Y-119405952D01*
X19796428Y-119044047D02*
X19796428Y-119805952D01*
X20177380Y-119425000D02*
X19415476Y-119425000D01*
X124302380Y-58910714D02*
X123302380Y-58910714D01*
X123302380Y-59148809D01*
X123350000Y-59291666D01*
X123445238Y-59386904D01*
X123540476Y-59434523D01*
X123730952Y-59482142D01*
X123873809Y-59482142D01*
X124064285Y-59434523D01*
X124159523Y-59386904D01*
X124254761Y-59291666D01*
X124302380Y-59148809D01*
X124302380Y-58910714D01*
X123302380Y-59815476D02*
X123302380Y-60434523D01*
X123683333Y-60101190D01*
X123683333Y-60244047D01*
X123730952Y-60339285D01*
X123778571Y-60386904D01*
X123873809Y-60434523D01*
X124111904Y-60434523D01*
X124207142Y-60386904D01*
X124254761Y-60339285D01*
X124302380Y-60244047D01*
X124302380Y-59958333D01*
X124254761Y-59863095D01*
X124207142Y-59815476D01*
X123302380Y-60767857D02*
X123302380Y-61386904D01*
X123683333Y-61053571D01*
X123683333Y-61196428D01*
X123730952Y-61291666D01*
X123778571Y-61339285D01*
X123873809Y-61386904D01*
X124111904Y-61386904D01*
X124207142Y-61339285D01*
X124254761Y-61291666D01*
X124302380Y-61196428D01*
X124302380Y-60910714D01*
X124254761Y-60815476D01*
X124207142Y-60767857D01*
X124571428Y-61894047D02*
X124571428Y-62655952D01*
X124952380Y-62275000D02*
X124190476Y-62275000D01*
X47476190Y-106576190D02*
X47476190Y-107052380D01*
X47809523Y-106052380D02*
X47476190Y-106576190D01*
X47142857Y-106052380D01*
X46285714Y-107052380D02*
X46857142Y-107052380D01*
X46571428Y-107052380D02*
X46571428Y-106052380D01*
X46666666Y-106195238D01*
X46761904Y-106290476D01*
X46857142Y-106338095D01*
X157639880Y-97010714D02*
X156639880Y-97010714D01*
X156639880Y-97248809D01*
X156687500Y-97391666D01*
X156782738Y-97486904D01*
X156877976Y-97534523D01*
X157068452Y-97582142D01*
X157211309Y-97582142D01*
X157401785Y-97534523D01*
X157497023Y-97486904D01*
X157592261Y-97391666D01*
X157639880Y-97248809D01*
X157639880Y-97010714D01*
X156639880Y-98439285D02*
X156639880Y-98248809D01*
X156687500Y-98153571D01*
X156735119Y-98105952D01*
X156877976Y-98010714D01*
X157068452Y-97963095D01*
X157449404Y-97963095D01*
X157544642Y-98010714D01*
X157592261Y-98058333D01*
X157639880Y-98153571D01*
X157639880Y-98344047D01*
X157592261Y-98439285D01*
X157544642Y-98486904D01*
X157449404Y-98534523D01*
X157211309Y-98534523D01*
X157116071Y-98486904D01*
X157068452Y-98439285D01*
X157020833Y-98344047D01*
X157020833Y-98153571D01*
X157068452Y-98058333D01*
X157116071Y-98010714D01*
X157211309Y-97963095D01*
X157639880Y-99486904D02*
X157639880Y-98915476D01*
X157639880Y-99201190D02*
X156639880Y-99201190D01*
X156782738Y-99105952D01*
X156877976Y-99010714D01*
X156925595Y-98915476D01*
X157908928Y-99994047D02*
X157908928Y-100755952D01*
X158289880Y-100375000D02*
X157527976Y-100375000D01*
X100489880Y-97010714D02*
X99489880Y-97010714D01*
X99489880Y-97248809D01*
X99537500Y-97391666D01*
X99632738Y-97486904D01*
X99727976Y-97534523D01*
X99918452Y-97582142D01*
X100061309Y-97582142D01*
X100251785Y-97534523D01*
X100347023Y-97486904D01*
X100442261Y-97391666D01*
X100489880Y-97248809D01*
X100489880Y-97010714D01*
X99489880Y-98486904D02*
X99489880Y-98010714D01*
X99966071Y-97963095D01*
X99918452Y-98010714D01*
X99870833Y-98105952D01*
X99870833Y-98344047D01*
X99918452Y-98439285D01*
X99966071Y-98486904D01*
X100061309Y-98534523D01*
X100299404Y-98534523D01*
X100394642Y-98486904D01*
X100442261Y-98439285D01*
X100489880Y-98344047D01*
X100489880Y-98105952D01*
X100442261Y-98010714D01*
X100394642Y-97963095D01*
X99918452Y-99105952D02*
X99870833Y-99010714D01*
X99823214Y-98963095D01*
X99727976Y-98915476D01*
X99680357Y-98915476D01*
X99585119Y-98963095D01*
X99537500Y-99010714D01*
X99489880Y-99105952D01*
X99489880Y-99296428D01*
X99537500Y-99391666D01*
X99585119Y-99439285D01*
X99680357Y-99486904D01*
X99727976Y-99486904D01*
X99823214Y-99439285D01*
X99870833Y-99391666D01*
X99918452Y-99296428D01*
X99918452Y-99105952D01*
X99966071Y-99010714D01*
X100013690Y-98963095D01*
X100108928Y-98915476D01*
X100299404Y-98915476D01*
X100394642Y-98963095D01*
X100442261Y-99010714D01*
X100489880Y-99105952D01*
X100489880Y-99296428D01*
X100442261Y-99391666D01*
X100394642Y-99439285D01*
X100299404Y-99486904D01*
X100108928Y-99486904D01*
X100013690Y-99439285D01*
X99966071Y-99391666D01*
X99918452Y-99296428D01*
X100758928Y-99994047D02*
X100758928Y-100755952D01*
X101139880Y-100375000D02*
X100377976Y-100375000D01*
X181452380Y-58910714D02*
X180452380Y-58910714D01*
X180452380Y-59148809D01*
X180500000Y-59291666D01*
X180595238Y-59386904D01*
X180690476Y-59434523D01*
X180880952Y-59482142D01*
X181023809Y-59482142D01*
X181214285Y-59434523D01*
X181309523Y-59386904D01*
X181404761Y-59291666D01*
X181452380Y-59148809D01*
X181452380Y-58910714D01*
X180452380Y-59815476D02*
X180452380Y-60434523D01*
X180833333Y-60101190D01*
X180833333Y-60244047D01*
X180880952Y-60339285D01*
X180928571Y-60386904D01*
X181023809Y-60434523D01*
X181261904Y-60434523D01*
X181357142Y-60386904D01*
X181404761Y-60339285D01*
X181452380Y-60244047D01*
X181452380Y-59958333D01*
X181404761Y-59863095D01*
X181357142Y-59815476D01*
X180452380Y-61291666D02*
X180452380Y-61101190D01*
X180500000Y-61005952D01*
X180547619Y-60958333D01*
X180690476Y-60863095D01*
X180880952Y-60815476D01*
X181261904Y-60815476D01*
X181357142Y-60863095D01*
X181404761Y-60910714D01*
X181452380Y-61005952D01*
X181452380Y-61196428D01*
X181404761Y-61291666D01*
X181357142Y-61339285D01*
X181261904Y-61386904D01*
X181023809Y-61386904D01*
X180928571Y-61339285D01*
X180880952Y-61291666D01*
X180833333Y-61196428D01*
X180833333Y-61005952D01*
X180880952Y-60910714D01*
X180928571Y-60863095D01*
X181023809Y-60815476D01*
X181721428Y-61894047D02*
X181721428Y-62655952D01*
X182102380Y-62275000D02*
X181340476Y-62275000D01*
X79058630Y-116060714D02*
X78058630Y-116060714D01*
X78058630Y-116298809D01*
X78106250Y-116441666D01*
X78201488Y-116536904D01*
X78296726Y-116584523D01*
X78487202Y-116632142D01*
X78630059Y-116632142D01*
X78820535Y-116584523D01*
X78915773Y-116536904D01*
X79011011Y-116441666D01*
X79058630Y-116298809D01*
X79058630Y-116060714D01*
X78058630Y-116965476D02*
X78058630Y-117632142D01*
X79058630Y-117203571D01*
X78058630Y-118203571D02*
X78058630Y-118298809D01*
X78106250Y-118394047D01*
X78153869Y-118441666D01*
X78249107Y-118489285D01*
X78439583Y-118536904D01*
X78677678Y-118536904D01*
X78868154Y-118489285D01*
X78963392Y-118441666D01*
X79011011Y-118394047D01*
X79058630Y-118298809D01*
X79058630Y-118203571D01*
X79011011Y-118108333D01*
X78963392Y-118060714D01*
X78868154Y-118013095D01*
X78677678Y-117965476D01*
X78439583Y-117965476D01*
X78249107Y-118013095D01*
X78153869Y-118060714D01*
X78106250Y-118108333D01*
X78058630Y-118203571D01*
X79327678Y-119044047D02*
X79327678Y-119805952D01*
X79708630Y-119425000D02*
X78946726Y-119425000D01*
X150496130Y-116060714D02*
X149496130Y-116060714D01*
X149496130Y-116298809D01*
X149543750Y-116441666D01*
X149638988Y-116536904D01*
X149734226Y-116584523D01*
X149924702Y-116632142D01*
X150067559Y-116632142D01*
X150258035Y-116584523D01*
X150353273Y-116536904D01*
X150448511Y-116441666D01*
X150496130Y-116298809D01*
X150496130Y-116060714D01*
X149496130Y-116965476D02*
X149496130Y-117632142D01*
X150496130Y-117203571D01*
X150496130Y-118536904D02*
X150496130Y-117965476D01*
X150496130Y-118251190D02*
X149496130Y-118251190D01*
X149638988Y-118155952D01*
X149734226Y-118060714D01*
X149781845Y-117965476D01*
X150765178Y-119044047D02*
X150765178Y-119805952D01*
X151146130Y-119425000D02*
X150384226Y-119425000D01*
X119539880Y-97010714D02*
X118539880Y-97010714D01*
X118539880Y-97248809D01*
X118587500Y-97391666D01*
X118682738Y-97486904D01*
X118777976Y-97534523D01*
X118968452Y-97582142D01*
X119111309Y-97582142D01*
X119301785Y-97534523D01*
X119397023Y-97486904D01*
X119492261Y-97391666D01*
X119539880Y-97248809D01*
X119539880Y-97010714D01*
X118539880Y-98486904D02*
X118539880Y-98010714D01*
X119016071Y-97963095D01*
X118968452Y-98010714D01*
X118920833Y-98105952D01*
X118920833Y-98344047D01*
X118968452Y-98439285D01*
X119016071Y-98486904D01*
X119111309Y-98534523D01*
X119349404Y-98534523D01*
X119444642Y-98486904D01*
X119492261Y-98439285D01*
X119539880Y-98344047D01*
X119539880Y-98105952D01*
X119492261Y-98010714D01*
X119444642Y-97963095D01*
X119539880Y-99010714D02*
X119539880Y-99201190D01*
X119492261Y-99296428D01*
X119444642Y-99344047D01*
X119301785Y-99439285D01*
X119111309Y-99486904D01*
X118730357Y-99486904D01*
X118635119Y-99439285D01*
X118587500Y-99391666D01*
X118539880Y-99296428D01*
X118539880Y-99105952D01*
X118587500Y-99010714D01*
X118635119Y-98963095D01*
X118730357Y-98915476D01*
X118968452Y-98915476D01*
X119063690Y-98963095D01*
X119111309Y-99010714D01*
X119158928Y-99105952D01*
X119158928Y-99296428D01*
X119111309Y-99391666D01*
X119063690Y-99439285D01*
X118968452Y-99486904D01*
X119808928Y-99994047D02*
X119808928Y-100755952D01*
X120189880Y-100375000D02*
X119427976Y-100375000D01*
X57627380Y-116060714D02*
X56627380Y-116060714D01*
X56627380Y-116298809D01*
X56675000Y-116441666D01*
X56770238Y-116536904D01*
X56865476Y-116584523D01*
X57055952Y-116632142D01*
X57198809Y-116632142D01*
X57389285Y-116584523D01*
X57484523Y-116536904D01*
X57579761Y-116441666D01*
X57627380Y-116298809D01*
X57627380Y-116060714D01*
X56627380Y-117489285D02*
X56627380Y-117298809D01*
X56675000Y-117203571D01*
X56722619Y-117155952D01*
X56865476Y-117060714D01*
X57055952Y-117013095D01*
X57436904Y-117013095D01*
X57532142Y-117060714D01*
X57579761Y-117108333D01*
X57627380Y-117203571D01*
X57627380Y-117394047D01*
X57579761Y-117489285D01*
X57532142Y-117536904D01*
X57436904Y-117584523D01*
X57198809Y-117584523D01*
X57103571Y-117536904D01*
X57055952Y-117489285D01*
X57008333Y-117394047D01*
X57008333Y-117203571D01*
X57055952Y-117108333D01*
X57103571Y-117060714D01*
X57198809Y-117013095D01*
X57627380Y-118060714D02*
X57627380Y-118251190D01*
X57579761Y-118346428D01*
X57532142Y-118394047D01*
X57389285Y-118489285D01*
X57198809Y-118536904D01*
X56817857Y-118536904D01*
X56722619Y-118489285D01*
X56675000Y-118441666D01*
X56627380Y-118346428D01*
X56627380Y-118155952D01*
X56675000Y-118060714D01*
X56722619Y-118013095D01*
X56817857Y-117965476D01*
X57055952Y-117965476D01*
X57151190Y-118013095D01*
X57198809Y-118060714D01*
X57246428Y-118155952D01*
X57246428Y-118346428D01*
X57198809Y-118441666D01*
X57151190Y-118489285D01*
X57055952Y-118536904D01*
X57896428Y-119044047D02*
X57896428Y-119805952D01*
X58277380Y-119425000D02*
X57515476Y-119425000D01*
X50333333Y-78461904D02*
X50600000Y-78080952D01*
X50790476Y-78461904D02*
X50790476Y-77661904D01*
X50485714Y-77661904D01*
X50409523Y-77700000D01*
X50371428Y-77738095D01*
X50333333Y-77814285D01*
X50333333Y-77928571D01*
X50371428Y-78004761D01*
X50409523Y-78042857D01*
X50485714Y-78080952D01*
X50790476Y-78080952D01*
X49647619Y-77928571D02*
X49647619Y-78461904D01*
X49838095Y-77623809D02*
X50028571Y-78195238D01*
X49533333Y-78195238D01*
X55610714Y-102641666D02*
X55648809Y-102603571D01*
X55686904Y-102489285D01*
X55686904Y-102413095D01*
X55648809Y-102298809D01*
X55572619Y-102222619D01*
X55496428Y-102184523D01*
X55344047Y-102146428D01*
X55229761Y-102146428D01*
X55077380Y-102184523D01*
X55001190Y-102222619D01*
X54925000Y-102298809D01*
X54886904Y-102413095D01*
X54886904Y-102489285D01*
X54925000Y-102603571D01*
X54963095Y-102641666D01*
X54886904Y-103327380D02*
X54886904Y-103175000D01*
X54925000Y-103098809D01*
X54963095Y-103060714D01*
X55077380Y-102984523D01*
X55229761Y-102946428D01*
X55534523Y-102946428D01*
X55610714Y-102984523D01*
X55648809Y-103022619D01*
X55686904Y-103098809D01*
X55686904Y-103251190D01*
X55648809Y-103327380D01*
X55610714Y-103365476D01*
X55534523Y-103403571D01*
X55344047Y-103403571D01*
X55267857Y-103365476D01*
X55229761Y-103327380D01*
X55191666Y-103251190D01*
X55191666Y-103098809D01*
X55229761Y-103022619D01*
X55267857Y-102984523D01*
X55344047Y-102946428D01*
X76677380Y-39860714D02*
X75677380Y-39860714D01*
X75677380Y-40098809D01*
X75725000Y-40241666D01*
X75820238Y-40336904D01*
X75915476Y-40384523D01*
X76105952Y-40432142D01*
X76248809Y-40432142D01*
X76439285Y-40384523D01*
X76534523Y-40336904D01*
X76629761Y-40241666D01*
X76677380Y-40098809D01*
X76677380Y-39860714D01*
X76677380Y-41384523D02*
X76677380Y-40813095D01*
X76677380Y-41098809D02*
X75677380Y-41098809D01*
X75820238Y-41003571D01*
X75915476Y-40908333D01*
X75963095Y-40813095D01*
X75677380Y-41717857D02*
X75677380Y-42384523D01*
X76677380Y-41955952D01*
X76946428Y-42844047D02*
X76946428Y-43605952D01*
X77327380Y-43225000D02*
X76565476Y-43225000D01*
X95727380Y-39860714D02*
X94727380Y-39860714D01*
X94727380Y-40098809D01*
X94775000Y-40241666D01*
X94870238Y-40336904D01*
X94965476Y-40384523D01*
X95155952Y-40432142D01*
X95298809Y-40432142D01*
X95489285Y-40384523D01*
X95584523Y-40336904D01*
X95679761Y-40241666D01*
X95727380Y-40098809D01*
X95727380Y-39860714D01*
X95727380Y-41384523D02*
X95727380Y-40813095D01*
X95727380Y-41098809D02*
X94727380Y-41098809D01*
X94870238Y-41003571D01*
X94965476Y-40908333D01*
X95013095Y-40813095D01*
X95155952Y-41955952D02*
X95108333Y-41860714D01*
X95060714Y-41813095D01*
X94965476Y-41765476D01*
X94917857Y-41765476D01*
X94822619Y-41813095D01*
X94775000Y-41860714D01*
X94727380Y-41955952D01*
X94727380Y-42146428D01*
X94775000Y-42241666D01*
X94822619Y-42289285D01*
X94917857Y-42336904D01*
X94965476Y-42336904D01*
X95060714Y-42289285D01*
X95108333Y-42241666D01*
X95155952Y-42146428D01*
X95155952Y-41955952D01*
X95203571Y-41860714D01*
X95251190Y-41813095D01*
X95346428Y-41765476D01*
X95536904Y-41765476D01*
X95632142Y-41813095D01*
X95679761Y-41860714D01*
X95727380Y-41955952D01*
X95727380Y-42146428D01*
X95679761Y-42241666D01*
X95632142Y-42289285D01*
X95536904Y-42336904D01*
X95346428Y-42336904D01*
X95251190Y-42289285D01*
X95203571Y-42241666D01*
X95155952Y-42146428D01*
X95996428Y-42844047D02*
X95996428Y-43605952D01*
X96377380Y-43225000D02*
X95615476Y-43225000D01*
X219552380Y-58910714D02*
X218552380Y-58910714D01*
X218552380Y-59148809D01*
X218600000Y-59291666D01*
X218695238Y-59386904D01*
X218790476Y-59434523D01*
X218980952Y-59482142D01*
X219123809Y-59482142D01*
X219314285Y-59434523D01*
X219409523Y-59386904D01*
X219504761Y-59291666D01*
X219552380Y-59148809D01*
X219552380Y-58910714D01*
X218552380Y-59815476D02*
X218552380Y-60434523D01*
X218933333Y-60101190D01*
X218933333Y-60244047D01*
X218980952Y-60339285D01*
X219028571Y-60386904D01*
X219123809Y-60434523D01*
X219361904Y-60434523D01*
X219457142Y-60386904D01*
X219504761Y-60339285D01*
X219552380Y-60244047D01*
X219552380Y-59958333D01*
X219504761Y-59863095D01*
X219457142Y-59815476D01*
X218980952Y-61005952D02*
X218933333Y-60910714D01*
X218885714Y-60863095D01*
X218790476Y-60815476D01*
X218742857Y-60815476D01*
X218647619Y-60863095D01*
X218600000Y-60910714D01*
X218552380Y-61005952D01*
X218552380Y-61196428D01*
X218600000Y-61291666D01*
X218647619Y-61339285D01*
X218742857Y-61386904D01*
X218790476Y-61386904D01*
X218885714Y-61339285D01*
X218933333Y-61291666D01*
X218980952Y-61196428D01*
X218980952Y-61005952D01*
X219028571Y-60910714D01*
X219076190Y-60863095D01*
X219171428Y-60815476D01*
X219361904Y-60815476D01*
X219457142Y-60863095D01*
X219504761Y-60910714D01*
X219552380Y-61005952D01*
X219552380Y-61196428D01*
X219504761Y-61291666D01*
X219457142Y-61339285D01*
X219361904Y-61386904D01*
X219171428Y-61386904D01*
X219076190Y-61339285D01*
X219028571Y-61291666D01*
X218980952Y-61196428D01*
X219821428Y-61894047D02*
X219821428Y-62655952D01*
X220202380Y-62275000D02*
X219440476Y-62275000D01*
X294739285Y-130127380D02*
X294739285Y-129127380D01*
X294501190Y-129127380D01*
X294358333Y-129175000D01*
X294263095Y-129270238D01*
X294215476Y-129365476D01*
X294167857Y-129555952D01*
X294167857Y-129698809D01*
X294215476Y-129889285D01*
X294263095Y-129984523D01*
X294358333Y-130079761D01*
X294501190Y-130127380D01*
X294739285Y-130127380D01*
X293834523Y-129127380D02*
X293167857Y-129127380D01*
X293596428Y-130127380D01*
X292310714Y-129127380D02*
X292786904Y-129127380D01*
X292834523Y-129603571D01*
X292786904Y-129555952D01*
X292691666Y-129508333D01*
X292453571Y-129508333D01*
X292358333Y-129555952D01*
X292310714Y-129603571D01*
X292263095Y-129698809D01*
X292263095Y-129936904D01*
X292310714Y-130032142D01*
X292358333Y-130079761D01*
X292453571Y-130127380D01*
X292691666Y-130127380D01*
X292786904Y-130079761D01*
X292834523Y-130032142D01*
X291730952Y-126121428D02*
X290969047Y-126121428D01*
X291350000Y-126502380D02*
X291350000Y-125740476D01*
X33352380Y-92885714D02*
X32352380Y-92885714D01*
X32352380Y-93123809D01*
X32400000Y-93266666D01*
X32495238Y-93361904D01*
X32590476Y-93409523D01*
X32780952Y-93457142D01*
X32923809Y-93457142D01*
X33114285Y-93409523D01*
X33209523Y-93361904D01*
X33304761Y-93266666D01*
X33352380Y-93123809D01*
X33352380Y-92885714D01*
X32352380Y-94361904D02*
X32352380Y-93885714D01*
X32828571Y-93838095D01*
X32780952Y-93885714D01*
X32733333Y-93980952D01*
X32733333Y-94219047D01*
X32780952Y-94314285D01*
X32828571Y-94361904D01*
X32923809Y-94409523D01*
X33161904Y-94409523D01*
X33257142Y-94361904D01*
X33304761Y-94314285D01*
X33352380Y-94219047D01*
X33352380Y-93980952D01*
X33304761Y-93885714D01*
X33257142Y-93838095D01*
X32352380Y-95314285D02*
X32352380Y-94838095D01*
X32828571Y-94790476D01*
X32780952Y-94838095D01*
X32733333Y-94933333D01*
X32733333Y-95171428D01*
X32780952Y-95266666D01*
X32828571Y-95314285D01*
X32923809Y-95361904D01*
X33161904Y-95361904D01*
X33257142Y-95314285D01*
X33304761Y-95266666D01*
X33352380Y-95171428D01*
X33352380Y-94933333D01*
X33304761Y-94838095D01*
X33257142Y-94790476D01*
X31702678Y-99994047D02*
X31702678Y-100755952D01*
X32083630Y-100375000D02*
X31321726Y-100375000D01*
X186214880Y-77960714D02*
X185214880Y-77960714D01*
X185214880Y-78198809D01*
X185262500Y-78341666D01*
X185357738Y-78436904D01*
X185452976Y-78484523D01*
X185643452Y-78532142D01*
X185786309Y-78532142D01*
X185976785Y-78484523D01*
X186072023Y-78436904D01*
X186167261Y-78341666D01*
X186214880Y-78198809D01*
X186214880Y-77960714D01*
X185214880Y-79436904D02*
X185214880Y-78960714D01*
X185691071Y-78913095D01*
X185643452Y-78960714D01*
X185595833Y-79055952D01*
X185595833Y-79294047D01*
X185643452Y-79389285D01*
X185691071Y-79436904D01*
X185786309Y-79484523D01*
X186024404Y-79484523D01*
X186119642Y-79436904D01*
X186167261Y-79389285D01*
X186214880Y-79294047D01*
X186214880Y-79055952D01*
X186167261Y-78960714D01*
X186119642Y-78913095D01*
X185214880Y-80103571D02*
X185214880Y-80198809D01*
X185262500Y-80294047D01*
X185310119Y-80341666D01*
X185405357Y-80389285D01*
X185595833Y-80436904D01*
X185833928Y-80436904D01*
X186024404Y-80389285D01*
X186119642Y-80341666D01*
X186167261Y-80294047D01*
X186214880Y-80198809D01*
X186214880Y-80103571D01*
X186167261Y-80008333D01*
X186119642Y-79960714D01*
X186024404Y-79913095D01*
X185833928Y-79865476D01*
X185595833Y-79865476D01*
X185405357Y-79913095D01*
X185310119Y-79960714D01*
X185262500Y-80008333D01*
X185214880Y-80103571D01*
X186483928Y-80944047D02*
X186483928Y-81705952D01*
X186864880Y-81325000D02*
X186102976Y-81325000D01*
X45161904Y-78466666D02*
X44780952Y-78200000D01*
X45161904Y-78009523D02*
X44361904Y-78009523D01*
X44361904Y-78314285D01*
X44400000Y-78390476D01*
X44438095Y-78428571D01*
X44514285Y-78466666D01*
X44628571Y-78466666D01*
X44704761Y-78428571D01*
X44742857Y-78390476D01*
X44780952Y-78314285D01*
X44780952Y-78009523D01*
X44438095Y-78771428D02*
X44400000Y-78809523D01*
X44361904Y-78885714D01*
X44361904Y-79076190D01*
X44400000Y-79152380D01*
X44438095Y-79190476D01*
X44514285Y-79228571D01*
X44590476Y-79228571D01*
X44704761Y-79190476D01*
X45161904Y-78733333D01*
X45161904Y-79228571D01*
D12*
X224862500Y-76925000D02*
X224862500Y-80825000D01*
X224862500Y-76925000D02*
X226862500Y-76925000D01*
X226862500Y-76925000D02*
X226862500Y-80825000D01*
X201050000Y-57875000D02*
X203050000Y-57875000D01*
X201050000Y-57875000D02*
X201050000Y-61775000D01*
X203050000Y-57875000D02*
X203050000Y-61775000D01*
X42882836Y-86285000D02*
X42667164Y-86285000D01*
X42882836Y-85565000D02*
X42667164Y-85565000D01*
X129612500Y-76925000D02*
X131612500Y-76925000D01*
X129612500Y-76925000D02*
X129612500Y-80825000D01*
X131612500Y-76925000D02*
X131612500Y-80825000D01*
X45610000Y-84640580D02*
X45610000Y-84359420D01*
X44590000Y-84640580D02*
X44590000Y-84359420D01*
X60750000Y-57000000D02*
X64650000Y-57000000D01*
X60750000Y-55000000D02*
X64650000Y-55000000D01*
X60750000Y-57000000D02*
X60750000Y-55000000D01*
X238750000Y-33200000D02*
X234850000Y-33200000D01*
X238750000Y-31200000D02*
X238750000Y-33200000D01*
X238750000Y-31200000D02*
X234850000Y-31200000D01*
X172050000Y-31200000D02*
X172050000Y-33200000D01*
X172050000Y-33200000D02*
X168150000Y-33200000D01*
X172050000Y-31200000D02*
X168150000Y-31200000D01*
X29350000Y-31200000D02*
X25450000Y-31200000D01*
X29350000Y-33200000D02*
X25450000Y-33200000D01*
X29350000Y-31200000D02*
X29350000Y-33200000D01*
X69700000Y-57875000D02*
X69700000Y-61775000D01*
X67700000Y-57875000D02*
X67700000Y-61775000D01*
X67700000Y-57875000D02*
X69700000Y-57875000D01*
X41840580Y-83290000D02*
X41559420Y-83290000D01*
X41840580Y-84310000D02*
X41559420Y-84310000D01*
X110562500Y-76925000D02*
X112562500Y-76925000D01*
X112562500Y-76925000D02*
X112562500Y-80825000D01*
X110562500Y-76925000D02*
X110562500Y-80825000D01*
X88750000Y-57875000D02*
X88750000Y-61775000D01*
X86750000Y-57875000D02*
X88750000Y-57875000D01*
X86750000Y-57875000D02*
X86750000Y-61775000D01*
X276950000Y-33200000D02*
X273050000Y-33200000D01*
X276950000Y-31200000D02*
X273050000Y-31200000D01*
X276950000Y-31200000D02*
X276950000Y-33200000D01*
X25360000Y-96492164D02*
X25360000Y-96707836D01*
X24640000Y-96492164D02*
X24640000Y-96707836D01*
X105800000Y-57875000D02*
X105800000Y-61775000D01*
X105800000Y-57875000D02*
X107800000Y-57875000D01*
X107800000Y-57875000D02*
X107800000Y-61775000D01*
X257750000Y-31200000D02*
X253850000Y-31200000D01*
X257750000Y-31200000D02*
X257750000Y-33200000D01*
X257750000Y-33200000D02*
X253850000Y-33200000D01*
X134375000Y-38825000D02*
X136375000Y-38825000D01*
X136375000Y-38825000D02*
X136375000Y-42725000D01*
X134375000Y-38825000D02*
X134375000Y-42725000D01*
X58775000Y-92740000D02*
X58125000Y-92740000D01*
X58775000Y-92740000D02*
X59425000Y-92740000D01*
X58775000Y-95860000D02*
X59425000Y-95860000D01*
X58775000Y-95860000D02*
X57100000Y-95860000D01*
X61152500Y-92325378D02*
X61152500Y-93124622D01*
X62272500Y-92325378D02*
X62272500Y-93124622D01*
X210150000Y-31200000D02*
X210150000Y-33200000D01*
X210150000Y-31200000D02*
X206250000Y-31200000D01*
X210150000Y-33200000D02*
X206250000Y-33200000D01*
X167712500Y-76925000D02*
X167712500Y-80825000D01*
X169712500Y-76925000D02*
X169712500Y-80825000D01*
X167712500Y-76925000D02*
X169712500Y-76925000D01*
X148662500Y-76925000D02*
X148662500Y-80825000D01*
X150662500Y-76925000D02*
X150662500Y-80825000D01*
X148662500Y-76925000D02*
X150662500Y-76925000D01*
X46750000Y-30900000D02*
X50650000Y-30900000D01*
X46750000Y-28900000D02*
X50650000Y-28900000D01*
X46750000Y-30900000D02*
X46750000Y-28900000D01*
X105250000Y-31200000D02*
X105250000Y-33200000D01*
X105250000Y-31200000D02*
X101350000Y-31200000D01*
X105250000Y-33200000D02*
X101350000Y-33200000D01*
X269725000Y-95975000D02*
X269725000Y-99875000D01*
X267725000Y-95975000D02*
X267725000Y-99875000D01*
X267725000Y-95975000D02*
X269725000Y-95975000D01*
X45727500Y-81287258D02*
X45727500Y-80812742D01*
X46772500Y-81287258D02*
X46772500Y-80812742D01*
X26122500Y-94437258D02*
X26122500Y-93962742D01*
X25077500Y-94437258D02*
X25077500Y-93962742D01*
X124350000Y-33200000D02*
X120450000Y-33200000D01*
X124350000Y-31200000D02*
X120450000Y-31200000D01*
X124350000Y-31200000D02*
X124350000Y-33200000D01*
X58147500Y-91212258D02*
X58147500Y-90737742D01*
X57102500Y-91212258D02*
X57102500Y-90737742D01*
D13*
X49713753Y-19727697D02*
X49713753Y-21591324D01*
X49713753Y-16009663D02*
X49713753Y-17491324D01*
X40773747Y-16009663D02*
X40773747Y-17490969D01*
X40773747Y-19728053D02*
X40773747Y-21590969D01*
X49713753Y-16009663D02*
X40773747Y-16009663D01*
D14*
X40797700Y-23859879D02*
G75*
G03*
X40797700Y-23859879I-29998J0D01*
G01*
D12*
X59225000Y-76500000D02*
X59225000Y-78500000D01*
X59225000Y-78500000D02*
X55325000Y-78500000D01*
X59225000Y-76500000D02*
X55325000Y-76500000D01*
X172475000Y-38825000D02*
X174475000Y-38825000D01*
X174475000Y-38825000D02*
X174475000Y-42725000D01*
X172475000Y-38825000D02*
X172475000Y-42725000D01*
X57550000Y-87540000D02*
X60235000Y-87540000D01*
X60235000Y-87540000D02*
X60235000Y-89460000D01*
X60235000Y-89460000D02*
X57550000Y-89460000D01*
X86350000Y-31200000D02*
X82450000Y-31200000D01*
X86350000Y-31200000D02*
X86350000Y-33200000D01*
X86350000Y-33200000D02*
X82450000Y-33200000D01*
X191150000Y-31200000D02*
X191150000Y-33200000D01*
X191150000Y-31200000D02*
X187250000Y-31200000D01*
X191150000Y-33200000D02*
X187250000Y-33200000D01*
X295950000Y-31200000D02*
X292050000Y-31200000D01*
X295950000Y-31200000D02*
X295950000Y-33200000D01*
X295950000Y-33200000D02*
X292050000Y-33200000D01*
D13*
X25575076Y-104324898D02*
X25575076Y-106024162D01*
X29275864Y-104225838D02*
X28374162Y-103324136D01*
X29275864Y-106125762D02*
X29275864Y-104225838D01*
X25819907Y-107295155D02*
X24924835Y-106400083D01*
X30025165Y-106400083D02*
X29130093Y-107295155D01*
X30025165Y-106400083D02*
X30025165Y-103849917D01*
X24924835Y-106400083D02*
X24924835Y-103849917D01*
X28475762Y-106925864D02*
X29275864Y-106125762D01*
X28643402Y-102574835D02*
X26306598Y-102574835D01*
X30025165Y-103849917D02*
X29130093Y-102954845D01*
X26575838Y-103324136D02*
X25575076Y-104324898D01*
X28374162Y-103324136D02*
X26575838Y-103324136D01*
X26476778Y-106925864D02*
X28475762Y-106925864D01*
X28643402Y-107675165D02*
X26306598Y-107675165D01*
X25575076Y-106024162D02*
X26476778Y-106925864D01*
X25819907Y-102954845D02*
X24924835Y-103849917D01*
X28750083Y-105125000D02*
G75*
G03*
X28750083Y-105125000I-1275083J0D01*
G01*
D14*
X30054985Y-108375013D02*
G75*
G03*
X30054985Y-108375013I-29998J0D01*
G01*
D12*
X50650000Y-57875000D02*
X50650000Y-61775000D01*
X48650000Y-57875000D02*
X48650000Y-61775000D01*
X48650000Y-57875000D02*
X50650000Y-57875000D01*
X93512500Y-76925000D02*
X93512500Y-80825000D01*
X91512500Y-76925000D02*
X93512500Y-76925000D01*
X91512500Y-76925000D02*
X91512500Y-80825000D01*
X274868750Y-76925000D02*
X276868750Y-76925000D01*
X274868750Y-76925000D02*
X274868750Y-80825000D01*
X276868750Y-76925000D02*
X276868750Y-80825000D01*
X267725000Y-115025000D02*
X267725000Y-118925000D01*
X267725000Y-115025000D02*
X269725000Y-115025000D01*
X269725000Y-115025000D02*
X269725000Y-118925000D01*
X205812500Y-76925000D02*
X205812500Y-80825000D01*
X207812500Y-76925000D02*
X207812500Y-80825000D01*
X205812500Y-76925000D02*
X207812500Y-76925000D01*
X196287500Y-95975000D02*
X196287500Y-99875000D01*
X196287500Y-95975000D02*
X198287500Y-95975000D01*
X198287500Y-95975000D02*
X198287500Y-99875000D01*
X81987500Y-95975000D02*
X83987500Y-95975000D01*
X83987500Y-95975000D02*
X83987500Y-99875000D01*
X81987500Y-95975000D02*
X81987500Y-99875000D01*
X52987164Y-91445000D02*
X53202836Y-91445000D01*
X52987164Y-92165000D02*
X53202836Y-92165000D01*
X47202500Y-102412258D02*
X47202500Y-101937742D01*
X48247500Y-102412258D02*
X48247500Y-101937742D01*
X62937500Y-95975000D02*
X62937500Y-99875000D01*
X64937500Y-95975000D02*
X64937500Y-99875000D01*
X62937500Y-95975000D02*
X64937500Y-95975000D01*
X229625000Y-38825000D02*
X231625000Y-38825000D01*
X231625000Y-38825000D02*
X231625000Y-42725000D01*
X229625000Y-38825000D02*
X229625000Y-42725000D01*
X47735000Y-97197164D02*
X47735000Y-97412836D01*
X47015000Y-97197164D02*
X47015000Y-97412836D01*
X22075000Y-38825000D02*
X22075000Y-42725000D01*
X20075000Y-38825000D02*
X22075000Y-38825000D01*
X20075000Y-38825000D02*
X20075000Y-42725000D01*
X52459420Y-79090000D02*
X52740580Y-79090000D01*
X52459420Y-80110000D02*
X52740580Y-80110000D01*
X162950000Y-57875000D02*
X162950000Y-61775000D01*
X162950000Y-57875000D02*
X164950000Y-57875000D01*
X164950000Y-57875000D02*
X164950000Y-61775000D01*
X222481250Y-115025000D02*
X222481250Y-118925000D01*
X222481250Y-115025000D02*
X224481250Y-115025000D01*
X224481250Y-115025000D02*
X224481250Y-118925000D01*
X53900000Y-33900000D02*
X53900000Y-35900000D01*
X53900000Y-33900000D02*
X50000000Y-33900000D01*
X53900000Y-35900000D02*
X50000000Y-35900000D01*
X52837258Y-77122500D02*
X52362742Y-77122500D01*
X52837258Y-76077500D02*
X52362742Y-76077500D01*
X48250000Y-126300000D02*
X44350000Y-126300000D01*
X48250000Y-126300000D02*
X48250000Y-128300000D01*
X48250000Y-128300000D02*
X44350000Y-128300000D01*
X46877500Y-26662742D02*
X46877500Y-27137258D01*
X47922500Y-26662742D02*
X47922500Y-27137258D01*
X177237500Y-95975000D02*
X179237500Y-95975000D01*
X179237500Y-95975000D02*
X179237500Y-99875000D01*
X177237500Y-95975000D02*
X177237500Y-99875000D01*
X141137500Y-95975000D02*
X141137500Y-99875000D01*
X139137500Y-95975000D02*
X139137500Y-99875000D01*
X139137500Y-95975000D02*
X141137500Y-95975000D01*
X52492164Y-80540000D02*
X52707836Y-80540000D01*
X52492164Y-81260000D02*
X52707836Y-81260000D01*
X239150000Y-57875000D02*
X241150000Y-57875000D01*
X239150000Y-57875000D02*
X239150000Y-61775000D01*
X241150000Y-57875000D02*
X241150000Y-61775000D01*
X43440000Y-84607836D02*
X43440000Y-84392164D01*
X44160000Y-84607836D02*
X44160000Y-84392164D01*
X215337500Y-95975000D02*
X217337500Y-95975000D01*
X215337500Y-95975000D02*
X215337500Y-99875000D01*
X217337500Y-95975000D02*
X217337500Y-99875000D01*
X115325000Y-38825000D02*
X117325000Y-38825000D01*
X115325000Y-38825000D02*
X115325000Y-42725000D01*
X117325000Y-38825000D02*
X117325000Y-42725000D01*
X58175000Y-38825000D02*
X60175000Y-38825000D01*
X58175000Y-38825000D02*
X58175000Y-42725000D01*
X60175000Y-38825000D02*
X60175000Y-42725000D01*
X210575000Y-38825000D02*
X210575000Y-42725000D01*
X210575000Y-38825000D02*
X212575000Y-38825000D01*
X212575000Y-38825000D02*
X212575000Y-42725000D01*
X40837258Y-27122500D02*
X40362742Y-27122500D01*
X40837258Y-26077500D02*
X40362742Y-26077500D01*
X59540000Y-91107836D02*
X59540000Y-90892164D01*
X60260000Y-91107836D02*
X60260000Y-90892164D01*
X234387500Y-95975000D02*
X236387500Y-95975000D01*
X234387500Y-95975000D02*
X234387500Y-99875000D01*
X236387500Y-95975000D02*
X236387500Y-99875000D01*
X282012500Y-57875000D02*
X284012500Y-57875000D01*
X284012500Y-57875000D02*
X284012500Y-61775000D01*
X282012500Y-57875000D02*
X282012500Y-61775000D01*
X155425000Y-38825000D02*
X155425000Y-42725000D01*
X153425000Y-38825000D02*
X155425000Y-38825000D01*
X153425000Y-38825000D02*
X153425000Y-42725000D01*
X58540000Y-91107836D02*
X58540000Y-90892164D01*
X59260000Y-91107836D02*
X59260000Y-90892164D01*
X72462500Y-76925000D02*
X74462500Y-76925000D01*
X72462500Y-76925000D02*
X72462500Y-80825000D01*
X74462500Y-76925000D02*
X74462500Y-80825000D01*
X143900000Y-57875000D02*
X143900000Y-61775000D01*
X145900000Y-57875000D02*
X145900000Y-61775000D01*
X143900000Y-57875000D02*
X145900000Y-57875000D01*
X277250000Y-38825000D02*
X279250000Y-38825000D01*
X279250000Y-38825000D02*
X279250000Y-42725000D01*
X277250000Y-38825000D02*
X277250000Y-42725000D01*
X191525000Y-38825000D02*
X191525000Y-42725000D01*
X191525000Y-38825000D02*
X193525000Y-38825000D01*
X193525000Y-38825000D02*
X193525000Y-42725000D01*
X48335000Y-83632836D02*
X48335000Y-83417164D01*
X47615000Y-83632836D02*
X47615000Y-83417164D01*
X50184420Y-106085000D02*
X50465580Y-106085000D01*
X50184420Y-105065000D02*
X50465580Y-105065000D01*
X42882836Y-86565000D02*
X42667164Y-86565000D01*
X42882836Y-87285000D02*
X42667164Y-87285000D01*
D13*
X51449987Y-21294056D02*
X57550013Y-21294056D01*
X51449987Y-19202489D02*
X57550013Y-19202489D01*
X57550013Y-33597511D02*
X57121260Y-33597511D01*
X51449987Y-19202489D02*
X51449987Y-23570790D01*
X51449987Y-28234188D02*
X51449987Y-30570790D01*
X57550013Y-19202489D02*
X57550013Y-31570815D01*
X51449987Y-25234188D02*
X51449987Y-26570790D01*
X57550013Y-33234214D02*
X57550013Y-33597511D01*
X56678740Y-33597511D02*
X51451994Y-33597511D01*
X51449987Y-32234188D02*
X51449987Y-33470511D01*
D14*
X51479934Y-19202591D02*
G75*
G03*
X51479934Y-19202591I-29972J0D01*
G01*
D12*
X41632836Y-92415000D02*
X41417164Y-92415000D01*
X41632836Y-91695000D02*
X41417164Y-91695000D01*
X46735000Y-97197164D02*
X46735000Y-97412836D01*
X46015000Y-97197164D02*
X46015000Y-97412836D01*
X24837500Y-57875000D02*
X26837500Y-57875000D01*
X24837500Y-57875000D02*
X24837500Y-61775000D01*
X26837500Y-57875000D02*
X26837500Y-61775000D01*
X67050000Y-33200000D02*
X63150000Y-33200000D01*
X67050000Y-31200000D02*
X67050000Y-33200000D01*
X67050000Y-31200000D02*
X63150000Y-31200000D01*
X29218750Y-76925000D02*
X29218750Y-80825000D01*
X27218750Y-76925000D02*
X27218750Y-80825000D01*
X27218750Y-76925000D02*
X29218750Y-76925000D01*
D15*
X52376238Y-82011380D02*
X52376238Y-85163754D01*
X50223762Y-85163754D02*
X50223762Y-82011380D01*
D16*
X52162166Y-85619711D02*
G75*
G03*
X52162166Y-85619711I-100076J0D01*
G01*
D12*
X52935000Y-87652836D02*
X52935000Y-87437164D01*
X52215000Y-87652836D02*
X52215000Y-87437164D01*
X248675000Y-115025000D02*
X250675000Y-115025000D01*
X250675000Y-115025000D02*
X250675000Y-118925000D01*
X248675000Y-115025000D02*
X248675000Y-118925000D01*
X153050000Y-33200000D02*
X149150000Y-33200000D01*
X153050000Y-31200000D02*
X153050000Y-33200000D01*
X153050000Y-31200000D02*
X149150000Y-31200000D01*
X243912500Y-76925000D02*
X245912500Y-76925000D01*
X245912500Y-76925000D02*
X245912500Y-80825000D01*
X243912500Y-76925000D02*
X243912500Y-80825000D01*
X260200000Y-57875000D02*
X260200000Y-61775000D01*
X258200000Y-57875000D02*
X258200000Y-61775000D01*
X258200000Y-57875000D02*
X260200000Y-57875000D01*
X49141422Y-32710000D02*
X49658578Y-32710000D01*
X49141422Y-31290000D02*
X49658578Y-31290000D01*
X47405000Y-83632836D02*
X47405000Y-83417164D01*
X46685000Y-83632836D02*
X46685000Y-83417164D01*
X250675000Y-38825000D02*
X250675000Y-42725000D01*
X248675000Y-38825000D02*
X248675000Y-42725000D01*
X248675000Y-38825000D02*
X250675000Y-38825000D01*
X20075000Y-115025000D02*
X20075000Y-118925000D01*
X22075000Y-115025000D02*
X22075000Y-118925000D01*
X20075000Y-115025000D02*
X22075000Y-115025000D01*
X126850000Y-57875000D02*
X126850000Y-61775000D01*
X124850000Y-57875000D02*
X126850000Y-57875000D01*
X124850000Y-57875000D02*
X124850000Y-61775000D01*
X48550000Y-100600000D02*
X51850000Y-100600000D01*
X51850000Y-100600000D02*
X51850000Y-104600000D01*
X158187500Y-95975000D02*
X160187500Y-95975000D01*
X160187500Y-95975000D02*
X160187500Y-99875000D01*
X158187500Y-95975000D02*
X158187500Y-99875000D01*
X103037500Y-95975000D02*
X103037500Y-99875000D01*
X101037500Y-95975000D02*
X101037500Y-99875000D01*
X101037500Y-95975000D02*
X103037500Y-95975000D01*
X184000000Y-57875000D02*
X184000000Y-61775000D01*
X182000000Y-57875000D02*
X184000000Y-57875000D01*
X182000000Y-57875000D02*
X182000000Y-61775000D01*
X81606250Y-115025000D02*
X81606250Y-118925000D01*
X79606250Y-115025000D02*
X79606250Y-118925000D01*
X79606250Y-115025000D02*
X81606250Y-115025000D01*
D13*
X43875076Y-94324924D02*
X44443910Y-94324924D01*
X50875076Y-87893809D02*
X50875076Y-87324975D01*
X50875076Y-87893809D02*
X50306191Y-87324975D01*
X44443910Y-87324975D02*
X43875076Y-87324975D01*
X50615996Y-87324975D02*
X50615996Y-87421825D01*
X50875076Y-94324924D02*
X50875076Y-93756090D01*
X43875076Y-93756090D02*
X43875076Y-94324924D01*
X50775051Y-94324924D02*
X50875076Y-94324924D01*
X43875076Y-87324975D02*
X43875076Y-87893809D01*
X50615996Y-87421825D02*
X50875076Y-87680906D01*
X50875076Y-87324975D02*
X50306191Y-87324975D01*
X50306191Y-94324924D02*
X50775051Y-94324924D01*
X51502000Y-87124848D02*
G75*
G03*
X51502000Y-87124848I-127000J0D01*
G01*
D14*
X50905099Y-87325000D02*
G75*
G03*
X50905099Y-87325000I-29972J0D01*
G01*
D12*
X153043750Y-115025000D02*
X153043750Y-118925000D01*
X151043750Y-115025000D02*
X153043750Y-115025000D01*
X151043750Y-115025000D02*
X151043750Y-118925000D01*
X120087500Y-95975000D02*
X120087500Y-99875000D01*
X120087500Y-95975000D02*
X122087500Y-95975000D01*
X122087500Y-95975000D02*
X122087500Y-99875000D01*
D13*
X53624917Y-70449835D02*
X52729845Y-71344907D01*
X56175083Y-75550165D02*
X53624917Y-75550165D01*
X56700864Y-71999238D02*
X55900762Y-71199136D01*
X56175083Y-70449835D02*
X53624917Y-70449835D01*
X57450165Y-71831598D02*
X57450165Y-74168402D01*
X57070155Y-74655093D02*
X56175083Y-75550165D01*
X54099898Y-74899924D02*
X55799162Y-74899924D01*
X54000838Y-71199136D02*
X53099136Y-72100838D01*
X53099136Y-73899162D02*
X54099898Y-74899924D01*
X52349835Y-71831598D02*
X52349835Y-74168402D01*
X52729845Y-74655093D02*
X53624917Y-75550165D01*
X56175083Y-70449835D02*
X57070155Y-71344907D01*
X55900762Y-71199136D02*
X54000838Y-71199136D01*
X55799162Y-74899924D02*
X56700864Y-73998222D01*
X53099136Y-72100838D02*
X53099136Y-73899162D01*
X56700864Y-73998222D02*
X56700864Y-71999238D01*
X56175083Y-73000000D02*
G75*
G03*
X56175083Y-73000000I-1275083J0D01*
G01*
D14*
X58180011Y-70450013D02*
G75*
G03*
X58180011Y-70450013I-29998J0D01*
G01*
D12*
X60175000Y-115025000D02*
X60175000Y-118925000D01*
X58175000Y-115025000D02*
X60175000Y-115025000D01*
X58175000Y-115025000D02*
X58175000Y-118925000D01*
X52362742Y-78622500D02*
X52837258Y-78622500D01*
X52362742Y-77577500D02*
X52837258Y-77577500D01*
X53235000Y-102634420D02*
X53235000Y-102915580D01*
X52215000Y-102634420D02*
X52215000Y-102915580D01*
X77225000Y-38825000D02*
X77225000Y-42725000D01*
X77225000Y-38825000D02*
X79225000Y-38825000D01*
X79225000Y-38825000D02*
X79225000Y-42725000D01*
X96275000Y-38825000D02*
X96275000Y-42725000D01*
X96275000Y-38825000D02*
X98275000Y-38825000D01*
X98275000Y-38825000D02*
X98275000Y-42725000D01*
X220100000Y-57875000D02*
X222100000Y-57875000D01*
X220100000Y-57875000D02*
X220100000Y-61775000D01*
X222100000Y-57875000D02*
X222100000Y-61775000D01*
X295750000Y-126400000D02*
X295750000Y-128400000D01*
X295750000Y-128400000D02*
X291850000Y-128400000D01*
X295750000Y-126400000D02*
X291850000Y-126400000D01*
X31981250Y-95975000D02*
X33981250Y-95975000D01*
X31981250Y-95975000D02*
X31981250Y-99875000D01*
X33981250Y-95975000D02*
X33981250Y-99875000D01*
X186762500Y-76925000D02*
X188762500Y-76925000D01*
X188762500Y-76925000D02*
X188762500Y-80825000D01*
X186762500Y-76925000D02*
X186762500Y-80825000D01*
X45172500Y-81287258D02*
X45172500Y-80812742D01*
X44127500Y-81287258D02*
X44127500Y-80812742D01*
%LPC*%
D17*
X42545000Y-123825000D03*
D18*
X47625000Y-123825000D03*
D17*
X52705000Y-123825000D03*
D19*
X43815000Y-121285000D03*
X50165000Y-118745000D03*
D17*
X154463750Y-123825000D03*
X164623750Y-123825000D03*
D18*
X159543750Y-123825000D03*
D19*
X155733750Y-121285000D03*
X162083750Y-118745000D03*
D17*
X128905000Y-47625000D03*
D18*
X123825000Y-47625000D03*
D17*
X118745000Y-47625000D03*
D19*
X120015000Y-45085000D03*
X126365000Y-42545000D03*
D18*
X166687500Y-104775000D03*
D17*
X171767500Y-104775000D03*
X161607500Y-104775000D03*
D19*
X162877500Y-102235000D03*
X169227500Y-99695000D03*
D17*
X252095000Y-123825000D03*
D18*
X257175000Y-123825000D03*
D17*
X262255000Y-123825000D03*
D19*
X253365000Y-121285000D03*
X259715000Y-118745000D03*
D20*
X285700000Y-37300000D03*
X38100000Y-115500000D03*
D17*
X109855000Y-28575000D03*
X99695000Y-28575000D03*
D18*
X104775000Y-28575000D03*
D19*
X100965000Y-26035000D03*
X107315000Y-23495000D03*
D21*
X52419250Y-97790000D03*
X28543250Y-97790000D03*
D22*
X52419250Y-113000000D03*
X28543250Y-113000000D03*
D17*
X71755000Y-47625000D03*
X61595000Y-47625000D03*
D18*
X66675000Y-47625000D03*
D19*
X62865000Y-45085000D03*
X69215000Y-42545000D03*
D23*
X38100000Y-30300000D03*
D21*
X271430750Y-78740000D03*
X295306750Y-78740000D03*
D22*
X295306750Y-93950000D03*
X271430750Y-93950000D03*
D17*
X281305000Y-123825000D03*
D18*
X276225000Y-123825000D03*
D17*
X271145000Y-123825000D03*
D19*
X272415000Y-121285000D03*
X278765000Y-118745000D03*
D18*
X152400000Y-28575000D03*
D17*
X157480000Y-28575000D03*
X147320000Y-28575000D03*
D19*
X148590000Y-26035000D03*
X154940000Y-23495000D03*
D17*
X218757500Y-104775000D03*
D18*
X223837500Y-104775000D03*
D17*
X228917500Y-104775000D03*
D19*
X220027500Y-102235000D03*
X226377500Y-99695000D03*
D17*
X109220000Y-66675000D03*
D18*
X114300000Y-66675000D03*
D17*
X119380000Y-66675000D03*
D19*
X110490000Y-64135000D03*
X116840000Y-61595000D03*
D17*
X237807500Y-104775000D03*
D18*
X242887500Y-104775000D03*
D17*
X247967500Y-104775000D03*
D19*
X239077500Y-102235000D03*
X245427500Y-99695000D03*
D17*
X90170000Y-66675000D03*
D18*
X95250000Y-66675000D03*
D17*
X100330000Y-66675000D03*
D19*
X91440000Y-64135000D03*
X97790000Y-61595000D03*
D17*
X30638750Y-85725000D03*
D18*
X35718750Y-85725000D03*
D17*
X40798750Y-85725000D03*
D19*
X31908750Y-83185000D03*
X38258750Y-80645000D03*
D17*
X290830000Y-47625000D03*
D18*
X285750000Y-47625000D03*
D17*
X280670000Y-47625000D03*
D19*
X281940000Y-45085000D03*
X288290000Y-42545000D03*
D17*
X147320000Y-66675000D03*
X157480000Y-66675000D03*
D18*
X152400000Y-66675000D03*
D19*
X148590000Y-64135000D03*
X154940000Y-61595000D03*
D17*
X271780000Y-66675000D03*
D18*
X266700000Y-66675000D03*
D17*
X261620000Y-66675000D03*
D19*
X262890000Y-64135000D03*
X269240000Y-61595000D03*
D18*
X104775000Y-47625000D03*
D17*
X109855000Y-47625000D03*
X99695000Y-47625000D03*
D19*
X100965000Y-45085000D03*
X107315000Y-42545000D03*
D23*
X285700000Y-126400000D03*
D18*
X28575000Y-47625000D03*
D17*
X23495000Y-47625000D03*
X33655000Y-47625000D03*
D19*
X24765000Y-45085000D03*
X31115000Y-42545000D03*
D18*
X109537500Y-104775000D03*
D17*
X114617500Y-104775000D03*
X104457500Y-104775000D03*
D19*
X105727500Y-102235000D03*
X112077500Y-99695000D03*
D17*
X262255000Y-28575000D03*
D18*
X257175000Y-28575000D03*
D17*
X252095000Y-28575000D03*
D19*
X253365000Y-26035000D03*
X259715000Y-23495000D03*
D17*
X28257500Y-66675000D03*
D18*
X33337500Y-66675000D03*
D17*
X38417500Y-66675000D03*
D19*
X29527500Y-64135000D03*
X35877500Y-61595000D03*
D17*
X199707500Y-104775000D03*
X209867500Y-104775000D03*
D18*
X204787500Y-104775000D03*
D19*
X200977500Y-102235000D03*
X207327500Y-99695000D03*
D21*
X209543750Y-130810000D03*
D22*
X209543750Y-115600000D03*
D21*
X109543750Y-130810000D03*
D22*
X109543750Y-115600000D03*
D17*
X236061250Y-123825000D03*
D18*
X230981250Y-123825000D03*
D17*
X225901250Y-123825000D03*
D19*
X227171250Y-121285000D03*
X233521250Y-118745000D03*
D18*
X66675000Y-28575000D03*
D17*
X61595000Y-28575000D03*
X71755000Y-28575000D03*
D19*
X62865000Y-26035000D03*
X69215000Y-23495000D03*
D18*
X233362500Y-85725000D03*
D17*
X238442500Y-85725000D03*
X228282500Y-85725000D03*
D19*
X229552500Y-83185000D03*
X235902500Y-80645000D03*
D17*
X252730000Y-66675000D03*
D18*
X247650000Y-66675000D03*
D17*
X242570000Y-66675000D03*
D19*
X243840000Y-64135000D03*
X250190000Y-61595000D03*
D18*
X57150000Y-66675000D03*
D17*
X62230000Y-66675000D03*
X52070000Y-66675000D03*
D19*
X53340000Y-64135000D03*
X59690000Y-61595000D03*
D18*
X238125000Y-47625000D03*
D17*
X243205000Y-47625000D03*
X233045000Y-47625000D03*
D19*
X234315000Y-45085000D03*
X240665000Y-42545000D03*
D17*
X80645000Y-28575000D03*
D18*
X85725000Y-28575000D03*
D17*
X90805000Y-28575000D03*
D19*
X81915000Y-26035000D03*
X88265000Y-23495000D03*
D17*
X300355000Y-28575000D03*
D18*
X295275000Y-28575000D03*
D17*
X290195000Y-28575000D03*
D19*
X291465000Y-26035000D03*
X297815000Y-23495000D03*
D17*
X181292500Y-85725000D03*
D18*
X176212500Y-85725000D03*
D17*
X171132500Y-85725000D03*
D19*
X172402500Y-83185000D03*
X178752500Y-80645000D03*
D18*
X47625000Y-47625000D03*
D17*
X42545000Y-47625000D03*
X52705000Y-47625000D03*
D19*
X43815000Y-45085000D03*
X50165000Y-42545000D03*
D17*
X281305000Y-28575000D03*
D18*
X276225000Y-28575000D03*
D17*
X271145000Y-28575000D03*
D19*
X272415000Y-26035000D03*
X278765000Y-23495000D03*
D20*
X285700000Y-115500000D03*
D18*
X28575000Y-123825000D03*
D17*
X33655000Y-123825000D03*
X23495000Y-123825000D03*
D19*
X24765000Y-121285000D03*
X31115000Y-118745000D03*
D17*
X95567500Y-104775000D03*
X85407500Y-104775000D03*
D18*
X90487500Y-104775000D03*
D19*
X86677500Y-102235000D03*
X93027500Y-99695000D03*
D17*
X195580000Y-28575000D03*
D18*
X190500000Y-28575000D03*
D17*
X185420000Y-28575000D03*
D19*
X186690000Y-26035000D03*
X193040000Y-23495000D03*
D18*
X123825000Y-28575000D03*
D17*
X128905000Y-28575000D03*
X118745000Y-28575000D03*
D19*
X120015000Y-26035000D03*
X126365000Y-23495000D03*
D17*
X285432500Y-66675000D03*
D18*
X290512500Y-66675000D03*
D17*
X295592500Y-66675000D03*
D19*
X286702500Y-64135000D03*
X293052500Y-61595000D03*
D17*
X213995000Y-47625000D03*
D18*
X219075000Y-47625000D03*
D17*
X224155000Y-47625000D03*
D19*
X215265000Y-45085000D03*
X221615000Y-42545000D03*
D17*
X33655000Y-28575000D03*
D18*
X28575000Y-28575000D03*
D17*
X23495000Y-28575000D03*
D19*
X24765000Y-26035000D03*
X31115000Y-23495000D03*
D17*
X71755000Y-123825000D03*
X61595000Y-123825000D03*
D18*
X66675000Y-123825000D03*
D19*
X62865000Y-121285000D03*
X69215000Y-118745000D03*
D17*
X204470000Y-28575000D03*
X214630000Y-28575000D03*
D18*
X209550000Y-28575000D03*
D19*
X205740000Y-26035000D03*
X212090000Y-23495000D03*
D18*
X283368750Y-85725000D03*
D17*
X278288750Y-85725000D03*
X288448750Y-85725000D03*
D19*
X279558750Y-83185000D03*
X285908750Y-80645000D03*
D21*
X273812000Y-40640000D03*
D22*
X297688000Y-55850000D03*
D21*
X297688000Y-40640000D03*
D22*
X273812000Y-55850000D03*
D17*
X133032500Y-85725000D03*
D18*
X138112500Y-85725000D03*
D17*
X143192500Y-85725000D03*
D19*
X134302500Y-83185000D03*
X140652500Y-80645000D03*
D17*
X219392500Y-85725000D03*
X209232500Y-85725000D03*
D18*
X214312500Y-85725000D03*
D19*
X210502500Y-83185000D03*
X216852500Y-80645000D03*
D17*
X76517500Y-104775000D03*
D18*
X71437500Y-104775000D03*
D17*
X66357500Y-104775000D03*
D19*
X67627500Y-102235000D03*
X73977500Y-99695000D03*
D23*
X38100000Y-126400000D03*
D18*
X295275000Y-123825000D03*
D17*
X300355000Y-123825000D03*
X290195000Y-123825000D03*
D19*
X291465000Y-121285000D03*
X297815000Y-118745000D03*
D18*
X257175000Y-47625000D03*
D17*
X252095000Y-47625000D03*
X262255000Y-47625000D03*
D19*
X253365000Y-45085000D03*
X259715000Y-42545000D03*
D18*
X180975000Y-47625000D03*
D17*
X175895000Y-47625000D03*
X186055000Y-47625000D03*
D19*
X177165000Y-45085000D03*
X183515000Y-42545000D03*
D17*
X71120000Y-66675000D03*
X81280000Y-66675000D03*
D18*
X76200000Y-66675000D03*
D19*
X72390000Y-64135000D03*
X78740000Y-61595000D03*
D18*
X171450000Y-66675000D03*
D17*
X166370000Y-66675000D03*
X176530000Y-66675000D03*
D19*
X167640000Y-64135000D03*
X173990000Y-61595000D03*
D17*
X133667500Y-104775000D03*
D18*
X128587500Y-104775000D03*
D17*
X123507500Y-104775000D03*
D19*
X124777500Y-102235000D03*
X131127500Y-99695000D03*
D17*
X66992500Y-85725000D03*
D18*
X61912500Y-85725000D03*
D17*
X56832500Y-85725000D03*
D19*
X58102500Y-83185000D03*
X64452500Y-80645000D03*
D17*
X204470000Y-66675000D03*
D18*
X209550000Y-66675000D03*
D17*
X214630000Y-66675000D03*
D19*
X205740000Y-64135000D03*
X212090000Y-61595000D03*
D18*
X195262500Y-85725000D03*
D17*
X190182500Y-85725000D03*
X200342500Y-85725000D03*
D19*
X191452500Y-83185000D03*
X197802500Y-80645000D03*
D20*
X38100000Y-37300000D03*
D18*
X119062500Y-85725000D03*
D17*
X124142500Y-85725000D03*
X113982500Y-85725000D03*
D19*
X115252500Y-83185000D03*
X121602500Y-80645000D03*
D17*
X166370000Y-28575000D03*
X176530000Y-28575000D03*
D18*
X171450000Y-28575000D03*
D19*
X167640000Y-26035000D03*
X173990000Y-23495000D03*
D17*
X156845000Y-47625000D03*
X167005000Y-47625000D03*
D18*
X161925000Y-47625000D03*
D19*
X158115000Y-45085000D03*
X164465000Y-42545000D03*
D17*
X128270000Y-66675000D03*
X138430000Y-66675000D03*
D18*
X133350000Y-66675000D03*
D19*
X129540000Y-64135000D03*
X135890000Y-61595000D03*
D17*
X83026250Y-123825000D03*
D18*
X88106250Y-123825000D03*
D17*
X93186250Y-123825000D03*
D19*
X84296250Y-121285000D03*
X90646250Y-118745000D03*
D17*
X162242500Y-85725000D03*
D18*
X157162500Y-85725000D03*
D17*
X152082500Y-85725000D03*
D19*
X153352500Y-83185000D03*
X159702500Y-80645000D03*
D17*
X233045000Y-28575000D03*
D18*
X238125000Y-28575000D03*
D17*
X243205000Y-28575000D03*
D19*
X234315000Y-26035000D03*
X240665000Y-23495000D03*
D17*
X185420000Y-66675000D03*
D18*
X190500000Y-66675000D03*
D17*
X195580000Y-66675000D03*
D19*
X186690000Y-64135000D03*
X193040000Y-61595000D03*
D17*
X147955000Y-47625000D03*
D18*
X142875000Y-47625000D03*
D17*
X137795000Y-47625000D03*
D19*
X139065000Y-45085000D03*
X145415000Y-42545000D03*
D17*
X180657500Y-104775000D03*
D18*
X185737500Y-104775000D03*
D17*
X190817500Y-104775000D03*
D19*
X181927500Y-102235000D03*
X188277500Y-99695000D03*
D17*
X205105000Y-47625000D03*
X194945000Y-47625000D03*
D18*
X200025000Y-47625000D03*
D19*
X196215000Y-45085000D03*
X202565000Y-42545000D03*
D17*
X281305000Y-104775000D03*
X271145000Y-104775000D03*
D18*
X276225000Y-104775000D03*
D19*
X272415000Y-102235000D03*
X278765000Y-99695000D03*
D18*
X252412500Y-85725000D03*
D17*
X257492500Y-85725000D03*
X247332500Y-85725000D03*
D19*
X248602500Y-83185000D03*
X254952500Y-80645000D03*
D17*
X35401250Y-104775000D03*
X45561250Y-104775000D03*
D18*
X40481250Y-104775000D03*
D19*
X36671250Y-102235000D03*
X43021250Y-99695000D03*
D17*
X80645000Y-47625000D03*
X90805000Y-47625000D03*
D18*
X85725000Y-47625000D03*
D19*
X81915000Y-45085000D03*
X88265000Y-42545000D03*
D18*
X228600000Y-66675000D03*
D17*
X223520000Y-66675000D03*
X233680000Y-66675000D03*
D19*
X224790000Y-64135000D03*
X231140000Y-61595000D03*
D17*
X105092500Y-85725000D03*
X94932500Y-85725000D03*
D18*
X100012500Y-85725000D03*
D19*
X96202500Y-83185000D03*
X102552500Y-80645000D03*
D17*
X86042500Y-85725000D03*
D18*
X80962500Y-85725000D03*
D17*
X75882500Y-85725000D03*
D19*
X77152500Y-83185000D03*
X83502500Y-80645000D03*
D18*
X147637500Y-104775000D03*
D17*
X142557500Y-104775000D03*
X152717500Y-104775000D03*
D19*
X143827500Y-102235000D03*
X150177500Y-99695000D03*
D23*
X285700000Y-30300000D03*
D24*
X225862500Y-77525000D03*
X225862500Y-80825000D03*
X202050000Y-58475000D03*
X202050000Y-61775000D03*
D25*
X43255000Y-85925000D03*
X42295000Y-85925000D03*
D24*
X130612500Y-77525000D03*
X130612500Y-80825000D03*
D26*
X45100000Y-85275000D03*
X45100000Y-83725000D03*
D27*
X61350000Y-56000000D03*
X64650000Y-56000000D03*
X238150000Y-32200000D03*
X234850000Y-32200000D03*
X171450000Y-32200000D03*
X168150000Y-32200000D03*
X28750000Y-32200000D03*
X25450000Y-32200000D03*
D24*
X68700000Y-58475000D03*
X68700000Y-61775000D03*
D28*
X42475000Y-83800000D03*
X40925000Y-83800000D03*
D24*
X111562500Y-77525000D03*
X111562500Y-80825000D03*
X87750000Y-58475000D03*
X87750000Y-61775000D03*
D29*
X56150000Y-91975000D03*
D27*
X276350000Y-32200000D03*
X273050000Y-32200000D03*
D30*
X25000000Y-96120000D03*
X25000000Y-97080000D03*
D24*
X106800000Y-58475000D03*
X106800000Y-61775000D03*
D27*
X257150000Y-32200000D03*
X253850000Y-32200000D03*
D24*
X135375000Y-39425000D03*
X135375000Y-42725000D03*
D31*
X57837500Y-95250000D03*
X57837500Y-93350000D03*
X59712500Y-94300000D03*
D32*
X61712500Y-91662500D03*
X61712500Y-93787500D03*
D27*
X209550000Y-32200000D03*
X206250000Y-32200000D03*
D24*
X168712500Y-77525000D03*
X168712500Y-80825000D03*
X149662500Y-77525000D03*
X149662500Y-80825000D03*
D27*
X47350000Y-29900000D03*
X50650000Y-29900000D03*
X104650000Y-32200000D03*
X101350000Y-32200000D03*
D29*
X25000000Y-99025000D03*
D24*
X268725000Y-96575000D03*
X268725000Y-99875000D03*
D33*
X46250000Y-81875000D03*
X46250000Y-80225000D03*
X25600000Y-95025000D03*
X25600000Y-93375000D03*
D29*
X61375000Y-95300000D03*
D27*
X123750000Y-32200000D03*
X120450000Y-32200000D03*
D33*
X57625000Y-91800000D03*
X57625000Y-90150000D03*
D34*
X42342810Y-22309384D03*
X48142658Y-22309384D03*
D35*
X49567855Y-18609612D03*
D36*
X40917613Y-22809511D03*
D35*
X40917613Y-18609612D03*
D36*
X49567855Y-22809511D03*
D37*
X41892721Y-23577837D03*
X42692823Y-23577837D03*
X43992797Y-23577837D03*
X44992797Y-23577837D03*
X45492670Y-23577837D03*
X46492416Y-23577837D03*
X47792899Y-23577837D03*
X48592747Y-23577837D03*
X48292772Y-23577837D03*
X47492670Y-23577837D03*
X46992797Y-23577837D03*
X45992797Y-23577837D03*
X44492670Y-23577837D03*
X43492670Y-23577837D03*
X42992797Y-23577837D03*
X42192696Y-23577837D03*
D27*
X58625000Y-77500000D03*
X55325000Y-77500000D03*
D24*
X173475000Y-39425000D03*
X173475000Y-42725000D03*
D38*
X59487500Y-88500000D03*
X57612500Y-88500000D03*
D27*
X85750000Y-32200000D03*
X82450000Y-32200000D03*
X190550000Y-32200000D03*
X187250000Y-32200000D03*
X295350000Y-32200000D03*
X292050000Y-32200000D03*
D39*
X29324124Y-108424975D03*
X29325394Y-101825025D03*
X25624606Y-108424975D03*
X25624606Y-101825025D03*
D24*
X49650000Y-58475000D03*
X49650000Y-61775000D03*
X92512500Y-77525000D03*
X92512500Y-80825000D03*
X275868750Y-77525000D03*
X275868750Y-80825000D03*
X268725000Y-115625000D03*
X268725000Y-118925000D03*
X206812500Y-77525000D03*
X206812500Y-80825000D03*
X197287500Y-96575000D03*
X197287500Y-99875000D03*
X82987500Y-96575000D03*
X82987500Y-99875000D03*
D40*
X52615000Y-91805000D03*
X53575000Y-91805000D03*
D33*
X47725000Y-103000000D03*
X47725000Y-101350000D03*
D24*
X63937500Y-96575000D03*
X63937500Y-99875000D03*
X230625000Y-39425000D03*
X230625000Y-42725000D03*
D30*
X47375000Y-96825000D03*
X47375000Y-97785000D03*
D24*
X21075000Y-39425000D03*
X21075000Y-42725000D03*
D41*
X51825000Y-79600000D03*
X53375000Y-79600000D03*
D24*
X163950000Y-58475000D03*
X163950000Y-61775000D03*
X223481250Y-115625000D03*
X223481250Y-118925000D03*
D42*
X67100000Y-53200000D03*
D27*
X53300000Y-34900000D03*
X50000000Y-34900000D03*
D43*
X53425000Y-76600000D03*
X51775000Y-76600000D03*
D27*
X47650000Y-127300000D03*
X44350000Y-127300000D03*
D44*
X47400000Y-26075000D03*
X47400000Y-27725000D03*
D24*
X178237500Y-96575000D03*
X178237500Y-99875000D03*
X140137500Y-96575000D03*
X140137500Y-99875000D03*
D40*
X52120000Y-80900000D03*
X53080000Y-80900000D03*
D24*
X240150000Y-58475000D03*
X240150000Y-61775000D03*
D45*
X43800000Y-84980000D03*
X43800000Y-84020000D03*
D24*
X216337500Y-96575000D03*
X216337500Y-99875000D03*
D29*
X36700000Y-99375000D03*
D24*
X116325000Y-39425000D03*
X116325000Y-42725000D03*
X59175000Y-39425000D03*
X59175000Y-42725000D03*
X211575000Y-39425000D03*
X211575000Y-42725000D03*
D43*
X41425000Y-26600000D03*
X39775000Y-26600000D03*
D45*
X59900000Y-91480000D03*
X59900000Y-90520000D03*
D24*
X235387500Y-96575000D03*
X235387500Y-99875000D03*
X283012500Y-58475000D03*
X283012500Y-61775000D03*
X154425000Y-39425000D03*
X154425000Y-42725000D03*
D45*
X58900000Y-91480000D03*
X58900000Y-90520000D03*
D24*
X73462500Y-77525000D03*
X73462500Y-80825000D03*
X144900000Y-58475000D03*
X144900000Y-61775000D03*
X278250000Y-39425000D03*
X278250000Y-42725000D03*
X192525000Y-39425000D03*
X192525000Y-42725000D03*
D45*
X47975000Y-84005000D03*
X47975000Y-83045000D03*
D41*
X49550000Y-105575000D03*
X51100000Y-105575000D03*
D25*
X43255000Y-86925000D03*
X42295000Y-86925000D03*
D46*
X54500000Y-22802540D03*
X54500000Y-29802540D03*
D47*
X52099949Y-24402489D03*
X52099949Y-27402489D03*
X52099949Y-31402489D03*
X56900051Y-32402489D03*
D25*
X42005000Y-92055000D03*
X41045000Y-92055000D03*
D30*
X46375000Y-96825000D03*
X46375000Y-97785000D03*
D24*
X25837500Y-58475000D03*
X25837500Y-61775000D03*
D27*
X66450000Y-32200000D03*
X63150000Y-32200000D03*
D24*
X28218750Y-77525000D03*
X28218750Y-80825000D03*
D48*
X52050152Y-85095200D03*
X51550025Y-85095200D03*
X51050152Y-85095200D03*
X50550025Y-85095200D03*
X50550025Y-82080214D03*
X51050152Y-82080214D03*
X51550025Y-82080214D03*
X52050152Y-82080214D03*
D49*
X51300089Y-83587707D03*
D45*
X52575000Y-88025000D03*
X52575000Y-87065000D03*
D24*
X249675000Y-115625000D03*
X249675000Y-118925000D03*
D27*
X152450000Y-32200000D03*
X149150000Y-32200000D03*
D29*
X49500000Y-97850000D03*
D24*
X244912500Y-77525000D03*
X244912500Y-80825000D03*
X259200000Y-58475000D03*
X259200000Y-61775000D03*
D50*
X48462500Y-32000000D03*
X50337500Y-32000000D03*
D45*
X47045000Y-84005000D03*
X47045000Y-83045000D03*
D24*
X249675000Y-39425000D03*
X249675000Y-42725000D03*
X21075000Y-115625000D03*
X21075000Y-118925000D03*
X125850000Y-58475000D03*
X125850000Y-61775000D03*
D51*
X51050000Y-101500000D03*
X51050000Y-103700000D03*
X49350000Y-103700000D03*
X49350000Y-101500000D03*
D24*
X159187500Y-96575000D03*
X159187500Y-99875000D03*
X102037500Y-96575000D03*
X102037500Y-99875000D03*
X183000000Y-58475000D03*
X183000000Y-61775000D03*
X80606250Y-115625000D03*
X80606250Y-118925000D03*
D52*
X50925165Y-88224924D03*
X50925165Y-88624975D03*
X50925165Y-89025025D03*
X50925165Y-89425076D03*
X50925165Y-89824873D03*
X50925165Y-90224924D03*
X50925165Y-90624975D03*
X50925165Y-91025025D03*
X50925165Y-91425076D03*
X50925165Y-91824873D03*
X50925165Y-92224924D03*
X50925165Y-92624975D03*
X50925165Y-93025025D03*
X50925165Y-93425076D03*
D53*
X49974949Y-94375038D03*
X49575152Y-94375038D03*
X49175102Y-94375038D03*
X48775051Y-94375038D03*
X48375000Y-94375038D03*
X47974949Y-94375038D03*
X47575152Y-94375038D03*
X47175102Y-94375038D03*
X46775051Y-94375038D03*
X46375000Y-94375038D03*
X45974949Y-94375038D03*
X45575152Y-94375038D03*
X45175102Y-94375038D03*
X44775051Y-94375038D03*
D52*
X43824835Y-93425076D03*
X43824835Y-93025025D03*
X43824835Y-92624975D03*
X43824835Y-92224924D03*
X43824835Y-91824873D03*
X43824835Y-91425076D03*
X43824835Y-91025025D03*
X43824835Y-90624975D03*
X43824835Y-90224924D03*
X43824835Y-89824873D03*
X43824835Y-89425076D03*
X43824835Y-89025025D03*
X43824835Y-88624975D03*
X43824835Y-88224924D03*
D53*
X44775051Y-87274962D03*
X45175102Y-87274962D03*
X45575152Y-87274962D03*
X45974949Y-87274962D03*
X46375000Y-87274962D03*
X46775051Y-87274962D03*
X47175102Y-87274962D03*
X47575152Y-87274962D03*
X47974949Y-87274962D03*
X48375000Y-87274962D03*
X48775051Y-87274962D03*
X49175102Y-87274962D03*
X49575152Y-87274962D03*
X49974949Y-87274962D03*
D54*
X47375000Y-90824873D03*
D24*
X152043750Y-115625000D03*
X152043750Y-118925000D03*
X121087500Y-96575000D03*
X121087500Y-99875000D03*
D55*
X58199975Y-71150876D03*
X51600025Y-71149606D03*
X58199975Y-74850394D03*
X51600025Y-74850394D03*
D24*
X59175000Y-115625000D03*
X59175000Y-118925000D03*
D56*
X51775000Y-78100000D03*
X53425000Y-78100000D03*
D57*
X52725000Y-102000000D03*
X52725000Y-103550000D03*
D24*
X78225000Y-39425000D03*
X78225000Y-42725000D03*
X97275000Y-39425000D03*
X97275000Y-42725000D03*
X221100000Y-58475000D03*
X221100000Y-61775000D03*
D27*
X295150000Y-127400000D03*
X291850000Y-127400000D03*
D24*
X32981250Y-96575000D03*
X32981250Y-99875000D03*
X187762500Y-77525000D03*
X187762500Y-80825000D03*
D33*
X44650000Y-81875000D03*
X44650000Y-80225000D03*
D29*
X46325000Y-101575000D03*
M02*
