G04 #@! TF.GenerationSoftware,KiCad,Pcbnew,(6.0.6-0)*
G04 #@! TF.CreationDate,2023-02-10T21:05:53+09:00*
G04 #@! TF.ProjectId,key-ripper,6b65792d-7269-4707-9065-722e6b696361,rev?*
G04 #@! TF.SameCoordinates,Original*
G04 #@! TF.FileFunction,Soldermask,Bot*
G04 #@! TF.FilePolarity,Negative*
%FSLAX46Y46*%
G04 Gerber Fmt 4.6, Leading zero omitted, Abs format (unit mm)*
G04 Created by KiCad (PCBNEW (6.0.6-0)) date 2023-02-10 21:05:53*
%MOMM*%
%LPD*%
G01*
G04 APERTURE LIST*
G04 Aperture macros list*
%AMRoundRect*
0 Rectangle with rounded corners*
0 $1 Rounding radius*
0 $2 $3 $4 $5 $6 $7 $8 $9 X,Y pos of 4 corners*
0 Add a 4 corners polygon primitive as box body*
4,1,4,$2,$3,$4,$5,$6,$7,$8,$9,$2,$3,0*
0 Add four circle primitives for the rounded corners*
1,1,$1+$1,$2,$3*
1,1,$1+$1,$4,$5*
1,1,$1+$1,$6,$7*
1,1,$1+$1,$8,$9*
0 Add four rect primitives between the rounded corners*
20,1,$1+$1,$2,$3,$4,$5,0*
20,1,$1+$1,$4,$5,$6,$7,0*
20,1,$1+$1,$6,$7,$8,$9,0*
20,1,$1+$1,$8,$9,$2,$3,0*%
G04 Aperture macros list end*
%ADD10C,1.750000*%
%ADD11C,4.000000*%
%ADD12C,2.500000*%
%ADD13C,6.200000*%
%ADD14C,3.048000*%
%ADD15C,3.987800*%
%ADD16C,5.000000*%
%ADD17R,1.200000X0.900000*%
%ADD18RoundRect,0.140000X0.140000X0.170000X-0.140000X0.170000X-0.140000X-0.170000X0.140000X-0.170000X0*%
%ADD19RoundRect,0.225000X0.250000X-0.225000X0.250000X0.225000X-0.250000X0.225000X-0.250000X-0.225000X0*%
%ADD20R,0.900000X1.200000*%
%ADD21RoundRect,0.225000X0.225000X0.250000X-0.225000X0.250000X-0.225000X-0.250000X0.225000X-0.250000X0*%
%ADD22C,1.000000*%
%ADD23RoundRect,0.140000X-0.170000X0.140000X-0.170000X-0.140000X0.170000X-0.140000X0.170000X0.140000X0*%
%ADD24RoundRect,0.150000X-0.587500X-0.150000X0.587500X-0.150000X0.587500X0.150000X-0.587500X0.150000X0*%
%ADD25RoundRect,0.218750X-0.381250X0.218750X-0.381250X-0.218750X0.381250X-0.218750X0.381250X0.218750X0*%
%ADD26RoundRect,0.200000X0.275000X-0.200000X0.275000X0.200000X-0.275000X0.200000X-0.275000X-0.200000X0*%
%ADD27C,0.750013*%
%ADD28O,1.200000X1.800000*%
%ADD29O,1.200000X2.000000*%
%ADD30R,0.300000X1.300000*%
%ADD31RoundRect,0.243750X0.243750X0.456250X-0.243750X0.456250X-0.243750X-0.456250X0.243750X-0.456250X0*%
%ADD32R,1.000000X1.700000*%
%ADD33RoundRect,0.140000X-0.140000X-0.170000X0.140000X-0.170000X0.140000X0.170000X-0.140000X0.170000X0*%
%ADD34RoundRect,0.225000X-0.225000X-0.250000X0.225000X-0.250000X0.225000X0.250000X-0.225000X0.250000X0*%
%ADD35C,2.000000*%
%ADD36RoundRect,0.200000X0.200000X0.275000X-0.200000X0.275000X-0.200000X-0.275000X0.200000X-0.275000X0*%
%ADD37RoundRect,0.200000X-0.275000X0.200000X-0.275000X-0.200000X0.275000X-0.200000X0.275000X0.200000X0*%
%ADD38RoundRect,0.140000X0.170000X-0.140000X0.170000X0.140000X-0.170000X0.140000X-0.170000X-0.140000X0*%
%ADD39C,1.200000*%
%ADD40O,1.000000X2.000000*%
%ADD41R,0.280010X0.600000*%
%ADD42R,1.700000X0.300000*%
%ADD43RoundRect,0.243750X-0.243750X-0.456250X0.243750X-0.456250X0.243750X0.456250X-0.243750X0.456250X0*%
%ADD44R,1.200000X1.400000*%
%ADD45R,1.100000X0.200000*%
%ADD46R,0.200000X1.100000*%
%ADD47R,3.100000X3.100000*%
%ADD48R,1.700000X1.000000*%
%ADD49RoundRect,0.200000X-0.200000X-0.275000X0.200000X-0.275000X0.200000X0.275000X-0.200000X0.275000X0*%
%ADD50RoundRect,0.225000X-0.250000X0.225000X-0.250000X-0.225000X0.250000X-0.225000X0.250000X0.225000X0*%
G04 APERTURE END LIST*
D10*
X42545000Y-123825000D03*
D11*
X47625000Y-123825000D03*
D10*
X52705000Y-123825000D03*
D12*
X43815000Y-121285000D03*
X50165000Y-118745000D03*
D10*
X154463750Y-123825000D03*
X164623750Y-123825000D03*
D11*
X159543750Y-123825000D03*
D12*
X155733750Y-121285000D03*
X162083750Y-118745000D03*
D10*
X128905000Y-47625000D03*
D11*
X123825000Y-47625000D03*
D10*
X118745000Y-47625000D03*
D12*
X120015000Y-45085000D03*
X126365000Y-42545000D03*
D11*
X166687500Y-104775000D03*
D10*
X171767500Y-104775000D03*
X161607500Y-104775000D03*
D12*
X162877500Y-102235000D03*
X169227500Y-99695000D03*
D10*
X252095000Y-123825000D03*
D11*
X257175000Y-123825000D03*
D10*
X262255000Y-123825000D03*
D12*
X253365000Y-121285000D03*
X259715000Y-118745000D03*
D13*
X285700000Y-37300000D03*
X38100000Y-115500000D03*
D10*
X109855000Y-28575000D03*
X99695000Y-28575000D03*
D11*
X104775000Y-28575000D03*
D12*
X100965000Y-26035000D03*
X107315000Y-23495000D03*
D14*
X52419250Y-97790000D03*
X28543250Y-97790000D03*
D15*
X52419250Y-113000000D03*
X28543250Y-113000000D03*
D10*
X71755000Y-47625000D03*
X61595000Y-47625000D03*
D11*
X66675000Y-47625000D03*
D12*
X62865000Y-45085000D03*
X69215000Y-42545000D03*
D16*
X38100000Y-30300000D03*
D14*
X271430750Y-78740000D03*
X295306750Y-78740000D03*
D15*
X295306750Y-93950000D03*
X271430750Y-93950000D03*
D10*
X281305000Y-123825000D03*
D11*
X276225000Y-123825000D03*
D10*
X271145000Y-123825000D03*
D12*
X272415000Y-121285000D03*
X278765000Y-118745000D03*
D11*
X152400000Y-28575000D03*
D10*
X157480000Y-28575000D03*
X147320000Y-28575000D03*
D12*
X148590000Y-26035000D03*
X154940000Y-23495000D03*
D10*
X218757500Y-104775000D03*
D11*
X223837500Y-104775000D03*
D10*
X228917500Y-104775000D03*
D12*
X220027500Y-102235000D03*
X226377500Y-99695000D03*
D10*
X109220000Y-66675000D03*
D11*
X114300000Y-66675000D03*
D10*
X119380000Y-66675000D03*
D12*
X110490000Y-64135000D03*
X116840000Y-61595000D03*
D10*
X237807500Y-104775000D03*
D11*
X242887500Y-104775000D03*
D10*
X247967500Y-104775000D03*
D12*
X239077500Y-102235000D03*
X245427500Y-99695000D03*
D10*
X90170000Y-66675000D03*
D11*
X95250000Y-66675000D03*
D10*
X100330000Y-66675000D03*
D12*
X91440000Y-64135000D03*
X97790000Y-61595000D03*
D10*
X30638750Y-85725000D03*
D11*
X35718750Y-85725000D03*
D10*
X40798750Y-85725000D03*
D12*
X31908750Y-83185000D03*
X38258750Y-80645000D03*
D10*
X290830000Y-47625000D03*
D11*
X285750000Y-47625000D03*
D10*
X280670000Y-47625000D03*
D12*
X281940000Y-45085000D03*
X288290000Y-42545000D03*
D10*
X147320000Y-66675000D03*
X157480000Y-66675000D03*
D11*
X152400000Y-66675000D03*
D12*
X148590000Y-64135000D03*
X154940000Y-61595000D03*
D10*
X271780000Y-66675000D03*
D11*
X266700000Y-66675000D03*
D10*
X261620000Y-66675000D03*
D12*
X262890000Y-64135000D03*
X269240000Y-61595000D03*
D11*
X104775000Y-47625000D03*
D10*
X109855000Y-47625000D03*
X99695000Y-47625000D03*
D12*
X100965000Y-45085000D03*
X107315000Y-42545000D03*
D16*
X285700000Y-126400000D03*
D11*
X28575000Y-47625000D03*
D10*
X23495000Y-47625000D03*
X33655000Y-47625000D03*
D12*
X24765000Y-45085000D03*
X31115000Y-42545000D03*
D11*
X109537500Y-104775000D03*
D10*
X114617500Y-104775000D03*
X104457500Y-104775000D03*
D12*
X105727500Y-102235000D03*
X112077500Y-99695000D03*
D10*
X262255000Y-28575000D03*
D11*
X257175000Y-28575000D03*
D10*
X252095000Y-28575000D03*
D12*
X253365000Y-26035000D03*
X259715000Y-23495000D03*
D10*
X28257500Y-66675000D03*
D11*
X33337500Y-66675000D03*
D10*
X38417500Y-66675000D03*
D12*
X29527500Y-64135000D03*
X35877500Y-61595000D03*
D10*
X199707500Y-104775000D03*
X209867500Y-104775000D03*
D11*
X204787500Y-104775000D03*
D12*
X200977500Y-102235000D03*
X207327500Y-99695000D03*
D14*
X209543750Y-130810000D03*
D15*
X209543750Y-115600000D03*
D14*
X109543750Y-130810000D03*
D15*
X109543750Y-115600000D03*
D10*
X236061250Y-123825000D03*
D11*
X230981250Y-123825000D03*
D10*
X225901250Y-123825000D03*
D12*
X227171250Y-121285000D03*
X233521250Y-118745000D03*
D11*
X66675000Y-28575000D03*
D10*
X61595000Y-28575000D03*
X71755000Y-28575000D03*
D12*
X62865000Y-26035000D03*
X69215000Y-23495000D03*
D11*
X233362500Y-85725000D03*
D10*
X238442500Y-85725000D03*
X228282500Y-85725000D03*
D12*
X229552500Y-83185000D03*
X235902500Y-80645000D03*
D10*
X252730000Y-66675000D03*
D11*
X247650000Y-66675000D03*
D10*
X242570000Y-66675000D03*
D12*
X243840000Y-64135000D03*
X250190000Y-61595000D03*
D11*
X57150000Y-66675000D03*
D10*
X62230000Y-66675000D03*
X52070000Y-66675000D03*
D12*
X53340000Y-64135000D03*
X59690000Y-61595000D03*
D11*
X238125000Y-47625000D03*
D10*
X243205000Y-47625000D03*
X233045000Y-47625000D03*
D12*
X234315000Y-45085000D03*
X240665000Y-42545000D03*
D10*
X80645000Y-28575000D03*
D11*
X85725000Y-28575000D03*
D10*
X90805000Y-28575000D03*
D12*
X81915000Y-26035000D03*
X88265000Y-23495000D03*
D10*
X300355000Y-28575000D03*
D11*
X295275000Y-28575000D03*
D10*
X290195000Y-28575000D03*
D12*
X291465000Y-26035000D03*
X297815000Y-23495000D03*
D10*
X181292500Y-85725000D03*
D11*
X176212500Y-85725000D03*
D10*
X171132500Y-85725000D03*
D12*
X172402500Y-83185000D03*
X178752500Y-80645000D03*
D11*
X47625000Y-47625000D03*
D10*
X42545000Y-47625000D03*
X52705000Y-47625000D03*
D12*
X43815000Y-45085000D03*
X50165000Y-42545000D03*
D10*
X281305000Y-28575000D03*
D11*
X276225000Y-28575000D03*
D10*
X271145000Y-28575000D03*
D12*
X272415000Y-26035000D03*
X278765000Y-23495000D03*
D13*
X285700000Y-115500000D03*
D11*
X28575000Y-123825000D03*
D10*
X33655000Y-123825000D03*
X23495000Y-123825000D03*
D12*
X24765000Y-121285000D03*
X31115000Y-118745000D03*
D10*
X95567500Y-104775000D03*
X85407500Y-104775000D03*
D11*
X90487500Y-104775000D03*
D12*
X86677500Y-102235000D03*
X93027500Y-99695000D03*
D10*
X195580000Y-28575000D03*
D11*
X190500000Y-28575000D03*
D10*
X185420000Y-28575000D03*
D12*
X186690000Y-26035000D03*
X193040000Y-23495000D03*
D11*
X123825000Y-28575000D03*
D10*
X128905000Y-28575000D03*
X118745000Y-28575000D03*
D12*
X120015000Y-26035000D03*
X126365000Y-23495000D03*
D10*
X285432500Y-66675000D03*
D11*
X290512500Y-66675000D03*
D10*
X295592500Y-66675000D03*
D12*
X286702500Y-64135000D03*
X293052500Y-61595000D03*
D10*
X213995000Y-47625000D03*
D11*
X219075000Y-47625000D03*
D10*
X224155000Y-47625000D03*
D12*
X215265000Y-45085000D03*
X221615000Y-42545000D03*
D10*
X33655000Y-28575000D03*
D11*
X28575000Y-28575000D03*
D10*
X23495000Y-28575000D03*
D12*
X24765000Y-26035000D03*
X31115000Y-23495000D03*
D10*
X71755000Y-123825000D03*
X61595000Y-123825000D03*
D11*
X66675000Y-123825000D03*
D12*
X62865000Y-121285000D03*
X69215000Y-118745000D03*
D10*
X204470000Y-28575000D03*
X214630000Y-28575000D03*
D11*
X209550000Y-28575000D03*
D12*
X205740000Y-26035000D03*
X212090000Y-23495000D03*
D11*
X283368750Y-85725000D03*
D10*
X278288750Y-85725000D03*
X288448750Y-85725000D03*
D12*
X279558750Y-83185000D03*
X285908750Y-80645000D03*
D14*
X273812000Y-40640000D03*
D15*
X297688000Y-55850000D03*
D14*
X297688000Y-40640000D03*
D15*
X273812000Y-55850000D03*
D10*
X133032500Y-85725000D03*
D11*
X138112500Y-85725000D03*
D10*
X143192500Y-85725000D03*
D12*
X134302500Y-83185000D03*
X140652500Y-80645000D03*
D10*
X219392500Y-85725000D03*
X209232500Y-85725000D03*
D11*
X214312500Y-85725000D03*
D12*
X210502500Y-83185000D03*
X216852500Y-80645000D03*
D10*
X76517500Y-104775000D03*
D11*
X71437500Y-104775000D03*
D10*
X66357500Y-104775000D03*
D12*
X67627500Y-102235000D03*
X73977500Y-99695000D03*
D16*
X38100000Y-126400000D03*
D11*
X295275000Y-123825000D03*
D10*
X300355000Y-123825000D03*
X290195000Y-123825000D03*
D12*
X291465000Y-121285000D03*
X297815000Y-118745000D03*
D11*
X257175000Y-47625000D03*
D10*
X252095000Y-47625000D03*
X262255000Y-47625000D03*
D12*
X253365000Y-45085000D03*
X259715000Y-42545000D03*
D11*
X180975000Y-47625000D03*
D10*
X175895000Y-47625000D03*
X186055000Y-47625000D03*
D12*
X177165000Y-45085000D03*
X183515000Y-42545000D03*
D10*
X71120000Y-66675000D03*
X81280000Y-66675000D03*
D11*
X76200000Y-66675000D03*
D12*
X72390000Y-64135000D03*
X78740000Y-61595000D03*
D11*
X171450000Y-66675000D03*
D10*
X166370000Y-66675000D03*
X176530000Y-66675000D03*
D12*
X167640000Y-64135000D03*
X173990000Y-61595000D03*
D10*
X133667500Y-104775000D03*
D11*
X128587500Y-104775000D03*
D10*
X123507500Y-104775000D03*
D12*
X124777500Y-102235000D03*
X131127500Y-99695000D03*
D10*
X66992500Y-85725000D03*
D11*
X61912500Y-85725000D03*
D10*
X56832500Y-85725000D03*
D12*
X58102500Y-83185000D03*
X64452500Y-80645000D03*
D10*
X204470000Y-66675000D03*
D11*
X209550000Y-66675000D03*
D10*
X214630000Y-66675000D03*
D12*
X205740000Y-64135000D03*
X212090000Y-61595000D03*
D11*
X195262500Y-85725000D03*
D10*
X190182500Y-85725000D03*
X200342500Y-85725000D03*
D12*
X191452500Y-83185000D03*
X197802500Y-80645000D03*
D13*
X38100000Y-37300000D03*
D11*
X119062500Y-85725000D03*
D10*
X124142500Y-85725000D03*
X113982500Y-85725000D03*
D12*
X115252500Y-83185000D03*
X121602500Y-80645000D03*
D10*
X166370000Y-28575000D03*
X176530000Y-28575000D03*
D11*
X171450000Y-28575000D03*
D12*
X167640000Y-26035000D03*
X173990000Y-23495000D03*
D10*
X156845000Y-47625000D03*
X167005000Y-47625000D03*
D11*
X161925000Y-47625000D03*
D12*
X158115000Y-45085000D03*
X164465000Y-42545000D03*
D10*
X128270000Y-66675000D03*
X138430000Y-66675000D03*
D11*
X133350000Y-66675000D03*
D12*
X129540000Y-64135000D03*
X135890000Y-61595000D03*
D10*
X83026250Y-123825000D03*
D11*
X88106250Y-123825000D03*
D10*
X93186250Y-123825000D03*
D12*
X84296250Y-121285000D03*
X90646250Y-118745000D03*
D10*
X162242500Y-85725000D03*
D11*
X157162500Y-85725000D03*
D10*
X152082500Y-85725000D03*
D12*
X153352500Y-83185000D03*
X159702500Y-80645000D03*
D10*
X233045000Y-28575000D03*
D11*
X238125000Y-28575000D03*
D10*
X243205000Y-28575000D03*
D12*
X234315000Y-26035000D03*
X240665000Y-23495000D03*
D10*
X185420000Y-66675000D03*
D11*
X190500000Y-66675000D03*
D10*
X195580000Y-66675000D03*
D12*
X186690000Y-64135000D03*
X193040000Y-61595000D03*
D10*
X147955000Y-47625000D03*
D11*
X142875000Y-47625000D03*
D10*
X137795000Y-47625000D03*
D12*
X139065000Y-45085000D03*
X145415000Y-42545000D03*
D10*
X180657500Y-104775000D03*
D11*
X185737500Y-104775000D03*
D10*
X190817500Y-104775000D03*
D12*
X181927500Y-102235000D03*
X188277500Y-99695000D03*
D10*
X205105000Y-47625000D03*
X194945000Y-47625000D03*
D11*
X200025000Y-47625000D03*
D12*
X196215000Y-45085000D03*
X202565000Y-42545000D03*
D10*
X281305000Y-104775000D03*
X271145000Y-104775000D03*
D11*
X276225000Y-104775000D03*
D12*
X272415000Y-102235000D03*
X278765000Y-99695000D03*
D11*
X252412500Y-85725000D03*
D10*
X257492500Y-85725000D03*
X247332500Y-85725000D03*
D12*
X248602500Y-83185000D03*
X254952500Y-80645000D03*
D10*
X35401250Y-104775000D03*
X45561250Y-104775000D03*
D11*
X40481250Y-104775000D03*
D12*
X36671250Y-102235000D03*
X43021250Y-99695000D03*
D10*
X80645000Y-47625000D03*
X90805000Y-47625000D03*
D11*
X85725000Y-47625000D03*
D12*
X81915000Y-45085000D03*
X88265000Y-42545000D03*
D11*
X228600000Y-66675000D03*
D10*
X223520000Y-66675000D03*
X233680000Y-66675000D03*
D12*
X224790000Y-64135000D03*
X231140000Y-61595000D03*
D10*
X105092500Y-85725000D03*
X94932500Y-85725000D03*
D11*
X100012500Y-85725000D03*
D12*
X96202500Y-83185000D03*
X102552500Y-80645000D03*
D10*
X86042500Y-85725000D03*
D11*
X80962500Y-85725000D03*
D10*
X75882500Y-85725000D03*
D12*
X77152500Y-83185000D03*
X83502500Y-80645000D03*
D11*
X147637500Y-104775000D03*
D10*
X142557500Y-104775000D03*
X152717500Y-104775000D03*
D12*
X143827500Y-102235000D03*
X150177500Y-99695000D03*
D16*
X285700000Y-30300000D03*
D17*
X225862500Y-77525000D03*
X225862500Y-80825000D03*
X202050000Y-58475000D03*
X202050000Y-61775000D03*
D18*
X43255000Y-85925000D03*
X42295000Y-85925000D03*
D17*
X130612500Y-77525000D03*
X130612500Y-80825000D03*
D19*
X45100000Y-85275000D03*
X45100000Y-83725000D03*
D20*
X61350000Y-56000000D03*
X64650000Y-56000000D03*
X238150000Y-32200000D03*
X234850000Y-32200000D03*
X171450000Y-32200000D03*
X168150000Y-32200000D03*
X28750000Y-32200000D03*
X25450000Y-32200000D03*
D17*
X68700000Y-58475000D03*
X68700000Y-61775000D03*
D21*
X42475000Y-83800000D03*
X40925000Y-83800000D03*
D17*
X111562500Y-77525000D03*
X111562500Y-80825000D03*
X87750000Y-58475000D03*
X87750000Y-61775000D03*
D22*
X56150000Y-91975000D03*
D20*
X276350000Y-32200000D03*
X273050000Y-32200000D03*
D23*
X25000000Y-96120000D03*
X25000000Y-97080000D03*
D17*
X106800000Y-58475000D03*
X106800000Y-61775000D03*
D20*
X257150000Y-32200000D03*
X253850000Y-32200000D03*
D17*
X135375000Y-39425000D03*
X135375000Y-42725000D03*
D24*
X57837500Y-95250000D03*
X57837500Y-93350000D03*
X59712500Y-94300000D03*
D25*
X61712500Y-91662500D03*
X61712500Y-93787500D03*
D20*
X209550000Y-32200000D03*
X206250000Y-32200000D03*
D17*
X168712500Y-77525000D03*
X168712500Y-80825000D03*
X149662500Y-77525000D03*
X149662500Y-80825000D03*
D20*
X47350000Y-29900000D03*
X50650000Y-29900000D03*
X104650000Y-32200000D03*
X101350000Y-32200000D03*
D22*
X25000000Y-99025000D03*
D17*
X268725000Y-96575000D03*
X268725000Y-99875000D03*
D26*
X46250000Y-81875000D03*
X46250000Y-80225000D03*
X25600000Y-95025000D03*
X25600000Y-93375000D03*
D22*
X61375000Y-95300000D03*
D20*
X123750000Y-32200000D03*
X120450000Y-32200000D03*
D26*
X57625000Y-91800000D03*
X57625000Y-90150000D03*
D27*
X42342810Y-22309384D03*
X48142658Y-22309384D03*
D28*
X49567855Y-18609612D03*
D29*
X40917613Y-22809511D03*
D28*
X40917613Y-18609612D03*
D29*
X49567855Y-22809511D03*
D30*
X41892721Y-23577837D03*
X42692823Y-23577837D03*
X43992797Y-23577837D03*
X44992797Y-23577837D03*
X45492670Y-23577837D03*
X46492416Y-23577837D03*
X47792899Y-23577837D03*
X48592747Y-23577837D03*
X48292772Y-23577837D03*
X47492670Y-23577837D03*
X46992797Y-23577837D03*
X45992797Y-23577837D03*
X44492670Y-23577837D03*
X43492670Y-23577837D03*
X42992797Y-23577837D03*
X42192696Y-23577837D03*
D20*
X58625000Y-77500000D03*
X55325000Y-77500000D03*
D17*
X173475000Y-39425000D03*
X173475000Y-42725000D03*
D31*
X59487500Y-88500000D03*
X57612500Y-88500000D03*
D20*
X85750000Y-32200000D03*
X82450000Y-32200000D03*
X190550000Y-32200000D03*
X187250000Y-32200000D03*
X295350000Y-32200000D03*
X292050000Y-32200000D03*
D32*
X29324124Y-108424975D03*
X29325394Y-101825025D03*
X25624606Y-108424975D03*
X25624606Y-101825025D03*
D17*
X49650000Y-58475000D03*
X49650000Y-61775000D03*
X92512500Y-77525000D03*
X92512500Y-80825000D03*
X275868750Y-77525000D03*
X275868750Y-80825000D03*
X268725000Y-115625000D03*
X268725000Y-118925000D03*
X206812500Y-77525000D03*
X206812500Y-80825000D03*
X197287500Y-96575000D03*
X197287500Y-99875000D03*
X82987500Y-96575000D03*
X82987500Y-99875000D03*
D33*
X52615000Y-91805000D03*
X53575000Y-91805000D03*
D26*
X47725000Y-103000000D03*
X47725000Y-101350000D03*
D17*
X63937500Y-96575000D03*
X63937500Y-99875000D03*
X230625000Y-39425000D03*
X230625000Y-42725000D03*
D23*
X47375000Y-96825000D03*
X47375000Y-97785000D03*
D17*
X21075000Y-39425000D03*
X21075000Y-42725000D03*
D34*
X51825000Y-79600000D03*
X53375000Y-79600000D03*
D17*
X163950000Y-58475000D03*
X163950000Y-61775000D03*
X223481250Y-115625000D03*
X223481250Y-118925000D03*
D35*
X67100000Y-53200000D03*
D20*
X53300000Y-34900000D03*
X50000000Y-34900000D03*
D36*
X53425000Y-76600000D03*
X51775000Y-76600000D03*
D20*
X47650000Y-127300000D03*
X44350000Y-127300000D03*
D37*
X47400000Y-26075000D03*
X47400000Y-27725000D03*
D17*
X178237500Y-96575000D03*
X178237500Y-99875000D03*
X140137500Y-96575000D03*
X140137500Y-99875000D03*
D33*
X52120000Y-80900000D03*
X53080000Y-80900000D03*
D17*
X240150000Y-58475000D03*
X240150000Y-61775000D03*
D38*
X43800000Y-84980000D03*
X43800000Y-84020000D03*
D17*
X216337500Y-96575000D03*
X216337500Y-99875000D03*
D22*
X36700000Y-99375000D03*
D17*
X116325000Y-39425000D03*
X116325000Y-42725000D03*
X59175000Y-39425000D03*
X59175000Y-42725000D03*
X211575000Y-39425000D03*
X211575000Y-42725000D03*
D36*
X41425000Y-26600000D03*
X39775000Y-26600000D03*
D38*
X59900000Y-91480000D03*
X59900000Y-90520000D03*
D17*
X235387500Y-96575000D03*
X235387500Y-99875000D03*
X283012500Y-58475000D03*
X283012500Y-61775000D03*
X154425000Y-39425000D03*
X154425000Y-42725000D03*
D38*
X58900000Y-91480000D03*
X58900000Y-90520000D03*
D17*
X73462500Y-77525000D03*
X73462500Y-80825000D03*
X144900000Y-58475000D03*
X144900000Y-61775000D03*
X278250000Y-39425000D03*
X278250000Y-42725000D03*
X192525000Y-39425000D03*
X192525000Y-42725000D03*
D38*
X47975000Y-84005000D03*
X47975000Y-83045000D03*
D34*
X49550000Y-105575000D03*
X51100000Y-105575000D03*
D18*
X43255000Y-86925000D03*
X42295000Y-86925000D03*
D39*
X54500000Y-22802540D03*
X54500000Y-29802540D03*
D40*
X52099949Y-24402489D03*
X52099949Y-27402489D03*
X52099949Y-31402489D03*
X56900051Y-32402489D03*
D18*
X42005000Y-92055000D03*
X41045000Y-92055000D03*
D23*
X46375000Y-96825000D03*
X46375000Y-97785000D03*
D17*
X25837500Y-58475000D03*
X25837500Y-61775000D03*
D20*
X66450000Y-32200000D03*
X63150000Y-32200000D03*
D17*
X28218750Y-77525000D03*
X28218750Y-80825000D03*
D41*
X52050152Y-85095200D03*
X51550025Y-85095200D03*
X51050152Y-85095200D03*
X50550025Y-85095200D03*
X50550025Y-82080214D03*
X51050152Y-82080214D03*
X51550025Y-82080214D03*
X52050152Y-82080214D03*
D42*
X51300089Y-83587707D03*
D38*
X52575000Y-88025000D03*
X52575000Y-87065000D03*
D17*
X249675000Y-115625000D03*
X249675000Y-118925000D03*
D20*
X152450000Y-32200000D03*
X149150000Y-32200000D03*
D22*
X49500000Y-97850000D03*
D17*
X244912500Y-77525000D03*
X244912500Y-80825000D03*
X259200000Y-58475000D03*
X259200000Y-61775000D03*
D43*
X48462500Y-32000000D03*
X50337500Y-32000000D03*
D38*
X47045000Y-84005000D03*
X47045000Y-83045000D03*
D17*
X249675000Y-39425000D03*
X249675000Y-42725000D03*
X21075000Y-115625000D03*
X21075000Y-118925000D03*
X125850000Y-58475000D03*
X125850000Y-61775000D03*
D44*
X51050000Y-101500000D03*
X51050000Y-103700000D03*
X49350000Y-103700000D03*
X49350000Y-101500000D03*
D17*
X159187500Y-96575000D03*
X159187500Y-99875000D03*
X102037500Y-96575000D03*
X102037500Y-99875000D03*
X183000000Y-58475000D03*
X183000000Y-61775000D03*
X80606250Y-115625000D03*
X80606250Y-118925000D03*
D45*
X50925165Y-88224924D03*
X50925165Y-88624975D03*
X50925165Y-89025025D03*
X50925165Y-89425076D03*
X50925165Y-89824873D03*
X50925165Y-90224924D03*
X50925165Y-90624975D03*
X50925165Y-91025025D03*
X50925165Y-91425076D03*
X50925165Y-91824873D03*
X50925165Y-92224924D03*
X50925165Y-92624975D03*
X50925165Y-93025025D03*
X50925165Y-93425076D03*
D46*
X49974949Y-94375038D03*
X49575152Y-94375038D03*
X49175102Y-94375038D03*
X48775051Y-94375038D03*
X48375000Y-94375038D03*
X47974949Y-94375038D03*
X47575152Y-94375038D03*
X47175102Y-94375038D03*
X46775051Y-94375038D03*
X46375000Y-94375038D03*
X45974949Y-94375038D03*
X45575152Y-94375038D03*
X45175102Y-94375038D03*
X44775051Y-94375038D03*
D45*
X43824835Y-93425076D03*
X43824835Y-93025025D03*
X43824835Y-92624975D03*
X43824835Y-92224924D03*
X43824835Y-91824873D03*
X43824835Y-91425076D03*
X43824835Y-91025025D03*
X43824835Y-90624975D03*
X43824835Y-90224924D03*
X43824835Y-89824873D03*
X43824835Y-89425076D03*
X43824835Y-89025025D03*
X43824835Y-88624975D03*
X43824835Y-88224924D03*
D46*
X44775051Y-87274962D03*
X45175102Y-87274962D03*
X45575152Y-87274962D03*
X45974949Y-87274962D03*
X46375000Y-87274962D03*
X46775051Y-87274962D03*
X47175102Y-87274962D03*
X47575152Y-87274962D03*
X47974949Y-87274962D03*
X48375000Y-87274962D03*
X48775051Y-87274962D03*
X49175102Y-87274962D03*
X49575152Y-87274962D03*
X49974949Y-87274962D03*
D47*
X47375000Y-90824873D03*
D17*
X152043750Y-115625000D03*
X152043750Y-118925000D03*
X121087500Y-96575000D03*
X121087500Y-99875000D03*
D48*
X58199975Y-71150876D03*
X51600025Y-71149606D03*
X58199975Y-74850394D03*
X51600025Y-74850394D03*
D17*
X59175000Y-115625000D03*
X59175000Y-118925000D03*
D49*
X51775000Y-78100000D03*
X53425000Y-78100000D03*
D50*
X52725000Y-102000000D03*
X52725000Y-103550000D03*
D17*
X78225000Y-39425000D03*
X78225000Y-42725000D03*
X97275000Y-39425000D03*
X97275000Y-42725000D03*
X221100000Y-58475000D03*
X221100000Y-61775000D03*
D20*
X295150000Y-127400000D03*
X291850000Y-127400000D03*
D17*
X32981250Y-96575000D03*
X32981250Y-99875000D03*
X187762500Y-77525000D03*
X187762500Y-80825000D03*
D26*
X44650000Y-81875000D03*
X44650000Y-80225000D03*
D22*
X46325000Y-101575000D03*
M02*
