M48
; DRILL file {KiCad (6.0.6-0)} date Friday, February 10, 2023 at 09:06:33 PM
; FORMAT={-:-/ absolute / metric / decimal}
; #@! TF.CreationDate,2023-02-10T21:06:33+09:00
; #@! TF.GenerationSoftware,Kicad,Pcbnew,(6.0.6-0)
; #@! TF.FileFunction,NonPlated,1,2,NPTH
FMAT,2
METRIC
; #@! TA.AperFunction,NonPlated,NPTH,ComponentDrill
T1C0.750
; #@! TA.AperFunction,NonPlated,NPTH,ComponentDrill
T2C1.200
; #@! TA.AperFunction,NonPlated,NPTH,ComponentDrill
T3C1.750
; #@! TA.AperFunction,NonPlated,NPTH,ComponentDrill
T4C3.048
; #@! TA.AperFunction,NonPlated,NPTH,ComponentDrill
T5C3.988
; #@! TA.AperFunction,NonPlated,NPTH,ComponentDrill
T6C4.000
%
G90
G05
T1
X42.343Y-22.309
X48.143Y-22.309
T2
X54.5Y-22.803
X54.5Y-29.803
T3
X23.495Y-28.575
X23.495Y-47.625
X23.495Y-123.825
X28.258Y-66.675
X30.639Y-85.725
X33.655Y-28.575
X33.655Y-47.625
X33.655Y-123.825
X35.401Y-104.775
X38.417Y-66.675
X40.799Y-85.725
X42.545Y-47.625
X42.545Y-123.825
X45.561Y-104.775
X52.07Y-66.675
X52.705Y-47.625
X52.705Y-123.825
X56.832Y-85.725
X61.595Y-28.575
X61.595Y-47.625
X61.595Y-123.825
X62.23Y-66.675
X66.358Y-104.775
X66.992Y-85.725
X71.12Y-66.675
X71.755Y-28.575
X71.755Y-47.625
X71.755Y-123.825
X75.882Y-85.725
X76.517Y-104.775
X80.645Y-28.575
X80.645Y-47.625
X81.28Y-66.675
X83.026Y-123.825
X85.407Y-104.775
X86.042Y-85.725
X90.17Y-66.675
X90.805Y-28.575
X90.805Y-47.625
X93.186Y-123.825
X94.932Y-85.725
X95.567Y-104.775
X99.695Y-28.575
X99.695Y-47.625
X100.33Y-66.675
X104.457Y-104.775
X105.093Y-85.725
X109.22Y-66.675
X109.855Y-28.575
X109.855Y-47.625
X113.983Y-85.725
X114.617Y-104.775
X118.745Y-28.575
X118.745Y-47.625
X119.38Y-66.675
X123.507Y-104.775
X124.142Y-85.725
X128.27Y-66.675
X128.905Y-28.575
X128.905Y-47.625
X133.032Y-85.725
X133.667Y-104.775
X137.795Y-47.625
X138.43Y-66.675
X142.558Y-104.775
X143.192Y-85.725
X147.32Y-28.575
X147.32Y-66.675
X147.955Y-47.625
X152.082Y-85.725
X152.718Y-104.775
X154.464Y-123.825
X156.845Y-47.625
X157.48Y-28.575
X157.48Y-66.675
X161.607Y-104.775
X162.243Y-85.725
X164.624Y-123.825
X166.37Y-28.575
X166.37Y-66.675
X167.005Y-47.625
X171.132Y-85.725
X171.767Y-104.775
X175.895Y-47.625
X176.53Y-28.575
X176.53Y-66.675
X180.657Y-104.775
X181.292Y-85.725
X185.42Y-28.575
X185.42Y-66.675
X186.055Y-47.625
X190.183Y-85.725
X190.817Y-104.775
X194.945Y-47.625
X195.58Y-28.575
X195.58Y-66.675
X199.707Y-104.775
X200.343Y-85.725
X204.47Y-28.575
X204.47Y-66.675
X205.105Y-47.625
X209.232Y-85.725
X209.867Y-104.775
X213.995Y-47.625
X214.63Y-28.575
X214.63Y-66.675
X218.757Y-104.775
X219.392Y-85.725
X223.52Y-66.675
X224.155Y-47.625
X225.901Y-123.825
X228.282Y-85.725
X228.917Y-104.775
X233.045Y-28.575
X233.045Y-47.625
X233.68Y-66.675
X236.061Y-123.825
X237.807Y-104.775
X238.442Y-85.725
X242.57Y-66.675
X243.205Y-28.575
X243.205Y-47.625
X247.332Y-85.725
X247.968Y-104.775
X252.095Y-28.575
X252.095Y-47.625
X252.095Y-123.825
X252.73Y-66.675
X257.493Y-85.725
X261.62Y-66.675
X262.255Y-28.575
X262.255Y-47.625
X262.255Y-123.825
X271.145Y-28.575
X271.145Y-104.775
X271.145Y-123.825
X271.78Y-66.675
X278.289Y-85.725
X280.67Y-47.625
X281.305Y-28.575
X281.305Y-104.775
X281.305Y-123.825
X285.433Y-66.675
X288.449Y-85.725
X290.195Y-28.575
X290.195Y-123.825
X290.83Y-47.625
X295.592Y-66.675
X300.355Y-28.575
X300.355Y-123.825
T4
X28.543Y-97.79
X52.419Y-97.79
X109.544Y-130.81
X209.544Y-130.81
X271.431Y-78.74
X273.812Y-40.64
X295.307Y-78.74
X297.688Y-40.64
T5
X28.543Y-113.0
X52.419Y-113.0
X109.544Y-115.6
X209.544Y-115.6
X271.431Y-93.95
X273.812Y-55.85
X295.307Y-93.95
X297.688Y-55.85
T6
X28.575Y-28.575
X28.575Y-47.625
X28.575Y-123.825
X33.337Y-66.675
X35.719Y-85.725
X40.481Y-104.775
X47.625Y-47.625
X47.625Y-123.825
X57.15Y-66.675
X61.912Y-85.725
X66.675Y-28.575
X66.675Y-47.625
X66.675Y-123.825
X71.438Y-104.775
X76.2Y-66.675
X80.962Y-85.725
X85.725Y-28.575
X85.725Y-47.625
X88.106Y-123.825
X90.487Y-104.775
X95.25Y-66.675
X100.012Y-85.725
X104.775Y-28.575
X104.775Y-47.625
X109.537Y-104.775
X114.3Y-66.675
X119.062Y-85.725
X123.825Y-28.575
X123.825Y-47.625
X128.588Y-104.775
X133.35Y-66.675
X138.112Y-85.725
X142.875Y-47.625
X147.637Y-104.775
X152.4Y-28.575
X152.4Y-66.675
X157.162Y-85.725
X159.544Y-123.825
X161.925Y-47.625
X166.688Y-104.775
X171.45Y-28.575
X171.45Y-66.675
X176.213Y-85.725
X180.975Y-47.625
X185.737Y-104.775
X190.5Y-28.575
X190.5Y-66.675
X195.262Y-85.725
X200.025Y-47.625
X204.787Y-104.775
X209.55Y-28.575
X209.55Y-66.675
X214.312Y-85.725
X219.075Y-47.625
X223.837Y-104.775
X228.6Y-66.675
X230.981Y-123.825
X233.362Y-85.725
X238.125Y-28.575
X238.125Y-47.625
X242.887Y-104.775
X247.65Y-66.675
X252.412Y-85.725
X257.175Y-28.575
X257.175Y-47.625
X257.175Y-123.825
X266.7Y-66.675
X276.225Y-28.575
X276.225Y-104.775
X276.225Y-123.825
X283.369Y-85.725
X285.75Y-47.625
X290.512Y-66.675
X295.275Y-28.575
X295.275Y-123.825
T0
M30
