G04 #@! TF.GenerationSoftware,KiCad,Pcbnew,(6.0.6-0)*
G04 #@! TF.CreationDate,2023-02-10T21:05:53+09:00*
G04 #@! TF.ProjectId,key-ripper,6b65792d-7269-4707-9065-722e6b696361,rev?*
G04 #@! TF.SameCoordinates,Original*
G04 #@! TF.FileFunction,Legend,Top*
G04 #@! TF.FilePolarity,Positive*
%FSLAX46Y46*%
G04 Gerber Fmt 4.6, Leading zero omitted, Abs format (unit mm)*
G04 Created by KiCad (PCBNEW (6.0.6-0)) date 2023-02-10 21:05:53*
%MOMM*%
%LPD*%
G01*
G04 APERTURE LIST*
%ADD10C,0.150000*%
%ADD11C,1.750000*%
%ADD12C,4.000000*%
%ADD13C,1.550000*%
%ADD14C,6.200000*%
%ADD15C,3.048000*%
%ADD16C,3.987800*%
%ADD17C,5.000000*%
%ADD18C,0.750013*%
%ADD19O,1.200000X1.800000*%
%ADD20O,1.200000X2.000000*%
%ADD21C,1.200000*%
%ADD22O,1.000000X2.000000*%
G04 APERTURE END LIST*
D10*
X53628571Y-24671428D02*
X53628571Y-24071428D01*
X53971428Y-24671428D01*
X53971428Y-24071428D01*
X54600000Y-24614285D02*
X54571428Y-24642857D01*
X54485714Y-24671428D01*
X54428571Y-24671428D01*
X54342857Y-24642857D01*
X54285714Y-24585714D01*
X54257142Y-24528571D01*
X54228571Y-24414285D01*
X54228571Y-24328571D01*
X54257142Y-24214285D01*
X54285714Y-24157142D01*
X54342857Y-24100000D01*
X54428571Y-24071428D01*
X54485714Y-24071428D01*
X54571428Y-24100000D01*
X54600000Y-24128571D01*
X53242857Y-27742857D02*
X53328571Y-27771428D01*
X53471428Y-27771428D01*
X53528571Y-27742857D01*
X53557142Y-27714285D01*
X53585714Y-27657142D01*
X53585714Y-27600000D01*
X53557142Y-27542857D01*
X53528571Y-27514285D01*
X53471428Y-27485714D01*
X53357142Y-27457142D01*
X53300000Y-27428571D01*
X53271428Y-27400000D01*
X53242857Y-27342857D01*
X53242857Y-27285714D01*
X53271428Y-27228571D01*
X53300000Y-27200000D01*
X53357142Y-27171428D01*
X53500000Y-27171428D01*
X53585714Y-27200000D01*
X53785714Y-27171428D02*
X53928571Y-27771428D01*
X54042857Y-27342857D01*
X54157142Y-27771428D01*
X54300000Y-27171428D01*
X54871428Y-27714285D02*
X54842857Y-27742857D01*
X54757142Y-27771428D01*
X54700000Y-27771428D01*
X54614285Y-27742857D01*
X54557142Y-27685714D01*
X54528571Y-27628571D01*
X54500000Y-27514285D01*
X54500000Y-27428571D01*
X54528571Y-27314285D01*
X54557142Y-27257142D01*
X54614285Y-27200000D01*
X54700000Y-27171428D01*
X54757142Y-27171428D01*
X54842857Y-27200000D01*
X54871428Y-27228571D01*
X55414285Y-27771428D02*
X55128571Y-27771428D01*
X55128571Y-27171428D01*
X55614285Y-27771428D02*
X55614285Y-27171428D01*
X55957142Y-27771428D02*
X55700000Y-27428571D01*
X55957142Y-27171428D02*
X55614285Y-27514285D01*
X53285714Y-31842857D02*
X53371428Y-31871428D01*
X53514285Y-31871428D01*
X53571428Y-31842857D01*
X53600000Y-31814285D01*
X53628571Y-31757142D01*
X53628571Y-31700000D01*
X53600000Y-31642857D01*
X53571428Y-31614285D01*
X53514285Y-31585714D01*
X53400000Y-31557142D01*
X53342857Y-31528571D01*
X53314285Y-31500000D01*
X53285714Y-31442857D01*
X53285714Y-31385714D01*
X53314285Y-31328571D01*
X53342857Y-31300000D01*
X53400000Y-31271428D01*
X53542857Y-31271428D01*
X53628571Y-31300000D01*
X53828571Y-31271428D02*
X53971428Y-31871428D01*
X54085714Y-31442857D01*
X54200000Y-31871428D01*
X54342857Y-31271428D01*
X54571428Y-31871428D02*
X54571428Y-31271428D01*
X54714285Y-31271428D01*
X54800000Y-31300000D01*
X54857142Y-31357142D01*
X54885714Y-31414285D01*
X54914285Y-31528571D01*
X54914285Y-31614285D01*
X54885714Y-31728571D01*
X54857142Y-31785714D01*
X54800000Y-31842857D01*
X54714285Y-31871428D01*
X54571428Y-31871428D01*
X56542857Y-34300000D02*
X56485714Y-34271428D01*
X56400000Y-34271428D01*
X56314285Y-34300000D01*
X56257142Y-34357142D01*
X56228571Y-34414285D01*
X56200000Y-34528571D01*
X56200000Y-34614285D01*
X56228571Y-34728571D01*
X56257142Y-34785714D01*
X56314285Y-34842857D01*
X56400000Y-34871428D01*
X56457142Y-34871428D01*
X56542857Y-34842857D01*
X56571428Y-34814285D01*
X56571428Y-34614285D01*
X56457142Y-34614285D01*
X56828571Y-34871428D02*
X56828571Y-34271428D01*
X57171428Y-34871428D01*
X57171428Y-34271428D01*
X57457142Y-34871428D02*
X57457142Y-34271428D01*
X57600000Y-34271428D01*
X57685714Y-34300000D01*
X57742857Y-34357142D01*
X57771428Y-34414285D01*
X57800000Y-34528571D01*
X57800000Y-34614285D01*
X57771428Y-34728571D01*
X57742857Y-34785714D01*
X57685714Y-34842857D01*
X57600000Y-34871428D01*
X57457142Y-34871428D01*
%LPC*%
D11*
X42545000Y-123825000D03*
D12*
X47625000Y-123825000D03*
D13*
X50165000Y-118745000D03*
X43815000Y-121285000D03*
D11*
X52705000Y-123825000D03*
X154463750Y-123825000D03*
X164623750Y-123825000D03*
D12*
X159543750Y-123825000D03*
D13*
X155733750Y-121285000D03*
X162083750Y-118745000D03*
X126365000Y-42545000D03*
D11*
X128905000Y-47625000D03*
D12*
X123825000Y-47625000D03*
D11*
X118745000Y-47625000D03*
D13*
X120015000Y-45085000D03*
X162877500Y-102235000D03*
X169227500Y-99695000D03*
D12*
X166687500Y-104775000D03*
D11*
X171767500Y-104775000D03*
X161607500Y-104775000D03*
D13*
X253365000Y-121285000D03*
D11*
X252095000Y-123825000D03*
D12*
X257175000Y-123825000D03*
D11*
X262255000Y-123825000D03*
D13*
X259715000Y-118745000D03*
D14*
X285700000Y-37300000D03*
X38100000Y-115500000D03*
D11*
X109855000Y-28575000D03*
X99695000Y-28575000D03*
D12*
X104775000Y-28575000D03*
D13*
X107315000Y-23495000D03*
X100965000Y-26035000D03*
D15*
X52419250Y-97790000D03*
X28543250Y-97790000D03*
D16*
X52419250Y-113000000D03*
X28543250Y-113000000D03*
D13*
X69215000Y-42545000D03*
D11*
X71755000Y-47625000D03*
X61595000Y-47625000D03*
D12*
X66675000Y-47625000D03*
D13*
X62865000Y-45085000D03*
D17*
X38100000Y-30300000D03*
D15*
X271430750Y-78740000D03*
X295306750Y-78740000D03*
D16*
X295306750Y-93950000D03*
X271430750Y-93950000D03*
D11*
X281305000Y-123825000D03*
D13*
X272415000Y-121285000D03*
D12*
X276225000Y-123825000D03*
D13*
X278765000Y-118745000D03*
D11*
X271145000Y-123825000D03*
D12*
X152400000Y-28575000D03*
D11*
X157480000Y-28575000D03*
X147320000Y-28575000D03*
D13*
X154940000Y-23495000D03*
X148590000Y-26035000D03*
D11*
X218757500Y-104775000D03*
D13*
X226377500Y-99695000D03*
D12*
X223837500Y-104775000D03*
D13*
X220027500Y-102235000D03*
D11*
X228917500Y-104775000D03*
X109220000Y-66675000D03*
D13*
X110490000Y-64135000D03*
D12*
X114300000Y-66675000D03*
D13*
X116840000Y-61595000D03*
D11*
X119380000Y-66675000D03*
X237807500Y-104775000D03*
D12*
X242887500Y-104775000D03*
D13*
X245427500Y-99695000D03*
D11*
X247967500Y-104775000D03*
D13*
X239077500Y-102235000D03*
D11*
X90170000Y-66675000D03*
D12*
X95250000Y-66675000D03*
D13*
X91440000Y-64135000D03*
D11*
X100330000Y-66675000D03*
D13*
X97790000Y-61595000D03*
D11*
X30638750Y-85725000D03*
D13*
X38258750Y-80645000D03*
D12*
X35718750Y-85725000D03*
D13*
X31908750Y-83185000D03*
D11*
X40798750Y-85725000D03*
D13*
X281940000Y-45085000D03*
X288290000Y-42545000D03*
D11*
X290830000Y-47625000D03*
D12*
X285750000Y-47625000D03*
D11*
X280670000Y-47625000D03*
X147320000Y-66675000D03*
X157480000Y-66675000D03*
D12*
X152400000Y-66675000D03*
D13*
X154940000Y-61595000D03*
X148590000Y-64135000D03*
D11*
X271780000Y-66675000D03*
D13*
X269240000Y-61595000D03*
D12*
X266700000Y-66675000D03*
D13*
X262890000Y-64135000D03*
D11*
X261620000Y-66675000D03*
D13*
X107315000Y-42545000D03*
D12*
X104775000Y-47625000D03*
D13*
X100965000Y-45085000D03*
D11*
X109855000Y-47625000D03*
X99695000Y-47625000D03*
D17*
X285700000Y-126400000D03*
D13*
X31115000Y-42545000D03*
D12*
X28575000Y-47625000D03*
D11*
X23495000Y-47625000D03*
D13*
X24765000Y-45085000D03*
D11*
X33655000Y-47625000D03*
D13*
X105727500Y-102235000D03*
D12*
X109537500Y-104775000D03*
D11*
X114617500Y-104775000D03*
D13*
X112077500Y-99695000D03*
D11*
X104457500Y-104775000D03*
X262255000Y-28575000D03*
D12*
X257175000Y-28575000D03*
D13*
X259715000Y-23495000D03*
X253365000Y-26035000D03*
D11*
X252095000Y-28575000D03*
D13*
X35877500Y-61595000D03*
D11*
X28257500Y-66675000D03*
D12*
X33337500Y-66675000D03*
D13*
X29527500Y-64135000D03*
D11*
X38417500Y-66675000D03*
D13*
X207327500Y-99695000D03*
D11*
X199707500Y-104775000D03*
X209867500Y-104775000D03*
D13*
X200977500Y-102235000D03*
D12*
X204787500Y-104775000D03*
D15*
X209543750Y-130810000D03*
D16*
X209543750Y-115600000D03*
D15*
X109543750Y-130810000D03*
D16*
X109543750Y-115600000D03*
D13*
X227171250Y-121285000D03*
D11*
X236061250Y-123825000D03*
D12*
X230981250Y-123825000D03*
D11*
X225901250Y-123825000D03*
D13*
X233521250Y-118745000D03*
X62865000Y-26035000D03*
D12*
X66675000Y-28575000D03*
D13*
X69215000Y-23495000D03*
D11*
X61595000Y-28575000D03*
X71755000Y-28575000D03*
D12*
X233362500Y-85725000D03*
D13*
X229552500Y-83185000D03*
X235902500Y-80645000D03*
D11*
X238442500Y-85725000D03*
X228282500Y-85725000D03*
D13*
X250190000Y-61595000D03*
D11*
X252730000Y-66675000D03*
D12*
X247650000Y-66675000D03*
D11*
X242570000Y-66675000D03*
D13*
X243840000Y-64135000D03*
X53340000Y-64135000D03*
D12*
X57150000Y-66675000D03*
D11*
X62230000Y-66675000D03*
D13*
X59690000Y-61595000D03*
D11*
X52070000Y-66675000D03*
D13*
X240665000Y-42545000D03*
X234315000Y-45085000D03*
D12*
X238125000Y-47625000D03*
D11*
X243205000Y-47625000D03*
X233045000Y-47625000D03*
D13*
X88265000Y-23495000D03*
D11*
X80645000Y-28575000D03*
D12*
X85725000Y-28575000D03*
D11*
X90805000Y-28575000D03*
D13*
X81915000Y-26035000D03*
D11*
X300355000Y-28575000D03*
D12*
X295275000Y-28575000D03*
D13*
X297815000Y-23495000D03*
X291465000Y-26035000D03*
D11*
X290195000Y-28575000D03*
X181292500Y-85725000D03*
D12*
X176212500Y-85725000D03*
D11*
X171132500Y-85725000D03*
D13*
X172402500Y-83185000D03*
X178752500Y-80645000D03*
D12*
X47625000Y-47625000D03*
D11*
X42545000Y-47625000D03*
D13*
X43815000Y-45085000D03*
D11*
X52705000Y-47625000D03*
D13*
X50165000Y-42545000D03*
X278765000Y-23495000D03*
D11*
X281305000Y-28575000D03*
D12*
X276225000Y-28575000D03*
D11*
X271145000Y-28575000D03*
D13*
X272415000Y-26035000D03*
D14*
X285700000Y-115500000D03*
D13*
X31115000Y-118745000D03*
D12*
X28575000Y-123825000D03*
D11*
X33655000Y-123825000D03*
D13*
X24765000Y-121285000D03*
D11*
X23495000Y-123825000D03*
D13*
X93027500Y-99695000D03*
D11*
X95567500Y-104775000D03*
X85407500Y-104775000D03*
D13*
X86677500Y-102235000D03*
D12*
X90487500Y-104775000D03*
D13*
X193040000Y-23495000D03*
D11*
X195580000Y-28575000D03*
D12*
X190500000Y-28575000D03*
D11*
X185420000Y-28575000D03*
D13*
X186690000Y-26035000D03*
D12*
X123825000Y-28575000D03*
D11*
X128905000Y-28575000D03*
X118745000Y-28575000D03*
D13*
X126365000Y-23495000D03*
X120015000Y-26035000D03*
X286702500Y-64135000D03*
D11*
X285432500Y-66675000D03*
D12*
X290512500Y-66675000D03*
D11*
X295592500Y-66675000D03*
D13*
X293052500Y-61595000D03*
X221615000Y-42545000D03*
D11*
X213995000Y-47625000D03*
D12*
X219075000Y-47625000D03*
D11*
X224155000Y-47625000D03*
D13*
X215265000Y-45085000D03*
D11*
X33655000Y-28575000D03*
D12*
X28575000Y-28575000D03*
D11*
X23495000Y-28575000D03*
D13*
X31115000Y-23495000D03*
X24765000Y-26035000D03*
X69215000Y-118745000D03*
D11*
X71755000Y-123825000D03*
X61595000Y-123825000D03*
D13*
X62865000Y-121285000D03*
D12*
X66675000Y-123825000D03*
D11*
X204470000Y-28575000D03*
D13*
X212090000Y-23495000D03*
D11*
X214630000Y-28575000D03*
D13*
X205740000Y-26035000D03*
D12*
X209550000Y-28575000D03*
X283368750Y-85725000D03*
D13*
X279558750Y-83185000D03*
D11*
X278288750Y-85725000D03*
D13*
X285908750Y-80645000D03*
D11*
X288448750Y-85725000D03*
D15*
X273812000Y-40640000D03*
D16*
X297688000Y-55850000D03*
D15*
X297688000Y-40640000D03*
D16*
X273812000Y-55850000D03*
D11*
X133032500Y-85725000D03*
D13*
X134302500Y-83185000D03*
X140652500Y-80645000D03*
D12*
X138112500Y-85725000D03*
D11*
X143192500Y-85725000D03*
X219392500Y-85725000D03*
X209232500Y-85725000D03*
D12*
X214312500Y-85725000D03*
D13*
X216852500Y-80645000D03*
X210502500Y-83185000D03*
D11*
X76517500Y-104775000D03*
D13*
X73977500Y-99695000D03*
X67627500Y-102235000D03*
D12*
X71437500Y-104775000D03*
D11*
X66357500Y-104775000D03*
D17*
X38100000Y-126400000D03*
D12*
X295275000Y-123825000D03*
D11*
X300355000Y-123825000D03*
X290195000Y-123825000D03*
D13*
X291465000Y-121285000D03*
X297815000Y-118745000D03*
D12*
X257175000Y-47625000D03*
D13*
X259715000Y-42545000D03*
D11*
X252095000Y-47625000D03*
X262255000Y-47625000D03*
D13*
X253365000Y-45085000D03*
D12*
X180975000Y-47625000D03*
D11*
X175895000Y-47625000D03*
D13*
X177165000Y-45085000D03*
X183515000Y-42545000D03*
D11*
X186055000Y-47625000D03*
X71120000Y-66675000D03*
D13*
X72390000Y-64135000D03*
D11*
X81280000Y-66675000D03*
D12*
X76200000Y-66675000D03*
D13*
X78740000Y-61595000D03*
X167640000Y-64135000D03*
X173990000Y-61595000D03*
D12*
X171450000Y-66675000D03*
D11*
X166370000Y-66675000D03*
X176530000Y-66675000D03*
X133667500Y-104775000D03*
D12*
X128587500Y-104775000D03*
D13*
X131127500Y-99695000D03*
X124777500Y-102235000D03*
D11*
X123507500Y-104775000D03*
X66992500Y-85725000D03*
D13*
X64452500Y-80645000D03*
D12*
X61912500Y-85725000D03*
D11*
X56832500Y-85725000D03*
D13*
X58102500Y-83185000D03*
X212090000Y-61595000D03*
X205740000Y-64135000D03*
D11*
X204470000Y-66675000D03*
D12*
X209550000Y-66675000D03*
D11*
X214630000Y-66675000D03*
D12*
X195262500Y-85725000D03*
D11*
X190182500Y-85725000D03*
D13*
X197802500Y-80645000D03*
X191452500Y-83185000D03*
D11*
X200342500Y-85725000D03*
D14*
X38100000Y-37300000D03*
D12*
X119062500Y-85725000D03*
D13*
X121602500Y-80645000D03*
X115252500Y-83185000D03*
D11*
X124142500Y-85725000D03*
X113982500Y-85725000D03*
X166370000Y-28575000D03*
X176530000Y-28575000D03*
D12*
X171450000Y-28575000D03*
D13*
X167640000Y-26035000D03*
X173990000Y-23495000D03*
D11*
X156845000Y-47625000D03*
D13*
X158115000Y-45085000D03*
D11*
X167005000Y-47625000D03*
D12*
X161925000Y-47625000D03*
D13*
X164465000Y-42545000D03*
D11*
X128270000Y-66675000D03*
D13*
X135890000Y-61595000D03*
D11*
X138430000Y-66675000D03*
D12*
X133350000Y-66675000D03*
D13*
X129540000Y-64135000D03*
D11*
X83026250Y-123825000D03*
D12*
X88106250Y-123825000D03*
D11*
X93186250Y-123825000D03*
D13*
X84296250Y-121285000D03*
X90646250Y-118745000D03*
D11*
X162242500Y-85725000D03*
D13*
X159702500Y-80645000D03*
D12*
X157162500Y-85725000D03*
D11*
X152082500Y-85725000D03*
D13*
X153352500Y-83185000D03*
X240665000Y-23495000D03*
D11*
X233045000Y-28575000D03*
D12*
X238125000Y-28575000D03*
D13*
X234315000Y-26035000D03*
D11*
X243205000Y-28575000D03*
X185420000Y-66675000D03*
D13*
X193040000Y-61595000D03*
X186690000Y-64135000D03*
D12*
X190500000Y-66675000D03*
D11*
X195580000Y-66675000D03*
X147955000Y-47625000D03*
D12*
X142875000Y-47625000D03*
D11*
X137795000Y-47625000D03*
D13*
X139065000Y-45085000D03*
X145415000Y-42545000D03*
D11*
X180657500Y-104775000D03*
D13*
X181927500Y-102235000D03*
D12*
X185737500Y-104775000D03*
D13*
X188277500Y-99695000D03*
D11*
X190817500Y-104775000D03*
X205105000Y-47625000D03*
X194945000Y-47625000D03*
D13*
X196215000Y-45085000D03*
D12*
X200025000Y-47625000D03*
D13*
X202565000Y-42545000D03*
D11*
X281305000Y-104775000D03*
X271145000Y-104775000D03*
D13*
X278765000Y-99695000D03*
D12*
X276225000Y-104775000D03*
D13*
X272415000Y-102235000D03*
D12*
X252412500Y-85725000D03*
D11*
X257492500Y-85725000D03*
D13*
X248602500Y-83185000D03*
X254952500Y-80645000D03*
D11*
X247332500Y-85725000D03*
X35401250Y-104775000D03*
D13*
X43021250Y-99695000D03*
X36671250Y-102235000D03*
D11*
X45561250Y-104775000D03*
D12*
X40481250Y-104775000D03*
D13*
X81915000Y-45085000D03*
D11*
X80645000Y-47625000D03*
X90805000Y-47625000D03*
D12*
X85725000Y-47625000D03*
D13*
X88265000Y-42545000D03*
D12*
X228600000Y-66675000D03*
D13*
X224790000Y-64135000D03*
X231140000Y-61595000D03*
D11*
X223520000Y-66675000D03*
X233680000Y-66675000D03*
X105092500Y-85725000D03*
X94932500Y-85725000D03*
D13*
X96202500Y-83185000D03*
D12*
X100012500Y-85725000D03*
D13*
X102552500Y-80645000D03*
D11*
X86042500Y-85725000D03*
D13*
X77152500Y-83185000D03*
D12*
X80962500Y-85725000D03*
D13*
X83502500Y-80645000D03*
D11*
X75882500Y-85725000D03*
D12*
X147637500Y-104775000D03*
D13*
X143827500Y-102235000D03*
D11*
X142557500Y-104775000D03*
X152717500Y-104775000D03*
D13*
X150177500Y-99695000D03*
D17*
X285700000Y-30300000D03*
D18*
X42342810Y-22309384D03*
X48142658Y-22309384D03*
D19*
X49567855Y-18609612D03*
D20*
X40917613Y-22809511D03*
D19*
X40917613Y-18609612D03*
D20*
X49567855Y-22809511D03*
D21*
X54500000Y-22802540D03*
X54500000Y-29802540D03*
D22*
X52099949Y-24402489D03*
X52099949Y-27402489D03*
X52099949Y-31402489D03*
X56900051Y-32402489D03*
M02*
