  0
SECTION
  2
HEADER
  9
$ANGBASE
  50
0.0
  9
$ANGDIR
  70
1
  9
$MEASUREMENT
  70
1
  0
ENDSEC
  0
SECTION
  2
TABLES
  0
TABLE
  2
LTYPE
  70
4
  0
LTYPE
  5
40F
  2
CONTINUOUS
  70
0
  3
Solid line
  72
65
  73
0
  40
0.0
  0
LTYPE
  5
410
  2
DASHDOT
 70
0
  3
Dash Dot ____ _ ____ _
 72
65
 73
4
 40
2.0
 49
1.25
 49
-0.25
 49
0.25
 49
-0.25
  0
LTYPE
  5
411
  2
DASHED
 70
0
  3
Dashed __ __ __ __ __
 72
65
 73
2
 40
0.75
 49
0.5
 49
-0.25
  0
LTYPE
  5
43B
  2
DOTTED
 70
0
  3
Dotted .  .  .  .
 72
65
 73
2
 40
0.2
 49
0.0
 49
-0.2
  0
ENDTAB
  0
TABLE
  2
STYLE
  70
4
  0
STYLE
  2
KICAD
  70
0
  40
0
  41
1
  42
1
  50
0
  71
0
  3
isocp.shx
  0
STYLE
  2
KICADB
  70
0
  40
0
  41
1
  42
1
  50
0
  71
0
  3
isocp.shx
  0
STYLE
  2
KICADI
  70
0
  40
0
  41
1
  42
1
  50
15
  71
0
  3
isocp.shx
  0
STYLE
  2
KICADBI
  70
0
  40
0
  41
1
  42
1
  50
15
  71
0
  3
isocp.shx
  0
ENDTAB
  0
TABLE
  2
LAYER
  70
1
  0
LAYER
  2
BLACK
  70
0
  62
7
  6
CONTINUOUS
  0
ENDTAB
  0
ENDSEC
  0
SECTION
  2
ENTITIES
0
LINE
8
BLACK
6
CONTINUOUS
10
40.4812
20
-19.05
11
38.1
21
-21.4312
0
LINE
8
BLACK
6
CONTINUOUS
10
302.419
20
-135.731
11
21.4312
21
-135.731
0
LINE
8
BLACK
6
CONTINUOUS
10
50.0062
20
-19.05
11
52.3875
21
-21.4312
0
LINE
8
BLACK
6
CONTINUOUS
10
40.4812
20
-19.05
11
50.0062
21
-19.05
0
ARC
8
BLACK
10
302.419
20
-23.8126
40
2.38135
50
0.00240607
51
89.9988
0
LINE
8
BLACK
6
CONTINUOUS
10
19.05
20
-133.35
11
19.05
21
-23.8125
0
LINE
8
BLACK
6
CONTINUOUS
10
52.3875
20
-21.4312
11
302.419
21
-21.4312
0
LINE
8
BLACK
6
CONTINUOUS
10
21.4312
20
-21.4312
11
38.1
21
-21.4312
0
ARC
8
BLACK
10
21.4312
20
-23.8125
40
2.38125
50
90
51
180
0
ARC
8
BLACK
10
21.4312
20
-133.35
40
2.38125
50
-180
51
-90
0
LINE
8
BLACK
6
CONTINUOUS
10
304.8
20
-23.8125
11
304.8
21
-133.35
0
ARC
8
BLACK
10
302.419
20
-133.35
40
2.3813
50
-89.9988
51
-0.00240607
0
LINE
8
BLACK
6
CONTINUOUS
10
269.225
20
-119.706
11
269.225
21
-132.697
0
LINE
8
BLACK
6
CONTINUOUS
10
269.725
20
-119.206
11
282.725
21
-119.206
0
LINE
8
BLACK
6
CONTINUOUS
10
269.725
20
-133.197
11
282.725
21
-133.206
0
LINE
8
BLACK
6
CONTINUOUS
10
283.225
20
-119.706
11
283.225
21
-132.706
0
ARC
8
BLACK
10
282.725
20
-132.706
40
0.5
50
-90
51
-0
0
ARC
8
BLACK
10
282.725
20
-119.706
40
0.5
50
-0
51
90
0
ARC
8
BLACK
10
269.725
20
-119.706
40
0.500001
50
90.0001
51
180
0
ARC
8
BLACK
10
269.725
20
-132.697
40
0.500001
50
-180
51
-90.0001
0
LINE
8
BLACK
6
CONTINUOUS
10
223.981
20
-119.706
11
223.981
21
-132.697
0
LINE
8
BLACK
6
CONTINUOUS
10
224.481
20
-133.197
11
237.481
21
-133.206
0
LINE
8
BLACK
6
CONTINUOUS
10
224.481
20
-119.206
11
237.481
21
-119.206
0
LINE
8
BLACK
6
CONTINUOUS
10
237.981
20
-119.706
11
237.981
21
-132.706
0
ARC
8
BLACK
10
237.481
20
-132.706
40
0.5
50
-90
51
-0
0
ARC
8
BLACK
10
237.481
20
-119.706
40
0.5
50
-0
51
90
0
ARC
8
BLACK
10
224.481
20
-119.706
40
0.500001
50
90.0001
51
180
0
ARC
8
BLACK
10
224.481
20
-132.697
40
0.500001
50
-180
51
-90.0001
0
LINE
8
BLACK
6
CONTINUOUS
10
83.4875
20
-100.656
11
83.4875
21
-113.647
0
LINE
8
BLACK
6
CONTINUOUS
10
83.9875
20
-100.156
11
96.9875
21
-100.156
0
LINE
8
BLACK
6
CONTINUOUS
10
97.4875
20
-100.656
11
97.4875
21
-113.656
0
LINE
8
BLACK
6
CONTINUOUS
10
83.9875
20
-114.147
11
96.9875
21
-114.156
0
ARC
8
BLACK
10
96.9875
20
-113.656
40
0.5
50
-90
51
-0
0
ARC
8
BLACK
10
83.9875
20
-113.647
40
0.500001
50
-180
51
-90.0001
0
ARC
8
BLACK
10
83.9875
20
-100.656
40
0.500001
50
90.0001
51
180
0
ARC
8
BLACK
10
96.9875
20
-100.656
40
0.5
50
-0
51
90
0
LINE
8
BLACK
6
CONTINUOUS
10
93.0125
20
-81.6063
11
93.0125
21
-94.5972
0
LINE
8
BLACK
6
CONTINUOUS
10
107.012
20
-81.6063
11
107.012
21
-94.6062
0
LINE
8
BLACK
6
CONTINUOUS
10
93.5125
20
-81.1063
11
106.512
21
-81.1063
0
LINE
8
BLACK
6
CONTINUOUS
10
93.5125
20
-95.0972
11
106.512
21
-95.1062
0
ARC
8
BLACK
10
93.5125
20
-81.6063
40
0.500001
50
90.0001
51
180
0
ARC
8
BLACK
10
106.512
20
-94.6062
40
0.5
50
-90
51
-0
0
ARC
8
BLACK
10
106.512
20
-81.6063
40
0.5
50
-0
51
90
0
ARC
8
BLACK
10
93.5125
20
-94.5972
40
0.500001
50
-180
51
-90.0001
0
LINE
8
BLACK
6
CONTINUOUS
10
187.975
20
-43.5063
11
187.975
21
-56.5062
0
LINE
8
BLACK
6
CONTINUOUS
10
173.975
20
-43.5063
11
173.975
21
-56.4972
0
LINE
8
BLACK
6
CONTINUOUS
10
174.475
20
-43.0063
11
187.475
21
-43.0063
0
LINE
8
BLACK
6
CONTINUOUS
10
174.475
20
-56.9972
11
187.475
21
-57.0062
0
ARC
8
BLACK
10
174.475
20
-43.5063
40
0.500001
50
90.0001
51
180
0
ARC
8
BLACK
10
187.475
20
-43.5063
40
0.5
50
-0
51
90
0
ARC
8
BLACK
10
187.475
20
-56.5062
40
0.5
50
-90
51
-0
0
ARC
8
BLACK
10
174.475
20
-56.4972
40
0.500001
50
-180
51
-90.0001
0
LINE
8
BLACK
6
CONTINUOUS
10
231.625
20
-56.9972
11
244.625
21
-57.0062
0
LINE
8
BLACK
6
CONTINUOUS
10
231.625
20
-43.0063
11
244.625
21
-43.0063
0
LINE
8
BLACK
6
CONTINUOUS
10
231.125
20
-43.5063
11
231.125
21
-56.4972
0
LINE
8
BLACK
6
CONTINUOUS
10
245.125
20
-43.5063
11
245.125
21
-56.5062
0
ARC
8
BLACK
10
244.625
20
-43.5063
40
0.5
50
-0
51
90
0
ARC
8
BLACK
10
231.625
20
-56.4972
40
0.500001
50
-180
51
-90.0001
0
ARC
8
BLACK
10
244.625
20
-56.5062
40
0.5
50
-90
51
-0
0
ARC
8
BLACK
10
231.625
20
-43.5063
40
0.500001
50
90.0001
51
180
0
LINE
8
BLACK
6
CONTINUOUS
10
288.775
20
-37.9472
11
301.775
21
-37.9562
0
LINE
8
BLACK
6
CONTINUOUS
10
288.775
20
-23.9562
11
301.775
21
-23.9562
0
LINE
8
BLACK
6
CONTINUOUS
10
288.275
20
-24.4562
11
288.275
21
-37.4472
0
LINE
8
BLACK
6
CONTINUOUS
10
302.275
20
-24.4562
11
302.275
21
-37.4562
0
ARC
8
BLACK
10
301.775
20
-37.4562
40
0.5
50
-90
51
-0
0
ARC
8
BLACK
10
301.775
20
-24.4562
40
0.5
50
-0
51
90
0
ARC
8
BLACK
10
288.775
20
-37.4472
40
0.500001
50
-180
51
-90.0001
0
ARC
8
BLACK
10
288.775
20
-24.4563
40
0.500001
50
90.0001
51
180
0
LINE
8
BLACK
6
CONTINUOUS
10
288.275
20
-119.706
11
288.275
21
-132.697
0
LINE
8
BLACK
6
CONTINUOUS
10
302.275
20
-119.706
11
302.275
21
-132.706
0
LINE
8
BLACK
6
CONTINUOUS
10
288.775
20
-133.197
11
301.775
21
-133.206
0
LINE
8
BLACK
6
CONTINUOUS
10
288.775
20
-119.206
11
301.775
21
-119.206
0
ARC
8
BLACK
10
301.775
20
-132.706
40
0.5
50
-90
51
-0
0
ARC
8
BLACK
10
288.775
20
-132.697
40
0.500001
50
-180
51
-90.0001
0
ARC
8
BLACK
10
288.775
20
-119.706
40
0.500001
50
90.0001
51
180
0
ARC
8
BLACK
10
301.775
20
-119.706
40
0.5
50
-0
51
90
0
LINE
8
BLACK
6
CONTINUOUS
10
98.275
20
-43.0063
11
111.275
21
-43.0063
0
LINE
8
BLACK
6
CONTINUOUS
10
97.775
20
-43.5063
11
97.775
21
-56.4972
0
LINE
8
BLACK
6
CONTINUOUS
10
111.775
20
-43.5063
11
111.775
21
-56.5062
0
LINE
8
BLACK
6
CONTINUOUS
10
98.275
20
-56.9972
11
111.275
21
-57.0062
0
ARC
8
BLACK
10
111.275
20
-56.5062
40
0.5
50
-90
51
-0
0
ARC
8
BLACK
10
111.275
20
-43.5063
40
0.5
50
-0
51
90
0
ARC
8
BLACK
10
98.275
20
-43.5063
40
0.500001
50
90.0001
51
180
0
ARC
8
BLACK
10
98.275
20
-56.4972
40
0.500001
50
-180
51
-90.0001
0
LINE
8
BLACK
6
CONTINUOUS
10
128.444
20
-24.4562
11
128.444
21
-37.4562
0
LINE
8
BLACK
6
CONTINUOUS
10
114.944
20
-23.9562
11
127.944
21
-23.9562
0
LINE
8
BLACK
6
CONTINUOUS
10
114.944
20
-37.9472
11
127.944
21
-37.9562
0
LINE
8
BLACK
6
CONTINUOUS
10
114.444
20
-24.4562
11
114.444
21
-37.4472
0
ARC
8
BLACK
10
114.944
20
-37.4472
40
0.500001
50
-180
51
-90.0001
0
ARC
8
BLACK
10
127.944
20
-37.4562
40
0.5
50
-90
51
-0
0
ARC
8
BLACK
10
114.944
20
-24.4563
40
0.500001
50
90.0001
51
180
0
ARC
8
BLACK
10
127.944
20
-24.4562
40
0.5
50
-0
51
90
0
LINE
8
BLACK
6
CONTINUOUS
10
88.25
20
-62.5562
11
88.25
21
-75.5472
0
LINE
8
BLACK
6
CONTINUOUS
10
102.25
20
-62.5562
11
102.25
21
-75.5562
0
LINE
8
BLACK
6
CONTINUOUS
10
88.75
20
-76.0472
11
101.75
21
-76.0562
0
LINE
8
BLACK
6
CONTINUOUS
10
88.75
20
-62.0562
11
101.75
21
-62.0562
0
ARC
8
BLACK
10
88.75
20
-75.5472
40
0.500001
50
-180
51
-90.0001
0
ARC
8
BLACK
10
101.75
20
-62.5562
40
0.5
50
-0
51
90
0
ARC
8
BLACK
10
88.75
20
-62.5563
40
0.500001
50
90.0001
51
180
0
ARC
8
BLACK
10
101.75
20
-75.5562
40
0.5
50
-90
51
-0
0
LINE
8
BLACK
6
CONTINUOUS
10
217.337
20
-100.156
11
230.337
21
-100.156
0
LINE
8
BLACK
6
CONTINUOUS
10
217.337
20
-114.147
11
230.337
21
-114.156
0
LINE
8
BLACK
6
CONTINUOUS
10
216.837
20
-100.656
11
216.837
21
-113.647
0
LINE
8
BLACK
6
CONTINUOUS
10
230.837
20
-100.656
11
230.837
21
-113.656
0
ARC
8
BLACK
10
230.337
20
-113.656
40
0.5
50
-90
51
-0
0
ARC
8
BLACK
10
217.338
20
-100.656
40
0.500001
50
90.0001
51
180
0
ARC
8
BLACK
10
217.338
20
-113.647
40
0.500001
50
-180
51
-90.0001
0
ARC
8
BLACK
10
230.337
20
-100.656
40
0.5
50
-0
51
90
0
LINE
8
BLACK
6
CONTINUOUS
10
57.2937
20
-24.4562
11
57.2937
21
-37.4472
0
LINE
8
BLACK
6
CONTINUOUS
10
71.2938
20
-24.4562
11
71.2938
21
-37.4562
0
LINE
8
BLACK
6
CONTINUOUS
10
57.7937
20
-37.9472
11
70.7938
21
-37.9562
0
LINE
8
BLACK
6
CONTINUOUS
10
57.7937
20
-23.9562
11
70.7938
21
-23.9562
0
ARC
8
BLACK
10
57.7938
20
-24.4563
40
0.500001
50
90.0001
51
180
0
ARC
8
BLACK
10
70.7938
20
-37.4562
40
0.5
50
-90
51
-0
0
ARC
8
BLACK
10
57.7938
20
-37.4472
40
0.500001
50
-180
51
-90.0001
0
ARC
8
BLACK
10
70.7938
20
-24.4562
40
0.5
50
-0
51
90
0
LINE
8
BLACK
6
CONTINUOUS
10
168.925
20
-43.5063
11
168.925
21
-56.5062
0
LINE
8
BLACK
6
CONTINUOUS
10
155.425
20
-43.0063
11
168.425
21
-43.0063
0
LINE
8
BLACK
6
CONTINUOUS
10
155.425
20
-56.9972
11
168.425
21
-57.0062
0
LINE
8
BLACK
6
CONTINUOUS
10
154.925
20
-43.5063
11
154.925
21
-56.4972
0
ARC
8
BLACK
10
155.425
20
-56.4972
40
0.500001
50
-180
51
-90.0001
0
ARC
8
BLACK
10
168.425
20
-43.5063
40
0.5
50
-0
51
90
0
ARC
8
BLACK
10
155.425
20
-43.5063
40
0.500001
50
90.0001
51
180
0
ARC
8
BLACK
10
168.425
20
-56.5062
40
0.5
50
-90
51
-0
0
LINE
8
BLACK
6
CONTINUOUS
10
141.137
20
-100.156
11
154.137
21
-100.156
0
LINE
8
BLACK
6
CONTINUOUS
10
140.637
20
-100.656
11
140.637
21
-113.647
0
LINE
8
BLACK
6
CONTINUOUS
10
141.137
20
-114.147
11
154.137
21
-114.156
0
LINE
8
BLACK
6
CONTINUOUS
10
154.637
20
-100.656
11
154.637
21
-113.656
0
ARC
8
BLACK
10
154.137
20
-113.656
40
0.5
50
-90
51
-0
0
ARC
8
BLACK
10
141.138
20
-100.656
40
0.500001
50
90.0001
51
180
0
ARC
8
BLACK
10
141.138
20
-113.647
40
0.500001
50
-180
51
-90.0001
0
ARC
8
BLACK
10
154.137
20
-100.656
40
0.5
50
-0
51
90
0
LINE
8
BLACK
6
CONTINUOUS
10
226.862
20
-95.0972
11
239.862
21
-95.1062
0
LINE
8
BLACK
6
CONTINUOUS
10
226.862
20
-81.1063
11
239.862
21
-81.1063
0
LINE
8
BLACK
6
CONTINUOUS
10
226.362
20
-81.6063
11
226.362
21
-94.5972
0
LINE
8
BLACK
6
CONTINUOUS
10
240.362
20
-81.6063
11
240.362
21
-94.6062
0
ARC
8
BLACK
10
226.863
20
-94.5972
40
0.500001
50
-180
51
-90.0001
0
ARC
8
BLACK
10
239.862
20
-81.6063
40
0.5
50
-0
51
90
0
ARC
8
BLACK
10
239.862
20
-94.6062
40
0.5
50
-90
51
-0
0
ARC
8
BLACK
10
226.863
20
-81.6063
40
0.500001
50
90.0001
51
180
0
LINE
8
BLACK
6
CONTINUOUS
10
250.675
20
-119.206
11
263.675
21
-119.206
0
LINE
8
BLACK
6
CONTINUOUS
10
250.675
20
-133.197
11
263.675
21
-133.206
0
LINE
8
BLACK
6
CONTINUOUS
10
264.175
20
-119.706
11
264.175
21
-132.706
0
LINE
8
BLACK
6
CONTINUOUS
10
250.175
20
-119.706
11
250.175
21
-132.697
0
ARC
8
BLACK
10
263.675
20
-132.706
40
0.5
50
-90
51
-0
0
ARC
8
BLACK
10
263.675
20
-119.706
40
0.5
50
-0
51
90
0
ARC
8
BLACK
10
250.675
20
-119.706
40
0.500001
50
90.0001
51
180
0
ARC
8
BLACK
10
250.675
20
-132.697
40
0.500001
50
-180
51
-90.0001
0
LINE
8
BLACK
6
CONTINUOUS
10
169.713
20
-95.0972
11
182.713
21
-95.1062
0
LINE
8
BLACK
6
CONTINUOUS
10
169.713
20
-81.1063
11
182.713
21
-81.1063
0
LINE
8
BLACK
6
CONTINUOUS
10
183.213
20
-81.6063
11
183.213
21
-94.6062
0
LINE
8
BLACK
6
CONTINUOUS
10
169.213
20
-81.6063
11
169.213
21
-94.5972
0
ARC
8
BLACK
10
182.713
20
-81.6063
40
0.5
50
-0
51
90
0
ARC
8
BLACK
10
182.713
20
-94.6062
40
0.5
50
-90
51
-0
0
ARC
8
BLACK
10
169.713
20
-81.6063
40
0.500001
50
90.0001
51
180
0
ARC
8
BLACK
10
169.713
20
-94.5972
40
0.500001
50
-180
51
-90.0001
0
LINE
8
BLACK
6
CONTINUOUS
10
231.625
20
-23.9562
11
244.625
21
-23.9562
0
LINE
8
BLACK
6
CONTINUOUS
10
245.125
20
-24.4562
11
245.125
21
-37.4562
0
LINE
8
BLACK
6
CONTINUOUS
10
231.625
20
-37.9472
11
244.625
21
-37.9562
0
LINE
8
BLACK
6
CONTINUOUS
10
231.125
20
-24.4562
11
231.125
21
-37.4472
0
ARC
8
BLACK
10
231.625
20
-24.4563
40
0.500001
50
90.0001
51
180
0
ARC
8
BLACK
10
231.625
20
-37.4472
40
0.500001
50
-180
51
-90.0001
0
ARC
8
BLACK
10
244.625
20
-24.4562
40
0.5
50
-0
51
90
0
ARC
8
BLACK
10
244.625
20
-37.4562
40
0.5
50
-90
51
-0
0
LINE
8
BLACK
6
CONTINUOUS
10
145.9
20
-62.0562
11
158.9
21
-62.0562
0
LINE
8
BLACK
6
CONTINUOUS
10
145.4
20
-62.5562
11
145.4
21
-75.5472
0
LINE
8
BLACK
6
CONTINUOUS
10
159.4
20
-62.5562
11
159.4
21
-75.5562
0
LINE
8
BLACK
6
CONTINUOUS
10
145.9
20
-76.0472
11
158.9
21
-76.0562
0
ARC
8
BLACK
10
145.9
20
-75.5472
40
0.500001
50
-180
51
-90.0001
0
ARC
8
BLACK
10
158.9
20
-62.5562
40
0.5
50
-0
51
90
0
ARC
8
BLACK
10
158.9
20
-75.5562
40
0.5
50
-90
51
-0
0
ARC
8
BLACK
10
145.9
20
-62.5563
40
0.500001
50
90.0001
51
180
0
LINE
8
BLACK
6
CONTINUOUS
10
267.969
20
-88.6062
11
267.969
21
-94.6062
0
LINE
8
BLACK
6
CONTINUOUS
10
291.519
20
-83.6062
11
290.869
21
-83.6062
0
LINE
8
BLACK
6
CONTINUOUS
10
296.544
20
-96.1062
11
294.244
21
-96.1062
0
LINE
8
BLACK
6
CONTINUOUS
10
290.369
20
-81.6062
11
290.369
21
-83.1062
0
LINE
8
BLACK
6
CONTINUOUS
10
267.969
20
-83.1062
11
267.969
21
-85.8062
0
LINE
8
BLACK
6
CONTINUOUS
10
275.219
20
-83.6062
11
275.869
21
-83.6062
0
LINE
8
BLACK
6
CONTINUOUS
10
276.869
20
-81.1062
11
289.869
21
-81.1062
0
LINE
8
BLACK
6
CONTINUOUS
10
270.194
20
-96.1062
11
272.494
21
-96.1062
0
LINE
8
BLACK
6
CONTINUOUS
10
298.769
20
-83.1062
11
298.769
21
-85.8062
0
LINE
8
BLACK
6
CONTINUOUS
10
276.869
20
-95.1062
11
289.869
21
-95.1062
0
LINE
8
BLACK
6
CONTINUOUS
10
299.469
20
-86.0062
11
299.469
21
-88.4062
0
LINE
8
BLACK
6
CONTINUOUS
10
298.769
20
-88.6062
11
298.769
21
-94.6062
0
LINE
8
BLACK
6
CONTINUOUS
10
268.469
20
-95.1062
11
269.194
21
-95.1062
0
LINE
8
BLACK
6
CONTINUOUS
10
298.269
20
-95.1062
11
297.544
21
-95.1062
0
LINE
8
BLACK
6
CONTINUOUS
10
298.269
20
-82.6062
11
292.519
21
-82.6062
0
LINE
8
BLACK
6
CONTINUOUS
10
273.494
20
-95.1062
11
274.219
21
-95.1062
0
LINE
8
BLACK
6
CONTINUOUS
10
267.269
20
-86.0062
11
267.269
21
-88.4062
0
LINE
8
BLACK
6
CONTINUOUS
10
291.519
20
-94.1062
11
290.869
21
-94.1062
0
LINE
8
BLACK
6
CONTINUOUS
10
299.269
20
-88.6062
11
298.769
21
-88.6062
0
LINE
8
BLACK
6
CONTINUOUS
10
268.469
20
-82.6062
11
274.219
21
-82.6062
0
LINE
8
BLACK
6
CONTINUOUS
10
267.469
20
-85.8062
11
267.969
21
-85.8062
0
LINE
8
BLACK
6
CONTINUOUS
10
275.219
20
-94.1062
11
275.869
21
-94.1062
0
LINE
8
BLACK
6
CONTINUOUS
10
299.269
20
-85.8062
11
298.769
21
-85.8062
0
LINE
8
BLACK
6
CONTINUOUS
10
293.244
20
-95.1062
11
292.519
21
-95.1062
0
LINE
8
BLACK
6
CONTINUOUS
10
267.469
20
-88.6062
11
267.969
21
-88.6062
0
LINE
8
BLACK
6
CONTINUOUS
10
276.369
20
-81.6062
11
276.369
21
-83.1062
0
ARC
8
BLACK
10
276.869
20
-81.6062
40
0.500001
50
90.0001
51
180
0
ARC
8
BLACK
10
290.869
20
-83.1063
40
0.499987
50
-180.001
51
-90.0001
0
ARC
8
BLACK
10
274.219
20
-83.1062
40
0.500001
50
0.000114591
51
89.9999
0
ARC
8
BLACK
10
292.519
20
-83.1063
40
0.500001
50
90.0001
51
179.999
0
ARC
8
BLACK
10
298.269
20
-94.6062
40
0.499999
50
-90.0001
51
0.00148969
0
ARC
8
BLACK
10
267.469
20
-86.0062
40
0.200001
50
90.0003
51
180
0
ARC
8
BLACK
10
269.194
20
-95.6062
40
0.500001
50
0.000114591
51
89.9999
0
ARC
8
BLACK
10
267.469
20
-88.4062
40
0.200001
50
-180
51
-90.0003
0
ARC
8
BLACK
10
289.869
20
-81.6063
40
0.500013
50
0.00148969
51
90.0001
0
ARC
8
BLACK
10
275.219
20
-83.1062
40
0.500001
50
-180
51
-90.0001
0
ARC
8
BLACK
10
273.494
20
-95.6062
40
0.500001
50
90.0001
51
180
0
ARC
8
BLACK
10
293.244
20
-95.6062
40
0.500013
50
0.00148969
51
90.0001
0
ARC
8
BLACK
10
275.869
20
-83.1062
40
0.500001
50
-89.9999
51
-0.000114591
0
ARC
8
BLACK
10
289.869
20
-94.6062
40
0.499999
50
-90.0001
51
0.00148969
0
ARC
8
BLACK
10
298.269
20
-83.1063
40
0.500013
50
0.00148969
51
90.0001
0
ARC
8
BLACK
10
296.544
20
-95.6062
40
0.499999
50
-90.0001
51
0.00148969
0
ARC
8
BLACK
10
270.194
20
-95.6062
40
0.500001
50
-180
51
-90.0001
0
ARC
8
BLACK
10
275.219
20
-94.6062
40
0.500001
50
90.0001
51
180
0
ARC
8
BLACK
10
274.219
20
-94.6062
40
0.500001
50
-89.9999
51
-0.000114591
0
ARC
8
BLACK
10
290.869
20
-94.6062
40
0.500001
50
90.0001
51
179.999
0
ARC
8
BLACK
10
268.469
20
-83.1062
40
0.500001
50
90.0001
51
180
0
ARC
8
BLACK
10
299.269
20
-88.4062
40
0.199999
50
-90.0003
51
0.00372424
0
ARC
8
BLACK
10
272.494
20
-95.6062
40
0.500001
50
-89.9999
51
-0.000114591
0
ARC
8
BLACK
10
292.519
20
-94.6062
40
0.499987
50
-180.001
51
-90.0001
0
ARC
8
BLACK
10
297.544
20
-95.6062
40
0.500001
50
90.0001
51
179.999
0
ARC
8
BLACK
10
268.469
20
-94.6062
40
0.500001
50
-180
51
-90.0001
0
ARC
8
BLACK
10
275.869
20
-94.6062
40
0.500001
50
0.000114591
51
89.9999
0
ARC
8
BLACK
10
291.519
20
-94.6062
40
0.500013
50
0.00148969
51
90.0001
0
ARC
8
BLACK
10
291.519
20
-83.1063
40
0.499999
50
-90.0001
51
0.00148969
0
ARC
8
BLACK
10
276.869
20
-94.6062
40
0.500001
50
-180
51
-90.0001
0
ARC
8
BLACK
10
299.269
20
-86.0062
40
0.200013
50
0.00372424
51
90.0003
0
ARC
8
BLACK
10
294.244
20
-95.6062
40
0.499987
50
-180.001
51
-90.0001
0
LINE
8
BLACK
6
CONTINUOUS
10
150.162
20
-81.6063
11
150.162
21
-94.5972
0
LINE
8
BLACK
6
CONTINUOUS
10
150.662
20
-81.1063
11
163.662
21
-81.1063
0
LINE
8
BLACK
6
CONTINUOUS
10
150.662
20
-95.0972
11
163.662
21
-95.1062
0
LINE
8
BLACK
6
CONTINUOUS
10
164.162
20
-81.6063
11
164.162
21
-94.6062
0
ARC
8
BLACK
10
163.662
20
-94.6062
40
0.5
50
-90
51
-0
0
ARC
8
BLACK
10
163.662
20
-81.6063
40
0.5
50
-0
51
90
0
ARC
8
BLACK
10
150.663
20
-94.5972
40
0.500001
50
-180
51
-90.0001
0
ARC
8
BLACK
10
150.663
20
-81.6063
40
0.500001
50
90.0001
51
180
0
LINE
8
BLACK
6
CONTINUOUS
10
92.725
20
-43.5063
11
92.725
21
-56.5062
0
LINE
8
BLACK
6
CONTINUOUS
10
79.225
20
-43.0063
11
92.225
21
-43.0063
0
LINE
8
BLACK
6
CONTINUOUS
10
79.225
20
-56.9972
11
92.225
21
-57.0062
0
LINE
8
BLACK
6
CONTINUOUS
10
78.725
20
-43.5063
11
78.725
21
-56.4972
0
ARC
8
BLACK
10
79.225
20
-56.4972
40
0.500001
50
-180
51
-90.0001
0
ARC
8
BLACK
10
79.225
20
-43.5063
40
0.500001
50
90.0001
51
180
0
ARC
8
BLACK
10
92.225
20
-56.5062
40
0.5
50
-90
51
-0
0
ARC
8
BLACK
10
92.225
20
-43.5063
40
0.5
50
-0
51
90
0
LINE
8
BLACK
6
CONTINUOUS
10
21.575
20
-24.4562
11
21.575
21
-37.4472
0
LINE
8
BLACK
6
CONTINUOUS
10
35.575
20
-24.4562
11
35.575
21
-37.4562
0
LINE
8
BLACK
6
CONTINUOUS
10
22.075
20
-23.9562
11
35.075
21
-23.9562
0
LINE
8
BLACK
6
CONTINUOUS
10
22.075
20
-37.9472
11
35.075
21
-37.9562
0
ARC
8
BLACK
10
22.075
20
-24.4563
40
0.500001
50
90.0001
51
180
0
ARC
8
BLACK
10
35.075
20
-37.4562
40
0.5
50
-90
51
-0
0
ARC
8
BLACK
10
35.075
20
-24.4562
40
0.5
50
-0
51
90
0
ARC
8
BLACK
10
22.075
20
-37.4472
40
0.500001
50
-180
51
-90.0001
0
LINE
8
BLACK
6
CONTINUOUS
10
95.3937
20
-24.4562
11
95.3937
21
-37.4472
0
LINE
8
BLACK
6
CONTINUOUS
10
95.8937
20
-23.9562
11
108.894
21
-23.9562
0
LINE
8
BLACK
6
CONTINUOUS
10
95.8937
20
-37.9472
11
108.894
21
-37.9562
0
LINE
8
BLACK
6
CONTINUOUS
10
109.394
20
-24.4562
11
109.394
21
-37.4562
0
ARC
8
BLACK
10
95.8938
20
-24.4563
40
0.500001
50
90.0001
51
180
0
ARC
8
BLACK
10
108.894
20
-24.4562
40
0.5
50
-0
51
90
0
ARC
8
BLACK
10
108.894
20
-37.4562
40
0.5
50
-90
51
-0
0
ARC
8
BLACK
10
95.8938
20
-37.4472
40
0.500001
50
-180
51
-90.0001
0
LINE
8
BLACK
6
CONTINUOUS
10
73.675
20
-119.706
11
73.675
21
-132.706
0
LINE
8
BLACK
6
CONTINUOUS
10
60.175
20
-133.197
11
73.175
21
-133.206
0
LINE
8
BLACK
6
CONTINUOUS
10
60.175
20
-119.206
11
73.175
21
-119.206
0
LINE
8
BLACK
6
CONTINUOUS
10
59.675
20
-119.706
11
59.675
21
-132.697
0
ARC
8
BLACK
10
60.175
20
-119.706
40
0.500001
50
90.0001
51
180
0
ARC
8
BLACK
10
73.175
20
-132.706
40
0.5
50
-90
51
-0
0
ARC
8
BLACK
10
60.175
20
-132.697
40
0.500001
50
-180
51
-90.0001
0
ARC
8
BLACK
10
73.175
20
-119.706
40
0.5
50
-0
51
90
0
LINE
8
BLACK
6
CONTINUOUS
10
40.3375
20
-62.5562
11
40.3375
21
-75.5562
0
LINE
8
BLACK
6
CONTINUOUS
10
26.3375
20
-62.5562
11
26.3375
21
-75.5472
0
LINE
8
BLACK
6
CONTINUOUS
10
26.8375
20
-76.0472
11
39.8375
21
-76.0562
0
LINE
8
BLACK
6
CONTINUOUS
10
26.8375
20
-62.0562
11
39.8375
21
-62.0562
0
ARC
8
BLACK
10
39.8375
20
-62.5562
40
0.5
50
-0
51
90
0
ARC
8
BLACK
10
26.8375
20
-62.5563
40
0.500001
50
90.0001
51
180
0
ARC
8
BLACK
10
39.8375
20
-75.5562
40
0.5
50
-90
51
-0
0
ARC
8
BLACK
10
26.8375
20
-75.5472
40
0.500001
50
-180
51
-90.0001
0
LINE
8
BLACK
6
CONTINUOUS
10
126.85
20
-62.0562
11
139.85
21
-62.0562
0
LINE
8
BLACK
6
CONTINUOUS
10
126.35
20
-62.5562
11
126.35
21
-75.5472
0
LINE
8
BLACK
6
CONTINUOUS
10
140.35
20
-62.5562
11
140.35
21
-75.5562
0
LINE
8
BLACK
6
CONTINUOUS
10
126.85
20
-76.0472
11
139.85
21
-76.0562
0
ARC
8
BLACK
10
126.85
20
-75.5472
40
0.500001
50
-180
51
-90.0001
0
ARC
8
BLACK
10
126.85
20
-62.5563
40
0.500001
50
90.0001
51
180
0
ARC
8
BLACK
10
139.85
20
-75.5562
40
0.5
50
-90
51
-0
0
ARC
8
BLACK
10
139.85
20
-62.5562
40
0.5
50
-0
51
90
0
LINE
8
BLACK
6
CONTINUOUS
10
81.6063
20
-119.206
11
94.6062
21
-119.206
0
LINE
8
BLACK
6
CONTINUOUS
10
95.1062
20
-119.706
11
95.1062
21
-132.706
0
LINE
8
BLACK
6
CONTINUOUS
10
81.1063
20
-119.706
11
81.1063
21
-132.697
0
LINE
8
BLACK
6
CONTINUOUS
10
81.6063
20
-133.197
11
94.6062
21
-133.206
0
ARC
8
BLACK
10
81.6063
20
-119.706
40
0.500001
50
90.0001
51
180
0
ARC
8
BLACK
10
94.6062
20
-132.706
40
0.5
50
-90
51
-0
0
ARC
8
BLACK
10
81.6063
20
-132.697
40
0.500001
50
-180
51
-90.0001
0
ARC
8
BLACK
10
94.6062
20
-119.706
40
0.5
50
-0
51
90
0
LINE
8
BLACK
6
CONTINUOUS
10
126.062
20
-81.6063
11
126.062
21
-94.6062
0
LINE
8
BLACK
6
CONTINUOUS
10
112.562
20
-95.0972
11
125.562
21
-95.1062
0
LINE
8
BLACK
6
CONTINUOUS
10
112.062
20
-81.6063
11
112.062
21
-94.5972
0
LINE
8
BLACK
6
CONTINUOUS
10
112.562
20
-81.1063
11
125.562
21
-81.1063
0
ARC
8
BLACK
10
112.563
20
-81.6063
40
0.500001
50
90.0001
51
180
0
ARC
8
BLACK
10
125.562
20
-94.6062
40
0.5
50
-90
51
-0
0
ARC
8
BLACK
10
125.562
20
-81.6063
40
0.5
50
-0
51
90
0
ARC
8
BLACK
10
112.563
20
-94.5972
40
0.500001
50
-180
51
-90.0001
0
LINE
8
BLACK
6
CONTINUOUS
10
29.2188
20
-95.0972
11
42.2188
21
-95.1062
0
LINE
8
BLACK
6
CONTINUOUS
10
42.7188
20
-81.6063
11
42.7188
21
-94.6062
0
LINE
8
BLACK
6
CONTINUOUS
10
28.7188
20
-81.6063
11
28.7188
21
-94.5972
0
LINE
8
BLACK
6
CONTINUOUS
10
29.2188
20
-81.1063
11
42.2188
21
-81.1063
0
ARC
8
BLACK
10
29.2188
20
-81.6063
40
0.500001
50
90.0001
51
180
0
ARC
8
BLACK
10
29.2188
20
-94.5972
40
0.500001
50
-180
51
-90.0001
0
ARC
8
BLACK
10
42.2188
20
-94.6062
40
0.5
50
-90
51
-0
0
ARC
8
BLACK
10
42.2188
20
-81.6063
40
0.5
50
-0
51
90
0
LINE
8
BLACK
6
CONTINUOUS
10
183.5
20
-62.5562
11
183.5
21
-75.5472
0
LINE
8
BLACK
6
CONTINUOUS
10
197.5
20
-62.5562
11
197.5
21
-75.5562
0
LINE
8
BLACK
6
CONTINUOUS
10
184
20
-62.0562
11
197
21
-62.0562
0
LINE
8
BLACK
6
CONTINUOUS
10
184
20
-76.0472
11
197
21
-76.0562
0
ARC
8
BLACK
10
184
20
-75.5472
40
0.500001
50
-180
51
-90.0001
0
ARC
8
BLACK
10
197
20
-62.5562
40
0.5
50
-0
51
90
0
ARC
8
BLACK
10
184
20
-62.5563
40
0.500001
50
90.0001
51
180
0
ARC
8
BLACK
10
197
20
-75.5562
40
0.5
50
-90
51
-0
0
LINE
8
BLACK
6
CONTINUOUS
10
152.044
20
-121.206
11
113.294
21
-121.206
0
LINE
8
BLACK
6
CONTINUOUS
10
205.794
20
-121.206
11
167.044
21
-121.206
0
LINE
8
BLACK
6
CONTINUOUS
10
212.544
20
-132.206
11
206.794
21
-132.206
0
LINE
8
BLACK
6
CONTINUOUS
10
206.294
20
-120.206
11
206.294
21
-120.706
0
LINE
8
BLACK
6
CONTINUOUS
10
106.044
20
-126.206
11
106.044
21
-120.206
0
LINE
8
BLACK
6
CONTINUOUS
10
105.544
20
-129.006
11
106.044
21
-129.006
0
LINE
8
BLACK
6
CONTINUOUS
10
152.544
20
-120.706
11
152.544
21
-119.706
0
LINE
8
BLACK
6
CONTINUOUS
10
205.794
20
-131.206
11
167.044
21
-131.206
0
LINE
8
BLACK
6
CONTINUOUS
10
212.544
20
-119.706
11
211.819
21
-119.706
0
LINE
8
BLACK
6
CONTINUOUS
10
111.569
20
-119.706
11
112.294
21
-119.706
0
LINE
8
BLACK
6
CONTINUOUS
10
210.819
20
-118.706
11
208.519
21
-118.706
0
LINE
8
BLACK
6
CONTINUOUS
10
166.044
20
-133.206
11
153.044
21
-133.206
0
LINE
8
BLACK
6
CONTINUOUS
10
213.544
20
-129.006
11
213.044
21
-129.006
0
LINE
8
BLACK
6
CONTINUOUS
10
166.044
20
-119.206
11
153.044
21
-119.206
0
LINE
8
BLACK
6
CONTINUOUS
10
213.044
20
-131.706
11
213.044
21
-129.006
0
LINE
8
BLACK
6
CONTINUOUS
10
166.544
20
-132.706
11
166.544
21
-131.706
0
LINE
8
BLACK
6
CONTINUOUS
10
213.544
20
-126.206
11
213.044
21
-126.206
0
LINE
8
BLACK
6
CONTINUOUS
10
112.794
20
-120.706
11
112.794
21
-120.206
0
LINE
8
BLACK
6
CONTINUOUS
10
213.744
20
-128.806
11
213.744
21
-126.406
0
LINE
8
BLACK
6
CONTINUOUS
10
106.544
20
-119.706
11
107.269
21
-119.706
0
LINE
8
BLACK
6
CONTINUOUS
10
105.544
20
-126.206
11
106.044
21
-126.206
0
LINE
8
BLACK
6
CONTINUOUS
10
106.544
20
-132.206
11
112.294
21
-132.206
0
LINE
8
BLACK
6
CONTINUOUS
10
152.044
20
-131.206
11
113.294
21
-131.206
0
LINE
8
BLACK
6
CONTINUOUS
10
207.519
20
-119.706
11
206.794
21
-119.706
0
LINE
8
BLACK
6
CONTINUOUS
10
213.044
20
-126.206
11
213.044
21
-120.206
0
LINE
8
BLACK
6
CONTINUOUS
10
105.344
20
-128.806
11
105.344
21
-126.406
0
LINE
8
BLACK
6
CONTINUOUS
10
152.544
20
-132.706
11
152.544
21
-131.706
0
LINE
8
BLACK
6
CONTINUOUS
10
108.269
20
-118.706
11
110.569
21
-118.706
0
LINE
8
BLACK
6
CONTINUOUS
10
106.044
20
-131.706
11
106.044
21
-129.006
0
LINE
8
BLACK
6
CONTINUOUS
10
166.544
20
-120.706
11
166.544
21
-119.706
0
ARC
8
BLACK
10
107.269
20
-119.206
40
0.5
50
-90
51
-0
0
ARC
8
BLACK
10
166.044
20
-132.706
40
0.500001
50
-89.9999
51
-0.000114591
0
ARC
8
BLACK
10
153.044
20
-132.706
40
0.5
50
-180
51
-90
0
ARC
8
BLACK
10
105.544
20
-128.806
40
0.2
50
-180
51
-90
0
ARC
8
BLACK
10
213.544
20
-128.806
40
0.200001
50
-89.9997
51
-0.000286477
0
ARC
8
BLACK
10
167.044
20
-120.706
40
0.500001
50
-180
51
-90.0001
0
ARC
8
BLACK
10
166.044
20
-119.706
40
0.500001
50
0.000114591
51
89.9999
0
ARC
8
BLACK
10
112.294
20
-120.206
40
0.5
50
-0
51
90
0
ARC
8
BLACK
10
211.819
20
-119.206
40
0.500001
50
-180
51
-90.0001
0
ARC
8
BLACK
10
106.544
20
-131.706
40
0.5
50
-180
51
-90
0
ARC
8
BLACK
10
105.544
20
-126.406
40
0.2
50
90
51
180
0
ARC
8
BLACK
10
113.294
20
-120.706
40
0.5
50
-180
51
-90
0
ARC
8
BLACK
10
110.569
20
-119.206
40
0.5
50
-0
51
90
0
ARC
8
BLACK
10
111.569
20
-119.206
40
0.5
50
-180
51
-90
0
ARC
8
BLACK
10
210.819
20
-119.206
40
0.500001
50
0.000114591
51
89.9999
0
ARC
8
BLACK
10
205.794
20
-131.706
40
0.500001
50
0.000114591
51
89.9999
0
ARC
8
BLACK
10
113.294
20
-131.706
40
0.5
50
90
51
180
0
ARC
8
BLACK
10
208.519
20
-119.206
40
0.500001
50
90.0001
51
180
0
ARC
8
BLACK
10
213.544
20
-126.406
40
0.200001
50
0.000286477
51
89.9997
0
ARC
8
BLACK
10
206.794
20
-131.706
40
0.500001
50
-180
51
-90.0001
0
ARC
8
BLACK
10
106.544
20
-120.206
40
0.5
50
90
51
180
0
ARC
8
BLACK
10
167.044
20
-131.706
40
0.500001
50
90.0001
51
180
0
ARC
8
BLACK
10
212.544
20
-120.206
40
0.500001
50
0.000114591
51
89.9999
0
ARC
8
BLACK
10
153.044
20
-119.706
40
0.500032
50
90.0037
51
179.996
0
ARC
8
BLACK
10
152.044
20
-131.706
40
0.5
50
-0
51
90
0
ARC
8
BLACK
10
205.794
20
-120.706
40
0.500001
50
-89.9999
51
-0.000114591
0
ARC
8
BLACK
10
108.269
20
-119.206
40
0.5
50
90
51
180
0
ARC
8
BLACK
10
152.044
20
-120.706
40
0.499968
50
-90.0037
51
0.00424016
0
ARC
8
BLACK
10
212.544
20
-131.706
40
0.500001
50
-89.9999
51
-0.000114591
0
ARC
8
BLACK
10
112.294
20
-131.706
40
0.5
50
-90
51
-0
0
ARC
8
BLACK
10
207.519
20
-119.206
40
0.500001
50
-89.9999
51
-0.000114591
0
ARC
8
BLACK
10
206.794
20
-120.206
40
0.500001
50
90.0001
51
180
0
LINE
8
BLACK
6
CONTINUOUS
10
245.912
20
-95.0972
11
258.912
21
-95.1062
0
LINE
8
BLACK
6
CONTINUOUS
10
259.412
20
-81.6063
11
259.412
21
-94.6062
0
LINE
8
BLACK
6
CONTINUOUS
10
245.412
20
-81.6063
11
245.412
21
-94.5972
0
LINE
8
BLACK
6
CONTINUOUS
10
245.912
20
-81.1063
11
258.912
21
-81.1063
0
ARC
8
BLACK
10
245.913
20
-94.5972
40
0.500001
50
-180
51
-90.0001
0
ARC
8
BLACK
10
258.912
20
-81.6063
40
0.5
50
-0
51
90
0
ARC
8
BLACK
10
258.912
20
-94.6062
40
0.5
50
-90
51
-0
0
ARC
8
BLACK
10
245.913
20
-81.6063
40
0.500001
50
90.0001
51
180
0
LINE
8
BLACK
6
CONTINUOUS
10
69.2
20
-62.5562
11
69.2
21
-75.5472
0
LINE
8
BLACK
6
CONTINUOUS
10
69.7
20
-76.0472
11
82.7
21
-76.0562
0
LINE
8
BLACK
6
CONTINUOUS
10
69.7
20
-62.0562
11
82.7
21
-62.0562
0
LINE
8
BLACK
6
CONTINUOUS
10
83.2
20
-62.5562
11
83.2
21
-75.5562
0
ARC
8
BLACK
10
69.7
20
-62.5563
40
0.500001
50
90.0001
51
180
0
ARC
8
BLACK
10
82.7
20
-62.5562
40
0.5
50
-0
51
90
0
ARC
8
BLACK
10
69.7
20
-75.5472
40
0.500001
50
-180
51
-90.0001
0
ARC
8
BLACK
10
82.7
20
-75.5562
40
0.5
50
-90
51
-0
0
LINE
8
BLACK
6
CONTINUOUS
10
131.612
20
-95.0972
11
144.612
21
-95.1062
0
LINE
8
BLACK
6
CONTINUOUS
10
131.112
20
-81.6063
11
131.112
21
-94.5972
0
LINE
8
BLACK
6
CONTINUOUS
10
145.112
20
-81.6063
11
145.112
21
-94.6062
0
LINE
8
BLACK
6
CONTINUOUS
10
131.612
20
-81.1063
11
144.612
21
-81.1063
0
ARC
8
BLACK
10
144.612
20
-81.6063
40
0.5
50
-0
51
90
0
ARC
8
BLACK
10
144.612
20
-94.6062
40
0.5
50
-90
51
-0
0
ARC
8
BLACK
10
131.613
20
-94.5972
40
0.500001
50
-180
51
-90.0001
0
ARC
8
BLACK
10
131.613
20
-81.6063
40
0.500001
50
90.0001
51
180
0
LINE
8
BLACK
6
CONTINUOUS
10
198.287
20
-114.147
11
211.287
21
-114.156
0
LINE
8
BLACK
6
CONTINUOUS
10
197.787
20
-100.656
11
197.787
21
-113.647
0
LINE
8
BLACK
6
CONTINUOUS
10
198.287
20
-100.156
11
211.287
21
-100.156
0
LINE
8
BLACK
6
CONTINUOUS
10
211.787
20
-100.656
11
211.787
21
-113.656
0
ARC
8
BLACK
10
211.287
20
-113.656
40
0.5
50
-90
51
-0
0
ARC
8
BLACK
10
198.288
20
-113.647
40
0.500001
50
-180
51
-90.0001
0
ARC
8
BLACK
10
211.287
20
-100.656
40
0.5
50
-0
51
90
0
ARC
8
BLACK
10
198.288
20
-100.656
40
0.500001
50
90.0001
51
180
0
LINE
8
BLACK
6
CONTINUOUS
10
178.737
20
-100.656
11
178.737
21
-113.647
0
LINE
8
BLACK
6
CONTINUOUS
10
192.737
20
-100.656
11
192.737
21
-113.656
0
LINE
8
BLACK
6
CONTINUOUS
10
179.237
20
-100.156
11
192.237
21
-100.156
0
LINE
8
BLACK
6
CONTINUOUS
10
179.237
20
-114.147
11
192.237
21
-114.156
0
ARC
8
BLACK
10
179.238
20
-100.656
40
0.500001
50
90.0001
51
180
0
ARC
8
BLACK
10
192.237
20
-113.656
40
0.5
50
-90
51
-0
0
ARC
8
BLACK
10
179.238
20
-113.647
40
0.500001
50
-180
51
-90.0001
0
ARC
8
BLACK
10
192.237
20
-100.656
40
0.5
50
-0
51
90
0
LINE
8
BLACK
6
CONTINUOUS
10
22.075
20
-119.206
11
35.075
21
-119.206
0
LINE
8
BLACK
6
CONTINUOUS
10
21.575
20
-119.706
11
21.575
21
-132.697
0
LINE
8
BLACK
6
CONTINUOUS
10
35.575
20
-119.706
11
35.575
21
-132.706
0
LINE
8
BLACK
6
CONTINUOUS
10
22.075
20
-133.197
11
35.075
21
-133.206
0
ARC
8
BLACK
10
22.075
20
-119.706
40
0.500001
50
90.0001
51
180
0
ARC
8
BLACK
10
35.075
20
-119.706
40
0.5
50
-0
51
90
0
ARC
8
BLACK
10
35.075
20
-132.706
40
0.5
50
-90
51
-0
0
ARC
8
BLACK
10
22.075
20
-132.697
40
0.500001
50
-180
51
-90.0001
0
LINE
8
BLACK
6
CONTINUOUS
10
269.725
20
-114.147
11
282.725
21
-114.156
0
LINE
8
BLACK
6
CONTINUOUS
10
283.225
20
-100.656
11
283.225
21
-113.656
0
LINE
8
BLACK
6
CONTINUOUS
10
269.225
20
-100.656
11
269.225
21
-113.647
0
LINE
8
BLACK
6
CONTINUOUS
10
269.725
20
-100.156
11
282.725
21
-100.156
0
ARC
8
BLACK
10
269.725
20
-100.656
40
0.500001
50
90.0001
51
180
0
ARC
8
BLACK
10
269.725
20
-113.647
40
0.500001
50
-180
51
-90.0001
0
ARC
8
BLACK
10
282.725
20
-113.656
40
0.5
50
-90
51
-0
0
ARC
8
BLACK
10
282.725
20
-100.656
40
0.5
50
-0
51
90
0
LINE
8
BLACK
6
CONTINUOUS
10
76.8438
20
-37.9472
11
89.8438
21
-37.9562
0
LINE
8
BLACK
6
CONTINUOUS
10
90.3438
20
-24.4562
11
90.3438
21
-37.4562
0
LINE
8
BLACK
6
CONTINUOUS
10
76.3438
20
-24.4562
11
76.3438
21
-37.4472
0
LINE
8
BLACK
6
CONTINUOUS
10
76.8438
20
-23.9562
11
89.8438
21
-23.9562
0
ARC
8
BLACK
10
76.8438
20
-37.4472
40
0.500001
50
-180
51
-90.0001
0
ARC
8
BLACK
10
89.8438
20
-24.4562
40
0.5
50
-0
51
90
0
ARC
8
BLACK
10
76.8438
20
-24.4563
40
0.500001
50
90.0001
51
180
0
ARC
8
BLACK
10
89.8438
20
-37.4562
40
0.5
50
-90
51
-0
0
LINE
8
BLACK
6
CONTINUOUS
10
222.1
20
-76.0472
11
235.1
21
-76.0562
0
LINE
8
BLACK
6
CONTINUOUS
10
222.1
20
-62.0562
11
235.1
21
-62.0562
0
LINE
8
BLACK
6
CONTINUOUS
10
235.6
20
-62.5562
11
235.6
21
-75.5562
0
LINE
8
BLACK
6
CONTINUOUS
10
221.6
20
-62.5562
11
221.6
21
-75.5472
0
ARC
8
BLACK
10
222.1
20
-75.5472
40
0.500001
50
-180
51
-90.0001
0
ARC
8
BLACK
10
235.1
20
-62.5562
40
0.5
50
-0
51
90
0
ARC
8
BLACK
10
222.1
20
-62.5563
40
0.500001
50
90.0001
51
180
0
ARC
8
BLACK
10
235.1
20
-75.5562
40
0.5
50
-90
51
-0
0
LINE
8
BLACK
6
CONTINUOUS
10
260.2
20
-76.0472
11
273.2
21
-76.0562
0
LINE
8
BLACK
6
CONTINUOUS
10
259.7
20
-62.5562
11
259.7
21
-75.5472
0
LINE
8
BLACK
6
CONTINUOUS
10
273.7
20
-62.5562
11
273.7
21
-75.5562
0
LINE
8
BLACK
6
CONTINUOUS
10
260.2
20
-62.0562
11
273.2
21
-62.0562
0
ARC
8
BLACK
10
260.2
20
-62.5563
40
0.500001
50
90.0001
51
180
0
ARC
8
BLACK
10
273.2
20
-62.5562
40
0.5
50
-0
51
90
0
ARC
8
BLACK
10
260.2
20
-75.5472
40
0.500001
50
-180
51
-90.0001
0
ARC
8
BLACK
10
273.2
20
-75.5562
40
0.5
50
-90
51
-0
0
LINE
8
BLACK
6
CONTINUOUS
10
164.95
20
-37.9472
11
177.95
21
-37.9562
0
LINE
8
BLACK
6
CONTINUOUS
10
164.45
20
-24.4562
11
164.45
21
-37.4472
0
LINE
8
BLACK
6
CONTINUOUS
10
164.95
20
-23.9562
11
177.95
21
-23.9562
0
LINE
8
BLACK
6
CONTINUOUS
10
178.45
20
-24.4562
11
178.45
21
-37.4562
0
ARC
8
BLACK
10
177.95
20
-37.4562
40
0.5
50
-90
51
-0
0
ARC
8
BLACK
10
164.95
20
-24.4563
40
0.500001
50
90.0001
51
180
0
ARC
8
BLACK
10
164.95
20
-37.4472
40
0.500001
50
-180
51
-90.0001
0
ARC
8
BLACK
10
177.95
20
-24.4562
40
0.5
50
-0
51
90
0
LINE
8
BLACK
6
CONTINUOUS
10
193.025
20
-43.5063
11
193.025
21
-56.4972
0
LINE
8
BLACK
6
CONTINUOUS
10
207.025
20
-43.5063
11
207.025
21
-56.5062
0
LINE
8
BLACK
6
CONTINUOUS
10
193.525
20
-43.0063
11
206.525
21
-43.0063
0
LINE
8
BLACK
6
CONTINUOUS
10
193.525
20
-56.9972
11
206.525
21
-57.0062
0
ARC
8
BLACK
10
193.525
20
-56.4972
40
0.500001
50
-180
51
-90.0001
0
ARC
8
BLACK
10
193.525
20
-43.5063
40
0.500001
50
90.0001
51
180
0
ARC
8
BLACK
10
206.525
20
-43.5063
40
0.5
50
-0
51
90
0
ARC
8
BLACK
10
206.525
20
-56.5062
40
0.5
50
-90
51
-0
0
LINE
8
BLACK
6
CONTINUOUS
10
188.262
20
-81.6063
11
188.262
21
-94.5972
0
LINE
8
BLACK
6
CONTINUOUS
10
188.762
20
-81.1063
11
201.762
21
-81.1063
0
LINE
8
BLACK
6
CONTINUOUS
10
202.262
20
-81.6063
11
202.262
21
-94.6062
0
LINE
8
BLACK
6
CONTINUOUS
10
188.762
20
-95.0972
11
201.762
21
-95.1062
0
ARC
8
BLACK
10
201.762
20
-81.6063
40
0.5
50
-0
51
90
0
ARC
8
BLACK
10
188.763
20
-81.6063
40
0.500001
50
90.0001
51
180
0
ARC
8
BLACK
10
201.762
20
-94.6062
40
0.5
50
-90
51
-0
0
ARC
8
BLACK
10
188.763
20
-94.5972
40
0.500001
50
-180
51
-90.0001
0
LINE
8
BLACK
6
CONTINUOUS
10
221.312
20
-81.6063
11
221.312
21
-94.6062
0
LINE
8
BLACK
6
CONTINUOUS
10
207.812
20
-95.0972
11
220.812
21
-95.1062
0
LINE
8
BLACK
6
CONTINUOUS
10
207.312
20
-81.6063
11
207.312
21
-94.5972
0
LINE
8
BLACK
6
CONTINUOUS
10
207.812
20
-81.1063
11
220.812
21
-81.1063
0
ARC
8
BLACK
10
220.812
20
-81.6063
40
0.5
50
-0
51
90
0
ARC
8
BLACK
10
207.813
20
-94.5972
40
0.500001
50
-180
51
-90.0001
0
ARC
8
BLACK
10
220.812
20
-94.6062
40
0.5
50
-90
51
-0
0
ARC
8
BLACK
10
207.813
20
-81.6063
40
0.500001
50
90.0001
51
180
0
LINE
8
BLACK
6
CONTINUOUS
10
212.575
20
-56.9972
11
225.575
21
-57.0062
0
LINE
8
BLACK
6
CONTINUOUS
10
212.575
20
-43.0063
11
225.575
21
-43.0063
0
LINE
8
BLACK
6
CONTINUOUS
10
226.075
20
-43.5063
11
226.075
21
-56.5062
0
LINE
8
BLACK
6
CONTINUOUS
10
212.075
20
-43.5063
11
212.075
21
-56.4972
0
ARC
8
BLACK
10
212.575
20
-56.4972
40
0.500001
50
-180
51
-90.0001
0
ARC
8
BLACK
10
225.575
20
-56.5062
40
0.5
50
-90
51
-0
0
ARC
8
BLACK
10
212.575
20
-43.5063
40
0.500001
50
90.0001
51
180
0
ARC
8
BLACK
10
225.575
20
-43.5063
40
0.5
50
-0
51
90
0
LINE
8
BLACK
6
CONTINUOUS
10
64.4375
20
-100.656
11
64.4375
21
-113.647
0
LINE
8
BLACK
6
CONTINUOUS
10
78.4375
20
-100.656
11
78.4375
21
-113.656
0
LINE
8
BLACK
6
CONTINUOUS
10
64.9375
20
-100.156
11
77.9375
21
-100.156
0
LINE
8
BLACK
6
CONTINUOUS
10
64.9375
20
-114.147
11
77.9375
21
-114.156
0
ARC
8
BLACK
10
64.9375
20
-100.656
40
0.500001
50
90.0001
51
180
0
ARC
8
BLACK
10
77.9375
20
-113.656
40
0.5
50
-90
51
-0
0
ARC
8
BLACK
10
64.9375
20
-113.647
40
0.500001
50
-180
51
-90.0001
0
ARC
8
BLACK
10
77.9375
20
-100.656
40
0.5
50
-0
51
90
0
LINE
8
BLACK
6
CONTINUOUS
10
121.587
20
-100.656
11
121.587
21
-113.647
0
LINE
8
BLACK
6
CONTINUOUS
10
135.588
20
-100.656
11
135.588
21
-113.656
0
LINE
8
BLACK
6
CONTINUOUS
10
122.087
20
-114.147
11
135.088
21
-114.156
0
LINE
8
BLACK
6
CONTINUOUS
10
122.087
20
-100.156
11
135.088
21
-100.156
0
ARC
8
BLACK
10
122.088
20
-113.647
40
0.500001
50
-180
51
-90.0001
0
ARC
8
BLACK
10
135.088
20
-113.656
40
0.5
50
-90
51
-0
0
ARC
8
BLACK
10
122.088
20
-100.656
40
0.500001
50
90.0001
51
180
0
ARC
8
BLACK
10
135.088
20
-100.656
40
0.5
50
-0
51
90
0
LINE
8
BLACK
6
CONTINUOUS
10
283.225
20
-24.4562
11
283.225
21
-37.4562
0
LINE
8
BLACK
6
CONTINUOUS
10
269.725
20
-23.9562
11
282.725
21
-23.9562
0
LINE
8
BLACK
6
CONTINUOUS
10
269.225
20
-24.4562
11
269.225
21
-37.4472
0
LINE
8
BLACK
6
CONTINUOUS
10
269.725
20
-37.9472
11
282.725
21
-37.9562
0
ARC
8
BLACK
10
282.725
20
-37.4562
40
0.5
50
-90
51
-0
0
ARC
8
BLACK
10
269.725
20
-37.4472
40
0.500001
50
-180
51
-90.0001
0
ARC
8
BLACK
10
282.725
20
-24.4562
40
0.5
50
-0
51
90
0
ARC
8
BLACK
10
269.725
20
-24.4563
40
0.500001
50
90.0001
51
180
0
LINE
8
BLACK
6
CONTINUOUS
10
35.575
20
-43.5063
11
35.575
21
-56.5062
0
LINE
8
BLACK
6
CONTINUOUS
10
22.075
20
-43.0063
11
35.075
21
-43.0063
0
LINE
8
BLACK
6
CONTINUOUS
10
21.575
20
-43.5063
11
21.575
21
-56.4972
0
LINE
8
BLACK
6
CONTINUOUS
10
22.075
20
-56.9972
11
35.075
21
-57.0062
0
ARC
8
BLACK
10
35.075
20
-43.5063
40
0.5
50
-0
51
90
0
ARC
8
BLACK
10
22.075
20
-56.4972
40
0.500001
50
-180
51
-90.0001
0
ARC
8
BLACK
10
22.075
20
-43.5063
40
0.500001
50
90.0001
51
180
0
ARC
8
BLACK
10
35.075
20
-56.5062
40
0.5
50
-90
51
-0
0
LINE
8
BLACK
6
CONTINUOUS
10
54.9125
20
-81.6063
11
54.9125
21
-94.5972
0
LINE
8
BLACK
6
CONTINUOUS
10
55.4125
20
-95.0972
11
68.4125
21
-95.1062
0
LINE
8
BLACK
6
CONTINUOUS
10
68.9125
20
-81.6063
11
68.9125
21
-94.6062
0
LINE
8
BLACK
6
CONTINUOUS
10
55.4125
20
-81.1063
11
68.4125
21
-81.1063
0
ARC
8
BLACK
10
68.4125
20
-81.6063
40
0.5
50
-0
51
90
0
ARC
8
BLACK
10
55.4125
20
-94.5972
40
0.500001
50
-180
51
-90.0001
0
ARC
8
BLACK
10
68.4125
20
-94.6062
40
0.5
50
-90
51
-0
0
ARC
8
BLACK
10
55.4125
20
-81.6063
40
0.500001
50
90.0001
51
180
0
LINE
8
BLACK
6
CONTINUOUS
10
283.512
20
-62.5562
11
283.512
21
-75.5472
0
LINE
8
BLACK
6
CONTINUOUS
10
284.012
20
-76.0472
11
297.012
21
-76.0562
0
LINE
8
BLACK
6
CONTINUOUS
10
284.012
20
-62.0562
11
297.012
21
-62.0562
0
LINE
8
BLACK
6
CONTINUOUS
10
297.512
20
-62.5562
11
297.512
21
-75.5562
0
ARC
8
BLACK
10
284.013
20
-62.5563
40
0.500001
50
90.0001
51
180
0
ARC
8
BLACK
10
297.012
20
-75.5562
40
0.5
50
-90
51
-0
0
ARC
8
BLACK
10
284.013
20
-75.5472
40
0.500001
50
-180
51
-90.0001
0
ARC
8
BLACK
10
297.012
20
-62.5562
40
0.5
50
-0
51
90
0
LINE
8
BLACK
6
CONTINUOUS
10
121.3
20
-62.5562
11
121.3
21
-75.5562
0
LINE
8
BLACK
6
CONTINUOUS
10
107.3
20
-62.5562
11
107.3
21
-75.5472
0
LINE
8
BLACK
6
CONTINUOUS
10
107.8
20
-76.0472
11
120.8
21
-76.0562
0
LINE
8
BLACK
6
CONTINUOUS
10
107.8
20
-62.0562
11
120.8
21
-62.0562
0
ARC
8
BLACK
10
120.8
20
-75.5562
40
0.5
50
-90
51
-0
0
ARC
8
BLACK
10
107.8
20
-62.5563
40
0.500001
50
90.0001
51
180
0
ARC
8
BLACK
10
107.8
20
-75.5472
40
0.500001
50
-180
51
-90.0001
0
ARC
8
BLACK
10
120.8
20
-62.5562
40
0.5
50
-0
51
90
0
LINE
8
BLACK
6
CONTINUOUS
10
60.175
20
-43.0063
11
73.175
21
-43.0063
0
LINE
8
BLACK
6
CONTINUOUS
10
60.175
20
-56.9972
11
73.175
21
-57.0062
0
LINE
8
BLACK
6
CONTINUOUS
10
59.675
20
-43.5063
11
59.675
21
-56.4972
0
LINE
8
BLACK
6
CONTINUOUS
10
73.675
20
-43.5063
11
73.675
21
-56.5062
0
ARC
8
BLACK
10
60.175
20
-56.4972
40
0.500001
50
-180
51
-90.0001
0
ARC
8
BLACK
10
60.175
20
-43.5063
40
0.500001
50
90.0001
51
180
0
ARC
8
BLACK
10
73.175
20
-56.5062
40
0.5
50
-90
51
-0
0
ARC
8
BLACK
10
73.175
20
-43.5063
40
0.5
50
-0
51
90
0
LINE
8
BLACK
6
CONTINUOUS
10
160.188
20
-100.156
11
173.188
21
-100.156
0
LINE
8
BLACK
6
CONTINUOUS
10
173.688
20
-100.656
11
173.688
21
-113.656
0
LINE
8
BLACK
6
CONTINUOUS
10
159.688
20
-100.656
11
159.688
21
-113.647
0
LINE
8
BLACK
6
CONTINUOUS
10
160.188
20
-114.147
11
173.188
21
-114.156
0
ARC
8
BLACK
10
173.188
20
-113.656
40
0.5
50
-90
51
-0
0
ARC
8
BLACK
10
160.188
20
-113.647
40
0.500001
50
-180
51
-90.0001
0
ARC
8
BLACK
10
173.188
20
-100.656
40
0.5
50
-0
51
90
0
ARC
8
BLACK
10
160.188
20
-100.656
40
0.500001
50
90.0001
51
180
0
LINE
8
BLACK
6
CONTINUOUS
10
157.019
20
-24.4562
11
157.019
21
-37.4562
0
LINE
8
BLACK
6
CONTINUOUS
10
143.519
20
-23.9562
11
156.519
21
-23.9562
0
LINE
8
BLACK
6
CONTINUOUS
10
143.019
20
-24.4562
11
143.019
21
-37.4472
0
LINE
8
BLACK
6
CONTINUOUS
10
143.519
20
-37.9472
11
156.519
21
-37.9562
0
ARC
8
BLACK
10
156.519
20
-24.4562
40
0.5
50
-0
51
90
0
ARC
8
BLACK
10
143.519
20
-24.4563
40
0.500001
50
90.0001
51
180
0
ARC
8
BLACK
10
143.519
20
-37.4472
40
0.500001
50
-180
51
-90.0001
0
ARC
8
BLACK
10
156.519
20
-37.4562
40
0.5
50
-90
51
-0
0
LINE
8
BLACK
6
CONTINUOUS
10
184
20
-23.9562
11
197
21
-23.9562
0
LINE
8
BLACK
6
CONTINUOUS
10
197.5
20
-24.4562
11
197.5
21
-37.4562
0
LINE
8
BLACK
6
CONTINUOUS
10
184
20
-37.9472
11
197
21
-37.9562
0
LINE
8
BLACK
6
CONTINUOUS
10
183.5
20
-24.4562
11
183.5
21
-37.4472
0
ARC
8
BLACK
10
184
20
-24.4563
40
0.500001
50
90.0001
51
180
0
ARC
8
BLACK
10
197
20
-24.4562
40
0.5
50
-0
51
90
0
ARC
8
BLACK
10
184
20
-37.4472
40
0.500001
50
-180
51
-90.0001
0
ARC
8
BLACK
10
197
20
-37.4562
40
0.5
50
-90
51
-0
0
LINE
8
BLACK
6
CONTINUOUS
10
56.5812
20
-105.056
11
56.5812
21
-107.456
0
LINE
8
BLACK
6
CONTINUOUS
10
56.3812
20
-107.656
11
55.8812
21
-107.656
0
LINE
8
BLACK
6
CONTINUOUS
10
25.5812
20
-114.156
11
26.3062
21
-114.156
0
LINE
8
BLACK
6
CONTINUOUS
10
24.3812
20
-105.056
11
24.3812
21
-107.456
0
LINE
8
BLACK
6
CONTINUOUS
10
48.6312
20
-102.656
11
47.9812
21
-102.656
0
LINE
8
BLACK
6
CONTINUOUS
10
47.4812
20
-100.656
11
47.4812
21
-102.156
0
LINE
8
BLACK
6
CONTINUOUS
10
33.9812
20
-100.156
11
46.9812
21
-100.156
0
LINE
8
BLACK
6
CONTINUOUS
10
55.3812
20
-101.656
11
49.6312
21
-101.656
0
LINE
8
BLACK
6
CONTINUOUS
10
24.5812
20
-107.656
11
25.0812
21
-107.656
0
LINE
8
BLACK
6
CONTINUOUS
10
33.9812
20
-114.156
11
46.9812
21
-114.156
0
LINE
8
BLACK
6
CONTINUOUS
10
55.3812
20
-114.156
11
54.6562
21
-114.156
0
LINE
8
BLACK
6
CONTINUOUS
10
50.3562
20
-114.156
11
49.6312
21
-114.156
0
LINE
8
BLACK
6
CONTINUOUS
10
24.5812
20
-104.856
11
25.0812
21
-104.856
0
LINE
8
BLACK
6
CONTINUOUS
10
32.3312
20
-113.156
11
32.9812
21
-113.156
0
LINE
8
BLACK
6
CONTINUOUS
10
48.6312
20
-113.156
11
47.9812
21
-113.156
0
LINE
8
BLACK
6
CONTINUOUS
10
25.0812
20
-102.156
11
25.0812
21
-104.856
0
LINE
8
BLACK
6
CONTINUOUS
10
53.6562
20
-115.156
11
51.3562
21
-115.156
0
LINE
8
BLACK
6
CONTINUOUS
10
55.8812
20
-107.656
11
55.8812
21
-113.656
0
LINE
8
BLACK
6
CONTINUOUS
10
33.4812
20
-100.656
11
33.4812
21
-102.156
0
LINE
8
BLACK
6
CONTINUOUS
10
56.3812
20
-104.856
11
55.8812
21
-104.856
0
LINE
8
BLACK
6
CONTINUOUS
10
32.3312
20
-102.656
11
32.9812
21
-102.656
0
LINE
8
BLACK
6
CONTINUOUS
10
55.8812
20
-102.156
11
55.8812
21
-104.856
0
LINE
8
BLACK
6
CONTINUOUS
10
30.6062
20
-114.156
11
31.3312
21
-114.156
0
LINE
8
BLACK
6
CONTINUOUS
10
27.3062
20
-115.156
11
29.6062
21
-115.156
0
LINE
8
BLACK
6
CONTINUOUS
10
25.0812
20
-107.656
11
25.0812
21
-113.656
0
LINE
8
BLACK
6
CONTINUOUS
10
25.5812
20
-101.656
11
31.3312
21
-101.656
0
ARC
8
BLACK
10
33.9812
20
-100.656
40
0.500001
50
90.0001
51
180
0
ARC
8
BLACK
10
31.3312
20
-102.156
40
0.500001
50
0.000114591
51
89.9999
0
ARC
8
BLACK
10
51.3562
20
-114.656
40
0.499987
50
-180.001
51
-90.0001
0
ARC
8
BLACK
10
47.9812
20
-113.656
40
0.500001
50
90.0001
51
179.999
0
ARC
8
BLACK
10
31.3312
20
-113.656
40
0.500001
50
-89.9999
51
-0.000114591
0
ARC
8
BLACK
10
29.6062
20
-114.656
40
0.500001
50
-89.9999
51
-0.000114591
0
ARC
8
BLACK
10
32.3312
20
-113.656
40
0.500001
50
90.0001
51
180
0
ARC
8
BLACK
10
48.6312
20
-113.656
40
0.500013
50
0.00148969
51
90.0001
0
ARC
8
BLACK
10
47.9812
20
-102.156
40
0.499987
50
-180.001
51
-90.0001
0
ARC
8
BLACK
10
32.9812
20
-113.656
40
0.500001
50
0.000114591
51
89.9999
0
ARC
8
BLACK
10
33.9812
20
-113.656
40
0.500001
50
-180
51
-90.0001
0
ARC
8
BLACK
10
50.3562
20
-114.656
40
0.500013
50
0.00148969
51
90.0001
0
ARC
8
BLACK
10
32.3312
20
-102.156
40
0.500001
50
-180
51
-90.0001
0
ARC
8
BLACK
10
55.3812
20
-102.156
40
0.500013
50
0.00148969
51
90.0001
0
ARC
8
BLACK
10
25.5812
20
-113.656
40
0.500001
50
-180
51
-90.0001
0
ARC
8
BLACK
10
49.6312
20
-102.156
40
0.500001
50
90.0001
51
179.999
0
ARC
8
BLACK
10
25.5812
20
-102.156
40
0.500001
50
90.0001
51
180
0
ARC
8
BLACK
10
55.3812
20
-113.656
40
0.499999
50
-90.0001
51
0.00148969
0
ARC
8
BLACK
10
56.3812
20
-107.456
40
0.199999
50
-90.0003
51
0.00372424
0
ARC
8
BLACK
10
46.9812
20
-113.656
40
0.499999
50
-90.0001
51
0.00148969
0
ARC
8
BLACK
10
24.5812
20
-107.456
40
0.200001
50
-180
51
-90.0003
0
ARC
8
BLACK
10
49.6312
20
-113.656
40
0.499987
50
-180.001
51
-90.0001
0
ARC
8
BLACK
10
27.3062
20
-114.656
40
0.500001
50
-180
51
-90.0001
0
ARC
8
BLACK
10
46.9812
20
-100.656
40
0.500013
50
0.00148969
51
90.0001
0
ARC
8
BLACK
10
53.6562
20
-114.656
40
0.499999
50
-90.0001
51
0.00148969
0
ARC
8
BLACK
10
26.3062
20
-114.656
40
0.500001
50
0.000114591
51
89.9999
0
ARC
8
BLACK
10
30.6062
20
-114.656
40
0.500001
50
90.0001
51
180
0
ARC
8
BLACK
10
56.3812
20
-105.056
40
0.200013
50
0.00372424
51
90.0003
0
ARC
8
BLACK
10
24.5812
20
-105.056
40
0.200001
50
90.0003
51
180
0
ARC
8
BLACK
10
48.6312
20
-102.156
40
0.499999
50
-90.0001
51
0.00148969
0
ARC
8
BLACK
10
32.9812
20
-102.156
40
0.500001
50
-89.9999
51
-0.000114591
0
ARC
8
BLACK
10
54.6562
20
-114.656
40
0.500001
50
90.0001
51
179.999
0
LINE
8
BLACK
6
CONTINUOUS
10
293.9
20
-45.5063
11
293.25
21
-45.5063
0
LINE
8
BLACK
6
CONTINUOUS
10
279.25
20
-43.0063
11
292.25
21
-43.0063
0
LINE
8
BLACK
6
CONTINUOUS
10
295.625
20
-57.0062
11
294.9
21
-57.0062
0
LINE
8
BLACK
6
CONTINUOUS
10
301.15
20
-50.5062
11
301.15
21
-56.5062
0
LINE
8
BLACK
6
CONTINUOUS
10
278.75
20
-43.5063
11
278.75
21
-45.0063
0
LINE
8
BLACK
6
CONTINUOUS
10
301.85
20
-47.9062
11
301.85
21
-50.3062
0
LINE
8
BLACK
6
CONTINUOUS
10
269.85
20
-50.5062
11
270.35
21
-50.5062
0
LINE
8
BLACK
6
CONTINUOUS
10
275.875
20
-57.0062
11
276.6
21
-57.0062
0
LINE
8
BLACK
6
CONTINUOUS
10
277.6
20
-45.5063
11
278.25
21
-45.5063
0
LINE
8
BLACK
6
CONTINUOUS
10
270.85
20
-44.5063
11
276.6
21
-44.5063
0
LINE
8
BLACK
6
CONTINUOUS
10
292.75
20
-43.5063
11
292.75
21
-45.0063
0
LINE
8
BLACK
6
CONTINUOUS
10
269.65
20
-47.9062
11
269.65
21
-50.3062
0
LINE
8
BLACK
6
CONTINUOUS
10
270.35
20
-45.0063
11
270.35
21
-47.7062
0
LINE
8
BLACK
6
CONTINUOUS
10
301.15
20
-45.0063
11
301.15
21
-47.7062
0
LINE
8
BLACK
6
CONTINUOUS
10
270.35
20
-50.5062
11
270.35
21
-56.5062
0
LINE
8
BLACK
6
CONTINUOUS
10
301.65
20
-47.7062
11
301.15
21
-47.7062
0
LINE
8
BLACK
6
CONTINUOUS
10
300.65
20
-44.5063
11
294.9
21
-44.5063
0
LINE
8
BLACK
6
CONTINUOUS
10
277.6
20
-56.0062
11
278.25
21
-56.0062
0
LINE
8
BLACK
6
CONTINUOUS
10
301.65
20
-50.5062
11
301.15
21
-50.5062
0
LINE
8
BLACK
6
CONTINUOUS
10
298.925
20
-58.0062
11
296.625
21
-58.0062
0
LINE
8
BLACK
6
CONTINUOUS
10
300.65
20
-57.0062
11
299.925
21
-57.0062
0
LINE
8
BLACK
6
CONTINUOUS
10
272.575
20
-58.0062
11
274.875
21
-58.0062
0
LINE
8
BLACK
6
CONTINUOUS
10
269.85
20
-47.7062
11
270.35
21
-47.7062
0
LINE
8
BLACK
6
CONTINUOUS
10
293.9
20
-56.0062
11
293.25
21
-56.0062
0
LINE
8
BLACK
6
CONTINUOUS
10
270.85
20
-57.0062
11
271.575
21
-57.0062
0
LINE
8
BLACK
6
CONTINUOUS
10
279.25
20
-57.0062
11
292.25
21
-57.0062
0
ARC
8
BLACK
10
296.625
20
-57.5062
40
0.5
50
-180
51
-90
0
ARC
8
BLACK
10
275.875
20
-57.5063
40
0.500001
50
90.0001
51
180
0
ARC
8
BLACK
10
279.25
20
-56.5062
40
0.500001
50
-180
51
-90.0001
0
ARC
8
BLACK
10
270.85
20
-45.0063
40
0.500001
50
90.0001
51
180
0
ARC
8
BLACK
10
292.25
20
-56.5062
40
0.5
50
-90
51
-0
0
ARC
8
BLACK
10
292.25
20
-43.5063
40
0.5
50
-0
51
90
0
ARC
8
BLACK
10
271.575
20
-57.5063
40
0.500001
50
0.000114591
51
89.9999
0
ARC
8
BLACK
10
294.9
20
-56.5062
40
0.5
50
-180
51
-90
0
ARC
8
BLACK
10
278.25
20
-45.0062
40
0.500001
50
-89.9999
51
-0.000114591
0
ARC
8
BLACK
10
270.85
20
-56.5062
40
0.500001
50
-180
51
-90.0001
0
ARC
8
BLACK
10
279.25
20
-43.5063
40
0.500001
50
90.0001
51
180
0
ARC
8
BLACK
10
293.9
20
-45.0063
40
0.5
50
-90
51
-0
0
ARC
8
BLACK
10
276.6
20
-45.0063
40
0.500001
50
0.000114591
51
89.9999
0
ARC
8
BLACK
10
277.6
20
-56.5063
40
0.500001
50
90.0001
51
180
0
ARC
8
BLACK
10
276.6
20
-56.5062
40
0.500001
50
-89.9999
51
-0.000114591
0
ARC
8
BLACK
10
269.85
20
-50.3062
40
0.200001
50
-180
51
-90.0003
0
ARC
8
BLACK
10
277.6
20
-45.0062
40
0.500001
50
-180
51
-90.0001
0
ARC
8
BLACK
10
293.25
20
-56.5062
40
0.5
50
90
51
180
0
ARC
8
BLACK
10
300.65
20
-45.0063
40
0.5
50
-0
51
90
0
ARC
8
BLACK
10
298.925
20
-57.5062
40
0.5
50
-90
51
-0
0
ARC
8
BLACK
10
278.25
20
-56.5063
40
0.500001
50
0.000114591
51
89.9999
0
ARC
8
BLACK
10
301.65
20
-50.3062
40
0.2
50
-90
51
-0
0
ARC
8
BLACK
10
274.875
20
-57.5062
40
0.500001
50
-89.9999
51
-0.000114591
0
ARC
8
BLACK
10
293.9
20
-56.5062
40
0.5
50
-0
51
90
0
ARC
8
BLACK
10
269.85
20
-47.9063
40
0.200001
50
90.0003
51
180
0
ARC
8
BLACK
10
294.9
20
-45.0063
40
0.5
50
90
51
180
0
ARC
8
BLACK
10
301.65
20
-47.9062
40
0.2
50
-0
51
90
0
ARC
8
BLACK
10
299.925
20
-57.5062
40
0.5
50
90
51
180
0
ARC
8
BLACK
10
295.625
20
-57.5062
40
0.5
50
-0
51
90
0
ARC
8
BLACK
10
300.65
20
-56.5062
40
0.5
50
-90
51
-0
0
ARC
8
BLACK
10
272.575
20
-57.5062
40
0.500001
50
-180
51
-90.0001
0
ARC
8
BLACK
10
293.25
20
-45.0063
40
0.5
50
-180
51
-90
0
LINE
8
BLACK
6
CONTINUOUS
10
178.45
20
-62.5562
11
178.45
21
-75.5562
0
LINE
8
BLACK
6
CONTINUOUS
10
164.45
20
-62.5562
11
164.45
21
-75.5472
0
LINE
8
BLACK
6
CONTINUOUS
10
164.95
20
-62.0562
11
177.95
21
-62.0562
0
LINE
8
BLACK
6
CONTINUOUS
10
164.95
20
-76.0472
11
177.95
21
-76.0562
0
ARC
8
BLACK
10
164.95
20
-62.5563
40
0.500001
50
90.0001
51
180
0
ARC
8
BLACK
10
177.95
20
-75.5562
40
0.5
50
-90
51
-0
0
ARC
8
BLACK
10
164.95
20
-75.5472
40
0.500001
50
-180
51
-90.0001
0
ARC
8
BLACK
10
177.95
20
-62.5562
40
0.5
50
-0
51
90
0
LINE
8
BLACK
6
CONTINUOUS
10
54.625
20
-119.706
11
54.625
21
-132.706
0
LINE
8
BLACK
6
CONTINUOUS
10
41.125
20
-119.206
11
54.125
21
-119.206
0
LINE
8
BLACK
6
CONTINUOUS
10
41.125
20
-133.197
11
54.125
21
-133.206
0
LINE
8
BLACK
6
CONTINUOUS
10
40.625
20
-119.706
11
40.625
21
-132.697
0
ARC
8
BLACK
10
54.125
20
-132.706
40
0.5
50
-90
51
-0
0
ARC
8
BLACK
10
41.125
20
-119.706
40
0.500001
50
90.0001
51
180
0
ARC
8
BLACK
10
41.125
20
-132.697
40
0.500001
50
-180
51
-90.0001
0
ARC
8
BLACK
10
54.125
20
-119.706
40
0.5
50
-0
51
90
0
LINE
8
BLACK
6
CONTINUOUS
10
135.875
20
-43.5063
11
135.875
21
-56.4972
0
LINE
8
BLACK
6
CONTINUOUS
10
136.375
20
-56.9972
11
149.375
21
-57.0062
0
LINE
8
BLACK
6
CONTINUOUS
10
136.375
20
-43.0063
11
149.375
21
-43.0063
0
LINE
8
BLACK
6
CONTINUOUS
10
149.875
20
-43.5063
11
149.875
21
-56.5062
0
ARC
8
BLACK
10
149.375
20
-43.5063
40
0.5
50
-0
51
90
0
ARC
8
BLACK
10
149.375
20
-56.5062
40
0.5
50
-90
51
-0
0
ARC
8
BLACK
10
136.375
20
-56.4972
40
0.500001
50
-180
51
-90.0001
0
ARC
8
BLACK
10
136.375
20
-43.5063
40
0.500001
50
90.0001
51
180
0
LINE
8
BLACK
6
CONTINUOUS
10
250.175
20
-24.4562
11
250.175
21
-37.4472
0
LINE
8
BLACK
6
CONTINUOUS
10
250.675
20
-23.9562
11
263.675
21
-23.9562
0
LINE
8
BLACK
6
CONTINUOUS
10
264.175
20
-24.4562
11
264.175
21
-37.4562
0
LINE
8
BLACK
6
CONTINUOUS
10
250.675
20
-37.9472
11
263.675
21
-37.9562
0
ARC
8
BLACK
10
250.675
20
-24.4563
40
0.500001
50
90.0001
51
180
0
ARC
8
BLACK
10
250.675
20
-37.4472
40
0.500001
50
-180
51
-90.0001
0
ARC
8
BLACK
10
263.675
20
-24.4562
40
0.5
50
-0
51
90
0
ARC
8
BLACK
10
263.675
20
-37.4562
40
0.5
50
-90
51
-0
0
LINE
8
BLACK
6
CONTINUOUS
10
64.15
20
-62.5562
11
64.15
21
-75.5562
0
LINE
8
BLACK
6
CONTINUOUS
10
50.15
20
-62.5562
11
50.15
21
-75.5472
0
LINE
8
BLACK
6
CONTINUOUS
10
50.65
20
-76.0472
11
63.65
21
-76.0562
0
LINE
8
BLACK
6
CONTINUOUS
10
50.65
20
-62.0562
11
63.65
21
-62.0562
0
ARC
8
BLACK
10
50.65
20
-75.5472
40
0.500001
50
-180
51
-90.0001
0
ARC
8
BLACK
10
63.65
20
-62.5562
40
0.5
50
-0
51
90
0
ARC
8
BLACK
10
63.65
20
-75.5562
40
0.5
50
-90
51
-0
0
ARC
8
BLACK
10
50.65
20
-62.5563
40
0.500001
50
90.0001
51
180
0
LINE
8
BLACK
6
CONTINUOUS
10
236.387
20
-114.147
11
249.387
21
-114.156
0
LINE
8
BLACK
6
CONTINUOUS
10
236.387
20
-100.156
11
249.387
21
-100.156
0
LINE
8
BLACK
6
CONTINUOUS
10
249.887
20
-100.656
11
249.887
21
-113.656
0
LINE
8
BLACK
6
CONTINUOUS
10
235.887
20
-100.656
11
235.887
21
-113.647
0
ARC
8
BLACK
10
236.388
20
-113.647
40
0.500001
50
-180
51
-90.0001
0
ARC
8
BLACK
10
236.388
20
-100.656
40
0.500001
50
90.0001
51
180
0
ARC
8
BLACK
10
249.387
20
-100.656
40
0.5
50
-0
51
90
0
ARC
8
BLACK
10
249.387
20
-113.656
40
0.5
50
-90
51
-0
0
LINE
8
BLACK
6
CONTINUOUS
10
203.05
20
-76.0472
11
216.05
21
-76.0562
0
LINE
8
BLACK
6
CONTINUOUS
10
216.55
20
-62.5562
11
216.55
21
-75.5562
0
LINE
8
BLACK
6
CONTINUOUS
10
202.55
20
-62.5562
11
202.55
21
-75.5472
0
LINE
8
BLACK
6
CONTINUOUS
10
203.05
20
-62.0562
11
216.05
21
-62.0562
0
ARC
8
BLACK
10
216.05
20
-62.5562
40
0.5
50
-0
51
90
0
ARC
8
BLACK
10
203.05
20
-62.5563
40
0.500001
50
90.0001
51
180
0
ARC
8
BLACK
10
203.05
20
-75.5472
40
0.500001
50
-180
51
-90.0001
0
ARC
8
BLACK
10
216.05
20
-75.5562
40
0.5
50
-90
51
-0
0
LINE
8
BLACK
6
CONTINUOUS
10
241.15
20
-62.0562
11
254.15
21
-62.0562
0
LINE
8
BLACK
6
CONTINUOUS
10
254.65
20
-62.5562
11
254.65
21
-75.5562
0
LINE
8
BLACK
6
CONTINUOUS
10
241.15
20
-76.0472
11
254.15
21
-76.0562
0
LINE
8
BLACK
6
CONTINUOUS
10
240.65
20
-62.5562
11
240.65
21
-75.5472
0
ARC
8
BLACK
10
241.15
20
-75.5472
40
0.500001
50
-180
51
-90.0001
0
ARC
8
BLACK
10
254.15
20
-75.5562
40
0.5
50
-90
51
-0
0
ARC
8
BLACK
10
254.15
20
-62.5562
40
0.5
50
-0
51
90
0
ARC
8
BLACK
10
241.15
20
-62.5563
40
0.500001
50
90.0001
51
180
0
LINE
8
BLACK
6
CONTINUOUS
10
40.625
20
-43.5063
11
40.625
21
-56.4972
0
LINE
8
BLACK
6
CONTINUOUS
10
54.625
20
-43.5063
11
54.625
21
-56.5062
0
LINE
8
BLACK
6
CONTINUOUS
10
41.125
20
-43.0063
11
54.125
21
-43.0063
0
LINE
8
BLACK
6
CONTINUOUS
10
41.125
20
-56.9972
11
54.125
21
-57.0062
0
ARC
8
BLACK
10
54.125
20
-56.5062
40
0.5
50
-90
51
-0
0
ARC
8
BLACK
10
41.125
20
-56.4972
40
0.500001
50
-180
51
-90.0001
0
ARC
8
BLACK
10
41.125
20
-43.5063
40
0.500001
50
90.0001
51
180
0
ARC
8
BLACK
10
54.125
20
-43.5063
40
0.5
50
-0
51
90
0
LINE
8
BLACK
6
CONTINUOUS
10
203.05
20
-37.9472
11
216.05
21
-37.9562
0
LINE
8
BLACK
6
CONTINUOUS
10
216.55
20
-24.4562
11
216.55
21
-37.4562
0
LINE
8
BLACK
6
CONTINUOUS
10
202.55
20
-24.4562
11
202.55
21
-37.4472
0
LINE
8
BLACK
6
CONTINUOUS
10
203.05
20
-23.9562
11
216.05
21
-23.9562
0
ARC
8
BLACK
10
216.05
20
-37.4562
40
0.5
50
-90
51
-0
0
ARC
8
BLACK
10
216.05
20
-24.4562
40
0.5
50
-0
51
90
0
ARC
8
BLACK
10
203.05
20
-37.4472
40
0.500001
50
-180
51
-90.0001
0
ARC
8
BLACK
10
203.05
20
-24.4563
40
0.500001
50
90.0001
51
180
0
LINE
8
BLACK
6
CONTINUOUS
10
117.325
20
-56.9972
11
130.325
21
-57.0062
0
LINE
8
BLACK
6
CONTINUOUS
10
116.825
20
-43.5063
11
116.825
21
-56.4972
0
LINE
8
BLACK
6
CONTINUOUS
10
130.825
20
-43.5063
11
130.825
21
-56.5062
0
LINE
8
BLACK
6
CONTINUOUS
10
117.325
20
-43.0063
11
130.325
21
-43.0063
0
ARC
8
BLACK
10
130.325
20
-43.5063
40
0.5
50
-0
51
90
0
ARC
8
BLACK
10
117.325
20
-56.4972
40
0.500001
50
-180
51
-90.0001
0
ARC
8
BLACK
10
117.325
20
-43.5063
40
0.500001
50
90.0001
51
180
0
ARC
8
BLACK
10
130.325
20
-56.5062
40
0.5
50
-90
51
-0
0
LINE
8
BLACK
6
CONTINUOUS
10
250.175
20
-43.5063
11
250.175
21
-56.4972
0
LINE
8
BLACK
6
CONTINUOUS
10
250.675
20
-56.9972
11
263.675
21
-57.0062
0
LINE
8
BLACK
6
CONTINUOUS
10
264.175
20
-43.5063
11
264.175
21
-56.5062
0
LINE
8
BLACK
6
CONTINUOUS
10
250.675
20
-43.0063
11
263.675
21
-43.0063
0
ARC
8
BLACK
10
263.675
20
-43.5063
40
0.5
50
-0
51
90
0
ARC
8
BLACK
10
250.675
20
-43.5063
40
0.500001
50
90.0001
51
180
0
ARC
8
BLACK
10
250.675
20
-56.4972
40
0.500001
50
-180
51
-90.0001
0
ARC
8
BLACK
10
263.675
20
-56.5062
40
0.5
50
-90
51
-0
0
LINE
8
BLACK
6
CONTINUOUS
10
87.9625
20
-81.6063
11
87.9625
21
-94.6062
0
LINE
8
BLACK
6
CONTINUOUS
10
73.9625
20
-81.6063
11
73.9625
21
-94.5972
0
LINE
8
BLACK
6
CONTINUOUS
10
74.4625
20
-95.0972
11
87.4625
21
-95.1062
0
LINE
8
BLACK
6
CONTINUOUS
10
74.4625
20
-81.1063
11
87.4625
21
-81.1063
0
ARC
8
BLACK
10
87.4625
20
-94.6062
40
0.5
50
-90
51
-0
0
ARC
8
BLACK
10
74.4625
20
-81.6063
40
0.500001
50
90.0001
51
180
0
ARC
8
BLACK
10
74.4625
20
-94.5972
40
0.500001
50
-180
51
-90.0001
0
ARC
8
BLACK
10
87.4625
20
-81.6063
40
0.5
50
-0
51
90
0
LINE
8
BLACK
6
CONTINUOUS
10
103.037
20
-114.147
11
116.037
21
-114.156
0
LINE
8
BLACK
6
CONTINUOUS
10
102.537
20
-100.656
11
102.537
21
-113.647
0
LINE
8
BLACK
6
CONTINUOUS
10
103.037
20
-100.156
11
116.037
21
-100.156
0
LINE
8
BLACK
6
CONTINUOUS
10
116.537
20
-100.656
11
116.537
21
-113.656
0
ARC
8
BLACK
10
116.037
20
-113.656
40
0.5
50
-90
51
-0
0
ARC
8
BLACK
10
103.038
20
-100.656
40
0.500001
50
90.0001
51
180
0
ARC
8
BLACK
10
103.038
20
-113.647
40
0.500001
50
-180
51
-90.0001
0
ARC
8
BLACK
10
116.037
20
-100.656
40
0.5
50
-0
51
90
0
CIRCLE
8
BLACK
10
223.837
20
-30.9562
40
1.1
0
CIRCLE
8
BLACK
10
300.037
20
-73.8187
40
1.1
0
CIRCLE
8
BLACK
10
21.4312
20
-69.0562
40
1.1
0
CIRCLE
8
BLACK
10
285.75
20
-33.3375
40
1.1
0
CIRCLE
8
BLACK
10
285.75
20
-128.588
40
1.1
0
CIRCLE
8
BLACK
10
219.075
20
-73.8187
40
1.1
0
CIRCLE
8
BLACK
10
38.1
20
-126.206
40
1.1
0
CIRCLE
8
BLACK
10
45.2437
20
-35.7188
40
1.1
0
CIRCLE
8
BLACK
10
135.731
20
-30.9562
40
1.1
  0
ENDSEC
  0
EOF
