G04 #@! TF.GenerationSoftware,KiCad,Pcbnew,(6.0.1-0)*
G04 #@! TF.CreationDate,2022-06-29T12:55:11+09:00*
G04 #@! TF.ProjectId,key-ripper,6b65792d-7269-4707-9065-722e6b696361,rev?*
G04 #@! TF.SameCoordinates,Original*
G04 #@! TF.FileFunction,Paste,Bot*
G04 #@! TF.FilePolarity,Positive*
%FSLAX46Y46*%
G04 Gerber Fmt 4.6, Leading zero omitted, Abs format (unit mm)*
G04 Created by KiCad (PCBNEW (6.0.1-0)) date 2022-06-29 12:55:11*
%MOMM*%
%LPD*%
G01*
G04 APERTURE LIST*
G04 Aperture macros list*
%AMRoundRect*
0 Rectangle with rounded corners*
0 $1 Rounding radius*
0 $2 $3 $4 $5 $6 $7 $8 $9 X,Y pos of 4 corners*
0 Add a 4 corners polygon primitive as box body*
4,1,4,$2,$3,$4,$5,$6,$7,$8,$9,$2,$3,0*
0 Add four circle primitives for the rounded corners*
1,1,$1+$1,$2,$3*
1,1,$1+$1,$4,$5*
1,1,$1+$1,$6,$7*
1,1,$1+$1,$8,$9*
0 Add four rect primitives between the rounded corners*
20,1,$1+$1,$2,$3,$4,$5,0*
20,1,$1+$1,$4,$5,$6,$7,0*
20,1,$1+$1,$6,$7,$8,$9,0*
20,1,$1+$1,$8,$9,$2,$3,0*%
G04 Aperture macros list end*
%ADD10RoundRect,0.250000X-1.025000X-1.000000X1.025000X-1.000000X1.025000X1.000000X-1.025000X1.000000X0*%
%ADD11R,1.200000X0.900000*%
%ADD12RoundRect,0.140000X0.140000X0.170000X-0.140000X0.170000X-0.140000X-0.170000X0.140000X-0.170000X0*%
%ADD13RoundRect,0.140000X0.170000X-0.140000X0.170000X0.140000X-0.170000X0.140000X-0.170000X-0.140000X0*%
%ADD14RoundRect,0.140000X-0.140000X-0.170000X0.140000X-0.170000X0.140000X0.170000X-0.140000X0.170000X0*%
%ADD15RoundRect,0.150000X-0.587500X-0.150000X0.587500X-0.150000X0.587500X0.150000X-0.587500X0.150000X0*%
%ADD16RoundRect,0.218750X-0.381250X0.218750X-0.381250X-0.218750X0.381250X-0.218750X0.381250X0.218750X0*%
%ADD17RoundRect,0.200000X0.275000X-0.200000X0.275000X0.200000X-0.275000X0.200000X-0.275000X-0.200000X0*%
%ADD18RoundRect,0.135000X0.185000X-0.135000X0.185000X0.135000X-0.185000X0.135000X-0.185000X-0.135000X0*%
%ADD19R,0.300000X1.300000*%
%ADD20R,0.900000X1.200000*%
%ADD21RoundRect,0.243750X0.243750X0.456250X-0.243750X0.456250X-0.243750X-0.456250X0.243750X-0.456250X0*%
%ADD22R,1.000000X1.700000*%
%ADD23RoundRect,0.140000X-0.170000X0.140000X-0.170000X-0.140000X0.170000X-0.140000X0.170000X0.140000X0*%
%ADD24RoundRect,0.135000X-0.185000X0.135000X-0.185000X-0.135000X0.185000X-0.135000X0.185000X0.135000X0*%
%ADD25RoundRect,0.135000X-0.135000X-0.185000X0.135000X-0.185000X0.135000X0.185000X-0.135000X0.185000X0*%
%ADD26RoundRect,0.135000X0.135000X0.185000X-0.135000X0.185000X-0.135000X-0.185000X0.135000X-0.185000X0*%
%ADD27RoundRect,0.243750X-0.456250X0.243750X-0.456250X-0.243750X0.456250X-0.243750X0.456250X0.243750X0*%
%ADD28R,1.200000X1.400000*%
%ADD29R,1.100000X0.200000*%
%ADD30R,0.200000X1.100000*%
%ADD31R,3.100000X3.100000*%
%ADD32R,1.700000X1.000000*%
%ADD33RoundRect,0.150000X0.150000X-0.650000X0.150000X0.650000X-0.150000X0.650000X-0.150000X-0.650000X0*%
G04 APERTURE END LIST*
D10*
X40540000Y-121285000D03*
X53467000Y-118745000D03*
X152458750Y-121285000D03*
X165385750Y-118745000D03*
X116740000Y-45085000D03*
X129667000Y-42545000D03*
X159602500Y-102235000D03*
X172529500Y-99695000D03*
X250090000Y-121285000D03*
X263017000Y-118745000D03*
X95308750Y-26035000D03*
X108235750Y-23495000D03*
X59590000Y-45085000D03*
X72517000Y-42545000D03*
X269140000Y-121285000D03*
X282067000Y-118745000D03*
X142933750Y-26035000D03*
X155860750Y-23495000D03*
X216752500Y-102235000D03*
X229679500Y-99695000D03*
X107215000Y-64135000D03*
X120142000Y-61595000D03*
X235802500Y-102235000D03*
X248729500Y-99695000D03*
X88165000Y-64135000D03*
X101092000Y-61595000D03*
X28633750Y-83185000D03*
X41560750Y-80645000D03*
X278665000Y-45085000D03*
X291592000Y-42545000D03*
X145315000Y-64135000D03*
X158242000Y-61595000D03*
X259615000Y-64135000D03*
X272542000Y-61595000D03*
X97690000Y-45085000D03*
X110617000Y-42545000D03*
X21490000Y-45085000D03*
X34417000Y-42545000D03*
X102452500Y-102235000D03*
X115379500Y-99695000D03*
X250090000Y-26035000D03*
X263017000Y-23495000D03*
X26252500Y-64135000D03*
X39179500Y-61595000D03*
X197702500Y-102235000D03*
X210629500Y-99695000D03*
X223896250Y-121285000D03*
X236823250Y-118745000D03*
X57208750Y-26035000D03*
X70135750Y-23495000D03*
X226277500Y-83185000D03*
X239204500Y-80645000D03*
X240565000Y-64135000D03*
X253492000Y-61595000D03*
X50065000Y-64135000D03*
X62992000Y-61595000D03*
X231040000Y-45085000D03*
X243967000Y-42545000D03*
X76258750Y-26035000D03*
X89185750Y-23495000D03*
X288190000Y-26035000D03*
X301117000Y-23495000D03*
X169127500Y-83185000D03*
X182054500Y-80645000D03*
X40540000Y-45085000D03*
X53467000Y-42545000D03*
X269140000Y-26035000D03*
X282067000Y-23495000D03*
X21490000Y-121285000D03*
X34417000Y-118745000D03*
X83402500Y-102235000D03*
X96329500Y-99695000D03*
X183415000Y-26035000D03*
X196342000Y-23495000D03*
X114358750Y-26035000D03*
X127285750Y-23495000D03*
X283427500Y-64135000D03*
X296354500Y-61595000D03*
X211990000Y-45085000D03*
X224917000Y-42545000D03*
X21490000Y-26035000D03*
X34417000Y-23495000D03*
X59590000Y-121285000D03*
X72517000Y-118745000D03*
X202465000Y-26035000D03*
X215392000Y-23495000D03*
X276283750Y-83185000D03*
X289210750Y-80645000D03*
X131027500Y-83185000D03*
X143954500Y-80645000D03*
X207227500Y-83185000D03*
X220154500Y-80645000D03*
X64352500Y-102235000D03*
X77279500Y-99695000D03*
X288190000Y-121285000D03*
X301117000Y-118745000D03*
X250090000Y-45085000D03*
X263017000Y-42545000D03*
X173890000Y-45085000D03*
X186817000Y-42545000D03*
X69115000Y-64135000D03*
X82042000Y-61595000D03*
X164365000Y-64135000D03*
X177292000Y-61595000D03*
X121502500Y-102235000D03*
X134429500Y-99695000D03*
X54827500Y-83185000D03*
X67754500Y-80645000D03*
X202465000Y-64135000D03*
X215392000Y-61595000D03*
X188177500Y-83185000D03*
X201104500Y-80645000D03*
X111977500Y-83185000D03*
X124904500Y-80645000D03*
X164365000Y-26035000D03*
X177292000Y-23495000D03*
X154840000Y-45085000D03*
X167767000Y-42545000D03*
X126265000Y-64135000D03*
X139192000Y-61595000D03*
X81021250Y-121285000D03*
X93948250Y-118745000D03*
X150077500Y-83185000D03*
X163004500Y-80645000D03*
X231040000Y-26035000D03*
X243967000Y-23495000D03*
X183415000Y-64135000D03*
X196342000Y-61595000D03*
X135790000Y-45085000D03*
X148717000Y-42545000D03*
X178652500Y-102235000D03*
X191579500Y-99695000D03*
X192940000Y-45085000D03*
X205867000Y-42545000D03*
X269140000Y-102235000D03*
X282067000Y-99695000D03*
X245327500Y-83185000D03*
X258254500Y-80645000D03*
X33396250Y-102235000D03*
X46323250Y-99695000D03*
X78640000Y-45085000D03*
X91567000Y-42545000D03*
X221515000Y-64135000D03*
X234442000Y-61595000D03*
X92927500Y-83185000D03*
X105854500Y-80645000D03*
X73877500Y-83185000D03*
X86804500Y-80645000D03*
X140552500Y-102235000D03*
X153479500Y-99695000D03*
D11*
X225862500Y-77525000D03*
X225862500Y-80825000D03*
X202050000Y-58475000D03*
X202050000Y-61775000D03*
D12*
X43255000Y-85925000D03*
X42295000Y-85925000D03*
D11*
X130612500Y-77525000D03*
X130612500Y-80825000D03*
D13*
X45225000Y-85625000D03*
X45225000Y-84665000D03*
D11*
X230625000Y-20375000D03*
X230625000Y-23675000D03*
X163950000Y-20375000D03*
X163950000Y-23675000D03*
X21075000Y-20375000D03*
X21075000Y-23675000D03*
X68700000Y-58475000D03*
X68700000Y-61775000D03*
D12*
X43235000Y-84925000D03*
X42275000Y-84925000D03*
D11*
X111562500Y-77525000D03*
X111562500Y-80825000D03*
X87750000Y-58475000D03*
X87750000Y-61775000D03*
X268725000Y-20375000D03*
X268725000Y-23675000D03*
D14*
X27195000Y-100125000D03*
X28155000Y-100125000D03*
D11*
X106800000Y-58475000D03*
X106800000Y-61775000D03*
X249675000Y-20375000D03*
X249675000Y-23675000D03*
X135375000Y-39425000D03*
X135375000Y-42725000D03*
D15*
X57837500Y-94675000D03*
X57837500Y-92775000D03*
X59712500Y-93725000D03*
D16*
X61712500Y-91662500D03*
X61712500Y-93787500D03*
D11*
X202050000Y-20375000D03*
X202050000Y-23675000D03*
X168712500Y-77525000D03*
X168712500Y-80825000D03*
X149662500Y-77525000D03*
X149662500Y-80825000D03*
X51675000Y-28325000D03*
X51675000Y-25025000D03*
X94893750Y-20375000D03*
X94893750Y-23675000D03*
X268725000Y-96575000D03*
X268725000Y-99875000D03*
D17*
X46775000Y-81875000D03*
X46775000Y-80225000D03*
D18*
X26075000Y-96935000D03*
X26075000Y-95915000D03*
D11*
X113943750Y-20375000D03*
X113943750Y-23675000D03*
D18*
X57625000Y-91485000D03*
X57625000Y-90465000D03*
D19*
X41892721Y-23577837D03*
X42692823Y-23577837D03*
X43992797Y-23577837D03*
X44992797Y-23577837D03*
X45492670Y-23577837D03*
X46492416Y-23577837D03*
X47792899Y-23577837D03*
X48592747Y-23577837D03*
X48292772Y-23577837D03*
X47492670Y-23577837D03*
X46992797Y-23577837D03*
X45992797Y-23577837D03*
X44492670Y-23577837D03*
X43492670Y-23577837D03*
X42992797Y-23577837D03*
X42192696Y-23577837D03*
D20*
X58625000Y-77225000D03*
X55325000Y-77225000D03*
D11*
X173475000Y-39425000D03*
X173475000Y-42725000D03*
D21*
X59487500Y-88975000D03*
X57612500Y-88975000D03*
D11*
X75843750Y-20375000D03*
X75843750Y-23675000D03*
X183000000Y-20375000D03*
X183000000Y-23675000D03*
X287775000Y-20375000D03*
X287775000Y-23675000D03*
D22*
X29324124Y-108424975D03*
X29325394Y-101825025D03*
X25624606Y-108424975D03*
X25624606Y-101825025D03*
D11*
X49650000Y-58475000D03*
X49650000Y-61775000D03*
X92512500Y-77525000D03*
X92512500Y-80825000D03*
X275868750Y-77525000D03*
X275868750Y-80825000D03*
X268725000Y-115625000D03*
X268725000Y-118925000D03*
X206812500Y-77525000D03*
X206812500Y-80825000D03*
X197287500Y-96575000D03*
X197287500Y-99875000D03*
X82987500Y-96575000D03*
X82987500Y-99875000D03*
D14*
X52615000Y-91805000D03*
X53575000Y-91805000D03*
D18*
X48175000Y-102445000D03*
X48175000Y-101425000D03*
D11*
X63937500Y-96575000D03*
X63937500Y-99875000D03*
X230625000Y-39425000D03*
X230625000Y-42725000D03*
D23*
X47375000Y-96825000D03*
X47375000Y-97785000D03*
D11*
X21075000Y-39425000D03*
X21075000Y-42725000D03*
X163950000Y-58475000D03*
X163950000Y-61775000D03*
X223481250Y-115625000D03*
X223481250Y-118925000D03*
D24*
X55075000Y-73005000D03*
X55075000Y-74025000D03*
D11*
X40125000Y-39425000D03*
X40125000Y-42725000D03*
D25*
X55065000Y-75425000D03*
X56085000Y-75425000D03*
D11*
X40125000Y-115625000D03*
X40125000Y-118925000D03*
D25*
X47565000Y-26525000D03*
X48585000Y-26525000D03*
D11*
X178237500Y-96575000D03*
X178237500Y-99875000D03*
X140137500Y-96575000D03*
X140137500Y-99875000D03*
X240150000Y-58475000D03*
X240150000Y-61775000D03*
D13*
X44175000Y-85625000D03*
X44175000Y-84665000D03*
D11*
X216337500Y-96575000D03*
X216337500Y-99875000D03*
X116325000Y-39425000D03*
X116325000Y-42725000D03*
X59175000Y-39425000D03*
X59175000Y-42725000D03*
X211575000Y-39425000D03*
X211575000Y-42725000D03*
D26*
X40185000Y-26725000D03*
X39165000Y-26725000D03*
D13*
X59700000Y-91530000D03*
X59700000Y-90570000D03*
D11*
X235387500Y-96575000D03*
X235387500Y-99875000D03*
X283012500Y-58475000D03*
X283012500Y-61775000D03*
D13*
X53575000Y-71405000D03*
X53575000Y-70445000D03*
D11*
X154425000Y-39425000D03*
X154425000Y-42725000D03*
D13*
X58700000Y-91480000D03*
X58700000Y-90520000D03*
D11*
X73462500Y-77525000D03*
X73462500Y-80825000D03*
X144900000Y-58475000D03*
X144900000Y-61775000D03*
X278250000Y-39425000D03*
X278250000Y-42725000D03*
X192525000Y-39425000D03*
X192525000Y-42725000D03*
D13*
X47975000Y-84305000D03*
X47975000Y-83345000D03*
D14*
X49955000Y-104495000D03*
X50915000Y-104495000D03*
D12*
X43255000Y-86925000D03*
X42295000Y-86925000D03*
X42005000Y-92055000D03*
X41045000Y-92055000D03*
D23*
X46375000Y-96825000D03*
X46375000Y-97785000D03*
D11*
X25837500Y-58475000D03*
X25837500Y-61775000D03*
X56793750Y-20375000D03*
X56793750Y-23675000D03*
X28218750Y-77525000D03*
X28218750Y-80825000D03*
D13*
X52575000Y-88025000D03*
X52575000Y-87065000D03*
D11*
X249675000Y-115625000D03*
X249675000Y-118925000D03*
X142518750Y-20375000D03*
X142518750Y-23675000D03*
X244912500Y-77525000D03*
X244912500Y-80825000D03*
X259200000Y-58475000D03*
X259200000Y-61775000D03*
D27*
X51725000Y-29937500D03*
X51725000Y-31812500D03*
D13*
X47045000Y-84005000D03*
X47045000Y-83045000D03*
D11*
X249675000Y-39425000D03*
X249675000Y-42725000D03*
X21075000Y-115625000D03*
X21075000Y-118925000D03*
X125850000Y-58475000D03*
X125850000Y-61775000D03*
D28*
X51325000Y-100725000D03*
X51325000Y-102925000D03*
X49625000Y-102925000D03*
X49625000Y-100725000D03*
D11*
X159187500Y-96575000D03*
X159187500Y-99875000D03*
X102037500Y-96575000D03*
X102037500Y-99875000D03*
X183000000Y-58475000D03*
X183000000Y-61775000D03*
X80606250Y-115625000D03*
X80606250Y-118925000D03*
D29*
X50925165Y-88224924D03*
X50925165Y-88624975D03*
X50925165Y-89025025D03*
X50925165Y-89425076D03*
X50925165Y-89824873D03*
X50925165Y-90224924D03*
X50925165Y-90624975D03*
X50925165Y-91025025D03*
X50925165Y-91425076D03*
X50925165Y-91824873D03*
X50925165Y-92224924D03*
X50925165Y-92624975D03*
X50925165Y-93025025D03*
X50925165Y-93425076D03*
D30*
X49974949Y-94375038D03*
X49575152Y-94375038D03*
X49175102Y-94375038D03*
X48775051Y-94375038D03*
X48375000Y-94375038D03*
X47974949Y-94375038D03*
X47575152Y-94375038D03*
X47175102Y-94375038D03*
X46775051Y-94375038D03*
X46375000Y-94375038D03*
X45974949Y-94375038D03*
X45575152Y-94375038D03*
X45175102Y-94375038D03*
X44775051Y-94375038D03*
D29*
X43824835Y-93425076D03*
X43824835Y-93025025D03*
X43824835Y-92624975D03*
X43824835Y-92224924D03*
X43824835Y-91824873D03*
X43824835Y-91425076D03*
X43824835Y-91025025D03*
X43824835Y-90624975D03*
X43824835Y-90224924D03*
X43824835Y-89824873D03*
X43824835Y-89425076D03*
X43824835Y-89025025D03*
X43824835Y-88624975D03*
X43824835Y-88224924D03*
D30*
X44775051Y-87274962D03*
X45175102Y-87274962D03*
X45575152Y-87274962D03*
X45974949Y-87274962D03*
X46375000Y-87274962D03*
X46775051Y-87274962D03*
X47175102Y-87274962D03*
X47575152Y-87274962D03*
X47974949Y-87274962D03*
X48375000Y-87274962D03*
X48775051Y-87274962D03*
X49175102Y-87274962D03*
X49575152Y-87274962D03*
X49974949Y-87274962D03*
D31*
X47375000Y-90824873D03*
D11*
X152043750Y-115625000D03*
X152043750Y-118925000D03*
X121087500Y-96575000D03*
X121087500Y-99875000D03*
D32*
X63674950Y-70426270D03*
X57075000Y-70425000D03*
X63674950Y-74125788D03*
X57075000Y-74125788D03*
D11*
X59175000Y-115625000D03*
X59175000Y-118925000D03*
D23*
X52675000Y-101245000D03*
X52675000Y-102205000D03*
D11*
X78225000Y-39425000D03*
X78225000Y-42725000D03*
X97275000Y-39425000D03*
X97275000Y-42725000D03*
X221100000Y-58475000D03*
X221100000Y-61775000D03*
X287775000Y-115625000D03*
X287775000Y-118925000D03*
X32981250Y-96575000D03*
X32981250Y-99875000D03*
D33*
X53580000Y-80525000D03*
X52310000Y-80525000D03*
X51040000Y-80525000D03*
X49770000Y-80525000D03*
X49770000Y-73325000D03*
X51040000Y-73325000D03*
X52310000Y-73325000D03*
X53580000Y-73325000D03*
D11*
X187762500Y-77525000D03*
X187762500Y-80825000D03*
D17*
X45175000Y-81875000D03*
X45175000Y-80225000D03*
M02*
