%FSLAX45Y45*%
G04 Gerber Fmt 4.5, Leading zero omitted, Abs format (unit mm)*
G04 Created by KiCad (PCBNEW (6.0.1-0)) date 2022-06-29 12:55:52*
%MOMM*%
%LPD*%
G01*
G04 APERTURE LIST*
%TA.AperFunction,Profile*%
%ADD10C,0.100000*%
%TD*%
%ADD11C,0.200000*%
%ADD12C,0.040000*%
%ADD13C,0.080000*%
%ADD14C,0.100000*%
G04 APERTURE END LIST*
D10*
X1905000Y-13096875D02*
X1905000Y-2143125D01*
X30241875Y-13335000D02*
X2143125Y-13335000D01*
X4048125Y-1666875D02*
X5000625Y-1666875D01*
X30480000Y-2143125D02*
X30480000Y-13096875D01*
X5238750Y-1905000D02*
X30241875Y-1905000D01*
X4048125Y-1666875D02*
X3810000Y-1905000D01*
X2143125Y-1905000D02*
X3810000Y-1905000D01*
X30241875Y-13335000D02*
G75*
G03*
X30480000Y-13096875I0J238125D01*
G01*
X1905000Y-13096875D02*
G75*
G03*
X2143125Y-13335000I238125J0D01*
G01*
X5000625Y-1666875D02*
X5238750Y-1905000D01*
X2143125Y-1905000D02*
G75*
G03*
X1905000Y-2143125I0J-238125D01*
G01*
X30480000Y-2143125D02*
G75*
G03*
X30241875Y-1905000I-238125J0D01*
G01*
D11*
D12*
X2237500Y-7882500D02*
X2277500Y-7922500D01*
X2277500Y-7882500D02*
X2237500Y-7922500D01*
X2327500Y-11542500D02*
X2367500Y-11582500D01*
X2367500Y-11542500D02*
X2327500Y-11582500D01*
X2337500Y-2012500D02*
X2377500Y-2052500D01*
X2377500Y-2012500D02*
X2337500Y-2052500D01*
X2337500Y-3932500D02*
X2377500Y-3972500D01*
X2377500Y-3932500D02*
X2337500Y-3972500D01*
X2707500Y-9352500D02*
X2747500Y-9392500D01*
X2747500Y-9352500D02*
X2707500Y-9392500D01*
X2827500Y-5832500D02*
X2867500Y-5872500D01*
X2867500Y-5832500D02*
X2827500Y-5872500D01*
X2877500Y-9342500D02*
X2917500Y-9382500D01*
X2917500Y-9342500D02*
X2877500Y-9382500D01*
X2907500Y-9992500D02*
X2947500Y-10032500D01*
X2947500Y-9992500D02*
X2907500Y-10032500D01*
X3037500Y-10182500D02*
X3077500Y-10222500D01*
X3077500Y-10182500D02*
X3037500Y-10222500D01*
X3047500Y-10852500D02*
X3087500Y-10892500D01*
X3087500Y-10852500D02*
X3047500Y-10892500D01*
X3067500Y-7732500D02*
X3107500Y-7772500D01*
X3107500Y-7732500D02*
X3067500Y-7772500D01*
X3307500Y-11592500D02*
X3347500Y-11632500D01*
X3347500Y-11592500D02*
X3307500Y-11632500D01*
X3307500Y-12092500D02*
X3347500Y-12132500D01*
X3347500Y-12092500D02*
X3307500Y-12132500D01*
X3407450Y-12092500D02*
X3447450Y-12132500D01*
X3447450Y-12092500D02*
X3407450Y-12132500D01*
X3407550Y-11592500D02*
X3447550Y-11632500D01*
X3447550Y-11592500D02*
X3407550Y-11632500D01*
X3487500Y-9642500D02*
X3527500Y-9682500D01*
X3527500Y-9642500D02*
X3487500Y-9682500D01*
X3507500Y-11592500D02*
X3547500Y-11632500D01*
X3547500Y-11592500D02*
X3507500Y-11632500D01*
X3507500Y-12092500D02*
X3547500Y-12132500D01*
X3547500Y-12092500D02*
X3507500Y-12132500D01*
X3577500Y-9562550D02*
X3617500Y-9602550D01*
X3617500Y-9562550D02*
X3577500Y-9602550D01*
X3647500Y-3802500D02*
X3687500Y-3842500D01*
X3687500Y-3802500D02*
X3647500Y-3842500D01*
X3647500Y-4032500D02*
X3687500Y-4072500D01*
X3687500Y-4032500D02*
X3647500Y-4072500D01*
X3657500Y-9452500D02*
X3697500Y-9492500D01*
X3697500Y-9452500D02*
X3657500Y-9492500D01*
X3747500Y-2652500D02*
X3787500Y-2692500D01*
X3787500Y-2652500D02*
X3747500Y-2692500D01*
X3857500Y-3802500D02*
X3897500Y-3842500D01*
X3897500Y-3802500D02*
X3857500Y-3842500D01*
X3857500Y-4032500D02*
X3897500Y-4072500D01*
X3897500Y-4032500D02*
X3857500Y-4072500D01*
X3897500Y-2492500D02*
X3937500Y-2532500D01*
X3937500Y-2492500D02*
X3897500Y-2532500D01*
X3951248Y-9137676D02*
X3991248Y-9177676D01*
X3991248Y-9137676D02*
X3951248Y-9177676D01*
X4007500Y-2492500D02*
X4047500Y-2532500D01*
X4047500Y-2492500D02*
X4007500Y-2532500D01*
X4092500Y-8247500D02*
X4132500Y-8287500D01*
X4132500Y-8247500D02*
X4092500Y-8287500D01*
X4107500Y-2492500D02*
X4147500Y-2532500D01*
X4147500Y-2492500D02*
X4107500Y-2532500D01*
X4121962Y-8708038D02*
X4161962Y-8748038D01*
X4161962Y-8708038D02*
X4121962Y-8748038D01*
X4197500Y-8362500D02*
X4237500Y-8402500D01*
X4237500Y-8362500D02*
X4197500Y-8402500D01*
X4217500Y-8772500D02*
X4257500Y-8812500D01*
X4257500Y-8772500D02*
X4217500Y-8812500D01*
X4237500Y-3922500D02*
X4277500Y-3962500D01*
X4277500Y-3922500D02*
X4237500Y-3962500D01*
X4297450Y-11522550D02*
X4337450Y-11562550D01*
X4337450Y-11522550D02*
X4297450Y-11562550D01*
X4387500Y-8642500D02*
X4427500Y-8682500D01*
X4427500Y-8642500D02*
X4387500Y-8682500D01*
X4397500Y-8352500D02*
X4437500Y-8392500D01*
X4437500Y-8352500D02*
X4397500Y-8392500D01*
X4487500Y-5732500D02*
X4527500Y-5772500D01*
X4527500Y-5732500D02*
X4487500Y-5772500D01*
X4487500Y-5962500D02*
X4527500Y-6002500D01*
X4527500Y-5962500D02*
X4487500Y-6002500D01*
X4487500Y-7612500D02*
X4527500Y-7652500D01*
X4527500Y-7612500D02*
X4487500Y-7652500D01*
X4487500Y-7842500D02*
X4527500Y-7882500D01*
X4527500Y-7842500D02*
X4487500Y-7882500D01*
X4497500Y-8352500D02*
X4537500Y-8392500D01*
X4537500Y-8352500D02*
X4497500Y-8392500D01*
X4527500Y-9692500D02*
X4567500Y-9732500D01*
X4567500Y-9692500D02*
X4527500Y-9732500D01*
X4607500Y-8952500D02*
X4647500Y-8992500D01*
X4647500Y-8952500D02*
X4607500Y-8992500D01*
X4607500Y-9172500D02*
X4647500Y-9212500D01*
X4647500Y-9172500D02*
X4607500Y-9212500D01*
X4657500Y-10212500D02*
X4697500Y-10252500D01*
X4697500Y-10212500D02*
X4657500Y-10252500D01*
X4687500Y-5732500D02*
X4727500Y-5772500D01*
X4727500Y-5732500D02*
X4687500Y-5772500D01*
X4687500Y-5962500D02*
X4727500Y-6002500D01*
X4727500Y-5962500D02*
X4687500Y-6002500D01*
X4697500Y-7612500D02*
X4737500Y-7652500D01*
X4737500Y-7612500D02*
X4697500Y-7652500D01*
X4697500Y-7842500D02*
X4737500Y-7882500D01*
X4737500Y-7842500D02*
X4697500Y-7882500D01*
X4707500Y-8482500D02*
X4747500Y-8522500D01*
X4747500Y-8482500D02*
X4707500Y-8522500D01*
X4717500Y-9062500D02*
X4757500Y-9102500D01*
X4757500Y-9062500D02*
X4717500Y-9102500D01*
X4737500Y-10322500D02*
X4777500Y-10362500D01*
X4777500Y-10322500D02*
X4737500Y-10362500D01*
X4777500Y-8222500D02*
X4817500Y-8262500D01*
X4817500Y-8222500D02*
X4777500Y-8262500D01*
X4827500Y-8952500D02*
X4867500Y-8992500D01*
X4867500Y-8952500D02*
X4827500Y-8992500D01*
X4827500Y-9172500D02*
X4867500Y-9212500D01*
X4867500Y-9172500D02*
X4827500Y-9212500D01*
X4847500Y-10442500D02*
X4887500Y-10482500D01*
X4887500Y-10442500D02*
X4847500Y-10482500D01*
X4847500Y-10562500D02*
X4887500Y-10602500D01*
X4887500Y-10562500D02*
X4847500Y-10602500D01*
X4875489Y-9894511D02*
X4915489Y-9934511D01*
X4915489Y-9894511D02*
X4875489Y-9934511D01*
X4947500Y-7832500D02*
X4987500Y-7872500D01*
X4987500Y-7832500D02*
X4947500Y-7872500D01*
X4957500Y-9292500D02*
X4997500Y-9332500D01*
X4997500Y-9292500D02*
X4957500Y-9332500D01*
X4958534Y-8821773D02*
X4998534Y-8861773D01*
X4998534Y-8821773D02*
X4958534Y-8861773D01*
X4977500Y-10562500D02*
X5017500Y-10602500D01*
X5017500Y-10562500D02*
X4977500Y-10602500D01*
X4997500Y-2632500D02*
X5037500Y-2672500D01*
X5037500Y-2632500D02*
X4997500Y-2672500D01*
X4997500Y-9712500D02*
X5037500Y-9752500D01*
X5037500Y-9712500D02*
X4997500Y-9752500D01*
X5097500Y-10562500D02*
X5137500Y-10602500D01*
X5137500Y-10562500D02*
X5097500Y-10602500D01*
X5107500Y-2312500D02*
X5147500Y-2352500D01*
X5147500Y-2312500D02*
X5107500Y-2352500D01*
X5147500Y-7832500D02*
X5187500Y-7872500D01*
X5187500Y-7832500D02*
X5147500Y-7872500D01*
X5207500Y-2312500D02*
X5247500Y-2352500D01*
X5247500Y-2312500D02*
X5207500Y-2352500D01*
X5207500Y-10452500D02*
X5247500Y-10492500D01*
X5247500Y-10452500D02*
X5207500Y-10492500D01*
X5207500Y-10562500D02*
X5247500Y-10602500D01*
X5247500Y-10562500D02*
X5207500Y-10602500D01*
X5257500Y-5832500D02*
X5297500Y-5872500D01*
X5297500Y-5832500D02*
X5257500Y-5872500D01*
X5257500Y-8592500D02*
X5297500Y-8632500D01*
X5297500Y-8592500D02*
X5257500Y-8632500D01*
X5287500Y-10002500D02*
X5327500Y-10042500D01*
X5327500Y-10002500D02*
X5287500Y-10042500D01*
X5307500Y-2312500D02*
X5347500Y-2352500D01*
X5347500Y-2312500D02*
X5307500Y-2352500D01*
X5327500Y-10322500D02*
X5367500Y-10362500D01*
X5367500Y-10322500D02*
X5327500Y-10362500D01*
X5327500Y-10452500D02*
X5367500Y-10492500D01*
X5367500Y-10452500D02*
X5327500Y-10492500D01*
X5337500Y-6912500D02*
X5377500Y-6952500D01*
X5377500Y-6912500D02*
X5337500Y-6952500D01*
X5407500Y-10002500D02*
X5447500Y-10042500D01*
X5447500Y-10002500D02*
X5407500Y-10042500D01*
X5407500Y-10122500D02*
X5447500Y-10162500D01*
X5447500Y-10122500D02*
X5407500Y-10162500D01*
X5407500Y-10242500D02*
X5447500Y-10282500D01*
X5447500Y-10242500D02*
X5407500Y-10282500D01*
X5437500Y-9162500D02*
X5477500Y-9202500D01*
X5477500Y-9162500D02*
X5437500Y-9202500D01*
X5562801Y-11241898D02*
X5602801Y-11281898D01*
X5602801Y-11241898D02*
X5562801Y-11281898D01*
X5607500Y-11152500D02*
X5647500Y-11192500D01*
X5647500Y-11152500D02*
X5607500Y-11192500D01*
X5637402Y-11052500D02*
X5677402Y-11092500D01*
X5677402Y-11052500D02*
X5637402Y-11092500D01*
X5657500Y-7192500D02*
X5697500Y-7232500D01*
X5697500Y-7192500D02*
X5657500Y-7232500D01*
X5677402Y-10953161D02*
X5717402Y-10993161D01*
X5717402Y-10953161D02*
X5677402Y-10993161D01*
X5717354Y-10855580D02*
X5757354Y-10895580D01*
X5757354Y-10855580D02*
X5717354Y-10895580D01*
X5757306Y-10756340D02*
X5797306Y-10796340D01*
X5797306Y-10756340D02*
X5757306Y-10796340D01*
X5897500Y-7522500D02*
X5937500Y-7562500D01*
X5937500Y-7522500D02*
X5897500Y-7562500D01*
X5917500Y-9462500D02*
X5957500Y-9502500D01*
X5957500Y-9462500D02*
X5917500Y-9502500D01*
X5937500Y-2012500D02*
X5977500Y-2052500D01*
X5977500Y-2012500D02*
X5937500Y-2052500D01*
X6037500Y-9032500D02*
X6077500Y-9072500D01*
X6077500Y-9032500D02*
X6037500Y-9072500D01*
X6097500Y-8822500D02*
X6137500Y-8862500D01*
X6137500Y-8822500D02*
X6097500Y-8862500D01*
X6217550Y-11522550D02*
X6257550Y-11562550D01*
X6257550Y-11522550D02*
X6217550Y-11562550D01*
X6237500Y-3922500D02*
X6277500Y-3962500D01*
X6277500Y-3922500D02*
X6237500Y-3962500D01*
X6557500Y-7022500D02*
X6597500Y-7062500D01*
X6597500Y-7022500D02*
X6557500Y-7062500D01*
X6667500Y-9642500D02*
X6707500Y-9682500D01*
X6707500Y-9642500D02*
X6667500Y-9682500D01*
X7157500Y-5832500D02*
X7197500Y-5872500D01*
X7197500Y-5832500D02*
X7157500Y-5872500D01*
X7637500Y-7732500D02*
X7677500Y-7772500D01*
X7677500Y-7732500D02*
X7637500Y-7772500D01*
X7837500Y-2012500D02*
X7877500Y-2052500D01*
X7877500Y-2012500D02*
X7837500Y-2052500D01*
X8137500Y-3922500D02*
X8177500Y-3962500D01*
X8177500Y-3922500D02*
X8137500Y-3962500D01*
X8387550Y-11522550D02*
X8427550Y-11562550D01*
X8427550Y-11522550D02*
X8387550Y-11562550D01*
X8547500Y-9642500D02*
X8587500Y-9682500D01*
X8587500Y-9642500D02*
X8547500Y-9682500D01*
X9047500Y-5832500D02*
X9087500Y-5872500D01*
X9087500Y-5832500D02*
X9047500Y-5872500D01*
X9537500Y-7732500D02*
X9577500Y-7772500D01*
X9577500Y-7732500D02*
X9537500Y-7772500D01*
X9737500Y-2012500D02*
X9777500Y-2052500D01*
X9777500Y-2012500D02*
X9737500Y-2052500D01*
X10037500Y-3922500D02*
X10077500Y-3962500D01*
X10077500Y-3922500D02*
X10037500Y-3962500D01*
X10447500Y-9632500D02*
X10487500Y-9672500D01*
X10487500Y-9632500D02*
X10447500Y-9672500D01*
X10927500Y-5832500D02*
X10967500Y-5872500D01*
X10967500Y-5832500D02*
X10927500Y-5872500D01*
X11447500Y-7732500D02*
X11487500Y-7772500D01*
X11487500Y-7732500D02*
X11447500Y-7772500D01*
X11517500Y-10172500D02*
X11557500Y-10212500D01*
X11557500Y-10172500D02*
X11517500Y-10212500D01*
X11637500Y-2012500D02*
X11677500Y-2052500D01*
X11677500Y-2012500D02*
X11637500Y-2052500D01*
X11927500Y-3922500D02*
X11967500Y-3962500D01*
X11967500Y-3922500D02*
X11927500Y-3962500D01*
X12347500Y-9632500D02*
X12387500Y-9672500D01*
X12387500Y-9632500D02*
X12347500Y-9672500D01*
X12837500Y-5832500D02*
X12877500Y-5872500D01*
X12877500Y-5832500D02*
X12837500Y-5872500D01*
X13337500Y-7732500D02*
X13377500Y-7772500D01*
X13377500Y-7732500D02*
X13337500Y-7772500D01*
X13417500Y-10162500D02*
X13457500Y-10202500D01*
X13457500Y-10162500D02*
X13417500Y-10202500D01*
X13837500Y-3922500D02*
X13877500Y-3962500D01*
X13877500Y-3922500D02*
X13837500Y-3962500D01*
X14247500Y-9642500D02*
X14287500Y-9682500D01*
X14287500Y-9642500D02*
X14247500Y-9682500D01*
X14537500Y-2022500D02*
X14577500Y-2062500D01*
X14577500Y-2022500D02*
X14537500Y-2062500D01*
X14737500Y-5822500D02*
X14777500Y-5862500D01*
X14777500Y-5822500D02*
X14737500Y-5862500D01*
X15247500Y-7732500D02*
X15287500Y-7772500D01*
X15287500Y-7732500D02*
X15247500Y-7772500D01*
X15517500Y-11542500D02*
X15557500Y-11582500D01*
X15557500Y-11542500D02*
X15517500Y-11582500D01*
X15737500Y-3922500D02*
X15777500Y-3962500D01*
X15777500Y-3922500D02*
X15737500Y-3962500D01*
X16157500Y-9642500D02*
X16197500Y-9682500D01*
X16197500Y-9642500D02*
X16157500Y-9682500D01*
X16647500Y-5832500D02*
X16687500Y-5872500D01*
X16687500Y-5832500D02*
X16647500Y-5872500D01*
X16737500Y-2012500D02*
X16777500Y-2052500D01*
X16777500Y-2012500D02*
X16737500Y-2052500D01*
X17137500Y-7732500D02*
X17177500Y-7772500D01*
X17177500Y-7732500D02*
X17137500Y-7772500D01*
X17227500Y-10152500D02*
X17267500Y-10192500D01*
X17267500Y-10152500D02*
X17227500Y-10192500D01*
X17637500Y-3922500D02*
X17677500Y-3962500D01*
X17677500Y-3922500D02*
X17637500Y-3962500D01*
X18057500Y-9642500D02*
X18097500Y-9682500D01*
X18097500Y-9642500D02*
X18057500Y-9682500D01*
X18537500Y-5832500D02*
X18577500Y-5872500D01*
X18577500Y-5832500D02*
X18537500Y-5872500D01*
X18637500Y-2002500D02*
X18677500Y-2042500D01*
X18677500Y-2002500D02*
X18637500Y-2042500D01*
X19047500Y-7732500D02*
X19087500Y-7772500D01*
X19087500Y-7732500D02*
X19047500Y-7772500D01*
X19147500Y-10172500D02*
X19187500Y-10212500D01*
X19187500Y-10172500D02*
X19147500Y-10212500D01*
X19527500Y-3922500D02*
X19567500Y-3962500D01*
X19567500Y-3922500D02*
X19527500Y-3962500D01*
X20047500Y-9632500D02*
X20087500Y-9672500D01*
X20087500Y-9632500D02*
X20047500Y-9672500D01*
X20447500Y-5832500D02*
X20487500Y-5872500D01*
X20487500Y-5832500D02*
X20447500Y-5872500D01*
X20537500Y-2012500D02*
X20577500Y-2052500D01*
X20577500Y-2012500D02*
X20537500Y-2052500D01*
X20947500Y-7732500D02*
X20987500Y-7772500D01*
X20987500Y-7732500D02*
X20947500Y-7772500D01*
X21047500Y-10162500D02*
X21087500Y-10202500D01*
X21087500Y-10162500D02*
X21047500Y-10202500D01*
X21447500Y-3922500D02*
X21487500Y-3962500D01*
X21487500Y-3922500D02*
X21447500Y-3962500D01*
X21947500Y-9642500D02*
X21987500Y-9682500D01*
X21987500Y-9642500D02*
X21947500Y-9682500D01*
X22367500Y-5832500D02*
X22407500Y-5872500D01*
X22407500Y-5832500D02*
X22367500Y-5872500D01*
X22647500Y-11542500D02*
X22687500Y-11582500D01*
X22687500Y-11542500D02*
X22647500Y-11582500D01*
X22847500Y-7742500D02*
X22887500Y-7782500D01*
X22887500Y-7742500D02*
X22847500Y-7782500D01*
X22947500Y-10162500D02*
X22987500Y-10202500D01*
X22987500Y-10162500D02*
X22947500Y-10202500D01*
X23337500Y-2012500D02*
X23377500Y-2052500D01*
X23377500Y-2012500D02*
X23337500Y-2052500D01*
X23337500Y-3922500D02*
X23377500Y-3962500D01*
X23377500Y-3922500D02*
X23337500Y-3962500D01*
X23847500Y-9642500D02*
X23887500Y-9682500D01*
X23887500Y-9642500D02*
X23847500Y-9682500D01*
X24347500Y-5832500D02*
X24387500Y-5872500D01*
X24387500Y-5832500D02*
X24347500Y-5872500D01*
X24747500Y-7732500D02*
X24787500Y-7772500D01*
X24787500Y-7732500D02*
X24747500Y-7772500D01*
X25237500Y-2012500D02*
X25277500Y-2052500D01*
X25277500Y-2012500D02*
X25237500Y-2052500D01*
X25237500Y-3922500D02*
X25277500Y-3962500D01*
X25277500Y-3922500D02*
X25237500Y-3962500D01*
X25327500Y-11542500D02*
X25367500Y-11582500D01*
X25367500Y-11542500D02*
X25327500Y-11582500D01*
X26227500Y-5832500D02*
X26267500Y-5872500D01*
X26267500Y-5832500D02*
X26227500Y-5872500D01*
X27137500Y-2012500D02*
X27177500Y-2052500D01*
X27177500Y-2012500D02*
X27137500Y-2052500D01*
X27177500Y-11542500D02*
X27217500Y-11582500D01*
X27217500Y-11542500D02*
X27177500Y-11582500D01*
X27197500Y-9652500D02*
X27237500Y-9692500D01*
X27237500Y-9652500D02*
X27197500Y-9692500D01*
X27867500Y-7732500D02*
X27907500Y-7772500D01*
X27907500Y-7732500D02*
X27867500Y-7772500D01*
X28077500Y-3922500D02*
X28117500Y-3962500D01*
X28117500Y-3922500D02*
X28077500Y-3962500D01*
X28567500Y-5832500D02*
X28607500Y-5872500D01*
X28607500Y-5832500D02*
X28567500Y-5872500D01*
X29027500Y-2012500D02*
X29067500Y-2052500D01*
X29067500Y-2012500D02*
X29027500Y-2052500D01*
X29037500Y-11542500D02*
X29077500Y-11582500D01*
X29077500Y-11542500D02*
X29037500Y-11582500D01*
D13*
X4131761Y-1860961D02*
G75*
G03*
X4131761Y-1860961I-40000J0D01*
G01*
D11*
X4061761Y-1830961D02*
X4061761Y-1890961D01*
X4121761Y-1830961D02*
X4121761Y-1890961D01*
X4061761Y-1890961D02*
G75*
G03*
X4121761Y-1890961I30000J0D01*
G01*
X4121761Y-1830961D02*
G75*
G03*
X4061761Y-1830961I-30000J0D01*
G01*
D13*
X4131761Y-2280951D02*
G75*
G03*
X4131761Y-2280951I-40000J0D01*
G01*
D11*
X4061761Y-2240950D02*
X4061761Y-2320952D01*
X4121761Y-2240950D02*
X4121761Y-2320952D01*
X4061761Y-2320952D02*
G75*
G03*
X4121761Y-2320952I30000J0D01*
G01*
X4121761Y-2240950D02*
G75*
G03*
X4061761Y-2240950I-30000J0D01*
G01*
D13*
X4996786Y-1860961D02*
G75*
G03*
X4996786Y-1860961I-40000J0D01*
G01*
D11*
X4926786Y-1830961D02*
X4926786Y-1890961D01*
X4986786Y-1830961D02*
X4986786Y-1890961D01*
X4926786Y-1890961D02*
G75*
G03*
X4986786Y-1890961I30000J0D01*
G01*
X4986786Y-1830961D02*
G75*
G03*
X4926786Y-1830961I-30000J0D01*
G01*
D13*
X4996786Y-2280951D02*
G75*
G03*
X4996786Y-2280951I-40000J0D01*
G01*
D11*
X4926786Y-2240952D02*
X4926786Y-2320950D01*
X4986786Y-2240952D02*
X4986786Y-2320950D01*
X4926786Y-2320950D02*
G75*
G03*
X4986786Y-2320950I30000J0D01*
G01*
X4986786Y-2240952D02*
G75*
G03*
X4926786Y-2240952I-30000J0D01*
G01*
D14*
X2257500Y-8087000D02*
X2257500Y-8187000D01*
X2207500Y-8137000D02*
X2307500Y-8137000D01*
X2257500Y-8341000D02*
X2257500Y-8441000D01*
X2207500Y-8391000D02*
X2307500Y-8391000D01*
X2257500Y-8595000D02*
X2257500Y-8695000D01*
X2207500Y-8645000D02*
X2307500Y-8645000D01*
D11*
X2157619Y-13650476D02*
X2157619Y-13450476D01*
X2205238Y-13450476D01*
X2233810Y-13460000D01*
X2252857Y-13479048D01*
X2262381Y-13498095D01*
X2271905Y-13536190D01*
X2271905Y-13564762D01*
X2262381Y-13602857D01*
X2252857Y-13621905D01*
X2233810Y-13640952D01*
X2205238Y-13650476D01*
X2157619Y-13650476D01*
X2357619Y-13650476D02*
X2357619Y-13517143D01*
X2357619Y-13555238D02*
X2367143Y-13536190D01*
X2376667Y-13526667D01*
X2395714Y-13517143D01*
X2414762Y-13517143D01*
X2481429Y-13650476D02*
X2481429Y-13517143D01*
X2481429Y-13450476D02*
X2471905Y-13460000D01*
X2481429Y-13469524D01*
X2490952Y-13460000D01*
X2481429Y-13450476D01*
X2481429Y-13469524D01*
X2605238Y-13650476D02*
X2586190Y-13640952D01*
X2576667Y-13621905D01*
X2576667Y-13450476D01*
X2710000Y-13650476D02*
X2690952Y-13640952D01*
X2681429Y-13621905D01*
X2681429Y-13450476D01*
X2938571Y-13650476D02*
X2938571Y-13450476D01*
X3005238Y-13593333D01*
X3071905Y-13450476D01*
X3071905Y-13650476D01*
X3252857Y-13650476D02*
X3252857Y-13545714D01*
X3243333Y-13526667D01*
X3224286Y-13517143D01*
X3186190Y-13517143D01*
X3167143Y-13526667D01*
X3252857Y-13640952D02*
X3233809Y-13650476D01*
X3186190Y-13650476D01*
X3167143Y-13640952D01*
X3157619Y-13621905D01*
X3157619Y-13602857D01*
X3167143Y-13583809D01*
X3186190Y-13574286D01*
X3233809Y-13574286D01*
X3252857Y-13564762D01*
X3348095Y-13517143D02*
X3348095Y-13717143D01*
X3348095Y-13526667D02*
X3367143Y-13517143D01*
X3405238Y-13517143D01*
X3424286Y-13526667D01*
X3433809Y-13536190D01*
X3443333Y-13555238D01*
X3443333Y-13612381D01*
X3433809Y-13631428D01*
X3424286Y-13640952D01*
X3405238Y-13650476D01*
X3367143Y-13650476D01*
X3348095Y-13640952D01*
X3529048Y-13631428D02*
X3538571Y-13640952D01*
X3529048Y-13650476D01*
X3519524Y-13640952D01*
X3529048Y-13631428D01*
X3529048Y-13650476D01*
X3529048Y-13526667D02*
X3538571Y-13536190D01*
X3529048Y-13545714D01*
X3519524Y-13536190D01*
X3529048Y-13526667D01*
X3529048Y-13545714D01*
D12*
X1860000Y-13960000D02*
X1900000Y-14000000D01*
X1900000Y-13960000D02*
X1860000Y-14000000D01*
D11*
X2195714Y-13870476D02*
X2214762Y-13870476D01*
X2233810Y-13880000D01*
X2243333Y-13889524D01*
X2252857Y-13908571D01*
X2262381Y-13946667D01*
X2262381Y-13994286D01*
X2252857Y-14032381D01*
X2243333Y-14051428D01*
X2233810Y-14060952D01*
X2214762Y-14070476D01*
X2195714Y-14070476D01*
X2176667Y-14060952D01*
X2167143Y-14051428D01*
X2157619Y-14032381D01*
X2148095Y-13994286D01*
X2148095Y-13946667D01*
X2157619Y-13908571D01*
X2167143Y-13889524D01*
X2176667Y-13880000D01*
X2195714Y-13870476D01*
X2348095Y-14051428D02*
X2357619Y-14060952D01*
X2348095Y-14070476D01*
X2338571Y-14060952D01*
X2348095Y-14051428D01*
X2348095Y-14070476D01*
X2529048Y-13937143D02*
X2529048Y-14070476D01*
X2481429Y-13860952D02*
X2433810Y-14003809D01*
X2557619Y-14003809D01*
X2671905Y-13870476D02*
X2690952Y-13870476D01*
X2710000Y-13880000D01*
X2719524Y-13889524D01*
X2729048Y-13908571D01*
X2738571Y-13946667D01*
X2738571Y-13994286D01*
X2729048Y-14032381D01*
X2719524Y-14051428D01*
X2710000Y-14060952D01*
X2690952Y-14070476D01*
X2671905Y-14070476D01*
X2652857Y-14060952D01*
X2643333Y-14051428D01*
X2633810Y-14032381D01*
X2624286Y-13994286D01*
X2624286Y-13946667D01*
X2633810Y-13908571D01*
X2643333Y-13889524D01*
X2652857Y-13880000D01*
X2671905Y-13870476D01*
X2862381Y-13870476D02*
X2881428Y-13870476D01*
X2900476Y-13880000D01*
X2910000Y-13889524D01*
X2919524Y-13908571D01*
X2929048Y-13946667D01*
X2929048Y-13994286D01*
X2919524Y-14032381D01*
X2910000Y-14051428D01*
X2900476Y-14060952D01*
X2881428Y-14070476D01*
X2862381Y-14070476D01*
X2843333Y-14060952D01*
X2833809Y-14051428D01*
X2824286Y-14032381D01*
X2814762Y-13994286D01*
X2814762Y-13946667D01*
X2824286Y-13908571D01*
X2833809Y-13889524D01*
X2843333Y-13880000D01*
X2862381Y-13870476D01*
X3014762Y-14070476D02*
X3014762Y-13937143D01*
X3014762Y-13956190D02*
X3024286Y-13946667D01*
X3043333Y-13937143D01*
X3071905Y-13937143D01*
X3090952Y-13946667D01*
X3100476Y-13965714D01*
X3100476Y-14070476D01*
X3100476Y-13965714D02*
X3110000Y-13946667D01*
X3129048Y-13937143D01*
X3157619Y-13937143D01*
X3176667Y-13946667D01*
X3186190Y-13965714D01*
X3186190Y-14070476D01*
X3281428Y-14070476D02*
X3281428Y-13937143D01*
X3281428Y-13956190D02*
X3290952Y-13946667D01*
X3310000Y-13937143D01*
X3338571Y-13937143D01*
X3357619Y-13946667D01*
X3367143Y-13965714D01*
X3367143Y-14070476D01*
X3367143Y-13965714D02*
X3376667Y-13946667D01*
X3395714Y-13937143D01*
X3424286Y-13937143D01*
X3443333Y-13946667D01*
X3452857Y-13965714D01*
X3452857Y-14070476D01*
X3843333Y-13860952D02*
X3671905Y-14118095D01*
X4100476Y-13870476D02*
X4119524Y-13870476D01*
X4138571Y-13880000D01*
X4148095Y-13889524D01*
X4157619Y-13908571D01*
X4167143Y-13946667D01*
X4167143Y-13994286D01*
X4157619Y-14032381D01*
X4148095Y-14051428D01*
X4138571Y-14060952D01*
X4119524Y-14070476D01*
X4100476Y-14070476D01*
X4081428Y-14060952D01*
X4071905Y-14051428D01*
X4062381Y-14032381D01*
X4052857Y-13994286D01*
X4052857Y-13946667D01*
X4062381Y-13908571D01*
X4071905Y-13889524D01*
X4081428Y-13880000D01*
X4100476Y-13870476D01*
X4252857Y-14051428D02*
X4262381Y-14060952D01*
X4252857Y-14070476D01*
X4243333Y-14060952D01*
X4252857Y-14051428D01*
X4252857Y-14070476D01*
X4386190Y-13870476D02*
X4405238Y-13870476D01*
X4424286Y-13880000D01*
X4433810Y-13889524D01*
X4443333Y-13908571D01*
X4452857Y-13946667D01*
X4452857Y-13994286D01*
X4443333Y-14032381D01*
X4433810Y-14051428D01*
X4424286Y-14060952D01*
X4405238Y-14070476D01*
X4386190Y-14070476D01*
X4367143Y-14060952D01*
X4357619Y-14051428D01*
X4348095Y-14032381D01*
X4338571Y-13994286D01*
X4338571Y-13946667D01*
X4348095Y-13908571D01*
X4357619Y-13889524D01*
X4367143Y-13880000D01*
X4386190Y-13870476D01*
X4643333Y-14070476D02*
X4529048Y-14070476D01*
X4586190Y-14070476D02*
X4586190Y-13870476D01*
X4567143Y-13899048D01*
X4548095Y-13918095D01*
X4529048Y-13927619D01*
X4824286Y-13870476D02*
X4729048Y-13870476D01*
X4719524Y-13965714D01*
X4729048Y-13956190D01*
X4748095Y-13946667D01*
X4795714Y-13946667D01*
X4814762Y-13956190D01*
X4824286Y-13965714D01*
X4833810Y-13984762D01*
X4833810Y-14032381D01*
X4824286Y-14051428D01*
X4814762Y-14060952D01*
X4795714Y-14070476D01*
X4748095Y-14070476D01*
X4729048Y-14060952D01*
X4719524Y-14051428D01*
X4900476Y-13870476D02*
X5033810Y-13870476D01*
X4948095Y-14070476D01*
X5100476Y-13870476D02*
X5100476Y-13908571D01*
X5176667Y-13870476D02*
X5176667Y-13908571D01*
X5471905Y-14146667D02*
X5462381Y-14137143D01*
X5443333Y-14108571D01*
X5433810Y-14089524D01*
X5424286Y-14060952D01*
X5414762Y-14013333D01*
X5414762Y-13975238D01*
X5424286Y-13927619D01*
X5433810Y-13899048D01*
X5443333Y-13880000D01*
X5462381Y-13851428D01*
X5471905Y-13841905D01*
X5652857Y-14070476D02*
X5538571Y-14070476D01*
X5595714Y-14070476D02*
X5595714Y-13870476D01*
X5576667Y-13899048D01*
X5557619Y-13918095D01*
X5538571Y-13927619D01*
X5824286Y-13870476D02*
X5786190Y-13870476D01*
X5767143Y-13880000D01*
X5757619Y-13889524D01*
X5738571Y-13918095D01*
X5729048Y-13956190D01*
X5729048Y-14032381D01*
X5738571Y-14051428D01*
X5748095Y-14060952D01*
X5767143Y-14070476D01*
X5805238Y-14070476D01*
X5824286Y-14060952D01*
X5833809Y-14051428D01*
X5843333Y-14032381D01*
X5843333Y-13984762D01*
X5833809Y-13965714D01*
X5824286Y-13956190D01*
X5805238Y-13946667D01*
X5767143Y-13946667D01*
X5748095Y-13956190D01*
X5738571Y-13965714D01*
X5729048Y-13984762D01*
X6024286Y-13870476D02*
X5929048Y-13870476D01*
X5919524Y-13965714D01*
X5929048Y-13956190D01*
X5948095Y-13946667D01*
X5995714Y-13946667D01*
X6014762Y-13956190D01*
X6024286Y-13965714D01*
X6033809Y-13984762D01*
X6033809Y-14032381D01*
X6024286Y-14051428D01*
X6014762Y-14060952D01*
X5995714Y-14070476D01*
X5948095Y-14070476D01*
X5929048Y-14060952D01*
X5919524Y-14051428D01*
X6271905Y-14070476D02*
X6271905Y-13870476D01*
X6357619Y-14070476D02*
X6357619Y-13965714D01*
X6348095Y-13946667D01*
X6329048Y-13937143D01*
X6300476Y-13937143D01*
X6281428Y-13946667D01*
X6271905Y-13956190D01*
X6481428Y-14070476D02*
X6462381Y-14060952D01*
X6452857Y-14051428D01*
X6443333Y-14032381D01*
X6443333Y-13975238D01*
X6452857Y-13956190D01*
X6462381Y-13946667D01*
X6481428Y-13937143D01*
X6510000Y-13937143D01*
X6529048Y-13946667D01*
X6538571Y-13956190D01*
X6548095Y-13975238D01*
X6548095Y-14032381D01*
X6538571Y-14051428D01*
X6529048Y-14060952D01*
X6510000Y-14070476D01*
X6481428Y-14070476D01*
X6662381Y-14070476D02*
X6643333Y-14060952D01*
X6633809Y-14041905D01*
X6633809Y-13870476D01*
X6814762Y-14060952D02*
X6795714Y-14070476D01*
X6757619Y-14070476D01*
X6738571Y-14060952D01*
X6729048Y-14041905D01*
X6729048Y-13965714D01*
X6738571Y-13946667D01*
X6757619Y-13937143D01*
X6795714Y-13937143D01*
X6814762Y-13946667D01*
X6824286Y-13965714D01*
X6824286Y-13984762D01*
X6729048Y-14003809D01*
X6900476Y-14060952D02*
X6919524Y-14070476D01*
X6957619Y-14070476D01*
X6976667Y-14060952D01*
X6986190Y-14041905D01*
X6986190Y-14032381D01*
X6976667Y-14013333D01*
X6957619Y-14003809D01*
X6929048Y-14003809D01*
X6910000Y-13994286D01*
X6900476Y-13975238D01*
X6900476Y-13965714D01*
X6910000Y-13946667D01*
X6929048Y-13937143D01*
X6957619Y-13937143D01*
X6976667Y-13946667D01*
X7052857Y-14146667D02*
X7062381Y-14137143D01*
X7081428Y-14108571D01*
X7090952Y-14089524D01*
X7100476Y-14060952D01*
X7110000Y-14013333D01*
X7110000Y-13975238D01*
X7100476Y-13927619D01*
X7090952Y-13899048D01*
X7081428Y-13880000D01*
X7062381Y-13851428D01*
X7052857Y-13841905D01*
D13*
X1900000Y-14244000D02*
G75*
G03*
X1900000Y-14244000I-40000J0D01*
G01*
D11*
X2195714Y-14134476D02*
X2214762Y-14134476D01*
X2233810Y-14144000D01*
X2243333Y-14153524D01*
X2252857Y-14172571D01*
X2262381Y-14210667D01*
X2262381Y-14258286D01*
X2252857Y-14296381D01*
X2243333Y-14315428D01*
X2233810Y-14324952D01*
X2214762Y-14334476D01*
X2195714Y-14334476D01*
X2176667Y-14324952D01*
X2167143Y-14315428D01*
X2157619Y-14296381D01*
X2148095Y-14258286D01*
X2148095Y-14210667D01*
X2157619Y-14172571D01*
X2167143Y-14153524D01*
X2176667Y-14144000D01*
X2195714Y-14134476D01*
X2348095Y-14315428D02*
X2357619Y-14324952D01*
X2348095Y-14334476D01*
X2338571Y-14324952D01*
X2348095Y-14315428D01*
X2348095Y-14334476D01*
X2471905Y-14220190D02*
X2452857Y-14210667D01*
X2443333Y-14201143D01*
X2433810Y-14182095D01*
X2433810Y-14172571D01*
X2443333Y-14153524D01*
X2452857Y-14144000D01*
X2471905Y-14134476D01*
X2510000Y-14134476D01*
X2529048Y-14144000D01*
X2538571Y-14153524D01*
X2548095Y-14172571D01*
X2548095Y-14182095D01*
X2538571Y-14201143D01*
X2529048Y-14210667D01*
X2510000Y-14220190D01*
X2471905Y-14220190D01*
X2452857Y-14229714D01*
X2443333Y-14239238D01*
X2433810Y-14258286D01*
X2433810Y-14296381D01*
X2443333Y-14315428D01*
X2452857Y-14324952D01*
X2471905Y-14334476D01*
X2510000Y-14334476D01*
X2529048Y-14324952D01*
X2538571Y-14315428D01*
X2548095Y-14296381D01*
X2548095Y-14258286D01*
X2538571Y-14239238D01*
X2529048Y-14229714D01*
X2510000Y-14220190D01*
X2671905Y-14134476D02*
X2690952Y-14134476D01*
X2710000Y-14144000D01*
X2719524Y-14153524D01*
X2729048Y-14172571D01*
X2738571Y-14210667D01*
X2738571Y-14258286D01*
X2729048Y-14296381D01*
X2719524Y-14315428D01*
X2710000Y-14324952D01*
X2690952Y-14334476D01*
X2671905Y-14334476D01*
X2652857Y-14324952D01*
X2643333Y-14315428D01*
X2633810Y-14296381D01*
X2624286Y-14258286D01*
X2624286Y-14210667D01*
X2633810Y-14172571D01*
X2643333Y-14153524D01*
X2652857Y-14144000D01*
X2671905Y-14134476D01*
X2862381Y-14134476D02*
X2881428Y-14134476D01*
X2900476Y-14144000D01*
X2910000Y-14153524D01*
X2919524Y-14172571D01*
X2929048Y-14210667D01*
X2929048Y-14258286D01*
X2919524Y-14296381D01*
X2910000Y-14315428D01*
X2900476Y-14324952D01*
X2881428Y-14334476D01*
X2862381Y-14334476D01*
X2843333Y-14324952D01*
X2833809Y-14315428D01*
X2824286Y-14296381D01*
X2814762Y-14258286D01*
X2814762Y-14210667D01*
X2824286Y-14172571D01*
X2833809Y-14153524D01*
X2843333Y-14144000D01*
X2862381Y-14134476D01*
X3014762Y-14334476D02*
X3014762Y-14201143D01*
X3014762Y-14220190D02*
X3024286Y-14210667D01*
X3043333Y-14201143D01*
X3071905Y-14201143D01*
X3090952Y-14210667D01*
X3100476Y-14229714D01*
X3100476Y-14334476D01*
X3100476Y-14229714D02*
X3110000Y-14210667D01*
X3129048Y-14201143D01*
X3157619Y-14201143D01*
X3176667Y-14210667D01*
X3186190Y-14229714D01*
X3186190Y-14334476D01*
X3281428Y-14334476D02*
X3281428Y-14201143D01*
X3281428Y-14220190D02*
X3290952Y-14210667D01*
X3310000Y-14201143D01*
X3338571Y-14201143D01*
X3357619Y-14210667D01*
X3367143Y-14229714D01*
X3367143Y-14334476D01*
X3367143Y-14229714D02*
X3376667Y-14210667D01*
X3395714Y-14201143D01*
X3424286Y-14201143D01*
X3443333Y-14210667D01*
X3452857Y-14229714D01*
X3452857Y-14334476D01*
X3843333Y-14124952D02*
X3671905Y-14382095D01*
X4100476Y-14134476D02*
X4119524Y-14134476D01*
X4138571Y-14144000D01*
X4148095Y-14153524D01*
X4157619Y-14172571D01*
X4167143Y-14210667D01*
X4167143Y-14258286D01*
X4157619Y-14296381D01*
X4148095Y-14315428D01*
X4138571Y-14324952D01*
X4119524Y-14334476D01*
X4100476Y-14334476D01*
X4081428Y-14324952D01*
X4071905Y-14315428D01*
X4062381Y-14296381D01*
X4052857Y-14258286D01*
X4052857Y-14210667D01*
X4062381Y-14172571D01*
X4071905Y-14153524D01*
X4081428Y-14144000D01*
X4100476Y-14134476D01*
X4252857Y-14315428D02*
X4262381Y-14324952D01*
X4252857Y-14334476D01*
X4243333Y-14324952D01*
X4252857Y-14315428D01*
X4252857Y-14334476D01*
X4386190Y-14134476D02*
X4405238Y-14134476D01*
X4424286Y-14144000D01*
X4433810Y-14153524D01*
X4443333Y-14172571D01*
X4452857Y-14210667D01*
X4452857Y-14258286D01*
X4443333Y-14296381D01*
X4433810Y-14315428D01*
X4424286Y-14324952D01*
X4405238Y-14334476D01*
X4386190Y-14334476D01*
X4367143Y-14324952D01*
X4357619Y-14315428D01*
X4348095Y-14296381D01*
X4338571Y-14258286D01*
X4338571Y-14210667D01*
X4348095Y-14172571D01*
X4357619Y-14153524D01*
X4367143Y-14144000D01*
X4386190Y-14134476D01*
X4519524Y-14134476D02*
X4643333Y-14134476D01*
X4576667Y-14210667D01*
X4605238Y-14210667D01*
X4624286Y-14220190D01*
X4633810Y-14229714D01*
X4643333Y-14248762D01*
X4643333Y-14296381D01*
X4633810Y-14315428D01*
X4624286Y-14324952D01*
X4605238Y-14334476D01*
X4548095Y-14334476D01*
X4529048Y-14324952D01*
X4519524Y-14315428D01*
X4833810Y-14334476D02*
X4719524Y-14334476D01*
X4776667Y-14334476D02*
X4776667Y-14134476D01*
X4757619Y-14163048D01*
X4738571Y-14182095D01*
X4719524Y-14191619D01*
X5014762Y-14134476D02*
X4919524Y-14134476D01*
X4910000Y-14229714D01*
X4919524Y-14220190D01*
X4938571Y-14210667D01*
X4986190Y-14210667D01*
X5005238Y-14220190D01*
X5014762Y-14229714D01*
X5024286Y-14248762D01*
X5024286Y-14296381D01*
X5014762Y-14315428D01*
X5005238Y-14324952D01*
X4986190Y-14334476D01*
X4938571Y-14334476D01*
X4919524Y-14324952D01*
X4910000Y-14315428D01*
X5100476Y-14134476D02*
X5100476Y-14172571D01*
X5176667Y-14134476D02*
X5176667Y-14172571D01*
X5471905Y-14410667D02*
X5462381Y-14401143D01*
X5443333Y-14372571D01*
X5433810Y-14353524D01*
X5424286Y-14324952D01*
X5414762Y-14277333D01*
X5414762Y-14239238D01*
X5424286Y-14191619D01*
X5433810Y-14163048D01*
X5443333Y-14144000D01*
X5462381Y-14115428D01*
X5471905Y-14105905D01*
X5586190Y-14134476D02*
X5605238Y-14134476D01*
X5624286Y-14144000D01*
X5633809Y-14153524D01*
X5643333Y-14172571D01*
X5652857Y-14210667D01*
X5652857Y-14258286D01*
X5643333Y-14296381D01*
X5633809Y-14315428D01*
X5624286Y-14324952D01*
X5605238Y-14334476D01*
X5586190Y-14334476D01*
X5567143Y-14324952D01*
X5557619Y-14315428D01*
X5548095Y-14296381D01*
X5538571Y-14258286D01*
X5538571Y-14210667D01*
X5548095Y-14172571D01*
X5557619Y-14153524D01*
X5567143Y-14144000D01*
X5586190Y-14134476D01*
X5890952Y-14334476D02*
X5890952Y-14134476D01*
X5976667Y-14334476D02*
X5976667Y-14229714D01*
X5967143Y-14210667D01*
X5948095Y-14201143D01*
X5919524Y-14201143D01*
X5900476Y-14210667D01*
X5890952Y-14220190D01*
X6100476Y-14334476D02*
X6081428Y-14324952D01*
X6071905Y-14315428D01*
X6062381Y-14296381D01*
X6062381Y-14239238D01*
X6071905Y-14220190D01*
X6081428Y-14210667D01*
X6100476Y-14201143D01*
X6129048Y-14201143D01*
X6148095Y-14210667D01*
X6157619Y-14220190D01*
X6167143Y-14239238D01*
X6167143Y-14296381D01*
X6157619Y-14315428D01*
X6148095Y-14324952D01*
X6129048Y-14334476D01*
X6100476Y-14334476D01*
X6281428Y-14334476D02*
X6262381Y-14324952D01*
X6252857Y-14305905D01*
X6252857Y-14134476D01*
X6433809Y-14324952D02*
X6414762Y-14334476D01*
X6376667Y-14334476D01*
X6357619Y-14324952D01*
X6348095Y-14305905D01*
X6348095Y-14229714D01*
X6357619Y-14210667D01*
X6376667Y-14201143D01*
X6414762Y-14201143D01*
X6433809Y-14210667D01*
X6443333Y-14229714D01*
X6443333Y-14248762D01*
X6348095Y-14267809D01*
X6519524Y-14324952D02*
X6538571Y-14334476D01*
X6576667Y-14334476D01*
X6595714Y-14324952D01*
X6605238Y-14305905D01*
X6605238Y-14296381D01*
X6595714Y-14277333D01*
X6576667Y-14267809D01*
X6548095Y-14267809D01*
X6529048Y-14258286D01*
X6519524Y-14239238D01*
X6519524Y-14229714D01*
X6529048Y-14210667D01*
X6548095Y-14201143D01*
X6576667Y-14201143D01*
X6595714Y-14210667D01*
X6843333Y-14258286D02*
X6995714Y-14258286D01*
X6919524Y-14334476D02*
X6919524Y-14182095D01*
X7329048Y-14201143D02*
X7329048Y-14334476D01*
X7281428Y-14124952D02*
X7233809Y-14267809D01*
X7357619Y-14267809D01*
X7576667Y-14324952D02*
X7595714Y-14334476D01*
X7633809Y-14334476D01*
X7652857Y-14324952D01*
X7662381Y-14305905D01*
X7662381Y-14296381D01*
X7652857Y-14277333D01*
X7633809Y-14267809D01*
X7605238Y-14267809D01*
X7586190Y-14258286D01*
X7576667Y-14239238D01*
X7576667Y-14229714D01*
X7586190Y-14210667D01*
X7605238Y-14201143D01*
X7633809Y-14201143D01*
X7652857Y-14210667D01*
X7776667Y-14334476D02*
X7757619Y-14324952D01*
X7748095Y-14305905D01*
X7748095Y-14134476D01*
X7881428Y-14334476D02*
X7862381Y-14324952D01*
X7852857Y-14315428D01*
X7843333Y-14296381D01*
X7843333Y-14239238D01*
X7852857Y-14220190D01*
X7862381Y-14210667D01*
X7881428Y-14201143D01*
X7910000Y-14201143D01*
X7929048Y-14210667D01*
X7938571Y-14220190D01*
X7948095Y-14239238D01*
X7948095Y-14296381D01*
X7938571Y-14315428D01*
X7929048Y-14324952D01*
X7910000Y-14334476D01*
X7881428Y-14334476D01*
X8005238Y-14201143D02*
X8081428Y-14201143D01*
X8033809Y-14134476D02*
X8033809Y-14305905D01*
X8043333Y-14324952D01*
X8062381Y-14334476D01*
X8081428Y-14334476D01*
X8138571Y-14324952D02*
X8157619Y-14334476D01*
X8195714Y-14334476D01*
X8214762Y-14324952D01*
X8224286Y-14305905D01*
X8224286Y-14296381D01*
X8214762Y-14277333D01*
X8195714Y-14267809D01*
X8167143Y-14267809D01*
X8148095Y-14258286D01*
X8138571Y-14239238D01*
X8138571Y-14229714D01*
X8148095Y-14210667D01*
X8167143Y-14201143D01*
X8195714Y-14201143D01*
X8214762Y-14210667D01*
X8290952Y-14410667D02*
X8300476Y-14401143D01*
X8319524Y-14372571D01*
X8329048Y-14353524D01*
X8338571Y-14324952D01*
X8348095Y-14277333D01*
X8348095Y-14239238D01*
X8338571Y-14191619D01*
X8329048Y-14163048D01*
X8319524Y-14144000D01*
X8300476Y-14115428D01*
X8290952Y-14105905D01*
D14*
X1850000Y-14458000D02*
X1850000Y-14558000D01*
X1800000Y-14508000D02*
X1900000Y-14508000D01*
D11*
X2262381Y-14598476D02*
X2148095Y-14598476D01*
X2205238Y-14598476D02*
X2205238Y-14398476D01*
X2186190Y-14427048D01*
X2167143Y-14446095D01*
X2148095Y-14455619D01*
X2348095Y-14579428D02*
X2357619Y-14588952D01*
X2348095Y-14598476D01*
X2338571Y-14588952D01*
X2348095Y-14579428D01*
X2348095Y-14598476D01*
X2481429Y-14398476D02*
X2500476Y-14398476D01*
X2519524Y-14408000D01*
X2529048Y-14417524D01*
X2538571Y-14436571D01*
X2548095Y-14474667D01*
X2548095Y-14522286D01*
X2538571Y-14560381D01*
X2529048Y-14579428D01*
X2519524Y-14588952D01*
X2500476Y-14598476D01*
X2481429Y-14598476D01*
X2462381Y-14588952D01*
X2452857Y-14579428D01*
X2443333Y-14560381D01*
X2433810Y-14522286D01*
X2433810Y-14474667D01*
X2443333Y-14436571D01*
X2452857Y-14417524D01*
X2462381Y-14408000D01*
X2481429Y-14398476D01*
X2671905Y-14398476D02*
X2690952Y-14398476D01*
X2710000Y-14408000D01*
X2719524Y-14417524D01*
X2729048Y-14436571D01*
X2738571Y-14474667D01*
X2738571Y-14522286D01*
X2729048Y-14560381D01*
X2719524Y-14579428D01*
X2710000Y-14588952D01*
X2690952Y-14598476D01*
X2671905Y-14598476D01*
X2652857Y-14588952D01*
X2643333Y-14579428D01*
X2633810Y-14560381D01*
X2624286Y-14522286D01*
X2624286Y-14474667D01*
X2633810Y-14436571D01*
X2643333Y-14417524D01*
X2652857Y-14408000D01*
X2671905Y-14398476D01*
X2862381Y-14398476D02*
X2881428Y-14398476D01*
X2900476Y-14408000D01*
X2910000Y-14417524D01*
X2919524Y-14436571D01*
X2929048Y-14474667D01*
X2929048Y-14522286D01*
X2919524Y-14560381D01*
X2910000Y-14579428D01*
X2900476Y-14588952D01*
X2881428Y-14598476D01*
X2862381Y-14598476D01*
X2843333Y-14588952D01*
X2833809Y-14579428D01*
X2824286Y-14560381D01*
X2814762Y-14522286D01*
X2814762Y-14474667D01*
X2824286Y-14436571D01*
X2833809Y-14417524D01*
X2843333Y-14408000D01*
X2862381Y-14398476D01*
X3014762Y-14598476D02*
X3014762Y-14465143D01*
X3014762Y-14484190D02*
X3024286Y-14474667D01*
X3043333Y-14465143D01*
X3071905Y-14465143D01*
X3090952Y-14474667D01*
X3100476Y-14493714D01*
X3100476Y-14598476D01*
X3100476Y-14493714D02*
X3110000Y-14474667D01*
X3129048Y-14465143D01*
X3157619Y-14465143D01*
X3176667Y-14474667D01*
X3186190Y-14493714D01*
X3186190Y-14598476D01*
X3281428Y-14598476D02*
X3281428Y-14465143D01*
X3281428Y-14484190D02*
X3290952Y-14474667D01*
X3310000Y-14465143D01*
X3338571Y-14465143D01*
X3357619Y-14474667D01*
X3367143Y-14493714D01*
X3367143Y-14598476D01*
X3367143Y-14493714D02*
X3376667Y-14474667D01*
X3395714Y-14465143D01*
X3424286Y-14465143D01*
X3443333Y-14474667D01*
X3452857Y-14493714D01*
X3452857Y-14598476D01*
X3843333Y-14388952D02*
X3671905Y-14646095D01*
X4100476Y-14398476D02*
X4119524Y-14398476D01*
X4138571Y-14408000D01*
X4148095Y-14417524D01*
X4157619Y-14436571D01*
X4167143Y-14474667D01*
X4167143Y-14522286D01*
X4157619Y-14560381D01*
X4148095Y-14579428D01*
X4138571Y-14588952D01*
X4119524Y-14598476D01*
X4100476Y-14598476D01*
X4081428Y-14588952D01*
X4071905Y-14579428D01*
X4062381Y-14560381D01*
X4052857Y-14522286D01*
X4052857Y-14474667D01*
X4062381Y-14436571D01*
X4071905Y-14417524D01*
X4081428Y-14408000D01*
X4100476Y-14398476D01*
X4252857Y-14579428D02*
X4262381Y-14588952D01*
X4252857Y-14598476D01*
X4243333Y-14588952D01*
X4252857Y-14579428D01*
X4252857Y-14598476D01*
X4386190Y-14398476D02*
X4405238Y-14398476D01*
X4424286Y-14408000D01*
X4433810Y-14417524D01*
X4443333Y-14436571D01*
X4452857Y-14474667D01*
X4452857Y-14522286D01*
X4443333Y-14560381D01*
X4433810Y-14579428D01*
X4424286Y-14588952D01*
X4405238Y-14598476D01*
X4386190Y-14598476D01*
X4367143Y-14588952D01*
X4357619Y-14579428D01*
X4348095Y-14560381D01*
X4338571Y-14522286D01*
X4338571Y-14474667D01*
X4348095Y-14436571D01*
X4357619Y-14417524D01*
X4367143Y-14408000D01*
X4386190Y-14398476D01*
X4519524Y-14398476D02*
X4643333Y-14398476D01*
X4576667Y-14474667D01*
X4605238Y-14474667D01*
X4624286Y-14484190D01*
X4633810Y-14493714D01*
X4643333Y-14512762D01*
X4643333Y-14560381D01*
X4633810Y-14579428D01*
X4624286Y-14588952D01*
X4605238Y-14598476D01*
X4548095Y-14598476D01*
X4529048Y-14588952D01*
X4519524Y-14579428D01*
X4738571Y-14598476D02*
X4776667Y-14598476D01*
X4795714Y-14588952D01*
X4805238Y-14579428D01*
X4824286Y-14550857D01*
X4833810Y-14512762D01*
X4833810Y-14436571D01*
X4824286Y-14417524D01*
X4814762Y-14408000D01*
X4795714Y-14398476D01*
X4757619Y-14398476D01*
X4738571Y-14408000D01*
X4729048Y-14417524D01*
X4719524Y-14436571D01*
X4719524Y-14484190D01*
X4729048Y-14503238D01*
X4738571Y-14512762D01*
X4757619Y-14522286D01*
X4795714Y-14522286D01*
X4814762Y-14512762D01*
X4824286Y-14503238D01*
X4833810Y-14484190D01*
X5005238Y-14465143D02*
X5005238Y-14598476D01*
X4957619Y-14388952D02*
X4910000Y-14531809D01*
X5033810Y-14531809D01*
X5100476Y-14398476D02*
X5100476Y-14436571D01*
X5176667Y-14398476D02*
X5176667Y-14436571D01*
X5471905Y-14674667D02*
X5462381Y-14665143D01*
X5443333Y-14636571D01*
X5433810Y-14617524D01*
X5424286Y-14588952D01*
X5414762Y-14541333D01*
X5414762Y-14503238D01*
X5424286Y-14455619D01*
X5433810Y-14427048D01*
X5443333Y-14408000D01*
X5462381Y-14379428D01*
X5471905Y-14369905D01*
X5529048Y-14398476D02*
X5652857Y-14398476D01*
X5586190Y-14474667D01*
X5614762Y-14474667D01*
X5633809Y-14484190D01*
X5643333Y-14493714D01*
X5652857Y-14512762D01*
X5652857Y-14560381D01*
X5643333Y-14579428D01*
X5633809Y-14588952D01*
X5614762Y-14598476D01*
X5557619Y-14598476D01*
X5538571Y-14588952D01*
X5529048Y-14579428D01*
X5890952Y-14598476D02*
X5890952Y-14398476D01*
X5976667Y-14598476D02*
X5976667Y-14493714D01*
X5967143Y-14474667D01*
X5948095Y-14465143D01*
X5919524Y-14465143D01*
X5900476Y-14474667D01*
X5890952Y-14484190D01*
X6100476Y-14598476D02*
X6081428Y-14588952D01*
X6071905Y-14579428D01*
X6062381Y-14560381D01*
X6062381Y-14503238D01*
X6071905Y-14484190D01*
X6081428Y-14474667D01*
X6100476Y-14465143D01*
X6129048Y-14465143D01*
X6148095Y-14474667D01*
X6157619Y-14484190D01*
X6167143Y-14503238D01*
X6167143Y-14560381D01*
X6157619Y-14579428D01*
X6148095Y-14588952D01*
X6129048Y-14598476D01*
X6100476Y-14598476D01*
X6281428Y-14598476D02*
X6262381Y-14588952D01*
X6252857Y-14569905D01*
X6252857Y-14398476D01*
X6433809Y-14588952D02*
X6414762Y-14598476D01*
X6376667Y-14598476D01*
X6357619Y-14588952D01*
X6348095Y-14569905D01*
X6348095Y-14493714D01*
X6357619Y-14474667D01*
X6376667Y-14465143D01*
X6414762Y-14465143D01*
X6433809Y-14474667D01*
X6443333Y-14493714D01*
X6443333Y-14512762D01*
X6348095Y-14531809D01*
X6519524Y-14588952D02*
X6538571Y-14598476D01*
X6576667Y-14598476D01*
X6595714Y-14588952D01*
X6605238Y-14569905D01*
X6605238Y-14560381D01*
X6595714Y-14541333D01*
X6576667Y-14531809D01*
X6548095Y-14531809D01*
X6529048Y-14522286D01*
X6519524Y-14503238D01*
X6519524Y-14493714D01*
X6529048Y-14474667D01*
X6548095Y-14465143D01*
X6576667Y-14465143D01*
X6595714Y-14474667D01*
X6671905Y-14674667D02*
X6681428Y-14665143D01*
X6700476Y-14636571D01*
X6710000Y-14617524D01*
X6719524Y-14588952D01*
X6729048Y-14541333D01*
X6729048Y-14503238D01*
X6719524Y-14455619D01*
X6710000Y-14427048D01*
X6700476Y-14408000D01*
X6681428Y-14379428D01*
X6671905Y-14369905D01*
M02*
